<svg height="1530" width="1535.9999999999998" xmlns="http://www.w3.org/2000/svg">
 <!-- Created with Image Occlusion Enhanced -->
 <g>
  <title>Labels</title>
 </g>
 <g>
  <title>Masks</title>
  <rect fill="#FFEBA2" height="51.42857" id="0218c9bdba0949bd9cc3dc07fd037a76-ao-1" stroke="#2D2D2D" width="414.28573" x="875.42868" y="4.28568"/>
  <rect fill="#FFEBA2" height="22.85714" id="0218c9bdba0949bd9cc3dc07fd037a76-ao-2" stroke="#2D2D2D" width="125.71429" x="635.42867" y="12.85711"/>
  <rect fill="#FFEBA2" height="25.71429" id="0218c9bdba0949bd9cc3dc07fd037a76-ao-3" stroke="#2D2D2D" width="411.42859" x="935.42868" y="61.42854"/>
  <rect fill="#FFEBA2" height="48.57143" id="0218c9bdba0949bd9cc3dc07fd037a76-ao-4" stroke="#2D2D2D" width="160.00001" x="552.57152" y="49.99997"/>
  <rect fill="#FFEBA2" height="25.71429" id="0218c9bdba0949bd9cc3dc07fd037a76-ao-5" stroke="#2D2D2D" width="171.42858" x="972.57154" y="92.85711"/>
  <rect class="qshape" fill="#FF7E7E" height="31.42857" id="0218c9bdba0949bd9cc3dc07fd037a76-ao-6" stroke="#2D2D2D" width="231.42858" x="998.28583" y="121.42854"/>
  <g id="0218c9bdba0949bd9cc3dc07fd037a76-ao-7">
   <rect fill="#FFEBA2" height="22.85714" stroke="#2D2D2D" width="134.28572" x="504.00009" y="121.42854"/>
   <rect fill="#FFEBA2" height="25.71429" stroke="#2D2D2D" width="137.14286" x="484.00009" y="147.14283"/>
   <rect fill="#FFEBA2" height="25.71429" stroke="#2D2D2D" width="311.42859" x="149.71436" y="144.28569"/>
  </g>
  <rect fill="#FFEBA2" height="22.85714" id="0218c9bdba0949bd9cc3dc07fd037a76-ao-8" stroke="#2D2D2D" width="205.7143" x="1026.85726" y="161.42854"/>
  <rect fill="#FFEBA2" height="22.85714" id="0218c9bdba0949bd9cc3dc07fd037a76-ao-9" stroke="#2D2D2D" width="248.57144" x="1055.42869" y="198.5714"/>
  <rect fill="#FFEBA2" height="42.85714" id="0218c9bdba0949bd9cc3dc07fd037a76-ao-10" stroke="#2D2D2D" width="291.42858" x="149.71436" y="195.71426"/>
  <rect fill="#FFEBA2" height="28.57143" id="0218c9bdba0949bd9cc3dc07fd037a76-ao-11" stroke="#2D2D2D" width="288.57144" x="1089.7144" y="232.85712"/>
  <rect fill="#FFEBA2" height="28.57143" id="0218c9bdba0949bd9cc3dc07fd037a76-ao-12" stroke="#2D2D2D" width="82.85715" x="1126.85726" y="272.85712"/>
  <rect fill="#FFEBA2" height="65.71429" id="0218c9bdba0949bd9cc3dc07fd037a76-ao-13" stroke="#2D2D2D" width="291.42858" x="146.85722" y="267.14283"/>
  <rect fill="#FFEBA2" height="28.57143" id="0218c9bdba0949bd9cc3dc07fd037a76-ao-14" stroke="#2D2D2D" width="200.00001" x="1155.42869" y="307.14284"/>
  <rect fill="#FFEBA2" height="25.71429" id="0218c9bdba0949bd9cc3dc07fd037a76-ao-15" stroke="#2D2D2D" width="202.85715" x="1169.71441" y="347.14284"/>
  <rect fill="#FFEBA2" height="25.71429" id="0218c9bdba0949bd9cc3dc07fd037a76-ao-16" stroke="#2D2D2D" width="225.7143" x="149.71436" y="349.99998"/>
  <rect fill="#FFEBA2" height="51.42857" id="0218c9bdba0949bd9cc3dc07fd037a76-ao-17" stroke="#2D2D2D" width="122.85715" x="1252.57156" y="384.2857"/>
  <rect fill="#FFEBA2" height="45.71429" id="0218c9bdba0949bd9cc3dc07fd037a76-ao-18" stroke="#2D2D2D" width="208.57144" x="389.71437" y="701.42857"/>
  <rect fill="#FFEBA2" height="25.71429" id="0218c9bdba0949bd9cc3dc07fd037a76-ao-19" stroke="#2D2D2D" width="302.85716" x="329.71437" y="772.85714"/>
  <rect fill="#FFEBA2" height="25.71429" id="0218c9bdba0949bd9cc3dc07fd037a76-ao-20" stroke="#2D2D2D" width="137.14286" x="901.14297" y="770"/>
  <rect fill="#FFEBA2" height="77.14286" id="0218c9bdba0949bd9cc3dc07fd037a76-ao-21" stroke="#2D2D2D" width="168.57144" x="724.0001" y="810"/>
  <g id="0218c9bdba0949bd9cc3dc07fd037a76-ao-22">
   <rect fill="#FFEBA2" height="28.57143" stroke="#2D2D2D" width="288.57144" x="364.00009" y="821.42857"/>
   <rect fill="#FFEBA2" height="28.57143" stroke="#2D2D2D" width="277.14287" x="932.57154" y="835.71429"/>
  </g>
  <g id="0218c9bdba0949bd9cc3dc07fd037a76-ao-23">
   <rect fill="#FFEBA2" height="34.28572" stroke="#2D2D2D" width="260.00001" x="378.2858" y="867.14286"/>
   <rect fill="#FFEBA2" height="28.57143" stroke="#2D2D2D" width="254.28573" x="935.42868" y="884.28572"/>
  </g>
  <g id="0218c9bdba0949bd9cc3dc07fd037a76-ao-24">
   <rect fill="#FFEBA2" height="28.57143" stroke="#2D2D2D" width="262.85715" x="381.14294" y="918.57144"/>
   <rect fill="#FFEBA2" height="25.71429" stroke="#2D2D2D" width="260.00001" x="932.57154" y="927.14286"/>
  </g>
  <rect fill="#FFEBA2" height="45.71429" id="0218c9bdba0949bd9cc3dc07fd037a76-ao-25" stroke="#2D2D2D" width="151.42858" x="446.85723" y="967.14287"/>
  <rect fill="#FFEBA2" height="28.57143" id="0218c9bdba0949bd9cc3dc07fd037a76-ao-26" stroke="#2D2D2D" width="88.57143" x="715.42867" y="958.57144"/>
  <rect fill="#FFEBA2" height="25.71429" id="0218c9bdba0949bd9cc3dc07fd037a76-ao-27" stroke="#2D2D2D" width="211.42858" x="932.57154" y="972.85715"/>
  <rect fill="#FFEBA2" height="108.57143" id="0218c9bdba0949bd9cc3dc07fd037a76-ao-28" stroke="#2D2D2D" width="114.28572" x="152.57151" y="1167.14288"/>
  <rect fill="#FFEBA2" height="88.57143" id="0218c9bdba0949bd9cc3dc07fd037a76-ao-29" stroke="#2D2D2D" width="117.14286" x="1275.4287" y="1270.00002"/>
  <rect fill="#FFEBA2" height="91.42858" id="0218c9bdba0949bd9cc3dc07fd037a76-ao-30" stroke="#2D2D2D" width="194.28572" x="192.57151" y="1295.71431"/>
  <rect fill="#FFEBA2" height="48.57143" id="0218c9bdba0949bd9cc3dc07fd037a76-ao-31" stroke="#2D2D2D" width="108.57143" x="701.14296" y="1375.71431"/>
  <rect fill="#FFEBA2" height="68.57143" id="0218c9bdba0949bd9cc3dc07fd037a76-ao-32" stroke="#2D2D2D" width="197.14287" x="1195.4287" y="1378.57146"/>
  <rect fill="#FFEBA2" height="45.71429" id="0218c9bdba0949bd9cc3dc07fd037a76-ao-33" stroke="#2D2D2D" width="191.42858" x="252.57151" y="1407.14289"/>
  <rect fill="#FFEBA2" height="45.71429" id="0218c9bdba0949bd9cc3dc07fd037a76-ao-34" stroke="#2D2D2D" width="151.42858" x="706.85724" y="1441.4286"/>
  <rect fill="#FFEBA2" height="25.71429" id="0218c9bdba0949bd9cc3dc07fd037a76-ao-35" stroke="#2D2D2D" width="228.57144" x="349.71437" y="1461.4286"/>
  <rect fill="#FFEBA2" height="25.71429" id="0218c9bdba0949bd9cc3dc07fd037a76-ao-36" stroke="#2D2D2D" width="288.57144" x="1081.14298" y="1461.4286"/>
  <rect fill="#FFEBA2" height="25.71429" id="0218c9bdba0949bd9cc3dc07fd037a76-ao-37" stroke="#2D2D2D" width="442.85716" x="186.85722" y="1504.28575"/>
  <rect fill="#FFEBA2" height="25.71429" id="0218c9bdba0949bd9cc3dc07fd037a76-ao-38" stroke="#2D2D2D" width="240.00001" x="706.85724" y="1501.4286"/>
  <rect fill="#FFEBA2" height="31.42857" id="0218c9bdba0949bd9cc3dc07fd037a76-ao-39" stroke="#2D2D2D" width="268.57144" x="1009.7144" y="1501.4286"/>
 </g>
</svg>