<svg height="1588" width="1535.9999999999998" xmlns="http://www.w3.org/2000/svg">
 <!-- Created with Image Occlusion Enhanced -->
 <g>
  <title>Labels</title>
 </g>
 <g>
  <title>Masks</title>
  
  <rect fill="#FFEBA2" height="28.57143" id="035c286f841e43a286abf70ccf9a857e-ao-2" stroke="#2D2D2D" width="134.28572" x="248.2858" y="166.28574"/>
  <rect fill="#FFEBA2" height="25.71429" id="035c286f841e43a286abf70ccf9a857e-ao-3" stroke="#2D2D2D" width="131.42858" x="1051.14297" y="54.85716"/>
  <rect fill="#FFEBA2" height="25.71429" id="035c286f841e43a286abf70ccf9a857e-ao-4" stroke="#2D2D2D" width="65.71429" x="925.42868" y="74.85716"/>
  <rect fill="#FFEBA2" height="28.57143" id="035c286f841e43a286abf70ccf9a857e-ao-5" stroke="#2D2D2D" width="154.28572" x="1099.71441" y="97.71431"/>
  <rect fill="#FFEBA2" height="51.42857" id="035c286f841e43a286abf70ccf9a857e-ao-6" stroke="#2D2D2D" width="151.42858" x="794.00011" y="117.71431"/>
  <rect fill="#FFEBA2" height="68.57143" id="035c286f841e43a286abf70ccf9a857e-ao-7" stroke="#2D2D2D" width="240.00001" x="1156.85727" y="140.57145"/>
  <rect fill="#FFEBA2" height="45.71429" id="035c286f841e43a286abf70ccf9a857e-ao-8" stroke="#2D2D2D" width="160.00001" x="762.57153" y="177.71431"/>
  <rect fill="#FFEBA2" height="42.85714" id="035c286f841e43a286abf70ccf9a857e-ao-9" stroke="#2D2D2D" width="102.85715" x="611.14295" y="260.57146"/>
  <rect fill="#FFEBA2" height="117.14286" id="035c286f841e43a286abf70ccf9a857e-ao-10" stroke="#2D2D2D" width="114.28572" x="785.42868" y="234.85717"/>
  <rect fill="#FFEBA2" height="51.42857" id="035c286f841e43a286abf70ccf9a857e-ao-11" stroke="#2D2D2D" width="151.42858" x="485.42866" y="312.00003"/>
  <rect fill="#FFEBA2" height="48.57143" id="035c286f841e43a286abf70ccf9a857e-ao-12" stroke="#2D2D2D" width="148.57144" x="485.42866" y="366.28575"/>
  <rect fill="#FFEBA2" height="48.57143" id="035c286f841e43a286abf70ccf9a857e-ao-13" stroke="#2D2D2D" width="94.28572" x="162.57151" y="497.71432"/>
  <rect fill="#FFEBA2" height="28.57143" id="035c286f841e43a286abf70ccf9a857e-ao-14" stroke="#2D2D2D" width="151.42858" x="1231.14298" y="634.85719"/>
  <rect fill="#FFEBA2" height="51.42857" id="035c286f841e43a286abf70ccf9a857e-ao-15" stroke="#2D2D2D" width="114.28572" x="174.00008" y="683.42862"/>
  <rect fill="#FFEBA2" height="68.57143" id="035c286f841e43a286abf70ccf9a857e-ao-16" stroke="#2D2D2D" width="157.14286" x="1222.57155" y="680.57148"/>
  <rect fill="#FFEBA2" height="48.57143" id="035c286f841e43a286abf70ccf9a857e-ao-17" stroke="#2D2D2D" width="105.71429" x="196.85722" y="754.85719"/>
  <rect fill="#FFEBA2" height="71.42857" id="035c286f841e43a286abf70ccf9a857e-ao-18" stroke="#2D2D2D" width="165.71429" x="1208.28584" y="789.14291"/>
  <rect fill="#FFEBA2" height="45.71429" id="035c286f841e43a286abf70ccf9a857e-ao-19" stroke="#2D2D2D" width="160.00001" x="145.42865" y="829.14291"/>
  <rect fill="#FFEBA2" height="31.42857" id="035c286f841e43a286abf70ccf9a857e-ao-20" stroke="#2D2D2D" width="140.00001" x="1214.00012" y="874.8572"/>
  <rect fill="#FFEBA2" height="97.14286" id="035c286f841e43a286abf70ccf9a857e-ao-21" stroke="#2D2D2D" width="182.85715" x="145.42865" y="900.57149"/>
  <rect fill="#FFEBA2" height="28.57143" id="035c286f841e43a286abf70ccf9a857e-ao-22" stroke="#2D2D2D" width="71.42857" x="1219.71441" y="917.71434"/>
  <rect fill="#FFEBA2" height="28.57143" id="035c286f841e43a286abf70ccf9a857e-ao-23" stroke="#2D2D2D" width="197.14287" x="1208.28584" y="963.42863"/>
  <rect fill="#FFEBA2" height="31.42857" id="035c286f841e43a286abf70ccf9a857e-ao-24" stroke="#2D2D2D" width="177.14287" x="148.28579" y="1014.85721"/>
  <rect fill="#FFEBA2" height="57.14286" id="035c286f841e43a286abf70ccf9a857e-ao-25" stroke="#2D2D2D" width="180.00001" x="1202.57155" y="1003.42863"/>
  <rect fill="#FFEBA2" height="48.57143" id="035c286f841e43a286abf70ccf9a857e-ao-26" stroke="#2D2D2D" width="157.14286" x="191.14294" y="1069.14292"/>
  <rect fill="#FFEBA2" height="28.57143" id="035c286f841e43a286abf70ccf9a857e-ao-27" stroke="#2D2D2D" width="148.57144" x="1188.28584" y="1069.14292"/>
  <rect fill="#FFEBA2" height="45.71429" id="035c286f841e43a286abf70ccf9a857e-ao-28" stroke="#2D2D2D" width="185.71429" x="1185.4287" y="1112.00007"/>
  <rect fill="#FFEBA2" height="51.42857" id="035c286f841e43a286abf70ccf9a857e-ao-29" stroke="#2D2D2D" width="108.57143" x="274.00008" y="1140.5715"/>
  <rect fill="#FFEBA2" height="37.14286" id="035c286f841e43a286abf70ccf9a857e-ao-30" stroke="#2D2D2D" width="180.00001" x="1162.57155" y="1169.14293"/>
  <rect fill="#FFEBA2" height="34.28572" id="035c286f841e43a286abf70ccf9a857e-ao-31" stroke="#2D2D2D" width="242.85715" x="159.71436" y="1212.00007"/>
  <rect fill="#FFEBA2" height="48.57143" id="035c286f841e43a286abf70ccf9a857e-ao-32" stroke="#2D2D2D" width="194.28572" x="1142.57155" y="1217.71436"/>
  <rect fill="#FFEBA2" height="28.57143" id="035c286f841e43a286abf70ccf9a857e-ao-33" stroke="#2D2D2D" width="320.00001" x="148.28579" y="1263.42865"/>
  <rect fill="#FFEBA2" height="31.42857" id="035c286f841e43a286abf70ccf9a857e-ao-34" stroke="#2D2D2D" width="145.71429" x="1099.71441" y="1280.5715"/>
  <rect fill="#FFEBA2" height="54.28572" id="035c286f841e43a286abf70ccf9a857e-ao-35" stroke="#2D2D2D" width="228.57144" x="285.42865" y="1312.00008"/>
  <rect fill="#FFEBA2" height="45.71429" id="035c286f841e43a286abf70ccf9a857e-ao-36" stroke="#2D2D2D" width="202.85715" x="1051.14297" y="1326.28579"/>
  <rect fill="#FFEBA2" height="28.57143" id="035c286f841e43a286abf70ccf9a857e-ao-37" stroke="#2D2D2D" width="131.42858" x="436.85723" y="1386.28579"/>
  <rect fill="#FFEBA2" height="51.42857" id="035c286f841e43a286abf70ccf9a857e-ao-38" stroke="#2D2D2D" width="382.85716" x="1008.28583" y="1389.14294"/>
  <rect fill="#FFEBA2" height="28.57143" id="035c286f841e43a286abf70ccf9a857e-ao-39" stroke="#2D2D2D" width="134.28572" x="494.00009" y="1437.71437"/>
  <rect fill="#FFEBA2" height="31.42857" id="035c286f841e43a286abf70ccf9a857e-ao-40" stroke="#2D2D2D" width="160.00001" x="948.28583" y="1449.14294"/>
  <rect fill="#FFEBA2" height="28.57143" id="035c286f841e43a286abf70ccf9a857e-ao-41" stroke="#2D2D2D" width="191.42858" x="514.00009" y="1489.14294"/>
  <rect fill="#FFEBA2" height="28.57143" id="035c286f841e43a286abf70ccf9a857e-ao-42" stroke="#2D2D2D" width="128.57143" x="896.85725" y="1497.71437"/>
  <rect fill="#FFEBA2" height="25.71429" id="035c286f841e43a286abf70ccf9a857e-ao-43" stroke="#2D2D2D" width="71.42857" x="696.85724" y="1537.71437"/>
  <rect fill="#FFEBA2" height="28.57143" id="035c286f841e43a286abf70ccf9a857e-ao-44" stroke="#2D2D2D" width="182.85715" x="836.85725" y="1537.71437"/>
 </g>
</svg>