<svg height="998.0000000000001" width="1108" xmlns="http://www.w3.org/2000/svg">
 <!-- Created with Image Occlusion Enhanced -->
 <g>
  <title>Labels</title>
 </g>
 <g>
  <title>Masks</title>
  <rect fill="#FFEBA2" height="72.5" id="03ad052aee824431ba53c54e8fec6299-ao-1" stroke="#2D2D2D" width="122.5" x="835.74995" y="35.74997"/>
  <rect fill="#FFEBA2" height="50" id="03ad052aee824431ba53c54e8fec6299-ao-2" stroke="#2D2D2D" width="115" x="575.74995" y="123.24996"/>
  <rect fill="#FFEBA2" height="52.5" id="03ad052aee824431ba53c54e8fec6299-ao-3" stroke="#2D2D2D" width="60" x="268.24996" y="293.24996"/>
  <rect fill="#FFEBA2" height="30" id="03ad052aee824431ba53c54e8fec6299-ao-4" stroke="#2D2D2D" width="267.49999" x="60.74997" y="398.24996"/>
  <rect fill="#FFEBA2" height="27.5" id="03ad052aee824431ba53c54e8fec6299-ao-5" stroke="#2D2D2D" width="180" x="133.24997" y="443.24996"/>
  <rect fill="#FFEBA2" height="25" id="03ad052aee824431ba53c54e8fec6299-ao-6" stroke="#2D2D2D" width="229.99999" x="90.74997" y="490.74995"/>
  <rect fill="#FFEBA2" height="27.5" id="03ad052aee824431ba53c54e8fec6299-ao-7" stroke="#2D2D2D" width="257.49999" x="58.24997" y="528.24995"/>
  <rect fill="#FFEBA2" height="30" id="03ad052aee824431ba53c54e8fec6299-ao-8" stroke="#2D2D2D" width="227.49999" x="90.74997" y="575.74995"/>
  <rect fill="#FFEBA2" height="27.5" id="03ad052aee824431ba53c54e8fec6299-ao-9" stroke="#2D2D2D" width="212.49999" x="123.24997" y="618.24995"/>
  <rect fill="#FFEBA2" height="25" id="03ad052aee824431ba53c54e8fec6299-ao-10" stroke="#2D2D2D" width="257.49999" x="125.74997" y="670.74995"/>
  <rect fill="#FFEBA2" height="27.5" id="03ad052aee824431ba53c54e8fec6299-ao-11" stroke="#2D2D2D" width="117.5" x="280.74996" y="705.74995"/>
  <rect fill="#FFEBA2" height="70" id="03ad052aee824431ba53c54e8fec6299-ao-12" stroke="#2D2D2D" width="87.5" x="760.74995" y="690.74995"/>
  <rect fill="#FFEBA2" height="27.5" id="03ad052aee824431ba53c54e8fec6299-ao-13" stroke="#2D2D2D" width="82.5" x="885.74995" y="745.74995"/>
  <rect fill="#FFEBA2" height="27.5" id="03ad052aee824431ba53c54e8fec6299-ao-14" stroke="#2D2D2D" width="207.49999" x="265.74996" y="743.24995"/>
  <rect fill="#FFEBA2" height="30" id="03ad052aee824431ba53c54e8fec6299-ao-15" stroke="#2D2D2D" width="184.99999" x="320.74996" y="795.74995"/>
  <rect fill="#FFEBA2" height="67.5" id="03ad052aee824431ba53c54e8fec6299-ao-16" stroke="#2D2D2D" width="145" x="810.74995" y="785.74995"/>
  <rect fill="#FFEBA2" height="27.5" id="03ad052aee824431ba53c54e8fec6299-ao-17" stroke="#2D2D2D" width="202.49999" x="343.24996" y="845.74994"/>
  <rect fill="#FFEBA2" height="27.5" id="03ad052aee824431ba53c54e8fec6299-ao-18" stroke="#2D2D2D" width="182.49999" x="470.74996" y="888.24994"/>
  <rect class="qshape" fill="#FF7E7E" height="27.5" id="03ad052aee824431ba53c54e8fec6299-ao-19" stroke="#2D2D2D" width="135" x="565.74995" y="930.74994"/>
  <rect fill="#FFEBA2" height="47.5" id="03ad052aee824431ba53c54e8fec6299-ao-20" stroke="#2D2D2D" width="97.5" x="843.24995" y="935.74994"/>
 </g>
</svg>