<svg height="1484" width="1535.9999999999998" xmlns="http://www.w3.org/2000/svg">
 <!-- Created with Image Occlusion Enhanced -->
 <g>
  <title>Labels</title>
 </g>
 <g>
  <title>Masks</title>
  <rect fill="#FFEBA2" height="25.71429" id="03c24c8428f646aca5d4892696ef66b8-ao-1" stroke="#2D2D2D" width="200.00001" x="146.85722" y="68.85701"/>
  <rect fill="#FFEBA2" height="28.57143" id="03c24c8428f646aca5d4892696ef66b8-ao-2" stroke="#2D2D2D" width="200.00001" x="155.42865" y="108.85701"/>
  <rect fill="#FFEBA2" height="51.42857" id="03c24c8428f646aca5d4892696ef66b8-ao-3" stroke="#2D2D2D" width="262.85715" x="146.85722" y="243.14273"/>
  <rect fill="#FFEBA2" height="34.28572" id="03c24c8428f646aca5d4892696ef66b8-ao-4" stroke="#2D2D2D" width="151.42858" x="144.00008" y="397.42845"/>
  <rect fill="#FFEBA2" height="45.71429" id="03c24c8428f646aca5d4892696ef66b8-ao-5" stroke="#2D2D2D" width="185.71429" x="144.00008" y="451.71417"/>
  
  <rect fill="#FFEBA2" height="25.71429" id="03c24c8428f646aca5d4892696ef66b8-ao-7" stroke="#2D2D2D" width="328.57144" x="146.85722" y="583.14275"/>
  <rect fill="#FFEBA2" height="45.71429" id="03c24c8428f646aca5d4892696ef66b8-ao-8" stroke="#2D2D2D" width="171.42858" x="152.57151" y="623.14275"/>
  <rect fill="#FFEBA2" height="42.85714" id="03c24c8428f646aca5d4892696ef66b8-ao-9" stroke="#2D2D2D" width="171.42858" x="152.57151" y="680.28561"/>
  <rect fill="#FFEBA2" height="28.57143" id="03c24c8428f646aca5d4892696ef66b8-ao-10" stroke="#2D2D2D" width="197.14287" x="152.57151" y="731.71418"/>
  <rect fill="#FFEBA2" height="28.57143" id="03c24c8428f646aca5d4892696ef66b8-ao-11" stroke="#2D2D2D" width="282.85716" x="152.57151" y="765.9999"/>
  <rect fill="#FFEBA2" height="22.85714" id="03c24c8428f646aca5d4892696ef66b8-ao-12" stroke="#2D2D2D" width="388.57145" x="152.57151" y="811.71418"/>
  <rect fill="#FFEBA2" height="45.71429" id="03c24c8428f646aca5d4892696ef66b8-ao-13" stroke="#2D2D2D" width="274.28573" x="149.71436" y="857.42847"/>
  <rect fill="#FFEBA2" height="48.57143" id="03c24c8428f646aca5d4892696ef66b8-ao-14" stroke="#2D2D2D" width="208.57144" x="149.71436" y="923.14276"/>
  <rect fill="#FFEBA2" height="22.85714" id="03c24c8428f646aca5d4892696ef66b8-ao-15" stroke="#2D2D2D" width="328.57144" x="149.71436" y="991.71419"/>
  <rect fill="#FFEBA2" height="28.57143" id="03c24c8428f646aca5d4892696ef66b8-ao-16" stroke="#2D2D2D" width="268.57144" x="149.71436" y="1034.57134"/>
  <rect fill="#FFEBA2" height="28.57143" id="03c24c8428f646aca5d4892696ef66b8-ao-17" stroke="#2D2D2D" width="248.57144" x="149.71436" y="1080.28563"/>
  <rect fill="#FFEBA2" height="48.57143" id="03c24c8428f646aca5d4892696ef66b8-ao-18" stroke="#2D2D2D" width="202.85715" x="149.71436" y="1128.85706"/>
  <rect fill="#FFEBA2" height="25.71429" id="03c24c8428f646aca5d4892696ef66b8-ao-19" stroke="#2D2D2D" width="214.28572" x="152.57151" y="1194.57134"/>
  <rect fill="#FFEBA2" height="25.71429" id="03c24c8428f646aca5d4892696ef66b8-ao-20" stroke="#2D2D2D" width="205.7143" x="149.71436" y="1240.28563"/>
  <rect fill="#FFEBA2" height="68.57143" id="03c24c8428f646aca5d4892696ef66b8-ao-21" stroke="#2D2D2D" width="242.85715" x="144.00008" y="1288.85706"/>
 </g>
</svg>