<svg height="989" width="1535.9999999999998" xmlns="http://www.w3.org/2000/svg">
 <!-- Created with Image Occlusion Enhanced -->
 <g>
  <title>Labels</title>
 </g>
 <g>
  <title>Masks</title>
  <rect fill="#FFEBA2" height="48.57143" id="03eed9d5566b4d5cbbd4b955acca2194-ao-1" stroke="#2D2D2D" width="120.00001" x="155.42865" y="15.28572"/>
  <rect fill="#FFEBA2" height="57.14286" id="03eed9d5566b4d5cbbd4b955acca2194-ao-2" stroke="#2D2D2D" width="220.00001" x="1175.42869" y="9.57143"/>
  <rect fill="#FFEBA2" height="51.42857" id="03eed9d5566b4d5cbbd4b955acca2194-ao-3" stroke="#2D2D2D" width="177.14287" x="152.57151" y="106.71429"/>
  <rect fill="#FFEBA2" height="31.42857" id="03eed9d5566b4d5cbbd4b955acca2194-ao-4" stroke="#2D2D2D" width="217.14287" x="1175.42869" y="86.71429"/>
  <rect fill="#FFEBA2" height="48.57143" id="03eed9d5566b4d5cbbd4b955acca2194-ao-5" stroke="#2D2D2D" width="220.00001" x="1175.42869" y="149.57144"/>
  <rect fill="#FFEBA2" height="54.28572" id="03eed9d5566b4d5cbbd4b955acca2194-ao-6" stroke="#2D2D2D" width="188.57144" x="149.71436" y="192.42858"/>
  <rect fill="#FFEBA2" height="51.42857" id="03eed9d5566b4d5cbbd4b955acca2194-ao-7" stroke="#2D2D2D" width="134.28572" x="1172.57155" y="221.00001"/>
  <rect fill="#FFEBA2" height="71.42857" id="03eed9d5566b4d5cbbd4b955acca2194-ao-8" stroke="#2D2D2D" width="182.85715" x="152.57151" y="286.7143"/>
  <rect fill="#FFEBA2" height="34.28572" id="03eed9d5566b4d5cbbd4b955acca2194-ao-9" stroke="#2D2D2D" width="157.14286" x="1172.57155" y="283.85716"/>
  <rect fill="#FFEBA2" height="40" id="03eed9d5566b4d5cbbd4b955acca2194-ao-10" stroke="#2D2D2D" width="140.00001" x="1169.71441" y="346.71431"/>
  <rect fill="#FFEBA2" height="34.28572" id="03eed9d5566b4d5cbbd4b955acca2194-ao-11" stroke="#2D2D2D" width="171.42858" x="1169.71441" y="406.71431"/>
  <rect fill="#FFEBA2" height="57.14286" id="03eed9d5566b4d5cbbd4b955acca2194-ao-12" stroke="#2D2D2D" width="194.28572" x="152.57151" y="401.00002"/>
  <rect fill="#FFEBA2" height="54.28572" id="03eed9d5566b4d5cbbd4b955acca2194-ao-13" stroke="#2D2D2D" width="182.85715" x="1169.71441" y="469.57145"/>
  <rect fill="#FFEBA2" height="54.28572" id="03eed9d5566b4d5cbbd4b955acca2194-ao-14" stroke="#2D2D2D" width="205.7143" x="158.28579" y="495.28574"/>
  <rect fill="#FFEBA2" height="31.42857" id="03eed9d5566b4d5cbbd4b955acca2194-ao-15" stroke="#2D2D2D" width="208.57144" x="1172.57155" y="552.4286"/>
  <rect fill="#FFEBA2" height="28.57143" id="03eed9d5566b4d5cbbd4b955acca2194-ao-16" stroke="#2D2D2D" width="108.57143" x="152.57151" y="589.57146"/>
  <rect fill="#FFEBA2" height="31.42857" id="03eed9d5566b4d5cbbd4b955acca2194-ao-17" stroke="#2D2D2D" width="180.00001" x="1169.71441" y="609.57146"/>
  <rect fill="#FFEBA2" height="31.42857" id="03eed9d5566b4d5cbbd4b955acca2194-ao-18" stroke="#2D2D2D" width="208.57144" x="149.71436" y="661.00003"/>
  <rect fill="#FFEBA2" height="45.71429" id="03eed9d5566b4d5cbbd4b955acca2194-ao-19" stroke="#2D2D2D" width="214.28572" x="1172.57155" y="678.14289"/>
  <rect class="qshape" fill="#FF7E7E" height="71.42857" id="03eed9d5566b4d5cbbd4b955acca2194-ao-20" stroke="#2D2D2D" width="197.14287" x="152.57151" y="732.42861"/>
  <rect fill="#FFEBA2" height="34.28572" id="03eed9d5566b4d5cbbd4b955acca2194-ao-21" stroke="#2D2D2D" width="200.00001" x="1175.42869" y="755.28575"/>
  <rect fill="#FFEBA2" height="34.28572" id="03eed9d5566b4d5cbbd4b955acca2194-ao-22" stroke="#2D2D2D" width="180.00001" x="1178.28584" y="815.28576"/>
  <rect fill="#FFEBA2" height="54.28572" id="03eed9d5566b4d5cbbd4b955acca2194-ao-23" stroke="#2D2D2D" width="174.28572" x="152.57151" y="843.85718"/>
  <rect fill="#FFEBA2" height="25.71429" id="03eed9d5566b4d5cbbd4b955acca2194-ao-24" stroke="#2D2D2D" width="34.28572" x="881.14297" y="61.00001"/>
  <rect fill="#FFEBA2" height="31.42857" id="03eed9d5566b4d5cbbd4b955acca2194-ao-25" stroke="#2D2D2D" width="37.14286" x="884.00011" y="132.42858"/>
  <rect fill="#FFEBA2" height="28.57143" id="03eed9d5566b4d5cbbd4b955acca2194-ao-26" stroke="#2D2D2D" width="34.28572" x="892.57154" y="206.7143"/>
 </g>
</svg>