<svg height="1521.9999999999998" width="1535.9999999999998" xmlns="http://www.w3.org/2000/svg">
 <!-- Created with Image Occlusion Enhanced -->
 <g>
  <title>Labels</title>
 </g>
 <g>
  <title>Masks</title>
  <rect fill="#FFEBA2" height="25.71429" id="04304fcc81e24d3b8821f3b8190e9d94-ao-1" stroke="#2D2D2D" width="311.42859" x="738.28582" y="13.7142"/>
  <rect fill="#FFEBA2" height="25.71429" id="04304fcc81e24d3b8821f3b8190e9d94-ao-2" stroke="#2D2D2D" width="171.42858" x="384.00009" y="10.85706"/>
  <rect fill="#FFEBA2" height="28.57143" id="04304fcc81e24d3b8821f3b8190e9d94-ao-3" stroke="#2D2D2D" width="180.00001" x="809.71439" y="47.99992"/>
  <rect fill="#FFEBA2" height="48.57143" id="04304fcc81e24d3b8821f3b8190e9d94-ao-4" stroke="#2D2D2D" width="234.28572" x="298.2858" y="65.14277"/>
  <rect fill="#FFEBA2" height="51.42857" id="04304fcc81e24d3b8821f3b8190e9d94-ao-5" stroke="#2D2D2D" width="91.42858" x="612.57153" y="70.85706"/>
  <rect fill="#FFEBA2" height="25.71429" id="04304fcc81e24d3b8821f3b8190e9d94-ao-6" stroke="#2D2D2D" width="414.28573" x="884.00011" y="90.85706"/>
  <rect fill="#FFEBA2" height="28.57143" id="04304fcc81e24d3b8821f3b8190e9d94-ao-7" stroke="#2D2D2D" width="245.7143" x="201.14294" y="136.57135"/>
  <rect fill="#FFEBA2" height="51.42857" id="04304fcc81e24d3b8821f3b8190e9d94-ao-8" stroke="#2D2D2D" width="348.57144" x="915.42868" y="127.99992"/>
  <rect fill="#FFEBA2" height="34.28572" id="04304fcc81e24d3b8821f3b8190e9d94-ao-9" stroke="#2D2D2D" width="217.14287" x="146.85722" y="193.71421"/>
  <rect fill="#FFEBA2" height="28.57143" id="04304fcc81e24d3b8821f3b8190e9d94-ao-10" stroke="#2D2D2D" width="108.57143" x="961.14297" y="187.99992"/>
  <rect fill="#FFEBA2" height="77.14286" id="04304fcc81e24d3b8821f3b8190e9d94-ao-11" stroke="#2D2D2D" width="142.85715" x="1238.28584" y="199.42849"/>
  <rect class="qshape" fill="#FF7E7E" height="51.42857" id="04304fcc81e24d3b8821f3b8190e9d94-ao-12" stroke="#2D2D2D" width="145.71429" x="144.00008" y="239.4285"/>
  <rect fill="#FFEBA2" height="100" id="04304fcc81e24d3b8821f3b8190e9d94-ao-13" stroke="#2D2D2D" width="148.57144" x="1235.4287" y="285.14278"/>
  <rect fill="#FFEBA2" height="171.42858" id="04304fcc81e24d3b8821f3b8190e9d94-ao-14" stroke="#2D2D2D" width="151.42858" x="144.00008" y="330.85707"/>
  <rect fill="#FFEBA2" height="51.42857" id="04304fcc81e24d3b8821f3b8190e9d94-ao-15" stroke="#2D2D2D" width="128.57143" x="1235.4287" y="399.4285"/>
  <rect fill="#FFEBA2" height="28.57143" id="04304fcc81e24d3b8821f3b8190e9d94-ao-16" stroke="#2D2D2D" width="111.42858" x="146.85722" y="510.85708"/>
  <rect fill="#FFEBA2" height="77.14286" id="04304fcc81e24d3b8821f3b8190e9d94-ao-17" stroke="#2D2D2D" width="140.00001" x="1235.4287" y="459.42851"/>
  <rect fill="#FFEBA2" height="34.28572" id="04304fcc81e24d3b8821f3b8190e9d94-ao-18" stroke="#2D2D2D" width="125.71429" x="141.14293" y="556.57137"/>
  <rect fill="#FFEBA2" height="48.57143" id="04304fcc81e24d3b8821f3b8190e9d94-ao-19" stroke="#2D2D2D" width="142.85715" x="1235.4287" y="559.42851"/>
  <rect fill="#FFEBA2" height="48.57143" id="04304fcc81e24d3b8821f3b8190e9d94-ao-20" stroke="#2D2D2D" width="114.28572" x="144.00008" y="605.1428"/>
  <rect fill="#FFEBA2" height="74.28572" id="04304fcc81e24d3b8821f3b8190e9d94-ao-21" stroke="#2D2D2D" width="165.71429" x="1238.28584" y="636.57137"/>
  <rect fill="#FFEBA2" height="54.28572" id="04304fcc81e24d3b8821f3b8190e9d94-ao-22" stroke="#2D2D2D" width="105.71429" x="144.00008" y="670.85709"/>
  <rect fill="#FFEBA2" height="68.57143" id="04304fcc81e24d3b8821f3b8190e9d94-ao-23" stroke="#2D2D2D" width="154.28572" x="1238.28584" y="722.28566"/>
  <rect fill="#FFEBA2" height="74.28572" id="04304fcc81e24d3b8821f3b8190e9d94-ao-24" stroke="#2D2D2D" width="117.14286" x="144.00008" y="745.1428"/>
  <rect fill="#FFEBA2" height="74.28572" id="04304fcc81e24d3b8821f3b8190e9d94-ao-25" stroke="#2D2D2D" width="120.00001" x="1238.28584" y="807.99995"/>
  <rect fill="#FFEBA2" height="77.14286" id="04304fcc81e24d3b8821f3b8190e9d94-ao-26" stroke="#2D2D2D" width="137.14286" x="144.00008" y="839.42852"/>
  <rect fill="#FFEBA2" height="74.28572" id="04304fcc81e24d3b8821f3b8190e9d94-ao-27" stroke="#2D2D2D" width="114.28572" x="1238.28584" y="893.71424"/>
  <rect fill="#FFEBA2" height="74.28572" id="04304fcc81e24d3b8821f3b8190e9d94-ao-28" stroke="#2D2D2D" width="128.57143" x="144.00008" y="939.42853"/>
  <rect fill="#FFEBA2" height="114.28572" id="04304fcc81e24d3b8821f3b8190e9d94-ao-29" stroke="#2D2D2D" width="148.57144" x="1238.28584" y="985.14282"/>
  <rect fill="#FFEBA2" height="71.42857" id="04304fcc81e24d3b8821f3b8190e9d94-ao-30" stroke="#2D2D2D" width="142.85715" x="146.85722" y="1042.28567"/>
  <rect fill="#FFEBA2" height="54.28572" id="04304fcc81e24d3b8821f3b8190e9d94-ao-31" stroke="#2D2D2D" width="128.57143" x="1238.28584" y="1116.57139"/>
  <rect fill="#FFEBA2" height="57.14286" id="04304fcc81e24d3b8821f3b8190e9d94-ao-32" stroke="#2D2D2D" width="140.00001" x="144.00008" y="1139.42854"/>
  <rect fill="#FFEBA2" height="51.42857" id="04304fcc81e24d3b8821f3b8190e9d94-ao-33" stroke="#2D2D2D" width="145.71429" x="1238.28584" y="1179.42854"/>
  <rect fill="#FFEBA2" height="114.28572" id="04304fcc81e24d3b8821f3b8190e9d94-ao-34" stroke="#2D2D2D" width="105.71429" x="146.85722" y="1219.42854"/>
  <rect fill="#FFEBA2" height="117.14286" id="04304fcc81e24d3b8821f3b8190e9d94-ao-35" stroke="#2D2D2D" width="140.00001" x="1238.28584" y="1245.14283"/>
  <rect fill="#FFEBA2" height="140.00001" id="04304fcc81e24d3b8821f3b8190e9d94-ao-36" stroke="#2D2D2D" width="137.14286" x="1235.4287" y="1376.5714"/>
  <rect fill="#FFEBA2" height="25.71429" id="04304fcc81e24d3b8821f3b8190e9d94-ao-37" stroke="#2D2D2D" width="82.85715" x="712.57153" y="1196.5714"/>
  <rect fill="#FFEBA2" height="51.42857" id="04304fcc81e24d3b8821f3b8190e9d94-ao-38" stroke="#2D2D2D" width="82.85715" x="732.57153" y="1285.14283"/>
 </g>
</svg>