<svg height="652" width="1182" xmlns="http://www.w3.org/2000/svg">
 <!-- Created with Image Occlusion Enhanced -->
 <g>
  <title>Labels</title>
 </g>
 <g>
  <title>Masks</title>
  <rect fill="#FFEBA2" height="25" id="0440202714684ce09143919b2ac481a8-ao-1" stroke="#2D2D2D" width="220.00001" x="741.75005" y="5.50003"/>
  <rect fill="#FFEBA2" height="25" id="0440202714684ce09143919b2ac481a8-ao-2" stroke="#2D2D2D" width="200.00001" x="106.75002" y="73.00003"/>
  <rect fill="#FFEBA2" height="22.5" id="0440202714684ce09143919b2ac481a8-ao-3" stroke="#2D2D2D" width="220.00001" x="809.25006" y="60.50003"/>
  <rect fill="#FFEBA2" height="25" id="0440202714684ce09143919b2ac481a8-ao-4" stroke="#2D2D2D" width="260.00001" x="36.75002" y="133.00004"/>
  <rect fill="#FFEBA2" height="25" id="0440202714684ce09143919b2ac481a8-ao-5" stroke="#2D2D2D" width="142.50001" x="854.25006" y="113.00004"/>
  <rect fill="#FFEBA2" height="27.5" id="0440202714684ce09143919b2ac481a8-ao-6" stroke="#2D2D2D" width="245.00001" x="49.25002" y="193.00004"/>
  <rect fill="#FFEBA2" height="22.5" id="0440202714684ce09143919b2ac481a8-ao-7" stroke="#2D2D2D" width="190.00001" x="884.25006" y="168.00004"/>
  <rect fill="#FFEBA2" height="27.5" id="0440202714684ce09143919b2ac481a8-ao-8" stroke="#2D2D2D" width="197.50001" x="911.75006" y="220.50004"/>
  <rect fill="#FFEBA2" height="27.5" id="0440202714684ce09143919b2ac481a8-ao-9" stroke="#2D2D2D" width="237.50001" x="51.75002" y="258.00004"/>
  <rect fill="#FFEBA2" height="27.5" id="0440202714684ce09143919b2ac481a8-ao-10" stroke="#2D2D2D" width="222.50001" x="931.75006" y="275.50004"/>
  <rect fill="#FFEBA2" height="27.5" id="0440202714684ce09143919b2ac481a8-ao-11" stroke="#2D2D2D" width="240.00001" x="51.75002" y="315.50005"/>
  
  <rect fill="#FFEBA2" height="27.5" id="0440202714684ce09143919b2ac481a8-ao-13" stroke="#2D2D2D" width="140.00001" x="949.25006" y="383.00005"/>
  <rect fill="#FFEBA2" height="22.5" id="0440202714684ce09143919b2ac481a8-ao-14" stroke="#2D2D2D" width="162.50001" x="161.75003" y="443.00005"/>
  <rect fill="#FFEBA2" height="25" id="0440202714684ce09143919b2ac481a8-ao-15" stroke="#2D2D2D" width="197.50001" x="934.25006" y="440.50005"/>
  <rect fill="#FFEBA2" height="30" id="0440202714684ce09143919b2ac481a8-ao-16" stroke="#2D2D2D" width="172.50001" x="129.25002" y="503.00005"/>
  <rect fill="#FFEBA2" height="27.5" id="0440202714684ce09143919b2ac481a8-ao-17" stroke="#2D2D2D" width="207.50001" x="91.75002" y="563.00006"/>
 </g>
</svg>