<svg height="1571.9999999999998" width="1536" xmlns="http://www.w3.org/2000/svg">
 <!-- Created with Image Occlusion Enhanced -->
 <g>
  <title>Labels</title>
 </g>
 <g>
  <title>Masks</title>
  <rect fill="#FFEBA2" height="30.30303" id="04b05586356e43babc5bad7e4b1a1351-ao-1" stroke="#2D2D2D" width="430.30303" x="279.1515" y="6.78784"/>
  <rect fill="#FFEBA2" height="27.27273" id="04b05586356e43babc5bad7e4b1a1351-ao-2" stroke="#2D2D2D" width="224.24242" x="321.57574" y="58.30299"/>
  <rect fill="#FFEBA2" height="24.24242" id="04b05586356e43babc5bad7e4b1a1351-ao-3" stroke="#2D2D2D" width="212.12121" x="867.03028" y="52.24239"/>
  
  <rect fill="#FFEBA2" height="27.27273" id="04b05586356e43babc5bad7e4b1a1351-ao-5" stroke="#2D2D2D" width="115.15151" x="245.81816" y="134.06057"/>
  <rect fill="#FFEBA2" height="33.33333" id="04b05586356e43babc5bad7e4b1a1351-ao-6" stroke="#2D2D2D" width="239.39394" x="1136.72725" y="137.09087"/>
  <rect fill="#FFEBA2" height="27.27273" id="04b05586356e43babc5bad7e4b1a1351-ao-7" stroke="#2D2D2D" width="166.66667" x="145.81817" y="182.54542"/>
  <rect fill="#FFEBA2" height="72.72727" id="04b05586356e43babc5bad7e4b1a1351-ao-8" stroke="#2D2D2D" width="112.12121" x="1276.12119" y="600.72723"/>
  <rect fill="#FFEBA2" height="54.54545" id="04b05586356e43babc5bad7e4b1a1351-ao-9" stroke="#2D2D2D" width="196.9697" x="160.96968" y="688.60602"/>
  <rect fill="#FFEBA2" height="36.36364" id="04b05586356e43babc5bad7e4b1a1351-ao-10" stroke="#2D2D2D" width="139.39394" x="1254.90906" y="718.90905"/>
  <rect fill="#FFEBA2" height="27.27273" id="04b05586356e43babc5bad7e4b1a1351-ao-11" stroke="#2D2D2D" width="178.78788" x="327.63635" y="767.3939"/>
  <rect fill="#FFEBA2" height="27.27273" id="04b05586356e43babc5bad7e4b1a1351-ao-12" stroke="#2D2D2D" width="300" x="309.45453" y="827.99996"/>
  <rect fill="#FFEBA2" height="30.30303" id="04b05586356e43babc5bad7e4b1a1351-ao-13" stroke="#2D2D2D" width="224.24242" x="370.06059" y="882.54541"/>
  <rect fill="#FFEBA2" height="24.24242" id="04b05586356e43babc5bad7e4b1a1351-ao-14" stroke="#2D2D2D" width="175.75757" x="457.93937" y="937.09086"/>
  <rect fill="#FFEBA2" height="69.69697" id="04b05586356e43babc5bad7e4b1a1351-ao-15" stroke="#2D2D2D" width="254.54545" x="1073.09088" y="967.39389"/>
  <rect fill="#FFEBA2" height="27.27273" id="04b05586356e43babc5bad7e4b1a1351-ao-16" stroke="#2D2D2D" width="293.93939" x="363.99998" y="997.69692"/>
  <rect fill="#FFEBA2" height="27.27273" id="04b05586356e43babc5bad7e4b1a1351-ao-17" stroke="#2D2D2D" width="357.57575" x="336.72725" y="1058.30298"/>
  <rect fill="#FFEBA2" height="48.48485" id="04b05586356e43babc5bad7e4b1a1351-ao-18" stroke="#2D2D2D" width="266.66666" x="1009.45452" y="1043.15147"/>
  <rect fill="#FFEBA2" height="33.33333" id="04b05586356e43babc5bad7e4b1a1351-ao-19" stroke="#2D2D2D" width="300" x="418.54544" y="1112.84844"/>
  <rect fill="#FFEBA2" height="51.51515" id="04b05586356e43babc5bad7e4b1a1351-ao-20" stroke="#2D2D2D" width="227.27273" x="1018.54543" y="1112.84844"/>
  <rect fill="#FFEBA2" height="24.24242" id="04b05586356e43babc5bad7e4b1a1351-ao-21" stroke="#2D2D2D" width="118.18182" x="603.39392" y="1173.4545"/>
  <rect fill="#FFEBA2" height="33.33333" id="04b05586356e43babc5bad7e4b1a1351-ao-22" stroke="#2D2D2D" width="166.66667" x="554.90907" y="1224.96965"/>
  <rect fill="#FFEBA2" height="24.24242" id="04b05586356e43babc5bad7e4b1a1351-ao-23" stroke="#2D2D2D" width="200" x="521.57574" y="1285.57571"/>
  <rect fill="#FFEBA2" height="30.30303" id="04b05586356e43babc5bad7e4b1a1351-ao-24" stroke="#2D2D2D" width="266.66666" x="457.93937" y="1340.12116"/>
 </g>
</svg>