<svg height="1452" width="1535.9999999999998" xmlns="http://www.w3.org/2000/svg">
 <!-- Created with Image Occlusion Enhanced -->
 <g>
  <title>Labels</title>
 </g>
 <g>
  <title>Masks</title>
  <rect fill="#FFEBA2" height="54.28572" id="061e60f39f094fd5863ad20c4512e12f-ao-1" stroke="#2D2D2D" width="105.71429" x="695.42867" y="2.28563"/>
  <rect fill="#FFEBA2" height="37.14286" id="061e60f39f094fd5863ad20c4512e12f-ao-2" stroke="#2D2D2D" width="140.00001" x="435.42866" y="39.42849"/>
  <rect fill="#FFEBA2" height="34.28572" id="061e60f39f094fd5863ad20c4512e12f-ao-3" stroke="#2D2D2D" width="208.57144" x="326.85723" y="93.7142"/>
  <rect fill="#FFEBA2" height="28.57143" id="061e60f39f094fd5863ad20c4512e12f-ao-4" stroke="#2D2D2D" width="108.57143" x="889.7144" y="53.7142"/>
  <rect class="qshape" fill="#FF7E7E" height="28.57143" id="061e60f39f094fd5863ad20c4512e12f-ao-5" stroke="#2D2D2D" width="208.57144" x="929.7144" y="93.7142"/>
  <rect fill="#FFEBA2" height="28.57143" id="061e60f39f094fd5863ad20c4512e12f-ao-6" stroke="#2D2D2D" width="102.85715" x="306.85723" y="150.85706"/>
  <rect fill="#FFEBA2" height="28.57143" id="061e60f39f094fd5863ad20c4512e12f-ao-7" stroke="#2D2D2D" width="134.28572" x="1024.00012" y="130.85706"/>
  <rect fill="#FFEBA2" height="25.71429" id="061e60f39f094fd5863ad20c4512e12f-ao-8" stroke="#2D2D2D" width="137.14286" x="269.71437" y="210.85707"/>
  <rect fill="#FFEBA2" height="31.42857" id="061e60f39f094fd5863ad20c4512e12f-ao-9" stroke="#2D2D2D" width="151.42858" x="1058.28583" y="173.71421"/>
  <rect fill="#FFEBA2" height="31.42857" id="061e60f39f094fd5863ad20c4512e12f-ao-10" stroke="#2D2D2D" width="168.57144" x="164.00008" y="259.4285"/>
  <rect fill="#FFEBA2" height="31.42857" id="061e60f39f094fd5863ad20c4512e12f-ao-11" stroke="#2D2D2D" width="154.28572" x="1144.00012" y="239.4285"/>
  <rect fill="#FFEBA2" height="80" id="061e60f39f094fd5863ad20c4512e12f-ao-12" stroke="#2D2D2D" width="111.42858" x="164.00008" y="305.14279"/>
  <rect fill="#FFEBA2" height="45.71429" id="061e60f39f094fd5863ad20c4512e12f-ao-13" stroke="#2D2D2D" width="171.42858" x="1172.57155" y="316.57136"/>
  <rect fill="#FFEBA2" height="80" id="061e60f39f094fd5863ad20c4512e12f-ao-14" stroke="#2D2D2D" width="100" x="164.00008" y="405.14279"/>
  <rect fill="#FFEBA2" height="48.57143" id="061e60f39f094fd5863ad20c4512e12f-ao-15" stroke="#2D2D2D" width="174.28572" x="1181.14298" y="399.4285"/>
  <rect fill="#FFEBA2" height="77.14286" id="061e60f39f094fd5863ad20c4512e12f-ao-16" stroke="#2D2D2D" width="128.57143" x="152.57151" y="513.71422"/>
  <rect fill="#FFEBA2" height="54.28572" id="061e60f39f094fd5863ad20c4512e12f-ao-17" stroke="#2D2D2D" width="160.00001" x="1215.4287" y="482.28565"/>
  <rect fill="#FFEBA2" height="48.57143" id="061e60f39f094fd5863ad20c4512e12f-ao-18" stroke="#2D2D2D" width="102.85715" x="146.85722" y="619.42851"/>
  <rect fill="#FFEBA2" height="31.42857" id="061e60f39f094fd5863ad20c4512e12f-ao-19" stroke="#2D2D2D" width="188.57144" x="1215.4287" y="556.57137"/>
  <rect fill="#FFEBA2" height="54.28572" id="061e60f39f094fd5863ad20c4512e12f-ao-20" stroke="#2D2D2D" width="148.57144" x="1232.57155" y="613.71423"/>
  <rect fill="#FFEBA2" height="51.42857" id="061e60f39f094fd5863ad20c4512e12f-ao-21" stroke="#2D2D2D" width="74.28572" x="164.00008" y="685.1428"/>
  <rect fill="#FFEBA2" height="74.28572" id="061e60f39f094fd5863ad20c4512e12f-ao-22" stroke="#2D2D2D" width="134.28572" x="1255.4287" y="702.28566"/>
  <rect fill="#FFEBA2" height="88.57143" id="061e60f39f094fd5863ad20c4512e12f-ao-23" stroke="#2D2D2D" width="108.57143" x="166.85722" y="765.14281"/>
  <rect fill="#FFEBA2" height="80" id="061e60f39f094fd5863ad20c4512e12f-ao-24" stroke="#2D2D2D" width="122.85715" x="1255.4287" y="796.57138"/>
  <rect fill="#FFEBA2" height="94.28572" id="061e60f39f094fd5863ad20c4512e12f-ao-25" stroke="#2D2D2D" width="108.57143" x="166.85722" y="865.14281"/>
  <rect fill="#FFEBA2" height="48.57143" id="061e60f39f094fd5863ad20c4512e12f-ao-26" stroke="#2D2D2D" width="120.00001" x="1258.28584" y="905.14281"/>
  <rect fill="#FFEBA2" height="51.42857" id="061e60f39f094fd5863ad20c4512e12f-ao-27" stroke="#2D2D2D" width="88.57143" x="164.00008" y="976.57139"/>
  <rect fill="#FFEBA2" height="45.71429" id="061e60f39f094fd5863ad20c4512e12f-ao-28" stroke="#2D2D2D" width="122.85715" x="1255.4287" y="999.42853"/>
  <rect fill="#FFEBA2" height="48.57143" id="061e60f39f094fd5863ad20c4512e12f-ao-29" stroke="#2D2D2D" width="108.57143" x="172.57151" y="1153.71425"/>
  <rect fill="#FFEBA2" height="45.71429" id="061e60f39f094fd5863ad20c4512e12f-ao-30" stroke="#2D2D2D" width="102.85715" x="1258.28584" y="1062.28568"/>
  <rect fill="#FFEBA2" height="31.42857" id="061e60f39f094fd5863ad20c4512e12f-ao-31" stroke="#2D2D2D" width="137.14286" x="218.28579" y="1225.14283"/>
  <rect fill="#FFEBA2" height="34.28572" id="061e60f39f094fd5863ad20c4512e12f-ao-32" stroke="#2D2D2D" width="200.00001" x="195.42865" y="1310.85712"/>
  <rect fill="#FFEBA2" height="57.14286" id="061e60f39f094fd5863ad20c4512e12f-ao-33" stroke="#2D2D2D" width="120.00001" x="481.14295" y="1267.99997"/>
  <rect fill="#FFEBA2" height="45.71429" id="061e60f39f094fd5863ad20c4512e12f-ao-34" stroke="#2D2D2D" width="140.00001" x="624.0001" y="1403.71426"/>
  <rect fill="#FFEBA2" height="40" id="061e60f39f094fd5863ad20c4512e12f-ao-35" stroke="#2D2D2D" width="268.57144" x="715.42867" y="1323.71426"/>
  <rect fill="#FFEBA2" height="31.42857" id="061e60f39f094fd5863ad20c4512e12f-ao-36" stroke="#2D2D2D" width="194.28572" x="844.00011" y="1272.28569"/>
  <rect fill="#FFEBA2" height="51.42857" id="061e60f39f094fd5863ad20c4512e12f-ao-37" stroke="#2D2D2D" width="148.57144" x="881.14297" y="1197.99997"/>
  <rect fill="#FFEBA2" height="34.28572" id="061e60f39f094fd5863ad20c4512e12f-ao-38" stroke="#2D2D2D" width="191.42858" x="1086.85726" y="1180.85711"/>
 </g>
</svg>