<svg height="1226" width="1535.9999999999998" xmlns="http://www.w3.org/2000/svg">
 <!-- Created with Image Occlusion Enhanced -->
 <g>
  <title>Labels</title>
 </g>
 <g>
  <title>Masks</title>
  <rect fill="#FFEBA2" height="42.85714" id="064a2095709a4fa4a29c80adab7caa9f-ao-1" stroke="#2D2D2D" width="171.42858" x="1176.85727" y="43.99995"/>
  <rect fill="#FFEBA2" height="74.28572" id="064a2095709a4fa4a29c80adab7caa9f-ao-2" stroke="#2D2D2D" width="102.85715" x="151.14293" y="143.99995"/>
  <rect fill="#FFEBA2" height="51.42857" id="064a2095709a4fa4a29c80adab7caa9f-ao-3" stroke="#2D2D2D" width="245.7143" x="1148.28584" y="141.14281"/>
  <rect fill="#FFEBA2" height="37.14286" id="064a2095709a4fa4a29c80adab7caa9f-ao-4" stroke="#2D2D2D" width="137.14286" x="1162.57155" y="232.57139"/>
  <rect fill="#FFEBA2" height="34.28572" id="064a2095709a4fa4a29c80adab7caa9f-ao-5" stroke="#2D2D2D" width="114.28572" x="151.14293" y="295.42853"/>
  <rect fill="#FFEBA2" height="51.42857" id="064a2095709a4fa4a29c80adab7caa9f-ao-6" stroke="#2D2D2D" width="242.85715" x="1145.42869" y="309.71425"/>
  <rect fill="#FFEBA2" height="74.28572" id="064a2095709a4fa4a29c80adab7caa9f-ao-7" stroke="#2D2D2D" width="111.42858" x="154.00008" y="366.85711"/>
  <rect fill="#FFEBA2" height="34.28572" id="064a2095709a4fa4a29c80adab7caa9f-ao-8" stroke="#2D2D2D" width="248.57144" x="1134.00012" y="406.85711"/>
  <rect fill="#FFEBA2" height="51.42857" id="064a2095709a4fa4a29c80adab7caa9f-ao-9" stroke="#2D2D2D" width="162.85715" x="154.00008" y="461.14282"/>
  <rect fill="#FFEBA2" height="34.28572" id="064a2095709a4fa4a29c80adab7caa9f-ao-10" stroke="#2D2D2D" width="200.00001" x="1134.00012" y="483.99997"/>
  <rect fill="#FFEBA2" height="45.71429" id="064a2095709a4fa4a29c80adab7caa9f-ao-11" stroke="#2D2D2D" width="148.57144" x="154.00008" y="552.5714"/>
  <rect class="qshape" fill="#FF7E7E" height="34.28572" id="064a2095709a4fa4a29c80adab7caa9f-ao-12" stroke="#2D2D2D" width="188.57144" x="1139.71441" y="566.85711"/>
  <rect fill="#FFEBA2" height="31.42857" id="064a2095709a4fa4a29c80adab7caa9f-ao-13" stroke="#2D2D2D" width="165.71429" x="148.28579" y="638.28569"/>
  <rect fill="#FFEBA2" height="31.42857" id="064a2095709a4fa4a29c80adab7caa9f-ao-14" stroke="#2D2D2D" width="191.42858" x="1162.57155" y="655.42855"/>
  <rect fill="#FFEBA2" height="51.42857" id="064a2095709a4fa4a29c80adab7caa9f-ao-15" stroke="#2D2D2D" width="165.71429" x="148.28579" y="698.28569"/>
  <rect fill="#FFEBA2" height="34.28572" id="064a2095709a4fa4a29c80adab7caa9f-ao-16" stroke="#2D2D2D" width="151.42858" x="1194.00012" y="729.71426"/>
  <rect fill="#FFEBA2" height="31.42857" id="064a2095709a4fa4a29c80adab7caa9f-ao-17" stroke="#2D2D2D" width="88.57143" x="151.14293" y="783.99998"/>
  <rect fill="#FFEBA2" height="28.57143" id="064a2095709a4fa4a29c80adab7caa9f-ao-18" stroke="#2D2D2D" width="82.85715" x="1211.14298" y="801.14284"/>
  <rect fill="#FFEBA2" height="45.71429" id="064a2095709a4fa4a29c80adab7caa9f-ao-19" stroke="#2D2D2D" width="111.42858" x="156.85722" y="852.57141"/>
  <rect fill="#FFEBA2" height="51.42857" id="064a2095709a4fa4a29c80adab7caa9f-ao-20" stroke="#2D2D2D" width="117.14286" x="148.28579" y="932.57142"/>
 </g>
</svg>