<svg height="1427" width="1535.9999999999998" xmlns="http://www.w3.org/2000/svg">
 <!-- Created with Image Occlusion Enhanced -->
 <g>
  <title>Labels</title>
 </g>
 <g>
  <title>Masks</title>
  <rect fill="#FFEBA2" height="28.57143" id="06a6561cf7de4c94a8ef6b18f9620be7-ao-1" stroke="#2D2D2D" width="574.28574" x="158.28579" y="1.57134"/>
  <rect fill="#FFEBA2" height="28.57143" id="06a6561cf7de4c94a8ef6b18f9620be7-ao-2" stroke="#2D2D2D" width="554.28574" x="141.14293" y="52.99992"/>
  <rect class="qshape" fill="#FF7E7E" height="28.57143" id="06a6561cf7de4c94a8ef6b18f9620be7-ao-3" stroke="#2D2D2D" width="417.14288" x="821.14296" y="47.28563"/>
  <rect fill="#FFEBA2" height="28.57143" id="06a6561cf7de4c94a8ef6b18f9620be7-ao-4" stroke="#2D2D2D" width="245.7143" x="366.85723" y="90.14278"/>
  <rect fill="#FFEBA2" height="28.57143" id="06a6561cf7de4c94a8ef6b18f9620be7-ao-5" stroke="#2D2D2D" width="131.42858" x="852.57154" y="87.28563"/>
  <rect fill="#FFEBA2" height="25.71429" id="06a6561cf7de4c94a8ef6b18f9620be7-ao-6" stroke="#2D2D2D" width="362.85716" x="206.85722" y="141.57135"/>
  <rect fill="#FFEBA2" height="31.42857" id="06a6561cf7de4c94a8ef6b18f9620be7-ao-7" stroke="#2D2D2D" width="148.57144" x="881.14297" y="127.28564"/>
  <rect fill="#FFEBA2" height="45.71429" id="06a6561cf7de4c94a8ef6b18f9620be7-ao-8" stroke="#2D2D2D" width="285.7143" x="224.00008" y="187.28564"/>
  <rect fill="#FFEBA2" height="25.71429" id="06a6561cf7de4c94a8ef6b18f9620be7-ao-9" stroke="#2D2D2D" width="314.28573" x="904.00011" y="164.42849"/>
  <rect fill="#FFEBA2" height="28.57143" id="06a6561cf7de4c94a8ef6b18f9620be7-ao-10" stroke="#2D2D2D" width="388.57145" x="1006.85726" y="201.57135"/>
  <rect fill="#FFEBA2" height="28.57143" id="06a6561cf7de4c94a8ef6b18f9620be7-ao-11" stroke="#2D2D2D" width="248.57144" x="141.14293" y="252.99993"/>
  <rect fill="#FFEBA2" height="28.57143" id="06a6561cf7de4c94a8ef6b18f9620be7-ao-12" stroke="#2D2D2D" width="177.14287" x="1115.42869" y="252.99993"/>
  <rect fill="#FFEBA2" height="54.28572" id="06a6561cf7de4c94a8ef6b18f9620be7-ao-13" stroke="#2D2D2D" width="154.28572" x="158.28579" y="311.57136"/>
  <rect fill="#FFEBA2" height="51.42857" id="06a6561cf7de4c94a8ef6b18f9620be7-ao-14" stroke="#2D2D2D" width="217.14287" x="1161.14298" y="297.28564"/>
  <rect fill="#FFEBA2" height="51.42857" id="06a6561cf7de4c94a8ef6b18f9620be7-ao-15" stroke="#2D2D2D" width="240.00001" x="1164.00012" y="385.85708"/>
  <rect fill="#FFEBA2" height="28.57143" id="06a6561cf7de4c94a8ef6b18f9620be7-ao-16" stroke="#2D2D2D" width="142.85715" x="132.5715" y="437.28565"/>
  <rect fill="#FFEBA2" height="48.57143" id="06a6561cf7de4c94a8ef6b18f9620be7-ao-17" stroke="#2D2D2D" width="162.85715" x="1181.14298" y="462.99994"/>
  <rect fill="#FFEBA2" height="68.57143" id="06a6561cf7de4c94a8ef6b18f9620be7-ao-18" stroke="#2D2D2D" width="77.14286" x="189.71436" y="540.1428"/>
  <rect fill="#FFEBA2" height="22.85714" id="06a6561cf7de4c94a8ef6b18f9620be7-ao-19" stroke="#2D2D2D" width="165.71429" x="1178.28584" y="542.99994"/>
  <rect fill="#FFEBA2" height="48.57143" id="06a6561cf7de4c94a8ef6b18f9620be7-ao-20" stroke="#2D2D2D" width="214.28572" x="1189.71441" y="585.85708"/>
  <rect fill="#FFEBA2" height="48.57143" id="06a6561cf7de4c94a8ef6b18f9620be7-ao-21" stroke="#2D2D2D" width="137.14286" x="138.28579" y="684.42852"/>
  <rect fill="#FFEBA2" height="51.42857" id="06a6561cf7de4c94a8ef6b18f9620be7-ao-22" stroke="#2D2D2D" width="114.28572" x="1209.71441" y="661.57137"/>
  <rect fill="#FFEBA2" height="57.14286" id="06a6561cf7de4c94a8ef6b18f9620be7-ao-23" stroke="#2D2D2D" width="134.28572" x="135.42865" y="750.14281"/>
  <rect fill="#FFEBA2" height="34.28572" id="06a6561cf7de4c94a8ef6b18f9620be7-ao-24" stroke="#2D2D2D" width="134.28572" x="1221.14298" y="735.85709"/>
  <rect fill="#FFEBA2" height="51.42857" id="06a6561cf7de4c94a8ef6b18f9620be7-ao-25" stroke="#2D2D2D" width="137.14286" x="132.5715" y="827.28567"/>
  <rect fill="#FFEBA2" height="68.57143" id="06a6561cf7de4c94a8ef6b18f9620be7-ao-26" stroke="#2D2D2D" width="151.42858" x="1241.14298" y="795.85709"/>
  <rect fill="#FFEBA2" height="54.28572" id="06a6561cf7de4c94a8ef6b18f9620be7-ao-27" stroke="#2D2D2D" width="125.71429" x="138.28579" y="901.57138"/>
  <rect fill="#FFEBA2" height="28.57143" id="06a6561cf7de4c94a8ef6b18f9620be7-ao-28" stroke="#2D2D2D" width="125.71429" x="1252.57156" y="890.14281"/>
  <rect fill="#FFEBA2" height="45.71429" id="06a6561cf7de4c94a8ef6b18f9620be7-ao-29" stroke="#2D2D2D" width="128.57143" x="1255.4287" y="938.71424"/>
  <rect fill="#FFEBA2" height="34.28572" id="06a6561cf7de4c94a8ef6b18f9620be7-ao-30" stroke="#2D2D2D" width="260.00001" x="155.42865" y="1015.8571"/>
  <rect fill="#FFEBA2" height="77.14286" id="06a6561cf7de4c94a8ef6b18f9620be7-ao-31" stroke="#2D2D2D" width="248.57144" x="206.85722" y="1071.57139"/>
  <rect fill="#FFEBA2" height="25.71429" id="06a6561cf7de4c94a8ef6b18f9620be7-ao-32" stroke="#2D2D2D" width="231.42858" x="1155.42869" y="1108.71425"/>
  <rect fill="#FFEBA2" height="45.71429" id="06a6561cf7de4c94a8ef6b18f9620be7-ao-33" stroke="#2D2D2D" width="314.28573" x="221.14294" y="1154.42854"/>
  <rect fill="#FFEBA2" height="28.57143" id="06a6561cf7de4c94a8ef6b18f9620be7-ao-34" stroke="#2D2D2D" width="194.28572" x="1021.14297" y="1140.14282"/>
  <rect fill="#FFEBA2" height="25.71429" id="06a6561cf7de4c94a8ef6b18f9620be7-ao-35" stroke="#2D2D2D" width="220.00001" x="984.00011" y="1180.14283"/>
  <rect fill="#FFEBA2" height="25.71429" id="06a6561cf7de4c94a8ef6b18f9620be7-ao-36" stroke="#2D2D2D" width="205.7143" x="438.2858" y="1220.14283"/>
  <rect fill="#FFEBA2" height="25.71429" id="06a6561cf7de4c94a8ef6b18f9620be7-ao-37" stroke="#2D2D2D" width="154.28572" x="938.28583" y="1214.42854"/>
  <rect fill="#FFEBA2" height="22.85714" id="06a6561cf7de4c94a8ef6b18f9620be7-ao-38" stroke="#2D2D2D" width="237.14287" x="901.14297" y="1254.42854"/>
  <rect fill="#FFEBA2" height="28.57143" id="06a6561cf7de4c94a8ef6b18f9620be7-ao-39" stroke="#2D2D2D" width="263.39288" x="418.2858" y="1271.5714"/>
  <rect fill="#FFEBA2" height="48.57143" id="06a6561cf7de4c94a8ef6b18f9620be7-ao-40" stroke="#2D2D2D" width="371.42859" x="858.28582" y="1291.5714"/>
  <rect fill="#FFEBA2" height="31.42857" id="06a6561cf7de4c94a8ef6b18f9620be7-ao-41" stroke="#2D2D2D" width="477.14288" x="238.28579" y="1317.28569"/>
  <rect fill="#FFEBA2" height="31.42857" id="06a6561cf7de4c94a8ef6b18f9620be7-ao-42" stroke="#2D2D2D" width="194.28572" x="821.14296" y="1357.28569"/>
  <rect fill="#FFEBA2" height="25.71429" id="06a6561cf7de4c94a8ef6b18f9620be7-ao-43" stroke="#2D2D2D" width="211.42858" x="529.71438" y="1371.57141"/>
  <rect fill="#FFEBA2" height="25.71429" id="06a6561cf7de4c94a8ef6b18f9620be7-ao-44" stroke="#2D2D2D" width="245.7143" x="784.00011" y="1397.28569"/>
 </g>
</svg>