<svg height="1519" width="1535.9999999999998" xmlns="http://www.w3.org/2000/svg">
 <!-- Created with Image Occlusion Enhanced -->
 <g>
  <title>Labels</title>
 </g>
 <g>
  <title>Masks</title>
  <rect fill="#FFEBA2" height="25.71429" id="076f6cce71aa418f940fba88d8dd9793-ao-1" stroke="#2D2D2D" width="171.42858" x="449.71438" y="6.71415"/>
  <rect fill="#FFEBA2" height="28.57143" id="076f6cce71aa418f940fba88d8dd9793-ao-2" stroke="#2D2D2D" width="111.42858" x="818.28582" y="3.857"/>
  <rect fill="#FFEBA2" height="25.71429" id="076f6cce71aa418f940fba88d8dd9793-ao-3" stroke="#2D2D2D" width="351.42859" x="204.00008" y="63.85701"/>
  <rect fill="#FFEBA2" height="31.42857" id="076f6cce71aa418f940fba88d8dd9793-ao-4" stroke="#2D2D2D" width="248.57144" x="912.57154" y="55.28558"/>
  <rect fill="#FFEBA2" height="28.57143" id="076f6cce71aa418f940fba88d8dd9793-ao-5" stroke="#2D2D2D" width="302.85716" x="981.14297" y="106.71415"/>
  <rect fill="#FFEBA2" height="22.85714" id="076f6cce71aa418f940fba88d8dd9793-ao-6" stroke="#2D2D2D" width="122.85715" x="375.42866" y="120.99987"/>
  <rect fill="#FFEBA2" height="54.28572" id="076f6cce71aa418f940fba88d8dd9793-ao-7" stroke="#2D2D2D" width="174.28572" x="1109.71441" y="160.99987"/>
  <rect fill="#FFEBA2" height="48.57143" id="076f6cce71aa418f940fba88d8dd9793-ao-8" stroke="#2D2D2D" width="180.00001" x="281.14294" y="172.42844"/>
  <rect fill="#FFEBA2" height="31.42857" id="076f6cce71aa418f940fba88d8dd9793-ao-9" stroke="#2D2D2D" width="191.42858" x="1169.71441" y="235.28559"/>
  <rect class="qshape" fill="#FF7E7E" height="62.85715" id="076f6cce71aa418f940fba88d8dd9793-ao-10" stroke="#2D2D2D" width="171.42858" x="241.14294" y="249.5713"/>
  <rect fill="#FFEBA2" height="51.42857" id="076f6cce71aa418f940fba88d8dd9793-ao-11" stroke="#2D2D2D" width="162.85715" x="1204.00012" y="289.5713"/>
  <rect fill="#FFEBA2" height="31.42857" id="076f6cce71aa418f940fba88d8dd9793-ao-12" stroke="#2D2D2D" width="205.7143" x="184.00008" y="326.71416"/>
  <rect fill="#FFEBA2" height="51.42857" id="076f6cce71aa418f940fba88d8dd9793-ao-13" stroke="#2D2D2D" width="165.71429" x="155.42865" y="386.71416"/>
  <rect fill="#FFEBA2" height="54.28572" id="076f6cce71aa418f940fba88d8dd9793-ao-14" stroke="#2D2D2D" width="182.85715" x="1169.71441" y="1120.99991"/>
  <rect fill="#FFEBA2" height="54.28572" id="076f6cce71aa418f940fba88d8dd9793-ao-15" stroke="#2D2D2D" width="154.28572" x="1092.57155" y="1200.99992"/>
  <rect fill="#FFEBA2" height="51.42857" id="076f6cce71aa418f940fba88d8dd9793-ao-16" stroke="#2D2D2D" width="228.57144" x="1004.00012" y="1275.28563"/>
  <rect fill="#FFEBA2" height="45.71429" id="076f6cce71aa418f940fba88d8dd9793-ao-17" stroke="#2D2D2D" width="188.57144" x="204.00008" y="1255.28563"/>
  <rect fill="#FFEBA2" height="34.28572" id="076f6cce71aa418f940fba88d8dd9793-ao-18" stroke="#2D2D2D" width="251.42858" x="266.85722" y="1326.71421"/>
  <rect fill="#FFEBA2" height="51.42857" id="076f6cce71aa418f940fba88d8dd9793-ao-19" stroke="#2D2D2D" width="391.42859" x="941.14297" y="1352.42849"/>
  <rect fill="#FFEBA2" height="25.71429" id="076f6cce71aa418f940fba88d8dd9793-ao-20" stroke="#2D2D2D" width="374.28573" x="235.42865" y="1378.14278"/>
  <rect fill="#FFEBA2" height="31.42857" id="076f6cce71aa418f940fba88d8dd9793-ao-21" stroke="#2D2D2D" width="285.7143" x="909.7144" y="1429.57135"/>
  <rect fill="#FFEBA2" height="25.71429" id="076f6cce71aa418f940fba88d8dd9793-ao-22" stroke="#2D2D2D" width="182.85715" x="529.71438" y="1429.57135"/>
  <rect fill="#FFEBA2" height="34.28572" id="076f6cce71aa418f940fba88d8dd9793-ao-23" stroke="#2D2D2D" width="302.85716" x="858.28582" y="1480.99993"/>
  <rect fill="#FFEBA2" height="28.57143" id="076f6cce71aa418f940fba88d8dd9793-ao-24" stroke="#2D2D2D" width="162.85715" x="615.42867" y="1480.99993"/>
 </g>
</svg>