<svg height="574" width="1258" xmlns="http://www.w3.org/2000/svg">
 <!-- Created with Image Occlusion Enhanced -->
 <g>
  <title>Labels</title>
 </g>
 <g>
  <title>Masks</title>
  <rect fill="#FFEBA2" height="22.5" id="0c9e05b0adf6472e805424c4b0fb7a52-ao-1" stroke="#2D2D2D" width="234.99999" x="28.24997" y="92.24998"/>
  <rect fill="#FFEBA2" height="45" id="0c9e05b0adf6472e805424c4b0fb7a52-ao-2" stroke="#2D2D2D" width="180" x="30.74997" y="132.24998"/>
  <rect fill="#FFEBA2" height="27.5" id="0c9e05b0adf6472e805424c4b0fb7a52-ao-3" stroke="#2D2D2D" width="274.99999" x="978.24995" y="162.24998"/>
  <rect fill="#FFEBA2" height="22.5" id="0c9e05b0adf6472e805424c4b0fb7a52-ao-4" stroke="#2D2D2D" width="172.5" x="30.74997" y="189.74998"/>
  <rect fill="#FFEBA2" height="22.5" id="0c9e05b0adf6472e805424c4b0fb7a52-ao-5" stroke="#2D2D2D" width="122.5" x="978.24995" y="199.74998"/>
  <rect class="qshape" fill="#FF7E7E" height="22.5" id="0c9e05b0adf6472e805424c4b0fb7a52-ao-6" stroke="#2D2D2D" width="135" x="30.74997" y="222.24998"/>
  <rect fill="#FFEBA2" height="22.5" id="0c9e05b0adf6472e805424c4b0fb7a52-ao-7" stroke="#2D2D2D" width="182.5" x="978.24995" y="232.24998"/>
  <rect fill="#FFEBA2" height="25" id="0c9e05b0adf6472e805424c4b0fb7a52-ao-8" stroke="#2D2D2D" width="135" x="30.74997" y="254.74998"/>
  <rect fill="#FFEBA2" height="22.5" id="0c9e05b0adf6472e805424c4b0fb7a52-ao-9" stroke="#2D2D2D" width="77.5" x="978.24995" y="262.24998"/>
  <rect fill="#FFEBA2" height="22.5" id="0c9e05b0adf6472e805424c4b0fb7a52-ao-10" stroke="#2D2D2D" width="102.5" x="30.74997" y="289.74998"/>
  <rect fill="#FFEBA2" height="27.5" id="0c9e05b0adf6472e805424c4b0fb7a52-ao-11" stroke="#2D2D2D" width="89.99999" x="978.24995" y="294.74998"/>
  <rect fill="#FFEBA2" height="25" id="0c9e05b0adf6472e805424c4b0fb7a52-ao-12" stroke="#2D2D2D" width="135" x="30.74997" y="327.24998"/>
  <rect fill="#FFEBA2" height="22.5" id="0c9e05b0adf6472e805424c4b0fb7a52-ao-13" stroke="#2D2D2D" width="107.5" x="978.24995" y="327.24998"/>
  <rect fill="#FFEBA2" height="22.5" id="0c9e05b0adf6472e805424c4b0fb7a52-ao-14" stroke="#2D2D2D" width="160.00001" x="30.74996" y="362.24998"/>
  <rect fill="#FFEBA2" height="22.5" id="0c9e05b0adf6472e805424c4b0fb7a52-ao-15" stroke="#2D2D2D" width="122.5" x="978.24995" y="359.74998"/>
  <rect fill="#FFEBA2" height="20" id="0c9e05b0adf6472e805424c4b0fb7a52-ao-16" stroke="#2D2D2D" width="74.99999" x="30.74997" y="394.74997"/>
  <rect fill="#FFEBA2" height="20" id="0c9e05b0adf6472e805424c4b0fb7a52-ao-17" stroke="#2D2D2D" width="55" x="978.24995" y="392.24997"/>
  <rect fill="#FFEBA2" height="22.5" id="0c9e05b0adf6472e805424c4b0fb7a52-ao-18" stroke="#2D2D2D" width="237.49999" x="30.74997" y="432.24997"/>
  <rect fill="#FFEBA2" height="25" id="0c9e05b0adf6472e805424c4b0fb7a52-ao-19" stroke="#2D2D2D" width="180" x="978.24995" y="422.24997"/>
  <rect fill="#FFEBA2" height="22.5" id="0c9e05b0adf6472e805424c4b0fb7a52-ao-20" stroke="#2D2D2D" width="115" x="30.74997" y="464.74997"/>
  <rect fill="#FFEBA2" height="25" id="0c9e05b0adf6472e805424c4b0fb7a52-ao-21" stroke="#2D2D2D" width="239.99999" x="978.24995" y="457.24997"/>
  <rect fill="#FFEBA2" height="22.5" id="0c9e05b0adf6472e805424c4b0fb7a52-ao-22" stroke="#2D2D2D" width="105" x="30.74997" y="494.74997"/>
  <rect fill="#FFEBA2" height="25" id="0c9e05b0adf6472e805424c4b0fb7a52-ao-23" stroke="#2D2D2D" width="227.49999" x="978.24995" y="487.24997"/>
  <rect fill="#FFEBA2" height="25" id="0c9e05b0adf6472e805424c4b0fb7a52-ao-24" stroke="#2D2D2D" width="77.5" x="30.74997" y="524.74997"/>
  <rect fill="#FFEBA2" height="27.5" id="0c9e05b0adf6472e805424c4b0fb7a52-ao-25" stroke="#2D2D2D" width="187.5" x="978.24994" y="519.74997"/>
 </g>
</svg>