<svg height="1375" width="1535.9999999999998" xmlns="http://www.w3.org/2000/svg">
 <!-- Created with Image Occlusion Enhanced -->
 <g>
  <title>Labels</title>
 </g>
 <g>
  <title>Masks</title>
  <rect fill="#FFEBA2" height="22.85714" id="0e85cb81666b4b8faafe21c1b4a0697a-ao-1" stroke="#2D2D2D" width="328.57144" x="375.42866" y="7.85711"/>
  <rect fill="#FFEBA2" height="45.71429" id="0e85cb81666b4b8faafe21c1b4a0697a-ao-2" stroke="#2D2D2D" width="240.00001" x="746.85725" y="7.85711"/>
  <rect fill="#FFEBA2" height="48.57143" id="0e85cb81666b4b8faafe21c1b4a0697a-ao-3" stroke="#2D2D2D" width="311.42859" x="312.57151" y="42.14283"/>
  <rect fill="#FFEBA2" height="28.57143" id="0e85cb81666b4b8faafe21c1b4a0697a-ao-4" stroke="#2D2D2D" width="191.42858" x="829.71439" y="64.99997"/>
  <rect fill="#FFEBA2" height="28.57143" id="0e85cb81666b4b8faafe21c1b4a0697a-ao-5" stroke="#2D2D2D" width="377.14287" x="201.14294" y="104.99997"/>
  <rect fill="#FFEBA2" height="28.57143" id="0e85cb81666b4b8faafe21c1b4a0697a-ao-6" stroke="#2D2D2D" width="77.14286" x="912.57154" y="104.99997"/>
  <rect fill="#FFEBA2" height="28.57143" id="0e85cb81666b4b8faafe21c1b4a0697a-ao-7" stroke="#2D2D2D" width="111.42858" x="369.71437" y="144.99998"/>
  <rect fill="#FFEBA2" height="22.85714" id="0e85cb81666b4b8faafe21c1b4a0697a-ao-8" stroke="#2D2D2D" width="174.28572" x="241.14294" y="187.85712"/>
  <rect fill="#FFEBA2" height="25.71429" id="0e85cb81666b4b8faafe21c1b4a0697a-ao-9" stroke="#2D2D2D" width="185.71429" x="195.42865" y="224.99998"/>
  <rect fill="#FFEBA2" height="45.71429" id="0e85cb81666b4b8faafe21c1b4a0697a-ao-10" stroke="#2D2D2D" width="125.71429" x="221.14294" y="262.14284"/>
  <rect fill="#FFEBA2" height="22.85714" id="0e85cb81666b4b8faafe21c1b4a0697a-ao-11" stroke="#2D2D2D" width="180.00001" x="152.57151" y="322.14284"/>
  <rect fill="#FFEBA2" height="45.71429" id="0e85cb81666b4b8faafe21c1b4a0697a-ao-12" stroke="#2D2D2D" width="120.00001" x="141.14293" y="360.71427"/>
  <rect fill="#FFEBA2" height="25.71429" id="0e85cb81666b4b8faafe21c1b4a0697a-ao-13" stroke="#2D2D2D" width="62.85715" x="158.28579" y="420.71427"/>
  <rect fill="#FFEBA2" height="31.42857" id="0e85cb81666b4b8faafe21c1b4a0697a-ao-14" stroke="#2D2D2D" width="108.57143" x="1238.28584" y="397.85713"/>
  <rect fill="#FFEBA2" height="48.57143" id="0e85cb81666b4b8faafe21c1b4a0697a-ao-15" stroke="#2D2D2D" width="125.71429" x="1226.85727" y="449.2857"/>
  <rect fill="#FFEBA2" height="22.85714" id="0e85cb81666b4b8faafe21c1b4a0697a-ao-16" stroke="#2D2D2D" width="51.42857" x="1284.00013" y="520.71428"/>
  <rect fill="#FFEBA2" height="40" id="0e85cb81666b4b8faafe21c1b4a0697a-ao-17" stroke="#2D2D2D" width="194.28572" x="158.28579" y="1143.57145"/>
  <rect fill="#FFEBA2" height="22.85714" id="0e85cb81666b4b8faafe21c1b4a0697a-ao-18" stroke="#2D2D2D" width="120.00001" x="369.71437" y="1075.00002"/>
  <rect fill="#FFEBA2" height="71.42857" id="0e85cb81666b4b8faafe21c1b4a0697a-ao-19" stroke="#2D2D2D" width="68.57143" x="232.57151" y="926.42858"/>
  <rect fill="#FFEBA2" height="45.71429" id="0e85cb81666b4b8faafe21c1b4a0697a-ao-20" stroke="#2D2D2D" width="80" x="535.42867" y="866.42858"/>
  <rect fill="#FFEBA2" height="91.42858" id="0e85cb81666b4b8faafe21c1b4a0697a-ao-21" stroke="#2D2D2D" width="134.28572" x="669.71439" y="1052.14287"/>
  <rect fill="#FFEBA2" height="51.42857" id="0e85cb81666b4b8faafe21c1b4a0697a-ao-22" stroke="#2D2D2D" width="157.14286" x="746.85725" y="949.28573"/>
  <rect fill="#FFEBA2" height="94.28572" id="0e85cb81666b4b8faafe21c1b4a0697a-ao-23" stroke="#2D2D2D" width="140.00001" x="938.28583" y="1032.14287"/>
  <rect fill="#FFEBA2" height="34.28572" id="0e85cb81666b4b8faafe21c1b4a0697a-ao-24" stroke="#2D2D2D" width="251.42858" x="995.42869" y="1137.85716"/>
  <rect fill="#FFEBA2" height="28.57143" id="0e85cb81666b4b8faafe21c1b4a0697a-ao-25" stroke="#2D2D2D" width="148.57144" x="1195.4287" y="1080.7143"/>
  
  <g id="0e85cb81666b4b8faafe21c1b4a0697a-ao-27">
   <rect fill="#FFEBA2" height="25.71429" stroke="#2D2D2D" width="137.14286" x="358.2858" y="1000.7143"/>
   <rect fill="#FFEBA2" height="42.85714" stroke="#2D2D2D" width="108.57144" x="332.57151" y="929.28573"/>
   <rect fill="#FFEBA2" height="45.71429" stroke="#2D2D2D" width="80" x="466.85723" y="926.42858"/>
  </g>
 </g>
</svg>