<svg height="1511.0000000000002" width="1535.9999999999998" xmlns="http://www.w3.org/2000/svg">
 <!-- Created with Image Occlusion Enhanced -->
 <g>
  <title>Labels</title>
 </g>
 <g>
  <title>Masks</title>
  <rect fill="#FFEBA2" height="25.71429" id="12f46e47670c412d9a6e4158d55e4734-ao-1" stroke="#2D2D2D" width="148.57144" x="375.42866" y="17.5715"/>
  <rect fill="#FFEBA2" height="28.57143" id="12f46e47670c412d9a6e4158d55e4734-ao-2" stroke="#2D2D2D" width="114.28572" x="289.71437" y="74.71436"/>
  <rect fill="#FFEBA2" height="31.42857" id="12f46e47670c412d9a6e4158d55e4734-ao-3" stroke="#2D2D2D" width="142.85715" x="195.42865" y="131.85722"/>
  <rect fill="#FFEBA2" height="94.28572" id="12f46e47670c412d9a6e4158d55e4734-ao-4" stroke="#2D2D2D" width="114.28572" x="146.85722" y="191.85722"/>
  <rect fill="#FFEBA2" height="31.42857" id="12f46e47670c412d9a6e4158d55e4734-ao-5" stroke="#2D2D2D" width="134.28572" x="1249.71441" y="391.85723"/>
  <rect fill="#FFEBA2" height="25.71429" id="12f46e47670c412d9a6e4158d55e4734-ao-6" stroke="#2D2D2D" width="191.42858" x="149.71436" y="389.00009"/>
  <rect fill="#FFEBA2" height="28.57143" id="12f46e47670c412d9a6e4158d55e4734-ao-7" stroke="#2D2D2D" width="122.85715" x="1221.14298" y="460.42866"/>
  <rect class="qshape" fill="#FF7E7E" height="54.28572" id="12f46e47670c412d9a6e4158d55e4734-ao-8" stroke="#2D2D2D" width="157.14286" x="192.57151" y="446.14295"/>
  <rect fill="#FFEBA2" height="31.42857" id="12f46e47670c412d9a6e4158d55e4734-ao-9" stroke="#2D2D2D" width="200.00001" x="1189.71441" y="526.14295"/>
  <rect fill="#FFEBA2" height="31.42857" id="12f46e47670c412d9a6e4158d55e4734-ao-10" stroke="#2D2D2D" width="208.57144" x="155.42865" y="523.28581"/>
  <rect fill="#FFEBA2" height="28.57143" id="12f46e47670c412d9a6e4158d55e4734-ao-11" stroke="#2D2D2D" width="211.42858" x="1169.71441" y="591.85724"/>
  <rect fill="#FFEBA2" height="28.57143" id="12f46e47670c412d9a6e4158d55e4734-ao-12" stroke="#2D2D2D" width="197.14287" x="155.42865" y="583.28581"/>
  <rect fill="#FFEBA2" height="25.71429" id="12f46e47670c412d9a6e4158d55e4734-ao-13" stroke="#2D2D2D" width="237.14287" x="158.28579" y="640.42867"/>
  <rect fill="#FFEBA2" height="74.28572" id="12f46e47670c412d9a6e4158d55e4734-ao-14" stroke="#2D2D2D" width="205.7143" x="1178.28584" y="657.57153"/>
  <rect fill="#FFEBA2" height="25.71429" id="12f46e47670c412d9a6e4158d55e4734-ao-15" stroke="#2D2D2D" width="217.14287" x="184.00008" y="700.42867"/>
  <rect fill="#FFEBA2" height="28.57143" id="12f46e47670c412d9a6e4158d55e4734-ao-16" stroke="#2D2D2D" width="217.14287" x="1172.57155" y="771.85725"/>
  <rect fill="#FFEBA2" height="51.42857" id="12f46e47670c412d9a6e4158d55e4734-ao-17" stroke="#2D2D2D" width="217.14287" x="186.85722" y="757.57153"/>
  <rect fill="#FFEBA2" height="54.28572" id="12f46e47670c412d9a6e4158d55e4734-ao-18" stroke="#2D2D2D" width="191.42858" x="1158.28584" y="837.57154"/>
  <rect fill="#FFEBA2" height="28.57143" id="12f46e47670c412d9a6e4158d55e4734-ao-19" stroke="#2D2D2D" width="214.28572" x="201.14294" y="837.57154"/>
  <rect fill="#FFEBA2" height="51.42857" id="12f46e47670c412d9a6e4158d55e4734-ao-20" stroke="#2D2D2D" width="200.00001" x="204.00008" y="897.57154"/>
  <rect fill="#FFEBA2" height="31.42857" id="12f46e47670c412d9a6e4158d55e4734-ao-21" stroke="#2D2D2D" width="228.57144" x="1144.00012" y="923.28583"/>
  <rect fill="#FFEBA2" height="28.57143" id="12f46e47670c412d9a6e4158d55e4734-ao-22" stroke="#2D2D2D" width="265.7143" x="152.5715" y="974.7144"/>
  <rect fill="#FFEBA2" height="31.42857" id="12f46e47670c412d9a6e4158d55e4734-ao-23" stroke="#2D2D2D" width="242.85715" x="1152.57155" y="991.85726"/>
  <rect fill="#FFEBA2" height="48.57143" id="12f46e47670c412d9a6e4158d55e4734-ao-24" stroke="#2D2D2D" width="191.42858" x="224.00008" y="1037.57155"/>
  <rect fill="#FFEBA2" height="54.28572" id="12f46e47670c412d9a6e4158d55e4734-ao-25" stroke="#2D2D2D" width="222.85715" x="1158.28584" y="1054.7144"/>
  <rect fill="#FFEBA2" height="31.42857" id="12f46e47670c412d9a6e4158d55e4734-ao-26" stroke="#2D2D2D" width="248.57144" x="158.28579" y="1109.00012"/>
  <rect fill="#FFEBA2" height="28.57143" id="12f46e47670c412d9a6e4158d55e4734-ao-27" stroke="#2D2D2D" width="222.85715" x="178.28579" y="1166.14298"/>
  <rect fill="#FFEBA2" height="31.42857" id="12f46e47670c412d9a6e4158d55e4734-ao-28" stroke="#2D2D2D" width="217.14287" x="1172.57155" y="1146.14298"/>
  <rect fill="#FFEBA2" height="25.71429" id="12f46e47670c412d9a6e4158d55e4734-ao-29" stroke="#2D2D2D" width="194.28572" x="209.71436" y="1220.4287"/>
  <rect fill="#FFEBA2" height="54.28572" id="12f46e47670c412d9a6e4158d55e4734-ao-30" stroke="#2D2D2D" width="217.14287" x="1178.28584" y="1214.71441"/>
  <rect fill="#FFEBA2" height="28.57143" id="12f46e47670c412d9a6e4158d55e4734-ao-31" stroke="#2D2D2D" width="128.57143" x="278.2858" y="1271.85727"/>
  <rect fill="#FFEBA2" height="31.42857" id="12f46e47670c412d9a6e4158d55e4734-ao-32" stroke="#2D2D2D" width="211.42858" x="1178.28584" y="1297.57156"/>
  <rect fill="#FFEBA2" height="28.57143" id="12f46e47670c412d9a6e4158d55e4734-ao-33" stroke="#2D2D2D" width="214.28572" x="189.71436" y="1323.28585"/>
  <rect fill="#FFEBA2" height="31.42857" id="12f46e47670c412d9a6e4158d55e4734-ao-34" stroke="#2D2D2D" width="208.57144" x="1178.28584" y="1360.4287"/>
  <rect fill="#FFEBA2" height="25.71429" id="12f46e47670c412d9a6e4158d55e4734-ao-35" stroke="#2D2D2D" width="285.7143" x="144.00008" y="1377.57156"/>
  <rect fill="#FFEBA2" height="34.28572" id="12f46e47670c412d9a6e4158d55e4734-ao-36" stroke="#2D2D2D" width="285.7143" x="195.42865" y="1431.85728"/>
 </g>
</svg>