<svg height="379" width="1536" xmlns="http://www.w3.org/2000/svg">
 <!-- Created with Image Occlusion Enhanced -->
 <g>
  <title>Labels</title>
 </g>
 <g>
  <title>Masks</title>
  <rect fill="#FFEBA2" height="30.30303" id="1387d23bfcba4d75ab77ed403d0af7aa-ao-1" stroke="#2D2D2D" width="245.45455" x="136.72725" y="42.21212"/>
  <rect fill="#FFEBA2" height="33.33333" id="1387d23bfcba4d75ab77ed403d0af7aa-ao-2" stroke="#2D2D2D" width="78.78788" x="300.36361" y="75.54546"/>
  <rect fill="#FFEBA2" height="75.75758" id="1387d23bfcba4d75ab77ed403d0af7aa-ao-3" stroke="#2D2D2D" width="78.78788" x="130.66664" y="166.45455"/>
  <rect fill="#FFEBA2" height="30.30303" id="1387d23bfcba4d75ab77ed403d0af7aa-ao-4" stroke="#2D2D2D" width="154.54545" x="512.48483" y="60.39394"/>
  <rect fill="#FFEBA2" height="27.27273" id="1387d23bfcba4d75ab77ed403d0af7aa-ao-5" stroke="#2D2D2D" width="163.63636" x="512.48483" y="93.72727"/>
  <rect fill="#FFEBA2" height="26.59933" id="1387d23bfcba4d75ab77ed403d0af7aa-ao-6" stroke="#2D2D2D" width="151.51515" x="530.66664" y="145.91582"/>
  <rect fill="#FFEBA2" height="33.33333" id="1387d23bfcba4d75ab77ed403d0af7aa-ao-10" stroke="#2D2D2D" width="63.63636" x="342.78786" y="272.51515"/>
  <rect fill="#FFEBA2" height="27.27273" id="1387d23bfcba4d75ab77ed403d0af7aa-ao-11" stroke="#2D2D2D" width="187.87879" x="191.2727" y="305.84849"/>
  <rect fill="#FFEBA2" height="27.27273" id="1387d23bfcba4d75ab77ed403d0af7aa-ao-12" stroke="#2D2D2D" width="239.39394" x="782.1818" y="36.15152"/>
  <rect fill="#FFEBA2" height="24.24242" id="1387d23bfcba4d75ab77ed403d0af7aa-ao-13" stroke="#2D2D2D" width="269.69697" x="903.39392" y="66.45455"/>
  <rect fill="#FFEBA2" height="30.30303" id="1387d23bfcba4d75ab77ed403d0af7aa-ao-14" stroke="#2D2D2D" width="172.72727" x="1085.2121" y="93.72727"/>
  <rect class="qshape" fill="#FF7E7E" height="22.39057" id="1387d23bfcba4d75ab77ed403d0af7aa-ao-15" stroke="#2D2D2D" width="137.03704" x="669.38719" y="122.17845"/>
  <rect fill="#FFEBA2" height="106.06061" id="1387d23bfcba4d75ab77ed403d0af7aa-ao-16" stroke="#2D2D2D" width="121.21212" x="697.33331" y="163.42424"/>
  <rect fill="#FFEBA2" height="30.30303" id="1387d23bfcba4d75ab77ed403d0af7aa-ao-17" stroke="#2D2D2D" width="257.57576" x="651.87877" y="317.9697"/>
  <rect fill="#FFEBA2" height="30.30303" id="1387d23bfcba4d75ab77ed403d0af7aa-ao-18" stroke="#2D2D2D" width="154.54545" x="1203.39392" y="139.18182"/>
  <rect fill="#FFEBA2" height="30.30303" id="1387d23bfcba4d75ab77ed403d0af7aa-ao-19" stroke="#2D2D2D" width="63.63636" x="967.03028" y="314.9394"/>
  <g id="1387d23bfcba4d75ab77ed403d0af7aa-ao-7">
   <rect fill="#FFEBA2" height="27.27273" stroke="#2D2D2D" width="175.75758" x="597.33331" y="287.66667"/>
   <rect fill="#FFEBA2" height="45.45455" stroke="#2D2D2D" width="87.87879" x="482.1818" y="296.75758"/>
   <rect fill="#FFEBA2" height="42.42424" stroke="#2D2D2D" width="82.49158" x="494.30301" y="251.30303"/>
  </g>
  <g id="1387d23bfcba4d75ab77ed403d0af7aa-ao-8">
   <rect fill="#FFEBA2" height="48.48485" stroke="#2D2D2D" width="109.09091" x="1300.36362" y="311.90909"/>
   <rect fill="#FFEBA2" height="33.33333" stroke="#2D2D2D" width="164.30976" x="1117.87204" y="287.66667"/>
   <rect fill="#FFEBA2" height="48.48485" stroke="#2D2D2D" stroke-dasharray="null" stroke-linecap="null" stroke-linejoin="null" width="160.60606" x="1115.51513" y="330.09091"/>
  </g>
 </g>
</svg>