<svg height="1140" width="1535.9999999999998" xmlns="http://www.w3.org/2000/svg">
 <!-- Created with Image Occlusion Enhanced -->
 <g>
  <title>Labels</title>
 </g>
 <g>
  <title>Masks</title>
  <rect fill="#FFEBA2" height="25.71429" id="151d6ab8774f45c59deddebb0e1b3387-ao-1" stroke="#2D2D2D" width="151.42858" x="145.42865" y="22.85712"/>
  <rect fill="#FFEBA2" height="28.57143" id="151d6ab8774f45c59deddebb0e1b3387-ao-2" stroke="#2D2D2D" width="80" x="454.00009" y="31.42855"/>
  <rect fill="#FFEBA2" height="48.57143" id="151d6ab8774f45c59deddebb0e1b3387-ao-3" stroke="#2D2D2D" width="211.42858" x="145.42865" y="62.85712"/>
  <rect fill="#FFEBA2" height="48.57143" id="151d6ab8774f45c59deddebb0e1b3387-ao-4" stroke="#2D2D2D" width="220.00001" x="145.42865" y="137.14284"/>
  <rect fill="#FFEBA2" height="31.42857" id="151d6ab8774f45c59deddebb0e1b3387-ao-5" stroke="#2D2D2D" width="202.85715" x="145.42865" y="205.71427"/>
  <rect fill="#FFEBA2" height="214.28572" id="151d6ab8774f45c59deddebb0e1b3387-ao-6" stroke="#2D2D2D" width="245.7143" x="1162.57155" y="82.85712"/>
  <rect fill="#FFEBA2" height="34.28572" id="151d6ab8774f45c59deddebb0e1b3387-ao-7" stroke="#2D2D2D" width="174.28572" x="145.42865" y="254.2857"/>
  <rect fill="#FFEBA2" height="48.57143" id="151d6ab8774f45c59deddebb0e1b3387-ao-8" stroke="#2D2D2D" width="128.57143" x="145.42865" y="311.42856"/>
  <rect fill="#FFEBA2" height="45.71429" id="151d6ab8774f45c59deddebb0e1b3387-ao-9" stroke="#2D2D2D" width="125.71429" x="148.28579" y="379.99999"/>
  
  <rect fill="#FFEBA2" height="25.71429" id="151d6ab8774f45c59deddebb0e1b3387-ao-11" stroke="#2D2D2D" width="202.85715" x="148.28579" y="454.28571"/>
  <rect fill="#FFEBA2" height="54.28572" id="151d6ab8774f45c59deddebb0e1b3387-ao-12" stroke="#2D2D2D" width="202.85715" x="1162.57155" y="454.28571"/>
  <rect fill="#FFEBA2" height="54.28572" id="151d6ab8774f45c59deddebb0e1b3387-ao-13" stroke="#2D2D2D" width="160.00001" x="145.42865" y="505.71428"/>
  <rect fill="#FFEBA2" height="28.57143" id="151d6ab8774f45c59deddebb0e1b3387-ao-14" stroke="#2D2D2D" width="105.71429" x="1205.4287" y="534.28571"/>
  <rect fill="#FFEBA2" height="28.57143" id="151d6ab8774f45c59deddebb0e1b3387-ao-15" stroke="#2D2D2D" width="140.00001" x="145.42865" y="582.85714"/>
  <rect fill="#FFEBA2" height="54.28572" id="151d6ab8774f45c59deddebb0e1b3387-ao-16" stroke="#2D2D2D" width="177.14287" x="1194.00012" y="611.42857"/>
  <rect fill="#FFEBA2" height="28.57143" id="151d6ab8774f45c59deddebb0e1b3387-ao-17" stroke="#2D2D2D" width="142.85715" x="142.5715" y="645.71429"/>
  <rect fill="#FFEBA2" height="31.42857" id="151d6ab8774f45c59deddebb0e1b3387-ao-18" stroke="#2D2D2D" width="154.28572" x="148.28579" y="711.42858"/>
  <rect fill="#FFEBA2" height="31.42857" id="151d6ab8774f45c59deddebb0e1b3387-ao-19" stroke="#2D2D2D" width="188.57144" x="1139.71441" y="722.85715"/>
  <rect fill="#FFEBA2" height="48.57143" id="151d6ab8774f45c59deddebb0e1b3387-ao-20" stroke="#2D2D2D" width="200.00001" x="145.42865" y="765.71429"/>
  <rect fill="#FFEBA2" height="120.00001" id="151d6ab8774f45c59deddebb0e1b3387-ao-21" stroke="#2D2D2D" width="131.42858" x="1239.71441" y="802.85715"/>
  <rect fill="#FFEBA2" height="57.14286" id="151d6ab8774f45c59deddebb0e1b3387-ao-22" stroke="#2D2D2D" width="182.85715" x="148.28579" y="845.7143"/>
  <rect fill="#FFEBA2" height="145.71429" id="151d6ab8774f45c59deddebb0e1b3387-ao-23" stroke="#2D2D2D" width="191.42858" x="142.5715" y="931.42859"/>
  <rect fill="#FFEBA2" height="31.42857" id="151d6ab8774f45c59deddebb0e1b3387-ao-24" stroke="#2D2D2D" width="51.42857" x="722.57153" y="94.28569"/>
  <rect fill="#FFEBA2" height="28.57143" id="151d6ab8774f45c59deddebb0e1b3387-ao-25" stroke="#2D2D2D" width="42.85714" x="725.42867" y="174.2857"/>
  <rect fill="#FFEBA2" height="31.42857" id="151d6ab8774f45c59deddebb0e1b3387-ao-26" stroke="#2D2D2D" width="37.14286" x="728.28582" y="265.71427"/>
  <rect fill="#FFEBA2" height="28.57143" id="151d6ab8774f45c59deddebb0e1b3387-ao-27" stroke="#2D2D2D" width="31.42857" x="734.0001" y="368.57142"/>
  <rect fill="#FFEBA2" height="28.57143" id="151d6ab8774f45c59deddebb0e1b3387-ao-28" stroke="#2D2D2D" width="37.14286" x="728.28582" y="474.28571"/>
  <rect fill="#FFEBA2" height="28.57143" id="151d6ab8774f45c59deddebb0e1b3387-ao-29" stroke="#2D2D2D" width="37.14286" x="731.14296" y="551.42857"/>
 </g>
</svg>