<svg height="796" width="1225" xmlns="http://www.w3.org/2000/svg">
 <!-- Created with Image Occlusion Enhanced -->
 <g>
  <title>Labels</title>
 </g>
 <g>
  <title>Masks</title>
  <rect fill="#FFEBA2" height="25.71429" id="1829aa0e3bf748dea0f36c99819d3a1d-ao-1" stroke="#2D2D2D" width="331.42857" x="185" y="48.28569"/>
  <rect fill="#FFEBA2" height="28.57143" id="1829aa0e3bf748dea0f36c99819d3a1d-ao-2" stroke="#2D2D2D" width="402.85714" x="67.85714" y="105.42855"/>
  <rect fill="#FFEBA2" height="28.57143" id="1829aa0e3bf748dea0f36c99819d3a1d-ao-3" stroke="#2D2D2D" width="208.57143" x="176.42857" y="162.5714"/>
  <rect fill="#FFEBA2" height="45.71429" id="1829aa0e3bf748dea0f36c99819d3a1d-ao-4" stroke="#2D2D2D" width="185.71429" x="873.57143" y="188.28569"/>
  <rect fill="#FFEBA2" height="31.42857" id="1829aa0e3bf748dea0f36c99819d3a1d-ao-5" stroke="#2D2D2D" width="197.14286" x="170.71429" y="213.99997"/>
  <rect fill="#FFEBA2" height="28.57143" id="1829aa0e3bf748dea0f36c99819d3a1d-ao-6" stroke="#2D2D2D" width="217.14286" x="870.71429" y="262.5714"/>
  <rect fill="#FFEBA2" height="25.71429" id="1829aa0e3bf748dea0f36c99819d3a1d-ao-7" stroke="#2D2D2D" width="288.57143" x="42.14286" y="276.85712"/>
  <rect class="qshape" fill="#FF7E7E" height="28.57143" id="1829aa0e3bf748dea0f36c99819d3a1d-ao-8" stroke="#2D2D2D" width="65.71429" x="867.85714" y="302.5714"/>
  <rect fill="#FFEBA2" height="48.57143" id="1829aa0e3bf748dea0f36c99819d3a1d-ao-9" stroke="#2D2D2D" width="251.42857" x="62.14286" y="316.85712"/>
  <rect fill="#FFEBA2" height="28.57143" id="1829aa0e3bf748dea0f36c99819d3a1d-ao-10" stroke="#2D2D2D" width="237.14286" x="873.57143" y="348.28569"/>
  <rect fill="#FFEBA2" height="51.42857" id="1829aa0e3bf748dea0f36c99819d3a1d-ao-11" stroke="#2D2D2D" width="162.85714" x="873.57143" y="393.99997"/>
  <rect fill="#FFEBA2" height="28.57143" id="1829aa0e3bf748dea0f36c99819d3a1d-ao-12" stroke="#2D2D2D" width="220" x="102.14286" y="413.99997"/>
  <rect fill="#FFEBA2" height="28.57143" id="1829aa0e3bf748dea0f36c99819d3a1d-ao-13" stroke="#2D2D2D" width="180" x="867.85714" y="462.5714"/>
  <rect fill="#FFEBA2" height="31.42857" id="1829aa0e3bf748dea0f36c99819d3a1d-ao-14" stroke="#2D2D2D" width="65.71429" x="259.28571" y="471.14283"/>
  <rect fill="#FFEBA2" height="34.28571" id="1829aa0e3bf748dea0f36c99819d3a1d-ao-15" stroke="#2D2D2D" width="200" x="865" y="508.28569"/>
  <rect fill="#FFEBA2" height="31.42857" id="1829aa0e3bf748dea0f36c99819d3a1d-ao-16" stroke="#2D2D2D" width="222.85714" x="110.71429" y="525.42855"/>
  <rect fill="#FFEBA2" height="25.71429" id="1829aa0e3bf748dea0f36c99819d3a1d-ao-17" stroke="#2D2D2D" width="125.71429" x="862.14286" y="553.99997"/>
  <rect fill="#FFEBA2" height="31.42857" id="1829aa0e3bf748dea0f36c99819d3a1d-ao-18" stroke="#2D2D2D" width="231.42857" x="96.42857" y="579.71426"/>
  <rect fill="#FFEBA2" height="51.42857" id="1829aa0e3bf748dea0f36c99819d3a1d-ao-19" stroke="#2D2D2D" width="220" x="856.42857" y="596.85712"/>
  <rect fill="#FFEBA2" height="28.57143" id="1829aa0e3bf748dea0f36c99819d3a1d-ao-20" stroke="#2D2D2D" width="334.28571" x="62.14286" y="645.42855"/>
  <rect fill="#FFEBA2" height="28.57143" id="1829aa0e3bf748dea0f36c99819d3a1d-ao-21" stroke="#2D2D2D" width="171.42857" x="839.28571" y="671.14283"/>
  <rect fill="#FFEBA2" height="28.57143" id="1829aa0e3bf748dea0f36c99819d3a1d-ao-22" stroke="#2D2D2D" width="214.28571" x="207.85714" y="699.71426"/>
  <rect fill="#FFEBA2" height="25.71429" id="1829aa0e3bf748dea0f36c99819d3a1d-ao-23" stroke="#2D2D2D" width="251.42857" x="810.71429" y="713.99997"/>
  <rect fill="#FFEBA2" height="28.57143" id="1829aa0e3bf748dea0f36c99819d3a1d-ao-24" stroke="#2D2D2D" width="105.71429" x="359.28571" y="751.14283"/>
  <rect fill="#FFEBA2" height="25.71429" id="1829aa0e3bf748dea0f36c99819d3a1d-ao-25" stroke="#2D2D2D" width="225.71429" x="793.57143" y="762.5714"/>
 </g>
</svg>