<svg height="604" width="1247" xmlns="http://www.w3.org/2000/svg">
 <!-- Created with Image Occlusion Enhanced -->
 <g>
  <title>Labels</title>
 </g>
 <g>
  <title>Masks</title>
  <rect fill="#FFEBA2" height="25.71429" id="1891f8979a8a4b7f96aa077c90972f5c-ao-1" stroke="#2D2D2D" width="125.71429" x="321.57137" y="56.00002"/>
  <rect fill="#FFEBA2" height="31.51261" id="1891f8979a8a4b7f96aa077c90972f5c-ao-2" stroke="#2D2D2D" width="322.85715" x="778.71424" y="58.85716"/>
  <rect fill="#FFEBA2" height="71.42857" id="1891f8979a8a4b7f96aa077c90972f5c-ao-3" stroke="#2D2D2D" width="280.00001" x="127.28565" y="96.00002"/>
  <rect fill="#FFEBA2" height="30.12605" id="1891f8979a8a4b7f96aa077c90972f5c-ao-4" stroke="#2D2D2D" width="360.00001" x="830.14281" y="98.85716"/>
  <rect fill="#FFEBA2" height="28.65547" id="1891f8979a8a4b7f96aa077c90972f5c-ao-5" stroke="#2D2D2D" width="182.85715" x="932.99996" y="136.00002"/>
  <rect fill="#FFEBA2" height="28.57143" id="1891f8979a8a4b7f96aa077c90972f5c-ao-6" stroke="#2D2D2D" width="320.00001" x="70.14279" y="193.14288"/>
  <rect fill="#FFEBA2" height="65.71429" id="1891f8979a8a4b7f96aa077c90972f5c-ao-7" stroke="#2D2D2D" width="240.00001" x="995.8571" y="176.00002"/>
  <rect fill="#FFEBA2" height="25.71429" id="1891f8979a8a4b7f96aa077c90972f5c-ao-8" stroke="#2D2D2D" width="148.57143" x="212.99994" y="236.00002"/>
  <rect fill="#FFEBA2" height="27.2689" id="1891f8979a8a4b7f96aa077c90972f5c-ao-9" stroke="#2D2D2D" width="334.28572" x="35.85707" y="273.14288"/>
  
  <rect fill="#FFEBA2" height="65.79832" id="1891f8979a8a4b7f96aa077c90972f5c-ao-11" stroke="#2D2D2D" width="331.42858" x="18.71422" y="310.28574"/>
  <rect fill="#FFEBA2" height="25.71429" id="1891f8979a8a4b7f96aa077c90972f5c-ao-12" stroke="#2D2D2D" width="145.71429" x="1058.71425" y="321.71431"/>
  <rect fill="#FFEBA2" height="28.57143" id="1891f8979a8a4b7f96aa077c90972f5c-ao-13" stroke="#2D2D2D" width="168.57143" x="112.99993" y="384.57146"/>
  <rect fill="#FFEBA2" height="74.28572" id="1891f8979a8a4b7f96aa077c90972f5c-ao-14" stroke="#2D2D2D" width="131.42858" x="1067.28567" y="353.14288"/>
  <rect fill="#FFEBA2" height="28.57143" id="1891f8979a8a4b7f96aa077c90972f5c-ao-15" stroke="#2D2D2D" width="185.71429" x="81.57136" y="424.57146"/>
  <rect fill="#FFEBA2" height="50.12605" id="1891f8979a8a4b7f96aa077c90972f5c-ao-16" stroke="#2D2D2D" width="208.57143" x="98.71422" y="463.14289"/>
  <rect fill="#FFEBA2" height="28.57143" id="1891f8979a8a4b7f96aa077c90972f5c-ao-17" stroke="#2D2D2D" width="288.57144" x="92.99993" y="531.71432"/>
  <rect fill="#FFEBA2" height="28.57143" id="1891f8979a8a4b7f96aa077c90972f5c-ao-18" stroke="#2D2D2D" width="200.00001" x="164.42851" y="568.85718"/>
  <rect fill="#FFEBA2" height="51.42857" id="1891f8979a8a4b7f96aa077c90972f5c-ao-19" stroke="#2D2D2D" width="148.57143" x="618.71423" y="540.28575"/>
 </g>
</svg>