<svg height="1563" width="1535.9999999999998" xmlns="http://www.w3.org/2000/svg">
 <!-- Created with Image Occlusion Enhanced -->
 <g>
  <title>Labels</title>
 </g>
 <g>
  <title>Masks</title>
  <rect fill="#FFEBA2" height="25.71429" id="19a80128ac3946b4899765123aa6d3a5-ao-1" stroke="#2D2D2D" width="97.14286" x="155.42865" y="108.42859"/>
  <rect fill="#FFEBA2" height="45.71429" id="19a80128ac3946b4899765123aa6d3a5-ao-2" stroke="#2D2D2D" width="160.00001" x="158.28579" y="151.28574"/>
  <rect fill="#FFEBA2" height="31.42857" id="19a80128ac3946b4899765123aa6d3a5-ao-3" stroke="#2D2D2D" width="88.57143" x="984.00011" y="177.00002"/>
  <rect fill="#FFEBA2" height="31.42857" id="19a80128ac3946b4899765123aa6d3a5-ao-4" stroke="#2D2D2D" width="162.85715" x="158.28579" y="211.28574"/>
  <rect fill="#FFEBA2" height="28.57143" id="19a80128ac3946b4899765123aa6d3a5-ao-5" stroke="#2D2D2D" width="157.14286" x="986.85726" y="228.4286"/>
  <rect fill="#FFEBA2" height="31.42857" id="19a80128ac3946b4899765123aa6d3a5-ao-6" stroke="#2D2D2D" width="185.71429" x="158.28579" y="254.14289"/>
  <rect fill="#FFEBA2" height="25.71429" id="19a80128ac3946b4899765123aa6d3a5-ao-7" stroke="#2D2D2D" width="88.57143" x="986.85726" y="259.85717"/>
  <rect fill="#FFEBA2" height="45.71429" id="19a80128ac3946b4899765123aa6d3a5-ao-8" stroke="#2D2D2D" width="162.85715" x="158.28579" y="294.14289"/>
  <rect fill="#FFEBA2" height="28.57143" id="19a80128ac3946b4899765123aa6d3a5-ao-9" stroke="#2D2D2D" width="200.00001" x="986.85726" y="291.28574"/>
  
  <rect fill="#FFEBA2" height="34.28572" id="19a80128ac3946b4899765123aa6d3a5-ao-11" stroke="#2D2D2D" width="260.00001" x="986.85726" y="345.57146"/>
  <rect fill="#FFEBA2" height="28.57143" id="19a80128ac3946b4899765123aa6d3a5-ao-12" stroke="#2D2D2D" width="134.28572" x="375.42866" y="605.57147"/>
  <rect fill="#FFEBA2" height="28.57143" id="19a80128ac3946b4899765123aa6d3a5-ao-13" stroke="#2D2D2D" width="111.42858" x="378.2858" y="648.42862"/>
  <rect fill="#FFEBA2" height="28.57143" id="19a80128ac3946b4899765123aa6d3a5-ao-14" stroke="#2D2D2D" width="60" x="378.2858" y="685.57148"/>
  <rect fill="#FFEBA2" height="28.57143" id="19a80128ac3946b4899765123aa6d3a5-ao-15" stroke="#2D2D2D" width="180.00001" x="378.2858" y="725.57148"/>
  <rect fill="#FFEBA2" height="31.42857" id="19a80128ac3946b4899765123aa6d3a5-ao-16" stroke="#2D2D2D" width="208.57144" x="378.2858" y="762.71434"/>
  <rect fill="#FFEBA2" height="31.42857" id="19a80128ac3946b4899765123aa6d3a5-ao-17" stroke="#2D2D2D" width="108.57143" x="375.42866" y="862.71434"/>
  <rect fill="#FFEBA2" height="48.57143" id="19a80128ac3946b4899765123aa6d3a5-ao-18" stroke="#2D2D2D" width="94.28572" x="132.5715" y="1037.00006"/>
  <rect fill="#FFEBA2" height="28.57143" id="19a80128ac3946b4899765123aa6d3a5-ao-19" stroke="#2D2D2D" width="131.42858" x="906.85725" y="1108.42864"/>
  <rect fill="#FFEBA2" height="51.42857" id="19a80128ac3946b4899765123aa6d3a5-ao-20" stroke="#2D2D2D" width="74.28572" x="135.42865" y="1102.71435"/>
  <rect fill="#FFEBA2" height="45.71429" id="19a80128ac3946b4899765123aa6d3a5-ao-21" stroke="#2D2D2D" width="111.42858" x="135.42865" y="1174.14293"/>
  <rect fill="#FFEBA2" height="34.28572" id="19a80128ac3946b4899765123aa6d3a5-ao-22" stroke="#2D2D2D" width="251.42858" x="906.85725" y="1157.00007"/>
  <rect fill="#FFEBA2" height="34.28572" id="19a80128ac3946b4899765123aa6d3a5-ao-23" stroke="#2D2D2D" width="108.57143" x="135.42865" y="1237.00007"/>
  <rect fill="#FFEBA2" height="51.42857" id="19a80128ac3946b4899765123aa6d3a5-ao-24" stroke="#2D2D2D" width="108.57143" x="138.28579" y="1297.00008"/>
  <rect fill="#FFEBA2" height="40" id="19a80128ac3946b4899765123aa6d3a5-ao-25" stroke="#2D2D2D" width="105.71429" x="141.14293" y="1357.00008"/>
 </g>
</svg>