<svg height="1585" width="1535.9999999999998" xmlns="http://www.w3.org/2000/svg">
 <!-- Created with Image Occlusion Enhanced -->
 <g>
  <title>Labels</title>
 </g>
 <g>
  <title>Masks</title>
  <rect fill="#FFEBA2" height="28.57143" id="1b157196bf7c4474bb18142d7c92fffb-ao-1" stroke="#2D2D2D" width="131.42858" x="138.28579" y="147.85711"/>
  <rect fill="#FFEBA2" height="28.57143" id="1b157196bf7c4474bb18142d7c92fffb-ao-2" stroke="#2D2D2D" width="225.7143" x="138.28579" y="253.5714"/>
  <rect fill="#FFEBA2" height="25.71429" id="1b157196bf7c4474bb18142d7c92fffb-ao-3" stroke="#2D2D2D" width="148.57144" x="138.28579" y="299.28569"/>
  <rect fill="#FFEBA2" height="25.71429" id="1b157196bf7c4474bb18142d7c92fffb-ao-4" stroke="#2D2D2D" width="217.14287" x="138.28579" y="336.42855"/>
  <rect fill="#FFEBA2" height="25.71429" id="1b157196bf7c4474bb18142d7c92fffb-ao-5" stroke="#2D2D2D" width="197.14287" x="141.14293" y="379.2857"/>
  <rect fill="#FFEBA2" height="28.57143" id="1b157196bf7c4474bb18142d7c92fffb-ao-6" stroke="#2D2D2D" width="191.42858" x="138.28579" y="444.99998"/>
  <rect fill="#FFEBA2" height="28.57143" id="1b157196bf7c4474bb18142d7c92fffb-ao-7" stroke="#2D2D2D" width="234.28572" x="138.28579" y="513.57142"/>
  <rect fill="#FFEBA2" height="108.57143" id="1b157196bf7c4474bb18142d7c92fffb-ao-8" stroke="#2D2D2D" width="257.14287" x="141.14293" y="584.99999"/>
  <rect fill="#FFEBA2" height="51.42857" id="1b157196bf7c4474bb18142d7c92fffb-ao-9" stroke="#2D2D2D" width="220.00001" x="141.14293" y="713.57142"/>
  <rect fill="#FFEBA2" height="22.85714" id="1b157196bf7c4474bb18142d7c92fffb-ao-10" stroke="#2D2D2D" width="174.28572" x="141.14293" y="782.14286"/>
  <rect fill="#FFEBA2" height="25.71429" id="1b157196bf7c4474bb18142d7c92fffb-ao-11" stroke="#2D2D2D" width="168.57144" x="141.14293" y="819.28572"/>
  <rect fill="#FFEBA2" height="54.28572" id="1b157196bf7c4474bb18142d7c92fffb-ao-12" stroke="#2D2D2D" width="251.42858" x="138.28579" y="962.14286"/>
  <rect fill="#FFEBA2" height="54.28572" id="1b157196bf7c4474bb18142d7c92fffb-ao-13" stroke="#2D2D2D" width="194.28572" x="138.28579" y="1056.42858"/>
  
  <rect fill="#FFEBA2" height="25.71429" id="1b157196bf7c4474bb18142d7c92fffb-ao-15" stroke="#2D2D2D" width="208.57144" x="138.28579" y="1193.57145"/>
  <rect fill="#FFEBA2" height="77.14286" id="1b157196bf7c4474bb18142d7c92fffb-ao-16" stroke="#2D2D2D" width="262.85715" x="141.14293" y="1236.42859"/>
  <rect fill="#FFEBA2" height="31.42857" id="1b157196bf7c4474bb18142d7c92fffb-ao-17" stroke="#2D2D2D" width="222.85715" x="141.14293" y="1330.71431"/>
  <rect fill="#FFEBA2" height="28.57143" id="1b157196bf7c4474bb18142d7c92fffb-ao-18" stroke="#2D2D2D" width="165.71429" x="138.28579" y="1399.28574"/>
  <rect fill="#FFEBA2" height="34.28572" id="1b157196bf7c4474bb18142d7c92fffb-ao-19" stroke="#2D2D2D" width="162.85715" x="141.14293" y="1439.28574"/>
  <rect fill="#FFEBA2" height="28.57143" id="1b157196bf7c4474bb18142d7c92fffb-ao-20" stroke="#2D2D2D" width="208.57144" x="141.14293" y="1510.71432"/>
 </g>
</svg>