<svg height="1204" width="1042" xmlns="http://www.w3.org/2000/svg">
 <!-- Created with Image Occlusion Enhanced -->
 <g>
  <title>Labels</title>
 </g>
 <g>
  <title>Masks</title>
  <rect fill="#FFEBA2" height="25.71429" id="1e0cb3bcd09648249d19b7a7abf97a6f-ao-1" stroke="#2D2D2D" width="68.57143" x="662.28566" y="157.42859"/>
  <rect fill="#FFEBA2" height="28.57143" id="1e0cb3bcd09648249d19b7a7abf97a6f-ao-2" stroke="#2D2D2D" width="160" x="82.28566" y="203.14288"/>
  <rect fill="#FFEBA2" height="28.57143" id="1e0cb3bcd09648249d19b7a7abf97a6f-ao-3" stroke="#2D2D2D" width="171.42857" x="665.14281" y="208.85716"/>
  <rect fill="#FFEBA2" height="25.71429" id="1e0cb3bcd09648249d19b7a7abf97a6f-ao-4" stroke="#2D2D2D" width="185.71429" x="53.71423" y="260.28574"/>
  <rect fill="#FFEBA2" height="28.57143" id="1e0cb3bcd09648249d19b7a7abf97a6f-ao-5" stroke="#2D2D2D" width="200" x="662.28566" y="263.14288"/>
  <rect fill="#FFEBA2" height="31.42857" id="1e0cb3bcd09648249d19b7a7abf97a6f-ao-6" stroke="#2D2D2D" width="217.14286" x="19.42851" y="308.85716"/>
  <rect fill="#FFEBA2" height="28.57143" id="1e0cb3bcd09648249d19b7a7abf97a6f-ao-7" stroke="#2D2D2D" width="188.57143" x="662.28566" y="317.42859"/>
  <rect fill="#FFEBA2" height="31.42857" id="1e0cb3bcd09648249d19b7a7abf97a6f-ao-8" stroke="#2D2D2D" width="208.57143" x="19.42851" y="363.14288"/>
  <rect fill="#FFEBA2" height="25.71429" id="1e0cb3bcd09648249d19b7a7abf97a6f-ao-9" stroke="#2D2D2D" width="148.57143" x="25.1428" y="417.42859"/>
  <rect fill="#FFEBA2" height="28.57143" id="1e0cb3bcd09648249d19b7a7abf97a6f-ao-10" stroke="#2D2D2D" width="177.14286" x="745.14281" y="437.4286"/>
  <rect fill="#FFEBA2" height="34.28571" id="1e0cb3bcd09648249d19b7a7abf97a6f-ao-11" stroke="#2D2D2D" width="128.57143" x="36.57137" y="468.85717"/>
  <rect class="qshape" fill="#FF7E7E" height="22.85714" id="1e0cb3bcd09648249d19b7a7abf97a6f-ao-12" stroke="#2D2D2D" width="60" x="765.14281" y="508.85717"/>
  <rect fill="#FFEBA2" height="28.57143" id="1e0cb3bcd09648249d19b7a7abf97a6f-ao-13" stroke="#2D2D2D" width="154.28572" x="13.71423" y="526.00003"/>
  <rect fill="#FFEBA2" height="31.42857" id="1e0cb3bcd09648249d19b7a7abf97a6f-ao-14" stroke="#2D2D2D" width="122.85714" x="790.85709" y="571.71431"/>
  <rect fill="#FFEBA2" height="28.57143" id="1e0cb3bcd09648249d19b7a7abf97a6f-ao-15" stroke="#2D2D2D" width="48.57143" x="113.71423" y="574.57145"/>
  <rect fill="#FFEBA2" height="31.42857" id="1e0cb3bcd09648249d19b7a7abf97a6f-ao-16" stroke="#2D2D2D" width="257.14286" x="776.57138" y="640.28574"/>
  <rect fill="#FFEBA2" height="51.42857" id="1e0cb3bcd09648249d19b7a7abf97a6f-ao-17" stroke="#2D2D2D" width="111.42857" x="42.28566" y="631.71431"/>
  <rect fill="#FFEBA2" height="22.85714" id="1e0cb3bcd09648249d19b7a7abf97a6f-ao-18" stroke="#2D2D2D" width="142.85714" x="13.71423" y="706.00003"/>
  <rect fill="#FFEBA2" height="28.57143" id="1e0cb3bcd09648249d19b7a7abf97a6f-ao-19" stroke="#2D2D2D" width="77.14286" x="690.85709" y="708.85717"/>
  <rect fill="#FFEBA2" height="28.57143" id="1e0cb3bcd09648249d19b7a7abf97a6f-ao-20" stroke="#2D2D2D" width="91.42857" x="679.42852" y="777.4286"/>
  <rect fill="#FFEBA2" height="25.71429" id="1e0cb3bcd09648249d19b7a7abf97a6f-ao-21" stroke="#2D2D2D" width="177.14286" x="22.28565" y="886.00003"/>
 </g>
</svg>