<svg height="730" width="1212" xmlns="http://www.w3.org/2000/svg">
 <!-- Created with Image Occlusion Enhanced -->
 <g>
  <title>Labels</title>
 </g>
 <g>
  <title>Masks</title>
  <rect fill="#FFEBA2" height="25" id="1e789327743644ff938137aee04143e9-ao-1" stroke="#2D2D2D" width="210.00001" x="840.50005" y="4.99999"/>
  <rect fill="#FFEBA2" height="25" id="1e789327743644ff938137aee04143e9-ao-2" stroke="#2D2D2D" width="220.00001" x="838.00005" y="47.49999"/>
  <rect fill="#FFEBA2" height="25" id="1e789327743644ff938137aee04143e9-ao-3" stroke="#2D2D2D" width="92.5" x="185.50004" y="97.49999"/>
  <rect fill="#FFEBA2" height="25" id="1e789327743644ff938137aee04143e9-ao-4" stroke="#2D2D2D" width="100" x="843.00005" y="92.49999"/>
  <rect fill="#FFEBA2" height="25" id="1e789327743644ff938137aee04143e9-ao-5" stroke="#2D2D2D" width="117.5" x="160.50003" y="134.99999"/>
  <rect fill="#FFEBA2" height="25" id="1e789327743644ff938137aee04143e9-ao-6" stroke="#2D2D2D" width="230.00001" x="840.50005" y="134.99999"/>
  <rect fill="#FFEBA2" height="25" id="1e789327743644ff938137aee04143e9-ao-7" stroke="#2D2D2D" width="155" x="125.50003" y="175"/>
  <rect fill="#FFEBA2" height="22.5" id="1e789327743644ff938137aee04143e9-ao-8" stroke="#2D2D2D" width="360.00001" x="820.50005" y="175"/>
  <rect fill="#FFEBA2" height="22.5" id="1e789327743644ff938137aee04143e9-ao-9" stroke="#2D2D2D" width="147.5" x="140.50003" y="212.5"/>
  <rect class="qshape" fill="#FF7E7E" height="25" id="1e789327743644ff938137aee04143e9-ao-10" stroke="#2D2D2D" width="127.5" x="815.50005" y="215"/>
  <rect fill="#FFEBA2" height="25" id="1e789327743644ff938137aee04143e9-ao-11" stroke="#2D2D2D" width="225.00001" x="80.50003" y="250"/>
  <rect fill="#FFEBA2" height="25" id="1e789327743644ff938137aee04143e9-ao-12" stroke="#2D2D2D" width="52.5" x="815.50005" y="257.5"/>
  <rect fill="#FFEBA2" height="25" id="1e789327743644ff938137aee04143e9-ao-13" stroke="#2D2D2D" width="240.00001" x="60.50003" y="287.5"/>
  <rect fill="#FFEBA2" height="25" id="1e789327743644ff938137aee04143e9-ao-14" stroke="#2D2D2D" width="227.50001" x="798.00005" y="302.5"/>
  <rect fill="#FFEBA2" height="27.5" id="1e789327743644ff938137aee04143e9-ao-15" stroke="#2D2D2D" width="267.50001" x="23.00003" y="325"/>
  <rect fill="#FFEBA2" height="22.5" id="1e789327743644ff938137aee04143e9-ao-16" stroke="#2D2D2D" width="252.50001" x="803.00005" y="345"/>
  <rect fill="#FFEBA2" height="45" id="1e789327743644ff938137aee04143e9-ao-17" stroke="#2D2D2D" width="182.5" x="98.00003" y="372.5"/>
  <rect fill="#FFEBA2" height="25" id="1e789327743644ff938137aee04143e9-ao-18" stroke="#2D2D2D" width="320.00001" x="775.50005" y="385"/>
  <rect fill="#FFEBA2" height="45" id="1e789327743644ff938137aee04143e9-ao-19" stroke="#2D2D2D" width="285.00001" x="25.50003" y="437.5"/>
  <rect fill="#FFEBA2" height="22.5" id="1e789327743644ff938137aee04143e9-ao-20" stroke="#2D2D2D" width="192.5" x="760.50005" y="430"/>
  <rect fill="#FFEBA2" height="25" id="1e789327743644ff938137aee04143e9-ao-21" stroke="#2D2D2D" width="262.50001" x="730.50005" y="472.5"/>
  <rect fill="#FFEBA2" height="22.5" id="1e789327743644ff938137aee04143e9-ao-22" stroke="#2D2D2D" width="165" x="115.50003" y="500"/>
  <rect fill="#FFEBA2" height="30" id="1e789327743644ff938137aee04143e9-ao-23" stroke="#2D2D2D" width="260.00001" x="705.50005" y="512.5"/>
  <rect fill="#FFEBA2" height="25" id="1e789327743644ff938137aee04143e9-ao-24" stroke="#2D2D2D" width="147.5" x="133.00003" y="535"/>
  <rect fill="#FFEBA2" height="27.5" id="1e789327743644ff938137aee04143e9-ao-25" stroke="#2D2D2D" width="227.50001" x="690.50005" y="557.5"/>
  <rect fill="#FFEBA2" height="45" id="1e789327743644ff938137aee04143e9-ao-26" stroke="#2D2D2D" width="192.5" x="100.50003" y="575.00001"/>
  <rect fill="#FFEBA2" height="30" id="1e789327743644ff938137aee04143e9-ao-27" stroke="#2D2D2D" stroke-dasharray="null" stroke-linecap="null" stroke-linejoin="null" width="182.5" x="100.50003" y="635.00001"/>
  <rect fill="#FFEBA2" height="22.5" id="1e789327743644ff938137aee04143e9-ao-28" stroke="#2D2D2D" stroke-dasharray="null" stroke-linecap="null" stroke-linejoin="null" width="167.5" x="125.50003" y="680.00001"/>
 </g>
</svg>