<svg height="793.9999999999999" width="1308" xmlns="http://www.w3.org/2000/svg">
 <!-- Created with Image Occlusion Enhanced -->
 <g>
  <title>Labels</title>
 </g>
 <g>
  <title>Masks</title>
  <rect fill="#FFEBA2" height="25" id="1ea3ef63f471490db54a25a3b0a38567-ao-1" stroke="#2D2D2D" width="337.49999" x="116.99996" y="60.99998"/>
  <rect fill="#FFEBA2" height="27.5" id="1ea3ef63f471490db54a25a3b0a38567-ao-2" stroke="#2D2D2D" width="100" x="706.99995" y="43.49998"/>
  <rect fill="#FFEBA2" height="30" id="1ea3ef63f471490db54a25a3b0a38567-ao-3" stroke="#2D2D2D" width="120" x="854.49995" y="85.99998"/>
  <rect fill="#FFEBA2" height="47.5" id="1ea3ef63f471490db54a25a3b0a38567-ao-4" stroke="#2D2D2D" width="215" x="76.99997" y="100.99998"/>
  <rect fill="#FFEBA2" height="30" id="1ea3ef63f471490db54a25a3b0a38567-ao-5" stroke="#2D2D2D" width="187.5" x="901.99995" y="133.49998"/>
  <rect fill="#FFEBA2" height="50" id="1ea3ef63f471490db54a25a3b0a38567-ao-6" stroke="#2D2D2D" width="190" x="94.49996" y="168.49998"/>
  <rect fill="#FFEBA2" height="50" id="1ea3ef63f471490db54a25a3b0a38567-ao-7" stroke="#2D2D2D" width="220" x="946.99995" y="183.49998"/>
  <rect fill="#FFEBA2" height="42.5" id="1ea3ef63f471490db54a25a3b0a38567-ao-8" stroke="#2D2D2D" width="185" x="76.99997" y="235.99998"/>
  <rect fill="#FFEBA2" height="25" id="1ea3ef63f471490db54a25a3b0a38567-ao-9" stroke="#2D2D2D" width="72.5" x="991.99995" y="245.99998"/>
  <rect fill="#FFEBA2" height="25" id="1ea3ef63f471490db54a25a3b0a38567-ao-10" stroke="#2D2D2D" width="130" x="126.99996" y="300.99998"/>
  <rect fill="#FFEBA2" height="22.5" id="1ea3ef63f471490db54a25a3b0a38567-ao-11" stroke="#2D2D2D" width="80" x="1026.99995" y="295.99998"/>
  <rect fill="#FFEBA2" height="47.5" id="1ea3ef63f471490db54a25a3b0a38567-ao-12" stroke="#2D2D2D" width="192.5" x="66.99997" y="340.99998"/>
  <rect fill="#FFEBA2" height="27.5" id="1ea3ef63f471490db54a25a3b0a38567-ao-13" stroke="#2D2D2D" width="230" x="1061.99995" y="338.49998"/>
  <rect fill="#FFEBA2" height="25" id="1ea3ef63f471490db54a25a3b0a38567-ao-14" stroke="#2D2D2D" width="57.5" x="209.49996" y="408.49998"/>
  <rect fill="#FFEBA2" height="20" id="1ea3ef63f471490db54a25a3b0a38567-ao-15" stroke="#2D2D2D" width="157.5" x="1096.99995" y="388.49998"/>
  <rect fill="#FFEBA2" height="22.5" id="1ea3ef63f471490db54a25a3b0a38567-ao-16" stroke="#2D2D2D" width="80" x="196.99996" y="450.99998"/>
  <rect fill="#FFEBA2" height="27.5" id="1ea3ef63f471490db54a25a3b0a38567-ao-17" stroke="#2D2D2D" width="137.5" x="1126.99995" y="425.99998"/>
  <rect fill="#FFEBA2" height="27.5" id="1ea3ef63f471490db54a25a3b0a38567-ao-18" stroke="#2D2D2D" width="160" x="116.99996" y="490.99998"/>
  <rect fill="#FFEBA2" height="22.5" id="1ea3ef63f471490db54a25a3b0a38567-ao-19" stroke="#2D2D2D" width="132.5" x="1129.49995" y="475.99998"/>
  <rect fill="#FFEBA2" height="30" id="1ea3ef63f471490db54a25a3b0a38567-ao-20" stroke="#2D2D2D" width="227.5" x="61.99997" y="533.49997"/>
  <rect fill="#FFEBA2" height="22.5" id="1ea3ef63f471490db54a25a3b0a38567-ao-21" stroke="#2D2D2D" width="140" x="1136.99994" y="523.49997"/>
  <rect fill="#FFEBA2" height="22.5" id="1ea3ef63f471490db54a25a3b0a38567-ao-22" stroke="#2D2D2D" width="67.5" x="134.49996" y="578.49997"/>
  
  <rect fill="#FFEBA2" height="70" id="1ea3ef63f471490db54a25a3b0a38567-ao-24" stroke="#2D2D2D" width="242.5" x="44.49997" y="660.99997"/>
  <rect fill="#FFEBA2" height="27.5" id="1ea3ef63f471490db54a25a3b0a38567-ao-25" stroke="#2D2D2D" width="185" x="1024.49995" y="645.99997"/>
  <rect fill="#FFEBA2" height="25" id="1ea3ef63f471490db54a25a3b0a38567-ao-26" stroke="#2D2D2D" width="122.5" x="864.49995" y="670.99997"/>
  <rect fill="#FFEBA2" height="22.5" id="1ea3ef63f471490db54a25a3b0a38567-ao-27" stroke="#2D2D2D" width="95" x="734.49995" y="693.49997"/>
  <rect fill="#FFEBA2" height="25" id="1ea3ef63f471490db54a25a3b0a38567-ao-28" stroke="#2D2D2D" width="250" x="741.99995" y="748.49997"/>
 </g>
</svg>