<svg height="1086" width="1371" xmlns="http://www.w3.org/2000/svg">
 <!-- Created with Image Occlusion Enhanced -->
 <g>
  <title>Labels</title>
 </g>
 <g>
  <title>Masks</title>
  <rect fill="#FFEBA2" height="25.71429" id="210bc1470e6a4c4a8d575ec3be81305e-ao-1" stroke="#2D2D2D" width="228.57143" x="913.28569" y="28.28569"/>
  <rect fill="#FFEBA2" height="25.71429" id="210bc1470e6a4c4a8d575ec3be81305e-ao-2" stroke="#2D2D2D" width="180" x="913.28569" y="79.71427"/>
  <rect fill="#FFEBA2" height="137.14286" id="210bc1470e6a4c4a8d575ec3be81305e-ao-3" stroke="#2D2D2D" width="148.57143" x="64.71427" y="31.14284"/>
  <rect fill="#FFEBA2" height="31.42857" id="210bc1470e6a4c4a8d575ec3be81305e-ao-4" stroke="#2D2D2D" width="225.71428" x="913.28569" y="131.14284"/>
  <rect fill="#FFEBA2" height="25.71429" id="210bc1470e6a4c4a8d575ec3be81305e-ao-5" stroke="#2D2D2D" width="265.71428" x="913.28569" y="182.57141"/>
  <rect fill="#FFEBA2" height="48.57143" id="210bc1470e6a4c4a8d575ec3be81305e-ao-6" stroke="#2D2D2D" width="171.42857" x="64.71427" y="199.71426"/>
  <rect fill="#FFEBA2" height="28.57143" id="210bc1470e6a4c4a8d575ec3be81305e-ao-7" stroke="#2D2D2D" width="419.99999" x="910.42854" y="231.14283"/>
  <rect fill="#FFEBA2" height="28.57143" id="210bc1470e6a4c4a8d575ec3be81305e-ao-8" stroke="#2D2D2D" width="328.57142" x="913.28569" y="285.42855"/>
  <rect fill="#FFEBA2" height="51.42857" id="210bc1470e6a4c4a8d575ec3be81305e-ao-9" stroke="#2D2D2D" width="157.14286" x="67.57141" y="279.71426"/>
  <rect fill="#FFEBA2" height="25.71429" id="210bc1470e6a4c4a8d575ec3be81305e-ao-10" stroke="#2D2D2D" width="220" x="921.85711" y="336.85712"/>
  <rect fill="#FFEBA2" height="45.71429" id="210bc1470e6a4c4a8d575ec3be81305e-ao-11" stroke="#2D2D2D" width="105.71428" x="64.71427" y="356.85712"/>
  <rect fill="#FFEBA2" height="48.57143" id="210bc1470e6a4c4a8d575ec3be81305e-ao-12" stroke="#2D2D2D" width="377.14285" x="933.28568" y="385.42855"/>
  <rect fill="#FFEBA2" height="25.71429" id="210bc1470e6a4c4a8d575ec3be81305e-ao-13" stroke="#2D2D2D" width="134.28571" x="64.71427" y="436.85712"/>
  <rect fill="#FFEBA2" height="77.14286" id="210bc1470e6a4c4a8d575ec3be81305e-ao-14" stroke="#2D2D2D" width="302.85714" x="984.71426" y="456.85712"/>
  <rect fill="#FFEBA2" height="94.28571" id="210bc1470e6a4c4a8d575ec3be81305e-ao-15" stroke="#2D2D2D" width="102.85714" x="67.57141" y="493.99997"/>
  <rect fill="#FFEBA2" height="68.57143" id="210bc1470e6a4c4a8d575ec3be81305e-ao-16" stroke="#2D2D2D" width="308.57142" x="996.14283" y="562.5714"/>
  <rect fill="#FFEBA2" height="71.42857" id="210bc1470e6a4c4a8d575ec3be81305e-ao-17" stroke="#2D2D2D" width="108.57143" x="61.85712" y="619.71426"/>
  <rect fill="#FFEBA2" height="28.57143" id="210bc1470e6a4c4a8d575ec3be81305e-ao-18" stroke="#2D2D2D" width="191.42857" x="993.28568" y="662.5714"/>
  <rect fill="#FFEBA2" height="48.57143" id="210bc1470e6a4c4a8d575ec3be81305e-ao-19" stroke="#2D2D2D" width="325.71428" x="990.42854" y="713.99997"/>
  <rect fill="#FFEBA2" height="97.14286" id="210bc1470e6a4c4a8d575ec3be81305e-ao-20" stroke="#2D2D2D" width="140" x="67.57141" y="725.42854"/>
  <rect class="qshape" fill="#FF7E7E" height="51.42857" id="210bc1470e6a4c4a8d575ec3be81305e-ao-21" stroke="#2D2D2D" width="151.42857" x="64.71427" y="848.28568"/>
 </g>
</svg>