<svg height="1539" width="1535.9999999999998" xmlns="http://www.w3.org/2000/svg">
 <!-- Created with Image Occlusion Enhanced -->
 <g>
  <title>Labels</title>
 </g>
 <g>
  <title>Masks</title>
  <rect fill="#FFEBA2" height="31.42857" id="2218cf9247d54938829ebff2af8dc08b-ao-1" stroke="#2D2D2D" width="197.14287" x="832.57154" y="19.57129"/>
  <rect fill="#FFEBA2" height="25.71429" id="2218cf9247d54938829ebff2af8dc08b-ao-2" stroke="#2D2D2D" width="194.28572" x="266.85722" y="10.99986"/>
  <rect fill="#FFEBA2" height="42.85714" id="2218cf9247d54938829ebff2af8dc08b-ao-3" stroke="#2D2D2D" width="162.85715" x="861.14297" y="59.57129"/>
  <rect fill="#FFEBA2" height="31.42857" id="2218cf9247d54938829ebff2af8dc08b-ao-4" stroke="#2D2D2D" width="197.14287" x="215.42865" y="65.28558"/>
  <rect fill="#FFEBA2" height="31.42857" id="2218cf9247d54938829ebff2af8dc08b-ao-5" stroke="#2D2D2D" width="197.14287" x="175.42865" y="119.57129"/>
  <rect fill="#FFEBA2" height="22.85714" id="2218cf9247d54938829ebff2af8dc08b-ao-6" stroke="#2D2D2D" width="154.28572" x="149.71436" y="176.71415"/>
  <rect fill="#FFEBA2" height="54.28572" id="2218cf9247d54938829ebff2af8dc08b-ao-7" stroke="#2D2D2D" width="108.57143" x="906.85725" y="205.28558"/>
  <rect fill="#FFEBA2" height="31.42857" id="2218cf9247d54938829ebff2af8dc08b-ao-8" stroke="#2D2D2D" width="137.14286" x="164.00008" y="230.99987"/>
  <rect fill="#FFEBA2" height="48.57143" id="2218cf9247d54938829ebff2af8dc08b-ao-9" stroke="#2D2D2D" width="97.14286" x="869.71439" y="273.85702"/>
  <rect fill="#FFEBA2" height="54.28572" id="2218cf9247d54938829ebff2af8dc08b-ao-10" stroke="#2D2D2D" width="202.85715" x="155.42865" y="316.71416"/>
  <rect fill="#FFEBA2" height="48.57143" id="2218cf9247d54938829ebff2af8dc08b-ao-11" stroke="#2D2D2D" width="128.57143" x="852.57154" y="336.71416"/>
  <rect fill="#FFEBA2" height="31.42857" id="2218cf9247d54938829ebff2af8dc08b-ao-12" stroke="#2D2D2D" width="191.42858" x="164.00008" y="393.85702"/>
  <rect fill="#FFEBA2" height="51.42857" id="2218cf9247d54938829ebff2af8dc08b-ao-13" stroke="#2D2D2D" width="148.57144" x="855.42868" y="399.57131"/>
  <rect fill="#FFEBA2" height="48.57143" id="2218cf9247d54938829ebff2af8dc08b-ao-14" stroke="#2D2D2D" width="160.00001" x="204.00008" y="450.99988"/>
  <rect fill="#FFEBA2" height="51.42857" id="2218cf9247d54938829ebff2af8dc08b-ao-15" stroke="#2D2D2D" width="162.85715" x="855.42868" y="462.42845"/>
  <rect fill="#FFEBA2" height="28.57143" id="2218cf9247d54938829ebff2af8dc08b-ao-16" stroke="#2D2D2D" width="114.28572" x="244.00008" y="530.99988"/>
  <rect fill="#FFEBA2" height="54.28572" id="2218cf9247d54938829ebff2af8dc08b-ao-17" stroke="#2D2D2D" width="165.71429" x="855.42868" y="525.2856"/>
  <rect fill="#FFEBA2" height="54.28572" id="2218cf9247d54938829ebff2af8dc08b-ao-18" stroke="#2D2D2D" width="177.14287" x="209.71436" y="576.71417"/>
  <rect fill="#FFEBA2" height="28.57143" id="2218cf9247d54938829ebff2af8dc08b-ao-19" stroke="#2D2D2D" width="125.71429" x="255.42865" y="656.71418"/>
  <rect fill="#FFEBA2" height="71.42857" id="2218cf9247d54938829ebff2af8dc08b-ao-20" stroke="#2D2D2D" width="202.85715" x="155.42865" y="688.14275"/>
  <rect fill="#FFEBA2" height="57.14286" id="2218cf9247d54938829ebff2af8dc08b-ao-21" stroke="#2D2D2D" width="120.00001" x="858.28582" y="742.42847"/>
  <rect fill="#FFEBA2" height="31.42857" id="2218cf9247d54938829ebff2af8dc08b-ao-22" stroke="#2D2D2D" width="214.28572" x="155.42865" y="788.14275"/>
  <rect fill="#FFEBA2" height="25.71429" id="2218cf9247d54938829ebff2af8dc08b-ao-23" stroke="#2D2D2D" width="228.57144" x="946.85726" y="802.42847"/>
  <rect fill="#FFEBA2" height="28.57143" id="2218cf9247d54938829ebff2af8dc08b-ao-24" stroke="#2D2D2D" width="222.85715" x="152.57151" y="830.9999"/>
  <rect fill="#FFEBA2" height="28.57143" id="2218cf9247d54938829ebff2af8dc08b-ao-25" stroke="#2D2D2D" width="177.14287" x="1215.4287" y="845.28561"/>
  <rect fill="#FFEBA2" height="28.57143" id="2218cf9247d54938829ebff2af8dc08b-ao-26" stroke="#2D2D2D" width="54.28572" x="186.85722" y="896.71419"/>
  <rect fill="#FFEBA2" height="48.57143" id="2218cf9247d54938829ebff2af8dc08b-ao-27" stroke="#2D2D2D" width="82.85715" x="146.85722" y="985.28562"/>
  <rect fill="#FFEBA2" height="68.57143" id="2218cf9247d54938829ebff2af8dc08b-ao-28" stroke="#2D2D2D" width="71.42857" x="144.00008" y="1073.85705"/>
  <rect fill="#FFEBA2" height="68.57143" id="2218cf9247d54938829ebff2af8dc08b-ao-29" stroke="#2D2D2D" width="82.85715" x="149.71436" y="1188.14277"/>
  <rect fill="#FFEBA2" height="48.57143" id="2218cf9247d54938829ebff2af8dc08b-ao-30" stroke="#2D2D2D" width="77.14286" x="969.7144" y="1202.42849"/>
  <rect fill="#FFEBA2" height="71.42857" id="2218cf9247d54938829ebff2af8dc08b-ao-31" stroke="#2D2D2D" width="111.42858" x="952.57154" y="1265.28563"/>
  <rect fill="#FFEBA2" height="71.42857" id="2218cf9247d54938829ebff2af8dc08b-ao-32" stroke="#2D2D2D" width="100" x="1158.28584" y="1296.71421"/>
  <rect fill="#FFEBA2" height="48.57143" id="2218cf9247d54938829ebff2af8dc08b-ao-33" stroke="#2D2D2D" width="102.85715" x="938.28583" y="1353.85706"/>
  <rect fill="#FFEBA2" height="48.57143" id="2218cf9247d54938829ebff2af8dc08b-ao-34" stroke="#2D2D2D" width="191.42858" x="1121.14298" y="1390.99992"/>
  <rect fill="#FFEBA2" height="31.42857" id="2218cf9247d54938829ebff2af8dc08b-ao-35" stroke="#2D2D2D" width="151.42858" x="232.57151" y="1353.85706"/>
  <rect fill="#FFEBA2" height="34.28572" id="2218cf9247d54938829ebff2af8dc08b-ao-36" stroke="#2D2D2D" width="148.57144" x="272.57151" y="1402.4285"/>
  <rect fill="#FFEBA2" height="31.42857" id="2218cf9247d54938829ebff2af8dc08b-ao-37" stroke="#2D2D2D" width="162.85715" x="298.2858" y="1456.71421"/>
  <rect class="qshape" fill="#FF7E7E" height="31.42857" id="2218cf9247d54938829ebff2af8dc08b-ao-38" stroke="#2D2D2D" width="242.85715" x="652.57153" y="1468.14278"/>
  <rect fill="#FFEBA2" height="31.42857" id="2218cf9247d54938829ebff2af8dc08b-ao-39" stroke="#2D2D2D" width="225.7143" x="946.85726" y="1462.4285"/>
  <rect fill="#FFEBA2" height="31.42857" id="2218cf9247d54938829ebff2af8dc08b-ao-40" stroke="#2D2D2D" width="371.42859" x="169.71436" y="1496.71421"/>
  <rect fill="#FFEBA2" height="25.71429" id="2218cf9247d54938829ebff2af8dc08b-ao-41" stroke="#2D2D2D" width="382.85716" x="584.0001" y="1499.57136"/>
 </g>
</svg>