<svg height="1533" width="1535.9999999999998" xmlns="http://www.w3.org/2000/svg">
 <!-- Created with Image Occlusion Enhanced -->
 <g>
  <title>Labels</title>
 </g>
 <g>
  <title>Masks</title>
  <rect fill="#FFEBA2" height="28.57143" id="25cd4aa9944a48f08b6e70fb1023a9eb-ao-1" stroke="#2D2D2D" width="337.14287" x="226.85722" y="98.42859"/>
  <rect fill="#FFEBA2" height="22.85714" id="25cd4aa9944a48f08b6e70fb1023a9eb-ao-2" stroke="#2D2D2D" width="208.57144" x="789.71439" y="92.71431"/>
  <rect fill="#FFEBA2" height="31.42857" id="25cd4aa9944a48f08b6e70fb1023a9eb-ao-3" stroke="#2D2D2D" width="120.00001" x="321.14294" y="167.00003"/>
  <rect fill="#FFEBA2" height="28.57143" id="25cd4aa9944a48f08b6e70fb1023a9eb-ao-4" stroke="#2D2D2D" width="265.7143" x="826.85725" y="195.57145"/>
  <rect fill="#FFEBA2" height="31.42857" id="25cd4aa9944a48f08b6e70fb1023a9eb-ao-5" stroke="#2D2D2D" width="225.7143" x="889.7144" y="247.00003"/>
  <rect fill="#FFEBA2" height="22.85714" id="25cd4aa9944a48f08b6e70fb1023a9eb-ao-6" stroke="#2D2D2D" width="260.00001" x="209.71436" y="247.00003"/>
  <rect fill="#FFEBA2" height="28.57143" id="25cd4aa9944a48f08b6e70fb1023a9eb-ao-7" stroke="#2D2D2D" width="140.00001" x="952.57154" y="295.57146"/>
  
  <rect fill="#FFEBA2" height="51.42857" id="25cd4aa9944a48f08b6e70fb1023a9eb-ao-9" stroke="#2D2D2D" width="145.71429" x="421.14295" y="449.85718"/>
  <rect fill="#FFEBA2" height="25.71429" id="25cd4aa9944a48f08b6e70fb1023a9eb-ao-10" stroke="#2D2D2D" width="131.42858" x="204.00008" y="472.71432"/>
  <rect fill="#FFEBA2" height="48.57143" id="25cd4aa9944a48f08b6e70fb1023a9eb-ao-11" stroke="#2D2D2D" width="111.42858" x="735.42867" y="618.42862"/>
  <rect fill="#FFEBA2" height="54.28572" id="25cd4aa9944a48f08b6e70fb1023a9eb-ao-12" stroke="#2D2D2D" width="148.57144" x="418.2858" y="681.28576"/>
  <rect fill="#FFEBA2" height="28.57143" id="25cd4aa9944a48f08b6e70fb1023a9eb-ao-13" stroke="#2D2D2D" width="134.28572" x="272.57151" y="744.14291"/>
  <rect fill="#FFEBA2" height="74.28572" id="25cd4aa9944a48f08b6e70fb1023a9eb-ao-14" stroke="#2D2D2D" width="105.71429" x="695.42867" y="758.42862"/>
  <rect fill="#FFEBA2" height="48.57143" id="25cd4aa9944a48f08b6e70fb1023a9eb-ao-15" stroke="#2D2D2D" width="142.85715" x="406.85723" y="989.85721"/>
  <rect fill="#FFEBA2" height="42.85714" id="25cd4aa9944a48f08b6e70fb1023a9eb-ao-16" stroke="#2D2D2D" width="117.14286" x="692.57153" y="995.57149"/>
  <rect fill="#FFEBA2" height="34.28572" id="25cd4aa9944a48f08b6e70fb1023a9eb-ao-17" stroke="#2D2D2D" width="122.85715" x="286.85723" y="1104.14292"/>
  <rect fill="#FFEBA2" height="31.42857" id="25cd4aa9944a48f08b6e70fb1023a9eb-ao-18" stroke="#2D2D2D" width="251.42858" x="264.00008" y="1175.5715"/>
  <rect fill="#FFEBA2" height="51.42857" id="25cd4aa9944a48f08b6e70fb1023a9eb-ao-19" stroke="#2D2D2D" width="145.71429" x="392.57152" y="1264.14293"/>
  <rect fill="#FFEBA2" height="100" id="25cd4aa9944a48f08b6e70fb1023a9eb-ao-20" stroke="#2D2D2D" width="265.7143" x="586.85724" y="1344.14294"/>
  <rect fill="#FFEBA2" height="28.57143" id="25cd4aa9944a48f08b6e70fb1023a9eb-ao-21" stroke="#2D2D2D" width="140.00001" x="301.14294" y="1461.2858"/>
  <rect fill="#FFEBA2" height="28.57143" id="25cd4aa9944a48f08b6e70fb1023a9eb-ao-22" stroke="#2D2D2D" width="145.71429" x="301.14294" y="1495.57151"/>
 </g>
</svg>