<svg height="758.0000000000001" width="1426.0000000000002" xmlns="http://www.w3.org/2000/svg">
 <!-- Created with Image Occlusion Enhanced -->
 <g>
  <title>Labels</title>
 </g>
 <g>
  <title>Masks</title>
  <rect fill="#FFEBA2" height="28.57143" id="260deb569d7e4099ba3669fccfae4203-ao-1" stroke="#2D2D2D" width="160.00001" x="519.71425" y="54.85718"/>
  <rect fill="#FFEBA2" height="28.57143" id="260deb569d7e4099ba3669fccfae4203-ao-2" stroke="#2D2D2D" width="302.85716" x="322.57138" y="92.00004"/>
  <rect fill="#FFEBA2" height="31.42857" id="260deb569d7e4099ba3669fccfae4203-ao-3" stroke="#2D2D2D" width="248.57144" x="333.99996" y="132.00004"/>
  <rect fill="#FFEBA2" height="51.42857" id="260deb569d7e4099ba3669fccfae4203-ao-4" stroke="#2D2D2D" width="382.85716" x="171.14281" y="163.42861"/>
  <rect fill="#FFEBA2" height="51.42857" id="260deb569d7e4099ba3669fccfae4203-ao-5" stroke="#2D2D2D" width="362.85716" x="188.28566" y="223.42862"/>
  <rect fill="#FFEBA2" height="25.71429" id="260deb569d7e4099ba3669fccfae4203-ao-6" stroke="#2D2D2D" width="348.57144" x="202.57138" y="280.57148"/>
  <rect fill="#FFEBA2" height="25.71429" id="260deb569d7e4099ba3669fccfae4203-ao-7" stroke="#2D2D2D" width="154.28572" x="396.8571" y="317.71434"/>
  <rect fill="#FFEBA2" height="48.57143" id="260deb569d7e4099ba3669fccfae4203-ao-8" stroke="#2D2D2D" width="365.7143" x="179.71424" y="352.00005"/>
  <rect fill="#FFEBA2" height="22.85714" id="260deb569d7e4099ba3669fccfae4203-ao-9" stroke="#2D2D2D" width="294.28573" x="256.8571" y="412.00005"/>
  <rect fill="#FFEBA2" height="45.71429" id="260deb569d7e4099ba3669fccfae4203-ao-10" stroke="#2D2D2D" width="334.28573" x="219.71424" y="446.28577"/>
  <rect fill="#FFEBA2" height="45.71429" id="260deb569d7e4099ba3669fccfae4203-ao-11" stroke="#2D2D2D" width="242.85715" x="305.42853" y="503.42863"/>
  <rect fill="#FFEBA2" height="48.57143" id="260deb569d7e4099ba3669fccfae4203-ao-12" stroke="#2D2D2D" width="331.42859" x="219.71424" y="560.57149"/>
  <rect fill="#FFEBA2" height="28.57143" id="260deb569d7e4099ba3669fccfae4203-ao-13" stroke="#2D2D2D" width="400.00002" x="156.85709" y="620.57149"/>
  <rect class="qshape" fill="#FF7E7E" height="28.57143" id="260deb569d7e4099ba3669fccfae4203-ao-14" stroke="#2D2D2D" width="331.42859" x="222.57138" y="652.00006"/>
  <rect fill="#FFEBA2" height="25.71429" id="260deb569d7e4099ba3669fccfae4203-ao-15" stroke="#2D2D2D" width="68.57143" x="485.42853" y="692.00007"/>
 </g>
</svg>