<svg height="994" width="1258" xmlns="http://www.w3.org/2000/svg">
 <!-- Created with Image Occlusion Enhanced -->
 <g>
  <title>Labels</title>
 </g>
 <g>
  <title>Masks</title>
  <rect fill="#FFEBA2" height="30" id="2800decea61048bc9640a1224d93b006-ao-1" stroke="#2D2D2D" width="72.5" x="28.24996" y="148.49998"/>
  <rect fill="#FFEBA2" height="27.5" id="2800decea61048bc9640a1224d93b006-ao-2" stroke="#2D2D2D" width="60" x="40.74996" y="328.49998"/>
  <rect fill="#FFEBA2" height="27.5" id="2800decea61048bc9640a1224d93b006-ao-3" stroke="#2D2D2D" width="55" x="45.74996" y="573.49998"/>
  <rect fill="#FFEBA2" height="25" id="2800decea61048bc9640a1224d93b006-ao-4" stroke="#2D2D2D" width="72.5" x="890.74995" y="30.99998"/>
  <rect fill="#FFEBA2" height="25" id="2800decea61048bc9640a1224d93b006-ao-5" stroke="#2D2D2D" width="272.5" x="888.24995" y="90.99998"/>
  <rect fill="#FFEBA2" height="22.5" id="2800decea61048bc9640a1224d93b006-ao-6" stroke="#2D2D2D" width="192.5" x="893.24995" y="155.99998"/>
  <rect fill="#FFEBA2" height="27.5" id="2800decea61048bc9640a1224d93b006-ao-7" stroke="#2D2D2D" width="170" x="893.24995" y="190.99998"/>
  
  <rect fill="#FFEBA2" height="42.5" id="2800decea61048bc9640a1224d93b006-ao-9" stroke="#2D2D2D" width="285" x="893.24995" y="268.49998"/>
  <rect fill="#FFEBA2" height="30" id="2800decea61048bc9640a1224d93b006-ao-10" stroke="#2D2D2D" width="290" x="890.74995" y="319.74998"/>
  <rect fill="#FFEBA2" height="25" id="2800decea61048bc9640a1224d93b006-ao-11" stroke="#2D2D2D" width="152.5" x="890.74995" y="367.24998"/>
  <rect fill="#FFEBA2" height="52.5" id="2800decea61048bc9640a1224d93b006-ao-12" stroke="#2D2D2D" width="352.49999" x="890.74995" y="399.74998"/>
  <rect fill="#FFEBA2" height="30" id="2800decea61048bc9640a1224d93b006-ao-13" stroke="#2D2D2D" width="135" x="893.24995" y="462.24998"/>
  <rect fill="#FFEBA2" height="25" id="2800decea61048bc9640a1224d93b006-ao-14" stroke="#2D2D2D" width="175" x="890.74995" y="522.24998"/>
  <rect fill="#FFEBA2" height="27.5" id="2800decea61048bc9640a1224d93b006-ao-15" stroke="#2D2D2D" width="85" x="893.24995" y="557.24998"/>
  <rect fill="#FFEBA2" height="45" id="2800decea61048bc9640a1224d93b006-ao-16" stroke="#2D2D2D" width="295" x="893.24995" y="599.74998"/>
  <rect fill="#FFEBA2" height="27.5" id="2800decea61048bc9640a1224d93b006-ao-17" stroke="#2D2D2D" width="60" x="890.74995" y="657.24997"/>
  <rect fill="#FFEBA2" height="22.5" id="2800decea61048bc9640a1224d93b006-ao-18" stroke="#2D2D2D" width="157.5" x="893.24995" y="699.74997"/>
 </g>
</svg>