<svg height="1574.0000000000002" width="1525" xmlns="http://www.w3.org/2000/svg">
 <!-- Created with Image Occlusion Enhanced -->
 <g>
  <title>Labels</title>
 </g>
 <g>
  <title>Masks</title>
  <rect fill="#FFEBA2" height="28.57143" id="2a803a0e1a47465da94ddb727e238202-ao-1" stroke="#2D2D2D" width="265.71429" x="527.85714" y="23.14275"/>
  <rect fill="#FFEBA2" height="25.71429" id="2a803a0e1a47465da94ddb727e238202-ao-2" stroke="#2D2D2D" width="148.57143" x="333.57143" y="65.9999"/>
  <rect fill="#FFEBA2" height="22.85714" id="2a803a0e1a47465da94ddb727e238202-ao-3" stroke="#2D2D2D" width="140" x="562.14286" y="65.9999"/>
  
  <rect fill="#FFEBA2" height="45.71429" id="2a803a0e1a47465da94ddb727e238202-ao-5" stroke="#2D2D2D" width="208.57143" x="233.57143" y="317.42847"/>
  <rect fill="#FFEBA2" height="45.71429" id="2a803a0e1a47465da94ddb727e238202-ao-6" stroke="#2D2D2D" width="200" x="505" y="311.71418"/>
  <rect fill="#FFEBA2" height="31.42857" id="2a803a0e1a47465da94ddb727e238202-ao-7" stroke="#2D2D2D" width="260" x="985" y="325.9999"/>
  <rect fill="#FFEBA2" height="28.57143" id="2a803a0e1a47465da94ddb727e238202-ao-8" stroke="#2D2D2D" width="257.14286" x="1019.28571" y="400.28561"/>
  <rect fill="#FFEBA2" height="28.57143" id="2a803a0e1a47465da94ddb727e238202-ao-9" stroke="#2D2D2D" width="288.57143" x="1045" y="474.57132"/>
  <rect fill="#FFEBA2" height="22.85714" id="2a803a0e1a47465da94ddb727e238202-ao-10" stroke="#2D2D2D" width="142.85714" x="353.57143" y="528.85704"/>
  <rect fill="#FFEBA2" height="25.71429" id="2a803a0e1a47465da94ddb727e238202-ao-11" stroke="#2D2D2D" width="148.57143" x="390.71429" y="571.71418"/>
  <rect fill="#FFEBA2" height="45.71429" id="2a803a0e1a47465da94ddb727e238202-ao-12" stroke="#2D2D2D" width="142.85714" x="159.28571" y="625.9999"/>
  <rect fill="#FFEBA2" height="45.71429" id="2a803a0e1a47465da94ddb727e238202-ao-13" stroke="#2D2D2D" width="214.28571" x="416.42857" y="625.9999"/>
  <rect fill="#FFEBA2" height="28.57143" id="2a803a0e1a47465da94ddb727e238202-ao-14" stroke="#2D2D2D" width="154.28571" x="1130.71429" y="591.71418"/>
  <rect fill="#FFEBA2" height="28.57143" id="2a803a0e1a47465da94ddb727e238202-ao-15" stroke="#2D2D2D" width="134.28571" x="442.14286" y="694.57132"/>
  <rect fill="#FFEBA2" height="31.42857" id="2a803a0e1a47465da94ddb727e238202-ao-16" stroke="#2D2D2D" width="245.71429" x="1099.28571" y="620.28561"/>
  <rect fill="#FFEBA2" height="25.71429" id="2a803a0e1a47465da94ddb727e238202-ao-17" stroke="#2D2D2D" width="205.71429" x="493.57143" y="740.28561"/>
  <rect fill="#FFEBA2" height="28.57143" id="2a803a0e1a47465da94ddb727e238202-ao-18" stroke="#2D2D2D" width="160" x="1127.85714" y="651.71418"/>
  <rect fill="#FFEBA2" height="25.71429" id="2a803a0e1a47465da94ddb727e238202-ao-19" stroke="#2D2D2D" width="342.85714" x="516.42857" y="783.14275"/>
  <rect fill="#FFEBA2" height="28.57143" id="2a803a0e1a47465da94ddb727e238202-ao-20" stroke="#2D2D2D" width="325.71429" x="536.42857" y="828.85704"/>
  <rect fill="#FFEBA2" height="28.57143" id="2a803a0e1a47465da94ddb727e238202-ao-21" stroke="#2D2D2D" width="237.14286" x="1145" y="831.71418"/>
  <rect fill="#FFEBA2" height="28.57143" id="2a803a0e1a47465da94ddb727e238202-ao-22" stroke="#2D2D2D" width="217.14286" x="1136.42857" y="905.9999"/>
  <rect fill="#FFEBA2" height="31.42857" id="2a803a0e1a47465da94ddb727e238202-ao-23" stroke="#2D2D2D" width="205.71429" x="1087.85714" y="974.57132"/>
  <rect fill="#FFEBA2" height="31.42857" id="2a803a0e1a47465da94ddb727e238202-ao-24" stroke="#2D2D2D" width="191.42857" x="1045" y="1051.71418"/>
  <rect fill="#FFEBA2" height="25.71429" id="2a803a0e1a47465da94ddb727e238202-ao-25" stroke="#2D2D2D" width="82.85714" x="1002.14286" y="1131.71418"/>
  <rect fill="#FFEBA2" height="28.57143" id="2a803a0e1a47465da94ddb727e238202-ao-26" stroke="#2D2D2D" width="160" x="170.71429" y="1171.71418"/>
  <rect fill="#FFEBA2" height="25.71429" id="2a803a0e1a47465da94ddb727e238202-ao-27" stroke="#2D2D2D" width="162.85714" x="653.57143" y="1200.28561"/>
  <rect fill="#FFEBA2" height="25.71429" id="2a803a0e1a47465da94ddb727e238202-ao-28" stroke="#2D2D2D" width="200" x="930.71429" y="1203.14275"/>
  <rect fill="#FFEBA2" height="25.71429" id="2a803a0e1a47465da94ddb727e238202-ao-29" stroke="#2D2D2D" width="137.14286" x="250.71429" y="1243.14275"/>
  <rect fill="#FFEBA2" height="25.71429" id="2a803a0e1a47465da94ddb727e238202-ao-30" stroke="#2D2D2D" width="234.28571" x="590.71429" y="1257.42847"/>
  <rect fill="#FFEBA2" height="22.85714" id="2a803a0e1a47465da94ddb727e238202-ao-31" stroke="#2D2D2D" width="137.14286" x="273.57143" y="1274.57132"/>
  <rect fill="#FFEBA2" height="31.42857" id="2a803a0e1a47465da94ddb727e238202-ao-32" stroke="#2D2D2D" width="208.57143" x="553.57143" y="1311.71418"/>
  <rect fill="#FFEBA2" height="25.71429" id="2a803a0e1a47465da94ddb727e238202-ao-33" stroke="#2D2D2D" width="274.28571" x="207.85714" y="1303.14275"/>
  <rect fill="#FFEBA2" height="28.57143" id="2a803a0e1a47465da94ddb727e238202-ao-34" stroke="#2D2D2D" width="285.71429" x="507.85714" y="1377.42847"/>
 </g>
</svg>