<svg height="686" width="1535.9999999999998" xmlns="http://www.w3.org/2000/svg">
 <!-- Created with Image Occlusion Enhanced -->
 <g>
  <title>Labels</title>
 </g>
 <g>
  <title>Masks</title>
  <rect fill="#FFEBA2" height="31.42857" id="2b42e18089024a4cb0178ed3a3fe0803-ao-1" stroke="#2D2D2D" width="322.85716" x="204.00008" y="175.42854"/>
  <rect fill="#FFEBA2" height="28.57143" id="2b42e18089024a4cb0178ed3a3fe0803-ao-2" stroke="#2D2D2D" width="185.71429" x="346.85723" y="226.85711"/>
  <rect fill="#FFEBA2" height="31.42857" id="2b42e18089024a4cb0178ed3a3fe0803-ao-3" stroke="#2D2D2D" width="131.42858" x="401.14295" y="272.5714"/>
  <rect fill="#FFEBA2" height="34.28572" id="2b42e18089024a4cb0178ed3a3fe0803-ao-4" stroke="#2D2D2D" width="465.71431" x="198.28579" y="332.5714"/>
  <rect fill="#FFEBA2" height="25.71429" id="2b42e18089024a4cb0178ed3a3fe0803-ao-5" stroke="#2D2D2D" width="205.7143" x="866.85725" y="83.99996"/>
  
  <rect fill="#FFEBA2" height="28.57143" id="2b42e18089024a4cb0178ed3a3fe0803-ao-7" stroke="#2D2D2D" width="168.57144" x="1024.00012" y="172.57139"/>
  <rect fill="#FFEBA2" height="28.57143" id="2b42e18089024a4cb0178ed3a3fe0803-ao-8" stroke="#2D2D2D" width="71.42857" x="1024.00012" y="209.71425"/>
  <rect fill="#FFEBA2" height="31.42857" id="2b42e18089024a4cb0178ed3a3fe0803-ao-12" stroke="#2D2D2D" width="148.57144" x="912.57154" y="389.71426"/>
  <rect fill="#FFEBA2" height="34.28572" id="2b42e18089024a4cb0178ed3a3fe0803-ao-13" stroke="#2D2D2D" width="200.00001" x="338.2858" y="461.14284"/>
  <rect fill="#FFEBA2" height="28.57143" id="2b42e18089024a4cb0178ed3a3fe0803-ao-14" stroke="#2D2D2D" width="391.42859" x="935.42868" y="475.42855"/>
  <rect fill="#FFEBA2" height="28.57143" id="2b42e18089024a4cb0178ed3a3fe0803-ao-15" stroke="#2D2D2D" width="331.42859" x="215.42865" y="543.99998"/>
  <rect fill="#FFEBA2" height="28.57143" id="2b42e18089024a4cb0178ed3a3fe0803-ao-16" stroke="#2D2D2D" width="266.19047" x="943.52394" y="566.85713"/>
  <rect fill="#FFEBA2" height="34.28572" id="2b42e18089024a4cb0178ed3a3fe0803-ao-17" stroke="#2D2D2D" width="225.7143" x="952.57154" y="606.85713"/>
  <g id="2b42e18089024a4cb0178ed3a3fe0803-ao-9">
   <rect fill="#FFEBA2" height="34.28572" stroke="#2D2D2D" width="180.4762" x="1126.38108" y="263.99997"/>
   <rect fill="#FFEBA2" height="31.42857" stroke="#2D2D2D" width="166.19049" x="941.14297" y="249.71426"/>
   <rect fill="#FFEBA2" height="22.85714" stroke="#2D2D2D" width="162.85715" x="938.28583" y="286.85711"/>
  </g>
 </g>
</svg>