<svg height="903.9999999999999" width="1196" xmlns="http://www.w3.org/2000/svg">
 <!-- Created with Image Occlusion Enhanced -->
 <g>
  <title>Labels</title>
 </g>
 <g>
  <title>Masks</title>
  <rect fill="#FFEBA2" height="30" id="2ffdcf22e69b40da984f39205e56c6a3-ao-1" stroke="#2D2D2D" width="297.5" x="759.00002" y="30.99997"/>
  <rect fill="#FFEBA2" height="25" id="2ffdcf22e69b40da984f39205e56c6a3-ao-2" stroke="#2D2D2D" width="310" x="771.50003" y="80.99997"/>
  <rect fill="#FFEBA2" height="25" id="2ffdcf22e69b40da984f39205e56c6a3-ao-3" stroke="#2D2D2D" width="245" x="786.50003" y="123.49997"/>
  <rect fill="#FFEBA2" height="25" id="2ffdcf22e69b40da984f39205e56c6a3-ao-4" stroke="#2D2D2D" width="175" x="789.00003" y="168.49997"/>
  <rect fill="#FFEBA2" height="25" id="2ffdcf22e69b40da984f39205e56c6a3-ao-5" stroke="#2D2D2D" width="145" x="806.50003" y="215.99997"/>
  <rect fill="#FFEBA2" height="27.5" id="2ffdcf22e69b40da984f39205e56c6a3-ao-6" stroke="#2D2D2D" width="140" x="826.50003" y="258.49997"/>
  <rect fill="#FFEBA2" height="27.5" id="2ffdcf22e69b40da984f39205e56c6a3-ao-7" stroke="#2D2D2D" width="195" x="839.00003" y="303.49998"/>
  <rect fill="#FFEBA2" height="22.5" id="2ffdcf22e69b40da984f39205e56c6a3-ao-8" stroke="#2D2D2D" width="82.5" x="851.50003" y="348.49998"/>
  <rect fill="#FFEBA2" height="20" id="2ffdcf22e69b40da984f39205e56c6a3-ao-9" stroke="#2D2D2D" width="142.5" x="874.00003" y="395.99998"/>
  <rect fill="#FFEBA2" height="25" id="2ffdcf22e69b40da984f39205e56c6a3-ao-10" stroke="#2D2D2D" width="140" x="884.00003" y="440.99998"/>
  <rect fill="#FFEBA2" height="27.5" id="2ffdcf22e69b40da984f39205e56c6a3-ao-11" stroke="#2D2D2D" width="235" x="884.00003" y="488.49998"/>
  <rect fill="#FFEBA2" height="25" id="2ffdcf22e69b40da984f39205e56c6a3-ao-12" stroke="#2D2D2D" width="142.5" x="879.00003" y="533.49998"/>
  <rect fill="#FFEBA2" height="22.5" id="2ffdcf22e69b40da984f39205e56c6a3-ao-13" stroke="#2D2D2D" width="210" x="871.50003" y="580.99998"/>
  <rect fill="#FFEBA2" height="22.5" id="2ffdcf22e69b40da984f39205e56c6a3-ao-14" stroke="#2D2D2D" width="327.5" x="854.00003" y="625.99998"/>
  
  <rect fill="#FFEBA2" height="20" id="2ffdcf22e69b40da984f39205e56c6a3-ao-16" stroke="#2D2D2D" width="110" x="841.50003" y="715.99998"/>
  <rect fill="#FFEBA2" height="45" id="2ffdcf22e69b40da984f39205e56c6a3-ao-17" stroke="#2D2D2D" width="250" x="824.00003" y="760.99998"/>
 </g>
</svg>