<svg height="758.0000000000001" width="1231" xmlns="http://www.w3.org/2000/svg">
 <!-- Created with Image Occlusion Enhanced -->
 <g>
  <title>Labels</title>
 </g>
 <g>
  <title>Masks</title>
  <rect fill="#FFEBA2" height="25.71429" id="3031c13e9de741898972ff023efb524f-ao-1" stroke="#2D2D2D" width="171.42858" x="520.42854" y="29.14289"/>
  <rect fill="#FFEBA2" height="25.71429" id="3031c13e9de741898972ff023efb524f-ao-2" stroke="#2D2D2D" width="145.71429" x="888.99999" y="246.28576"/>
  <rect fill="#FFEBA2" height="28.57143" id="3031c13e9de741898972ff023efb524f-ao-3" stroke="#2D2D2D" width="205.7143" x="134.71424" y="263.42862"/>
  <rect fill="#FFEBA2" height="28.57143" id="3031c13e9de741898972ff023efb524f-ao-4" stroke="#2D2D2D" width="137.14286" x="894.71427" y="297.71433"/>
  <rect fill="#FFEBA2" height="28.57143" id="3031c13e9de741898972ff023efb524f-ao-5" stroke="#2D2D2D" width="220.00001" x="157.57138" y="309.14291"/>
  <rect fill="#FFEBA2" height="25.71429" id="3031c13e9de741898972ff023efb524f-ao-6" stroke="#2D2D2D" width="162.85715" x="891.85713" y="352.00005"/>
  <rect fill="#FFEBA2" height="28.57143" id="3031c13e9de741898972ff023efb524f-ao-7" stroke="#2D2D2D" width="157.14286" x="237.57139" y="363.42862"/>
  <rect fill="#FFEBA2" height="28.57143" id="3031c13e9de741898972ff023efb524f-ao-8" stroke="#2D2D2D" width="325.7143" x="891.85713" y="394.8572"/>
  <rect fill="#FFEBA2" height="31.42857" id="3031c13e9de741898972ff023efb524f-ao-9" stroke="#2D2D2D" width="160.00001" x="263.28567" y="414.8572"/>
  <rect fill="#FFEBA2" height="31.42857" id="3031c13e9de741898972ff023efb524f-ao-10" stroke="#2D2D2D" width="140.00001" x="891.85713" y="437.71434"/>
  <rect fill="#FFEBA2" height="31.42857" id="3031c13e9de741898972ff023efb524f-ao-11" stroke="#2D2D2D" width="148.57144" x="280.42853" y="466.28577"/>
  <rect fill="#FFEBA2" height="28.57143" id="3031c13e9de741898972ff023efb524f-ao-12" stroke="#2D2D2D" width="108.57143" x="891.85713" y="500.57149"/>
  <rect fill="#FFEBA2" height="31.42857" id="3031c13e9de741898972ff023efb524f-ao-13" stroke="#2D2D2D" width="148.57144" x="294.71424" y="514.8572"/>
  <rect fill="#FFEBA2" height="60" id="3031c13e9de741898972ff023efb524f-ao-14" stroke="#2D2D2D" width="280.00001" x="894.71427" y="540.57149"/>
  <rect fill="#FFEBA2" height="31.42857" id="3031c13e9de741898972ff023efb524f-ao-15" stroke="#2D2D2D" width="228.57144" x="228.99996" y="560.57149"/>
  
  <rect fill="#FFEBA2" height="28.57143" id="3031c13e9de741898972ff023efb524f-ao-17" stroke="#2D2D2D" width="74.28572" x="403.28568" y="620.57149"/>
  <rect fill="#FFEBA2" height="31.42857" id="3031c13e9de741898972ff023efb524f-ao-18" stroke="#2D2D2D" width="62.85715" x="894.71427" y="663.42864"/>
  <rect fill="#FFEBA2" height="25.71429" id="3031c13e9de741898972ff023efb524f-ao-19" stroke="#2D2D2D" width="65.71429" x="426.14282" y="666.28578"/>
 </g>
</svg>