<svg height="1694" width="1535.9999999999998" xmlns="http://www.w3.org/2000/svg">
 <!-- Created with Image Occlusion Enhanced -->
 <g>
  <title>Labels</title>
 </g>
 <g>
  <title>Masks</title>
  <rect fill="#FFEBA2" height="34.28572" id="337503f7aa674bdab7f0399d89f54788-ao-1" stroke="#2D2D2D" width="174.28572" x="138.28579" y="95.99986"/>
  <rect fill="#FFEBA2" height="28.57143" id="337503f7aa674bdab7f0399d89f54788-ao-2" stroke="#2D2D2D" width="148.57144" x="141.14293" y="170.28558"/>
  <rect fill="#FFEBA2" height="25.71429" id="337503f7aa674bdab7f0399d89f54788-ao-3" stroke="#2D2D2D" width="131.42858" x="138.28579" y="238.85701"/>
  <rect fill="#FFEBA2" height="40" id="337503f7aa674bdab7f0399d89f54788-ao-4" stroke="#2D2D2D" width="131.42858" x="141.14293" y="335.99987"/>
  <rect fill="#FFEBA2" height="45.71429" id="337503f7aa674bdab7f0399d89f54788-ao-5" stroke="#2D2D2D" width="134.28572" x="138.28579" y="424.5713"/>
  <rect fill="#FFEBA2" height="25.71429" id="337503f7aa674bdab7f0399d89f54788-ao-6" stroke="#2D2D2D" width="151.42858" x="138.28579" y="535.99988"/>
  <rect fill="#FFEBA2" height="28.57143" id="337503f7aa674bdab7f0399d89f54788-ao-7" stroke="#2D2D2D" width="154.28572" x="141.14293" y="587.42846"/>
  <rect fill="#FFEBA2" height="45.71429" id="337503f7aa674bdab7f0399d89f54788-ao-8" stroke="#2D2D2D" width="154.28572" x="138.28579" y="721.71418"/>
  <rect class="qshape" fill="#FF7E7E" height="45.71429" id="337503f7aa674bdab7f0399d89f54788-ao-9" stroke="#2D2D2D" width="142.85715" x="138.28579" y="793.14275"/>
  <rect fill="#FFEBA2" height="45.71429" id="337503f7aa674bdab7f0399d89f54788-ao-10" stroke="#2D2D2D" width="140.00001" x="141.14293" y="927.42847"/>
  <rect fill="#FFEBA2" height="28.57143" id="337503f7aa674bdab7f0399d89f54788-ao-11" stroke="#2D2D2D" width="165.71429" x="138.28579" y="1101.71419"/>
  <rect fill="#FFEBA2" height="25.71429" id="337503f7aa674bdab7f0399d89f54788-ao-12" stroke="#2D2D2D" width="168.57144" x="138.28579" y="1173.14277"/>
  <rect fill="#FFEBA2" height="25.71429" id="337503f7aa674bdab7f0399d89f54788-ao-13" stroke="#2D2D2D" width="108.57143" x="138.28579" y="1264.57134"/>
  <rect fill="#FFEBA2" height="25.71429" id="337503f7aa674bdab7f0399d89f54788-ao-14" stroke="#2D2D2D" width="137.14286" x="138.28579" y="1338.85706"/>
  <rect fill="#FFEBA2" height="25.71429" id="337503f7aa674bdab7f0399d89f54788-ao-15" stroke="#2D2D2D" width="145.71429" x="138.28579" y="1487.4285"/>
  <rect fill="#FFEBA2" height="42.85714" id="337503f7aa674bdab7f0399d89f54788-ao-16" stroke="#2D2D2D" width="160.00001" x="138.28579" y="1578.85707"/>
 </g>
</svg>