<svg height="1493" width="1535.9999999999998" xmlns="http://www.w3.org/2000/svg">
 <!-- Created with Image Occlusion Enhanced -->
 <g>
  <title>Labels</title>
 </g>
 <g>
  <title>Masks</title>
  <rect fill="#FFEBA2" height="25.71429" id="3562c0c02d9b4beb9954f0c3649e48b6-ao-1" stroke="#2D2D2D" width="214.28572" x="246.85722" y="58.42859"/>
  <rect fill="#FFEBA2" height="25.71429" id="3562c0c02d9b4beb9954f0c3649e48b6-ao-2" stroke="#2D2D2D" width="251.42858" x="189.71436" y="109.85717"/>
  <rect fill="#FFEBA2" height="25.71429" id="3562c0c02d9b4beb9954f0c3649e48b6-ao-3" stroke="#2D2D2D" width="260.00001" x="181.14294" y="169.85717"/>
  <rect fill="#FFEBA2" height="31.42857" id="3562c0c02d9b4beb9954f0c3649e48b6-ao-4" stroke="#2D2D2D" width="217.14287" x="189.71436" y="224.14289"/>
  <rect fill="#FFEBA2" height="25.71429" id="3562c0c02d9b4beb9954f0c3649e48b6-ao-5" stroke="#2D2D2D" width="171.42858" x="226.85722" y="364.14289"/>
  <rect fill="#FFEBA2" height="25.71429" id="3562c0c02d9b4beb9954f0c3649e48b6-ao-6" stroke="#2D2D2D" width="225.7143" x="161.14293" y="424.14289"/>
  <rect fill="#FFEBA2" height="31.42857" id="3562c0c02d9b4beb9954f0c3649e48b6-ao-7" stroke="#2D2D2D" width="242.85715" x="149.71436" y="592.71433"/>
  <rect fill="#FFEBA2" height="51.42857" id="3562c0c02d9b4beb9954f0c3649e48b6-ao-8" stroke="#2D2D2D" width="202.85715" x="1169.71441" y="607.00005"/>
  <rect fill="#FFEBA2" height="28.57143" id="3562c0c02d9b4beb9954f0c3649e48b6-ao-9" stroke="#2D2D2D" width="154.28572" x="1146.85726" y="667.00005"/>
  <rect fill="#FFEBA2" height="25.71429" id="3562c0c02d9b4beb9954f0c3649e48b6-ao-10" stroke="#2D2D2D" width="365.7143" x="1012.57154" y="701.28576"/>
  <rect fill="#FFEBA2" height="28.57143" id="3562c0c02d9b4beb9954f0c3649e48b6-ao-11" stroke="#2D2D2D" width="191.42858" x="1012.57154" y="735.57148"/>
  <rect fill="#FFEBA2" height="28.57143" id="3562c0c02d9b4beb9954f0c3649e48b6-ao-12" stroke="#2D2D2D" width="191.42858" x="1012.57154" y="772.71434"/>
  <rect fill="#FFEBA2" height="28.57143" id="3562c0c02d9b4beb9954f0c3649e48b6-ao-13" stroke="#2D2D2D" width="234.28572" x="1012.57154" y="809.8572"/>
  <rect fill="#FFEBA2" height="45.71429" id="3562c0c02d9b4beb9954f0c3649e48b6-ao-14" stroke="#2D2D2D" width="125.71429" x="206.85722" y="755.57148"/>
  <rect fill="#FFEBA2" height="28.57143" id="3562c0c02d9b4beb9954f0c3649e48b6-ao-15" stroke="#2D2D2D" width="362.85716" x="1012.57154" y="847.00006"/>
  <rect fill="#FFEBA2" height="28.57143" id="3562c0c02d9b4beb9954f0c3649e48b6-ao-16" stroke="#2D2D2D" width="188.57144" x="1015.42869" y="887.00006"/>
  <rect fill="#FFEBA2" height="25.71429" id="3562c0c02d9b4beb9954f0c3649e48b6-ao-17" stroke="#2D2D2D" width="262.85715" x="1015.42869" y="924.14292"/>
  <rect fill="#FFEBA2" height="28.57143" id="3562c0c02d9b4beb9954f0c3649e48b6-ao-18" stroke="#2D2D2D" width="302.85716" x="229.71437" y="947.00006"/>
  <rect fill="#FFEBA2" height="28.57143" id="3562c0c02d9b4beb9954f0c3649e48b6-ao-19" stroke="#2D2D2D" width="317.14287" x="1012.57154" y="961.28578"/>
  <rect fill="#FFEBA2" height="28.57143" id="3562c0c02d9b4beb9954f0c3649e48b6-ao-20" stroke="#2D2D2D" width="182.85715" x="398.2858" y="1004.14292"/>
  <rect fill="#FFEBA2" height="28.57143" id="3562c0c02d9b4beb9954f0c3649e48b6-ao-21" stroke="#2D2D2D" width="228.57144" x="1015.42869" y="995.57149"/>
  <rect fill="#FFEBA2" height="28.57143" id="3562c0c02d9b4beb9954f0c3649e48b6-ao-22" stroke="#2D2D2D" width="111.42858" x="475.42866" y="1038.42864"/>
  <rect fill="#FFEBA2" height="25.71429" id="3562c0c02d9b4beb9954f0c3649e48b6-ao-23" stroke="#2D2D2D" width="374.28573" x="1012.57154" y="1032.71435"/>
  <rect fill="#FFEBA2" height="25.71429" id="3562c0c02d9b4beb9954f0c3649e48b6-ao-24" stroke="#2D2D2D" width="220.00001" x="392.57152" y="1081.28578"/>
  <rect fill="#FFEBA2" height="28.57143" id="3562c0c02d9b4beb9954f0c3649e48b6-ao-25" stroke="#2D2D2D" width="148.57144" x="1012.57154" y="1069.85721"/>
  <rect fill="#FFEBA2" height="28.57143" id="3562c0c02d9b4beb9954f0c3649e48b6-ao-26" stroke="#2D2D2D" width="160.00001" x="458.2858" y="1129.85721"/>
  <rect fill="#FFEBA2" height="28.57143" id="3562c0c02d9b4beb9954f0c3649e48b6-ao-27" stroke="#2D2D2D" width="280.00001" x="369.71437" y="1167.00007"/>
  <rect fill="#FFEBA2" height="77.14286" id="3562c0c02d9b4beb9954f0c3649e48b6-ao-28" stroke="#2D2D2D" width="228.57144" x="1009.7144" y="1141.28578"/>
  <rect class="qshape" fill="#FF7E7E" height="25.71429" id="3562c0c02d9b4beb9954f0c3649e48b6-ao-29" stroke="#2D2D2D" width="194.28572" x="466.85723" y="1215.5715"/>
  <rect fill="#FFEBA2" height="25.71429" id="3562c0c02d9b4beb9954f0c3649e48b6-ao-30" stroke="#2D2D2D" width="160.00001" x="512.57152" y="1258.42865"/>
  <rect fill="#FFEBA2" height="25.71429" id="3562c0c02d9b4beb9954f0c3649e48b6-ao-31" stroke="#2D2D2D" width="111.42858" x="1029.7144" y="1252.71436"/>
  <rect fill="#FFEBA2" height="28.57143" id="3562c0c02d9b4beb9954f0c3649e48b6-ao-32" stroke="#2D2D2D" width="80" x="612.57153" y="1298.42865"/>
  <rect fill="#FFEBA2" height="25.71429" id="3562c0c02d9b4beb9954f0c3649e48b6-ao-33" stroke="#2D2D2D" width="254.28573" x="1035.42869" y="1307.00008"/>
 </g>
</svg>