<svg height="498" width="1206" xmlns="http://www.w3.org/2000/svg">
 <!-- Created with Image Occlusion Enhanced -->
 <g>
  <title>Labels</title>
 </g>
 <g>
  <title>Masks</title>
  <rect fill="#FFEBA2" height="27.5" id="35798ece54064646b60eb205cb0627ab-ao-1" stroke="#2D2D2D" width="122.5" x="254.00002" y="20.75001"/>
  <rect class="qshape" fill="#FF7E7E" height="47.5" id="35798ece54064646b60eb205cb0627ab-ao-2" stroke="#2D2D2D" width="287.5" x="44.00001" y="70.75001"/>
  <rect fill="#FFEBA2" height="27.5" id="35798ece54064646b60eb205cb0627ab-ao-3" stroke="#2D2D2D" width="285" x="894.00003" y="153.25001"/>
  <rect fill="#FFEBA2" height="25" id="35798ece54064646b60eb205cb0627ab-ao-4" stroke="#2D2D2D" width="140" x="149.00002" y="140.75001"/>
  <rect fill="#FFEBA2" height="27.5" id="35798ece54064646b60eb205cb0627ab-ao-5" stroke="#2D2D2D" width="302.5" x="891.50003" y="193.25001"/>
  <rect fill="#FFEBA2" height="27.5" id="35798ece54064646b60eb205cb0627ab-ao-6" stroke="#2D2D2D" width="142.5" x="144.00002" y="188.25001"/>
  <rect fill="#FFEBA2" height="45" id="35798ece54064646b60eb205cb0627ab-ao-7" stroke="#2D2D2D" width="227.5" x="896.50003" y="235.75001"/>
  <rect fill="#FFEBA2" height="32.5" id="35798ece54064646b60eb205cb0627ab-ao-8" stroke="#2D2D2D" width="250" x="41.50001" y="255.75001"/>
  <rect fill="#FFEBA2" height="25" id="35798ece54064646b60eb205cb0627ab-ao-9" stroke="#2D2D2D" width="117.5" x="894.00003" y="293.25001"/>
  <rect fill="#FFEBA2" height="30" id="35798ece54064646b60eb205cb0627ab-ao-10" stroke="#2D2D2D" width="132.5" x="154.00002" y="303.25001"/>
  <rect fill="#FFEBA2" height="27.5" id="35798ece54064646b60eb205cb0627ab-ao-11" stroke="#2D2D2D" width="255" x="894.00003" y="333.25001"/>
  <rect fill="#FFEBA2" height="25" id="35798ece54064646b60eb205cb0627ab-ao-12" stroke="#2D2D2D" width="150" x="129.00002" y="350.75001"/>
  <rect fill="#FFEBA2" height="30" id="35798ece54064646b60eb205cb0627ab-ao-13" stroke="#2D2D2D" width="297.5" x="894.00003" y="370.75001"/>
  <rect fill="#FFEBA2" height="30" id="35798ece54064646b60eb205cb0627ab-ao-14" stroke="#2D2D2D" width="160" x="126.50002" y="395.75001"/>
  <rect fill="#FFEBA2" height="27.5" id="35798ece54064646b60eb205cb0627ab-ao-15" stroke="#2D2D2D" width="262.5" x="894.00003" y="413.25001"/>
 </g>
</svg>