<svg height="1675" width="1536.0000000000002" xmlns="http://www.w3.org/2000/svg">
 <!-- Created with Image Occlusion Enhanced -->
 <g>
  <title>Labels</title>
 </g>
 <g>
  <title>Masks</title>
  <rect fill="#FFEBA2" height="27.5" id="358907d6280a487db16967091c6dd9a3-ao-1" stroke="#2D2D2D" width="90" x="568.99991" y="68.75"/>
  <rect fill="#FFEBA2" height="22.5" id="358907d6280a487db16967091c6dd9a3-ao-2" stroke="#2D2D2D" width="67.5" x="891.49991" y="86.25"/>
  <rect fill="#FFEBA2" height="27.5" id="358907d6280a487db16967091c6dd9a3-ao-3" stroke="#2D2D2D" width="67.5" x="531.49991" y="113.75"/>
  <rect fill="#FFEBA2" height="30" id="358907d6280a487db16967091c6dd9a3-ao-4" stroke="#2D2D2D" width="60" x="938.99991" y="136.25"/>
  <rect fill="#FFEBA2" height="27.5" id="358907d6280a487db16967091c6dd9a3-ao-5" stroke="#2D2D2D" width="45" x="541.49991" y="166.25"/>
  <rect fill="#FFEBA2" height="27.5" id="358907d6280a487db16967091c6dd9a3-ao-6" stroke="#2D2D2D" width="152.5" x="951.49991" y="183.75"/>
  <rect fill="#FFEBA2" height="30" id="358907d6280a487db16967091c6dd9a3-ao-7" stroke="#2D2D2D" width="67.5" x="521.49991" y="211.25"/>
  <rect fill="#FFEBA2" height="27.5" id="358907d6280a487db16967091c6dd9a3-ao-8" stroke="#2D2D2D" width="135" x="993.99991" y="233.75"/>
  <rect fill="#FFEBA2" height="25" id="358907d6280a487db16967091c6dd9a3-ao-9" stroke="#2D2D2D" width="175" x="421.49991" y="263.75"/>
  <rect fill="#FFEBA2" height="22.5" id="358907d6280a487db16967091c6dd9a3-ao-10" stroke="#2D2D2D" width="122.5" x="1001.49991" y="286.25"/>
  <rect fill="#FFEBA2" height="25" id="358907d6280a487db16967091c6dd9a3-ao-11" stroke="#2D2D2D" width="65" x="431.49991" y="318.75"/>
  <rect fill="#FFEBA2" height="25" id="358907d6280a487db16967091c6dd9a3-ao-12" stroke="#2D2D2D" width="72.5" x="406.49991" y="373.75"/>
  <rect fill="#FFEBA2" height="32.5" id="358907d6280a487db16967091c6dd9a3-ao-13" stroke="#2D2D2D" width="70" x="1016.49991" y="366.25"/>
  <rect fill="#FFEBA2" height="30" id="358907d6280a487db16967091c6dd9a3-ao-14" stroke="#2D2D2D" width="95" x="381.49991" y="418.75"/>
  <rect fill="#FFEBA2" height="25" id="358907d6280a487db16967091c6dd9a3-ao-15" stroke="#2D2D2D" width="92.5" x="1026.49991" y="426.25"/>
  <rect fill="#FFEBA2" height="22.5" id="358907d6280a487db16967091c6dd9a3-ao-16" stroke="#2D2D2D" width="142.5" x="333.99991" y="468.75"/>
  <rect fill="#FFEBA2" height="30" id="358907d6280a487db16967091c6dd9a3-ao-17" stroke="#2D2D2D" width="155" x="1043.99991" y="466.25"/>
  <rect fill="#FFEBA2" height="25" id="358907d6280a487db16967091c6dd9a3-ao-18" stroke="#2D2D2D" width="122.5" x="333.99991" y="518.75"/>
  <rect fill="#FFEBA2" height="22.5" id="358907d6280a487db16967091c6dd9a3-ao-19" stroke="#2D2D2D" width="135" x="1053.99991" y="511.25"/>
  <rect fill="#FFEBA2" height="25" id="358907d6280a487db16967091c6dd9a3-ao-20" stroke="#2D2D2D" width="67.5" x="378.99991" y="563.75"/>
  <rect fill="#FFEBA2" height="25" id="358907d6280a487db16967091c6dd9a3-ao-21" stroke="#2D2D2D" width="130" x="1078.99991" y="556.25"/>
  <rect fill="#FFEBA2" height="25" id="358907d6280a487db16967091c6dd9a3-ao-22" stroke="#2D2D2D" width="132.5" x="1106.49991" y="611.25"/>
  <rect fill="#FFEBA2" height="30" id="358907d6280a487db16967091c6dd9a3-ao-23" stroke="#2D2D2D" width="82.5" x="913.99991" y="631.25"/>
  <rect fill="#FFEBA2" height="20" id="358907d6280a487db16967091c6dd9a3-ao-24" stroke="#2D2D2D" width="172.5" x="246.49991" y="668.75"/>
  <rect fill="#FFEBA2" height="22.5" id="358907d6280a487db16967091c6dd9a3-ao-25" stroke="#2D2D2D" width="80" x="528.99991" y="683.75"/>
  <rect fill="#FFEBA2" height="25" id="358907d6280a487db16967091c6dd9a3-ao-26" stroke="#2D2D2D" width="72.5" x="936.49991" y="698.75"/>
  <rect fill="#FFEBA2" height="25" id="358907d6280a487db16967091c6dd9a3-ao-27" stroke="#2D2D2D" width="72.5" x="978.99991" y="773.75"/>
  <rect fill="#FFEBA2" height="25" id="358907d6280a487db16967091c6dd9a3-ao-28" stroke="#2D2D2D" width="67.5" x="1213.99991" y="728.75"/>
  <rect fill="#FFEBA2" height="47.5" id="358907d6280a487db16967091c6dd9a3-ao-29" stroke="#2D2D2D" width="107.5" x="448.99991" y="888.75"/>
  <rect fill="#FFEBA2" height="22.5" id="358907d6280a487db16967091c6dd9a3-ao-30" stroke="#2D2D2D" width="40" x="981.49991" y="843.75"/>
  <rect fill="#FFEBA2" height="30" id="358907d6280a487db16967091c6dd9a3-ao-31" stroke="#2D2D2D" width="117.5" x="1006.49991" y="928.75"/>
  <rect fill="#FFEBA2" height="25" id="358907d6280a487db16967091c6dd9a3-ao-32" stroke="#2D2D2D" width="137.5" x="411.49991" y="1001.25"/>
  <rect fill="#FFEBA2" height="30" id="358907d6280a487db16967091c6dd9a3-ao-33" stroke="#2D2D2D" width="140" x="421.49991" y="1038.75"/>
  <rect fill="#FFEBA2" height="27.5" id="358907d6280a487db16967091c6dd9a3-ao-34" stroke="#2D2D2D" width="75" x="721.49991" y="1168.75"/>
  <rect fill="#FFEBA2" height="27.5" id="358907d6280a487db16967091c6dd9a3-ao-35" stroke="#2D2D2D" width="127.5" x="938.99991" y="1186.25"/>
  <rect fill="#FFEBA2" height="30" id="358907d6280a487db16967091c6dd9a3-ao-36" stroke="#2D2D2D" width="102.5" x="443.99991" y="1363.75"/>
  <rect fill="#FFEBA2" height="27.5" id="358907d6280a487db16967091c6dd9a3-ao-37" stroke="#2D2D2D" width="107.5" x="691.49991" y="1361.25"/>
  
  <rect fill="#FFEBA2" height="42.5" id="358907d6280a487db16967091c6dd9a3-ao-39" stroke="#2D2D2D" stroke-dasharray="null" stroke-linecap="null" stroke-linejoin="null" width="95" x="956.49991" y="1553.75"/>
 </g>
</svg>