<svg height="706" width="918" xmlns="http://www.w3.org/2000/svg">
 <!-- Created with Image Occlusion Enhanced -->
 <g>
  <title>Labels</title>
 </g>
 <g>
  <title>Masks</title>
  <rect fill="#FFEBA2" height="28" id="3640cd49d2f54696abfd33568592515f-ao-1" stroke="#2D2D2D" width="220" x="411" y="2"/>
  <rect fill="#FFEBA2" height="22" id="3640cd49d2f54696abfd33568592515f-ao-2" stroke="#2D2D2D" width="76" x="257" y="20"/>
  <rect fill="#FFEBA2" height="24" id="3640cd49d2f54696abfd33568592515f-ao-3" stroke="#2D2D2D" width="112" x="285" y="48"/>
  <rect fill="#FFEBA2" height="24" id="3640cd49d2f54696abfd33568592515f-ao-4" stroke="#2D2D2D" width="126" x="439" y="38"/>
  <rect fill="#FFEBA2" height="42" id="3640cd49d2f54696abfd33568592515f-ao-5" stroke="#2D2D2D" width="156" x="607" y="76"/>
  <rect fill="#FFEBA2" height="26" id="3640cd49d2f54696abfd33568592515f-ao-6" stroke="#2D2D2D" width="40" x="165" y="144"/>
  <rect fill="#FFEBA2" height="26" id="3640cd49d2f54696abfd33568592515f-ao-7" stroke="#2D2D2D" width="142" x="575" y="142"/>
  <rect fill="#FFEBA2" height="24" id="3640cd49d2f54696abfd33568592515f-ao-8" stroke="#2D2D2D" width="204" x="127" y="174"/>
  <rect fill="#FFEBA2" height="62" id="3640cd49d2f54696abfd33568592515f-ao-9" stroke="#2D2D2D" width="130" x="615" y="180"/>
  <rect fill="#FFEBA2" height="22" id="3640cd49d2f54696abfd33568592515f-ao-10" stroke="#2D2D2D" width="156" x="551" y="252"/>
  <rect fill="#FFEBA2" height="30" id="3640cd49d2f54696abfd33568592515f-ao-11" stroke="#2D2D2D" width="158" x="129" y="266"/>
  <rect fill="#FFEBA2" height="40" id="3640cd49d2f54696abfd33568592515f-ao-12" stroke="#2D2D2D" width="152" x="601" y="312"/>
  <rect fill="#FFEBA2" height="46" id="3640cd49d2f54696abfd33568592515f-ao-13" stroke="#2D2D2D" width="190" x="123" y="416"/>
  <rect fill="#FFEBA2" height="26" id="3640cd49d2f54696abfd33568592515f-ao-14" stroke="#2D2D2D" width="156" x="597" y="420"/>
  <rect fill="#FFEBA2" height="26" id="3640cd49d2f54696abfd33568592515f-ao-15" stroke="#2D2D2D" width="188" x="629" y="500"/>
  <rect fill="#FFEBA2" height="44" id="3640cd49d2f54696abfd33568592515f-ao-16" stroke="#2D2D2D" width="86" x="371" y="584"/>
  <rect fill="#FFEBA2" height="40" id="3640cd49d2f54696abfd33568592515f-ao-17" stroke="#2D2D2D" width="140" x="323" y="646"/>
  <rect fill="#FFEBA2" height="22" id="3640cd49d2f54696abfd33568592515f-ao-18" stroke="#2D2D2D" width="24" x="217" y="106"/>
  <rect class="qshape" fill="#FF7E7E" height="26" id="3640cd49d2f54696abfd33568592515f-ao-19" stroke="#2D2D2D" width="22" x="207" y="212"/>
  <rect fill="#FFEBA2" height="22" id="3640cd49d2f54696abfd33568592515f-ao-20" stroke="#2D2D2D" width="24" x="193" y="304"/>
  <rect fill="#FFEBA2" height="20" id="3640cd49d2f54696abfd33568592515f-ao-21" stroke="#2D2D2D" width="22" x="183" y="382"/>
  <rect fill="#FFEBA2" height="22" id="3640cd49d2f54696abfd33568592515f-ao-22" stroke="#2D2D2D" width="24" x="183" y="472"/>
  <rect fill="#FFEBA2" height="24" id="3640cd49d2f54696abfd33568592515f-ao-23" stroke="#2D2D2D" width="20" x="175" y="570"/>
  <rect fill="#FFEBA2" height="18" id="3640cd49d2f54696abfd33568592515f-ao-24" stroke="#2D2D2D" width="20" x="251" y="608"/>
  <rect fill="#FFEBA2" height="18" id="3640cd49d2f54696abfd33568592515f-ao-25" stroke="#2D2D2D" width="18" x="299" y="610"/>
 </g>
</svg>