<svg height="1528" width="1535.9999999999998" xmlns="http://www.w3.org/2000/svg">
 <!-- Created with Image Occlusion Enhanced -->
 <g>
  <title>Labels</title>
 </g>
 <g>
  <title>Masks</title>
  <rect fill="#FFEBA2" height="25.71429" id="36f00297b19249e5b3017e6db0a3190a-ao-1" stroke="#2D2D2D" width="257.14287" x="271.14294" y="3.42859"/>
  <rect fill="#FFEBA2" height="28.57143" id="36f00297b19249e5b3017e6db0a3190a-ao-2" stroke="#2D2D2D" width="182.85715" x="622.57153" y="6.28573"/>
  <rect fill="#FFEBA2" height="74.28572" id="36f00297b19249e5b3017e6db0a3190a-ao-3" stroke="#2D2D2D" width="291.42858" x="1062.57155" y="3.42859"/>
  <rect fill="#FFEBA2" height="37.14286" id="36f00297b19249e5b3017e6db0a3190a-ao-4" stroke="#2D2D2D" width="197.14287" x="265.42865" y="52.00002"/>
  <rect fill="#FFEBA2" height="25.71429" id="36f00297b19249e5b3017e6db0a3190a-ao-5" stroke="#2D2D2D" width="194.28572" x="705.42867" y="63.42859"/>
  <rect fill="#FFEBA2" height="31.42857" id="36f00297b19249e5b3017e6db0a3190a-ao-6" stroke="#2D2D2D" width="188.57144" x="234.00008" y="112.00002"/>
  <rect fill="#FFEBA2" height="51.42857" id="36f00297b19249e5b3017e6db0a3190a-ao-7" stroke="#2D2D2D" width="162.85715" x="754.0001" y="117.71431"/>
  <rect fill="#FFEBA2" height="25.71429" id="36f00297b19249e5b3017e6db0a3190a-ao-8" stroke="#2D2D2D" width="128.57143" x="1179.71441" y="106.28574"/>
  <rect fill="#FFEBA2" height="28.57143" id="36f00297b19249e5b3017e6db0a3190a-ao-9" stroke="#2D2D2D" width="131.42858" x="239.71437" y="172.00003"/>
  <rect fill="#FFEBA2" height="25.71429" id="36f00297b19249e5b3017e6db0a3190a-ao-10" stroke="#2D2D2D" width="168.57144" x="1216.85727" y="163.4286"/>
  <rect fill="#FFEBA2" height="80" id="36f00297b19249e5b3017e6db0a3190a-ao-11" stroke="#2D2D2D" width="80" x="788.28582" y="189.14288"/>
  <rect fill="#FFEBA2" height="28.57143" id="36f00297b19249e5b3017e6db0a3190a-ao-12" stroke="#2D2D2D" width="117.14286" x="154.00008" y="229.14289"/>
  <rect fill="#FFEBA2" height="74.28572" id="36f00297b19249e5b3017e6db0a3190a-ao-13" stroke="#2D2D2D" width="80" x="1299.71441" y="214.85717"/>
  <rect fill="#FFEBA2" height="71.42857" id="36f00297b19249e5b3017e6db0a3190a-ao-14" stroke="#2D2D2D" width="131.42858" x="162.57151" y="557.71433"/>
  <rect fill="#FFEBA2" height="25.71429" id="36f00297b19249e5b3017e6db0a3190a-ao-15" stroke="#2D2D2D" width="111.42858" x="156.85722" y="654.85719"/>
  <rect fill="#FFEBA2" height="25.71429" id="36f00297b19249e5b3017e6db0a3190a-ao-16" stroke="#2D2D2D" width="214.28572" x="139.71436" y="709.14291"/>
  <rect fill="#FFEBA2" height="28.57143" id="36f00297b19249e5b3017e6db0a3190a-ao-17" stroke="#2D2D2D" width="194.28572" x="142.5715" y="760.57148"/>
  <rect fill="#FFEBA2" height="28.57143" id="36f00297b19249e5b3017e6db0a3190a-ao-18" stroke="#2D2D2D" width="180.00001" x="156.85722" y="814.8572"/>
  <rect fill="#FFEBA2" height="51.42857" id="36f00297b19249e5b3017e6db0a3190a-ao-19" stroke="#2D2D2D" width="214.28572" x="1179.71441" y="869.14291"/>
  
  <rect fill="#FFEBA2" height="28.57143" id="36f00297b19249e5b3017e6db0a3190a-ao-21" stroke="#2D2D2D" width="240.00001" x="1145.42869" y="940.57149"/>
  <rect fill="#FFEBA2" height="51.42857" id="36f00297b19249e5b3017e6db0a3190a-ao-22" stroke="#2D2D2D" width="160.00001" x="145.42865" y="949.14292"/>
  <rect fill="#FFEBA2" height="28.57143" id="36f00297b19249e5b3017e6db0a3190a-ao-23" stroke="#2D2D2D" width="217.14287" x="1145.42869" y="994.85721"/>
  <rect fill="#FFEBA2" height="25.71429" id="36f00297b19249e5b3017e6db0a3190a-ao-24" stroke="#2D2D2D" width="142.85715" x="1122.57155" y="1046.28578"/>
  <rect fill="#FFEBA2" height="34.28572" id="36f00297b19249e5b3017e6db0a3190a-ao-25" stroke="#2D2D2D" width="237.14287" x="1082.57155" y="1089.14292"/>
  <rect fill="#FFEBA2" height="34.28572" id="36f00297b19249e5b3017e6db0a3190a-ao-26" stroke="#2D2D2D" width="240.00001" x="1056.85726" y="1140.5715"/>
  <rect fill="#FFEBA2" height="25.71429" id="36f00297b19249e5b3017e6db0a3190a-ao-27" stroke="#2D2D2D" width="191.42858" x="1028.28583" y="1197.71436"/>
  <rect fill="#FFEBA2" height="34.28572" id="36f00297b19249e5b3017e6db0a3190a-ao-28" stroke="#2D2D2D" width="231.42858" x="959.7144" y="1240.5715"/>
  <rect fill="#FFEBA2" height="31.42857" id="36f00297b19249e5b3017e6db0a3190a-ao-29" stroke="#2D2D2D" width="262.85715" x="882.57154" y="1297.71436"/>
  <rect fill="#FFEBA2" height="68.57143" id="36f00297b19249e5b3017e6db0a3190a-ao-30" stroke="#2D2D2D" width="208.57144" x="159.71436" y="1286.28579"/>
  <rect fill="#FFEBA2" height="34.28572" id="36f00297b19249e5b3017e6db0a3190a-ao-31" stroke="#2D2D2D" width="342.85716" x="828.28582" y="1346.28579"/>
  <rect fill="#FFEBA2" height="54.28572" id="36f00297b19249e5b3017e6db0a3190a-ao-32" stroke="#2D2D2D" width="268.57144" x="196.85722" y="1389.14294"/>
  <rect fill="#FFEBA2" height="51.42857" id="36f00297b19249e5b3017e6db0a3190a-ao-33" stroke="#2D2D2D" width="268.57144" x="776.85725" y="1397.71437"/>
  <rect fill="#FFEBA2" height="51.42857" id="36f00297b19249e5b3017e6db0a3190a-ao-34" stroke="#2D2D2D" width="205.7143" x="368.2858" y="1472.00008"/>
  <rect fill="#FFEBA2" height="51.42857" id="36f00297b19249e5b3017e6db0a3190a-ao-35" stroke="#2D2D2D" width="268.57144" x="716.85725" y="1469.14294"/>
 </g>
</svg>