<svg height="1588" width="1535.9999999999998" xmlns="http://www.w3.org/2000/svg">
 <!-- Created with Image Occlusion Enhanced -->
 <g>
  <title>Labels</title>
 </g>
 <g>
  <title>Masks</title>
  <rect fill="#FFEBA2" height="100" id="3750a5608d63480b84d60fc92b9d6d09-ao-1" stroke="#2D2D2D" width="177.14287" x="132.5715" y="22.00002"/>
  <rect fill="#FFEBA2" height="31.42857" id="3750a5608d63480b84d60fc92b9d6d09-ao-2" stroke="#2D2D2D" width="185.71429" x="1141.14298" y="122.00002"/>
  <rect fill="#FFEBA2" height="54.28572" id="3750a5608d63480b84d60fc92b9d6d09-ao-3" stroke="#2D2D2D" width="211.42858" x="1144.00012" y="182.00002"/>
  <g id="3750a5608d63480b84d60fc92b9d6d09-ao-4">
   <rect fill="#FFEBA2" height="28.57143" stroke="#2D2D2D" width="48.57143" x="135.42865" y="202.00003"/>
   <rect fill="#FFEBA2" height="48.57143" stroke="#2D2D2D" width="200.00001" x="135.42865" y="227.71431"/>
  </g>
  <rect fill="#FFEBA2" height="45.71429" id="3750a5608d63480b84d60fc92b9d6d09-ao-5" stroke="#2D2D2D" width="174.28572" x="1144.00012" y="259.14289"/>
  <rect fill="#FFEBA2" height="54.28572" id="3750a5608d63480b84d60fc92b9d6d09-ao-6" stroke="#2D2D2D" width="202.85715" x="135.42865" y="293.4286"/>
  <rect fill="#FFEBA2" height="77.14286" id="3750a5608d63480b84d60fc92b9d6d09-ao-7" stroke="#2D2D2D" width="182.85715" x="1144.00012" y="316.28574"/>
  <rect fill="#FFEBA2" height="45.71429" id="3750a5608d63480b84d60fc92b9d6d09-ao-8" stroke="#2D2D2D" width="148.57144" x="135.42865" y="384.85718"/>
  <rect fill="#FFEBA2" height="51.42857" id="3750a5608d63480b84d60fc92b9d6d09-ao-9" stroke="#2D2D2D" width="208.57144" x="1141.14298" y="422.00004"/>
  <rect fill="#FFEBA2" height="48.57143" id="3750a5608d63480b84d60fc92b9d6d09-ao-10" stroke="#2D2D2D" width="245.7143" x="132.5715" y="473.42861"/>
  <rect fill="#FFEBA2" height="82.85715" id="3750a5608d63480b84d60fc92b9d6d09-ao-11" stroke="#2D2D2D" width="200.00001" x="1144.00012" y="496.28575"/>
  <rect fill="#FFEBA2" height="45.71429" id="3750a5608d63480b84d60fc92b9d6d09-ao-12" stroke="#2D2D2D" width="200.00001" x="132.5715" y="542.00004"/>
  <rect fill="#FFEBA2" height="34.28572" id="3750a5608d63480b84d60fc92b9d6d09-ao-13" stroke="#2D2D2D" width="165.71429" x="1146.85726" y="602.00004"/>
  <rect fill="#FFEBA2" height="31.42857" id="3750a5608d63480b84d60fc92b9d6d09-ao-14" stroke="#2D2D2D" width="137.14286" x="132.5715" y="604.85719"/>
  <rect fill="#FFEBA2" height="28.57143" id="3750a5608d63480b84d60fc92b9d6d09-ao-15" stroke="#2D2D2D" width="131.42858" x="1166.85727" y="662.00005"/>
  <rect fill="#FFEBA2" height="48.57143" id="3750a5608d63480b84d60fc92b9d6d09-ao-16" stroke="#2D2D2D" width="168.57144" x="129.71436" y="650.57147"/>
  <rect fill="#FFEBA2" height="31.42857" id="3750a5608d63480b84d60fc92b9d6d09-ao-17" stroke="#2D2D2D" width="142.85715" x="1218.28584" y="713.42862"/>
  <rect fill="#FFEBA2" height="51.42857" id="3750a5608d63480b84d60fc92b9d6d09-ao-18" stroke="#2D2D2D" width="140.00001" x="132.5715" y="742.00005"/>
  <rect class="qshape" fill="#FF7E7E" height="74.28572" id="3750a5608d63480b84d60fc92b9d6d09-ao-19" stroke="#2D2D2D" width="85.71429" x="1295.4287" y="770.57148"/>
  <rect fill="#FFEBA2" height="48.57143" id="3750a5608d63480b84d60fc92b9d6d09-ao-20" stroke="#2D2D2D" width="154.28572" x="132.5715" y="807.71434"/>
  <rect fill="#FFEBA2" height="71.42857" id="3750a5608d63480b84d60fc92b9d6d09-ao-21" stroke="#2D2D2D" width="120.00001" x="129.71436" y="876.28577"/>
  <rect fill="#FFEBA2" height="51.42857" id="3750a5608d63480b84d60fc92b9d6d09-ao-22" stroke="#2D2D2D" width="125.71429" x="132.5715" y="964.8572"/>
  <rect fill="#FFEBA2" height="28.57143" id="3750a5608d63480b84d60fc92b9d6d09-ao-23" stroke="#2D2D2D" width="185.71429" x="132.5715" y="1033.42863"/>
  <rect fill="#FFEBA2" height="31.42857" id="3750a5608d63480b84d60fc92b9d6d09-ao-24" stroke="#2D2D2D" width="165.71429" x="138.28579" y="1079.14292"/>
  <rect fill="#FFEBA2" height="28.57143" id="3750a5608d63480b84d60fc92b9d6d09-ao-25" stroke="#2D2D2D" width="214.28572" x="135.42865" y="1122.00007"/>
  <g id="3750a5608d63480b84d60fc92b9d6d09-ao-26">
   <rect fill="#FFEBA2" height="22.85714" stroke="#2D2D2D" width="37.14286" x="1221.14298" y="1190.5715"/>
   <rect fill="#FFEBA2" height="91.42858" stroke="#2D2D2D" width="162.85715" x="1221.14298" y="1213.42864"/>
  </g>
  <rect fill="#FFEBA2" height="74.28572" id="3750a5608d63480b84d60fc92b9d6d09-ao-27" stroke="#2D2D2D" width="205.7143" x="132.5715" y="1167.71436"/>
  <rect fill="#FFEBA2" height="74.28572" id="3750a5608d63480b84d60fc92b9d6d09-ao-28" stroke="#2D2D2D" width="108.57143" x="135.42865" y="1259.14293"/>
  <rect fill="#FFEBA2" height="134.28572" id="3750a5608d63480b84d60fc92b9d6d09-ao-29" stroke="#2D2D2D" width="120.00001" x="135.42865" y="1350.57151"/>
 </g>
</svg>