<svg height="790" width="1319" xmlns="http://www.w3.org/2000/svg">
 <!-- Created with Image Occlusion Enhanced -->
 <g>
  <title>Labels</title>
 </g>
 <g>
  <title>Masks</title>
  <rect fill="#FFEBA2" height="28.57143" id="37b3bcc9ff47470189dcc40bec92348e-ao-1" stroke="#2D2D2D" width="174.28572" x="572.4286" y="48.57142"/>
  <rect fill="#FFEBA2" height="31.42857" id="37b3bcc9ff47470189dcc40bec92348e-ao-2" stroke="#2D2D2D" width="274.28572" x="946.71432" y="191.42857"/>
  <rect fill="#FFEBA2" height="28.57143" id="37b3bcc9ff47470189dcc40bec92348e-ao-3" stroke="#2D2D2D" width="151.42857" x="192.42859" y="191.42857"/>
  <rect fill="#FFEBA2" height="31.42857" id="37b3bcc9ff47470189dcc40bec92348e-ao-4" stroke="#2D2D2D" width="322.85715" x="943.85717" y="248.57143"/>
  <rect fill="#FFEBA2" height="51.42857" id="37b3bcc9ff47470189dcc40bec92348e-ao-5" stroke="#2D2D2D" width="214.28572" x="141.00002" y="245.71428"/>
  <rect fill="#FFEBA2" height="28.57143" id="37b3bcc9ff47470189dcc40bec92348e-ao-6" stroke="#2D2D2D" width="145.71429" x="943.85717" y="305.71428"/>
  <rect fill="#FFEBA2" height="28.57143" id="37b3bcc9ff47470189dcc40bec92348e-ao-7" stroke="#2D2D2D" width="162.85715" x="238.14288" y="322.85714"/>
  <rect fill="#FFEBA2" height="31.42857" id="37b3bcc9ff47470189dcc40bec92348e-ao-8" stroke="#2D2D2D" width="165.71429" x="943.85717" y="360"/>
  
  <rect fill="#FFEBA2" height="31.42857" id="37b3bcc9ff47470189dcc40bec92348e-ao-10" stroke="#2D2D2D" width="240" x="949.57146" y="417.14286"/>
  <rect fill="#FFEBA2" height="28.57143" id="37b3bcc9ff47470189dcc40bec92348e-ao-11" stroke="#2D2D2D" width="234.28572" x="209.57145" y="434.28571"/>
  <rect fill="#FFEBA2" height="34.28571" id="37b3bcc9ff47470189dcc40bec92348e-ao-12" stroke="#2D2D2D" width="262.85715" x="946.71432" y="474.28572"/>
  <rect fill="#FFEBA2" height="28.57143" id="37b3bcc9ff47470189dcc40bec92348e-ao-13" stroke="#2D2D2D" width="148.57143" x="301.00002" y="485.71429"/>
  <rect fill="#FFEBA2" height="28.57143" id="37b3bcc9ff47470189dcc40bec92348e-ao-14" stroke="#2D2D2D" width="220" x="943.85717" y="528.57143"/>
  <rect fill="#FFEBA2" height="28.57143" id="37b3bcc9ff47470189dcc40bec92348e-ao-15" stroke="#2D2D2D" width="325.71429" x="146.71431" y="542.85714"/>
  <rect fill="#FFEBA2" height="31.42857" id="37b3bcc9ff47470189dcc40bec92348e-ao-16" stroke="#2D2D2D" width="254.28572" x="946.71432" y="582.85715"/>
  <rect fill="#FFEBA2" height="28.57143" id="37b3bcc9ff47470189dcc40bec92348e-ao-17" stroke="#2D2D2D" width="265.71429" x="221.00002" y="597.14286"/>
  <rect fill="#FFEBA2" height="28.57143" id="37b3bcc9ff47470189dcc40bec92348e-ao-18" stroke="#2D2D2D" width="240" x="946.71432" y="640"/>
  <rect fill="#FFEBA2" height="31.42857" id="37b3bcc9ff47470189dcc40bec92348e-ao-19" stroke="#2D2D2D" width="340" x="155.28573" y="648.57143"/>
  <rect fill="#FFEBA2" height="28.57143" id="37b3bcc9ff47470189dcc40bec92348e-ao-20" stroke="#2D2D2D" width="62.85714" x="946.71432" y="697.14286"/>
  <rect fill="#FFEBA2" height="22.85714" id="37b3bcc9ff47470189dcc40bec92348e-ao-21" stroke="#2D2D2D" width="68.57143" x="458.14288" y="700"/>
 </g>
</svg>