<svg height="644" width="1272" xmlns="http://www.w3.org/2000/svg">
 <!-- Created with Image Occlusion Enhanced -->
 <g>
  <title>Labels</title>
 </g>
 <g>
  <title>Masks</title>
  <rect fill="#FFEBA2" height="27.5" id="38cbe5573ad4488f8946c11e82e22adb-ao-1" stroke="#2D2D2D" width="155" x="78.00003" y="9.74997"/>
  <rect class="qshape" fill="#FF7E7E" height="25" id="38cbe5573ad4488f8946c11e82e22adb-ao-2" stroke="#2D2D2D" width="112.5" x="765.50005" y="27.24997"/>
  <rect fill="#FFEBA2" height="52.5" id="38cbe5573ad4488f8946c11e82e22adb-ao-3" stroke="#2D2D2D" width="360.00001" x="763.00005" y="67.24997"/>
  <rect fill="#FFEBA2" height="27.5" id="38cbe5573ad4488f8946c11e82e22adb-ao-4" stroke="#2D2D2D" width="302.50001" x="763.00005" y="137.24997"/>
  <rect fill="#FFEBA2" height="92.5" id="38cbe5573ad4488f8946c11e82e22adb-ao-5" stroke="#2D2D2D" width="92.5" x="73.00003" y="132.24997"/>
  <rect fill="#FFEBA2" height="32.5" id="38cbe5573ad4488f8946c11e82e22adb-ao-6" stroke="#2D2D2D" width="195" x="765.50005" y="182.24997"/>
  <rect fill="#FFEBA2" height="25" id="38cbe5573ad4488f8946c11e82e22adb-ao-7" stroke="#2D2D2D" width="142.5" x="765.50005" y="229.74997"/>
  <rect fill="#FFEBA2" height="47.5" id="38cbe5573ad4488f8946c11e82e22adb-ao-8" stroke="#2D2D2D" width="135" x="75.50003" y="237.24998"/>
  <rect fill="#FFEBA2" height="27.5" id="38cbe5573ad4488f8946c11e82e22adb-ao-9" stroke="#2D2D2D" width="375.00001" x="765.50005" y="274.74998"/>
  <rect fill="#FFEBA2" height="30" id="38cbe5573ad4488f8946c11e82e22adb-ao-10" stroke="#2D2D2D" width="177.5" x="75.50003" y="294.74998"/>
  <rect fill="#FFEBA2" height="27.5" id="38cbe5573ad4488f8946c11e82e22adb-ao-11" stroke="#2D2D2D" width="212.50001" x="765.50005" y="317.24998"/>
  <rect fill="#FFEBA2" height="25" id="38cbe5573ad4488f8946c11e82e22adb-ao-12" stroke="#2D2D2D" width="80" x="75.50003" y="334.74998"/>
  <rect fill="#FFEBA2" height="72.5" id="38cbe5573ad4488f8946c11e82e22adb-ao-13" stroke="#2D2D2D" width="475.00001" x="768.00005" y="362.24998"/>
  <rect fill="#FFEBA2" height="50" id="38cbe5573ad4488f8946c11e82e22adb-ao-14" stroke="#2D2D2D" width="110" x="75.50003" y="364.74998"/>
  <rect fill="#FFEBA2" height="55" id="38cbe5573ad4488f8946c11e82e22adb-ao-15" stroke="#2D2D2D" width="347.50001" x="803.00005" y="454.74998"/>
  <rect fill="#FFEBA2" height="47.5" id="38cbe5573ad4488f8946c11e82e22adb-ao-16" stroke="#2D2D2D" width="85" x="308.00004" y="532.24998"/>
  <rect fill="#FFEBA2" height="25" id="38cbe5573ad4488f8946c11e82e22adb-ao-17" stroke="#2D2D2D" width="160" x="803.00005" y="514.74998"/>
  <rect fill="#FFEBA2" height="70" id="38cbe5573ad4488f8946c11e82e22adb-ao-18" stroke="#2D2D2D" width="185" x="423.00004" y="542.24998"/>
 </g>
</svg>