<svg height="1568" width="1535.9999999999998" xmlns="http://www.w3.org/2000/svg">
 <!-- Created with Image Occlusion Enhanced -->
 <g>
  <title>Labels</title>
 </g>
 <g>
  <title>Masks</title>
  <rect fill="#FFEBA2" height="51.42857" id="3c021ff712524edaa0944c8b93166be7-ao-1" stroke="#2D2D2D" width="240.00001" x="1004.00012" y="43.42859"/>
  <rect fill="#FFEBA2" height="31.42857" id="3c021ff712524edaa0944c8b93166be7-ao-2" stroke="#2D2D2D" width="111.42858" x="1004.00012" y="123.42859"/>
  <rect fill="#FFEBA2" height="48.57143" id="3c021ff712524edaa0944c8b93166be7-ao-3" stroke="#2D2D2D" width="274.28573" x="258.2858" y="157.71431"/>
  <rect fill="#FFEBA2" height="54.28572" id="3c021ff712524edaa0944c8b93166be7-ao-4" stroke="#2D2D2D" width="302.85716" x="1006.85726" y="186.28574"/>
  <rect fill="#FFEBA2" height="54.28572" id="3c021ff712524edaa0944c8b93166be7-ao-5" stroke="#2D2D2D" width="340.00002" x="1004.00012" y="269.14289"/>
  
  <rect fill="#FFEBA2" height="54.28572" id="3c021ff712524edaa0944c8b93166be7-ao-7" stroke="#2D2D2D" width="237.14287" x="272.57151" y="463.42861"/>
  <rect fill="#FFEBA2" height="57.14286" id="3c021ff712524edaa0944c8b93166be7-ao-8" stroke="#2D2D2D" width="265.7143" x="1026.85726" y="506.28575"/>
  <rect fill="#FFEBA2" height="40" id="3c021ff712524edaa0944c8b93166be7-ao-9" stroke="#2D2D2D" width="254.28573" x="261.14294" y="577.71433"/>
  <rect fill="#FFEBA2" height="51.42857" id="3c021ff712524edaa0944c8b93166be7-ao-10" stroke="#2D2D2D" width="197.14287" x="324.00008" y="709.14291"/>
  <rect fill="#FFEBA2" height="45.71429" id="3c021ff712524edaa0944c8b93166be7-ao-11" stroke="#2D2D2D" width="294.28573" x="921.14297" y="763.42862"/>
  <rect fill="#FFEBA2" height="34.28572" id="3c021ff712524edaa0944c8b93166be7-ao-12" stroke="#2D2D2D" width="202.85715" x="324.00008" y="872.00006"/>
  <rect fill="#FFEBA2" height="60" id="3c021ff712524edaa0944c8b93166be7-ao-13" stroke="#2D2D2D" width="334.28573" x="921.14297" y="877.71434"/>
  <rect fill="#FFEBA2" height="37.14286" id="3c021ff712524edaa0944c8b93166be7-ao-14" stroke="#2D2D2D" width="205.7143" x="324.00008" y="960.57149"/>
  <rect fill="#FFEBA2" height="34.28572" id="3c021ff712524edaa0944c8b93166be7-ao-15" stroke="#2D2D2D" width="277.14287" x="921.14297" y="994.8572"/>
  <rect fill="#FFEBA2" height="34.28572" id="3c021ff712524edaa0944c8b93166be7-ao-16" stroke="#2D2D2D" width="277.14287" x="252.57151" y="1052.00006"/>
  <rect fill="#FFEBA2" height="37.14286" id="3c021ff712524edaa0944c8b93166be7-ao-17" stroke="#2D2D2D" width="460.00002" x="901.14297" y="1086.28578"/>
  <rect fill="#FFEBA2" height="28.57143" id="3c021ff712524edaa0944c8b93166be7-ao-18" stroke="#2D2D2D" width="117.14286" x="866.85725" y="1180.5715"/>
  <rect fill="#FFEBA2" height="34.28572" id="3c021ff712524edaa0944c8b93166be7-ao-19" stroke="#2D2D2D" width="382.85716" x="872.57154" y="1277.71436"/>
  <rect fill="#FFEBA2" height="54.28572" id="3c021ff712524edaa0944c8b93166be7-ao-20" stroke="#2D2D2D" width="300.00001" x="872.57154" y="1369.14294"/>
  <rect fill="#FFEBA2" height="34.28572" id="3c021ff712524edaa0944c8b93166be7-ao-21" stroke="#2D2D2D" width="380.00002" x="215.42865" y="1380.57151"/>
  <rect fill="#FFEBA2" height="54.28572" id="3c021ff712524edaa0944c8b93166be7-ao-22" stroke="#2D2D2D" width="302.85716" x="892.57154" y="1486.2858"/>
  <rect fill="#FFEBA2" height="54.28572" id="3c021ff712524edaa0944c8b93166be7-ao-23" stroke="#2D2D2D" width="265.7143" x="346.85723" y="1474.85723"/>
 </g>
</svg>