<svg height="1527" width="1535.9999999999998" xmlns="http://www.w3.org/2000/svg">
 <!-- Created with Image Occlusion Enhanced -->
 <g>
  <title>Labels</title>
 </g>
 <g>
  <title>Masks</title>
  <rect fill="#FFEBA2" height="25.71429" id="3c23acba3a2f49d1bd59b90af73c3129-ao-1" stroke="#2D2D2D" width="185.71429" x="386.85723" y="5.85706"/>
  <rect fill="#FFEBA2" height="25.71429" id="3c23acba3a2f49d1bd59b90af73c3129-ao-2" stroke="#2D2D2D" width="188.57144" x="478.28581" y="57.28563"/>
  <rect fill="#FFEBA2" height="22.85714" id="3c23acba3a2f49d1bd59b90af73c3129-ao-3" stroke="#2D2D2D" width="374.28573" x="701.14296" y="51.57134"/>
  <rect fill="#FFEBA2" height="51.42857" id="3c23acba3a2f49d1bd59b90af73c3129-ao-4" stroke="#2D2D2D" width="228.57144" x="684.0001" y="105.85706"/>
  <rect fill="#FFEBA2" height="28.57143" id="3c23acba3a2f49d1bd59b90af73c3129-ao-5" stroke="#2D2D2D" width="154.28572" x="1006.85726" y="128.7142"/>
  <rect fill="#FFEBA2" height="45.71429" id="3c23acba3a2f49d1bd59b90af73c3129-ao-6" stroke="#2D2D2D" width="97.14286" x="684.0001" y="168.71421"/>
  <rect fill="#FFEBA2" height="48.57143" id="3c23acba3a2f49d1bd59b90af73c3129-ao-7" stroke="#2D2D2D" width="205.7143" x="1006.85726" y="194.42849"/>
  <rect fill="#FFEBA2" height="31.42857" id="3c23acba3a2f49d1bd59b90af73c3129-ao-8" stroke="#2D2D2D" width="242.85715" x="1006.85726" y="282.99993"/>
  <rect fill="#FFEBA2" height="48.57143" id="3c23acba3a2f49d1bd59b90af73c3129-ao-9" stroke="#2D2D2D" width="197.14287" x="1006.85726" y="371.57136"/>
  <rect fill="#FFEBA2" height="25.71429" id="3c23acba3a2f49d1bd59b90af73c3129-ao-10" stroke="#2D2D2D" width="151.42858" x="1006.85726" y="488.71422"/>
  
  <rect fill="#FFEBA2" height="71.42857" id="3c23acba3a2f49d1bd59b90af73c3129-ao-12" stroke="#2D2D2D" width="234.28572" x="1006.85726" y="614.42851"/>
  <rect fill="#FFEBA2" height="25.71429" id="3c23acba3a2f49d1bd59b90af73c3129-ao-13" stroke="#2D2D2D" width="331.42859" x="1001.14297" y="725.85709"/>
  <rect fill="#FFEBA2" height="28.57143" id="3c23acba3a2f49d1bd59b90af73c3129-ao-14" stroke="#2D2D2D" width="151.42858" x="1044.00012" y="782.99995"/>
  <rect fill="#FFEBA2" height="28.57143" id="3c23acba3a2f49d1bd59b90af73c3129-ao-15" stroke="#2D2D2D" width="148.57144" x="1075.42869" y="845.85709"/>
  <rect fill="#FFEBA2" height="22.85714" id="3c23acba3a2f49d1bd59b90af73c3129-ao-16" stroke="#2D2D2D" width="165.71429" x="1104.00012" y="911.57138"/>
 </g>
</svg>