<svg height="1370" width="1535.9999999999998" xmlns="http://www.w3.org/2000/svg">
 <!-- Created with Image Occlusion Enhanced -->
 <g>
  <title>Labels</title>
 </g>
 <g>
  <title>Masks</title>
  <rect fill="#FFEBA2" height="28.57143" id="3ca5fef21f814e90932a8323e2b58efe-ao-1" stroke="#2D2D2D" width="274.28573" x="138.28579" y="102.85712"/>
  <rect fill="#FFEBA2" height="25.71429" id="3ca5fef21f814e90932a8323e2b58efe-ao-2" stroke="#2D2D2D" width="54.28572" x="986.85726" y="168.57141"/>
  <rect fill="#FFEBA2" height="28.57143" id="3ca5fef21f814e90932a8323e2b58efe-ao-3" stroke="#2D2D2D" width="237.14287" x="1044.00012" y="285.71427"/>
  <rect fill="#FFEBA2" height="31.42857" id="3ca5fef21f814e90932a8323e2b58efe-ao-4" stroke="#2D2D2D" width="248.57144" x="141.14293" y="308.57141"/>
  <rect fill="#FFEBA2" height="51.42857" id="3ca5fef21f814e90932a8323e2b58efe-ao-5" stroke="#2D2D2D" width="142.85715" x="146.85722" y="374.2857"/>
  <rect fill="#FFEBA2" height="25.71429" id="3ca5fef21f814e90932a8323e2b58efe-ao-6" stroke="#2D2D2D" width="182.85715" x="146.85722" y="465.71428"/>
  <rect fill="#FFEBA2" height="45.71429" id="3ca5fef21f814e90932a8323e2b58efe-ao-7" stroke="#2D2D2D" width="174.28572" x="1181.14298" y="519.99999"/>
  <rect fill="#FFEBA2" height="45.71429" id="3ca5fef21f814e90932a8323e2b58efe-ao-8" stroke="#2D2D2D" width="188.57144" x="146.85722" y="531.42856"/>
  <rect fill="#FFEBA2" height="48.57143" id="3ca5fef21f814e90932a8323e2b58efe-ao-9" stroke="#2D2D2D" width="148.57144" x="1192.57155" y="574.28571"/>
  <rect fill="#FFEBA2" height="28.57143" id="3ca5fef21f814e90932a8323e2b58efe-ao-10" stroke="#2D2D2D" width="165.71429" x="1201.14298" y="660"/>
  <rect fill="#FFEBA2" height="28.57143" id="3ca5fef21f814e90932a8323e2b58efe-ao-11" stroke="#2D2D2D" width="120.00001" x="152.57151" y="648.57143"/>
  <rect class="qshape" fill="#FF7E7E" height="51.42857" id="3ca5fef21f814e90932a8323e2b58efe-ao-12" stroke="#2D2D2D" width="188.57144" x="1209.71441" y="728.57143"/>
  <rect fill="#FFEBA2" height="25.71429" id="3ca5fef21f814e90932a8323e2b58efe-ao-13" stroke="#2D2D2D" width="162.85715" x="149.71436" y="740"/>
  <rect fill="#FFEBA2" height="40" id="3ca5fef21f814e90932a8323e2b58efe-ao-14" stroke="#2D2D2D" width="188.57144" x="152.57151" y="888.57144"/>
  <rect fill="#FFEBA2" height="45.71429" id="3ca5fef21f814e90932a8323e2b58efe-ao-15" stroke="#2D2D2D" width="180.00001" x="1195.4287" y="965.7143"/>
 </g>
</svg>