<svg height="1534" width="1535.9999999999998" xmlns="http://www.w3.org/2000/svg">
 <!-- Created with Image Occlusion Enhanced -->
 <g>
  <title>Labels</title>
 </g>
 <g>
  <title>Masks</title>
  <rect fill="#FFEBA2" height="25.71429" id="3cf152af64fe4ebeba8647794e750df7-ao-1" stroke="#2D2D2D" width="388.57145" x="478.28581" y="7.42843"/>
  <rect fill="#FFEBA2" height="25.71429" id="3cf152af64fe4ebeba8647794e750df7-ao-2" stroke="#2D2D2D" width="331.42859" x="1018.28583" y="7.42843"/>
  <rect fill="#FFEBA2" height="28.57143" id="3cf152af64fe4ebeba8647794e750df7-ao-3" stroke="#2D2D2D" width="557.14288" x="278.2858" y="53.14272"/>
  <rect fill="#FFEBA2" height="28.57143" id="3cf152af64fe4ebeba8647794e750df7-ao-4" stroke="#2D2D2D" width="325.7143" x="992.57154" y="50.28558"/>
  <rect fill="#FFEBA2" height="28.57143" id="3cf152af64fe4ebeba8647794e750df7-ao-5" stroke="#2D2D2D" width="157.14286" x="638.28581" y="98.85701"/>
  <rect fill="#FFEBA2" height="28.57143" id="3cf152af64fe4ebeba8647794e750df7-ao-6" stroke="#2D2D2D" width="288.57144" x="981.14297" y="95.99986"/>
  <rect fill="#FFEBA2" height="25.71429" id="3cf152af64fe4ebeba8647794e750df7-ao-7" stroke="#2D2D2D" width="194.28572" x="575.42867" y="147.42844"/>
  <rect fill="#FFEBA2" height="25.71429" id="3cf152af64fe4ebeba8647794e750df7-ao-8" stroke="#2D2D2D" width="180.00001" x="1026.85726" y="144.5713"/>
  <rect fill="#FFEBA2" height="28.57143" id="3cf152af64fe4ebeba8647794e750df7-ao-9" stroke="#2D2D2D" width="417.14288" x="298.2858" y="190.28558"/>
  <rect fill="#FFEBA2" height="68.57143" id="3cf152af64fe4ebeba8647794e750df7-ao-10" stroke="#2D2D2D" width="180.00001" x="972.57154" y="193.14273"/>
  <rect fill="#FFEBA2" height="25.71429" id="3cf152af64fe4ebeba8647794e750df7-ao-11" stroke="#2D2D2D" width="380.00002" x="286.85723" y="238.85701"/>
  <rect class="qshape" fill="#FF7E7E" height="22.85714" id="3cf152af64fe4ebeba8647794e750df7-ao-12" stroke="#2D2D2D" width="117.14286" x="981.14297" y="287.42845"/>
  <rect fill="#FFEBA2" height="28.57143" id="3cf152af64fe4ebeba8647794e750df7-ao-13" stroke="#2D2D2D" width="242.85715" x="361.14294" y="278.85702"/>
  <rect fill="#FFEBA2" height="51.42857" id="3cf152af64fe4ebeba8647794e750df7-ao-14" stroke="#2D2D2D" width="294.28573" x="249.71437" y="324.5713"/>
  <rect fill="#FFEBA2" height="22.85714" id="3cf152af64fe4ebeba8647794e750df7-ao-15" stroke="#2D2D2D" width="248.57144" x="255.42865" y="398.85702"/>
  <rect fill="#FFEBA2" height="28.57143" id="3cf152af64fe4ebeba8647794e750df7-ao-16" stroke="#2D2D2D" width="154.28572" x="321.14294" y="441.71417"/>
  <rect fill="#FFEBA2" height="25.71429" id="3cf152af64fe4ebeba8647794e750df7-ao-17" stroke="#2D2D2D" width="251.42858" x="186.85722" y="490.2856"/>
  <rect fill="#FFEBA2" height="28.57143" id="3cf152af64fe4ebeba8647794e750df7-ao-18" stroke="#2D2D2D" width="180.00001" x="224.00008" y="533.14274"/>
  <rect fill="#FFEBA2" height="48.57143" id="3cf152af64fe4ebeba8647794e750df7-ao-19" stroke="#2D2D2D" width="180.00001" x="175.42865" y="578.85703"/>
  <rect fill="#FFEBA2" height="51.42857" id="3cf152af64fe4ebeba8647794e750df7-ao-20" stroke="#2D2D2D" width="125.71429" x="135.42865" y="647.42846"/>
  <rect fill="#FFEBA2" height="71.42857" id="3cf152af64fe4ebeba8647794e750df7-ao-21" stroke="#2D2D2D" width="102.85715" x="1278.28584" y="667.42846"/>
  <rect fill="#FFEBA2" height="120.00001" id="3cf152af64fe4ebeba8647794e750df7-ao-22" stroke="#2D2D2D" width="174.28572" x="1206.85727" y="755.99989"/>
  <rect fill="#FFEBA2" height="28.57143" id="3cf152af64fe4ebeba8647794e750df7-ao-23" stroke="#2D2D2D" width="171.42858" x="1161.14298" y="887.42847"/>
  <rect fill="#FFEBA2" height="42.85714" id="3cf152af64fe4ebeba8647794e750df7-ao-24" stroke="#2D2D2D" width="97.14286" x="978.28583" y="1184.57134"/>
  <rect fill="#FFEBA2" height="188.57144" id="3cf152af64fe4ebeba8647794e750df7-ao-25" stroke="#2D2D2D" width="134.28572" x="135.42865" y="1170.28563"/>
  <rect fill="#FFEBA2" height="51.42857" id="3cf152af64fe4ebeba8647794e750df7-ao-26" stroke="#2D2D2D" width="88.57143" x="952.57154" y="1275.99992"/>
  <rect fill="#FFEBA2" height="34.28572" id="3cf152af64fe4ebeba8647794e750df7-ao-27" stroke="#2D2D2D" width="151.42858" x="346.85723" y="1358.85707"/>
  <rect fill="#FFEBA2" height="88.57143" id="3cf152af64fe4ebeba8647794e750df7-ao-28" stroke="#2D2D2D" width="177.14287" x="889.7144" y="1358.85707"/>
  <rect fill="#FFEBA2" height="54.28572" id="3cf152af64fe4ebeba8647794e750df7-ao-29" stroke="#2D2D2D" width="248.57144" x="352.57151" y="1415.99992"/>
  <rect fill="#FFEBA2" height="31.42857" id="3cf152af64fe4ebeba8647794e750df7-ao-30" stroke="#2D2D2D" width="271.42858" x="804.00011" y="1455.99993"/>
  <rect fill="#FFEBA2" height="31.42857" id="3cf152af64fe4ebeba8647794e750df7-ao-31" stroke="#2D2D2D" width="288.57144" x="349.71437" y="1495.99993"/>
  <rect fill="#FFEBA2" height="25.71429" id="3cf152af64fe4ebeba8647794e750df7-ao-32" stroke="#2D2D2D" width="168.57144" x="681.14296" y="1501.71421"/>
 </g>
</svg>