<svg height="764" width="1212" xmlns="http://www.w3.org/2000/svg">
 <!-- Created with Image Occlusion Enhanced -->
 <g>
  <title>Labels</title>
 </g>
 <g>
  <title>Masks</title>
  <g id="43682fa704644c66bcdc44899915351c-ao-1">
   <rect fill="#FFEBA2" height="50" stroke="#2D2D2D" width="47.5" x="88.00003" y="68.49997"/>
   <rect fill="#FFEBA2" height="22.5" stroke="#2D2D2D" width="172.5" x="160.50003" y="70.99997"/>
   <rect fill="#FFEBA2" height="27.5" stroke="#2D2D2D" width="80" x="160.50003" y="93.49997"/>
  </g>
  <rect fill="#FFEBA2" height="30" id="43682fa704644c66bcdc44899915351c-ao-2" stroke="#2D2D2D" width="197.5" x="758.00005" y="30.99997"/>
  <rect fill="#FFEBA2" height="27.5" id="43682fa704644c66bcdc44899915351c-ao-3" stroke="#2D2D2D" width="140" x="775.50005" y="78.49997"/>
  <rect fill="#FFEBA2" height="27.5" id="43682fa704644c66bcdc44899915351c-ao-4" stroke="#2D2D2D" width="375.00001" x="798.00005" y="123.49997"/>
  <rect fill="#FFEBA2" height="25" id="43682fa704644c66bcdc44899915351c-ao-5" stroke="#2D2D2D" width="97.5" x="90.50003" y="160.99997"/>
  <rect fill="#FFEBA2" height="30" id="43682fa704644c66bcdc44899915351c-ao-6" stroke="#2D2D2D" width="177.5" x="820.50005" y="165.99997"/>
  <rect fill="#FFEBA2" height="27.5" id="43682fa704644c66bcdc44899915351c-ao-7" stroke="#2D2D2D" width="222.50001" x="865.50005" y="213.49997"/>
  <rect fill="#FFEBA2" height="45" id="43682fa704644c66bcdc44899915351c-ao-8" stroke="#2D2D2D" width="160" x="88.00003" y="210.99997"/>
  <rect fill="#FFEBA2" height="27.5" id="43682fa704644c66bcdc44899915351c-ao-9" stroke="#2D2D2D" width="125" x="893.00005" y="255.99997"/>
  <rect fill="#FFEBA2" height="27.5" id="43682fa704644c66bcdc44899915351c-ao-10" stroke="#2D2D2D" width="117.5" x="90.50003" y="273.49997"/>
  <rect fill="#FFEBA2" height="30" id="43682fa704644c66bcdc44899915351c-ao-11" stroke="#2D2D2D" width="120" x="903.00005" y="298.49998"/>
  <rect fill="#FFEBA2" height="47.5" id="43682fa704644c66bcdc44899915351c-ao-12" stroke="#2D2D2D" width="157.5" x="90.50003" y="320.99998"/>
  <rect fill="#FFEBA2" height="25" id="43682fa704644c66bcdc44899915351c-ao-13" stroke="#2D2D2D" width="217.50001" x="913.00005" y="340.99998"/>
  <rect fill="#FFEBA2" height="27.5" id="43682fa704644c66bcdc44899915351c-ao-14" stroke="#2D2D2D" width="192.5" x="88.00003" y="383.49998"/>
  <rect fill="#FFEBA2" height="30" id="43682fa704644c66bcdc44899915351c-ao-15" stroke="#2D2D2D" width="210.00001" x="923.00005" y="385.99998"/>
  <rect fill="#FFEBA2" height="27.5" id="43682fa704644c66bcdc44899915351c-ao-16" stroke="#2D2D2D" width="157.5" x="90.50003" y="425.99998"/>
  <rect fill="#FFEBA2" height="25" id="43682fa704644c66bcdc44899915351c-ao-17" stroke="#2D2D2D" width="222.50001" x="925.50005" y="430.99998"/>
  <rect fill="#FFEBA2" height="27.5" id="43682fa704644c66bcdc44899915351c-ao-18" stroke="#2D2D2D" width="202.50001" x="90.50003" y="470.99998"/>
  
  <rect fill="#FFEBA2" height="30" id="43682fa704644c66bcdc44899915351c-ao-20" stroke="#2D2D2D" width="135" x="88.00003" y="510.99998"/>
  <rect fill="#FFEBA2" height="30" id="43682fa704644c66bcdc44899915351c-ao-21" stroke="#2D2D2D" width="160" x="900.50005" y="518.49998"/>
  <rect fill="#FFEBA2" height="27.5" id="43682fa704644c66bcdc44899915351c-ao-22" stroke="#2D2D2D" width="137.5" x="93.00003" y="580.99998"/>
  <rect fill="#FFEBA2" height="42.5" id="43682fa704644c66bcdc44899915351c-ao-23" stroke="#2D2D2D" width="130" x="88.00003" y="628.49998"/>
  <rect fill="#FFEBA2" height="30" id="43682fa704644c66bcdc44899915351c-ao-24" stroke="#2D2D2D" width="202.50001" x="88.00003" y="693.49998"/>
 </g>
</svg>