<svg height="1007.9999999999999" width="1312" xmlns="http://www.w3.org/2000/svg">
 <!-- Created with Image Occlusion Enhanced -->
 <g>
  <title>Labels</title>
 </g>
 <g>
  <title>Masks</title>
  <rect fill="#FFEBA2" height="28.57143" id="44f616d9d4644ee79f332ba84681735c-ao-1" stroke="#2D2D2D" width="222.85715" x="40.85707" y="46.28575"/>
  <rect fill="#FFEBA2" height="28.57143" id="44f616d9d4644ee79f332ba84681735c-ao-2" stroke="#2D2D2D" width="205.71429" x="660.85709" y="49.14289"/>
  <rect fill="#FFEBA2" height="25.71429" id="44f616d9d4644ee79f332ba84681735c-ao-3" stroke="#2D2D2D" width="128.57143" x="952.28567" y="52.00004"/>
  <rect fill="#FFEBA2" height="25.71429" id="44f616d9d4644ee79f332ba84681735c-ao-4" stroke="#2D2D2D" width="157.14286" x="40.85707" y="109.1429"/>
  
  <rect fill="#FFEBA2" height="28.57143" id="44f616d9d4644ee79f332ba84681735c-ao-6" stroke="#2D2D2D" width="260.00001" x="37.99993" y="160.57147"/>
  <rect fill="#FFEBA2" height="68.57143" id="44f616d9d4644ee79f332ba84681735c-ao-7" stroke="#2D2D2D" width="337.14287" x="949.42853" y="200.57147"/>
  <rect fill="#FFEBA2" height="28.57143" id="44f616d9d4644ee79f332ba84681735c-ao-8" stroke="#2D2D2D" width="145.71429" x="40.85707" y="212.00004"/>
  <rect fill="#FFEBA2" height="48.57143" id="44f616d9d4644ee79f332ba84681735c-ao-9" stroke="#2D2D2D" width="288.57144" x="40.85707" y="289.1429"/>
  <rect fill="#FFEBA2" height="48.57143" id="44f616d9d4644ee79f332ba84681735c-ao-10" stroke="#2D2D2D" width="291.42858" x="949.42853" y="337.71433"/>
  <rect fill="#FFEBA2" height="51.42857" id="44f616d9d4644ee79f332ba84681735c-ao-11" stroke="#2D2D2D" width="285.7143" x="37.99993" y="369.1429"/>
  <rect fill="#FFEBA2" height="31.42857" id="44f616d9d4644ee79f332ba84681735c-ao-12" stroke="#2D2D2D" width="254.28572" x="949.42853" y="426.28576"/>
  <rect fill="#FFEBA2" height="31.42857" id="44f616d9d4644ee79f332ba84681735c-ao-13" stroke="#2D2D2D" width="251.42858" x="40.85707" y="446.28576"/>
  <rect fill="#FFEBA2" height="28.57143" id="44f616d9d4644ee79f332ba84681735c-ao-14" stroke="#2D2D2D" width="257.14287" x="949.42853" y="486.28577"/>
  <rect fill="#FFEBA2" height="34.28572" id="44f616d9d4644ee79f332ba84681735c-ao-15" stroke="#2D2D2D" width="237.14287" x="37.99993" y="503.42862"/>
  <rect fill="#FFEBA2" height="28.57143" id="44f616d9d4644ee79f332ba84681735c-ao-16" stroke="#2D2D2D" width="217.14286" x="949.42853" y="552.00005"/>
  <rect fill="#FFEBA2" height="54.28572" id="44f616d9d4644ee79f332ba84681735c-ao-17" stroke="#2D2D2D" width="274.28572" x="37.99993" y="563.42863"/>
  <rect fill="#FFEBA2" height="28.57143" id="44f616d9d4644ee79f332ba84681735c-ao-18" stroke="#2D2D2D" width="228.57144" x="946.57139" y="617.71434"/>
  <rect fill="#FFEBA2" height="31.42857" id="44f616d9d4644ee79f332ba84681735c-ao-19" stroke="#2D2D2D" width="168.57143" x="952.28567" y="677.71434"/>
  <rect fill="#FFEBA2" height="28.57143" id="44f616d9d4644ee79f332ba84681735c-ao-20" stroke="#2D2D2D" width="262.85715" x="172.28565" y="720.57149"/>
  <rect fill="#FFEBA2" height="25.71429" id="44f616d9d4644ee79f332ba84681735c-ao-21" stroke="#2D2D2D" width="65.71429" x="952.28567" y="777.71435"/>
  <rect fill="#FFEBA2" height="28.57143" id="44f616d9d4644ee79f332ba84681735c-ao-22" stroke="#2D2D2D" width="225.71429" x="197.99993" y="817.71435"/>
  <rect fill="#FFEBA2" height="25.71429" id="44f616d9d4644ee79f332ba84681735c-ao-23" stroke="#2D2D2D" width="60" x="397.99994" y="929.14292"/>
 </g>
</svg>