<svg height="836" width="1152.0000000000002" xmlns="http://www.w3.org/2000/svg">
 <!-- Created with Image Occlusion Enhanced -->
 <g>
  <title>Labels</title>
 </g>
 <g>
  <title>Masks</title>
  <rect fill="#FFEBA2" height="54.28571" id="47712a1baf1b486b8005abaacb6d9e08-ao-1" stroke="#2D2D2D" width="145.71428" x="957.99994" y="28.2857"/>
  <rect fill="#FFEBA2" height="51.42857" id="47712a1baf1b486b8005abaacb6d9e08-ao-2" stroke="#2D2D2D" width="162.85714" x="957.99994" y="119.71427"/>
  <rect fill="#FFEBA2" height="48.57143" id="47712a1baf1b486b8005abaacb6d9e08-ao-3" stroke="#2D2D2D" width="114.28571" x="972.28565" y="245.42855"/>
  <rect fill="#FFEBA2" height="31.42857" id="47712a1baf1b486b8005abaacb6d9e08-ao-4" stroke="#2D2D2D" width="254.28571" x="26.57139" y="116.85712"/>
  <rect fill="#FFEBA2" height="28.57143" id="47712a1baf1b486b8005abaacb6d9e08-ao-5" stroke="#2D2D2D" width="231.42857" x="26.57139" y="168.28569"/>
  <rect fill="#FFEBA2" height="25.71429" id="47712a1baf1b486b8005abaacb6d9e08-ao-6" stroke="#2D2D2D" width="294.28571" x="29.42853" y="216.85712"/>
  <rect fill="#FFEBA2" height="28.57143" id="47712a1baf1b486b8005abaacb6d9e08-ao-7" stroke="#2D2D2D" width="228.57142" x="32.28567" y="262.57141"/>
  <rect fill="#FFEBA2" height="31.42857" id="47712a1baf1b486b8005abaacb6d9e08-ao-8" stroke="#2D2D2D" width="251.42857" x="29.42853" y="311.14283"/>
  <rect fill="#FFEBA2" height="25.71429" id="47712a1baf1b486b8005abaacb6d9e08-ao-9" stroke="#2D2D2D" width="122.85714" x="35.14282" y="356.85712"/>
  <rect fill="#FFEBA2" height="22.85714" id="47712a1baf1b486b8005abaacb6d9e08-ao-10" stroke="#2D2D2D" width="319.99999" x="32.28567" y="402.5714"/>
  <rect class="qshape" fill="#FF7E7E" height="25.71429" id="47712a1baf1b486b8005abaacb6d9e08-ao-11" stroke="#2D2D2D" width="128.57143" x="29.42853" y="445.42854"/>
  <rect fill="#FFEBA2" height="28.57143" id="47712a1baf1b486b8005abaacb6d9e08-ao-12" stroke="#2D2D2D" width="205.71428" x="29.42853" y="491.14283"/>
  <rect fill="#FFEBA2" height="45.71428" id="47712a1baf1b486b8005abaacb6d9e08-ao-13" stroke="#2D2D2D" width="80" x="946.57137" y="639.71425"/>
  <rect fill="#FFEBA2" height="25.71429" id="47712a1baf1b486b8005abaacb6d9e08-ao-14" stroke="#2D2D2D" width="208.57142" x="620.85709" y="773.99997"/>
  <rect fill="#FFEBA2" height="25.71429" id="47712a1baf1b486b8005abaacb6d9e08-ao-15" stroke="#2D2D2D" width="142.85714" x="837.99994" y="771.14282"/>
 </g>
</svg>