<svg height="727" width="1320" xmlns="http://www.w3.org/2000/svg">
 <!-- Created with Image Occlusion Enhanced -->
 <g>
  <title>Labels</title>
 </g>
 <g>
  <title>Masks</title>
  <rect fill="#FFEBA2" height="28.57143" id="483bfcad98234b339b393294e172ca81-ao-1" stroke="#2D2D2D" width="191.42857" x="322.85714" y="30.14287"/>
  <rect fill="#FFEBA2" height="48.57143" id="483bfcad98234b339b393294e172ca81-ao-2" stroke="#2D2D2D" width="185.71429" x="982.85715" y="38.71429"/>
  <rect class="qshape" fill="#FF7E7E" height="31.42857" id="483bfcad98234b339b393294e172ca81-ao-3" stroke="#2D2D2D" width="134.28572" x="231.42857" y="81.57144"/>
  <rect fill="#FFEBA2" height="37.14286" id="483bfcad98234b339b393294e172ca81-ao-4" stroke="#2D2D2D" width="174.28572" x="1014.28572" y="115.85715"/>
  <rect fill="#FFEBA2" height="31.42857" id="483bfcad98234b339b393294e172ca81-ao-5" stroke="#2D2D2D" width="220" x="179.99999" y="141.57144"/>
  <rect fill="#FFEBA2" height="28.57143" id="483bfcad98234b339b393294e172ca81-ao-6" stroke="#2D2D2D" width="188.57143" x="1014.28572" y="175.85715"/>
  <rect fill="#FFEBA2" height="51.42857" id="483bfcad98234b339b393294e172ca81-ao-7" stroke="#2D2D2D" width="311.42858" x="39.99999" y="207.28573"/>
  <rect fill="#FFEBA2" height="31.42857" id="483bfcad98234b339b393294e172ca81-ao-8" stroke="#2D2D2D" width="240" x="1014.28572" y="233.00001"/>
  <rect fill="#FFEBA2" height="31.42857" id="483bfcad98234b339b393294e172ca81-ao-9" stroke="#2D2D2D" width="285.71429" x="42.85714" y="284.42858"/>
  <rect fill="#FFEBA2" height="25.71429" id="483bfcad98234b339b393294e172ca81-ao-10" stroke="#2D2D2D" width="174.28572" x="1014.28572" y="295.85716"/>
  <rect fill="#FFEBA2" height="28.57143" id="483bfcad98234b339b393294e172ca81-ao-11" stroke="#2D2D2D" width="268.57143" x="37.14285" y="341.57144"/>
  <rect fill="#FFEBA2" height="31.42857" id="483bfcad98234b339b393294e172ca81-ao-12" stroke="#2D2D2D" width="182.85715" x="1011.42858" y="344.42858"/>
  <rect fill="#FFEBA2" height="31.42857" id="483bfcad98234b339b393294e172ca81-ao-13" stroke="#2D2D2D" width="374.28572" x="39.99999" y="398.7143"/>
  <rect fill="#FFEBA2" height="28.57143" id="483bfcad98234b339b393294e172ca81-ao-14" stroke="#2D2D2D" width="174.28572" x="1014.28572" y="398.7143"/>
  <rect fill="#FFEBA2" height="31.42857" id="483bfcad98234b339b393294e172ca81-ao-15" stroke="#2D2D2D" width="194.28572" x="1014.28572" y="453.00001"/>
  <rect fill="#FFEBA2" height="28.57143" id="483bfcad98234b339b393294e172ca81-ao-16" stroke="#2D2D2D" width="428.57143" x="39.99999" y="481.57144"/>
  <rect fill="#FFEBA2" height="34.28571" id="483bfcad98234b339b393294e172ca81-ao-17" stroke="#2D2D2D" width="214.28572" x="1014.28572" y="498.7143"/>
  <rect fill="#FFEBA2" height="54.28571" id="483bfcad98234b339b393294e172ca81-ao-18" stroke="#2D2D2D" width="231.42857" x="954.28572" y="558.7143"/>
  <rect fill="#FFEBA2" height="54.28571" id="483bfcad98234b339b393294e172ca81-ao-19" stroke="#2D2D2D" width="322.85715" x="37.14285" y="561.57144"/>
  <rect fill="#FFEBA2" height="28.57143" id="483bfcad98234b339b393294e172ca81-ao-20" stroke="#2D2D2D" width="371.42858" x="900" y="647.28573"/>
  <rect fill="#FFEBA2" height="31.42857" id="483bfcad98234b339b393294e172ca81-ao-21" stroke="#2D2D2D" width="371.42858" x="39.99999" y="644.42859"/>
 </g>
</svg>