<svg height="1165" width="1535.9999999999998" xmlns="http://www.w3.org/2000/svg">
 <!-- Created with Image Occlusion Enhanced -->
 <g>
  <title>Labels</title>
 </g>
 <g>
  <title>Masks</title>
  <rect fill="#FFEBA2" height="51.42857" id="4bf41038393f4d93a0e477851125b1fc-ao-1" stroke="#2D2D2D" width="180.00001" x="1096.85726" y="120.71426"/>
  <rect fill="#FFEBA2" height="28.57143" id="4bf41038393f4d93a0e477851125b1fc-ao-2" stroke="#2D2D2D" width="171.42858" x="1171.14298" y="254.99999"/>
  <rect fill="#FFEBA2" height="51.42857" id="4bf41038393f4d93a0e477851125b1fc-ao-3" stroke="#2D2D2D" width="100" x="134.00008" y="323.57142"/>
  <g id="4bf41038393f4d93a0e477851125b1fc-ao-4">
   <rect fill="#FFEBA2" height="71.42857" stroke="#2D2D2D" width="120.00001" x="1296.85727" y="346.42856"/>
   <rect fill="#FFEBA2" height="48.57143" stroke="#2D2D2D" width="74.28572" x="1191.14298" y="337.85713"/>
   <rect fill="#FFEBA2" height="48.57143" stroke="#2D2D2D" width="91.42858" x="1191.14298" y="392.14285"/>
  </g>
  <rect fill="#FFEBA2" height="68.57143" id="4bf41038393f4d93a0e477851125b1fc-ao-5" stroke="#2D2D2D" width="97.14286" x="131.14293" y="392.14285"/>
  <rect fill="#FFEBA2" height="48.57143" id="4bf41038393f4d93a0e477851125b1fc-ao-6" stroke="#2D2D2D" width="237.14287" x="1188.28584" y="443.57142"/>
  <rect fill="#FFEBA2" height="42.85714" id="4bf41038393f4d93a0e477851125b1fc-ao-7" stroke="#2D2D2D" width="122.85715" x="134.00008" y="486.42857"/>
  <rect fill="#FFEBA2" height="22.85714" id="4bf41038393f4d93a0e477851125b1fc-ao-8" stroke="#2D2D2D" width="142.85715" x="1214.00012" y="503.57142"/>
  <rect fill="#FFEBA2" height="48.57143" id="4bf41038393f4d93a0e477851125b1fc-ao-9" stroke="#2D2D2D" width="171.42858" x="1239.71441" y="537.85714"/>
  <rect fill="#FFEBA2" height="42.85714" id="4bf41038393f4d93a0e477851125b1fc-ao-10" stroke="#2D2D2D" width="142.85715" x="1251.14298" y="597.85714"/>
  <rect fill="#FFEBA2" height="42.85714" id="4bf41038393f4d93a0e477851125b1fc-ao-11" stroke="#2D2D2D" width="102.85715" x="125.42865" y="615"/>
  <rect fill="#FFEBA2" height="42.85714" id="4bf41038393f4d93a0e477851125b1fc-ao-12" stroke="#2D2D2D" width="128.57143" x="1222.57155" y="649.28572"/>
  <rect fill="#FFEBA2" height="71.42857" id="4bf41038393f4d93a0e477851125b1fc-ao-13" stroke="#2D2D2D" width="202.85715" x="134.00008" y="723.57143"/>
  <rect fill="#FFEBA2" height="25.71429" id="4bf41038393f4d93a0e477851125b1fc-ao-14" stroke="#2D2D2D" width="182.85715" x="1225.4287" y="697.85715"/>
  <rect fill="#FFEBA2" height="28.57143" id="4bf41038393f4d93a0e477851125b1fc-ao-15" stroke="#2D2D2D" width="211.42858" x="1188.28584" y="735.00001"/>
  <rect fill="#FFEBA2" height="45.71429" id="4bf41038393f4d93a0e477851125b1fc-ao-16" stroke="#2D2D2D" width="200.00001" x="134.00008" y="817.85715"/>
  <rect fill="#FFEBA2" height="22.85714" id="4bf41038393f4d93a0e477851125b1fc-ao-17" stroke="#2D2D2D" width="157.14286" x="1179.71441" y="835.00001"/>
  <rect fill="#FFEBA2" height="25.71429" id="4bf41038393f4d93a0e477851125b1fc-ao-18" stroke="#2D2D2D" width="157.14286" x="136.85722" y="886.42859"/>
  <rect fill="#FFEBA2" height="48.57143" id="4bf41038393f4d93a0e477851125b1fc-ao-19" stroke="#2D2D2D" width="157.14286" x="1219.71441" y="883.57144"/>
  <rect fill="#FFEBA2" height="25.71429" id="4bf41038393f4d93a0e477851125b1fc-ao-20" stroke="#2D2D2D" width="274.28573" x="1125.42869" y="980.7143"/>
  <rect class="qshape" fill="#FF7E7E" height="31.42857" id="4bf41038393f4d93a0e477851125b1fc-ao-21" stroke="#2D2D2D" width="171.42858" x="1062.57155" y="1060.71431"/>
 </g>
</svg>