<svg height="614" width="1201" xmlns="http://www.w3.org/2000/svg">
 <!-- Created with Image Occlusion Enhanced -->
 <g>
  <title>Labels</title>
 </g>
 <g>
  <title>Masks</title>
  <rect fill="#FFEBA2" height="27.5" id="4e75f08ca9aa45d2a77d2eecdde47c56-ao-1" stroke="#2D2D2D" width="165" x="545.25002" y="67.24997"/>
  <rect fill="#FFEBA2" height="25" id="4e75f08ca9aa45d2a77d2eecdde47c56-ao-2" stroke="#2D2D2D" width="185" x="300.25002" y="87.24997"/>
  <rect fill="#FFEBA2" height="25" id="4e75f08ca9aa45d2a77d2eecdde47c56-ao-3" stroke="#2D2D2D" width="110" x="617.75002" y="104.74997"/>
  <rect fill="#FFEBA2" height="30" id="4e75f08ca9aa45d2a77d2eecdde47c56-ao-4" stroke="#2D2D2D" width="270" x="125.25002" y="129.74997"/>
  <rect class="qshape" fill="#FF7E7E" height="27.5" id="4e75f08ca9aa45d2a77d2eecdde47c56-ao-5" stroke="#2D2D2D" width="155" x="730.25002" y="129.74997"/>
  <rect fill="#FFEBA2" height="27.5" id="4e75f08ca9aa45d2a77d2eecdde47c56-ao-6" stroke="#2D2D2D" width="177.5" x="115.25002" y="184.74998"/>
  <rect fill="#FFEBA2" height="25" id="4e75f08ca9aa45d2a77d2eecdde47c56-ao-7" stroke="#2D2D2D" width="175" x="817.75003" y="182.24998"/>
  <rect fill="#FFEBA2" height="27.5" id="4e75f08ca9aa45d2a77d2eecdde47c56-ao-8" stroke="#2D2D2D" width="190" x="840.25003" y="257.24998"/>
  <rect fill="#FFEBA2" height="30" id="4e75f08ca9aa45d2a77d2eecdde47c56-ao-9" stroke="#2D2D2D" width="175" x="887.75003" y="314.74998"/>
  <rect fill="#FFEBA2" height="32.5" id="4e75f08ca9aa45d2a77d2eecdde47c56-ao-10" stroke="#2D2D2D" width="202.5" x="122.75002" y="354.74998"/>
  <rect fill="#FFEBA2" height="27.5" id="4e75f08ca9aa45d2a77d2eecdde47c56-ao-11" stroke="#2D2D2D" width="305" x="885.25003" y="369.74998"/>
  <rect fill="#FFEBA2" height="32.5" id="4e75f08ca9aa45d2a77d2eecdde47c56-ao-12" stroke="#2D2D2D" width="300" x="32.75002" y="409.74998"/>
  <rect fill="#FFEBA2" height="27.5" id="4e75f08ca9aa45d2a77d2eecdde47c56-ao-13" stroke="#2D2D2D" width="227.5" x="905.25003" y="419.74998"/>
  <rect fill="#FFEBA2" height="25" id="4e75f08ca9aa45d2a77d2eecdde47c56-ao-14" stroke="#2D2D2D" width="205" x="122.75002" y="467.24998"/>
  <rect fill="#FFEBA2" height="22.5" id="4e75f08ca9aa45d2a77d2eecdde47c56-ao-15" stroke="#2D2D2D" width="232.5" x="272.75002" y="534.74998"/>
  <rect fill="#FFEBA2" height="25" id="4e75f08ca9aa45d2a77d2eecdde47c56-ao-16" stroke="#2D2D2D" width="252.5" x="897.75003" y="529.74998"/>
  <rect fill="#FFEBA2" height="27.5" id="4e75f08ca9aa45d2a77d2eecdde47c56-ao-17" stroke="#2D2D2D" width="165" x="597.75002" y="552.24998"/>
  <rect fill="#FFEBA2" height="32.5" id="4e75f08ca9aa45d2a77d2eecdde47c56-ao-18" stroke="#2D2D2D" width="250" x="785.25003" y="569.74998"/>
 </g>
</svg>