<svg height="397" width="1165" xmlns="http://www.w3.org/2000/svg">
 <!-- Created with Image Occlusion Enhanced -->
 <g>
  <title>Labels</title>
 </g>
 <g>
  <title>Masks</title>
  <rect fill="#FFEBA2" height="25.58139" id="4ee740ae6164402383bc49d948b227b8-ao-1" stroke="#2D2D2D" width="213.95348" x="268.7209" y="75.093"/>
  <rect fill="#FFEBA2" height="23.25581" id="4ee740ae6164402383bc49d948b227b8-ao-2" stroke="#2D2D2D" width="344.18604" x="782.67437" y="77.41858"/>
  <rect fill="#FFEBA2" height="25.58139" id="4ee740ae6164402383bc49d948b227b8-ao-3" stroke="#2D2D2D" width="216.27906" x="224.53485" y="114.62789"/>
  <rect fill="#FFEBA2" height="30.23256" id="4ee740ae6164402383bc49d948b227b8-ao-4" stroke="#2D2D2D" width="234.88372" x="796.62786" y="109.97672"/>
  <rect fill="#FFEBA2" height="25.58139" id="4ee740ae6164402383bc49d948b227b8-ao-5" stroke="#2D2D2D" width="204.65116" x="233.83718" y="151.83719"/>
  <rect fill="#FFEBA2" height="27.90698" id="4ee740ae6164402383bc49d948b227b8-ao-6" stroke="#2D2D2D" width="216.27906" x="805.93018" y="151.83719"/>
  <rect fill="#FFEBA2" height="25.58139" id="4ee740ae6164402383bc49d948b227b8-ao-7" stroke="#2D2D2D" width="227.90697" x="191.97671" y="184.39533"/>
  <rect fill="#FFEBA2" height="25.58139" id="4ee740ae6164402383bc49d948b227b8-ao-8" stroke="#2D2D2D" width="200" x="810.58135" y="186.72091"/>
  
  <g id="4ee740ae6164402383bc49d948b227b8-ao-10">
   <rect fill="#FFEBA2" height="25.58139" stroke="#2D2D2D" width="174.4186" x="812.90693" y="219.27905"/>
   <rect fill="#FFEBA2" height="25.58139" stroke="#2D2D2D" width="169.76744" x="798.95344" y="254.16277"/>
   <rect fill="#FFEBA2" height="27.90698" stroke="#2D2D2D" width="132.55814" x="1015.23251" y="240.20928"/>
  </g>
  <rect fill="#FFEBA2" height="20.93023" id="4ee740ae6164402383bc49d948b227b8-ao-11" stroke="#2D2D2D" width="200" x="219.88369" y="262.3023"/>
  <rect fill="#FFEBA2" height="27.90698" id="4ee740ae6164402383bc49d948b227b8-ao-12" stroke="#2D2D2D" width="420.93022" x="10.58137" y="294.86044"/>
  <rect fill="#FFEBA2" height="23.25581" id="4ee740ae6164402383bc49d948b227b8-ao-13" stroke="#2D2D2D" width="202.32558" x="794.30228" y="292.53486"/>
  <rect fill="#FFEBA2" height="23.25581" id="4ee740ae6164402383bc49d948b227b8-ao-14" stroke="#2D2D2D" width="406.97673" x="722.20926" y="327.41858"/>
  <rect fill="#FFEBA2" height="25.58139" id="4ee740ae6164402383bc49d948b227b8-ao-15" stroke="#2D2D2D" width="227.90697" x="278.02322" y="332.06974"/>
  <rect fill="#FFEBA2" height="20.93023" id="4ee740ae6164402383bc49d948b227b8-ao-16" stroke="#2D2D2D" width="204.65116" x="371.04647" y="371.60462"/>
  <rect fill="#FFEBA2" height="25.58139" id="4ee740ae6164402383bc49d948b227b8-ao-17" stroke="#2D2D2D" width="244.18604" x="638.48833" y="369.27904"/>
 </g>
</svg>