<svg height="598" width="1202" xmlns="http://www.w3.org/2000/svg">
 <!-- Created with Image Occlusion Enhanced -->
 <g>
  <title>Labels</title>
 </g>
 <g>
  <title>Masks</title>
  <rect fill="#FFEBA2" height="25" id="5031a973c7c2482a9636d0e7f0173027-ao-1" stroke="#2D2D2D" width="112.5" x="786.75005" y="9.5"/>
  <rect fill="#FFEBA2" height="30" id="5031a973c7c2482a9636d0e7f0173027-ao-2" stroke="#2D2D2D" width="235.00001" x="891.75005" y="57.00001"/>
  <rect fill="#FFEBA2" height="65" id="5031a973c7c2482a9636d0e7f0173027-ao-3" stroke="#2D2D2D" width="207.50001" x="891.75005" y="104.50001"/>
  <rect fill="#FFEBA2" height="50" id="5031a973c7c2482a9636d0e7f0173027-ao-4" stroke="#2D2D2D" width="285.00001" x="111.75003" y="79.50001"/>
  <rect fill="#FFEBA2" height="47.5" id="5031a973c7c2482a9636d0e7f0173027-ao-5" stroke="#2D2D2D" width="232.50001" x="106.75003" y="149.50001"/>
  <rect fill="#FFEBA2" height="25" id="5031a973c7c2482a9636d0e7f0173027-ao-6" stroke="#2D2D2D" width="247.50001" x="886.75005" y="204.50001"/>
  <rect fill="#FFEBA2" height="25" id="5031a973c7c2482a9636d0e7f0173027-ao-7" stroke="#2D2D2D" width="200.00001" x="124.25003" y="227.00001"/>
  <rect fill="#FFEBA2" height="25" id="5031a973c7c2482a9636d0e7f0173027-ao-8" stroke="#2D2D2D" width="155" x="889.25005" y="249.50001"/>
  <rect class="qshape" fill="#FF7E7E" height="70" id="5031a973c7c2482a9636d0e7f0173027-ao-9" stroke="#2D2D2D" width="212.50001" x="14.25003" y="272.00001"/>
  <rect fill="#FFEBA2" height="27.5" id="5031a973c7c2482a9636d0e7f0173027-ao-10" stroke="#2D2D2D" width="187.5" x="891.75005" y="297.00001"/>
  <rect fill="#FFEBA2" height="27.5" id="5031a973c7c2482a9636d0e7f0173027-ao-11" stroke="#2D2D2D" width="270.00001" x="889.25005" y="344.50001"/>
  <rect fill="#FFEBA2" height="27.5" id="5031a973c7c2482a9636d0e7f0173027-ao-12" stroke="#2D2D2D" width="215.00001" x="69.25003" y="364.50001"/>
  <rect fill="#FFEBA2" height="25" id="5031a973c7c2482a9636d0e7f0173027-ao-13" stroke="#2D2D2D" width="252.50001" x="894.25005" y="389.50001"/>
  <rect fill="#FFEBA2" height="47.5" id="5031a973c7c2482a9636d0e7f0173027-ao-14" stroke="#2D2D2D" width="215.00001" x="56.75003" y="417.00001"/>
  <rect fill="#FFEBA2" height="47.5" id="5031a973c7c2482a9636d0e7f0173027-ao-15" stroke="#2D2D2D" width="282.50001" x="891.75005" y="437.00001"/>
  <rect fill="#FFEBA2" height="25" id="5031a973c7c2482a9636d0e7f0173027-ao-16" stroke="#2D2D2D" width="142.5" x="151.75003" y="482.00002"/>
  <rect fill="#FFEBA2" height="27.5" id="5031a973c7c2482a9636d0e7f0173027-ao-17" stroke="#2D2D2D" width="297.50001" x="889.25005" y="502.00002"/>
  <rect fill="#FFEBA2" height="27.5" id="5031a973c7c2482a9636d0e7f0173027-ao-18" stroke="#2D2D2D" width="227.50001" x="81.75003" y="524.50002"/>
  <rect fill="#FFEBA2" height="27.5" id="5031a973c7c2482a9636d0e7f0173027-ao-19" stroke="#2D2D2D" width="132.5" x="891.75005" y="549.50002"/>
  <rect fill="#FFEBA2" height="25" id="5031a973c7c2482a9636d0e7f0173027-ao-20" stroke="#2D2D2D" width="207.50001" x="109.25003" y="564.50002"/>
 </g>
</svg>