<svg height="1613" width="1535.9999999999998" xmlns="http://www.w3.org/2000/svg">
 <!-- Created with Image Occlusion Enhanced -->
 <g>
  <title>Labels</title>
 </g>
 <g>
  <title>Masks</title>
  
  <rect fill="#FFEBA2" height="22.85714" id="509e231b8d8241c4aa9e2f63a2c25e53-ao-2" stroke="#2D2D2D" width="148.57144" x="1112.57155" y="31.28573"/>
  <rect fill="#FFEBA2" height="25.71429" id="509e231b8d8241c4aa9e2f63a2c25e53-ao-3" stroke="#2D2D2D" width="162.85715" x="789.71439" y="62.7143"/>
  <rect fill="#FFEBA2" height="28.57143" id="509e231b8d8241c4aa9e2f63a2c25e53-ao-4" stroke="#2D2D2D" width="151.42858" x="689.71439" y="102.71431"/>
  <rect fill="#FFEBA2" height="28.57143" id="509e231b8d8241c4aa9e2f63a2c25e53-ao-5" stroke="#2D2D2D" width="222.85715" x="558.28581" y="139.85716"/>
  <rect fill="#FFEBA2" height="31.42857" id="509e231b8d8241c4aa9e2f63a2c25e53-ao-6" stroke="#2D2D2D" width="231.42858" x="1169.71441" y="194.14288"/>
  <rect fill="#FFEBA2" height="34.28572" id="509e231b8d8241c4aa9e2f63a2c25e53-ao-7" stroke="#2D2D2D" width="142.85715" x="626.85724" y="199.85717"/>
  <rect fill="#FFEBA2" height="28.57143" id="509e231b8d8241c4aa9e2f63a2c25e53-ao-8" stroke="#2D2D2D" width="211.42858" x="1169.71441" y="239.85717"/>
  <rect fill="#FFEBA2" height="28.57143" id="509e231b8d8241c4aa9e2f63a2c25e53-ao-9" stroke="#2D2D2D" width="331.42859" x="438.2858" y="245.57146"/>
  <rect fill="#FFEBA2" height="31.42857" id="509e231b8d8241c4aa9e2f63a2c25e53-ao-10" stroke="#2D2D2D" width="185.71429" x="1166.85727" y="285.57146"/>
  <rect fill="#FFEBA2" height="31.42857" id="509e231b8d8241c4aa9e2f63a2c25e53-ao-11" stroke="#2D2D2D" width="337.14287" x="429.71437" y="285.57146"/>
  <rect fill="#FFEBA2" height="51.42857" id="509e231b8d8241c4aa9e2f63a2c25e53-ao-12" stroke="#2D2D2D" width="194.28572" x="1169.71441" y="334.14289"/>
  <rect fill="#FFEBA2" height="28.57143" id="509e231b8d8241c4aa9e2f63a2c25e53-ao-13" stroke="#2D2D2D" width="145.71429" x="604.0001" y="362.71432"/>
  <rect fill="#FFEBA2" height="28.57143" id="509e231b8d8241c4aa9e2f63a2c25e53-ao-14" stroke="#2D2D2D" width="205.7143" x="1169.71441" y="394.14289"/>
  <rect fill="#FFEBA2" height="57.14286" id="509e231b8d8241c4aa9e2f63a2c25e53-ao-15" stroke="#2D2D2D" width="208.57144" x="552.57152" y="419.85718"/>
  <rect fill="#FFEBA2" height="120.00001" id="509e231b8d8241c4aa9e2f63a2c25e53-ao-16" stroke="#2D2D2D" width="248.57144" x="1135.42869" y="471.28575"/>
  <rect fill="#FFEBA2" height="34.28572" id="509e231b8d8241c4aa9e2f63a2c25e53-ao-17" stroke="#2D2D2D" width="217.14287" x="509.71438" y="557.00004"/>
  <rect fill="#FFEBA2" height="28.57143" id="509e231b8d8241c4aa9e2f63a2c25e53-ao-18" stroke="#2D2D2D" width="225.7143" x="501.14295" y="617.00004"/>
  <rect fill="#FFEBA2" height="31.42857" id="509e231b8d8241c4aa9e2f63a2c25e53-ao-19" stroke="#2D2D2D" width="294.28573" x="1021.14297" y="657.00005"/>
  <rect fill="#FFEBA2" height="31.42857" id="509e231b8d8241c4aa9e2f63a2c25e53-ao-20" stroke="#2D2D2D" width="288.57144" x="1018.28583" y="714.14291"/>
  <rect fill="#FFEBA2" height="28.57143" id="509e231b8d8241c4aa9e2f63a2c25e53-ao-21" stroke="#2D2D2D" width="217.14287" x="489.71438" y="771.28577"/>
  <rect fill="#FFEBA2" height="31.42857" id="509e231b8d8241c4aa9e2f63a2c25e53-ao-22" stroke="#2D2D2D" width="285.7143" x="401.14295" y="825.57148"/>
  <rect fill="#FFEBA2" height="28.57143" id="509e231b8d8241c4aa9e2f63a2c25e53-ao-23" stroke="#2D2D2D" width="291.42858" x="978.28583" y="868.42863"/>
  <rect fill="#FFEBA2" height="51.42857" id="509e231b8d8241c4aa9e2f63a2c25e53-ao-24" stroke="#2D2D2D" width="185.71429" x="458.2858" y="877.00006"/>
  <rect fill="#FFEBA2" height="31.42857" id="509e231b8d8241c4aa9e2f63a2c25e53-ao-25" stroke="#2D2D2D" width="305.7143" x="958.28583" y="917.00006"/>
  <rect fill="#FFEBA2" height="31.42857" id="509e231b8d8241c4aa9e2f63a2c25e53-ao-26" stroke="#2D2D2D" width="131.42858" x="495.42866" y="951.28577"/>
  <rect fill="#FFEBA2" height="28.57143" id="509e231b8d8241c4aa9e2f63a2c25e53-ao-27" stroke="#2D2D2D" width="282.85716" x="944.00011" y="962.71435"/>
  <rect fill="#FFEBA2" height="31.42857" id="509e231b8d8241c4aa9e2f63a2c25e53-ao-28" stroke="#2D2D2D" width="277.14287" x="926.85725" y="1008.42863"/>
  <rect fill="#FFEBA2" height="28.57143" id="509e231b8d8241c4aa9e2f63a2c25e53-ao-29" stroke="#2D2D2D" width="128.57143" x="909.7144" y="1057.00006"/>
  <rect fill="#FFEBA2" height="51.42857" id="509e231b8d8241c4aa9e2f63a2c25e53-ao-30" stroke="#2D2D2D" width="225.7143" x="309.71437" y="1174.14293"/>
  <rect fill="#FFEBA2" height="31.42857" id="509e231b8d8241c4aa9e2f63a2c25e53-ao-31" stroke="#2D2D2D" width="194.28572" x="749.71439" y="1262.71436"/>
  <rect fill="#FFEBA2" height="31.42857" id="509e231b8d8241c4aa9e2f63a2c25e53-ao-32" stroke="#2D2D2D" width="177.14287" x="249.71437" y="1242.71436"/>
  <rect fill="#FFEBA2" height="51.42857" id="509e231b8d8241c4aa9e2f63a2c25e53-ao-33" stroke="#2D2D2D" width="208.57144" x="749.71439" y="1311.28579"/>
  <rect fill="#FFEBA2" height="28.57143" id="509e231b8d8241c4aa9e2f63a2c25e53-ao-34" stroke="#2D2D2D" width="214.28572" x="166.85722" y="1285.5715"/>
  <rect fill="#FFEBA2" height="31.42857" id="509e231b8d8241c4aa9e2f63a2c25e53-ao-35" stroke="#2D2D2D" width="257.14287" x="726.85725" y="1391.28579"/>
  <rect fill="#FFEBA2" height="31.42857" id="509e231b8d8241c4aa9e2f63a2c25e53-ao-36" stroke="#2D2D2D" width="202.85715" x="149.71436" y="1348.42865"/>
  <rect fill="#FFEBA2" height="34.28572" id="509e231b8d8241c4aa9e2f63a2c25e53-ao-37" stroke="#2D2D2D" width="191.42858" x="689.71439" y="1431.28579"/>
  <rect fill="#FFEBA2" height="28.57143" id="509e231b8d8241c4aa9e2f63a2c25e53-ao-38" stroke="#2D2D2D" width="222.85715" x="138.28579" y="1425.57151"/>
  <rect fill="#FFEBA2" height="31.42857" id="509e231b8d8241c4aa9e2f63a2c25e53-ao-39" stroke="#2D2D2D" width="311.42859" x="669.71439" y="1482.71437"/>
  <rect fill="#FFEBA2" height="31.42857" id="509e231b8d8241c4aa9e2f63a2c25e53-ao-40" stroke="#2D2D2D" width="282.85716" x="658.28581" y="1559.85723"/>
 </g>
</svg>