<svg height="1587" width="1535.9999999999998" xmlns="http://www.w3.org/2000/svg">
 <!-- Created with Image Occlusion Enhanced -->
 <g>
  <title>Labels</title>
 </g>
 <g>
  <title>Masks</title>
  <rect fill="#FFEBA2" height="28.57143" id="53138c2f917b4fa0b0638c82587362e0-ao-1" stroke="#2D2D2D" width="345.7143" x="941.14297" y="21.57134"/>
  <rect fill="#FFEBA2" height="25.71429" id="53138c2f917b4fa0b0638c82587362e0-ao-2" stroke="#2D2D2D" width="220.00001" x="966.85726" y="121.57135"/>
  <rect fill="#FFEBA2" height="51.42857" id="53138c2f917b4fa0b0638c82587362e0-ao-3" stroke="#2D2D2D" width="345.7143" x="212.57151" y="187.28563"/>
  <rect fill="#FFEBA2" height="34.28572" id="53138c2f917b4fa0b0638c82587362e0-ao-4" stroke="#2D2D2D" width="168.57144" x="966.85726" y="161.57135"/>
  <rect fill="#FFEBA2" height="28.57143" id="53138c2f917b4fa0b0638c82587362e0-ao-5" stroke="#2D2D2D" width="180.00001" x="972.57154" y="218.71421"/>
  <rect fill="#FFEBA2" height="31.42857" id="53138c2f917b4fa0b0638c82587362e0-ao-6" stroke="#2D2D2D" width="377.14287" x="221.14294" y="324.4285"/>
  <rect fill="#FFEBA2" height="34.28572" id="53138c2f917b4fa0b0638c82587362e0-ao-7" stroke="#2D2D2D" width="208.57144" x="984.00011" y="312.99993"/>
  <rect fill="#FFEBA2" height="28.57143" id="53138c2f917b4fa0b0638c82587362e0-ao-8" stroke="#2D2D2D" width="171.42858" x="992.57154" y="407.28564"/>
  <rect fill="#FFEBA2" height="31.42857" id="53138c2f917b4fa0b0638c82587362e0-ao-9" stroke="#2D2D2D" width="334.28573" x="286.85723" y="427.28565"/>
  <rect fill="#FFEBA2" height="28.57143" id="53138c2f917b4fa0b0638c82587362e0-ao-10" stroke="#2D2D2D" width="302.85716" x="1001.14297" y="504.42851"/>
  <rect fill="#FFEBA2" height="28.57143" id="53138c2f917b4fa0b0638c82587362e0-ao-11" stroke="#2D2D2D" width="394.28573" x="235.42865" y="570.14279"/>
  <rect fill="#FFEBA2" height="31.42857" id="53138c2f917b4fa0b0638c82587362e0-ao-12" stroke="#2D2D2D" width="214.28572" x="1024.00012" y="598.71422"/>
  <rect fill="#FFEBA2" height="31.42857" id="53138c2f917b4fa0b0638c82587362e0-ao-13" stroke="#2D2D2D" width="291.42858" x="344.00009" y="650.1428"/>
  <rect fill="#FFEBA2" height="34.28572" id="53138c2f917b4fa0b0638c82587362e0-ao-14" stroke="#2D2D2D" width="285.7143" x="1029.7144" y="692.99994"/>
  <rect fill="#FFEBA2" height="31.42857" id="53138c2f917b4fa0b0638c82587362e0-ao-15" stroke="#2D2D2D" width="220.00001" x="421.14295" y="727.28566"/>
  <rect fill="#FFEBA2" height="28.57143" id="53138c2f917b4fa0b0638c82587362e0-ao-16" stroke="#2D2D2D" width="54.28572" x="595.42867" y="804.42852"/>
  <rect fill="#FFEBA2" height="31.42857" id="53138c2f917b4fa0b0638c82587362e0-ao-17" stroke="#2D2D2D" width="82.85715" x="1038.28583" y="810.14281"/>
  <rect fill="#FFEBA2" height="31.42857" id="53138c2f917b4fa0b0638c82587362e0-ao-18" stroke="#2D2D2D" width="342.85716" x="338.2858" y="910.14281"/>
  <rect fill="#FFEBA2" height="31.42857" id="53138c2f917b4fa0b0638c82587362e0-ao-19" stroke="#2D2D2D" width="217.14287" x="1055.42869" y="932.99995"/>
  <rect fill="#FFEBA2" height="28.57143" id="53138c2f917b4fa0b0638c82587362e0-ao-20" stroke="#2D2D2D" width="337.14287" x="315.42866" y="1010.14281"/>
  <rect fill="#FFEBA2" height="31.42857" id="53138c2f917b4fa0b0638c82587362e0-ao-21" stroke="#2D2D2D" width="305.7143" x="1081.14298" y="1047.28567"/>
  <rect fill="#FFEBA2" height="31.42857" id="53138c2f917b4fa0b0638c82587362e0-ao-22" stroke="#2D2D2D" width="271.42858" x="395.42866" y="1104.42853"/>
  <rect fill="#FFEBA2" height="31.42857" id="53138c2f917b4fa0b0638c82587362e0-ao-23" stroke="#2D2D2D" width="300.00001" x="1086.85726" y="1192.99997"/>
  <rect class="qshape" fill="#FF7E7E" height="28.57143" id="53138c2f917b4fa0b0638c82587362e0-ao-24" stroke="#2D2D2D" width="394.28573" x="258.2858" y="1204.42854"/>
  <rect fill="#FFEBA2" height="31.42857" id="53138c2f917b4fa0b0638c82587362e0-ao-25" stroke="#2D2D2D" width="302.85716" x="1086.85726" y="1301.5714"/>
  <rect fill="#FFEBA2" height="31.42857" id="53138c2f917b4fa0b0638c82587362e0-ao-26" stroke="#2D2D2D" width="274.28573" x="352.57151" y="1301.5714"/>
  <rect fill="#FFEBA2" height="28.57143" id="53138c2f917b4fa0b0638c82587362e0-ao-27" stroke="#2D2D2D" width="217.14287" x="1089.7144" y="1387.28569"/>
  <rect fill="#FFEBA2" height="31.42857" id="53138c2f917b4fa0b0638c82587362e0-ao-28" stroke="#2D2D2D" width="382.85716" x="269.71437" y="1424.42855"/>
 </g>
</svg>