<svg height="894.0000000000001" width="678" xmlns="http://www.w3.org/2000/svg">
 <!-- Created with Image Occlusion Enhanced -->
 <g>
  <title>Labels</title>
 </g>
 <g>
  <title>Masks</title>
  
  <rect fill="#FFEBA2" height="25" id="532887ab5621402e939d2d50c9033bae-ao-2" stroke="#2D2D2D" width="235" x="195.74996" y="78.49998"/>
  <rect fill="#FFEBA2" height="25" id="532887ab5621402e939d2d50c9033bae-ao-3" stroke="#2D2D2D" width="127.5" x="250.74996" y="108.49998"/>
  <rect fill="#FFEBA2" height="22.5" id="532887ab5621402e939d2d50c9033bae-ao-4" stroke="#2D2D2D" width="70" x="298.24995" y="135.99998"/>
  <rect fill="#FFEBA2" height="25" id="532887ab5621402e939d2d50c9033bae-ao-5" stroke="#2D2D2D" width="120" x="358.24995" y="165.99998"/>
  <rect fill="#FFEBA2" height="25" id="532887ab5621402e939d2d50c9033bae-ao-6" stroke="#2D2D2D" width="140" x="405.74995" y="195.99998"/>
  <rect fill="#FFEBA2" height="20" id="532887ab5621402e939d2d50c9033bae-ao-7" stroke="#2D2D2D" width="72.5" x="458.24995" y="225.99998"/>
  <rect fill="#FFEBA2" height="25" id="532887ab5621402e939d2d50c9033bae-ao-8" stroke="#2D2D2D" width="100" x="515.74995" y="255.99998"/>
  <rect fill="#FFEBA2" height="30" id="532887ab5621402e939d2d50c9033bae-ao-9" stroke="#2D2D2D" width="130" x="273.24996" y="368.49998"/>
  <rect fill="#FFEBA2" height="55" id="532887ab5621402e939d2d50c9033bae-ao-10" stroke="#2D2D2D" width="175" x="260.74996" y="480.99998"/>
  <rect fill="#FFEBA2" height="22.5" id="532887ab5621402e939d2d50c9033bae-ao-11" stroke="#2D2D2D" width="135" x="285.74996" y="590.99997"/>
  <rect fill="#FFEBA2" height="52.5" id="532887ab5621402e939d2d50c9033bae-ao-12" stroke="#2D2D2D" width="187.5" x="450.74995" y="763.49997"/>
  <rect fill="#FFEBA2" height="20" id="532887ab5621402e939d2d50c9033bae-ao-13" stroke="#2D2D2D" width="65" x="155.74996" y="770.99997"/>
  <rect fill="#FFEBA2" height="20" id="532887ab5621402e939d2d50c9033bae-ao-14" stroke="#2D2D2D" width="130" x="130.74996" y="793.49997"/>
  <rect fill="#FFEBA2" height="22.5" id="532887ab5621402e939d2d50c9033bae-ao-15" stroke="#2D2D2D" width="182.5" x="423.24995" y="818.49997"/>
  <rect fill="#FFEBA2" height="20" id="532887ab5621402e939d2d50c9033bae-ao-16" stroke="#2D2D2D" width="65" x="228.24996" y="815.99997"/>
  <rect fill="#FFEBA2" height="22.5" id="532887ab5621402e939d2d50c9033bae-ao-17" stroke="#2D2D2D" width="105" x="383.24995" y="843.49997"/>
  <rect fill="#FFEBA2" height="25" id="532887ab5621402e939d2d50c9033bae-ao-18" stroke="#2D2D2D" width="117.5" x="205.74996" y="838.49997"/>
  <rect fill="#FFEBA2" height="25" id="532887ab5621402e939d2d50c9033bae-ao-19" stroke="#2D2D2D" width="140" x="348.24995" y="868.49997"/>
 </g>
</svg>