<svg height="1345" width="1535.9999999999998" xmlns="http://www.w3.org/2000/svg">
 <!-- Created with Image Occlusion Enhanced -->
 <g>
  <title>Labels</title>
 </g>
 <g>
  <title>Masks</title>
  <rect fill="#FFEBA2" height="45.71429" id="54785c9761924d4abdd9da216f3ed088-ao-1" stroke="#2D2D2D" width="265.7143" x="876.85725" y="9.28568"/>
  <rect fill="#FFEBA2" height="25.71429" id="54785c9761924d4abdd9da216f3ed088-ao-2" stroke="#2D2D2D" width="162.85715" x="499.71438" y="37.85711"/>
  <rect fill="#FFEBA2" height="28.57143" id="54785c9761924d4abdd9da216f3ed088-ao-3" stroke="#2D2D2D" width="120.00001" x="311.14294" y="86.42854"/>
  <rect fill="#FFEBA2" height="28.57143" id="54785c9761924d4abdd9da216f3ed088-ao-4" stroke="#2D2D2D" width="205.7143" x="962.57154" y="80.71426"/>
  <rect fill="#FFEBA2" height="25.71429" id="54785c9761924d4abdd9da216f3ed088-ao-5" stroke="#2D2D2D" width="174.28572" x="1008.28583" y="132.14283"/>
  <rect fill="#FFEBA2" height="31.42857" id="54785c9761924d4abdd9da216f3ed088-ao-6" stroke="#2D2D2D" width="265.7143" x="214.00008" y="160.71426"/>
  <rect fill="#FFEBA2" height="25.71429" id="54785c9761924d4abdd9da216f3ed088-ao-7" stroke="#2D2D2D" width="180.00001" x="1048.28583" y="180.71426"/>
  <rect fill="#FFEBA2" height="45.71429" id="54785c9761924d4abdd9da216f3ed088-ao-8" stroke="#2D2D2D" width="231.42858" x="194.00008" y="234.99998"/>
  <rect fill="#FFEBA2" height="28.57143" id="54785c9761924d4abdd9da216f3ed088-ao-9" stroke="#2D2D2D" width="240.00001" x="1074.00012" y="240.71427"/>
  <rect fill="#FFEBA2" height="25.71429" id="54785c9761924d4abdd9da216f3ed088-ao-10" stroke="#2D2D2D" width="177.14287" x="1179.71441" y="309.2857"/>
  <rect fill="#FFEBA2" height="100" id="54785c9761924d4abdd9da216f3ed088-ao-11" stroke="#2D2D2D" width="134.28572" x="142.5715" y="306.42855"/>
  <rect fill="#FFEBA2" height="28.57143" id="54785c9761924d4abdd9da216f3ed088-ao-12" stroke="#2D2D2D" width="194.28572" x="1185.4287" y="380.71427"/>
  <rect fill="#FFEBA2" height="68.57143" id="54785c9761924d4abdd9da216f3ed088-ao-13" stroke="#2D2D2D" width="185.71429" x="142.5715" y="452.14285"/>
  <rect fill="#FFEBA2" height="31.42857" id="54785c9761924d4abdd9da216f3ed088-ao-14" stroke="#2D2D2D" width="140.00001" x="1182.57155" y="474.99999"/>
  <rect fill="#FFEBA2" height="28.57143" id="54785c9761924d4abdd9da216f3ed088-ao-15" stroke="#2D2D2D" width="168.57144" x="1179.71441" y="540.71428"/>
  <rect fill="#FFEBA2" height="42.85714" id="54785c9761924d4abdd9da216f3ed088-ao-16" stroke="#2D2D2D" width="182.85715" x="194.00008" y="577.85714"/>
  <rect fill="#FFEBA2" height="45.71429" id="54785c9761924d4abdd9da216f3ed088-ao-17" stroke="#2D2D2D" width="220.00001" x="1179.71441" y="617.85714"/>
  <rect fill="#FFEBA2" height="31.42857" id="54785c9761924d4abdd9da216f3ed088-ao-18" stroke="#2D2D2D" width="200.00001" x="234.00008" y="669.28571"/>
  <rect fill="#FFEBA2" height="77.14286" id="54785c9761924d4abdd9da216f3ed088-ao-19" stroke="#2D2D2D" width="177.14287" x="1182.57155" y="706.42857"/>
  <rect fill="#FFEBA2" height="28.57143" id="54785c9761924d4abdd9da216f3ed088-ao-20" stroke="#2D2D2D" width="325.7143" x="148.28579" y="743.57143"/>
  <rect fill="#FFEBA2" height="28.57143" id="54785c9761924d4abdd9da216f3ed088-ao-21" stroke="#2D2D2D" width="234.28572" x="205.42865" y="812.14286"/>
  <rect fill="#FFEBA2" height="28.57143" id="54785c9761924d4abdd9da216f3ed088-ao-22" stroke="#2D2D2D" width="220.00001" x="1174.00012" y="826.42858"/>
  <rect fill="#FFEBA2" height="28.57143" id="54785c9761924d4abdd9da216f3ed088-ao-23" stroke="#2D2D2D" width="314.28573" x="145.42865" y="889.28572"/>
  
  <rect fill="#FFEBA2" height="28.57143" id="54785c9761924d4abdd9da216f3ed088-ao-25" stroke="#2D2D2D" width="271.42858" x="176.85722" y="955.00001"/>
  <rect fill="#FFEBA2" height="45.71429" id="54785c9761924d4abdd9da216f3ed088-ao-26" stroke="#2D2D2D" width="260.00001" x="1105.42869" y="960.7143"/>
  <rect fill="#FFEBA2" height="28.57143" id="54785c9761924d4abdd9da216f3ed088-ao-27" stroke="#2D2D2D" width="191.42858" x="334.00008" y="1029.28573"/>
  <rect fill="#FFEBA2" height="28.57143" id="54785c9761924d4abdd9da216f3ed088-ao-28" stroke="#2D2D2D" width="288.57144" x="1071.14298" y="1020.7143"/>
  <rect fill="#FFEBA2" height="28.57143" id="54785c9761924d4abdd9da216f3ed088-ao-29" stroke="#2D2D2D" width="240.00001" x="328.2858" y="1100.71431"/>
  <rect fill="#FFEBA2" height="28.57143" id="54785c9761924d4abdd9da216f3ed088-ao-30" stroke="#2D2D2D" width="182.85715" x="1065.42869" y="1063.57145"/>
  <rect fill="#FFEBA2" height="25.71429" id="54785c9761924d4abdd9da216f3ed088-ao-31" stroke="#2D2D2D" width="191.42858" x="1036.85726" y="1100.71431"/>
  <rect fill="#FFEBA2" height="31.42857" id="54785c9761924d4abdd9da216f3ed088-ao-32" stroke="#2D2D2D" width="225.7143" x="354.00009" y="1172.14288"/>
  <rect fill="#FFEBA2" height="25.71429" id="54785c9761924d4abdd9da216f3ed088-ao-33" stroke="#2D2D2D" width="134.28572" x="914.00011" y="1166.42859"/>
  <rect fill="#FFEBA2" height="48.57143" id="54785c9761924d4abdd9da216f3ed088-ao-34" stroke="#2D2D2D" width="262.85715" x="376.85723" y="1246.42859"/>
 </g>
</svg>