<svg height="772" width="1276.0000000000002" xmlns="http://www.w3.org/2000/svg">
 <!-- Created with Image Occlusion Enhanced -->
 <g>
  <title>Labels</title>
 </g>
 <g>
  <title>Masks</title>
  <rect fill="#FFEBA2" height="28.57143" id="557e17a824e14f4e97c90d32dc29fab5-ao-1" stroke="#2D2D2D" width="257.14285" x="968.28568" y="72.28567"/>
  <rect fill="#FFEBA2" height="48.57143" id="557e17a824e14f4e97c90d32dc29fab5-ao-2" stroke="#2D2D2D" width="254.28571" x="79.71427" y="100.85709"/>
  <rect fill="#FFEBA2" height="31.42857" id="557e17a824e14f4e97c90d32dc29fab5-ao-3" stroke="#2D2D2D" width="188.57143" x="1022.5714" y="180.85709"/>
  <rect class="qshape" fill="#FF7E7E" height="28.57143" id="557e17a824e14f4e97c90d32dc29fab5-ao-4" stroke="#2D2D2D" width="174.28571" x="105.42855" y="206.57138"/>
  <rect fill="#FFEBA2" height="48.57143" id="557e17a824e14f4e97c90d32dc29fab5-ao-5" stroke="#2D2D2D" width="217.14285" x="99.71427" y="249.42852"/>
  <rect fill="#FFEBA2" height="31.42857" id="557e17a824e14f4e97c90d32dc29fab5-ao-6" stroke="#2D2D2D" width="171.42857" x="1039.71425" y="300.85709"/>
  <rect fill="#FFEBA2" height="28.57143" id="557e17a824e14f4e97c90d32dc29fab5-ao-7" stroke="#2D2D2D" width="197.14285" x="99.71427" y="315.14281"/>
  <rect fill="#FFEBA2" height="31.42857" id="557e17a824e14f4e97c90d32dc29fab5-ao-8" stroke="#2D2D2D" width="148.57143" x="108.2857" y="357.99995"/>
  <rect fill="#FFEBA2" height="68.57143" id="557e17a824e14f4e97c90d32dc29fab5-ao-9" stroke="#2D2D2D" width="205.71428" x="51.14284" y="409.42852"/>
  <rect fill="#FFEBA2" height="31.42857" id="557e17a824e14f4e97c90d32dc29fab5-ao-10" stroke="#2D2D2D" width="205.71428" x="1019.71425" y="432.28566"/>
  <rect fill="#FFEBA2" height="94.28571" id="557e17a824e14f4e97c90d32dc29fab5-ao-11" stroke="#2D2D2D" width="268.57142" x="968.28568" y="492.28566"/>
  <rect fill="#FFEBA2" height="45.71429" id="557e17a824e14f4e97c90d32dc29fab5-ao-12" stroke="#2D2D2D" width="168.57143" x="59.71427" y="515.1428"/>
  <rect fill="#FFEBA2" height="28.57143" id="557e17a824e14f4e97c90d32dc29fab5-ao-13" stroke="#2D2D2D" width="194.28571" x="42.57141" y="649.42852"/>
  <rect fill="#FFEBA2" height="31.42857" id="557e17a824e14f4e97c90d32dc29fab5-ao-14" stroke="#2D2D2D" width="208.57143" x="876.85711" y="640.85709"/>
  <rect fill="#FFEBA2" height="45.71429" id="557e17a824e14f4e97c90d32dc29fab5-ao-15" stroke="#2D2D2D" width="154.28571" x="62.57141" y="715.1428"/>
 </g>
</svg>