<svg height="866" width="1535.9999999999998" xmlns="http://www.w3.org/2000/svg">
 <!-- Created with Image Occlusion Enhanced -->
 <g>
  <title>Labels</title>
 </g>
 <g>
  <title>Masks</title>
  <rect fill="#FFEBA2" height="51.42857" id="55c04cbe6c094dae908878909d850aa0-ao-1" stroke="#2D2D2D" width="125.71429" x="129.71436" y="126.8571"/>
  <rect fill="#FFEBA2" height="54.28572" id="55c04cbe6c094dae908878909d850aa0-ao-2" stroke="#2D2D2D" width="145.71429" x="1264.00013" y="195.42853"/>
  <rect fill="#FFEBA2" height="31.42857" id="55c04cbe6c094dae908878909d850aa0-ao-3" stroke="#2D2D2D" width="134.28572" x="129.71436" y="192.57139"/>
  
  <rect fill="#FFEBA2" height="25.71429" id="55c04cbe6c094dae908878909d850aa0-ao-5" stroke="#2D2D2D" width="62.85715" x="129.71436" y="241.14282"/>
  <rect fill="#FFEBA2" height="25.71429" id="55c04cbe6c094dae908878909d850aa0-ao-6" stroke="#2D2D2D" width="131.42858" x="1266.85727" y="441.14283"/>
  <rect fill="#FFEBA2" height="31.42857" id="55c04cbe6c094dae908878909d850aa0-ao-7" stroke="#2D2D2D" width="91.42858" x="126.85722" y="406.85712"/>
  <rect fill="#FFEBA2" height="48.57143" id="55c04cbe6c094dae908878909d850aa0-ao-8" stroke="#2D2D2D" width="94.28572" x="1266.85727" y="481.14283"/>
  <rect fill="#FFEBA2" height="57.14286" id="55c04cbe6c094dae908878909d850aa0-ao-9" stroke="#2D2D2D" width="137.14286" x="132.5715" y="489.71426"/>
  <rect fill="#FFEBA2" height="51.42857" id="55c04cbe6c094dae908878909d850aa0-ao-10" stroke="#2D2D2D" width="108.57143" x="1269.71441" y="535.42855"/>
  <rect fill="#FFEBA2" height="51.42857" id="55c04cbe6c094dae908878909d850aa0-ao-11" stroke="#2D2D2D" width="108.57143" x="132.5715" y="566.85712"/>
  <rect fill="#FFEBA2" height="57.14286" id="55c04cbe6c094dae908878909d850aa0-ao-12" stroke="#2D2D2D" width="117.14286" x="1266.85727" y="615.42855"/>
  <rect fill="#FFEBA2" height="51.42857" id="55c04cbe6c094dae908878909d850aa0-ao-13" stroke="#2D2D2D" width="102.85715" x="129.71436" y="635.42855"/>
  <rect fill="#FFEBA2" height="51.42857" id="55c04cbe6c094dae908878909d850aa0-ao-14" stroke="#2D2D2D" width="111.42858" x="1266.85727" y="681.14284"/>
  <rect fill="#FFEBA2" height="25.71429" id="55c04cbe6c094dae908878909d850aa0-ao-15" stroke="#2D2D2D" width="68.57143" x="132.5715" y="766.85713"/>
  <rect fill="#FFEBA2" height="51.42857" id="55c04cbe6c094dae908878909d850aa0-ao-16" stroke="#2D2D2D" width="145.71429" x="1264.00013" y="743.99999"/>
 </g>
</svg>