<svg height="786" width="1290" xmlns="http://www.w3.org/2000/svg">
 <!-- Created with Image Occlusion Enhanced -->
 <g>
  <title>Labels</title>
 </g>
 <g>
  <title>Masks</title>
  <rect fill="#FFEBA2" height="25" id="5a5fc4071ea24ae1ad62ccce6933b03a-ao-1" stroke="#2D2D2D" width="495.00001" x="188.74999" y="4.00002"/>
  <rect fill="#FFEBA2" height="25" id="5a5fc4071ea24ae1ad62ccce6933b03a-ao-2" stroke="#2D2D2D" width="227.5" x="823.75" y="6.50002"/>
  <rect fill="#FFEBA2" height="27.5" id="5a5fc4071ea24ae1ad62ccce6933b03a-ao-3" stroke="#2D2D2D" width="217.5" x="323.74999" y="59.00002"/>
  <rect fill="#FFEBA2" height="27.5" id="5a5fc4071ea24ae1ad62ccce6933b03a-ao-4" stroke="#2D2D2D" width="227.5" x="951.25001" y="64.00002"/>
  <rect fill="#FFEBA2" height="27.5" id="5a5fc4071ea24ae1ad62ccce6933b03a-ao-5" stroke="#2D2D2D" width="252.5" x="126.24999" y="116.50002"/>
  <rect fill="#FFEBA2" height="72.5" id="5a5fc4071ea24ae1ad62ccce6933b03a-ao-6" stroke="#2D2D2D" width="202.5" x="1071.25001" y="124.00002"/>
  <rect fill="#FFEBA2" height="47.5" id="5a5fc4071ea24ae1ad62ccce6933b03a-ao-7" stroke="#2D2D2D" width="102.5" x="121.24999" y="174.00002"/>
  <rect fill="#FFEBA2" height="72.5" id="5a5fc4071ea24ae1ad62ccce6933b03a-ao-8" stroke="#2D2D2D" width="205" x="16.24999" y="251.50002"/>
  <rect fill="#FFEBA2" height="47.5" id="5a5fc4071ea24ae1ad62ccce6933b03a-ao-9" stroke="#2D2D2D" width="202.5" x="13.74999" y="354.00002"/>
  <rect fill="#FFEBA2" height="47.5" id="5a5fc4071ea24ae1ad62ccce6933b03a-ao-10" stroke="#2D2D2D" width="152.5" x="51.24999" y="431.50002"/>
  <rect fill="#FFEBA2" height="47.5" id="5a5fc4071ea24ae1ad62ccce6933b03a-ao-11" stroke="#2D2D2D" width="150" x="71.24999" y="511.50003"/>
  <rect fill="#FFEBA2" height="25" id="5a5fc4071ea24ae1ad62ccce6933b03a-ao-12" stroke="#2D2D2D" width="295.00001" x="13.74999" y="589.00003"/>
  <rect fill="#FFEBA2" height="47.5" id="5a5fc4071ea24ae1ad62ccce6933b03a-ao-13" stroke="#2D2D2D" width="177.5" x="1063.75001" y="574.00003"/>
  <rect fill="#FFEBA2" height="27.5" id="5a5fc4071ea24ae1ad62ccce6933b03a-ao-14" stroke="#2D2D2D" width="287.50001" x="178.74999" y="644.00003"/>
  <rect fill="#FFEBA2" height="25" id="5a5fc4071ea24ae1ad62ccce6933b03a-ao-15" stroke="#2D2D2D" width="245" x="961.25001" y="636.50003"/>
  <rect fill="#FFEBA2" height="25" id="5a5fc4071ea24ae1ad62ccce6933b03a-ao-16" stroke="#2D2D2D" width="225" x="908.75001" y="676.50003"/>
  <rect fill="#FFEBA2" height="25" id="5a5fc4071ea24ae1ad62ccce6933b03a-ao-17" stroke="#2D2D2D" width="252.5" x="241.24999" y="706.50003"/>
  <rect fill="#FFEBA2" height="27.5" id="5a5fc4071ea24ae1ad62ccce6933b03a-ao-18" stroke="#2D2D2D" width="330.00001" x="803.75" y="714.00003"/>
  <rect fill="#FFEBA2" height="25" id="5a5fc4071ea24ae1ad62ccce6933b03a-ao-19" stroke="#2D2D2D" width="207.5" x="323.74999" y="759.00003"/>
  <rect class="qshape" fill="#FF7E7E" height="25" id="5a5fc4071ea24ae1ad62ccce6933b03a-ao-20" stroke="#2D2D2D" width="240" x="716.25" y="759.00003"/>
 </g>
</svg>