<svg height="644" width="1245" xmlns="http://www.w3.org/2000/svg">
 <!-- Created with Image Occlusion Enhanced -->
 <g>
  <title>Labels</title>
 </g>
 <g>
  <title>Masks</title>
  <rect fill="#FFEBA2" height="25" id="5b90a87f97d04ddfbf3cb32288706aa9-ao-1" stroke="#2D2D2D" width="55" x="268.75" y="0.99998"/>
  <rect fill="#FFEBA2" height="25" id="5b90a87f97d04ddfbf3cb32288706aa9-ao-2" stroke="#2D2D2D" width="180" x="91.25" y="33.49998"/>
  <rect fill="#FFEBA2" height="25" id="5b90a87f97d04ddfbf3cb32288706aa9-ao-3" stroke="#2D2D2D" width="220" x="28.75" y="83.49998"/>
  <rect fill="#FFEBA2" height="20" id="5b90a87f97d04ddfbf3cb32288706aa9-ao-4" stroke="#2D2D2D" width="167.5" x="393.75" y="95.99998"/>
  <rect fill="#FFEBA2" height="25" id="5b90a87f97d04ddfbf3cb32288706aa9-ao-5" stroke="#2D2D2D" width="195" x="13.75" y="120.99998"/>
  <rect fill="#FFEBA2" height="25" id="5b90a87f97d04ddfbf3cb32288706aa9-ao-6" stroke="#2D2D2D" width="212.5" x="733.75" y="110.99998"/>
  <rect fill="#FFEBA2" height="25" id="5b90a87f97d04ddfbf3cb32288706aa9-ao-7" stroke="#2D2D2D" width="115" x="38.75" y="163.49998"/>
  <rect class="qshape" fill="#FF7E7E" height="25" id="5b90a87f97d04ddfbf3cb32288706aa9-ao-8" stroke="#2D2D2D" width="215" x="446.25" y="158.49998"/>
  <rect fill="#FFEBA2" height="25" id="5b90a87f97d04ddfbf3cb32288706aa9-ao-9" stroke="#2D2D2D" width="142.5" x="788.75" y="145.99998"/>
  <rect fill="#FFEBA2" height="25" id="5b90a87f97d04ddfbf3cb32288706aa9-ao-10" stroke="#2D2D2D" width="357.5" x="878.75" y="180.99998"/>
  <rect fill="#FFEBA2" height="27.5" id="5b90a87f97d04ddfbf3cb32288706aa9-ao-11" stroke="#2D2D2D" width="82.5" x="36.25" y="213.49998"/>
  <rect fill="#FFEBA2" height="25" id="5b90a87f97d04ddfbf3cb32288706aa9-ao-12" stroke="#2D2D2D" width="117.5" x="886.25" y="218.49998"/>
  <rect fill="#FFEBA2" height="22.5" id="5b90a87f97d04ddfbf3cb32288706aa9-ao-13" stroke="#2D2D2D" width="115" x="883.75" y="305.99998"/>
  <rect fill="#FFEBA2" height="75" id="5b90a87f97d04ddfbf3cb32288706aa9-ao-14" stroke="#2D2D2D" width="85" x="58.75" y="368.49998"/>
  <rect fill="#FFEBA2" height="27.5" id="5b90a87f97d04ddfbf3cb32288706aa9-ao-15" stroke="#2D2D2D" width="160" x="883.75" y="335.99998"/>
  <rect fill="#FFEBA2" height="22.5" id="5b90a87f97d04ddfbf3cb32288706aa9-ao-16" stroke="#2D2D2D" width="165" x="883.75" y="388.49998"/>
  <rect fill="#FFEBA2" height="25" id="5b90a87f97d04ddfbf3cb32288706aa9-ao-17" stroke="#2D2D2D" width="207.5" x="881.25" y="425.99998"/>
  <rect fill="#FFEBA2" height="22.5" id="5b90a87f97d04ddfbf3cb32288706aa9-ao-18" stroke="#2D2D2D" stroke-dasharray="null" stroke-linecap="null" stroke-linejoin="null" width="105" x="883.75" y="463.49998"/>
  <rect fill="#FFEBA2" height="25" id="5b90a87f97d04ddfbf3cb32288706aa9-ao-19" stroke="#2D2D2D" stroke-dasharray="null" stroke-linecap="null" stroke-linejoin="null" width="155" x="883.75" y="495.99998"/>
  <rect fill="#FFEBA2" height="25" id="5b90a87f97d04ddfbf3cb32288706aa9-ao-20" stroke="#2D2D2D" stroke-dasharray="null" stroke-linecap="null" stroke-linejoin="null" width="220" x="883.75" y="533.49998"/>
  <rect fill="#FFEBA2" height="25" id="5b90a87f97d04ddfbf3cb32288706aa9-ao-21" stroke="#2D2D2D" stroke-dasharray="null" stroke-linecap="null" stroke-linejoin="null" width="117.5" x="883.75" y="568.49998"/>
  <rect fill="#FFEBA2" height="25" id="5b90a87f97d04ddfbf3cb32288706aa9-ao-22" stroke="#2D2D2D" stroke-dasharray="null" stroke-linecap="null" stroke-linejoin="null" width="215" x="883.75" y="608.49998"/>
 </g>
</svg>