<svg height="968" width="1124" xmlns="http://www.w3.org/2000/svg">
 <!-- Created with Image Occlusion Enhanced -->
 <g>
  <title>Labels</title>
 </g>
 <g>
  <title>Masks</title>
  <rect fill="#FFEBA2" height="25.71429" id="5ca4b645a98f4b2fa45e51e70537e335-ao-1" stroke="#2D2D2D" width="302.85715" x="503.14288" y="12.00004"/>
  <rect fill="#FFEBA2" height="48.57143" id="5ca4b645a98f4b2fa45e51e70537e335-ao-2" stroke="#2D2D2D" width="120" x="66.00001" y="37.71432"/>
  <rect fill="#FFEBA2" height="28.57143" id="5ca4b645a98f4b2fa45e51e70537e335-ao-3" stroke="#2D2D2D" width="260.00001" x="506.00002" y="63.42861"/>
  <rect fill="#FFEBA2" height="28.57143" id="5ca4b645a98f4b2fa45e51e70537e335-ao-4" stroke="#2D2D2D" width="117.14286" x="66.00001" y="114.85718"/>
  <rect fill="#FFEBA2" height="31.42857" id="5ca4b645a98f4b2fa45e51e70537e335-ao-5" stroke="#2D2D2D" width="325.7143" x="506.00002" y="132.00004"/>
  <rect fill="#FFEBA2" height="51.42857" id="5ca4b645a98f4b2fa45e51e70537e335-ao-6" stroke="#2D2D2D" width="288.57144" x="528.85717" y="186.28576"/>
  <rect fill="#FFEBA2" height="28.57143" id="5ca4b645a98f4b2fa45e51e70537e335-ao-7" stroke="#2D2D2D" width="251.42858" x="591.71431" y="243.42862"/>
  <rect fill="#FFEBA2" height="51.42857" id="5ca4b645a98f4b2fa45e51e70537e335-ao-8" stroke="#2D2D2D" width="117.14286" x="63.14287" y="257.71433"/>
  <rect fill="#FFEBA2" height="28.57143" id="5ca4b645a98f4b2fa45e51e70537e335-ao-9" stroke="#2D2D2D" width="222.85715" x="668.85717" y="297.71433"/>
  <rect fill="#FFEBA2" height="45.71429" id="5ca4b645a98f4b2fa45e51e70537e335-ao-10" stroke="#2D2D2D" width="188.57144" x="717.4286" y="349.1429"/>
  <rect fill="#FFEBA2" height="51.42857" id="5ca4b645a98f4b2fa45e51e70537e335-ao-11" stroke="#2D2D2D" width="91.42857" x="63.14287" y="449.14291"/>
  <rect fill="#FFEBA2" height="77.14286" id="5ca4b645a98f4b2fa45e51e70537e335-ao-12" stroke="#2D2D2D" width="200.00001" x="911.71432" y="400.57148"/>
  <rect fill="#FFEBA2" height="100" id="5ca4b645a98f4b2fa45e51e70537e335-ao-13" stroke="#2D2D2D" width="154.28572" x="68.85715" y="532.00005"/>
  <rect fill="#FFEBA2" height="28.57143" id="5ca4b645a98f4b2fa45e51e70537e335-ao-14" stroke="#2D2D2D" width="122.85715" x="960.28575" y="537.71434"/>
  
  <rect fill="#FFEBA2" height="54.28572" id="5ca4b645a98f4b2fa45e51e70537e335-ao-16" stroke="#2D2D2D" width="120" x="103.14287" y="672.00006"/>
  <rect fill="#FFEBA2" height="48.57143" id="5ca4b645a98f4b2fa45e51e70537e335-ao-17" stroke="#2D2D2D" width="120" x="60.28572" y="749.14292"/>
 </g>
</svg>