<svg height="877" width="1220" xmlns="http://www.w3.org/2000/svg">
 <!-- Created with Image Occlusion Enhanced -->
 <g>
  <title>Labels</title>
 </g>
 <g>
  <title>Masks</title>
  <rect fill="#FFEBA2" height="28.57143" id="5f99e7ed90994b6ea8dd49c295ef8626-ao-1" stroke="#2D2D2D" width="220" x="214.28571" y="80.1428"/>
  <rect fill="#FFEBA2" height="31.42857" id="5f99e7ed90994b6ea8dd49c295ef8626-ao-2" stroke="#2D2D2D" width="60" x="700" y="82.99995"/>
  <rect fill="#FFEBA2" height="54.28571" id="5f99e7ed90994b6ea8dd49c295ef8626-ao-3" stroke="#2D2D2D" width="234.28571" x="154.28571" y="122.99995"/>
  <rect fill="#FFEBA2" height="51.42857" id="5f99e7ed90994b6ea8dd49c295ef8626-ao-4" stroke="#2D2D2D" width="345.71429" x="37.14286" y="194.42852"/>
  <rect fill="#FFEBA2" height="34.28571" id="5f99e7ed90994b6ea8dd49c295ef8626-ao-5" stroke="#2D2D2D" width="217.14286" x="811.42857" y="211.57138"/>
  <rect fill="#FFEBA2" height="28.57143" id="5f99e7ed90994b6ea8dd49c295ef8626-ao-6" stroke="#2D2D2D" width="171.42857" x="817.14286" y="260.1428"/>
  <rect fill="#FFEBA2" height="28.57143" id="5f99e7ed90994b6ea8dd49c295ef8626-ao-7" stroke="#2D2D2D" width="180" x="197.14286" y="297.28566"/>
  <rect fill="#FFEBA2" height="51.42857" id="5f99e7ed90994b6ea8dd49c295ef8626-ao-8" stroke="#2D2D2D" width="180" x="817.14286" y="300.1428"/>
  <rect fill="#FFEBA2" height="31.42857" id="5f99e7ed90994b6ea8dd49c295ef8626-ao-9" stroke="#2D2D2D" width="197.14286" x="191.42857" y="340.1428"/>
  <rect fill="#FFEBA2" height="28.57143" id="5f99e7ed90994b6ea8dd49c295ef8626-ao-10" stroke="#2D2D2D" width="214.28571" x="811.42857" y="371.57138"/>
  <rect fill="#FFEBA2" height="28.57143" id="5f99e7ed90994b6ea8dd49c295ef8626-ao-11" stroke="#2D2D2D" width="260" x="117.14286" y="394.42852"/>
  <rect fill="#FFEBA2" height="31.42857" id="5f99e7ed90994b6ea8dd49c295ef8626-ao-12" stroke="#2D2D2D" width="177.14286" x="814.28571" y="414.42852"/>
  <rect fill="#FFEBA2" height="28.57143" id="5f99e7ed90994b6ea8dd49c295ef8626-ao-13" stroke="#2D2D2D" width="54.28571" x="322.85714" y="454.42852"/>
  <rect fill="#FFEBA2" height="25.71429" id="5f99e7ed90994b6ea8dd49c295ef8626-ao-14" stroke="#2D2D2D" width="294.28571" x="808.57143" y="457.28566"/>
  <rect fill="#FFEBA2" height="31.42857" id="5f99e7ed90994b6ea8dd49c295ef8626-ao-15" stroke="#2D2D2D" width="305.71429" x="77.14286" y="514.42852"/>
  <rect fill="#FFEBA2" height="28.57143" id="5f99e7ed90994b6ea8dd49c295ef8626-ao-16" stroke="#2D2D2D" width="274.28571" x="805.71429" y="500.1428"/>
  <rect fill="#FFEBA2" height="28.57143" id="5f99e7ed90994b6ea8dd49c295ef8626-ao-17" stroke="#2D2D2D" width="185.71429" x="802.85714" y="548.71423"/>
  <rect fill="#FFEBA2" height="28.57143" id="5f99e7ed90994b6ea8dd49c295ef8626-ao-18" stroke="#2D2D2D" width="220" x="160" y="571.57138"/>
  <rect fill="#FFEBA2" height="28.57143" id="5f99e7ed90994b6ea8dd49c295ef8626-ao-19" stroke="#2D2D2D" width="305.71429" x="802.85714" y="588.71423"/>
  <rect fill="#FFEBA2" height="28.57143" id="5f99e7ed90994b6ea8dd49c295ef8626-ao-20" stroke="#2D2D2D" width="202.85714" x="171.42857" y="628.71423"/>
  <rect class="qshape" fill="#FF7E7E" height="28.57143" id="5f99e7ed90994b6ea8dd49c295ef8626-ao-21" stroke="#2D2D2D" width="300" x="797.14286" y="628.71423"/>
  <rect fill="#FFEBA2" height="28.57143" id="5f99e7ed90994b6ea8dd49c295ef8626-ao-22" stroke="#2D2D2D" width="251.42857" x="797.14286" y="674.42852"/>
  <rect fill="#FFEBA2" height="31.42857" id="5f99e7ed90994b6ea8dd49c295ef8626-ao-23" stroke="#2D2D2D" width="234.28571" x="145.71429" y="682.99995"/>
  <rect fill="#FFEBA2" height="31.42857" id="5f99e7ed90994b6ea8dd49c295ef8626-ao-24" stroke="#2D2D2D" width="240" x="788.57143" y="711.57138"/>
  <rect fill="#FFEBA2" height="28.57143" id="5f99e7ed90994b6ea8dd49c295ef8626-ao-25" stroke="#2D2D2D" width="100" x="280" y="742.99995"/>
  <rect fill="#FFEBA2" height="51.42857" id="5f99e7ed90994b6ea8dd49c295ef8626-ao-26" stroke="#2D2D2D" width="208.57143" x="782.85714" y="760.1428"/>
  <rect fill="#FFEBA2" height="31.42857" id="5f99e7ed90994b6ea8dd49c295ef8626-ao-27" stroke="#2D2D2D" width="285.71429" x="782.85714" y="831.57138"/>
 </g>
</svg>