<svg height="642" width="1535.9999999999998" xmlns="http://www.w3.org/2000/svg">
 <!-- Created with Image Occlusion Enhanced -->
 <g>
  <title>Labels</title>
 </g>
 <g>
  <title>Masks</title>
  <rect fill="#FFEBA2" height="31.42857" id="60f2fe0b09e64f148ae652622efd1834-ao-1" stroke="#2D2D2D" width="202.85715" x="725.42867" y="13.71428"/>
  <rect fill="#FFEBA2" height="34.28572" id="60f2fe0b09e64f148ae652622efd1834-ao-2" stroke="#2D2D2D" width="174.28572" x="476.85723" y="28"/>
  <rect fill="#FFEBA2" height="31.42857" id="60f2fe0b09e64f148ae652622efd1834-ao-3" stroke="#2D2D2D" width="502.85717" x="814.00011" y="50.85714"/>
  <rect fill="#FFEBA2" height="34.28572" id="60f2fe0b09e64f148ae652622efd1834-ao-4" stroke="#2D2D2D" width="194.28572" x="314.00008" y="99.42857"/>
  <rect fill="#FFEBA2" height="31.42857" id="60f2fe0b09e64f148ae652622efd1834-ao-5" stroke="#2D2D2D" width="448.57145" x="871.14297" y="88"/>
  <rect fill="#FFEBA2" height="54.28572" id="60f2fe0b09e64f148ae652622efd1834-ao-6" stroke="#2D2D2D" width="228.57144" x="225.42865" y="150.85715"/>
  <rect fill="#FFEBA2" height="31.42857" id="60f2fe0b09e64f148ae652622efd1834-ao-7" stroke="#2D2D2D" width="137.14286" x="954.00011" y="125.14286"/>
  <rect fill="#FFEBA2" height="74.28572" id="60f2fe0b09e64f148ae652622efd1834-ao-8" stroke="#2D2D2D" width="217.14287" x="1202.57155" y="179.42858"/>
  <rect fill="#FFEBA2" height="57.14286" id="60f2fe0b09e64f148ae652622efd1834-ao-9" stroke="#2D2D2D" width="182.85715" x="188.28579" y="222.28572"/>
  <rect fill="#FFEBA2" height="62.85715" id="60f2fe0b09e64f148ae652622efd1834-ao-10" stroke="#2D2D2D" width="185.71429" x="1202.57155" y="282.28573"/>
  <rect class="qshape" fill="#FF7E7E" height="77.14286" id="60f2fe0b09e64f148ae652622efd1834-ao-11" stroke="#2D2D2D" width="205.7143" x="174.00008" y="299.42858"/>
  <rect fill="#FFEBA2" height="37.14286" id="60f2fe0b09e64f148ae652622efd1834-ao-12" stroke="#2D2D2D" width="242.85715" x="1154.00012" y="382.28573"/>
  <rect fill="#FFEBA2" height="34.28572" id="60f2fe0b09e64f148ae652622efd1834-ao-13" stroke="#2D2D2D" width="202.85715" x="128.28579" y="399.42859"/>
  <rect fill="#FFEBA2" height="34.28572" id="60f2fe0b09e64f148ae652622efd1834-ao-14" stroke="#2D2D2D" width="277.14287" x="1108.28583" y="493.71431"/>
  <rect fill="#FFEBA2" height="34.28572" id="60f2fe0b09e64f148ae652622efd1834-ao-15" stroke="#2D2D2D" width="205.7143" x="179.71436" y="522.28574"/>
  <rect fill="#FFEBA2" height="34.28572" id="60f2fe0b09e64f148ae652622efd1834-ao-16" stroke="#2D2D2D" width="280.00001" x="1088.28583" y="550.85717"/>
  <rect fill="#FFEBA2" height="31.42857" id="60f2fe0b09e64f148ae652622efd1834-ao-17" stroke="#2D2D2D" width="185.71429" x="1019.7144" y="602.28574"/>
 </g>
</svg>