<svg height="929" width="1315" xmlns="http://www.w3.org/2000/svg">
 <!-- Created with Image Occlusion Enhanced -->
 <g>
  <title>Labels</title>
 </g>
 <g>
  <title>Masks</title>
  <rect fill="#FFEBA2" height="45.71429" id="64436f0895304662ba7d6867e7e12b59-ao-1" stroke="#2D2D2D" width="102.85714" x="1187.85715" y="126.71431"/>
  <rect fill="#FFEBA2" height="28.57143" id="64436f0895304662ba7d6867e7e12b59-ao-2" stroke="#2D2D2D" width="122.85715" x="379.28571" y="172.42859"/>
  <rect fill="#FFEBA2" height="57.14286" id="64436f0895304662ba7d6867e7e12b59-ao-3" stroke="#2D2D2D" width="71.42857" x="1216.42858" y="218.14288"/>
  <rect fill="#FFEBA2" height="48.57143" id="64436f0895304662ba7d6867e7e12b59-ao-4" stroke="#2D2D2D" width="245.71429" x="170.71428" y="252.42859"/>
  <rect fill="#FFEBA2" height="28.57143" id="64436f0895304662ba7d6867e7e12b59-ao-5" stroke="#2D2D2D" width="354.28572" x="79.2857" y="349.57145"/>
  <rect fill="#FFEBA2" height="28.57143" id="64436f0895304662ba7d6867e7e12b59-ao-6" stroke="#2D2D2D" width="165.71429" x="276.42856" y="412.4286"/>
  <rect fill="#FFEBA2" height="51.42857" id="64436f0895304662ba7d6867e7e12b59-ao-7" stroke="#2D2D2D" width="251.42858" x="162.14285" y="463.85717"/>
  <rect fill="#FFEBA2" height="48.57143" id="64436f0895304662ba7d6867e7e12b59-ao-8" stroke="#2D2D2D" width="117.14286" x="1147.85715" y="543.85717"/>
  <rect fill="#FFEBA2" height="31.42857" id="64436f0895304662ba7d6867e7e12b59-ao-9" stroke="#2D2D2D" width="85.71429" x="299.28571" y="546.71431"/>
  <rect class="qshape" fill="#FF7E7E" height="54.28572" id="64436f0895304662ba7d6867e7e12b59-ao-10" stroke="#2D2D2D" width="257.14286" x="99.2857" y="592.4286"/>
  <rect fill="#FFEBA2" height="51.42857" id="64436f0895304662ba7d6867e7e12b59-ao-11" stroke="#2D2D2D" width="151.42857" x="1145.00001" y="638.14289"/>
  <rect fill="#FFEBA2" height="25.71429" id="64436f0895304662ba7d6867e7e12b59-ao-12" stroke="#2D2D2D" width="74.28572" x="313.57142" y="666.71432"/>
  <rect fill="#FFEBA2" height="28.57143" id="64436f0895304662ba7d6867e7e12b59-ao-13" stroke="#2D2D2D" width="251.42858" x="179.28571" y="723.85717"/>
  <rect fill="#FFEBA2" height="51.42857" id="64436f0895304662ba7d6867e7e12b59-ao-14" stroke="#2D2D2D" width="168.57143" x="1107.85715" y="721.00003"/>
  <rect fill="#FFEBA2" height="48.57143" id="64436f0895304662ba7d6867e7e12b59-ao-15" stroke="#2D2D2D" width="305.71429" x="222.14285" y="766.71432"/>
  <rect fill="#FFEBA2" height="45.71429" id="64436f0895304662ba7d6867e7e12b59-ao-16" stroke="#2D2D2D" width="262.85715" x="1005.00001" y="835.28575"/>
  <rect fill="#FFEBA2" height="45.71429" id="64436f0895304662ba7d6867e7e12b59-ao-17" stroke="#2D2D2D" width="454.28572" x="207.85713" y="838.14289"/>
  <rect fill="#FFEBA2" height="28.57143" id="64436f0895304662ba7d6867e7e12b59-ao-18" stroke="#2D2D2D" width="85.71429" x="725" y="863.85718"/>
 </g>
</svg>