<svg height="1509" width="1287" xmlns="http://www.w3.org/2000/svg">
 <!-- Created with Image Occlusion Enhanced -->
 <g>
  <title>Labels</title>
 </g>
 <g>
  <title>Masks</title>
  <rect fill="#FFEBA2" height="31.42857" id="65003893221c40a5b21437b41d72f220-ao-1" stroke="#2D2D2D" width="391.42856" x="102.99996" y="20.99992"/>
  <rect fill="#FFEBA2" height="68.57143" id="65003893221c40a5b21437b41d72f220-ao-2" stroke="#2D2D2D" width="97.14285" x="557.28566" y="55.28563"/>
  <rect fill="#FFEBA2" height="28.57143" id="65003893221c40a5b21437b41d72f220-ao-3" stroke="#2D2D2D" width="171.42857" x="802.99994" y="69.57134"/>
  <rect fill="#FFEBA2" height="25.71429" id="65003893221c40a5b21437b41d72f220-ao-4" stroke="#2D2D2D" width="117.14285" x="851.57137" y="163.85705"/>
  <rect fill="#FFEBA2" height="28.57143" id="65003893221c40a5b21437b41d72f220-ao-5" stroke="#2D2D2D" width="208.57142" x="68.71425" y="300.99991"/>
  <rect fill="#FFEBA2" height="48.57143" id="65003893221c40a5b21437b41d72f220-ao-6" stroke="#2D2D2D" width="248.57142" x="965.85708" y="292.42848"/>
  <rect fill="#FFEBA2" height="48.57143" id="65003893221c40a5b21437b41d72f220-ao-7" stroke="#2D2D2D" width="214.28571" x="151.57139" y="378.14276"/>
  <rect fill="#FFEBA2" height="51.42857" id="65003893221c40a5b21437b41d72f220-ao-8" stroke="#2D2D2D" width="231.42857" x="948.71423" y="426.71419"/>
  <rect fill="#FFEBA2" height="31.42857" id="65003893221c40a5b21437b41d72f220-ao-9" stroke="#2D2D2D" width="234.28571" x="942.99994" y="515.28562"/>
  <rect fill="#FFEBA2" height="25.71429" id="65003893221c40a5b21437b41d72f220-ao-10" stroke="#2D2D2D" width="219.99999" x="162.99996" y="520.9999"/>
  <rect fill="#FFEBA2" height="28.57143" id="65003893221c40a5b21437b41d72f220-ao-11" stroke="#2D2D2D" width="222.85714" x="911.57137" y="598.14276"/>
  <rect fill="#FFEBA2" height="28.57143" id="65003893221c40a5b21437b41d72f220-ao-12" stroke="#2D2D2D" width="231.42857" x="151.57139" y="638.14276"/>
  <rect fill="#FFEBA2" height="28.57143" id="65003893221c40a5b21437b41d72f220-ao-13" stroke="#2D2D2D" width="171.42857" x="922.99994" y="675.28561"/>
  <rect fill="#FFEBA2" height="25.71429" id="65003893221c40a5b21437b41d72f220-ao-14" stroke="#2D2D2D" width="197.14285" x="922.99994" y="746.71418"/>
  <rect fill="#FFEBA2" height="28.57143" id="65003893221c40a5b21437b41d72f220-ao-15" stroke="#2D2D2D" width="231.42857" x="142.99996" y="835.28561"/>
  <rect fill="#FFEBA2" height="28.57143" id="65003893221c40a5b21437b41d72f220-ao-16" stroke="#2D2D2D" width="225.71428" x="920.1428" y="835.28561"/>
  <rect fill="#FFEBA2" height="51.42857" id="65003893221c40a5b21437b41d72f220-ao-17" stroke="#2D2D2D" width="242.85714" x="994.42851" y="898.14275"/>
  <rect fill="#FFEBA2" height="28.57143" id="65003893221c40a5b21437b41d72f220-ao-18" stroke="#2D2D2D" width="282.85714" x="82.99996" y="892.42846"/>
  <rect fill="#FFEBA2" height="57.14286" id="65003893221c40a5b21437b41d72f220-ao-19" stroke="#2D2D2D" width="145.71428" x="1102.99994" y="975.2856"/>
  <rect fill="#FFEBA2" height="25.71429" id="65003893221c40a5b21437b41d72f220-ao-20" stroke="#2D2D2D" width="217.14285" x="77.28568" y="969.57132"/>
  <rect fill="#FFEBA2" height="48.57143" id="65003893221c40a5b21437b41d72f220-ao-21" stroke="#2D2D2D" width="151.42857" x="77.28568" y="1029.57132"/>
  <rect fill="#FFEBA2" height="65.71428" id="65003893221c40a5b21437b41d72f220-ao-22" stroke="#2D2D2D" width="114.28571" x="1165.85708" y="1046.71417"/>
  <rect fill="#FFEBA2" height="80" id="65003893221c40a5b21437b41d72f220-ao-23" stroke="#2D2D2D" width="134.28571" x="20.14282" y="1092.42846"/>
  <rect fill="#FFEBA2" height="48.57143" id="65003893221c40a5b21437b41d72f220-ao-24" stroke="#2D2D2D" width="148.57142" x="42.99996" y="1238.14274"/>
  <rect fill="#FFEBA2" height="68.57143" id="65003893221c40a5b21437b41d72f220-ao-25" stroke="#2D2D2D" width="165.71428" x="1111.57136" y="1269.57131"/>
  <rect fill="#FFEBA2" height="57.14286" id="65003893221c40a5b21437b41d72f220-ao-26" stroke="#2D2D2D" width="245.71428" x="171.57139" y="1329.57131"/>
  <rect class="qshape" fill="#FF7E7E" height="51.42857" id="65003893221c40a5b21437b41d72f220-ao-27" stroke="#2D2D2D" width="202.85714" x="1068.71422" y="1346.71417"/>
  <rect fill="#FFEBA2" height="31.42857" id="65003893221c40a5b21437b41d72f220-ao-28" stroke="#2D2D2D" width="268.57142" x="222.99996" y="1418.14273"/>
  <rect fill="#FFEBA2" height="28.57143" id="65003893221c40a5b21437b41d72f220-ao-29" stroke="#2D2D2D" width="211.42857" x="354.42853" y="1466.71416"/>
  <rect fill="#FFEBA2" height="28.57143" id="65003893221c40a5b21437b41d72f220-ao-30" stroke="#2D2D2D" width="282.85714" x="648.71423" y="1463.85702"/>
 </g>
</svg>