<svg height="1531.0000000000002" width="1535.9999999999998" xmlns="http://www.w3.org/2000/svg">
 <!-- Created with Image Occlusion Enhanced -->
 <g>
  <title>Labels</title>
 </g>
 <g>
  <title>Masks</title>
  
  <rect fill="#FFEBA2" height="165.71429" id="6517d1d930c94ffba0f62493c6da3f3e-ao-2" stroke="#2D2D2D" width="154.28572" x="152.57151" y="134.71436"/>
  <rect fill="#FFEBA2" height="34.28572" id="6517d1d930c94ffba0f62493c6da3f3e-ao-3" stroke="#2D2D2D" width="234.28572" x="926.85725" y="157.57151"/>
  <rect fill="#FFEBA2" height="34.28572" id="6517d1d930c94ffba0f62493c6da3f3e-ao-4" stroke="#2D2D2D" width="322.85716" x="904.00011" y="291.85723"/>
  <rect fill="#FFEBA2" height="34.28572" id="6517d1d930c94ffba0f62493c6da3f3e-ao-5" stroke="#2D2D2D" width="300.00001" x="906.85725" y="429.00009"/>
  <rect fill="#FFEBA2" height="31.42857" id="6517d1d930c94ffba0f62493c6da3f3e-ao-6" stroke="#2D2D2D" width="280.00001" x="912.57154" y="563.28581"/>
  <rect fill="#FFEBA2" height="28.57143" id="6517d1d930c94ffba0f62493c6da3f3e-ao-7" stroke="#2D2D2D" width="314.28573" x="941.14297" y="700.42867"/>
  <rect fill="#FFEBA2" height="31.42857" id="6517d1d930c94ffba0f62493c6da3f3e-ao-8" stroke="#2D2D2D" width="200.00001" x="986.85726" y="831.85725"/>
  <rect fill="#FFEBA2" height="34.28572" id="6517d1d930c94ffba0f62493c6da3f3e-ao-9" stroke="#2D2D2D" width="280.00001" x="1069.7144" y="943.28583"/>
  <rect fill="#FFEBA2" height="31.42857" id="6517d1d930c94ffba0f62493c6da3f3e-ao-10" stroke="#2D2D2D" width="271.42858" x="1092.57155" y="1000.42869"/>
  <rect fill="#FFEBA2" height="31.42857" id="6517d1d930c94ffba0f62493c6da3f3e-ao-11" stroke="#2D2D2D" width="202.85715" x="1115.42869" y="1054.7144"/>
  <rect fill="#FFEBA2" height="28.57143" id="6517d1d930c94ffba0f62493c6da3f3e-ao-12" stroke="#2D2D2D" width="200.00001" x="1141.14298" y="1111.85726"/>
  <rect fill="#FFEBA2" height="22.85714" id="6517d1d930c94ffba0f62493c6da3f3e-ao-13" stroke="#2D2D2D" width="157.14286" x="1155.42869" y="1169.00012"/>
  <rect fill="#FFEBA2" height="28.57143" id="6517d1d930c94ffba0f62493c6da3f3e-ao-14" stroke="#2D2D2D" width="125.71429" x="1149.71441" y="1223.28584"/>
  <rect fill="#FFEBA2" height="31.42857" id="6517d1d930c94ffba0f62493c6da3f3e-ao-15" stroke="#2D2D2D" width="191.42858" x="1141.14298" y="1277.57156"/>
  <rect fill="#FFEBA2" height="28.57143" id="6517d1d930c94ffba0f62493c6da3f3e-ao-16" stroke="#2D2D2D" width="205.7143" x="1126.85726" y="1331.85727"/>
  <rect fill="#FFEBA2" height="31.42857" id="6517d1d930c94ffba0f62493c6da3f3e-ao-17" stroke="#2D2D2D" width="280.00001" x="1104.00012" y="1386.14299"/>
  <rect fill="#FFEBA2" height="28.57144" id="6517d1d930c94ffba0f62493c6da3f3e-ao-18" stroke="#2D2D2D" width="85.71429" x="1069.7144" y="1440.42872"/>
 </g>
</svg>