<svg height="1422" width="1535.9999999999998" xmlns="http://www.w3.org/2000/svg">
 <!-- Created with Image Occlusion Enhanced -->
 <g>
  <title>Labels</title>
 </g>
 <g>
  <title>Masks</title>
  <rect fill="#FFEBA2" height="31.42857" id="654f2197e67b4f818c81d11cc4c31f74-ao-1" stroke="#2D2D2D" width="114.28572" x="852.57154" y="307.99993"/>
  <rect fill="#FFEBA2" height="28.57143" id="654f2197e67b4f818c81d11cc4c31f74-ao-2" stroke="#2D2D2D" width="197.14287" x="584.0001" y="322.28564"/>
  
  <rect fill="#FFEBA2" height="25.71429" id="654f2197e67b4f818c81d11cc4c31f74-ao-4" stroke="#2D2D2D" width="60" x="595.42867" y="379.4285"/>
  <rect fill="#FFEBA2" height="54.28572" id="654f2197e67b4f818c81d11cc4c31f74-ao-5" stroke="#2D2D2D" width="368.57145" x="961.14297" y="433.71422"/>
  <rect fill="#FFEBA2" height="28.57143" id="654f2197e67b4f818c81d11cc4c31f74-ao-6" stroke="#2D2D2D" width="202.85715" x="418.2858" y="445.14279"/>
  <rect fill="#FFEBA2" height="25.71429" id="654f2197e67b4f818c81d11cc4c31f74-ao-7" stroke="#2D2D2D" width="80" x="446.85723" y="496.57137"/>
  <rect fill="#FFEBA2" height="28.57143" id="654f2197e67b4f818c81d11cc4c31f74-ao-8" stroke="#2D2D2D" width="248.57144" x="1069.7144" y="516.57137"/>
  <rect fill="#FFEBA2" height="48.57143" id="654f2197e67b4f818c81d11cc4c31f74-ao-9" stroke="#2D2D2D" width="191.42858" x="289.71437" y="533.71423"/>
  <rect fill="#FFEBA2" height="54.28572" id="654f2197e67b4f818c81d11cc4c31f74-ao-10" stroke="#2D2D2D" width="262.85715" x="1144.00012" y="573.71423"/>
  <rect fill="#FFEBA2" height="45.71429" id="654f2197e67b4f818c81d11cc4c31f74-ao-11" stroke="#2D2D2D" width="194.28572" x="221.14294" y="605.1428"/>
  <rect fill="#FFEBA2" height="51.42857" id="654f2197e67b4f818c81d11cc4c31f74-ao-12" stroke="#2D2D2D" width="182.85715" x="1218.28584" y="667.99995"/>
  <rect fill="#FFEBA2" height="34.28572" id="654f2197e67b4f818c81d11cc4c31f74-ao-13" stroke="#2D2D2D" width="188.57144" x="155.42865" y="667.99995"/>
  <rect fill="#FFEBA2" height="28.57143" id="654f2197e67b4f818c81d11cc4c31f74-ao-14" stroke="#2D2D2D" width="114.28572" x="1258.28584" y="747.99995"/>
  <rect fill="#FFEBA2" height="28.57143" id="654f2197e67b4f818c81d11cc4c31f74-ao-15" stroke="#2D2D2D" width="117.14286" x="189.71436" y="739.42852"/>
  <rect fill="#FFEBA2" height="51.42857" id="654f2197e67b4f818c81d11cc4c31f74-ao-16" stroke="#2D2D2D" width="105.71429" x="1272.57156" y="796.57138"/>
  <rect fill="#FFEBA2" height="51.42857" id="654f2197e67b4f818c81d11cc4c31f74-ao-17" stroke="#2D2D2D" width="160.00001" x="129.71436" y="790.85709"/>
  <rect fill="#FFEBA2" height="45.71429" id="654f2197e67b4f818c81d11cc4c31f74-ao-18" stroke="#2D2D2D" width="94.28572" x="1278.28584" y="873.71424"/>
  <rect fill="#FFEBA2" height="28.57143" id="654f2197e67b4f818c81d11cc4c31f74-ao-19" stroke="#2D2D2D" width="148.57144" x="144.00008" y="879.42853"/>
  <rect fill="#FFEBA2" height="48.57143" id="654f2197e67b4f818c81d11cc4c31f74-ao-20" stroke="#2D2D2D" width="117.14286" x="1278.28584" y="947.99996"/>
  <rect fill="#FFEBA2" height="57.14286" id="654f2197e67b4f818c81d11cc4c31f74-ao-21" stroke="#2D2D2D" width="108.57143" x="198.28579" y="939.42853"/>
  <rect fill="#FFEBA2" height="51.42857" id="654f2197e67b4f818c81d11cc4c31f74-ao-22" stroke="#2D2D2D" width="108.57143" x="1246.85727" y="1025.14282"/>
  <rect fill="#FFEBA2" height="45.71429" id="654f2197e67b4f818c81d11cc4c31f74-ao-23" stroke="#2D2D2D" width="148.57144" x="169.71436" y="1030.85711"/>
  <rect fill="#FFEBA2" height="28.57143" id="654f2197e67b4f818c81d11cc4c31f74-ao-24" stroke="#2D2D2D" width="182.85715" x="1201.14298" y="1110.85711"/>
  <rect fill="#FFEBA2" height="51.42857" id="654f2197e67b4f818c81d11cc4c31f74-ao-25" stroke="#2D2D2D" width="177.14287" x="204.00008" y="1113.71425"/>
  <rect fill="#FFEBA2" height="31.42857" id="654f2197e67b4f818c81d11cc4c31f74-ao-26" stroke="#2D2D2D" width="208.57144" x="1152.57155" y="1173.71425"/>
  <rect fill="#FFEBA2" height="28.57143" id="654f2197e67b4f818c81d11cc4c31f74-ao-27" stroke="#2D2D2D" width="248.57144" x="215.42865" y="1199.42854"/>
  <rect fill="#FFEBA2" height="54.28572" id="654f2197e67b4f818c81d11cc4c31f74-ao-28" stroke="#2D2D2D" width="240.00001" x="1044.00012" y="1225.14283"/>
  <rect fill="#FFEBA2" height="71.42857" id="654f2197e67b4f818c81d11cc4c31f74-ao-29" stroke="#2D2D2D" width="231.42858" x="378.2858" y="1259.42854"/>
  <rect fill="#FFEBA2" height="31.42857" id="654f2197e67b4f818c81d11cc4c31f74-ao-30" stroke="#2D2D2D" width="248.57144" x="878.28582" y="1296.5714"/>
  <rect fill="#FFEBA2" height="68.57143" id="654f2197e67b4f818c81d11cc4c31f74-ao-31" stroke="#2D2D2D" width="245.7143" x="741.14296" y="1345.14283"/>
 </g>
</svg>