<svg height="1590" width="1535.9999999999998" xmlns="http://www.w3.org/2000/svg">
 <!-- Created with Image Occlusion Enhanced -->
 <g>
  <title>Labels</title>
 </g>
 <g>
  <title>Masks</title>
  <rect fill="#FFEBA2" height="31.42857" id="6576b450659544cfa5af714968e2a2e0-ao-1" stroke="#2D2D2D" width="180.00001" x="764.0001" y="59.99997"/>
  <rect fill="#FFEBA2" height="31.42857" id="6576b450659544cfa5af714968e2a2e0-ao-2" stroke="#2D2D2D" width="174.28572" x="149.71436" y="122.85711"/>
  <rect fill="#FFEBA2" height="34.28572" id="6576b450659544cfa5af714968e2a2e0-ao-3" stroke="#2D2D2D" width="180.00001" x="844.00011" y="122.85711"/>
  <rect fill="#FFEBA2" height="31.42857" id="6576b450659544cfa5af714968e2a2e0-ao-4" stroke="#2D2D2D" width="222.85715" x="744.0001" y="179.99997"/>
  <rect fill="#FFEBA2" height="34.28572" id="6576b450659544cfa5af714968e2a2e0-ao-5" stroke="#2D2D2D" width="177.14287" x="821.14296" y="242.85712"/>
  <rect fill="#FFEBA2" height="28.57143" id="6576b450659544cfa5af714968e2a2e0-ao-6" stroke="#2D2D2D" width="171.42858" x="149.71436" y="265.71426"/>
  <rect fill="#FFEBA2" height="28.57143" id="6576b450659544cfa5af714968e2a2e0-ao-7" stroke="#2D2D2D" width="234.28572" x="741.14296" y="302.85712"/>
  <rect fill="#FFEBA2" height="34.28572" id="6576b450659544cfa5af714968e2a2e0-ao-8" stroke="#2D2D2D" width="74.28572" x="949.7144" y="405.71427"/>
  <rect fill="#FFEBA2" height="31.42857" id="6576b450659544cfa5af714968e2a2e0-ao-9" stroke="#2D2D2D" width="71.42857" x="241.14294" y="431.42855"/>
  <rect fill="#FFEBA2" height="48.57143" id="6576b450659544cfa5af714968e2a2e0-ao-10" stroke="#2D2D2D" width="285.7143" x="698.28582" y="499.99999"/>
  <rect fill="#FFEBA2" height="31.42857" id="6576b450659544cfa5af714968e2a2e0-ao-11" stroke="#2D2D2D" width="345.7143" x="641.14296" y="597.14285"/>
  
  <rect fill="#FFEBA2" height="28.57143" id="6576b450659544cfa5af714968e2a2e0-ao-13" stroke="#2D2D2D" width="65.71429" x="218.28579" y="942.85715"/>
  <rect fill="#FFEBA2" height="25.71429" id="6576b450659544cfa5af714968e2a2e0-ao-14" stroke="#2D2D2D" width="51.42857" x="606.85724" y="948.57144"/>
  <rect fill="#FFEBA2" height="25.71429" id="6576b450659544cfa5af714968e2a2e0-ao-15" stroke="#2D2D2D" width="65.71429" x="915.42868" y="942.85715"/>
  <rect fill="#FFEBA2" height="28.57143" id="6576b450659544cfa5af714968e2a2e0-ao-16" stroke="#2D2D2D" width="54.28572" x="1309.71441" y="937.14286"/>
  <rect fill="#FFEBA2" height="48.57143" id="6576b450659544cfa5af714968e2a2e0-ao-17" stroke="#2D2D2D" width="288.57144" x="638.28581" y="1045.7143"/>
  <rect fill="#FFEBA2" height="48.57143" id="6576b450659544cfa5af714968e2a2e0-ao-18" stroke="#2D2D2D" width="182.85715" x="646.85724" y="1185.7143"/>
 </g>
</svg>