<svg height="811" width="1535.9999999999998" xmlns="http://www.w3.org/2000/svg">
 <!-- Created with Image Occlusion Enhanced -->
 <g>
  <title>Labels</title>
 </g>
 <g>
  <title>Masks</title>
  <rect fill="#FFEBA2" height="28.57143" id="6630f3c3a8ee4e1680b2c691b1d86755-ao-1" stroke="#2D2D2D" width="62.85715" x="132.5715" y="87.57139"/>
  <rect fill="#FFEBA2" height="54.28572" id="6630f3c3a8ee4e1680b2c691b1d86755-ao-2" stroke="#2D2D2D" width="197.14287" x="1192.57155" y="150.42853"/>
  <rect fill="#FFEBA2" height="42.85714" id="6630f3c3a8ee4e1680b2c691b1d86755-ao-3" stroke="#2D2D2D" width="182.85715" x="129.71436" y="133.28568"/>
  <rect fill="#FFEBA2" height="28.57143" id="6630f3c3a8ee4e1680b2c691b1d86755-ao-4" stroke="#2D2D2D" width="217.14287" x="1189.71441" y="218.99997"/>
  <rect fill="#FFEBA2" height="31.42857" id="6630f3c3a8ee4e1680b2c691b1d86755-ao-5" stroke="#2D2D2D" width="68.57143" x="129.71436" y="184.71425"/>
  <rect fill="#FFEBA2" height="31.42857" id="6630f3c3a8ee4e1680b2c691b1d86755-ao-6" stroke="#2D2D2D" width="194.28572" x="1192.57155" y="256.14282"/>
  <rect fill="#FFEBA2" height="71.42857" id="6630f3c3a8ee4e1680b2c691b1d86755-ao-7" stroke="#2D2D2D" width="197.14287" x="129.71436" y="227.57139"/>
  <rect fill="#FFEBA2" height="25.71429" id="6630f3c3a8ee4e1680b2c691b1d86755-ao-8" stroke="#2D2D2D" width="77.14286" x="1195.4287" y="296.14283"/>
  <rect fill="#FFEBA2" height="54.28572" id="6630f3c3a8ee4e1680b2c691b1d86755-ao-9" stroke="#2D2D2D" width="157.14286" x="126.85722" y="307.5714"/>
  <rect fill="#FFEBA2" height="22.85714" id="6630f3c3a8ee4e1680b2c691b1d86755-ao-10" stroke="#2D2D2D" width="68.57143" x="1192.57155" y="338.99997"/>
  <rect fill="#FFEBA2" height="31.42857" id="6630f3c3a8ee4e1680b2c691b1d86755-ao-11" stroke="#2D2D2D" width="197.14287" x="126.85722" y="384.71426"/>
  <rect class="qshape" fill="#FF7E7E" height="31.42857" id="6630f3c3a8ee4e1680b2c691b1d86755-ao-12" stroke="#2D2D2D" width="154.28572" x="1192.57155" y="376.14283"/>
  <rect fill="#FFEBA2" height="28.57143" id="6630f3c3a8ee4e1680b2c691b1d86755-ao-13" stroke="#2D2D2D" width="248.57144" x="129.71436" y="447.5714"/>
  <rect fill="#FFEBA2" height="31.42857" id="6630f3c3a8ee4e1680b2c691b1d86755-ao-14" stroke="#2D2D2D" width="77.14286" x="1192.57155" y="416.14283"/>
  <rect fill="#FFEBA2" height="34.28572" id="6630f3c3a8ee4e1680b2c691b1d86755-ao-15" stroke="#2D2D2D" width="234.28572" x="132.5715" y="507.57141"/>
  <rect fill="#FFEBA2" height="51.42857" id="6630f3c3a8ee4e1680b2c691b1d86755-ao-16" stroke="#2D2D2D" width="191.42858" x="1189.71441" y="458.99998"/>
  <rect fill="#FFEBA2" height="25.71429" id="6630f3c3a8ee4e1680b2c691b1d86755-ao-17" stroke="#2D2D2D" width="231.42858" x="132.5715" y="564.71427"/>
  <rect fill="#FFEBA2" height="54.28572" id="6630f3c3a8ee4e1680b2c691b1d86755-ao-18" stroke="#2D2D2D" width="197.14287" x="1189.71441" y="518.99998"/>
  <rect fill="#FFEBA2" height="37.14286" id="6630f3c3a8ee4e1680b2c691b1d86755-ao-19" stroke="#2D2D2D" width="145.71429" x="132.5715" y="613.2857"/>
  <rect fill="#FFEBA2" height="48.57143" id="6630f3c3a8ee4e1680b2c691b1d86755-ao-20" stroke="#2D2D2D" width="168.57144" x="1189.71441" y="590.42855"/>
  <rect fill="#FFEBA2" height="28.57143" id="6630f3c3a8ee4e1680b2c691b1d86755-ao-21" stroke="#2D2D2D" width="111.42858" x="135.42865" y="673.2857"/>
  <rect fill="#FFEBA2" height="28.57143" id="6630f3c3a8ee4e1680b2c691b1d86755-ao-22" stroke="#2D2D2D" width="140.00001" x="124.00008" y="733.2857"/>
 </g>
</svg>