<svg height="1553" width="1535.9999999999998" xmlns="http://www.w3.org/2000/svg">
 <!-- Created with Image Occlusion Enhanced -->
 <g>
  <title>Labels</title>
 </g>
 <g>
  <title>Masks</title>
  <rect fill="#FFEBA2" height="28.57143" id="6668d758ff8049b1979dfcccf66619cd-ao-1" stroke="#2D2D2D" width="400.00002" x="215.42865" y="1.28573"/>
  <rect fill="#FFEBA2" height="54.28572" id="6668d758ff8049b1979dfcccf66619cd-ao-2" stroke="#2D2D2D" width="380.00002" x="878.28582" y="9.85716"/>
  <rect fill="#FFEBA2" height="28.57143" id="6668d758ff8049b1979dfcccf66619cd-ao-3" stroke="#2D2D2D" width="145.71429" x="458.2858" y="67.00002"/>
  <rect fill="#FFEBA2" height="31.42857" id="6668d758ff8049b1979dfcccf66619cd-ao-4" stroke="#2D2D2D" width="71.42857" x="941.14297" y="89.85716"/>
  <rect fill="#FFEBA2" height="31.42857" id="6668d758ff8049b1979dfcccf66619cd-ao-5" stroke="#2D2D2D" width="280.00001" x="309.71437" y="118.42859"/>
  <rect fill="#FFEBA2" height="31.42857" id="6668d758ff8049b1979dfcccf66619cd-ao-6" stroke="#2D2D2D" width="111.42858" x="998.28583" y="147.00002"/>
  <rect fill="#FFEBA2" height="31.42857" id="6668d758ff8049b1979dfcccf66619cd-ao-7" stroke="#2D2D2D" width="171.42858" x="378.2858" y="184.14288"/>
  <rect fill="#FFEBA2" height="28.57143" id="6668d758ff8049b1979dfcccf66619cd-ao-8" stroke="#2D2D2D" width="142.85715" x="1032.57155" y="204.14288"/>
  <rect fill="#FFEBA2" height="28.57143" id="6668d758ff8049b1979dfcccf66619cd-ao-9" stroke="#2D2D2D" width="82.85715" x="455.42866" y="247.00003"/>
  <rect fill="#FFEBA2" height="28.57143" id="6668d758ff8049b1979dfcccf66619cd-ao-10" stroke="#2D2D2D" width="225.7143" x="1066.85726" y="258.4286"/>
  <rect fill="#FFEBA2" height="34.28572" id="6668d758ff8049b1979dfcccf66619cd-ao-11" stroke="#2D2D2D" width="237.14287" x="255.42865" y="307.00003"/>
  <rect fill="#FFEBA2" height="54.28572" id="6668d758ff8049b1979dfcccf66619cd-ao-12" stroke="#2D2D2D" width="151.42858" x="1092.57155" y="307.00003"/>
  <rect fill="#FFEBA2" height="28.57143" id="6668d758ff8049b1979dfcccf66619cd-ao-13" stroke="#2D2D2D" width="254.28573" x="201.14294" y="367.00003"/>
  <rect fill="#FFEBA2" height="31.42857" id="6668d758ff8049b1979dfcccf66619cd-ao-14" stroke="#2D2D2D" width="128.57143" x="1124.00012" y="392.71432"/>
  <rect fill="#FFEBA2" height="51.42857" id="6668d758ff8049b1979dfcccf66619cd-ao-15" stroke="#2D2D2D" width="220.00001" x="146.85722" y="424.14289"/>
  <rect fill="#FFEBA2" height="54.28572" id="6668d758ff8049b1979dfcccf66619cd-ao-16" stroke="#2D2D2D" width="151.42858" x="1141.14298" y="449.85718"/>
  <rect fill="#FFEBA2" height="54.28572" id="6668d758ff8049b1979dfcccf66619cd-ao-17" stroke="#2D2D2D" width="202.85715" x="1178.28584" y="521.28576"/>
  <rect fill="#FFEBA2" height="28.57143" id="6668d758ff8049b1979dfcccf66619cd-ao-18" stroke="#2D2D2D" width="237.14287" x="158.28579" y="507.00004"/>
  <rect fill="#FFEBA2" height="37.14286" id="6668d758ff8049b1979dfcccf66619cd-ao-19" stroke="#2D2D2D" width="211.42858" x="166.85722" y="564.1429"/>
  <rect fill="#FFEBA2" height="54.28572" id="6668d758ff8049b1979dfcccf66619cd-ao-20" stroke="#2D2D2D" width="171.42858" x="1181.14298" y="589.85719"/>
  <rect fill="#FFEBA2" height="74.28572" id="6668d758ff8049b1979dfcccf66619cd-ao-21" stroke="#2D2D2D" width="220.00001" x="144.00008" y="627.00005"/>
  <rect fill="#FFEBA2" height="77.14286" id="6668d758ff8049b1979dfcccf66619cd-ao-22" stroke="#2D2D2D" width="194.28572" x="1184.00012" y="661.28576"/>
  <rect fill="#FFEBA2" height="71.42857" id="6668d758ff8049b1979dfcccf66619cd-ao-23" stroke="#2D2D2D" width="108.57143" x="1201.14298" y="752.71434"/>
  <rect fill="#FFEBA2" height="80" id="6668d758ff8049b1979dfcccf66619cd-ao-24" stroke="#2D2D2D" width="182.85715" x="155.42865" y="729.85719"/>
  <rect fill="#FFEBA2" height="97.14286" id="6668d758ff8049b1979dfcccf66619cd-ao-25" stroke="#2D2D2D" width="205.7143" x="1204.00012" y="838.42863"/>
  <rect fill="#FFEBA2" height="31.42857" id="6668d758ff8049b1979dfcccf66619cd-ao-26" stroke="#2D2D2D" width="194.28572" x="149.71436" y="838.42863"/>
  <rect fill="#FFEBA2" height="51.42857" id="6668d758ff8049b1979dfcccf66619cd-ao-27" stroke="#2D2D2D" width="148.57144" x="178.28579" y="898.42863"/>
  <rect fill="#FFEBA2" height="51.42857" id="6668d758ff8049b1979dfcccf66619cd-ao-28" stroke="#2D2D2D" width="208.57144" x="1172.57155" y="964.14292"/>
  <rect fill="#FFEBA2" height="51.42857" id="6668d758ff8049b1979dfcccf66619cd-ao-29" stroke="#2D2D2D" width="191.42858" x="146.85722" y="981.28578"/>
  <rect fill="#FFEBA2" height="51.42857" id="6668d758ff8049b1979dfcccf66619cd-ao-30" stroke="#2D2D2D" width="142.85715" x="1195.4287" y="1044.14292"/>
  <rect fill="#FFEBA2" height="31.42857" id="6668d758ff8049b1979dfcccf66619cd-ao-31" stroke="#2D2D2D" width="77.14286" x="266.85722" y="1041.28578"/>
  <rect fill="#FFEBA2" height="91.42858" id="6668d758ff8049b1979dfcccf66619cd-ao-32" stroke="#2D2D2D" width="240.00001" x="155.42865" y="1101.28578"/>
  <rect fill="#FFEBA2" height="31.42857" id="6668d758ff8049b1979dfcccf66619cd-ao-33" stroke="#2D2D2D" width="174.28572" x="1195.4287" y="1118.42864"/>
  <rect fill="#FFEBA2" height="74.28572" id="6668d758ff8049b1979dfcccf66619cd-ao-34" stroke="#2D2D2D" width="180.00001" x="1201.14298" y="1175.5715"/>
  <rect fill="#FFEBA2" height="94.28572" id="6668d758ff8049b1979dfcccf66619cd-ao-35" stroke="#2D2D2D" width="260.00001" x="161.14293" y="1215.5715"/>
  <rect fill="#FFEBA2" height="51.42857" id="6668d758ff8049b1979dfcccf66619cd-ao-36" stroke="#2D2D2D" width="185.71429" x="1201.14298" y="1258.42865"/>
  
  <rect fill="#FFEBA2" height="48.57143" id="6668d758ff8049b1979dfcccf66619cd-ao-38" stroke="#2D2D2D" width="200.00001" x="1172.57155" y="1335.57151"/>
  <rect fill="#FFEBA2" height="54.28572" id="6668d758ff8049b1979dfcccf66619cd-ao-39" stroke="#2D2D2D" width="240.00001" x="235.42865" y="1418.42865"/>
 </g>
</svg>