<svg height="749" width="1535.9999999999998" xmlns="http://www.w3.org/2000/svg">
 <!-- Created with Image Occlusion Enhanced -->
 <g>
  <title>Labels</title>
 </g>
 <g>
  <title>Masks</title>
  <rect fill="#FFEBA2" height="31.42857" id="667563d77a864b21872882324829e2a2-ao-1" stroke="#2D2D2D" width="122.85715" x="186.85722" y="258.14288"/>
  <rect fill="#FFEBA2" height="42.85714" id="667563d77a864b21872882324829e2a2-ao-2" stroke="#2D2D2D" width="182.85715" x="181.14294" y="309.57145"/>
  <rect fill="#FFEBA2" height="48.57143" id="667563d77a864b21872882324829e2a2-ao-3" stroke="#2D2D2D" width="174.28572" x="186.85722" y="372.4286"/>
  <rect fill="#FFEBA2" height="22.85714" id="667563d77a864b21872882324829e2a2-ao-4" stroke="#2D2D2D" width="110.35715" x="187.92864" y="443.85717"/>
  <rect fill="#FFEBA2" height="25.71429" id="667563d77a864b21872882324829e2a2-ao-5" stroke="#2D2D2D" width="185.71429" x="186.85722" y="486.71432"/>
  <rect fill="#FFEBA2" height="25.71429" id="667563d77a864b21872882324829e2a2-ao-6" stroke="#2D2D2D" width="91.42858" x="186.85722" y="535.28575"/>
  <rect fill="#FFEBA2" height="28.57143" id="667563d77a864b21872882324829e2a2-ao-7" stroke="#2D2D2D" width="108.57143" x="186.85722" y="578.14289"/>
  <rect fill="#FFEBA2" height="25.71429" id="667563d77a864b21872882324829e2a2-ao-8" stroke="#2D2D2D" width="60" x="186.85722" y="621.00004"/>
  <rect fill="#FFEBA2" height="28.57143" id="667563d77a864b21872882324829e2a2-ao-9" stroke="#2D2D2D" width="102.85715" x="1138.28584" y="232.42859"/>
  <rect fill="#FFEBA2" height="28.57143" id="667563d77a864b21872882324829e2a2-ao-10" stroke="#2D2D2D" width="191.42858" x="1138.28584" y="278.14288"/>
  <rect fill="#FFEBA2" height="49.28572" id="667563d77a864b21872882324829e2a2-ao-11" stroke="#2D2D2D" width="188.57144" x="1141.14298" y="361.00003"/>
  <rect fill="#FFEBA2" height="28.57143" id="667563d77a864b21872882324829e2a2-ao-12" stroke="#2D2D2D" width="262.85715" x="1006.85726" y="423.85717"/>
  <rect fill="#FFEBA2" height="28.57143" id="667563d77a864b21872882324829e2a2-ao-13" stroke="#2D2D2D" width="174.28572" x="1009.7144" y="469.57146"/>
  <rect fill="#FFEBA2" height="28.57143" id="667563d77a864b21872882324829e2a2-ao-14" stroke="#2D2D2D" width="140.00001" x="1009.7144" y="506.71432"/>
  <rect fill="#FFEBA2" height="22.85714" id="667563d77a864b21872882324829e2a2-ao-15" stroke="#2D2D2D" width="165.71429" x="1009.7144" y="552.42861"/>
  <rect fill="#FFEBA2" height="28.57143" id="667563d77a864b21872882324829e2a2-ao-16" stroke="#2D2D2D" width="268.57144" x="1012.57154" y="592.42861"/>
  <rect fill="#FFEBA2" height="25.71429" id="667563d77a864b21872882324829e2a2-ao-17" stroke="#2D2D2D" width="217.14287" x="1012.57154" y="632.42861"/>
  
  <rect fill="#FFEBA2" height="25.71429" id="667563d77a864b21872882324829e2a2-ao-19" stroke="#2D2D2D" width="131.42858" x="1009.7144" y="715.28576"/>
 </g>
</svg>