<svg height="1470" width="1535.9999999999998" xmlns="http://www.w3.org/2000/svg">
 <!-- Created with Image Occlusion Enhanced -->
 <g>
  <title>Labels</title>
 </g>
 <g>
  <title>Masks</title>
  <rect fill="#FFEBA2" height="34.28572" id="66b2db9865234c3cb09e207291a80b63-ao-1" stroke="#2D2D2D" width="162.85715" x="801.14296" y="337.14284"/>
  <rect fill="#FFEBA2" height="28.57143" id="66b2db9865234c3cb09e207291a80b63-ao-2" stroke="#2D2D2D" width="217.14287" x="432.57152" y="365.71427"/>
  <rect fill="#FFEBA2" height="31.42857" id="66b2db9865234c3cb09e207291a80b63-ao-3" stroke="#2D2D2D" width="160.00001" x="906.85725" y="391.42856"/>
  <rect fill="#FFEBA2" height="28.57143" id="66b2db9865234c3cb09e207291a80b63-ao-4" stroke="#2D2D2D" width="245.7143" x="278.2858" y="431.42856"/>
  <rect fill="#FFEBA2" height="34.28572" id="66b2db9865234c3cb09e207291a80b63-ao-5" stroke="#2D2D2D" width="242.85715" x="1086.85726" y="425.71427"/>
  <rect fill="#FFEBA2" height="91.42858" id="66b2db9865234c3cb09e207291a80b63-ao-6" stroke="#2D2D2D" width="251.42858" x="1172.57155" y="482.85713"/>
  <rect fill="#FFEBA2" height="31.42857" id="66b2db9865234c3cb09e207291a80b63-ao-7" stroke="#2D2D2D" width="60" x="324.00008" y="519.99999"/>
  <rect fill="#FFEBA2" height="97.14286" id="66b2db9865234c3cb09e207291a80b63-ao-8" stroke="#2D2D2D" width="240.00001" x="121.14293" y="571.42856"/>
  <rect fill="#FFEBA2" height="54.28572" id="66b2db9865234c3cb09e207291a80b63-ao-9" stroke="#2D2D2D" width="134.28572" x="1278.28584" y="634.28571"/>
  <rect fill="#FFEBA2" height="51.42857" id="66b2db9865234c3cb09e207291a80b63-ao-10" stroke="#2D2D2D" width="105.71429" x="132.5715" y="728.57143"/>
  <rect fill="#FFEBA2" height="48.57143" id="66b2db9865234c3cb09e207291a80b63-ao-11" stroke="#2D2D2D" width="108.57143" x="1306.85727" y="777.14286"/>
  <rect fill="#FFEBA2" height="71.42857" id="66b2db9865234c3cb09e207291a80b63-ao-12" stroke="#2D2D2D" width="85.71429" x="132.5715" y="805.71429"/>
  <rect fill="#FFEBA2" height="42.85714" id="66b2db9865234c3cb09e207291a80b63-ao-13" stroke="#2D2D2D" width="88.57143" x="132.5715" y="937.14287"/>
  <rect fill="#FFEBA2" height="68.57143" id="66b2db9865234c3cb09e207291a80b63-ao-14" stroke="#2D2D2D" width="140.00001" x="1289.71441" y="982.85715"/>
  <rect fill="#FFEBA2" height="74.28572" id="66b2db9865234c3cb09e207291a80b63-ao-15" stroke="#2D2D2D" width="125.71429" x="1298.28584" y="1071.42859"/>
  <rect fill="#FFEBA2" height="54.28572" id="66b2db9865234c3cb09e207291a80b63-ao-16" stroke="#2D2D2D" width="108.57143" x="132.5715" y="1180.00002"/>
  <rect fill="#FFEBA2" height="25.71429" id="66b2db9865234c3cb09e207291a80b63-ao-17" stroke="#2D2D2D" width="80" x="1306.85727" y="1177.14288"/>
  <rect fill="#FFEBA2" height="51.42857" id="66b2db9865234c3cb09e207291a80b63-ao-18" stroke="#2D2D2D" width="128.57143" x="135.42865" y="1262.85717"/>
  <rect class="qshape" fill="#FF7E7E" height="51.42857" id="66b2db9865234c3cb09e207291a80b63-ao-19" stroke="#2D2D2D" width="262.85715" x="1146.85726" y="1311.4286"/>
  <rect fill="#FFEBA2" height="51.42857" id="66b2db9865234c3cb09e207291a80b63-ao-20" stroke="#2D2D2D" width="262.85715" x="132.5715" y="1334.28574"/>
  <rect fill="#FFEBA2" height="34.28572" id="66b2db9865234c3cb09e207291a80b63-ao-21" stroke="#2D2D2D" width="197.14287" x="461.14295" y="1391.4286"/>
  <rect fill="#FFEBA2" height="31.42857" id="66b2db9865234c3cb09e207291a80b63-ao-22" stroke="#2D2D2D" width="211.42858" x="1004.00012" y="1414.28575"/>
  <rect fill="#FFEBA2" height="28.57143" id="66b2db9865234c3cb09e207291a80b63-ao-23" stroke="#2D2D2D" width="142.85715" x="769.71439" y="1434.28575"/>
 </g>
</svg>