<svg height="712.9999999999999" width="1230" xmlns="http://www.w3.org/2000/svg">
 <!-- Created with Image Occlusion Enhanced -->
 <g>
  <title>Labels</title>
 </g>
 <g>
  <title>Masks</title>
  <rect fill="#FFEBA2" height="22.5" id="66f28419f5814796847fbe7324b41ae4-ao-1" stroke="#2D2D2D" width="250" x="867.5" y="54.49995"/>
  <rect fill="#FFEBA2" height="67.5" id="66f28419f5814796847fbe7324b41ae4-ao-2" stroke="#2D2D2D" width="310" x="217.5" y="81.99995"/>
  <rect fill="#FFEBA2" height="25" id="66f28419f5814796847fbe7324b41ae4-ao-3" stroke="#2D2D2D" width="165" x="902.5" y="94.49995"/>
  <rect fill="#FFEBA2" height="30" id="66f28419f5814796847fbe7324b41ae4-ao-4" stroke="#2D2D2D" width="75" x="595" y="129.49995"/>
  <rect fill="#FFEBA2" height="25" id="66f28419f5814796847fbe7324b41ae4-ao-5" stroke="#2D2D2D" width="150" x="957.5" y="129.49995"/>
  <rect fill="#FFEBA2" height="47.5" id="66f28419f5814796847fbe7324b41ae4-ao-6" stroke="#2D2D2D" width="182.5" x="992.5" y="169.49995"/>
  <rect fill="#FFEBA2" height="27.5" id="66f28419f5814796847fbe7324b41ae4-ao-7" stroke="#2D2D2D" width="242.5" x="65" y="206.99995"/>
  <rect class="qshape" fill="#FF7E7E" height="27.5" id="66f28419f5814796847fbe7324b41ae4-ao-8" stroke="#2D2D2D" width="150" x="127.5" y="286.99995"/>
  <rect fill="#FFEBA2" height="75" id="66f28419f5814796847fbe7324b41ae4-ao-9" stroke="#2D2D2D" width="120" x="1065" y="284.49995"/>
  <rect fill="#FFEBA2" height="32.5" id="66f28419f5814796847fbe7324b41ae4-ao-10" stroke="#2D2D2D" width="312.5" x="35" y="449.49995"/>
  <rect fill="#FFEBA2" height="67.5" id="66f28419f5814796847fbe7324b41ae4-ao-11" stroke="#2D2D2D" width="120" x="1100" y="441.99995"/>
  <rect fill="#FFEBA2" height="27.5" id="66f28419f5814796847fbe7324b41ae4-ao-12" stroke="#2D2D2D" width="157.5" x="242.5" y="516.99995"/>
  <rect fill="#FFEBA2" height="27.5" id="66f28419f5814796847fbe7324b41ae4-ao-13" stroke="#2D2D2D" width="87.5" x="547.5" y="549.49995"/>
  <rect fill="#FFEBA2" height="30" id="66f28419f5814796847fbe7324b41ae4-ao-14" stroke="#2D2D2D" width="180" x="1022.5" y="549.49995"/>
  <rect fill="#FFEBA2" height="50" id="66f28419f5814796847fbe7324b41ae4-ao-15" stroke="#2D2D2D" width="190" x="272.5" y="579.49995"/>
  <rect fill="#FFEBA2" height="27.5" id="66f28419f5814796847fbe7324b41ae4-ao-16" stroke="#2D2D2D" width="190" x="712.5" y="634.49995"/>
  <rect fill="#FFEBA2" height="45" id="66f28419f5814796847fbe7324b41ae4-ao-17" stroke="#2D2D2D" width="345" x="195" y="656.99995"/>
 </g>
</svg>