<svg height="1489" width="1525" xmlns="http://www.w3.org/2000/svg">
 <!-- Created with Image Occlusion Enhanced -->
 <g>
  <title>Labels</title>
 </g>
 <g>
  <title>Masks</title>
  <rect fill="#FFEBA2" height="48.57143" id="684c2f5776114f6d9327f8984cde30c1-ao-1" stroke="#2D2D2D" width="385.71429" x="950.71429" y="25.28561"/>
  <rect fill="#FFEBA2" height="28.57143" id="684c2f5776114f6d9327f8984cde30c1-ao-2" stroke="#2D2D2D" width="237.14286" x="265" y="33.85704"/>
  <rect fill="#FFEBA2" height="48.57143" id="684c2f5776114f6d9327f8984cde30c1-ao-3" stroke="#2D2D2D" width="331.42857" x="953.57143" y="85.28561"/>
  <rect fill="#FFEBA2" height="25.71429" id="684c2f5776114f6d9327f8984cde30c1-ao-4" stroke="#2D2D2D" width="268.57143" x="207.85714" y="85.28561"/>
  <rect fill="#FFEBA2" height="22.85714" id="684c2f5776114f6d9327f8984cde30c1-ao-5" stroke="#2D2D2D" width="234.28571" x="199.28571" y="136.71418"/>
  <g id="684c2f5776114f6d9327f8984cde30c1-ao-6">
   <rect fill="#FFEBA2" height="68.57143" stroke="#2D2D2D" width="197.14286" x="1179.28571" y="148.14275"/>
   <rect fill="#FFEBA2" height="25.71429" stroke="#2D2D2D" width="208.57143" x="947.85714" y="150.9999"/>
   <rect fill="#FFEBA2" height="22.85714" stroke="#2D2D2D" width="200" x="947.85714" y="193.85704"/>
  </g>
  <rect fill="#FFEBA2" height="51.42857" id="684c2f5776114f6d9327f8984cde30c1-ao-7" stroke="#2D2D2D" width="231.42857" x="150.71429" y="190.9999"/>
  <rect fill="#FFEBA2" height="25.71429" id="684c2f5776114f6d9327f8984cde30c1-ao-8" stroke="#2D2D2D" width="165.71429" x="950.71429" y="230.9999"/>
  <rect fill="#FFEBA2" height="68.57143" id="684c2f5776114f6d9327f8984cde30c1-ao-9" stroke="#2D2D2D" width="397.14286" x="950.71429" y="273.85704"/>
  <rect fill="#FFEBA2" height="28.57143" id="684c2f5776114f6d9327f8984cde30c1-ao-10" stroke="#2D2D2D" width="145.71429" x="1090.71429" y="350.9999"/>
  <rect fill="#FFEBA2" height="48.57143" id="684c2f5776114f6d9327f8984cde30c1-ao-11" stroke="#2D2D2D" width="148.57143" x="150.71429" y="385.28561"/>
  
  <rect fill="#FFEBA2" height="51.42857" id="684c2f5776114f6d9327f8984cde30c1-ao-13" stroke="#2D2D2D" width="165.71429" x="1150.71429" y="448.14275"/>
  <rect fill="#FFEBA2" height="42.85714" id="684c2f5776114f6d9327f8984cde30c1-ao-14" stroke="#2D2D2D" width="97.14286" x="150.71429" y="465.28561"/>
  <rect fill="#FFEBA2" height="74.28571" id="684c2f5776114f6d9327f8984cde30c1-ao-15" stroke="#2D2D2D" width="240" x="1150.71429" y="528.14275"/>
  <rect fill="#FFEBA2" height="48.57143" id="684c2f5776114f6d9327f8984cde30c1-ao-16" stroke="#2D2D2D" width="137.14286" x="147.85714" y="533.85704"/>
  <rect fill="#FFEBA2" height="117.14286" id="684c2f5776114f6d9327f8984cde30c1-ao-17" stroke="#2D2D2D" width="228.57143" x="1150.71429" y="619.57132"/>
  <rect fill="#FFEBA2" height="51.42857" id="684c2f5776114f6d9327f8984cde30c1-ao-18" stroke="#2D2D2D" width="137.14286" x="145" y="716.71418"/>
  <rect fill="#FFEBA2" height="48.57143" id="684c2f5776114f6d9327f8984cde30c1-ao-19" stroke="#2D2D2D" width="317.14286" x="1039.28571" y="773.85704"/>
  <rect fill="#FFEBA2" height="54.28571" id="684c2f5776114f6d9327f8984cde30c1-ao-20" stroke="#2D2D2D" width="142.85714" x="147.85714" y="805.28561"/>
  <rect fill="#FFEBA2" height="28.57143" id="684c2f5776114f6d9327f8984cde30c1-ao-21" stroke="#2D2D2D" width="214.28571" x="153.57143" y="899.57132"/>
  <rect fill="#FFEBA2" height="45.71429" id="684c2f5776114f6d9327f8984cde30c1-ao-22" stroke="#2D2D2D" width="180" x="1053.57143" y="928.14275"/>
  <rect fill="#FFEBA2" height="54.28571" id="684c2f5776114f6d9327f8984cde30c1-ao-23" stroke="#2D2D2D" width="194.28571" x="147.85714" y="962.42847"/>
  <rect fill="#FFEBA2" height="28.57143" id="684c2f5776114f6d9327f8984cde30c1-ao-24" stroke="#2D2D2D" width="100" x="1053.57143" y="982.42847"/>
  <rect fill="#FFEBA2" height="74.28571" id="684c2f5776114f6d9327f8984cde30c1-ao-25" stroke="#2D2D2D" width="242.85714" x="1053.57143" y="1033.85704"/>
  <rect fill="#FFEBA2" height="31.42857" id="684c2f5776114f6d9327f8984cde30c1-ao-26" stroke="#2D2D2D" width="211.42857" x="147.85714" y="1053.85704"/>
  <rect fill="#FFEBA2" height="74.28571" id="684c2f5776114f6d9327f8984cde30c1-ao-27" stroke="#2D2D2D" width="308.57143" x="1056.42857" y="1122.42847"/>
  <rect fill="#FFEBA2" height="74.28571" id="684c2f5776114f6d9327f8984cde30c1-ao-28" stroke="#2D2D2D" width="305.71429" x="1050.71429" y="1216.71418"/>
  <rect fill="#FFEBA2" height="57.14286" id="684c2f5776114f6d9327f8984cde30c1-ao-29" stroke="#2D2D2D" width="177.14286" x="150.71429" y="1265.28561"/>
  <rect fill="#FFEBA2" height="74.28571" id="684c2f5776114f6d9327f8984cde30c1-ao-30" stroke="#2D2D2D" width="274.28571" x="1056.42857" y="1319.57132"/>
 </g>
</svg>