<svg height="1040" width="1292" xmlns="http://www.w3.org/2000/svg">
 <!-- Created with Image Occlusion Enhanced -->
 <g>
  <title>Labels</title>
 </g>
 <g>
  <title>Masks</title>
  <rect fill="#FFEBA2" height="28.57143" id="6910c7f9589a4c4bac68a389d59e8fe6-ao-1" stroke="#2D2D2D" width="382.85714" x="210.85709" y="11.42857"/>
  <rect fill="#FFEBA2" height="22.85714" id="6910c7f9589a4c4bac68a389d59e8fe6-ao-2" stroke="#2D2D2D" width="302.85714" x="253.71423" y="57.14286"/>
  <rect fill="#FFEBA2" height="22.85714" id="6910c7f9589a4c4bac68a389d59e8fe6-ao-3" stroke="#2D2D2D" width="240" x="285.1428" y="100"/>
  
  <rect fill="#FFEBA2" height="25.71429" id="6910c7f9589a4c4bac68a389d59e8fe6-ao-5" stroke="#2D2D2D" width="208.57143" x="262.28566" y="202.85714"/>
  <rect fill="#FFEBA2" height="25.71429" id="6910c7f9589a4c4bac68a389d59e8fe6-ao-6" stroke="#2D2D2D" width="437.14286" x="27.99995" y="245.71429"/>
  <rect fill="#FFEBA2" height="25.71429" id="6910c7f9589a4c4bac68a389d59e8fe6-ao-7" stroke="#2D2D2D" width="220" x="216.57138" y="285.71429"/>
  <rect fill="#FFEBA2" height="25.71429" id="6910c7f9589a4c4bac68a389d59e8fe6-ao-8" stroke="#2D2D2D" width="380" x="56.57138" y="328.57143"/>
  <rect fill="#FFEBA2" height="25.71429" id="6910c7f9589a4c4bac68a389d59e8fe6-ao-9" stroke="#2D2D2D" width="160" x="270.85709" y="371.42857"/>
  <rect fill="#FFEBA2" height="22.85714" id="6910c7f9589a4c4bac68a389d59e8fe6-ao-10" stroke="#2D2D2D" width="240" x="170.85709" y="417.14286"/>
  <rect fill="#FFEBA2" height="22.85714" id="6910c7f9589a4c4bac68a389d59e8fe6-ao-11" stroke="#2D2D2D" width="308.57143" x="99.42852" y="457.14286"/>
  <rect fill="#FFEBA2" height="25.71429" id="6910c7f9589a4c4bac68a389d59e8fe6-ao-12" stroke="#2D2D2D" width="242.85714" x="150.85709" y="497.14286"/>
  <rect fill="#FFEBA2" height="25.71429" id="6910c7f9589a4c4bac68a389d59e8fe6-ao-13" stroke="#2D2D2D" width="245.71429" x="145.1428" y="540"/>
  <rect fill="#FFEBA2" height="25.71429" id="6910c7f9589a4c4bac68a389d59e8fe6-ao-14" stroke="#2D2D2D" width="131.42857" x="259.42852" y="582.85714"/>
  <rect fill="#FFEBA2" height="25.71429" id="6910c7f9589a4c4bac68a389d59e8fe6-ao-15" stroke="#2D2D2D" width="148.57143" x="245.1428" y="622.85714"/>
  <rect fill="#FFEBA2" height="25.71429" id="6910c7f9589a4c4bac68a389d59e8fe6-ao-16" stroke="#2D2D2D" width="180" x="222.28566" y="671.42857"/>
  <rect fill="#FFEBA2" height="28.57143" id="6910c7f9589a4c4bac68a389d59e8fe6-ao-17" stroke="#2D2D2D" width="320" x="90.85709" y="711.42857"/>
  <rect fill="#FFEBA2" height="25.71429" id="6910c7f9589a4c4bac68a389d59e8fe6-ao-18" stroke="#2D2D2D" width="148.57143" x="270.85709" y="751.42857"/>
  <rect fill="#FFEBA2" height="28.57143" id="6910c7f9589a4c4bac68a389d59e8fe6-ao-19" stroke="#2D2D2D" width="202.85714" x="247.99995" y="794.28571"/>
  <rect fill="#FFEBA2" height="25.71429" id="6910c7f9589a4c4bac68a389d59e8fe6-ao-20" stroke="#2D2D2D" width="374.28571" x="110.85709" y="834.28571"/>
  <rect fill="#FFEBA2" height="25.71429" id="6910c7f9589a4c4bac68a389d59e8fe6-ao-21" stroke="#2D2D2D" width="211.42857" x="290.85709" y="880"/>
  <rect fill="#FFEBA2" height="71.42857" id="6910c7f9589a4c4bac68a389d59e8fe6-ao-22" stroke="#2D2D2D" width="168.57143" x="1090.85709" y="948.57143"/>
 </g>
</svg>