<svg height="829" width="1087" xmlns="http://www.w3.org/2000/svg">
 <!-- Created with Image Occlusion Enhanced -->
 <g>
  <title>Labels</title>
 </g>
 <g>
  <title>Masks</title>
  <rect fill="#FFEBA2" height="25.71429" id="6944318d7c524667a66ce32de5d702d4-ao-1" stroke="#2D2D2D" width="134.28572" x="277.28566" y="2.42859"/>
  <rect fill="#FFEBA2" height="22.85714" id="6944318d7c524667a66ce32de5d702d4-ao-2" stroke="#2D2D2D" width="262.85715" x="562.99995" y="19.57145"/>
  <rect fill="#FFEBA2" height="25.71429" id="6944318d7c524667a66ce32de5d702d4-ao-3" stroke="#2D2D2D" width="245.71429" x="108.71422" y="45.28573"/>
  <rect fill="#FFEBA2" height="25.71429" id="6944318d7c524667a66ce32de5d702d4-ao-4" stroke="#2D2D2D" width="234.28572" x="585.85709" y="59.57145"/>
  <rect fill="#FFEBA2" height="25.71429" id="6944318d7c524667a66ce32de5d702d4-ao-5" stroke="#2D2D2D" width="254.28572" x="22.99994" y="105.28573"/>
  <rect fill="#FFEBA2" height="28.57143" id="6944318d7c524667a66ce32de5d702d4-ao-6" stroke="#2D2D2D" width="171.42858" x="634.42852" y="128.14288"/>
  <rect fill="#FFEBA2" height="48.57143" id="6944318d7c524667a66ce32de5d702d4-ao-7" stroke="#2D2D2D" width="160" x="777.28567" y="193.85716"/>
  <rect fill="#FFEBA2" height="48.57143" id="6944318d7c524667a66ce32de5d702d4-ao-8" stroke="#2D2D2D" width="114.28572" x="142.99994" y="193.85716"/>
  <rect fill="#FFEBA2" height="48.57143" id="6944318d7c524667a66ce32de5d702d4-ao-9" stroke="#2D2D2D" width="180" x="757.28567" y="253.85717"/>
  <rect fill="#FFEBA2" height="48.57143" id="6944318d7c524667a66ce32de5d702d4-ao-10" stroke="#2D2D2D" width="162.85715" x="71.57137" y="271.00002"/>
  <rect fill="#FFEBA2" height="68.57143" id="6944318d7c524667a66ce32de5d702d4-ao-11" stroke="#2D2D2D" width="88.57143" x="765.8571" y="385.28574"/>
  <rect fill="#FFEBA2" height="31.42857" id="6944318d7c524667a66ce32de5d702d4-ao-12" stroke="#2D2D2D" width="125.71429" x="117.28565" y="491.00003"/>
  <rect fill="#FFEBA2" height="54.28572" id="6944318d7c524667a66ce32de5d702d4-ao-13" stroke="#2D2D2D" width="100" x="774.42852" y="525.28574"/>
  <rect fill="#FFEBA2" height="34.28572" id="6944318d7c524667a66ce32de5d702d4-ao-14" stroke="#2D2D2D" width="120" x="171.57137" y="588.14289"/>
  <rect fill="#FFEBA2" height="45.71429" id="6944318d7c524667a66ce32de5d702d4-ao-15" stroke="#2D2D2D" width="82.85714" x="802.99995" y="616.71432"/>
  <rect fill="#FFEBA2" height="48.57143" id="6944318d7c524667a66ce32de5d702d4-ao-16" stroke="#2D2D2D" width="205.71429" x="122.99994" y="713.85718"/>
  <rect fill="#FFEBA2" height="48.57143" id="6944318d7c524667a66ce32de5d702d4-ao-17" stroke="#2D2D2D" width="94.28572" x="385.85709" y="722.4286"/>
  <rect fill="#FFEBA2" height="28.57143" id="6944318d7c524667a66ce32de5d702d4-ao-18" stroke="#2D2D2D" width="165.71429" x="411.57137" y="791.00003"/>
  <rect class="qshape" fill="#FF7E7E" height="51.42857" id="6944318d7c524667a66ce32de5d702d4-ao-19" stroke="#2D2D2D" width="431.42858" x="637.28566" y="762.4286"/>
 </g>
</svg>