<svg height="667" width="1183" xmlns="http://www.w3.org/2000/svg">
 <!-- Created with Image Occlusion Enhanced -->
 <g>
  <title>Labels</title>
 </g>
 <g>
  <title>Masks</title>
  <rect fill="#FFEBA2" height="50" id="6acbbd5cc942420f92b1a476a03cd407-ao-1" stroke="#2D2D2D" width="147.50001" x="935.74997" y="6.75003"/>
  <rect fill="#FFEBA2" height="70" id="6acbbd5cc942420f92b1a476a03cd407-ao-2" stroke="#2D2D2D" width="190.00001" x="960.74997" y="79.25003"/>
  <rect fill="#FFEBA2" height="25" id="6acbbd5cc942420f92b1a476a03cd407-ao-3" stroke="#2D2D2D" width="307.50001" x="60.74993" y="174.25004"/>
  <rect fill="#FFEBA2" height="52.5" id="6acbbd5cc942420f92b1a476a03cd407-ao-4" stroke="#2D2D2D" width="170.00001" x="965.74997" y="176.75004"/>
  <rect fill="#FFEBA2" height="30" id="6acbbd5cc942420f92b1a476a03cd407-ao-5" stroke="#2D2D2D" width="365.00002" x="48.24993" y="219.25004"/>
  <rect fill="#FFEBA2" height="27.5" id="6acbbd5cc942420f92b1a476a03cd407-ao-6" stroke="#2D2D2D" width="280.00001" x="130.74993" y="271.75004"/>
  <rect fill="#FFEBA2" height="25" id="6acbbd5cc942420f92b1a476a03cd407-ao-7" stroke="#2D2D2D" width="255.00001" x="903.24997" y="251.75004"/>
  <rect fill="#FFEBA2" height="30" id="6acbbd5cc942420f92b1a476a03cd407-ao-8" stroke="#2D2D2D" width="212.50001" x="200.74994" y="318.00005"/>
  <rect fill="#FFEBA2" height="30" id="6acbbd5cc942420f92b1a476a03cd407-ao-9" stroke="#2D2D2D" width="95" x="900.74997" y="300.50004"/>
  <rect fill="#FFEBA2" height="30" id="6acbbd5cc942420f92b1a476a03cd407-ao-10" stroke="#2D2D2D" width="175.00001" x="238.24994" y="365.50005"/>
  
  <rect fill="#FFEBA2" height="32.5" id="6acbbd5cc942420f92b1a476a03cd407-ao-12" stroke="#2D2D2D" width="347.50002" x="110.74993" y="415.50005"/>
  <rect fill="#FFEBA2" height="50" id="6acbbd5cc942420f92b1a476a03cd407-ao-13" stroke="#2D2D2D" width="225.00001" x="903.24997" y="413.00005"/>
  <rect fill="#FFEBA2" height="32.5" id="6acbbd5cc942420f92b1a476a03cd407-ao-14" stroke="#2D2D2D" width="302.50001" x="218.24994" y="468.00005"/>
  <rect fill="#FFEBA2" height="27.5" id="6acbbd5cc942420f92b1a476a03cd407-ao-15" stroke="#2D2D2D" width="245.00001" x="900.74997" y="480.50005"/>
  <rect fill="#FFEBA2" height="32.5" id="6acbbd5cc942420f92b1a476a03cd407-ao-16" stroke="#2D2D2D" width="287.50001" x="265.74994" y="515.50005"/>
  <rect fill="#FFEBA2" height="30" id="6acbbd5cc942420f92b1a476a03cd407-ao-17" stroke="#2D2D2D" width="170.00001" x="420.74995" y="563.00006"/>
 </g>
</svg>