<svg height="1630.9999999999998" width="1535.9999999999998" xmlns="http://www.w3.org/2000/svg">
 <!-- Created with Image Occlusion Enhanced -->
 <g>
  <title>Labels</title>
 </g>
 <g>
  <title>Masks</title>
  <rect class="qshape" fill="#FF7E7E" height="54.28572" id="6bc4bac8f32b4019b0ce52ab8a11357a-ao-1" stroke="#2D2D2D" width="228.57144" x="1029.7144" y="60.42864"/>
  <rect fill="#FFEBA2" height="48.57143" id="6bc4bac8f32b4019b0ce52ab8a11357a-ao-2" stroke="#2D2D2D" width="217.14287" x="178.28579" y="109.00007"/>
  <rect fill="#FFEBA2" height="31.42857" id="6bc4bac8f32b4019b0ce52ab8a11357a-ao-3" stroke="#2D2D2D" width="237.14287" x="1032.57155" y="146.14293"/>
  <rect fill="#FFEBA2" height="34.28572" id="6bc4bac8f32b4019b0ce52ab8a11357a-ao-4" stroke="#2D2D2D" width="162.85715" x="175.42865" y="209.00008"/>
  <rect fill="#FFEBA2" height="51.42857" id="6bc4bac8f32b4019b0ce52ab8a11357a-ao-5" stroke="#2D2D2D" width="314.28573" x="1026.85726" y="231.85722"/>
  <rect fill="#FFEBA2" height="34.28572" id="6bc4bac8f32b4019b0ce52ab8a11357a-ao-6" stroke="#2D2D2D" width="191.42858" x="175.42865" y="283.28579"/>
  <rect fill="#FFEBA2" height="34.28572" id="6bc4bac8f32b4019b0ce52ab8a11357a-ao-7" stroke="#2D2D2D" width="274.28573" x="1024.00012" y="311.85722"/>
  <rect fill="#FFEBA2" height="31.42857" id="6bc4bac8f32b4019b0ce52ab8a11357a-ao-8" stroke="#2D2D2D" width="228.57144" x="169.71436" y="363.2858"/>
  <rect fill="#FFEBA2" height="31.42857" id="6bc4bac8f32b4019b0ce52ab8a11357a-ao-9" stroke="#2D2D2D" width="211.42858" x="1026.85726" y="380.42866"/>
  <rect fill="#FFEBA2" height="31.42857" id="6bc4bac8f32b4019b0ce52ab8a11357a-ao-10" stroke="#2D2D2D" width="182.85715" x="169.71436" y="443.2858"/>
  <rect fill="#FFEBA2" height="57.14286" id="6bc4bac8f32b4019b0ce52ab8a11357a-ao-11" stroke="#2D2D2D" width="242.85715" x="1026.85726" y="440.42866"/>
  <rect fill="#FFEBA2" height="28.57143" id="6bc4bac8f32b4019b0ce52ab8a11357a-ao-12" stroke="#2D2D2D" width="205.7143" x="169.71436" y="517.57152"/>
  <rect fill="#FFEBA2" height="31.42857" id="6bc4bac8f32b4019b0ce52ab8a11357a-ao-13" stroke="#2D2D2D" width="222.85715" x="1029.7144" y="529.00009"/>
  <rect fill="#FFEBA2" height="34.28572" id="6bc4bac8f32b4019b0ce52ab8a11357a-ao-14" stroke="#2D2D2D" width="308.57144" x="169.71436" y="603.28581"/>
  <rect fill="#FFEBA2" height="34.28572" id="6bc4bac8f32b4019b0ce52ab8a11357a-ao-15" stroke="#2D2D2D" width="300.00001" x="1026.85726" y="606.14295"/>
  <rect fill="#FFEBA2" height="57.14286" id="6bc4bac8f32b4019b0ce52ab8a11357a-ao-16" stroke="#2D2D2D" width="302.85716" x="166.85722" y="677.57153"/>
  <rect fill="#FFEBA2" height="54.28572" id="6bc4bac8f32b4019b0ce52ab8a11357a-ao-17" stroke="#2D2D2D" width="211.42858" x="166.85722" y="760.42867"/>
  <rect fill="#FFEBA2" height="51.42857" id="6bc4bac8f32b4019b0ce52ab8a11357a-ao-18" stroke="#2D2D2D" width="277.14287" x="1026.85726" y="800.42868"/>
  <rect fill="#FFEBA2" height="31.42857" id="6bc4bac8f32b4019b0ce52ab8a11357a-ao-19" stroke="#2D2D2D" width="162.85715" x="169.71436" y="869.00011"/>
  <rect fill="#FFEBA2" height="31.42857" id="6bc4bac8f32b4019b0ce52ab8a11357a-ao-20" stroke="#2D2D2D" width="165.71429" x="1026.85726" y="883.28582"/>
  <rect fill="#FFEBA2" height="48.57143" id="6bc4bac8f32b4019b0ce52ab8a11357a-ao-21" stroke="#2D2D2D" width="162.85715" x="169.71436" y="966.14297"/>
  <rect fill="#FFEBA2" height="31.42857" id="6bc4bac8f32b4019b0ce52ab8a11357a-ao-22" stroke="#2D2D2D" width="280.00001" x="1026.85726" y="991.85726"/>
  <rect fill="#FFEBA2" height="54.28572" id="6bc4bac8f32b4019b0ce52ab8a11357a-ao-23" stroke="#2D2D2D" width="280.00001" x="169.71436" y="1077.57155"/>
  <rect fill="#FFEBA2" height="31.42857" id="6bc4bac8f32b4019b0ce52ab8a11357a-ao-24" stroke="#2D2D2D" width="208.57144" x="1026.85726" y="1114.7144"/>
  <rect fill="#FFEBA2" height="28.57143" id="6bc4bac8f32b4019b0ce52ab8a11357a-ao-25" stroke="#2D2D2D" width="228.57144" x="166.85722" y="1149.00012"/>
  <rect fill="#FFEBA2" height="31.42857" id="6bc4bac8f32b4019b0ce52ab8a11357a-ao-26" stroke="#2D2D2D" width="165.71429" x="1026.85726" y="1174.71441"/>
  <rect fill="#FFEBA2" height="48.57143" id="6bc4bac8f32b4019b0ce52ab8a11357a-ao-27" stroke="#2D2D2D" width="242.85715" x="169.71436" y="1191.85726"/>
  <rect fill="#FFEBA2" height="28.57143" id="6bc4bac8f32b4019b0ce52ab8a11357a-ao-28" stroke="#2D2D2D" width="162.85715" x="1029.7144" y="1223.28584"/>
  <rect fill="#FFEBA2" height="54.28572" id="6bc4bac8f32b4019b0ce52ab8a11357a-ao-29" stroke="#2D2D2D" width="197.14287" x="169.71436" y="1251.85727"/>
  <rect fill="#FFEBA2" height="54.28572" id="6bc4bac8f32b4019b0ce52ab8a11357a-ao-30" stroke="#2D2D2D" width="294.28573" x="1029.7144" y="1269.00013"/>
  <rect fill="#FFEBA2" height="28.57143" id="6bc4bac8f32b4019b0ce52ab8a11357a-ao-31" stroke="#2D2D2D" width="254.28573" x="166.85722" y="1323.28584"/>
  <rect fill="#FFEBA2" height="54.28572" id="6bc4bac8f32b4019b0ce52ab8a11357a-ao-32" stroke="#2D2D2D" width="277.14287" x="1026.85726" y="1349.00013"/>
  <rect fill="#FFEBA2" height="51.42857" id="6bc4bac8f32b4019b0ce52ab8a11357a-ao-33" stroke="#2D2D2D" width="351.42858" x="1026.85726" y="1431.85728"/>
  <rect fill="#FFEBA2" height="48.57143" id="6bc4bac8f32b4019b0ce52ab8a11357a-ao-34" stroke="#2D2D2D" width="211.42858" x="1026.85726" y="1509.00014"/>
  <rect fill="#FFEBA2" height="31.42857" id="6bc4bac8f32b4019b0ce52ab8a11357a-ao-35" stroke="#2D2D2D" width="351.42859" x="1032.57155" y="1580.42871"/>
  <rect fill="#FFEBA2" height="34.28572" id="6bc4bac8f32b4019b0ce52ab8a11357a-ao-36" stroke="#2D2D2D" width="151.42858" x="209.71436" y="1563.28585"/>
 </g>
</svg>