<svg height="1523" width="1266" xmlns="http://www.w3.org/2000/svg">
 <!-- Created with Image Occlusion Enhanced -->
 <g>
  <title>Labels</title>
 </g>
 <g>
  <title>Masks</title>
  <rect fill="#FFEBA2" height="25.71429" id="6cd7486881734137bd6aec8a5b9a2296-ao-1" stroke="#2D2D2D" width="257.14286" x="898.28569" y="34.14289"/>
  <rect fill="#FFEBA2" height="31.42857" id="6cd7486881734137bd6aec8a5b9a2296-ao-2" stroke="#2D2D2D" width="254.28572" x="163.99996" y="62.71432"/>
  <rect fill="#FFEBA2" height="28.57143" id="6cd7486881734137bd6aec8a5b9a2296-ao-3" stroke="#2D2D2D" width="228.57143" x="901.14284" y="94.14289"/>
  <rect fill="#FFEBA2" height="25.71429" id="6cd7486881734137bd6aec8a5b9a2296-ao-4" stroke="#2D2D2D" width="302.85715" x="138.28568" y="122.71432"/>
  <rect fill="#FFEBA2" height="28.57143" id="6cd7486881734137bd6aec8a5b9a2296-ao-5" stroke="#2D2D2D" width="294.28572" x="886.85712" y="148.42861"/>
  <rect fill="#FFEBA2" height="25.71429" id="6cd7486881734137bd6aec8a5b9a2296-ao-6" stroke="#2D2D2D" width="274.28572" x="161.14282" y="159.85718"/>
  <rect fill="#FFEBA2" height="28.57143" id="6cd7486881734137bd6aec8a5b9a2296-ao-7" stroke="#2D2D2D" width="240.00001" x="192.57139" y="205.57147"/>
  <rect fill="#FFEBA2" height="28.57143" id="6cd7486881734137bd6aec8a5b9a2296-ao-8" stroke="#2D2D2D" width="228.57143" x="883.99998" y="205.57147"/>
  <rect fill="#FFEBA2" height="28.57143" id="6cd7486881734137bd6aec8a5b9a2296-ao-9" stroke="#2D2D2D" width="174.28572" x="209.71425" y="259.85718"/>
  <rect fill="#FFEBA2" height="28.57143" id="6cd7486881734137bd6aec8a5b9a2296-ao-10" stroke="#2D2D2D" width="234.28572" x="886.85712" y="265.57147"/>
  <rect fill="#FFEBA2" height="25.71429" id="6cd7486881734137bd6aec8a5b9a2296-ao-11" stroke="#2D2D2D" width="277.14286" x="921.14284" y="322.71433"/>
  <rect fill="#FFEBA2" height="31.42857" id="6cd7486881734137bd6aec8a5b9a2296-ao-12" stroke="#2D2D2D" width="154.28572" x="132.57139" y="319.85719"/>
  <rect fill="#FFEBA2" height="28.57143" id="6cd7486881734137bd6aec8a5b9a2296-ao-13" stroke="#2D2D2D" width="145.71429" x="55.42853" y="377.00004"/>
  
  <rect fill="#FFEBA2" height="68.57143" id="6cd7486881734137bd6aec8a5b9a2296-ao-15" stroke="#2D2D2D" width="148.57143" x="1112.57141" y="471.28576"/>
  <rect fill="#FFEBA2" height="51.42857" id="6cd7486881734137bd6aec8a5b9a2296-ao-16" stroke="#2D2D2D" width="128.57143" x="41.14282" y="508.42862"/>
  <rect fill="#FFEBA2" height="74.28572" id="6cd7486881734137bd6aec8a5b9a2296-ao-17" stroke="#2D2D2D" width="131.42857" x="1126.85713" y="577.00005"/>
  <rect fill="#FFEBA2" height="48.57143" id="6cd7486881734137bd6aec8a5b9a2296-ao-18" stroke="#2D2D2D" width="131.42857" x="38.28567" y="574.14291"/>
  <rect fill="#FFEBA2" height="51.42857" id="6cd7486881734137bd6aec8a5b9a2296-ao-19" stroke="#2D2D2D" width="125.71429" x="38.28567" y="645.57148"/>
  <rect fill="#FFEBA2" height="94.28572" id="6cd7486881734137bd6aec8a5b9a2296-ao-20" stroke="#2D2D2D" width="128.57143" x="1123.99999" y="685.57148"/>
  <rect fill="#FFEBA2" height="54.28572" id="6cd7486881734137bd6aec8a5b9a2296-ao-21" stroke="#2D2D2D" width="131.42857" x="29.71425" y="748.42862"/>
  <rect fill="#FFEBA2" height="71.42857" id="6cd7486881734137bd6aec8a5b9a2296-ao-22" stroke="#2D2D2D" width="122.85715" x="1126.85713" y="822.71434"/>
  <rect fill="#FFEBA2" height="48.57143" id="6cd7486881734137bd6aec8a5b9a2296-ao-23" stroke="#2D2D2D" width="174.28572" x="69.71425" y="882.71434"/>
  <rect fill="#FFEBA2" height="28.57143" id="6cd7486881734137bd6aec8a5b9a2296-ao-24" stroke="#2D2D2D" width="265.71429" x="989.71427" y="925.57148"/>
  <rect fill="#FFEBA2" height="28.57143" id="6cd7486881734137bd6aec8a5b9a2296-ao-25" stroke="#2D2D2D" width="211.42858" x="103.99996" y="957.00006"/>
  <rect fill="#FFEBA2" height="28.57143" id="6cd7486881734137bd6aec8a5b9a2296-ao-26" stroke="#2D2D2D" width="234.28572" x="975.42855" y="982.71434"/>
  <rect fill="#FFEBA2" height="45.71429" id="6cd7486881734137bd6aec8a5b9a2296-ao-27" stroke="#2D2D2D" width="194.28572" x="121.14282" y="1028.42863"/>
  <rect fill="#FFEBA2" height="48.57143" id="6cd7486881734137bd6aec8a5b9a2296-ao-28" stroke="#2D2D2D" width="260.00001" x="969.71427" y="1042.71434"/>
  <rect fill="#FFEBA2" height="31.42857" id="6cd7486881734137bd6aec8a5b9a2296-ao-29" stroke="#2D2D2D" width="82.85714" x="972.57141" y="1117.00006"/>
  <rect fill="#FFEBA2" height="77.14286" id="6cd7486881734137bd6aec8a5b9a2296-ao-30" stroke="#2D2D2D" width="265.71429" x="61.14282" y="1125.57149"/>
  <rect fill="#FFEBA2" height="25.71429" id="6cd7486881734137bd6aec8a5b9a2296-ao-31" stroke="#2D2D2D" width="205.71429" x="969.71427" y="1177.00006"/>
  <rect fill="#FFEBA2" height="31.42857" id="6cd7486881734137bd6aec8a5b9a2296-ao-32" stroke="#2D2D2D" width="100" x="192.57139" y="1228.42863"/>
  <rect fill="#FFEBA2" height="51.42857" id="6cd7486881734137bd6aec8a5b9a2296-ao-33" stroke="#2D2D2D" width="191.42858" x="963.99998" y="1234.14292"/>
  <rect fill="#FFEBA2" height="51.42857" id="6cd7486881734137bd6aec8a5b9a2296-ao-34" stroke="#2D2D2D" width="200" x="963.99998" y="1308.42864"/>
  <rect fill="#FFEBA2" height="37.14286" id="6cd7486881734137bd6aec8a5b9a2296-ao-35" stroke="#2D2D2D" width="240.00001" x="58.28567" y="1359.85721"/>
 </g>
</svg>