<svg height="916" width="1281" xmlns="http://www.w3.org/2000/svg">
 <!-- Created with Image Occlusion Enhanced -->
 <g>
  <title>Labels</title>
 </g>
 <g>
  <title>Masks</title>
  <rect fill="#FFEBA2" height="128.57143" id="6dd29977988e40f18d254733b7daab16-ao-1" stroke="#2D2D2D" width="225.71428" x="118.99998" y="71.14284"/>
  <rect fill="#FFEBA2" height="54.28571" id="6dd29977988e40f18d254733b7daab16-ao-2" stroke="#2D2D2D" width="242.85714" x="927.5714" y="182.57141"/>
  <rect fill="#FFEBA2" height="57.14286" id="6dd29977988e40f18d254733b7daab16-ao-3" stroke="#2D2D2D" width="217.14285" x="156.14284" y="268.28569"/>
  <rect fill="#FFEBA2" height="60" id="6dd29977988e40f18d254733b7daab16-ao-4" stroke="#2D2D2D" width="291.42857" x="924.71426" y="262.57141"/>
  <rect fill="#FFEBA2" height="54.28571" id="6dd29977988e40f18d254733b7daab16-ao-5" stroke="#2D2D2D" width="317.14285" x="67.57141" y="348.28569"/>
  <rect fill="#FFEBA2" height="40" id="6dd29977988e40f18d254733b7daab16-ao-6" stroke="#2D2D2D" width="240" x="1004.71425" y="345.42855"/>
  <rect fill="#FFEBA2" height="60" id="6dd29977988e40f18d254733b7daab16-ao-7" stroke="#2D2D2D" width="297.14285" x="53.2857" y="411.14283"/>
  
  <rect fill="#FFEBA2" height="31.42857" id="6dd29977988e40f18d254733b7daab16-ao-9" stroke="#2D2D2D" width="300" x="58.99998" y="482.5714"/>
  <rect fill="#FFEBA2" height="34.28571" id="6dd29977988e40f18d254733b7daab16-ao-10" stroke="#2D2D2D" width="268.57142" x="976.14283" y="508.28569"/>
  <rect fill="#FFEBA2" height="34.28571" id="6dd29977988e40f18d254733b7daab16-ao-11" stroke="#2D2D2D" width="222.85714" x="150.42855" y="545.42854"/>
  <rect fill="#FFEBA2" height="51.42857" id="6dd29977988e40f18d254733b7daab16-ao-12" stroke="#2D2D2D" width="305.71428" x="956.14283" y="559.71426"/>
  <rect fill="#FFEBA2" height="37.14286" id="6dd29977988e40f18d254733b7daab16-ao-13" stroke="#2D2D2D" width="311.42857" x="36.14284" y="599.71426"/>
  <rect fill="#FFEBA2" height="37.14286" id="6dd29977988e40f18d254733b7daab16-ao-14" stroke="#2D2D2D" width="260" x="938.99997" y="631.14283"/>
  <rect fill="#FFEBA2" height="54.28571" id="6dd29977988e40f18d254733b7daab16-ao-15" stroke="#2D2D2D" width="342.85714" x="36.14284" y="659.71426"/>
  <rect fill="#FFEBA2" height="34.28571" id="6dd29977988e40f18d254733b7daab16-ao-16" stroke="#2D2D2D" width="342.85714" x="878.99997" y="688.28568"/>
  <rect fill="#FFEBA2" height="60" id="6dd29977988e40f18d254733b7daab16-ao-17" stroke="#2D2D2D" width="300" x="78.99998" y="728.28568"/>
  <rect fill="#FFEBA2" height="37.14286" id="6dd29977988e40f18d254733b7daab16-ao-18" stroke="#2D2D2D" width="379.99999" x="821.85711" y="742.5714"/>
  <rect fill="#FFEBA2" height="51.42857" id="6dd29977988e40f18d254733b7daab16-ao-19" stroke="#2D2D2D" width="334.28571" x="87.57141" y="796.85711"/>
  <rect fill="#FFEBA2" height="37.14286" id="6dd29977988e40f18d254733b7daab16-ao-20" stroke="#2D2D2D" width="314.28571" x="793.28569" y="793.99997"/>
  <rect fill="#FFEBA2" height="34.28571" id="6dd29977988e40f18d254733b7daab16-ao-21" stroke="#2D2D2D" width="214.28571" x="167.57141" y="859.71425"/>
  <rect fill="#FFEBA2" height="31.42857" id="6dd29977988e40f18d254733b7daab16-ao-22" stroke="#2D2D2D" width="125.71428" x="804.71426" y="856.85711"/>
 </g>
</svg>