<svg height="563" width="1242" xmlns="http://www.w3.org/2000/svg">
 <!-- Created with Image Occlusion Enhanced -->
 <g>
  <title>Labels</title>
 </g>
 <g>
  <title>Masks</title>
  <rect fill="#FFEBA2" height="28.57143" id="6e717490ae634690a3750b151f59c04a-ao-1" stroke="#2D2D2D" width="162.85714" x="842.28566" y="76.99999"/>
  <rect fill="#FFEBA2" height="54.28571" id="6e717490ae634690a3750b151f59c04a-ao-2" stroke="#2D2D2D" width="311.42857" x="87.99996" y="85.57142"/>
  
  <rect fill="#FFEBA2" height="28.57143" id="6e717490ae634690a3750b151f59c04a-ao-4" stroke="#2D2D2D" width="60" x="310.8571" y="156.99999"/>
  <rect fill="#FFEBA2" height="28.57143" id="6e717490ae634690a3750b151f59c04a-ao-5" stroke="#2D2D2D" width="268.57142" x="919.42851" y="185.57142"/>
  <rect fill="#FFEBA2" height="28.57143" id="6e717490ae634690a3750b151f59c04a-ao-6" stroke="#2D2D2D" width="185.71428" x="139.42853" y="205.57142"/>
  <rect fill="#FFEBA2" height="28.57143" id="6e717490ae634690a3750b151f59c04a-ao-7" stroke="#2D2D2D" width="288.57142" x="922.28566" y="225.57142"/>
  <rect fill="#FFEBA2" height="31.42857" id="6e717490ae634690a3750b151f59c04a-ao-8" stroke="#2D2D2D" width="168.57143" x="136.57138" y="251.2857"/>
  <rect fill="#FFEBA2" height="28.57143" id="6e717490ae634690a3750b151f59c04a-ao-9" stroke="#2D2D2D" width="242.85714" x="922.28566" y="268.42856"/>
  <rect fill="#FFEBA2" height="31.42857" id="6e717490ae634690a3750b151f59c04a-ao-10" stroke="#2D2D2D" width="240" x="53.71424" y="299.85713"/>
  <rect fill="#FFEBA2" height="28.57143" id="6e717490ae634690a3750b151f59c04a-ao-11" stroke="#2D2D2D" width="257.14285" x="922.28566" y="308.42856"/>
  <rect fill="#FFEBA2" height="28.57143" id="6e717490ae634690a3750b151f59c04a-ao-12" stroke="#2D2D2D" width="60" x="245.14281" y="351.2857"/>
  <rect fill="#FFEBA2" height="51.42857" id="6e717490ae634690a3750b151f59c04a-ao-13" stroke="#2D2D2D" width="260" x="925.1428" y="348.42856"/>
  <rect fill="#FFEBA2" height="28.57143" id="6e717490ae634690a3750b151f59c04a-ao-14" stroke="#2D2D2D" width="228.57143" x="73.71424" y="402.71427"/>
  <rect fill="#FFEBA2" height="25.71429" id="6e717490ae634690a3750b151f59c04a-ao-15" stroke="#2D2D2D" width="240" x="922.28566" y="414.14284"/>
  <rect fill="#FFEBA2" height="28.57143" id="6e717490ae634690a3750b151f59c04a-ao-16" stroke="#2D2D2D" width="245.71428" x="47.99996" y="448.42856"/>
  <rect fill="#FFEBA2" height="28.57143" id="6e717490ae634690a3750b151f59c04a-ao-17" stroke="#2D2D2D" width="254.28571" x="925.1428" y="456.99998"/>
  <rect fill="#FFEBA2" height="28.57143" id="6e717490ae634690a3750b151f59c04a-ao-18" stroke="#2D2D2D" width="254.28571" x="42.28567" y="496.99998"/>
  <rect fill="#FFEBA2" height="28.57143" id="6e717490ae634690a3750b151f59c04a-ao-19" stroke="#2D2D2D" width="257.14285" x="922.28566" y="494.14284"/>
 </g>
</svg>