<svg height="1550" width="1535.9999999999998" xmlns="http://www.w3.org/2000/svg">
 <!-- Created with Image Occlusion Enhanced -->
 <g>
  <title>Labels</title>
 </g>
 <g>
  <title>Masks</title>
  <rect fill="#FFEBA2" height="45.71429" id="70f50556ef2d4000852efa79af290781-ao-1" stroke="#2D2D2D" width="374.28573" x="301.14294" y="11.42854"/>
  <rect fill="#FFEBA2" height="25.71429" id="70f50556ef2d4000852efa79af290781-ao-2" stroke="#2D2D2D" width="408.57145" x="875.42868" y="8.57139"/>
  <rect fill="#FFEBA2" height="25.71429" id="70f50556ef2d4000852efa79af290781-ao-3" stroke="#2D2D2D" width="154.28572" x="921.14297" y="51.42854"/>
  <rect fill="#FFEBA2" height="28.57143" id="70f50556ef2d4000852efa79af290781-ao-4" stroke="#2D2D2D" width="68.57143" x="544.00009" y="79.99997"/>
  
  <rect fill="#FFEBA2" height="25.71429" id="70f50556ef2d4000852efa79af290781-ao-6" stroke="#2D2D2D" width="85.71429" x="472.57152" y="145.71426"/>
  <rect fill="#FFEBA2" height="28.57143" id="70f50556ef2d4000852efa79af290781-ao-7" stroke="#2D2D2D" width="85.71429" x="975.42869" y="165.71426"/>
  <rect fill="#FFEBA2" height="28.57143" id="70f50556ef2d4000852efa79af290781-ao-8" stroke="#2D2D2D" width="242.85715" x="269.71437" y="208.5714"/>
  <rect fill="#FFEBA2" height="28.57143" id="70f50556ef2d4000852efa79af290781-ao-9" stroke="#2D2D2D" width="177.14287" x="1006.85726" y="222.85712"/>
  <rect fill="#FFEBA2" height="31.42857" id="70f50556ef2d4000852efa79af290781-ao-10" stroke="#2D2D2D" width="105.71429" x="369.71437" y="268.57141"/>
  <rect fill="#FFEBA2" height="25.71429" id="70f50556ef2d4000852efa79af290781-ao-11" stroke="#2D2D2D" width="71.42857" x="1026.85726" y="282.85712"/>
  <rect fill="#FFEBA2" height="28.57143" id="70f50556ef2d4000852efa79af290781-ao-12" stroke="#2D2D2D" width="171.42858" x="278.2858" y="328.57141"/>
  <rect fill="#FFEBA2" height="54.28572" id="70f50556ef2d4000852efa79af290781-ao-13" stroke="#2D2D2D" width="214.28572" x="1084.00012" y="334.28569"/>
  <rect fill="#FFEBA2" height="28.57143" id="70f50556ef2d4000852efa79af290781-ao-14" stroke="#2D2D2D" width="277.14287" x="175.42865" y="394.2857"/>
  <rect fill="#FFEBA2" height="54.28572" id="70f50556ef2d4000852efa79af290781-ao-15" stroke="#2D2D2D" width="208.57144" x="1112.57155" y="414.2857"/>
  <rect fill="#FFEBA2" height="28.57143" id="70f50556ef2d4000852efa79af290781-ao-16" stroke="#2D2D2D" width="260.00001" x="161.14293" y="457.14284"/>
  <rect fill="#FFEBA2" height="51.42857" id="70f50556ef2d4000852efa79af290781-ao-17" stroke="#2D2D2D" width="217.14287" x="1112.57155" y="499.99999"/>
  <rect fill="#FFEBA2" height="31.42857" id="70f50556ef2d4000852efa79af290781-ao-18" stroke="#2D2D2D" width="191.42858" x="161.14293" y="494.2857"/>
  <rect fill="#FFEBA2" height="31.42857" id="70f50556ef2d4000852efa79af290781-ao-19" stroke="#2D2D2D" width="188.57144" x="1155.42869" y="577.14285"/>
  <rect fill="#FFEBA2" height="48.57143" id="70f50556ef2d4000852efa79af290781-ao-20" stroke="#2D2D2D" width="202.85715" x="166.85722" y="537.14285"/>
  <rect fill="#FFEBA2" height="25.71429" id="70f50556ef2d4000852efa79af290781-ao-21" stroke="#2D2D2D" width="125.71429" x="204.00008" y="611.42856"/>
  <rect fill="#FFEBA2" height="74.28572" id="70f50556ef2d4000852efa79af290781-ao-22" stroke="#2D2D2D" width="200.00001" x="1166.85727" y="631.42856"/>
  <rect fill="#FFEBA2" height="77.14286" id="70f50556ef2d4000852efa79af290781-ao-23" stroke="#2D2D2D" width="194.28572" x="146.85722" y="665.71428"/>
  <rect fill="#FFEBA2" height="51.42857" id="70f50556ef2d4000852efa79af290781-ao-24" stroke="#2D2D2D" width="162.85715" x="1198.28584" y="742.85714"/>
  <rect fill="#FFEBA2" height="74.28572" id="70f50556ef2d4000852efa79af290781-ao-25" stroke="#2D2D2D" width="117.14286" x="152.57151" y="751.42857"/>
  <rect fill="#FFEBA2" height="77.14286" id="70f50556ef2d4000852efa79af290781-ao-26" stroke="#2D2D2D" width="177.14287" x="1201.14298" y="820"/>
  <rect fill="#FFEBA2" height="108.57143" id="70f50556ef2d4000852efa79af290781-ao-27" stroke="#2D2D2D" width="191.42858" x="149.71436" y="857.14286"/>
  <rect fill="#FFEBA2" height="48.57143" id="70f50556ef2d4000852efa79af290781-ao-28" stroke="#2D2D2D" width="202.85715" x="1198.28584" y="914.28572"/>
  <rect fill="#FFEBA2" height="45.71429" id="70f50556ef2d4000852efa79af290781-ao-29" stroke="#2D2D2D" width="154.28572" x="1206.85727" y="982.85715"/>
  <rect fill="#FFEBA2" height="51.42857" id="70f50556ef2d4000852efa79af290781-ao-30" stroke="#2D2D2D" width="205.7143" x="149.71436" y="994.28572"/>
  <rect fill="#FFEBA2" height="94.28572" id="70f50556ef2d4000852efa79af290781-ao-31" stroke="#2D2D2D" width="188.57144" x="1186.85727" y="1048.57144"/>
  <rect fill="#FFEBA2" height="74.28572" id="70f50556ef2d4000852efa79af290781-ao-32" stroke="#2D2D2D" width="151.42858" x="169.71436" y="1080.00001"/>
  <rect fill="#FFEBA2" height="120.00001" id="70f50556ef2d4000852efa79af290781-ao-33" stroke="#2D2D2D" width="242.85715" x="1155.42869" y="1168.57145"/>
  <rect fill="#FFEBA2" height="48.57143" id="70f50556ef2d4000852efa79af290781-ao-34" stroke="#2D2D2D" width="165.71429" x="166.85722" y="1188.57145"/>
  <rect fill="#FFEBA2" height="54.28572" id="70f50556ef2d4000852efa79af290781-ao-35" stroke="#2D2D2D" width="177.14287" x="181.14294" y="1271.42859"/>
  <rect fill="#FFEBA2" height="51.42857" id="70f50556ef2d4000852efa79af290781-ao-36" stroke="#2D2D2D" width="245.7143" x="1141.14298" y="1311.4286"/>
  <rect fill="#FFEBA2" height="51.42857" id="70f50556ef2d4000852efa79af290781-ao-37" stroke="#2D2D2D" width="185.71429" x="218.28579" y="1357.14288"/>
  <rect fill="#FFEBA2" height="48.57143" id="70f50556ef2d4000852efa79af290781-ao-38" stroke="#2D2D2D" width="268.57144" x="1112.57155" y="1394.28574"/>
  <rect fill="#FFEBA2" height="31.42857" id="70f50556ef2d4000852efa79af290781-ao-39" stroke="#2D2D2D" width="237.14287" x="192.57151" y="1442.85717"/>
 </g>
</svg>