<svg height="835" width="1177" xmlns="http://www.w3.org/2000/svg">
 <!-- Created with Image Occlusion Enhanced -->
 <g>
  <title>Labels</title>
 </g>
 <g>
  <title>Masks</title>
  <rect fill="#FFEBA2" height="32.5" id="7154adc8b7924a7e9a3ad89d7a8ac923-ao-1" stroke="#2D2D2D" width="180" x="20.50003" y="167.49999"/>
  <rect fill="#FFEBA2" height="27.5" id="7154adc8b7924a7e9a3ad89d7a8ac923-ao-2" stroke="#2D2D2D" width="170" x="923.00005" y="192.49999"/>
  <rect fill="#FFEBA2" height="25" id="7154adc8b7924a7e9a3ad89d7a8ac923-ao-3" stroke="#2D2D2D" width="187.5" x="920.50005" y="277.5"/>
  <rect fill="#FFEBA2" height="25" id="7154adc8b7924a7e9a3ad89d7a8ac923-ao-4" stroke="#2D2D2D" width="55" x="918.00005" y="320"/>
  <rect fill="#FFEBA2" height="32.5" id="7154adc8b7924a7e9a3ad89d7a8ac923-ao-5" stroke="#2D2D2D" width="227.50001" x="23.00003" y="362.5"/>
  <rect fill="#FFEBA2" height="25" id="7154adc8b7924a7e9a3ad89d7a8ac923-ao-6" stroke="#2D2D2D" width="175" x="918.00005" y="352.5"/>
  <rect fill="#FFEBA2" height="30" id="7154adc8b7924a7e9a3ad89d7a8ac923-ao-7" stroke="#2D2D2D" width="225.00001" x="920.50005" y="425"/>
  <rect fill="#FFEBA2" height="30" id="7154adc8b7924a7e9a3ad89d7a8ac923-ao-8" stroke="#2D2D2D" width="147.5" x="20.50003" y="432.5"/>
  <rect fill="#FFEBA2" height="30" id="7154adc8b7924a7e9a3ad89d7a8ac923-ao-9" stroke="#2D2D2D" width="187.5" x="923.00005" y="500"/>
  <rect fill="#FFEBA2" height="27.5" id="7154adc8b7924a7e9a3ad89d7a8ac923-ao-10" stroke="#2D2D2D" width="107.5" x="923.00005" y="540"/>
  <rect fill="#FFEBA2" height="25" id="7154adc8b7924a7e9a3ad89d7a8ac923-ao-11" stroke="#2D2D2D" width="117.5" x="920.50005" y="605"/>
  <rect fill="#FFEBA2" height="27.5" id="7154adc8b7924a7e9a3ad89d7a8ac923-ao-12" stroke="#2D2D2D" width="185" x="920.50005" y="645.00001"/>
  <rect fill="#FFEBA2" height="25" id="7154adc8b7924a7e9a3ad89d7a8ac923-ao-13" stroke="#2D2D2D" width="167.5" x="23.00003" y="670.00001"/>
  <rect class="qshape" fill="#FF7E7E" height="27.5" id="7154adc8b7924a7e9a3ad89d7a8ac923-ao-14" stroke="#2D2D2D" width="80" x="20.50003" y="735.00001"/>
  <rect fill="#FFEBA2" height="27.5" id="7154adc8b7924a7e9a3ad89d7a8ac923-ao-15" stroke="#2D2D2D" width="235.00001" x="918.00005" y="745.00001"/>
  <rect fill="#FFEBA2" height="30" id="7154adc8b7924a7e9a3ad89d7a8ac923-ao-16" stroke="#2D2D2D" width="155" x="23.00003" y="792.50001"/>
 </g>
</svg>