<svg height="1448" width="1535.9999999999998" xmlns="http://www.w3.org/2000/svg">
 <!-- Created with Image Occlusion Enhanced -->
 <g>
  <title>Labels</title>
 </g>
 <g>
  <title>Masks</title>
  <rect fill="#FFEBA2" height="25.71429" id="726bb3723ebf47a0823d6585d79b070d-ao-1" stroke="#2D2D2D" width="331.42859" x="729.71439" y="246.28574"/>
  <rect fill="#FFEBA2" height="28.57143" id="726bb3723ebf47a0823d6585d79b070d-ao-2" stroke="#2D2D2D" width="85.71429" x="612.57153" y="260.57146"/>
  <rect fill="#FFEBA2" height="22.85714" id="726bb3723ebf47a0823d6585d79b070d-ao-3" stroke="#2D2D2D" width="231.42858" x="821.14296" y="277.71432"/>
  <rect fill="#FFEBA2" height="25.71429" id="726bb3723ebf47a0823d6585d79b070d-ao-4" stroke="#2D2D2D" width="245.7143" x="412.57152" y="297.71432"/>
  <rect fill="#FFEBA2" height="25.71429" id="726bb3723ebf47a0823d6585d79b070d-ao-5" stroke="#2D2D2D" width="125.71429" x="855.42868" y="300.57146"/>
  <rect fill="#FFEBA2" height="25.71429" id="726bb3723ebf47a0823d6585d79b070d-ao-6" stroke="#2D2D2D" width="208.57144" x="884.00011" y="329.14289"/>
  <rect fill="#FFEBA2" height="28.57143" id="726bb3723ebf47a0823d6585d79b070d-ao-7" stroke="#2D2D2D" width="234.28572" x="398.2858" y="343.42861"/>
  <rect fill="#FFEBA2" height="28.57143" id="726bb3723ebf47a0823d6585d79b070d-ao-8" stroke="#2D2D2D" width="88.57143" x="915.42868" y="363.42861"/>
  <rect fill="#FFEBA2" height="28.57143" id="726bb3723ebf47a0823d6585d79b070d-ao-9" stroke="#2D2D2D" width="102.85715" x="504.00009" y="389.14289"/>
  <rect fill="#FFEBA2" height="28.57143" id="726bb3723ebf47a0823d6585d79b070d-ao-10" stroke="#2D2D2D" width="240.00001" x="955.42868" y="397.71432"/>
  <rect fill="#FFEBA2" height="28.57143" id="726bb3723ebf47a0823d6585d79b070d-ao-11" stroke="#2D2D2D" width="228.57144" x="326.85723" y="420.57147"/>
  <rect fill="#FFEBA2" height="28.57143" id="726bb3723ebf47a0823d6585d79b070d-ao-12" stroke="#2D2D2D" width="260.00001" x="1012.57154" y="432.00004"/>
  <rect fill="#FFEBA2" height="28.57143" id="726bb3723ebf47a0823d6585d79b070d-ao-13" stroke="#2D2D2D" width="128.57143" x="238.28579" y="452.00004"/>
  <rect fill="#FFEBA2" height="28.57143" id="726bb3723ebf47a0823d6585d79b070d-ao-14" stroke="#2D2D2D" width="225.7143" x="1095.42869" y="463.42861"/>
  <rect fill="#FFEBA2" height="68.57143" id="726bb3723ebf47a0823d6585d79b070d-ao-15" stroke="#2D2D2D" width="148.57144" x="169.71436" y="492.00004"/>
  <rect fill="#FFEBA2" height="28.57143" id="726bb3723ebf47a0823d6585d79b070d-ao-16" stroke="#2D2D2D" width="228.57144" x="1186.85727" y="497.71433"/>
  <rect fill="#FFEBA2" height="68.57143" id="726bb3723ebf47a0823d6585d79b070d-ao-17" stroke="#2D2D2D" width="137.14286" x="115.42865" y="566.28576"/>
  <rect fill="#FFEBA2" height="48.57143" id="726bb3723ebf47a0823d6585d79b070d-ao-18" stroke="#2D2D2D" width="122.85715" x="1292.57156" y="554.85719"/>
  <rect fill="#FFEBA2" height="31.42857" id="726bb3723ebf47a0823d6585d79b070d-ao-19" stroke="#2D2D2D" width="148.57144" x="175.42865" y="1026.28578"/>
  <rect fill="#FFEBA2" height="111.42858" id="726bb3723ebf47a0823d6585d79b070d-ao-20" stroke="#2D2D2D" width="97.14286" x="1304.00013" y="1000.57149"/>
  <rect fill="#FFEBA2" height="28.57143" id="726bb3723ebf47a0823d6585d79b070d-ao-21" stroke="#2D2D2D" width="202.85715" x="252.57151" y="1066.28578"/>
  <rect fill="#FFEBA2" height="74.28572" id="726bb3723ebf47a0823d6585d79b070d-ao-22" stroke="#2D2D2D" width="77.14286" x="1209.71441" y="1049.14292"/>
  <rect fill="#FFEBA2" height="31.42857" id="726bb3723ebf47a0823d6585d79b070d-ao-23" stroke="#2D2D2D" width="180.00001" x="329.71437" y="1112.00007"/>
  <rect fill="#FFEBA2" height="25.71429" id="726bb3723ebf47a0823d6585d79b070d-ao-24" stroke="#2D2D2D" width="82.85715" x="1098.28583" y="1106.28578"/>
  <rect fill="#FFEBA2" height="25.71429" id="726bb3723ebf47a0823d6585d79b070d-ao-25" stroke="#2D2D2D" width="228.57144" x="355.42866" y="1149.14293"/>
  <rect fill="#FFEBA2" height="25.71429" id="726bb3723ebf47a0823d6585d79b070d-ao-26" stroke="#2D2D2D" width="200.00001" x="1069.7144" y="1143.42864"/>
  <rect fill="#FFEBA2" height="28.57143" id="726bb3723ebf47a0823d6585d79b070d-ao-27" stroke="#2D2D2D" width="202.85715" x="421.14295" y="1186.28579"/>
  <rect fill="#FFEBA2" height="31.42857" id="726bb3723ebf47a0823d6585d79b070d-ao-28" stroke="#2D2D2D" width="231.42858" x="1006.85726" y="1177.71436"/>
  <rect fill="#FFEBA2" height="28.57143" id="726bb3723ebf47a0823d6585d79b070d-ao-29" stroke="#2D2D2D" width="168.57144" x="484.00009" y="1226.28579"/>
  <rect fill="#FFEBA2" height="25.71429" id="726bb3723ebf47a0823d6585d79b070d-ao-30" stroke="#2D2D2D" width="91.42858" x="972.57154" y="1223.42865"/>
  <rect fill="#FFEBA2" height="25.71429" id="726bb3723ebf47a0823d6585d79b070d-ao-31" stroke="#2D2D2D" width="128.57143" x="564.0001" y="1266.28579"/>
  <rect fill="#FFEBA2" height="25.71429" id="726bb3723ebf47a0823d6585d79b070d-ao-32" stroke="#2D2D2D" width="200.00001" x="952.57154" y="1269.14293"/>
  <rect class="qshape" fill="#FF7E7E" height="28.57143" id="726bb3723ebf47a0823d6585d79b070d-ao-33" stroke="#2D2D2D" width="237.14286" x="486.85723" y="1300.57151"/>
  <rect fill="#FFEBA2" height="31.42857" id="726bb3723ebf47a0823d6585d79b070d-ao-34" stroke="#2D2D2D" width="205.7143" x="924.00011" y="1306.28579"/>
  <rect fill="#FFEBA2" height="28.57143" id="726bb3723ebf47a0823d6585d79b070d-ao-35" stroke="#2D2D2D" width="188.57144" x="549.71438" y="1340.57151"/>
  <rect fill="#FFEBA2" height="31.42857" id="726bb3723ebf47a0823d6585d79b070d-ao-36" stroke="#2D2D2D" width="274.28573" x="892.57154" y="1352.00008"/>
  <rect fill="#FFEBA2" height="28.57143" id="726bb3723ebf47a0823d6585d79b070d-ao-37" stroke="#2D2D2D" width="108.57143" x="652.57153" y="1380.57151"/>
  <rect fill="#FFEBA2" height="28.57143" id="726bb3723ebf47a0823d6585d79b070d-ao-38" stroke="#2D2D2D" width="142.85715" x="855.42868" y="1386.2858"/>
  <rect fill="#FFEBA2" height="31.42857" id="726bb3723ebf47a0823d6585d79b070d-ao-39" stroke="#2D2D2D" width="102.85715" x="684.0001" y="1417.71437"/>
  <rect fill="#FFEBA2" height="28.57143" id="726bb3723ebf47a0823d6585d79b070d-ao-40" stroke="#2D2D2D" width="234.28572" x="821.14296" y="1420.57151"/>
 </g>
</svg>