<svg height="1593" width="1535.9999999999998" xmlns="http://www.w3.org/2000/svg">
 <!-- Created with Image Occlusion Enhanced -->
 <g>
  <title>Labels</title>
 </g>
 <g>
  <title>Masks</title>
  <rect fill="#FFEBA2" height="28.57143" id="72bd8fc56d404b3b846e5a1e48dc40c5-ao-1" stroke="#2D2D2D" width="377.14287" x="284.00008" y="61.28573"/>
  <rect fill="#FFEBA2" height="28.57143" id="72bd8fc56d404b3b846e5a1e48dc40c5-ao-2" stroke="#2D2D2D" width="182.85715" x="418.2858" y="127.00002"/>
  <rect fill="#FFEBA2" height="28.57143" id="72bd8fc56d404b3b846e5a1e48dc40c5-ao-3" stroke="#2D2D2D" width="351.42859" x="198.28579" y="184.14288"/>
  <rect fill="#FFEBA2" height="28.57143" id="72bd8fc56d404b3b846e5a1e48dc40c5-ao-4" stroke="#2D2D2D" width="97.14286" x="741.14296" y="198.4286"/>
  <rect fill="#FFEBA2" height="51.42857" id="72bd8fc56d404b3b846e5a1e48dc40c5-ao-5" stroke="#2D2D2D" width="217.14287" x="278.2858" y="247.00003"/>
  <rect fill="#FFEBA2" height="25.71429" id="72bd8fc56d404b3b846e5a1e48dc40c5-ao-6" stroke="#2D2D2D" width="208.57144" x="798.28582" y="235.57146"/>
  <rect fill="#FFEBA2" height="28.57143" id="72bd8fc56d404b3b846e5a1e48dc40c5-ao-7" stroke="#2D2D2D" width="428.57145" x="846.85725" y="267.00003"/>
  <rect fill="#FFEBA2" height="28.57143" id="72bd8fc56d404b3b846e5a1e48dc40c5-ao-8" stroke="#2D2D2D" width="365.7143" x="886.85725" y="307.00003"/>
  <rect fill="#FFEBA2" height="31.42857" id="72bd8fc56d404b3b846e5a1e48dc40c5-ao-9" stroke="#2D2D2D" width="122.85715" x="321.14294" y="318.4286"/>
  <rect fill="#FFEBA2" height="25.71429" id="72bd8fc56d404b3b846e5a1e48dc40c5-ao-10" stroke="#2D2D2D" width="408.57145" x="946.85726" y="344.14289"/>
  
  <rect fill="#FFEBA2" height="48.57143" id="72bd8fc56d404b3b846e5a1e48dc40c5-ao-12" stroke="#2D2D2D" width="254.28573" x="1029.7144" y="384.14289"/>
  <rect fill="#FFEBA2" height="54.28572" id="72bd8fc56d404b3b846e5a1e48dc40c5-ao-13" stroke="#2D2D2D" width="271.42858" x="1069.7144" y="444.14289"/>
  <rect fill="#FFEBA2" height="77.14286" id="72bd8fc56d404b3b846e5a1e48dc40c5-ao-14" stroke="#2D2D2D" width="197.14287" x="155.42865" y="478.42861"/>
  <rect fill="#FFEBA2" height="74.28572" id="72bd8fc56d404b3b846e5a1e48dc40c5-ao-15" stroke="#2D2D2D" width="248.57144" x="1218.28584" y="509.85718"/>
  <rect fill="#FFEBA2" height="31.42857" id="72bd8fc56d404b3b846e5a1e48dc40c5-ao-16" stroke="#2D2D2D" width="151.42858" x="129.71436" y="595.57147"/>
  <rect fill="#FFEBA2" height="74.28572" id="72bd8fc56d404b3b846e5a1e48dc40c5-ao-17" stroke="#2D2D2D" width="165.71429" x="1195.4287" y="598.42861"/>
  <rect fill="#FFEBA2" height="100" id="72bd8fc56d404b3b846e5a1e48dc40c5-ao-18" stroke="#2D2D2D" width="142.85715" x="124.00008" y="638.42862"/>
  <rect fill="#FFEBA2" height="31.42857" id="72bd8fc56d404b3b846e5a1e48dc40c5-ao-19" stroke="#2D2D2D" width="151.42858" x="1218.28584" y="687.00005"/>
  <rect fill="#FFEBA2" height="48.57143" id="72bd8fc56d404b3b846e5a1e48dc40c5-ao-20" stroke="#2D2D2D" width="100" x="1306.85727" y="764.14291"/>
  <rect fill="#FFEBA2" height="45.71429" id="72bd8fc56d404b3b846e5a1e48dc40c5-ao-21" stroke="#2D2D2D" width="77.14286" x="1301.14299" y="1187.00007"/>
  <rect fill="#FFEBA2" height="31.42857" id="72bd8fc56d404b3b846e5a1e48dc40c5-ao-22" stroke="#2D2D2D" width="114.28572" x="132.5715" y="1275.5715"/>
  <rect fill="#FFEBA2" height="51.42857" id="72bd8fc56d404b3b846e5a1e48dc40c5-ao-23" stroke="#2D2D2D" width="151.42858" x="1192.57155" y="1304.14293"/>
  <rect fill="#FFEBA2" height="28.57143" id="72bd8fc56d404b3b846e5a1e48dc40c5-ao-24" stroke="#2D2D2D" width="180.00001" x="135.42865" y="1332.71436"/>
  <rect fill="#FFEBA2" height="51.42857" id="72bd8fc56d404b3b846e5a1e48dc40c5-ao-25" stroke="#2D2D2D" width="205.7143" x="1112.57155" y="1381.28579"/>
  <rect fill="#FFEBA2" height="25.71429" id="72bd8fc56d404b3b846e5a1e48dc40c5-ao-26" stroke="#2D2D2D" width="168.57144" x="212.57151" y="1392.71437"/>
  <rect fill="#FFEBA2" height="34.28572" id="72bd8fc56d404b3b846e5a1e48dc40c5-ao-27" stroke="#2D2D2D" width="217.14287" x="1046.85726" y="1438.42865"/>
  <rect fill="#FFEBA2" height="54.28572" id="72bd8fc56d404b3b846e5a1e48dc40c5-ao-28" stroke="#2D2D2D" width="242.85715" x="192.57151" y="1432.71437"/>
  <rect fill="#FFEBA2" height="28.57143" id="72bd8fc56d404b3b846e5a1e48dc40c5-ao-29" stroke="#2D2D2D" width="228.57144" x="932.57154" y="1492.71437"/>
  <rect fill="#FFEBA2" height="31.42857" id="72bd8fc56d404b3b846e5a1e48dc40c5-ao-30" stroke="#2D2D2D" width="217.14287" x="444.00009" y="1512.71437"/>
  <rect fill="#FFEBA2" height="25.71429" id="72bd8fc56d404b3b846e5a1e48dc40c5-ao-31" stroke="#2D2D2D" width="274.28573" x="824.00011" y="1549.85723"/>
 </g>
</svg>