<svg height="1563" width="1525" xmlns="http://www.w3.org/2000/svg">
 <!-- Created with Image Occlusion Enhanced -->
 <g>
  <title>Labels</title>
 </g>
 <g>
  <title>Masks</title>
  <rect fill="#FFEBA2" height="25.71429" id="733c6af7caa44d7d9360369b6985ee53-ao-1" stroke="#2D2D2D" width="237.14286" x="1119.28572" y="34.14289"/>
  <rect fill="#FFEBA2" height="25.71429" id="733c6af7caa44d7d9360369b6985ee53-ao-2" stroke="#2D2D2D" width="145.71429" x="610.71428" y="42.71432"/>
  <rect fill="#FFEBA2" height="22.85714" id="733c6af7caa44d7d9360369b6985ee53-ao-3" stroke="#2D2D2D" width="334.28572" x="182.14284" y="79.85718"/>
  <rect fill="#FFEBA2" height="28.57143" id="733c6af7caa44d7d9360369b6985ee53-ao-4" stroke="#2D2D2D" width="148.57143" x="1002.14286" y="79.85718"/>
  <rect fill="#FFEBA2" height="25.71429" id="733c6af7caa44d7d9360369b6985ee53-ao-5" stroke="#2D2D2D" width="280.00001" x="182.14284" y="114.14289"/>
  <rect fill="#FFEBA2" height="22.85714" id="733c6af7caa44d7d9360369b6985ee53-ao-6" stroke="#2D2D2D" width="42.85714" x="999.28572" y="142.71432"/>
  <rect fill="#FFEBA2" height="25.71429" id="733c6af7caa44d7d9360369b6985ee53-ao-7" stroke="#2D2D2D" width="180" x="182.14284" y="159.85718"/>
  <rect fill="#FFEBA2" height="68.57143" id="733c6af7caa44d7d9360369b6985ee53-ao-8" stroke="#2D2D2D" width="177.14286" x="1070.71429" y="154.1429"/>
  <rect fill="#FFEBA2" height="45.71429" id="733c6af7caa44d7d9360369b6985ee53-ao-9" stroke="#2D2D2D" width="265.71429" x="176.42856" y="208.42861"/>
  <rect fill="#FFEBA2" height="34.28572" id="733c6af7caa44d7d9360369b6985ee53-ao-10" stroke="#2D2D2D" width="131.42857" x="985" y="234.1429"/>
  <rect fill="#FFEBA2" height="25.71429" id="733c6af7caa44d7d9360369b6985ee53-ao-11" stroke="#2D2D2D" width="134.28572" x="176.42856" y="274.1429"/>
  <rect fill="#FFEBA2" height="28.57143" id="733c6af7caa44d7d9360369b6985ee53-ao-12" stroke="#2D2D2D" width="171.42858" x="1102.14286" y="305.57147"/>
  <rect fill="#FFEBA2" height="31.42857" id="733c6af7caa44d7d9360369b6985ee53-ao-13" stroke="#2D2D2D" width="225.71429" x="182.14284" y="334.1429"/>
  <rect fill="#FFEBA2" height="22.85714" id="733c6af7caa44d7d9360369b6985ee53-ao-14" stroke="#2D2D2D" width="211.42858" x="1059.28572" y="359.85719"/>
  <rect fill="#FFEBA2" height="20" id="733c6af7caa44d7d9360369b6985ee53-ao-15" stroke="#2D2D2D" width="65.71429" x="987.85715" y="382.71433"/>
  <rect fill="#FFEBA2" height="22.85714" id="733c6af7caa44d7d9360369b6985ee53-ao-16" stroke="#2D2D2D" width="77.14286" x="987.85715" y="411.28576"/>
  <rect fill="#FFEBA2" height="22.85714" id="733c6af7caa44d7d9360369b6985ee53-ao-17" stroke="#2D2D2D" width="74.28572" x="990.71429" y="445.57147"/>
  <rect fill="#FFEBA2" height="25.71429" id="733c6af7caa44d7d9360369b6985ee53-ao-18" stroke="#2D2D2D" width="57.14286" x="987.85715" y="479.85719"/>
  <rect fill="#FFEBA2" height="28.57143" id="733c6af7caa44d7d9360369b6985ee53-ao-19" stroke="#2D2D2D" width="182.85715" x="573.57142" y="474.1429"/>
  <rect fill="#FFEBA2" height="25.71429" id="733c6af7caa44d7d9360369b6985ee53-ao-20" stroke="#2D2D2D" width="57.14286" x="1033.57143" y="645.57148"/>
  <rect fill="#FFEBA2" height="28.57143" id="733c6af7caa44d7d9360369b6985ee53-ao-21" stroke="#2D2D2D" width="145.71429" x="665" y="639.85719"/>
  <rect fill="#FFEBA2" height="22.85714" id="733c6af7caa44d7d9360369b6985ee53-ao-22" stroke="#2D2D2D" width="82.85714" x="990.71429" y="737.00005"/>
  <rect fill="#FFEBA2" height="22.85714" id="733c6af7caa44d7d9360369b6985ee53-ao-23" stroke="#2D2D2D" width="51.42857" x="1076.42858" y="779.8572"/>
  <rect fill="#FFEBA2" height="25.71429" id="733c6af7caa44d7d9360369b6985ee53-ao-24" stroke="#2D2D2D" width="111.42857" x="1079.28572" y="825.57148"/>
  <rect fill="#FFEBA2" height="71.42857" id="733c6af7caa44d7d9360369b6985ee53-ao-25" stroke="#2D2D2D" width="125.71429" x="547.85714" y="817.00005"/>
  <rect fill="#FFEBA2" height="28.57143" id="733c6af7caa44d7d9360369b6985ee53-ao-26" stroke="#2D2D2D" width="91.42857" x="1079.28572" y="877.00005"/>
  <rect fill="#FFEBA2" height="25.71429" id="733c6af7caa44d7d9360369b6985ee53-ao-27" stroke="#2D2D2D" width="91.42857" x="1033.57143" y="934.14291"/>
  <rect fill="#FFEBA2" height="22.85714" id="733c6af7caa44d7d9360369b6985ee53-ao-28" stroke="#2D2D2D" width="80" x="1076.42858" y="1028.42863"/>
  <rect fill="#FFEBA2" height="28.57143" id="733c6af7caa44d7d9360369b6985ee53-ao-29" stroke="#2D2D2D" width="97.14286" x="787.85714" y="1157.00006"/>
  <rect fill="#FFEBA2" height="22.85714" id="733c6af7caa44d7d9360369b6985ee53-ao-30" stroke="#2D2D2D" width="168.57143" x="1133.57144" y="1197.00006"/>
  <rect fill="#FFEBA2" height="22.85714" id="733c6af7caa44d7d9360369b6985ee53-ao-31" stroke="#2D2D2D" width="142.85715" x="1090.71429" y="1291.28578"/>
  
  <rect fill="#FFEBA2" height="22.85714" id="733c6af7caa44d7d9360369b6985ee53-ao-33" stroke="#2D2D2D" width="148.57143" x="1096.42858" y="1428.42864"/>
  <rect fill="#FFEBA2" height="22.85714" id="733c6af7caa44d7d9360369b6985ee53-ao-34" stroke="#2D2D2D" width="80" x="1079.28572" y="1474.14292"/>
  <rect fill="#FFEBA2" height="25.71429" id="733c6af7caa44d7d9360369b6985ee53-ao-35" stroke="#2D2D2D" width="157.14287" x="682.14285" y="1499.85721"/>
  <rect fill="#FFEBA2" height="28.57143" id="733c6af7caa44d7d9360369b6985ee53-ao-36" stroke="#2D2D2D" stroke-dasharray="null" stroke-linecap="null" stroke-linejoin="null" width="228.57143" x="573.57142" y="1445.5715"/>
  <rect fill="#FFEBA2" height="20" id="733c6af7caa44d7d9360369b6985ee53-ao-37" stroke="#2D2D2D" stroke-dasharray="null" stroke-linecap="null" stroke-linejoin="null" width="28.57143" x="353.57142" y="1345.57149"/>
  <rect fill="#FFEBA2" height="22.85714" id="733c6af7caa44d7d9360369b6985ee53-ao-38" stroke="#2D2D2D" stroke-dasharray="null" stroke-linecap="null" stroke-linejoin="null" width="28.57143" x="353.57142" y="1385.57149"/>
  <rect fill="#FFEBA2" height="25.71429" id="733c6af7caa44d7d9360369b6985ee53-ao-39" stroke="#2D2D2D" stroke-dasharray="null" stroke-linecap="null" stroke-linejoin="null" width="25.71429" x="356.42856" y="1425.5715"/>
 </g>
</svg>