<svg height="583" width="1536" xmlns="http://www.w3.org/2000/svg">
 <!-- Created with Image Occlusion Enhanced -->
 <g>
  <title>Labels</title>
 </g>
 <g>
  <title>Masks</title>
  <rect fill="#FFEBA2" height="31.42857" id="736782af8b724826a79575750e879df6-ao-1" stroke="#2D2D2D" width="111.42858" x="149.71436" y="41.28569"/>
  <rect fill="#FFEBA2" height="34.28572" id="736782af8b724826a79575750e879df6-ao-2" stroke="#2D2D2D" width="240.00001" x="1132.57155" y="46.99998"/>
  <rect fill="#FFEBA2" height="28.57143" id="736782af8b724826a79575750e879df6-ao-3" stroke="#2D2D2D" width="174.28572" x="152.57151" y="84.14283"/>
  <rect fill="#FFEBA2" height="37.14286" id="736782af8b724826a79575750e879df6-ao-4" stroke="#2D2D2D" width="202.85715" x="1135.42869" y="98.42855"/>
  <rect fill="#FFEBA2" height="51.42857" id="736782af8b724826a79575750e879df6-ao-5" stroke="#2D2D2D" width="108.57143" x="152.57151" y="129.85712"/>
  <rect fill="#FFEBA2" height="28.57143" id="736782af8b724826a79575750e879df6-ao-6" stroke="#2D2D2D" width="205.7143" x="1135.42869" y="152.71427"/>
  <rect fill="#FFEBA2" height="57.14286" id="736782af8b724826a79575750e879df6-ao-7" stroke="#2D2D2D" width="168.57144" x="152.57151" y="192.71427"/>
  <rect class="qshape" fill="#FF7E7E" height="31.42857" id="736782af8b724826a79575750e879df6-ao-8" stroke="#2D2D2D" width="168.57144" x="1138.28584" y="204.14284"/>
  <rect fill="#FFEBA2" height="51.42857" id="736782af8b724826a79575750e879df6-ao-9" stroke="#2D2D2D" width="131.42858" x="152.57151" y="258.42856"/>
  <rect fill="#FFEBA2" height="31.42857" id="736782af8b724826a79575750e879df6-ao-10" stroke="#2D2D2D" width="145.71429" x="1135.42869" y="255.57141"/>
  <rect fill="#FFEBA2" height="28.57143" id="736782af8b724826a79575750e879df6-ao-11" stroke="#2D2D2D" width="157.14286" x="1135.42869" y="309.85713"/>
  <rect fill="#FFEBA2" height="28.57143" id="736782af8b724826a79575750e879df6-ao-12" stroke="#2D2D2D" width="122.85715" x="155.42865" y="324.14285"/>
  <rect fill="#FFEBA2" height="28.57143" id="736782af8b724826a79575750e879df6-ao-13" stroke="#2D2D2D" width="222.85715" x="1132.57155" y="361.2857"/>
  <rect fill="#FFEBA2" height="25.71429" id="736782af8b724826a79575750e879df6-ao-14" stroke="#2D2D2D" width="120.00001" x="155.42865" y="369.85713"/>
  <rect fill="#FFEBA2" height="31.42857" id="736782af8b724826a79575750e879df6-ao-15" stroke="#2D2D2D" width="217.14287" x="1135.42869" y="409.85714"/>
  <rect fill="#FFEBA2" height="51.42857" id="736782af8b724826a79575750e879df6-ao-16" stroke="#2D2D2D" width="122.85715" x="155.42864" y="412.71428"/>
  <rect fill="#FFEBA2" height="34.28572" id="736782af8b724826a79575750e879df6-ao-17" stroke="#2D2D2D" width="254.28573" x="1132.57155" y="461.28571"/>
  <rect fill="#FFEBA2" height="28.57143" id="736782af8b724826a79575750e879df6-ao-18" stroke="#2D2D2D" width="145.71429" x="155.42865" y="481.28571"/>
  <rect fill="#FFEBA2" height="51.42857" id="736782af8b724826a79575750e879df6-ao-19" stroke="#2D2D2D" stroke-dasharray="null" stroke-linecap="null" stroke-linejoin="null" width="140.00001" x="152.57151" y="521.28571"/>
 </g>
</svg>