<svg height="1755" width="1417" xmlns="http://www.w3.org/2000/svg">
 <!-- Created with Image Occlusion Enhanced -->
 <g>
  <title>Labels</title>
 </g>
 <g>
  <title>Masks</title>
  <rect fill="#FFEBA2" height="28.57143" id="74ff262c72ef472d9d75721c1197f50d-ao-1" stroke="#2D2D2D" width="305.71429" x="635.85709" y="316.42857"/>
  <rect fill="#FFEBA2" height="25.71429" id="74ff262c72ef472d9d75721c1197f50d-ao-2" stroke="#2D2D2D" width="128.57143" x="458.71423" y="325"/>
  <rect fill="#FFEBA2" height="28.57143" id="74ff262c72ef472d9d75721c1197f50d-ao-3" stroke="#2D2D2D" width="354.28571" x="670.1428" y="359.28571"/>
  <rect fill="#FFEBA2" height="31.42857" id="74ff262c72ef472d9d75721c1197f50d-ao-4" stroke="#2D2D2D" width="291.42857" x="264.42852" y="367.85714"/>
  <rect fill="#FFEBA2" height="31.42857" id="74ff262c72ef472d9d75721c1197f50d-ao-5" stroke="#2D2D2D" width="208.57143" x="692.99995" y="393.57143"/>
  <rect fill="#FFEBA2" height="28.57143" id="74ff262c72ef472d9d75721c1197f50d-ao-6" stroke="#2D2D2D" width="320" x="204.42852" y="425"/>
  <rect fill="#FFEBA2" height="28.57143" id="74ff262c72ef472d9d75721c1197f50d-ao-7" stroke="#2D2D2D" width="311.42857" x="730.1428" y="433.57143"/>
  <rect fill="#FFEBA2" height="28.57143" id="74ff262c72ef472d9d75721c1197f50d-ao-8" stroke="#2D2D2D" width="142.85714" x="361.57138" y="476.42857"/>
  <rect fill="#FFEBA2" height="28.57143" id="74ff262c72ef472d9d75721c1197f50d-ao-9" stroke="#2D2D2D" width="137.14286" x="790.1428" y="467.85714"/>
  <rect fill="#FFEBA2" height="25.71429" id="74ff262c72ef472d9d75721c1197f50d-ao-10" stroke="#2D2D2D" width="248.57143" x="841.57138" y="510.71429"/>
  <rect fill="#FFEBA2" height="31.42857" id="74ff262c72ef472d9d75721c1197f50d-ao-11" stroke="#2D2D2D" width="291.42857" x="192.99995" y="530.71429"/>
  <rect fill="#FFEBA2" height="25.71429" id="74ff262c72ef472d9d75721c1197f50d-ao-12" stroke="#2D2D2D" width="305.71429" x="864.42852" y="547.85714"/>
  <rect fill="#FFEBA2" height="25.71429" id="74ff262c72ef472d9d75721c1197f50d-ao-13" stroke="#2D2D2D" width="185.71429" x="927.28566" y="585"/>
  <rect fill="#FFEBA2" height="28.57143" id="74ff262c72ef472d9d75721c1197f50d-ao-14" stroke="#2D2D2D" width="294.28571" x="167.28566" y="585"/>
  
  <rect fill="#FFEBA2" height="28.57143" id="74ff262c72ef472d9d75721c1197f50d-ao-16" stroke="#2D2D2D" width="320" x="115.85709" y="642.14286"/>
  <rect fill="#FFEBA2" height="25.71429" id="74ff262c72ef472d9d75721c1197f50d-ao-17" stroke="#2D2D2D" width="220" x="1012.99995" y="659.28571"/>
  <rect fill="#FFEBA2" height="51.42857" id="74ff262c72ef472d9d75721c1197f50d-ao-18" stroke="#2D2D2D" width="168.57143" x="204.42852" y="699.28571"/>
  <rect fill="#FFEBA2" height="51.42857" id="74ff262c72ef472d9d75721c1197f50d-ao-19" stroke="#2D2D2D" width="200" x="1095.85709" y="702.14286"/>
  <rect fill="#FFEBA2" height="54.28571" id="74ff262c72ef472d9d75721c1197f50d-ao-20" stroke="#2D2D2D" width="197.14286" x="95.85709" y="776.42857"/>
  <rect fill="#FFEBA2" height="48.57143" id="74ff262c72ef472d9d75721c1197f50d-ao-21" stroke="#2D2D2D" width="174.28571" x="92.99995" y="859.28571"/>
  <rect fill="#FFEBA2" height="31.42857" id="74ff262c72ef472d9d75721c1197f50d-ao-22" stroke="#2D2D2D" width="148.57143" x="92.99995" y="933.57143"/>
  <rect fill="#FFEBA2" height="77.14286" id="74ff262c72ef472d9d75721c1197f50d-ao-23" stroke="#2D2D2D" width="154.28571" x="1161.57138" y="1036.42857"/>
  <rect fill="#FFEBA2" height="54.28571" id="74ff262c72ef472d9d75721c1197f50d-ao-24" stroke="#2D2D2D" width="168.57143" x="95.85709" y="996.42857"/>
  <rect fill="#FFEBA2" height="71.42857" id="74ff262c72ef472d9d75721c1197f50d-ao-25" stroke="#2D2D2D" width="154.28571" x="1164.42852" y="1130.71429"/>
  <rect fill="#FFEBA2" height="74.28571" id="74ff262c72ef472d9d75721c1197f50d-ao-26" stroke="#2D2D2D" width="160" x="95.85709" y="1096.42857"/>
  <rect fill="#FFEBA2" height="51.42857" id="74ff262c72ef472d9d75721c1197f50d-ao-27" stroke="#2D2D2D" width="157.14286" x="1132.99995" y="1222.14286"/>
  <rect fill="#FFEBA2" height="51.42857" id="74ff262c72ef472d9d75721c1197f50d-ao-28" stroke="#2D2D2D" width="145.71429" x="95.85709" y="1216.42857"/>
  <rect fill="#FFEBA2" height="54.28571" id="74ff262c72ef472d9d75721c1197f50d-ao-29" stroke="#2D2D2D" width="251.42857" x="1050.1428" y="1287.85714"/>
  <rect fill="#FFEBA2" height="31.42857" id="74ff262c72ef472d9d75721c1197f50d-ao-30" stroke="#2D2D2D" width="140" x="95.85709" y="1310.71429"/>
  <rect fill="#FFEBA2" height="28.57143" id="74ff262c72ef472d9d75721c1197f50d-ao-31" stroke="#2D2D2D" width="314.28571" x="958.71423" y="1359.28571"/>
  <rect fill="#FFEBA2" height="31.42857" id="74ff262c72ef472d9d75721c1197f50d-ao-32" stroke="#2D2D2D" width="425.71429" x="861.57138" y="1422.14286"/>
  <rect fill="#FFEBA2" height="28.57143" id="74ff262c72ef472d9d75721c1197f50d-ao-33" stroke="#2D2D2D" width="568.57143" x="658.71423" y="1490.71429"/>
  <rect fill="#FFEBA2" height="28.57143" id="74ff262c72ef472d9d75721c1197f50d-ao-34" stroke="#2D2D2D" width="211.42857" x="630.1428" y="1542.14286"/>
  <rect fill="#FFEBA2" height="31.42857" id="74ff262c72ef472d9d75721c1197f50d-ao-35" stroke="#2D2D2D" width="497.14286" x="547.28566" y="1587.85714"/>
  <rect fill="#FFEBA2" height="34.28571" id="74ff262c72ef472d9d75721c1197f50d-ao-36" stroke="#2D2D2D" width="440" x="501.57138" y="1630.71429"/>
  <rect fill="#FFEBA2" height="31.42857" id="74ff262c72ef472d9d75721c1197f50d-ao-37" stroke="#2D2D2D" width="408.57143" x="447.28566" y="1705"/>
 </g>
</svg>