<svg height="878.9999999999998" width="1535.9999999999998" xmlns="http://www.w3.org/2000/svg">
 <!-- Created with Image Occlusion Enhanced -->
 <g>
  <title>Labels</title>
 </g>
 <g>
  <title>Masks</title>
  <rect fill="#FFEBA2" height="31.42857" id="752ae36cc40c4902ab750355c9ef6d8d-ao-1" stroke="#2D2D2D" width="280.00001" x="938.28583" y="18.14286"/>
  <rect fill="#FFEBA2" height="122.85715" id="752ae36cc40c4902ab750355c9ef6d8d-ao-2" stroke="#2D2D2D" width="228.57144" x="1112.57155" y="75.28572"/>
  <rect fill="#FFEBA2" height="31.42857" id="752ae36cc40c4902ab750355c9ef6d8d-ao-3" stroke="#2D2D2D" width="360.00002" x="138.28579" y="201.00002"/>
  <rect fill="#FFEBA2" height="51.42857" id="752ae36cc40c4902ab750355c9ef6d8d-ao-4" stroke="#2D2D2D" width="194.28572" x="1121.14298" y="215.28573"/>
  <rect fill="#FFEBA2" height="31.42857" id="752ae36cc40c4902ab750355c9ef6d8d-ao-5" stroke="#2D2D2D" width="300.00001" x="201.14294" y="243.85716"/>
  <rect fill="#FFEBA2" height="25.71429" id="752ae36cc40c4902ab750355c9ef6d8d-ao-6" stroke="#2D2D2D" width="251.42858" x="246.85722" y="289.57145"/>
  <rect fill="#FFEBA2" height="51.42857" id="752ae36cc40c4902ab750355c9ef6d8d-ao-7" stroke="#2D2D2D" width="162.85715" x="1121.14298" y="295.28573"/>
  <rect fill="#FFEBA2" height="28.57143" id="752ae36cc40c4902ab750355c9ef6d8d-ao-8" stroke="#2D2D2D" width="254.28573" x="244.00008" y="321.00002"/>
  <rect fill="#FFEBA2" height="54.28572" id="752ae36cc40c4902ab750355c9ef6d8d-ao-9" stroke="#2D2D2D" width="142.85715" x="1115.42869" y="358.14288"/>
  <rect fill="#FFEBA2" height="28.57143" id="752ae36cc40c4902ab750355c9ef6d8d-ao-10" stroke="#2D2D2D" width="302.85716" x="195.42865" y="363.85717"/>
  <rect fill="#FFEBA2" height="31.42857" id="752ae36cc40c4902ab750355c9ef6d8d-ao-11" stroke="#2D2D2D" width="354.28573" x="161.14293" y="403.85717"/>
  <rect fill="#FFEBA2" height="51.42857" id="752ae36cc40c4902ab750355c9ef6d8d-ao-12" stroke="#2D2D2D" width="182.85715" x="1095.42869" y="421.00003"/>
  
  <rect fill="#FFEBA2" height="71.42857" id="752ae36cc40c4902ab750355c9ef6d8d-ao-14" stroke="#2D2D2D" width="265.7143" x="1072.57155" y="489.57146"/>
  <rect fill="#FFEBA2" height="31.42857" id="752ae36cc40c4902ab750355c9ef6d8d-ao-15" stroke="#2D2D2D" width="328.57144" x="198.28579" y="506.71431"/>
  <rect fill="#FFEBA2" height="25.71429" id="752ae36cc40c4902ab750355c9ef6d8d-ao-16" stroke="#2D2D2D" width="140.00001" x="389.71437" y="543.85717"/>
  <rect fill="#FFEBA2" height="31.42857" id="752ae36cc40c4902ab750355c9ef6d8d-ao-17" stroke="#2D2D2D" width="134.28572" x="401.14295" y="583.85718"/>
  <rect fill="#FFEBA2" height="31.42857" id="752ae36cc40c4902ab750355c9ef6d8d-ao-18" stroke="#2D2D2D" width="254.28573" x="992.57154" y="583.85718"/>
  <rect fill="#FFEBA2" height="31.42857" id="752ae36cc40c4902ab750355c9ef6d8d-ao-19" stroke="#2D2D2D" width="251.42858" x="286.85723" y="621.00003"/>
  <rect fill="#FFEBA2" height="48.57143" id="752ae36cc40c4902ab750355c9ef6d8d-ao-20" stroke="#2D2D2D" width="291.42858" x="981.14297" y="635.28575"/>
  <rect fill="#FFEBA2" height="31.42857" id="752ae36cc40c4902ab750355c9ef6d8d-ao-21" stroke="#2D2D2D" width="248.57144" x="292.57151" y="666.71432"/>
  <rect fill="#FFEBA2" height="31.42857" id="752ae36cc40c4902ab750355c9ef6d8d-ao-22" stroke="#2D2D2D" width="385.7143" x="929.7144" y="695.28575"/>
  <rect fill="#FFEBA2" height="28.57143" id="752ae36cc40c4902ab750355c9ef6d8d-ao-23" stroke="#2D2D2D" width="357.14287" x="189.71436" y="703.85718"/>
  <rect fill="#FFEBA2" height="25.71429" id="752ae36cc40c4902ab750355c9ef6d8d-ao-24" stroke="#2D2D2D" width="108.57143" x="441.14295" y="743.85718"/>
  <rect fill="#FFEBA2" height="31.42857" id="752ae36cc40c4902ab750355c9ef6d8d-ao-25" stroke="#2D2D2D" width="77.14286" x="921.14297" y="741.00004"/>
  <rect fill="#FFEBA2" height="31.42857" id="752ae36cc40c4902ab750355c9ef6d8d-ao-26" stroke="#2D2D2D" width="257.14287" x="295.42865" y="781.00004"/>
  <rect fill="#FFEBA2" height="34.28572" id="752ae36cc40c4902ab750355c9ef6d8d-ao-27" stroke="#2D2D2D" width="371.42859" x="912.57154" y="795.28576"/>
 </g>
</svg>