<svg height="1685" width="1536.0000000000002" xmlns="http://www.w3.org/2000/svg">
 <!-- Created with Image Occlusion Enhanced -->
 <g>
  <title>Labels</title>
 </g>
 <g>
  <title>Masks</title>
  <rect fill="#FFEBA2" height="22.5" id="756a964aff274ec6be701b011c8cb009-ao-1" stroke="#2D2D2D" width="87.5" x="138.99991" y="98.75"/>
  <rect fill="#FFEBA2" height="22.5" id="756a964aff274ec6be701b011c8cb009-ao-2" stroke="#2D2D2D" width="130" x="138.99991" y="271.25"/>
  <rect fill="#FFEBA2" height="22.5" id="756a964aff274ec6be701b011c8cb009-ao-3" stroke="#2D2D2D" width="125" x="138.99991" y="363.75"/>
  <rect fill="#FFEBA2" height="22.5" id="756a964aff274ec6be701b011c8cb009-ao-4" stroke="#2D2D2D" width="112.5" x="138.99991" y="453.75"/>
  <rect fill="#FFEBA2" height="20" id="756a964aff274ec6be701b011c8cb009-ao-5" stroke="#2D2D2D" width="142.5" x="138.99991" y="546.25"/>
  <rect fill="#FFEBA2" height="22.5" id="756a964aff274ec6be701b011c8cb009-ao-6" stroke="#2D2D2D" width="80" x="141.49991" y="696.25"/>
  <rect class="qshape" fill="#FF7E7E" height="42.5" id="756a964aff274ec6be701b011c8cb009-ao-7" stroke="#2D2D2D" width="145" x="138.99991" y="748.75"/>
  <rect fill="#FFEBA2" height="20" id="756a964aff274ec6be701b011c8cb009-ao-8" stroke="#2D2D2D" width="80" x="138.99991" y="823.75"/>
  <rect fill="#FFEBA2" height="37.5" id="756a964aff274ec6be701b011c8cb009-ao-9" stroke="#2D2D2D" width="115" x="141.49991" y="973.75"/>
  <rect fill="#FFEBA2" height="37.5" id="756a964aff274ec6be701b011c8cb009-ao-10" stroke="#2D2D2D" width="117.5" x="141.49991" y="1063.75"/>
  <rect fill="#FFEBA2" height="22.5" id="756a964aff274ec6be701b011c8cb009-ao-11" stroke="#2D2D2D" width="70" x="138.99991" y="1171.25"/>
  <rect fill="#FFEBA2" height="22.5" id="756a964aff274ec6be701b011c8cb009-ao-12" stroke="#2D2D2D" width="160" x="138.99991" y="1246.25"/>
  <rect fill="#FFEBA2" height="20" id="756a964aff274ec6be701b011c8cb009-ao-13" stroke="#2D2D2D" width="137.5" x="138.99991" y="1338.75"/>
  <rect fill="#FFEBA2" height="20" id="756a964aff274ec6be701b011c8cb009-ao-14" stroke="#2D2D2D" width="137.5" x="138.99991" y="1431.25"/>
  <rect fill="#FFEBA2" height="22.5" id="756a964aff274ec6be701b011c8cb009-ao-15" stroke="#2D2D2D" width="150" x="141.49991" y="1523.75"/>
 </g>
</svg>