<svg height="1564" width="1535" xmlns="http://www.w3.org/2000/svg">
 <!-- Created with Image Occlusion Enhanced -->
 <g>
  <title>Labels</title>
 </g>
 <g>
  <title>Masks</title>
  <rect fill="#FFEBA2" height="45.71429" id="7611671ea59f4c1fa4e315972559bd65-ao-1" stroke="#2D2D2D" width="182.85714" x="137.85714" y="24.57132"/>
  <rect fill="#FFEBA2" height="31.42857" id="7611671ea59f4c1fa4e315972559bd65-ao-2" stroke="#2D2D2D" width="157.14286" x="743.57143" y="21.71418"/>
  <rect fill="#FFEBA2" height="74.28571" id="7611671ea59f4c1fa4e315972559bd65-ao-3" stroke="#2D2D2D" width="157.14286" x="137.85714" y="118.85704"/>
  <rect fill="#FFEBA2" height="71.42857" id="7611671ea59f4c1fa4e315972559bd65-ao-4" stroke="#2D2D2D" width="185.71429" x="752.14286" y="281.71418"/>
  <rect fill="#FFEBA2" height="71.42857" id="7611671ea59f4c1fa4e315972559bd65-ao-5" stroke="#2D2D2D" width="111.42857" x="137.85714" y="250.28561"/>
  <rect fill="#FFEBA2" height="51.42857" id="7611671ea59f4c1fa4e315972559bd65-ao-6" stroke="#2D2D2D" width="140" x="763.57143" y="358.85704"/>
  <rect fill="#FFEBA2" height="51.42857" id="7611671ea59f4c1fa4e315972559bd65-ao-7" stroke="#2D2D2D" width="148.57143" x="140.71429" y="375.9999"/>
  <rect fill="#FFEBA2" height="48.57143" id="7611671ea59f4c1fa4e315972559bd65-ao-8" stroke="#2D2D2D" width="108.57143" x="135" y="475.9999"/>
  <rect fill="#FFEBA2" height="71.42857" id="7611671ea59f4c1fa4e315972559bd65-ao-9" stroke="#2D2D2D" width="122.85714" x="772.14286" y="561.71418"/>
  <rect fill="#FFEBA2" height="74.28571" id="7611671ea59f4c1fa4e315972559bd65-ao-10" stroke="#2D2D2D" width="111.42857" x="140.71429" y="575.9999"/>
  <rect fill="#FFEBA2" height="74.28571" id="7611671ea59f4c1fa4e315972559bd65-ao-11" stroke="#2D2D2D" width="120" x="780.71429" y="644.57132"/>
  <rect fill="#FFEBA2" height="28.57143" id="7611671ea59f4c1fa4e315972559bd65-ao-12" stroke="#2D2D2D" width="74.28571" x="817.85714" y="733.14275"/>
  <rect fill="#FFEBA2" height="122.85714" id="7611671ea59f4c1fa4e315972559bd65-ao-13" stroke="#2D2D2D" width="117.14286" x="137.85714" y="701.71418"/>
  <rect fill="#FFEBA2" height="68.57143" id="7611671ea59f4c1fa4e315972559bd65-ao-14" stroke="#2D2D2D" width="122.85714" x="852.14286" y="773.14275"/>
  <rect fill="#FFEBA2" height="48.57143" id="7611671ea59f4c1fa4e315972559bd65-ao-15" stroke="#2D2D2D" width="105.71429" x="137.85714" y="870.28561"/>
  <rect fill="#FFEBA2" height="68.57143" id="7611671ea59f4c1fa4e315972559bd65-ao-16" stroke="#2D2D2D" width="114.28571" x="937.85714" y="855.9999"/>
  <rect fill="#FFEBA2" height="28.57143" id="7611671ea59f4c1fa4e315972559bd65-ao-17" stroke="#2D2D2D" width="217.14286" x="1032.14286" y="1013.14275"/>
  <rect fill="#FFEBA2" height="100" id="7611671ea59f4c1fa4e315972559bd65-ao-18" stroke="#2D2D2D" width="134.28571" x="137.85714" y="970.28561"/>
  <rect fill="#FFEBA2" height="28.57143" id="7611671ea59f4c1fa4e315972559bd65-ao-19" stroke="#2D2D2D" width="320" x="1060.71429" y="1064.57132"/>
  <rect fill="#FFEBA2" height="51.42857" id="7611671ea59f4c1fa4e315972559bd65-ao-20" stroke="#2D2D2D" width="100" x="137.85714" y="1113.14275"/>
  <rect fill="#FFEBA2" height="28.57143" id="7611671ea59f4c1fa4e315972559bd65-ao-21" stroke="#2D2D2D" width="225.71429" x="1077.85714" y="1115.9999"/>
  <rect fill="#FFEBA2" height="28.57143" id="7611671ea59f4c1fa4e315972559bd65-ao-22" stroke="#2D2D2D" width="65.71429" x="1092.14286" y="1167.42847"/>
  <rect fill="#FFEBA2" height="28.57143" id="7611671ea59f4c1fa4e315972559bd65-ao-23" stroke="#2D2D2D" width="268.57143" x="1072.14286" y="1215.9999"/>
  <rect fill="#FFEBA2" height="31.42857" id="7611671ea59f4c1fa4e315972559bd65-ao-24" stroke="#2D2D2D" width="151.42857" x="1069.28571" y="1267.42847"/>
  <rect fill="#FFEBA2" height="97.14286" id="7611671ea59f4c1fa4e315972559bd65-ao-25" stroke="#2D2D2D" width="168.57143" x="140.71429" y="1213.14275"/>
  <rect fill="#FFEBA2" height="31.42857" id="7611671ea59f4c1fa4e315972559bd65-ao-26" stroke="#2D2D2D" width="140" x="1040.71429" y="1315.9999"/>
  <rect fill="#FFEBA2" height="31.42857" id="7611671ea59f4c1fa4e315972559bd65-ao-27" stroke="#2D2D2D" width="177.14286" x="140.71429" y="1355.9999"/>
  <rect fill="#FFEBA2" height="25.71429" id="7611671ea59f4c1fa4e315972559bd65-ao-28" stroke="#2D2D2D" width="194.28571" x="1003.57143" y="1370.28561"/>
  <rect fill="#FFEBA2" height="31.42857" id="7611671ea59f4c1fa4e315972559bd65-ao-29" stroke="#2D2D2D" width="131.42857" x="283.57143" y="1435.9999"/>
  <rect fill="#FFEBA2" height="28.57143" id="7611671ea59f4c1fa4e315972559bd65-ao-30" stroke="#2D2D2D" width="174.28571" x="955" y="1418.85704"/>
  <rect fill="#FFEBA2" height="31.42857" id="7611671ea59f4c1fa4e315972559bd65-ao-31" stroke="#2D2D2D" width="171.42857" x="286.42857" y="1510.28561"/>
  <rect fill="#FFEBA2" height="25.71429" id="7611671ea59f4c1fa4e315972559bd65-ao-32" stroke="#2D2D2D" width="28.57143" x="549.28571" y="867.42847"/>
  <rect fill="#FFEBA2" height="22.85714" id="7611671ea59f4c1fa4e315972559bd65-ao-33" stroke="#2D2D2D" width="31.42857" x="497.85714" y="910.28561"/>
  <rect fill="#FFEBA2" height="25.71429" id="7611671ea59f4c1fa4e315972559bd65-ao-34" stroke="#2D2D2D" width="31.42857" x="489.28571" y="970.28561"/>
  
  <rect fill="#FFEBA2" height="25.71429" id="7611671ea59f4c1fa4e315972559bd65-ao-36" stroke="#2D2D2D" width="34.28571" x="420.71429" y="1090.28561"/>
 </g>
</svg>