<svg height="684" width="1535.9999999999998" xmlns="http://www.w3.org/2000/svg">
 <!-- Created with Image Occlusion Enhanced -->
 <g>
  <title>Labels</title>
 </g>
 <g>
  <title>Masks</title>
  <rect fill="#FFEBA2" height="28.57143" id="768e2c5cde23463386855298cfac73f9-ao-1" stroke="#2D2D2D" width="102.85715" x="586.85724" y="57.42858"/>
  <rect fill="#FFEBA2" height="31.42857" id="768e2c5cde23463386855298cfac73f9-ao-2" stroke="#2D2D2D" width="97.14286" x="861.14297" y="57.42858"/>
  <rect fill="#FFEBA2" height="51.42857" id="768e2c5cde23463386855298cfac73f9-ao-3" stroke="#2D2D2D" width="191.42858" x="612.57153" y="126.00002"/>
  <rect fill="#FFEBA2" height="51.42857" id="768e2c5cde23463386855298cfac73f9-ao-4" stroke="#2D2D2D" width="188.57144" x="178.28579" y="151.7143"/>
  <rect fill="#FFEBA2" height="48.57143" id="768e2c5cde23463386855298cfac73f9-ao-5" stroke="#2D2D2D" width="105.71429" x="855.42868" y="186.00002"/>
  <rect fill="#FFEBA2" height="45.71429" id="768e2c5cde23463386855298cfac73f9-ao-6" stroke="#2D2D2D" width="114.28572" x="638.28581" y="208.85716"/>
  <rect fill="#FFEBA2" height="28.57143" id="768e2c5cde23463386855298cfac73f9-ao-7" stroke="#2D2D2D" width="117.14286" x="206.85722" y="237.42859"/>
  <rect fill="#FFEBA2" height="28.57143" id="768e2c5cde23463386855298cfac73f9-ao-8" stroke="#2D2D2D" width="208.57144" x="669.71439" y="266.00002"/>
  <rect fill="#FFEBA2" height="28.57143" id="768e2c5cde23463386855298cfac73f9-ao-9" stroke="#2D2D2D" width="174.28572" x="1209.71441" y="266.00002"/>
  <rect fill="#FFEBA2" height="28.57143" id="768e2c5cde23463386855298cfac73f9-ao-10" stroke="#2D2D2D" width="180.00001" x="155.42865" y="297.4286"/>
  <rect fill="#FFEBA2" height="28.57143" id="768e2c5cde23463386855298cfac73f9-ao-11" stroke="#2D2D2D" width="180.00001" x="675.42867" y="300.28574"/>
  <rect fill="#FFEBA2" height="28.57143" id="768e2c5cde23463386855298cfac73f9-ao-12" stroke="#2D2D2D" width="111.42858" x="1209.71441" y="320.28574"/>
  <rect fill="#FFEBA2" height="31.42857" id="768e2c5cde23463386855298cfac73f9-ao-13" stroke="#2D2D2D" width="108.57143" x="206.85722" y="348.85717"/>
  <rect fill="#FFEBA2" height="31.42857" id="768e2c5cde23463386855298cfac73f9-ao-14" stroke="#2D2D2D" width="202.85715" x="641.14296" y="357.4286"/>
  <rect fill="#FFEBA2" height="25.71429" id="768e2c5cde23463386855298cfac73f9-ao-15" stroke="#2D2D2D" width="57.14286" x="1212.57155" y="377.4286"/>
  <rect fill="#FFEBA2" height="25.71429" id="768e2c5cde23463386855298cfac73f9-ao-16" stroke="#2D2D2D" width="57.14286" x="258.2858" y="420.28574"/>
  <rect fill="#FFEBA2" height="45.71429" id="768e2c5cde23463386855298cfac73f9-ao-17" stroke="#2D2D2D" width="100" x="612.57153" y="414.57146"/>
  <rect fill="#FFEBA2" height="48.57143" id="768e2c5cde23463386855298cfac73f9-ao-18" stroke="#2D2D2D" width="108.57143" x="798.28582" y="408.85717"/>
  <rect fill="#FFEBA2" height="28.57143" id="768e2c5cde23463386855298cfac73f9-ao-19" stroke="#2D2D2D" width="60" x="1209.71441" y="428.85717"/>
  <rect fill="#FFEBA2" height="28.57143" id="768e2c5cde23463386855298cfac73f9-ao-20" stroke="#2D2D2D" width="51.42857" x="266.85722" y="474.57146"/>
  <rect fill="#FFEBA2" height="28.57143" id="768e2c5cde23463386855298cfac73f9-ao-21" stroke="#2D2D2D" width="194.28572" x="589.71438" y="486.00003"/>
  
  <rect fill="#FFEBA2" height="28.57143" id="768e2c5cde23463386855298cfac73f9-ao-23" stroke="#2D2D2D" width="102.85715" x="215.42865" y="540.28575"/>
  <rect fill="#FFEBA2" height="31.42857" id="768e2c5cde23463386855298cfac73f9-ao-24" stroke="#2D2D2D" width="108.57143" x="575.42867" y="543.14289"/>
  <rect fill="#FFEBA2" height="34.28572" id="768e2c5cde23463386855298cfac73f9-ao-25" stroke="#2D2D2D" width="77.14286" x="246.85722" y="597.42861"/>
  <rect fill="#FFEBA2" height="25.71429" id="768e2c5cde23463386855298cfac73f9-ao-26" stroke="#2D2D2D" width="57.14286" x="541.14295" y="600.28575"/>
  <rect fill="#FFEBA2" height="31.42857" id="768e2c5cde23463386855298cfac73f9-ao-27" stroke="#2D2D2D" width="57.14286" x="909.7144" y="568.85718"/>
  <rect fill="#FFEBA2" height="28.57143" id="768e2c5cde23463386855298cfac73f9-ao-28" stroke="#2D2D2D" width="74.28572" x="1204.00012" y="568.85718"/>
 </g>
</svg>