<svg height="825" width="1315" xmlns="http://www.w3.org/2000/svg">
 <!-- Created with Image Occlusion Enhanced -->
 <g>
  <title>Labels</title>
 </g>
 <g>
  <title>Masks</title>
  <rect fill="#FFEBA2" height="25.71429" id="769c986dde7947d88977223323bad74c-ao-1" stroke="#2D2D2D" width="82.85714" x="33.57143" y="140.71429"/>
  <rect fill="#FFEBA2" height="48.57143" id="769c986dde7947d88977223323bad74c-ao-2" stroke="#2D2D2D" width="157.14286" x="1145" y="195"/>
  <rect fill="#FFEBA2" height="25.71429" id="769c986dde7947d88977223323bad74c-ao-3" stroke="#2D2D2D" width="122.85714" x="30.71429" y="186.42857"/>
  
  <rect fill="#FFEBA2" height="71.42857" id="769c986dde7947d88977223323bad74c-ao-5" stroke="#2D2D2D" width="114.28571" x="30.71429" y="226.42857"/>
  <rect fill="#FFEBA2" height="45.71429" id="769c986dde7947d88977223323bad74c-ao-6" stroke="#2D2D2D" width="157.14286" x="1145" y="340.71429"/>
  <rect fill="#FFEBA2" height="48.57143" id="769c986dde7947d88977223323bad74c-ao-7" stroke="#2D2D2D" width="145.71429" x="30.71429" y="306.42857"/>
  <rect fill="#FFEBA2" height="54.28571" id="769c986dde7947d88977223323bad74c-ao-8" stroke="#2D2D2D" width="100" x="1145" y="389.28571"/>
  <rect fill="#FFEBA2" height="51.42857" id="769c986dde7947d88977223323bad74c-ao-9" stroke="#2D2D2D" width="111.42857" x="27.85714" y="363.57143"/>
  <rect fill="#FFEBA2" height="45.71429" id="769c986dde7947d88977223323bad74c-ao-10" stroke="#2D2D2D" width="111.42857" x="1145" y="460.71429"/>
  <rect fill="#FFEBA2" height="48.57143" id="769c986dde7947d88977223323bad74c-ao-11" stroke="#2D2D2D" width="122.85714" x="30.71429" y="423.57143"/>
  <rect fill="#FFEBA2" height="45.71429" id="769c986dde7947d88977223323bad74c-ao-12" stroke="#2D2D2D" width="142.85714" x="1145" y="515"/>
  <rect fill="#FFEBA2" height="48.57143" id="769c986dde7947d88977223323bad74c-ao-13" stroke="#2D2D2D" width="168.57143" x="30.71429" y="486.42857"/>
  <rect fill="#FFEBA2" height="45.71429" id="769c986dde7947d88977223323bad74c-ao-14" stroke="#2D2D2D" width="151.42857" x="1145" y="572.14286"/>
  <rect fill="#FFEBA2" height="57.14286" id="769c986dde7947d88977223323bad74c-ao-15" stroke="#2D2D2D" width="157.14286" x="30.71429" y="543.57143"/>
  <rect fill="#FFEBA2" height="54.28571" id="769c986dde7947d88977223323bad74c-ao-16" stroke="#2D2D2D" width="122.85714" x="1142.14286" y="626.42857"/>
  <rect fill="#FFEBA2" height="25.71429" id="769c986dde7947d88977223323bad74c-ao-17" stroke="#2D2D2D" width="62.85714" x="30.71429" y="669.28571"/>
  <rect fill="#FFEBA2" height="28.57143" id="769c986dde7947d88977223323bad74c-ao-18" stroke="#2D2D2D" width="71.42857" x="1145" y="695"/>
  <rect fill="#FFEBA2" height="37.14286" id="769c986dde7947d88977223323bad74c-ao-19" stroke="#2D2D2D" width="140" x="30.71429" y="703.57143"/>
  <rect fill="#FFEBA2" height="31.42857" id="769c986dde7947d88977223323bad74c-ao-20" stroke="#2D2D2D" width="77.14286" x="1142.14286" y="752.14286"/>
 </g>
</svg>