<svg height="510" width="1267" xmlns="http://www.w3.org/2000/svg">
 <!-- Created with Image Occlusion Enhanced -->
 <g>
  <title>Labels</title>
 </g>
 <g>
  <title>Masks</title>
  <rect fill="#FFEBA2" height="30.30303" id="76ad43b1f0ff40f3a281f857dce8b841-ao-1" stroke="#2D2D2D" width="324.24244" x="137.5455" y="32.42422"/>
  <rect fill="#FFEBA2" height="48.48485" id="76ad43b1f0ff40f3a281f857dce8b841-ao-2" stroke="#2D2D2D" width="151.51516" x="637.54552" y="68.78786"/>
  <rect fill="#FFEBA2" height="48.48485" id="76ad43b1f0ff40f3a281f857dce8b841-ao-3" stroke="#2D2D2D" width="206.06061" x="889.06068" y="38.48483"/>
  <rect fill="#FFEBA2" height="30.30303" id="76ad43b1f0ff40f3a281f857dce8b841-ao-4" stroke="#2D2D2D" width="84.84849" x="176.93944" y="93.03028"/>
  <rect fill="#FFEBA2" height="57.57576" id="76ad43b1f0ff40f3a281f857dce8b841-ao-5" stroke="#2D2D2D" width="209.09092" x="1013.30311" y="123.33331"/>
  <rect fill="#FFEBA2" height="33.33333" id="76ad43b1f0ff40f3a281f857dce8b841-ao-6" stroke="#2D2D2D" width="181.81819" x="79.96974" y="153.63635"/>
  <rect class="qshape" fill="#FF7E7E" height="33.33333" id="76ad43b1f0ff40f3a281f857dce8b841-ao-7" stroke="#2D2D2D" width="242.42425" x="989.06069" y="202.1212"/>
  <rect fill="#FFEBA2" height="33.33333" id="76ad43b1f0ff40f3a281f857dce8b841-ao-8" stroke="#2D2D2D" width="239.39395" x="37.5455" y="217.27271"/>
  <rect fill="#FFEBA2" height="30.30303" id="76ad43b1f0ff40f3a281f857dce8b841-ao-9" stroke="#2D2D2D" width="236.36364" x="1013.30311" y="259.69696"/>
  <rect fill="#FFEBA2" height="30.30303" id="76ad43b1f0ff40f3a281f857dce8b841-ao-10" stroke="#2D2D2D" width="63.63637" x="252.69702" y="274.84847"/>
  <rect fill="#FFEBA2" height="27.27273" id="76ad43b1f0ff40f3a281f857dce8b841-ao-11" stroke="#2D2D2D" width="124.24243" x="998.15159" y="317.27272"/>
  <rect fill="#FFEBA2" height="30.30303" id="76ad43b1f0ff40f3a281f857dce8b841-ao-12" stroke="#2D2D2D" width="160.60607" x="146.63641" y="338.48484"/>
  <rect fill="#FFEBA2" height="51.51515" id="76ad43b1f0ff40f3a281f857dce8b841-ao-13" stroke="#2D2D2D" width="148.48485" x="995.12129" y="374.84848"/>
  <rect fill="#FFEBA2" height="24.24243" id="76ad43b1f0ff40f3a281f857dce8b841-ao-14" stroke="#2D2D2D" width="72.72728" x="237.54551" y="396.0606"/>
  <rect fill="#FFEBA2" height="27.27273" id="76ad43b1f0ff40f3a281f857dce8b841-ao-15" stroke="#2D2D2D" width="278.78789" x="195.12126" y="453.63636"/>
  <rect fill="#FFEBA2" height="30.30303" id="76ad43b1f0ff40f3a281f857dce8b841-ao-16" stroke="#2D2D2D" width="306.06062" x="789.06068" y="453.63636"/>
 </g>
</svg>