<svg height="1661.0000000000002" width="1536.0000000000002" xmlns="http://www.w3.org/2000/svg">
 <!-- Created with Image Occlusion Enhanced -->
 <g>
  <title>Labels</title>
 </g>
 <g>
  <title>Masks</title>
  <rect fill="#FFEBA2" height="26.66667" id="771bad5b3f8345b58a6733fed0e3e728-ao-1" stroke="#2D2D2D" width="193.33334" x="990.66673" y="7.33337"/>
  <rect fill="#FFEBA2" height="30" id="771bad5b3f8345b58a6733fed0e3e728-ao-2" stroke="#2D2D2D" width="150" x="1264.00007" y="114.00004"/>
  <rect fill="#FFEBA2" height="70" id="771bad5b3f8345b58a6733fed0e3e728-ao-3" stroke="#2D2D2D" width="116.66667" x="787.33339" y="184.00004"/>
  <rect fill="#FFEBA2" height="73.33334" id="771bad5b3f8345b58a6733fed0e3e728-ao-4" stroke="#2D2D2D" width="190.00001" x="1244.00007" y="277.33338"/>
  <rect fill="#FFEBA2" height="30" id="771bad5b3f8345b58a6733fed0e3e728-ao-5" stroke="#2D2D2D" width="196.66667" x="977.3334" y="340.66671"/>
  <rect class="qshape" fill="#FF7E7E" height="96.66667" id="771bad5b3f8345b58a6733fed0e3e728-ao-6" stroke="#2D2D2D" width="170" x="1237.33341" y="454.00005"/>
  <rect fill="#FFEBA2" height="53.33333" id="771bad5b3f8345b58a6733fed0e3e728-ao-7" stroke="#2D2D2D" width="136.66667" x="767.33339" y="540.66672"/>
  <rect fill="#FFEBA2" height="73.33334" id="771bad5b3f8345b58a6733fed0e3e728-ao-8" stroke="#2D2D2D" width="176.66667" x="1240.66674" y="600.66672"/>
  <rect fill="#FFEBA2" height="70" id="771bad5b3f8345b58a6733fed0e3e728-ao-9" stroke="#2D2D2D" width="130" x="1284.00007" y="710.66672"/>
  <rect fill="#FFEBA2" height="53.33333" id="771bad5b3f8345b58a6733fed0e3e728-ao-10" stroke="#2D2D2D" width="96.66667" x="1284.00007" y="867.3334"/>
  <rect fill="#FFEBA2" height="50" id="771bad5b3f8345b58a6733fed0e3e728-ao-11" stroke="#2D2D2D" width="153.33334" x="610.66672" y="920.66673"/>
  <rect fill="#FFEBA2" height="30" id="771bad5b3f8345b58a6733fed0e3e728-ao-12" stroke="#2D2D2D" width="76.66667" x="877.3334" y="1047.3334"/>
  <rect fill="#FFEBA2" height="46.66667" id="771bad5b3f8345b58a6733fed0e3e728-ao-13" stroke="#2D2D2D" width="170" x="1214.00007" y="1044.00007"/>
  <rect fill="#FFEBA2" height="46.66667" id="771bad5b3f8345b58a6733fed0e3e728-ao-14" stroke="#2D2D2D" width="83.33334" x="1080.66674" y="1160.66674"/>
  <rect fill="#FFEBA2" height="30" id="771bad5b3f8345b58a6733fed0e3e728-ao-15" stroke="#2D2D2D" width="183.33334" x="934.00007" y="1227.3334"/>
  <rect fill="#FFEBA2" height="46.66667" id="771bad5b3f8345b58a6733fed0e3e728-ao-16" stroke="#2D2D2D" width="106.66667" x="980.66673" y="1287.33341"/>
  <g id="771bad5b3f8345b58a6733fed0e3e728-ao-17">
   <rect fill="#FFEBA2" height="43.33333" stroke="#2D2D2D" width="120" x="664.00006" y="1224.00007"/>
   <rect fill="#FFEBA2" height="23.33333" stroke="#2D2D2D" width="80" x="704.00006" y="1270.66674"/>
  </g>
  <rect fill="#FFEBA2" height="53.33333" id="771bad5b3f8345b58a6733fed0e3e728-ao-18" stroke="#2D2D2D" width="126.66667" x="1280.66674" y="1254.00007"/>
  <rect fill="#FFEBA2" height="33.33333" id="771bad5b3f8345b58a6733fed0e3e728-ao-19" stroke="#2D2D2D" width="40" x="1090.66674" y="1337.33341"/>
  <rect fill="#FFEBA2" height="33.33333" id="771bad5b3f8345b58a6733fed0e3e728-ao-20" stroke="#2D2D2D" width="50" x="1017.3334" y="1364.00008"/>
  <rect fill="#FFEBA2" height="46.66667" id="771bad5b3f8345b58a6733fed0e3e728-ao-21" stroke="#2D2D2D" width="113.33334" x="1277.33341" y="1360.66674"/>
  <rect fill="#FFEBA2" height="43.33333" id="771bad5b3f8345b58a6733fed0e3e728-ao-22" stroke="#2D2D2D" width="90" x="1280.66674" y="1424.00008"/>
  <rect fill="#FFEBA2" height="53.33333" id="771bad5b3f8345b58a6733fed0e3e728-ao-23" stroke="#2D2D2D" width="93.33334" x="697.33339" y="1347.33341"/>
  <rect fill="#FFEBA2" height="46.66667" id="771bad5b3f8345b58a6733fed0e3e728-ao-24" stroke="#2D2D2D" width="156.66667" x="1274.00007" y="1547.33341"/>
  <rect fill="#FFEBA2" height="46.66667" id="771bad5b3f8345b58a6733fed0e3e728-ao-25" stroke="#2D2D2D" width="176.66667" x="1134.00007" y="1607.33341"/>
  <rect fill="#FFEBA2" height="50" id="771bad5b3f8345b58a6733fed0e3e728-ao-26" stroke="#2D2D2D" width="160.00001" x="970.66673" y="1607.33341"/>
  <rect fill="#FFEBA2" height="30" id="771bad5b3f8345b58a6733fed0e3e728-ao-27" stroke="#2D2D2D" width="113.33334" x="767.33339" y="1600.66675"/>
  <rect fill="#FFEBA2" height="26.66667" id="771bad5b3f8345b58a6733fed0e3e728-ao-28" stroke="#2D2D2D" width="30" x="1110.66674" y="1477.33341"/>
  <rect fill="#FFEBA2" height="30" id="771bad5b3f8345b58a6733fed0e3e728-ao-29" stroke="#2D2D2D" width="43.33333" x="1044.00007" y="1494.00008"/>
  <rect fill="#FFEBA2" height="26.66667" id="771bad5b3f8345b58a6733fed0e3e728-ao-30" stroke="#2D2D2D" width="83.33334" x="487.33339" y="1557.33341"/>
  <rect fill="#FFEBA2" height="53.33333" id="771bad5b3f8345b58a6733fed0e3e728-ao-31" stroke="#2D2D2D" width="86.66667" x="390.66672" y="1540.66675"/>
  <rect fill="#FFEBA2" height="23.33333" id="771bad5b3f8345b58a6733fed0e3e728-ao-32" stroke="#2D2D2D" width="33.33333" x="500.66672" y="1364.00008"/>
  <rect fill="#FFEBA2" height="23.33333" id="771bad5b3f8345b58a6733fed0e3e728-ao-33" stroke="#2D2D2D" stroke-dasharray="null" stroke-linecap="null" stroke-linejoin="null" width="40" x="510.66672" y="1387.33341"/>
 </g>
</svg>