<svg height="763.0000000000001" width="1147" xmlns="http://www.w3.org/2000/svg">
 <!-- Created with Image Occlusion Enhanced -->
 <g>
  <title>Labels</title>
 </g>
 <g>
  <title>Masks</title>
  <rect fill="#FFEBA2" height="34.28572" id="7774950ca4c745e3ae8d79eab29fa3d7-ao-1" stroke="#2D2D2D" width="137.14286" x="957.28568" y="78.42861"/>
  <rect fill="#FFEBA2" height="28.57143" id="7774950ca4c745e3ae8d79eab29fa3d7-ao-2" stroke="#2D2D2D" width="74.28572" x="80.14278" y="149.85718"/>
  <rect fill="#FFEBA2" height="31.42857" id="7774950ca4c745e3ae8d79eab29fa3d7-ao-3" stroke="#2D2D2D" width="140.00001" x="954.42854" y="141.28576"/>
  <rect fill="#FFEBA2" height="80" id="7774950ca4c745e3ae8d79eab29fa3d7-ao-4" stroke="#2D2D2D" width="140.00001" x="954.42854" y="201.28576"/>
  <rect fill="#FFEBA2" height="28.57143" id="7774950ca4c745e3ae8d79eab29fa3d7-ao-5" stroke="#2D2D2D" width="185.71429" x="77.28564" y="261.28576"/>
  <rect fill="#FFEBA2" height="37.14286" id="7774950ca4c745e3ae8d79eab29fa3d7-ao-6" stroke="#2D2D2D" width="117.14286" x="957.28568" y="304.14291"/>
  <rect fill="#FFEBA2" height="37.14286" id="7774950ca4c745e3ae8d79eab29fa3d7-ao-7" stroke="#2D2D2D" width="140.00001" x="954.42854" y="369.85719"/>
  <rect fill="#FFEBA2" height="34.28572" id="7774950ca4c745e3ae8d79eab29fa3d7-ao-8" stroke="#2D2D2D" width="131.42858" x="77.28564" y="364.14291"/>
  <rect fill="#FFEBA2" height="31.42857" id="7774950ca4c745e3ae8d79eab29fa3d7-ao-9" stroke="#2D2D2D" width="131.42858" x="951.57139" y="432.71434"/>
  <rect class="qshape" fill="#FF7E7E" height="51.42857" id="7774950ca4c745e3ae8d79eab29fa3d7-ao-10" stroke="#2D2D2D" width="145.71429" x="77.28564" y="464.14291"/>
  <rect fill="#FFEBA2" height="31.42857" id="7774950ca4c745e3ae8d79eab29fa3d7-ao-11" stroke="#2D2D2D" width="162.85715" x="954.42854" y="492.71434"/>
  <rect fill="#FFEBA2" height="28.57143" id="7774950ca4c745e3ae8d79eab29fa3d7-ao-12" stroke="#2D2D2D" width="142.85715" x="951.57139" y="555.57149"/>
  <rect fill="#FFEBA2" height="31.42857" id="7774950ca4c745e3ae8d79eab29fa3d7-ao-13" stroke="#2D2D2D" width="162.85715" x="77.28564" y="584.14292"/>
  <rect fill="#FFEBA2" height="34.28572" id="7774950ca4c745e3ae8d79eab29fa3d7-ao-14" stroke="#2D2D2D" width="74.28572" x="957.28568" y="615.57149"/>
  <rect fill="#FFEBA2" height="128.57143" id="7774950ca4c745e3ae8d79eab29fa3d7-ao-15" stroke="#2D2D2D" width="94.28572" x="1188.71426" y="649.85721"/>
 </g>
</svg>