<svg height="1546.9999999999998" width="1535.9999999999998" xmlns="http://www.w3.org/2000/svg">
 <!-- Created with Image Occlusion Enhanced -->
 <g>
  <title>Labels</title>
 </g>
 <g>
  <title>Masks</title>
  <rect fill="#FFEBA2" height="22.85714" id="78c3389f91f64dd1bbfdbb103e392083-ao-1" stroke="#2D2D2D" width="25.71429" x="614.0001" y="71.57134"/>
  <rect fill="#FFEBA2" height="25.71429" id="78c3389f91f64dd1bbfdbb103e392083-ao-2" stroke="#2D2D2D" width="17.14286" x="616.85724" y="142.99992"/>
  <rect fill="#FFEBA2" height="28.57143" id="78c3389f91f64dd1bbfdbb103e392083-ao-3" stroke="#2D2D2D" width="22.85714" x="571.14295" y="240.14278"/>
  <rect fill="#FFEBA2" height="25.71429" id="78c3389f91f64dd1bbfdbb103e392083-ao-4" stroke="#2D2D2D" width="22.85714" x="551.14295" y="322.99993"/>
  <rect fill="#FFEBA2" height="22.85714" id="78c3389f91f64dd1bbfdbb103e392083-ao-5" stroke="#2D2D2D" width="20" x="496.85724" y="411.57136"/>
  <rect fill="#FFEBA2" height="25.71429" id="78c3389f91f64dd1bbfdbb103e392083-ao-6" stroke="#2D2D2D" width="28.57143" x="448.2858" y="488.71422"/>
  <rect fill="#FFEBA2" height="25.71429" id="78c3389f91f64dd1bbfdbb103e392083-ao-7" stroke="#2D2D2D" width="31.42857" x="445.42866" y="537.28565"/>
  <rect fill="#FFEBA2" height="51.42857" id="78c3389f91f64dd1bbfdbb103e392083-ao-8" stroke="#2D2D2D" width="165.71429" x="142.5715" y="137.28563"/>
  <rect fill="#FFEBA2" height="51.42857" id="78c3389f91f64dd1bbfdbb103e392083-ao-9" stroke="#2D2D2D" width="188.57144" x="1165.42869" y="171.57135"/>
  <rect fill="#FFEBA2" height="82.85715" id="78c3389f91f64dd1bbfdbb103e392083-ao-10" stroke="#2D2D2D" width="185.71429" x="142.5715" y="211.57135"/>
  <rect fill="#FFEBA2" height="25.71429" id="78c3389f91f64dd1bbfdbb103e392083-ao-11" stroke="#2D2D2D" width="100" x="1165.42869" y="234.42849"/>
  <rect fill="#FFEBA2" height="48.57143" id="78c3389f91f64dd1bbfdbb103e392083-ao-12" stroke="#2D2D2D" width="162.85715" x="1165.42869" y="277.28564"/>
  <rect fill="#FFEBA2" height="45.71429" id="78c3389f91f64dd1bbfdbb103e392083-ao-13" stroke="#2D2D2D" width="174.28572" x="145.42865" y="311.57136"/>
  <rect fill="#FFEBA2" height="48.57143" id="78c3389f91f64dd1bbfdbb103e392083-ao-14" stroke="#2D2D2D" width="225.7143" x="1162.57155" y="340.14279"/>
  <rect fill="#FFEBA2" height="57.14286" id="78c3389f91f64dd1bbfdbb103e392083-ao-15" stroke="#2D2D2D" width="165.71429" x="145.42865" y="374.4285"/>
  <rect fill="#FFEBA2" height="51.42857" id="78c3389f91f64dd1bbfdbb103e392083-ao-16" stroke="#2D2D2D" width="185.71429" x="1165.42869" y="405.85707"/>
  <rect fill="#FFEBA2" height="51.42857" id="78c3389f91f64dd1bbfdbb103e392083-ao-17" stroke="#2D2D2D" width="171.42858" x="142.5715" y="448.71422"/>
  <rect fill="#FFEBA2" height="51.42857" id="78c3389f91f64dd1bbfdbb103e392083-ao-18" stroke="#2D2D2D" width="197.14287" x="1165.42869" y="468.71422"/>
  <rect fill="#FFEBA2" height="45.71429" id="78c3389f91f64dd1bbfdbb103e392083-ao-19" stroke="#2D2D2D" width="197.14287" x="145.42865" y="522.99994"/>
  <rect fill="#FFEBA2" height="45.71429" id="78c3389f91f64dd1bbfdbb103e392083-ao-20" stroke="#2D2D2D" width="177.14287" x="139.71436" y="588.71423"/>
  <rect fill="#FFEBA2" height="74.28572" id="78c3389f91f64dd1bbfdbb103e392083-ao-21" stroke="#2D2D2D" width="208.57144" x="1165.42869" y="574.42851"/>
  <rect fill="#FFEBA2" height="51.42857" id="78c3389f91f64dd1bbfdbb103e392083-ao-22" stroke="#2D2D2D" width="160.00001" x="139.71436" y="654.42851"/>
  <rect fill="#FFEBA2" height="28.57143" id="78c3389f91f64dd1bbfdbb103e392083-ao-23" stroke="#2D2D2D" width="120.00001" x="139.71436" y="722.99995"/>
  <rect fill="#FFEBA2" height="51.42857" id="78c3389f91f64dd1bbfdbb103e392083-ao-24" stroke="#2D2D2D" width="200.00001" x="1162.57155" y="762.99995"/>
  <rect fill="#FFEBA2" height="48.57143" id="78c3389f91f64dd1bbfdbb103e392083-ao-25" stroke="#2D2D2D" width="165.71429" x="142.5715" y="771.57138"/>
  <rect fill="#FFEBA2" height="71.42857" id="78c3389f91f64dd1bbfdbb103e392083-ao-26" stroke="#2D2D2D" width="214.28572" x="1162.57155" y="825.85709"/>
  <rect fill="#FFEBA2" height="71.42857" id="78c3389f91f64dd1bbfdbb103e392083-ao-27" stroke="#2D2D2D" width="151.42858" x="142.5715" y="840.14281"/>
  <rect fill="#FFEBA2" height="74.28572" id="78c3389f91f64dd1bbfdbb103e392083-ao-28" stroke="#2D2D2D" width="222.85715" x="1165.42869" y="908.71424"/>
  <rect fill="#FFEBA2" height="48.57143" id="78c3389f91f64dd1bbfdbb103e392083-ao-29" stroke="#2D2D2D" width="197.14287" x="142.5715" y="942.99996"/>
  <rect fill="#FFEBA2" height="68.57143" id="78c3389f91f64dd1bbfdbb103e392083-ao-30" stroke="#2D2D2D" width="168.57144" x="1165.42869" y="1000.14282"/>
  <rect fill="#FFEBA2" height="71.42857" id="78c3389f91f64dd1bbfdbb103e392083-ao-31" stroke="#2D2D2D" width="182.85715" x="139.71436" y="1005.8571"/>
  <rect fill="#FFEBA2" height="48.57143" id="78c3389f91f64dd1bbfdbb103e392083-ao-32" stroke="#2D2D2D" width="171.42858" x="1165.42869" y="1085.8571"/>
  <rect fill="#FFEBA2" height="48.57143" id="78c3389f91f64dd1bbfdbb103e392083-ao-33" stroke="#2D2D2D" width="174.28572" x="139.71436" y="1088.71425"/>
  <rect fill="#FFEBA2" height="45.71429" id="78c3389f91f64dd1bbfdbb103e392083-ao-34" stroke="#2D2D2D" width="165.71429" x="1165.42869" y="1145.85711"/>
  <rect fill="#FFEBA2" height="48.57143" id="78c3389f91f64dd1bbfdbb103e392083-ao-35" stroke="#2D2D2D" width="182.85715" x="139.71436" y="1154.42854"/>
  <rect fill="#FFEBA2" height="51.42857" id="78c3389f91f64dd1bbfdbb103e392083-ao-36" stroke="#2D2D2D" width="185.71429" x="1165.42869" y="1211.5714"/>
  <rect fill="#FFEBA2" height="57.14286" id="78c3389f91f64dd1bbfdbb103e392083-ao-37" stroke="#2D2D2D" width="174.28572" x="139.71436" y="1220.14283"/>
  <rect fill="#FFEBA2" height="51.42857" id="78c3389f91f64dd1bbfdbb103e392083-ao-38" stroke="#2D2D2D" width="222.85715" x="1165.42869" y="1277.28568"/>
  <rect fill="#FFEBA2" height="51.42857" id="78c3389f91f64dd1bbfdbb103e392083-ao-39" stroke="#2D2D2D" width="165.71429" x="139.71436" y="1294.42854"/>
  <rect fill="#FFEBA2" height="28.57143" id="78c3389f91f64dd1bbfdbb103e392083-ao-40" stroke="#2D2D2D" width="145.71429" x="1168.28584" y="1337.28569"/>
  <rect fill="#FFEBA2" height="31.42857" id="78c3389f91f64dd1bbfdbb103e392083-ao-41" stroke="#2D2D2D" width="142.85715" x="139.71436" y="1365.85712"/>
  <rect fill="#FFEBA2" height="31.42857" id="78c3389f91f64dd1bbfdbb103e392083-ao-42" stroke="#2D2D2D" width="237.14287" x="1162.57155" y="1417.28569"/>
  <rect fill="#FFEBA2" height="28.57143" id="78c3389f91f64dd1bbfdbb103e392083-ao-43" stroke="#2D2D2D" width="274.28573" x="142.5715" y="1448.71426"/>
  <rect fill="#FFEBA2" height="28.57143" id="78c3389f91f64dd1bbfdbb103e392083-ao-44" stroke="#2D2D2D" width="322.85716" x="1059.7144" y="1460.14284"/>
  <rect fill="#FFEBA2" height="31.42857" id="78c3389f91f64dd1bbfdbb103e392083-ao-45" stroke="#2D2D2D" width="282.85716" x="179.71436" y="1500.14284"/>
  <rect fill="#FFEBA2" height="54.28572" id="78c3389f91f64dd1bbfdbb103e392083-ao-46" stroke="#2D2D2D" width="134.28572" x="562.57152" y="1477.28569"/>
  <rect fill="#FFEBA2" height="71.42857" id="78c3389f91f64dd1bbfdbb103e392083-ao-47" stroke="#2D2D2D" width="168.57144" x="771.14296" y="1454.42855"/>
  <rect fill="#FFEBA2" height="28.57143" id="78c3389f91f64dd1bbfdbb103e392083-ao-48" stroke="#2D2D2D" width="277.14287" x="1019.7144" y="1502.99998"/>
 </g>
</svg>