<svg height="1607" width="1525" xmlns="http://www.w3.org/2000/svg">
 <!-- Created with Image Occlusion Enhanced -->
 <g>
  <title>Labels</title>
 </g>
 <g>
  <title>Masks</title>
  <rect fill="#FFEBA2" height="114.28571" id="7a6d0532a5cc442e9422a6fda3b5d054-ao-1" stroke="#2D2D2D" width="82.85714" x="130.71429" y="220.1428"/>
  <rect fill="#FFEBA2" height="125.71429" id="7a6d0532a5cc442e9422a6fda3b5d054-ao-2" stroke="#2D2D2D" width="91.42857" x="762.14286" y="251.57138"/>
  <rect fill="#FFEBA2" height="117.14286" id="7a6d0532a5cc442e9422a6fda3b5d054-ao-3" stroke="#2D2D2D" width="85.71429" x="130.71429" y="354.42852"/>
  <rect fill="#FFEBA2" height="71.42857" id="7a6d0532a5cc442e9422a6fda3b5d054-ao-4" stroke="#2D2D2D" width="100" x="762.14286" y="402.99995"/>
  <rect fill="#FFEBA2" height="77.14286" id="7a6d0532a5cc442e9422a6fda3b5d054-ao-5" stroke="#2D2D2D" width="91.42857" x="130.71429" y="497.28566"/>
  <rect fill="#FFEBA2" height="111.42857" id="7a6d0532a5cc442e9422a6fda3b5d054-ao-6" stroke="#2D2D2D" width="94.28571" x="765" y="494.42852"/>
  <rect fill="#FFEBA2" height="74.28571" id="7a6d0532a5cc442e9422a6fda3b5d054-ao-7" stroke="#2D2D2D" width="91.42857" x="127.85714" y="594.42852"/>
  <rect fill="#FFEBA2" height="88.57143" id="7a6d0532a5cc442e9422a6fda3b5d054-ao-8" stroke="#2D2D2D" width="100" x="127.85714" y="688.71423"/>
  <rect fill="#FFEBA2" height="71.42857" id="7a6d0532a5cc442e9422a6fda3b5d054-ao-9" stroke="#2D2D2D" width="97.14286" x="762.14286" y="740.1428"/>
  <rect fill="#FFEBA2" height="97.14286" id="7a6d0532a5cc442e9422a6fda3b5d054-ao-10" stroke="#2D2D2D" width="100" x="127.85714" y="800.1428"/>
  <rect fill="#FFEBA2" height="74.28571" id="7a6d0532a5cc442e9422a6fda3b5d054-ao-11" stroke="#2D2D2D" width="88.57143" x="130.71429" y="945.85709"/>
  <rect fill="#FFEBA2" height="25.71429" id="7a6d0532a5cc442e9422a6fda3b5d054-ao-12" stroke="#2D2D2D" width="157.14286" x="499.28571" y="1405.85709"/>
  <rect fill="#FFEBA2" height="28.57143" id="7a6d0532a5cc442e9422a6fda3b5d054-ao-13" stroke="#2D2D2D" width="214.28571" x="910.71429" y="1408.71423"/>
  <rect fill="#FFEBA2" height="28.57143" id="7a6d0532a5cc442e9422a6fda3b5d054-ao-14" stroke="#2D2D2D" width="374.28571" x="790.71429" y="1440.1428"/>
  <rect fill="#FFEBA2" height="22.85714" id="7a6d0532a5cc442e9422a6fda3b5d054-ao-15" stroke="#2D2D2D" width="362.85714" x="827.85714" y="1480.1428"/>
  <rect fill="#FFEBA2" height="31.42857" id="7a6d0532a5cc442e9422a6fda3b5d054-ao-16" stroke="#2D2D2D" width="291.42857" x="956.42857" y="1517.28566"/>
  <rect fill="#FFEBA2" height="28.57143" id="7a6d0532a5cc442e9422a6fda3b5d054-ao-17" stroke="#2D2D2D" width="51.42857" x="1136.42857" y="162.99995"/>
  <rect fill="#FFEBA2" height="31.42857" id="7a6d0532a5cc442e9422a6fda3b5d054-ao-18" stroke="#2D2D2D" width="37.14286" x="1145" y="300.1428"/>
  <rect fill="#FFEBA2" height="31.42857" id="7a6d0532a5cc442e9422a6fda3b5d054-ao-19" stroke="#2D2D2D" width="40" x="1113.57143" y="471.57138"/>
  <rect fill="#FFEBA2" height="28.57143" id="7a6d0532a5cc442e9422a6fda3b5d054-ao-20" stroke="#2D2D2D" width="31.42857" x="1105" y="635.85709"/>
  <rect fill="#FFEBA2" height="31.42857" id="7a6d0532a5cc442e9422a6fda3b5d054-ao-21" stroke="#2D2D2D" width="40" x="1082.14286" y="798.71423"/>
  <rect fill="#FFEBA2" height="28.57143" id="7a6d0532a5cc442e9422a6fda3b5d054-ao-22" stroke="#2D2D2D" width="37.14286" x="1090.71429" y="965.85709"/>
  <rect fill="#FFEBA2" height="25.71429" id="7a6d0532a5cc442e9422a6fda3b5d054-ao-23" stroke="#2D2D2D" width="28.57143" x="1190.71429" y="1128.71423"/>
  <rect class="qshape" fill="#FF7E7E" height="37.14286" id="7a6d0532a5cc442e9422a6fda3b5d054-ao-24" stroke="#2D2D2D" width="31.42857" x="1282.14286" y="1188.71423"/>
 </g>
</svg>