<svg height="1539" width="1535.9999999999998" xmlns="http://www.w3.org/2000/svg">
 <!-- Created with Image Occlusion Enhanced -->
 <g>
  <title>Labels</title>
 </g>
 <g>
  <title>Masks</title>
  <rect fill="#FFEBA2" height="31.42857" id="7aec34f869d544629e76e61d2c1d5140-ao-1" stroke="#2D2D2D" width="377.14287" x="238.28579" y="16.71415"/>
  <rect fill="#FFEBA2" height="28.57143" id="7aec34f869d544629e76e61d2c1d5140-ao-2" stroke="#2D2D2D" width="254.28573" x="1055.42869" y="10.99986"/>
  <rect fill="#FFEBA2" height="28.57143" id="7aec34f869d544629e76e61d2c1d5140-ao-3" stroke="#2D2D2D" width="194.28572" x="381.14294" y="59.57129"/>
  <rect fill="#FFEBA2" height="34.28572" id="7aec34f869d544629e76e61d2c1d5140-ao-4" stroke="#2D2D2D" width="114.28572" x="1115.42869" y="50.99986"/>
  <rect fill="#FFEBA2" height="51.42857" id="7aec34f869d544629e76e61d2c1d5140-ao-5" stroke="#2D2D2D" width="208.57144" x="246.85722" y="208.14273"/>
  <rect fill="#FFEBA2" height="54.28572" id="7aec34f869d544629e76e61d2c1d5140-ao-6" stroke="#2D2D2D" width="220.00001" x="1201.14298" y="228.14273"/>
  <rect fill="#FFEBA2" height="31.42857" id="7aec34f869d544629e76e61d2c1d5140-ao-7" stroke="#2D2D2D" width="240.00001" x="144.00008" y="279.5713"/>
  <rect fill="#FFEBA2" height="51.42857" id="7aec34f869d544629e76e61d2c1d5140-ao-8" stroke="#2D2D2D" width="157.14286" x="1232.57155" y="293.85702"/>
  <rect fill="#FFEBA2" height="97.14286" id="7aec34f869d544629e76e61d2c1d5140-ao-9" stroke="#2D2D2D" width="148.57144" x="1218.28584" y="362.42845"/>
  <rect fill="#FFEBA2" height="54.28572" id="7aec34f869d544629e76e61d2c1d5140-ao-10" stroke="#2D2D2D" width="145.71429" x="141.14293" y="413.85702"/>
  <rect fill="#FFEBA2" height="54.28572" id="7aec34f869d544629e76e61d2c1d5140-ao-11" stroke="#2D2D2D" width="165.71429" x="1201.14298" y="465.2856"/>
  <rect fill="#FFEBA2" height="71.42857" id="7aec34f869d544629e76e61d2c1d5140-ao-12" stroke="#2D2D2D" width="111.42858" x="144.00008" y="508.14274"/>
  <rect fill="#FFEBA2" height="48.57143" id="7aec34f869d544629e76e61d2c1d5140-ao-13" stroke="#2D2D2D" width="154.28572" x="1201.14298" y="533.85703"/>
  <rect fill="#FFEBA2" height="48.57143" id="7aec34f869d544629e76e61d2c1d5140-ao-14" stroke="#2D2D2D" width="174.28572" x="1198.28584" y="602.42846"/>
  <rect fill="#FFEBA2" height="77.14286" id="7aec34f869d544629e76e61d2c1d5140-ao-15" stroke="#2D2D2D" width="122.85715" x="144.00008" y="619.57132"/>
  <rect fill="#FFEBA2" height="48.57143" id="7aec34f869d544629e76e61d2c1d5140-ao-16" stroke="#2D2D2D" width="174.28572" x="1201.14298" y="656.71418"/>
  <rect fill="#FFEBA2" height="74.28572" id="7aec34f869d544629e76e61d2c1d5140-ao-17" stroke="#2D2D2D" width="191.42858" x="1198.28584" y="722.42846"/>
  <rect fill="#FFEBA2" height="68.57143" id="7aec34f869d544629e76e61d2c1d5140-ao-18" stroke="#2D2D2D" width="117.14286" x="146.85722" y="742.42847"/>
  <rect fill="#FFEBA2" height="51.42857" id="7aec34f869d544629e76e61d2c1d5140-ao-19" stroke="#2D2D2D" width="168.57144" x="1198.28584" y="802.42847"/>
  <rect fill="#FFEBA2" height="77.14286" id="7aec34f869d544629e76e61d2c1d5140-ao-20" stroke="#2D2D2D" width="114.28572" x="144.00008" y="853.85704"/>
  <rect fill="#FFEBA2" height="97.14286" id="7aec34f869d544629e76e61d2c1d5140-ao-21" stroke="#2D2D2D" width="165.71429" x="1226.85727" y="862.42847"/>
  <rect fill="#FFEBA2" height="74.28572" id="7aec34f869d544629e76e61d2c1d5140-ao-22" stroke="#2D2D2D" width="131.42858" x="1252.57156" y="970.9999"/>
  <rect fill="#FFEBA2" height="94.28572" id="7aec34f869d544629e76e61d2c1d5140-ao-23" stroke="#2D2D2D" width="131.42858" x="146.85722" y="973.85705"/>
  
  <rect fill="#FFEBA2" height="34.28572" id="7aec34f869d544629e76e61d2c1d5140-ao-25" stroke="#2D2D2D" width="240.00001" x="144.00008" y="1170.99991"/>
  <rect fill="#FFEBA2" height="94.28572" id="7aec34f869d544629e76e61d2c1d5140-ao-26" stroke="#2D2D2D" width="122.85715" x="1281.14299" y="1142.42848"/>
  <rect fill="#FFEBA2" height="28.57143" id="7aec34f869d544629e76e61d2c1d5140-ao-27" stroke="#2D2D2D" width="180.00001" x="209.71436" y="1219.57134"/>
  <rect fill="#FFEBA2" height="71.42857" id="7aec34f869d544629e76e61d2c1d5140-ao-28" stroke="#2D2D2D" width="142.85715" x="1238.28584" y="1250.99992"/>
  <rect fill="#FFEBA2" height="31.42857" id="7aec34f869d544629e76e61d2c1d5140-ao-29" stroke="#2D2D2D" width="240.00001" x="169.71436" y="1262.42849"/>
  <rect fill="#FFEBA2" height="31.42857" id="7aec34f869d544629e76e61d2c1d5140-ao-30" stroke="#2D2D2D" width="297.14287" x="144.00008" y="1305.28563"/>
  <rect fill="#FFEBA2" height="48.57143" id="7aec34f869d544629e76e61d2c1d5140-ao-31" stroke="#2D2D2D" width="248.57144" x="238.28579" y="1350.99992"/>
  <rect fill="#FFEBA2" height="31.42857" id="7aec34f869d544629e76e61d2c1d5140-ao-32" stroke="#2D2D2D" width="145.71429" x="395.42866" y="1416.71421"/>
  <rect fill="#FFEBA2" height="28.57143" id="7aec34f869d544629e76e61d2c1d5140-ao-33" stroke="#2D2D2D" width="125.71429" x="438.2858" y="1462.4285"/>
  <rect fill="#FFEBA2" height="28.57143" id="7aec34f869d544629e76e61d2c1d5140-ao-34" stroke="#2D2D2D" width="160.00001" x="466.85723" y="1502.4285"/>
  <rect fill="#FFEBA2" height="77.14286" id="7aec34f869d544629e76e61d2c1d5140-ao-35" stroke="#2D2D2D" width="385.7143" x="952.57154" y="1430.99993"/>
 </g>
</svg>