<svg height="1024" width="1020" xmlns="http://www.w3.org/2000/svg">
 <!-- Created with Image Occlusion Enhanced -->
 <g>
  <title>Labels</title>
 </g>
 <g>
  <title>Masks</title>
  <rect fill="#FFEBA2" height="32.5" id="7b053e88e2f345d6bb829616dc6bceff-ao-1" stroke="#2D2D2D" width="107.5" x="331.25" y="37.24998"/>
  <rect fill="#FFEBA2" height="27.5" id="7b053e88e2f345d6bb829616dc6bceff-ao-2" stroke="#2D2D2D" width="135" x="121.25" y="172.24998"/>
  <rect fill="#FFEBA2" height="25" id="7b053e88e2f345d6bb829616dc6bceff-ao-3" stroke="#2D2D2D" width="122.5" x="228.75" y="322.24998"/>
  <rect fill="#FFEBA2" height="25" id="7b053e88e2f345d6bb829616dc6bceff-ao-4" stroke="#2D2D2D" width="112.5" x="138.75" y="417.24998"/>
  <rect fill="#FFEBA2" height="25" id="7b053e88e2f345d6bb829616dc6bceff-ao-5" stroke="#2D2D2D" width="122.5" x="333.75" y="487.24998"/>
  <rect fill="#FFEBA2" height="50" id="7b053e88e2f345d6bb829616dc6bceff-ao-6" stroke="#2D2D2D" width="122.5" x="396.25" y="422.24998"/>
  <rect fill="#FFEBA2" height="25" id="7b053e88e2f345d6bb829616dc6bceff-ao-7" stroke="#2D2D2D" width="172.5" x="336.25" y="524.74998"/>
  <rect class="qshape" fill="#FF7E7E" height="25" id="7b053e88e2f345d6bb829616dc6bceff-ao-8" stroke="#2D2D2D" width="182.5" x="43.75" y="547.24998"/>
  <rect fill="#FFEBA2" height="22.5" id="7b053e88e2f345d6bb829616dc6bceff-ao-9" stroke="#2D2D2D" width="172.5" x="31.25" y="637.24998"/>
  <rect fill="#FFEBA2" height="25" id="7b053e88e2f345d6bb829616dc6bceff-ao-10" stroke="#2D2D2D" width="200" x="321.25" y="644.74998"/>
  <rect fill="#FFEBA2" height="27.5" id="7b053e88e2f345d6bb829616dc6bceff-ao-11" stroke="#2D2D2D" width="215" x="673.75" y="43.49998"/>
  <rect fill="#FFEBA2" height="25" id="7b053e88e2f345d6bb829616dc6bceff-ao-12" stroke="#2D2D2D" width="132.5" x="756.25" y="223.49998"/>
  <rect fill="#FFEBA2" height="67.5" id="7b053e88e2f345d6bb829616dc6bceff-ao-13" stroke="#2D2D2D" width="105" x="798.75" y="573.49998"/>
  <rect fill="#FFEBA2" height="72.5" id="7b053e88e2f345d6bb829616dc6bceff-ao-14" stroke="#2D2D2D" width="95" x="548.75" y="473.49998"/>
  <rect fill="#FFEBA2" height="50" id="7b053e88e2f345d6bb829616dc6bceff-ao-15" stroke="#2D2D2D" width="130" x="466.25" y="350.99998"/>
  <rect fill="#FFEBA2" height="32.5" id="7b053e88e2f345d6bb829616dc6bceff-ao-16" stroke="#2D2D2D" width="262.5" x="628.75" y="795.99998"/>
  <rect fill="#FFEBA2" height="32.5" id="7b053e88e2f345d6bb829616dc6bceff-ao-17" stroke="#2D2D2D" width="170" x="463.75" y="563.49998"/>
  <rect fill="#FFEBA2" height="30" id="7b053e88e2f345d6bb829616dc6bceff-ao-18" stroke="#2D2D2D" width="197.5" x="436.25" y="598.49998"/>
 </g>
</svg>