<svg height="1299" width="1535.9999999999998" xmlns="http://www.w3.org/2000/svg">
 <!-- Created with Image Occlusion Enhanced -->
 <g>
  <title>Labels</title>
 </g>
 <g>
  <title>Masks</title>
  <rect fill="#FFEBA2" height="28.57143" id="7ea0b741d664408da7c3a952d1223d88-ao-1" stroke="#2D2D2D" width="160.00001" x="822.57154" y="228.14286"/>
  <rect fill="#FFEBA2" height="28.57143" id="7ea0b741d664408da7c3a952d1223d88-ao-2" stroke="#2D2D2D" width="142.85715" x="931.14297" y="265.28572"/>
  <rect fill="#FFEBA2" height="28.57143" id="7ea0b741d664408da7c3a952d1223d88-ao-3" stroke="#2D2D2D" width="440.00002" x="322.57151" y="273.85715"/>
  <rect fill="#FFEBA2" height="25.71429" id="7ea0b741d664408da7c3a952d1223d88-ao-4" stroke="#2D2D2D" width="308.57144" x="1005.42869" y="302.42858"/>
  <rect fill="#FFEBA2" height="22.85714" id="7ea0b741d664408da7c3a952d1223d88-ao-5" stroke="#2D2D2D" width="305.7143" x="379.71437" y="311.00001"/>
  <rect fill="#FFEBA2" height="28.57143" id="7ea0b741d664408da7c3a952d1223d88-ao-6" stroke="#2D2D2D" width="234.28572" x="1108.28583" y="345.28573"/>
  <rect fill="#FFEBA2" height="28.57143" id="7ea0b741d664408da7c3a952d1223d88-ao-7" stroke="#2D2D2D" width="108.57143" x="334.00008" y="351.00001"/>
  <rect fill="#FFEBA2" height="28.57143" id="7ea0b741d664408da7c3a952d1223d88-ao-8" stroke="#2D2D2D" width="134.28572" x="1254.00013" y="388.14287"/>
  <rect fill="#FFEBA2" height="28.57143" id="7ea0b741d664408da7c3a952d1223d88-ao-9" stroke="#2D2D2D" width="120.00001" x="202.57151" y="462.42859"/>
  <rect fill="#FFEBA2" height="51.42857" id="7ea0b741d664408da7c3a952d1223d88-ao-10" stroke="#2D2D2D" width="154.28572" x="1259.71441" y="471.00002"/>
  <rect fill="#FFEBA2" height="28.57143" id="7ea0b741d664408da7c3a952d1223d88-ao-11" stroke="#2D2D2D" width="157.14286" x="1268.28584" y="542.42859"/>
  <rect fill="#FFEBA2" height="31.42857" id="7ea0b741d664408da7c3a952d1223d88-ao-12" stroke="#2D2D2D" width="185.71429" x="111.14293" y="542.42859"/>
  <rect fill="#FFEBA2" height="31.42857" id="7ea0b741d664408da7c3a952d1223d88-ao-13" stroke="#2D2D2D" width="174.28572" x="111.14293" y="628.14288"/>
  <rect fill="#FFEBA2" height="28.57143" id="7ea0b741d664408da7c3a952d1223d88-ao-14" stroke="#2D2D2D" width="128.57143" x="1299.71441" y="653.85717"/>
  <rect fill="#FFEBA2" height="51.42857" id="7ea0b741d664408da7c3a952d1223d88-ao-15" stroke="#2D2D2D" width="154.28572" x="108.28579" y="711.00003"/>
  <rect fill="#FFEBA2" height="77.14286" id="7ea0b741d664408da7c3a952d1223d88-ao-16" stroke="#2D2D2D" width="154.28572" x="1282.57156" y="733.85717"/>
  <rect fill="#FFEBA2" height="51.42857" id="7ea0b741d664408da7c3a952d1223d88-ao-17" stroke="#2D2D2D" width="134.28572" x="105.42865" y="782.4286"/>
  <rect fill="#FFEBA2" height="51.42857" id="7ea0b741d664408da7c3a952d1223d88-ao-18" stroke="#2D2D2D" width="102.85715" x="1328.28584" y="882.42861"/>
  <rect fill="#FFEBA2" height="71.42857" id="7ea0b741d664408da7c3a952d1223d88-ao-19" stroke="#2D2D2D" width="91.42858" x="111.14293" y="865.28575"/>
  <rect fill="#FFEBA2" height="25.71429" id="7ea0b741d664408da7c3a952d1223d88-ao-20" stroke="#2D2D2D" width="237.14287" x="1174.00012" y="1071.00005"/>
  <rect fill="#FFEBA2" height="25.71429" id="7ea0b741d664408da7c3a952d1223d88-ao-21" stroke="#2D2D2D" width="231.42858" x="294.00008" y="1085.28576"/>
  <rect fill="#FFEBA2" height="25.71429" id="7ea0b741d664408da7c3a952d1223d88-ao-22" stroke="#2D2D2D" width="248.57144" x="1005.42869" y="1102.42862"/>
  <rect fill="#FFEBA2" height="28.57143" id="7ea0b741d664408da7c3a952d1223d88-ao-23" stroke="#2D2D2D" width="268.57144" x="379.71437" y="1113.85719"/>
  <rect class="qshape" fill="#FF7E7E" height="22.85714" id="7ea0b741d664408da7c3a952d1223d88-ao-24" stroke="#2D2D2D" width="145.71429" x="948.28583" y="1131.00005"/>
  <rect fill="#FFEBA2" height="25.71429" id="7ea0b741d664408da7c3a952d1223d88-ao-25" stroke="#2D2D2D" width="140.00001" x="531.14295" y="1159.57148"/>
  <rect fill="#FFEBA2" height="28.57143" id="7ea0b741d664408da7c3a952d1223d88-ao-26" stroke="#2D2D2D" width="168.57144" x="865.42868" y="1153.85719"/>
  <rect fill="#FFEBA2" height="28.57143" id="7ea0b741d664408da7c3a952d1223d88-ao-27" stroke="#2D2D2D" width="137.14286" x="805.42868" y="1185.28576"/>
  <rect fill="#FFEBA2" height="28.57143" id="7ea0b741d664408da7c3a952d1223d88-ao-28" stroke="#2D2D2D" width="251.42858" x="431.14295" y="1196.71434"/>
  <rect fill="#FFEBA2" height="22.85714" id="7ea0b741d664408da7c3a952d1223d88-ao-29" stroke="#2D2D2D" width="182.85715" x="782.57153" y="1222.42862"/>
  <rect fill="#FFEBA2" height="25.71429" id="7ea0b741d664408da7c3a952d1223d88-ao-30" stroke="#2D2D2D" width="122.85715" x="591.14295" y="1245.28577"/>
  <rect fill="#FFEBA2" height="28.57143" id="7ea0b741d664408da7c3a952d1223d88-ao-31" stroke="#2D2D2D" width="105.71429" x="734.0001" y="1251.00005"/>
 </g>
</svg>