<svg height="782" width="959" xmlns="http://www.w3.org/2000/svg">
 <!-- Created with Image Occlusion Enhanced -->
 <g>
  <title>Labels</title>
 </g>
 <g>
  <title>Masks</title>
  <rect fill="#FFEBA2" height="26" id="7ec8f4b7de3942f8b148990d784acdeb-ao-1" stroke="#2D2D2D" width="338" x="140" y="177"/>
  <rect fill="#FFEBA2" height="28" id="7ec8f4b7de3942f8b148990d784acdeb-ao-2" stroke="#2D2D2D" width="138" x="324" y="213"/>
  <rect fill="#FFEBA2" height="26" id="7ec8f4b7de3942f8b148990d784acdeb-ao-3" stroke="#2D2D2D" width="66" x="774" y="241"/>
  <rect fill="#FFEBA2" height="28" id="7ec8f4b7de3942f8b148990d784acdeb-ao-4" stroke="#2D2D2D" width="388" x="58" y="249"/>
  <rect fill="#FFEBA2" height="26" id="7ec8f4b7de3942f8b148990d784acdeb-ao-5" stroke="#2D2D2D" width="258" x="152" y="285"/>
  <rect fill="#FFEBA2" height="24" id="7ec8f4b7de3942f8b148990d784acdeb-ao-6" stroke="#2D2D2D" width="180" x="752" y="285"/>
  <rect fill="#FFEBA2" height="28" id="7ec8f4b7de3942f8b148990d784acdeb-ao-7" stroke="#2D2D2D" width="370" x="36" y="323"/>
  <rect fill="#FFEBA2" height="26" id="7ec8f4b7de3942f8b148990d784acdeb-ao-8" stroke="#2D2D2D" width="198" x="754" y="325"/>
  <rect fill="#FFEBA2" height="26" id="7ec8f4b7de3942f8b148990d784acdeb-ao-9" stroke="#2D2D2D" width="140" x="256" y="361"/>
  <rect fill="#FFEBA2" height="26" id="7ec8f4b7de3942f8b148990d784acdeb-ao-10" stroke="#2D2D2D" width="80" x="750" y="369"/>
  <rect fill="#FFEBA2" height="24" id="7ec8f4b7de3942f8b148990d784acdeb-ao-11" stroke="#2D2D2D" width="248" x="132" y="401"/>
  <rect fill="#FFEBA2" height="24" id="7ec8f4b7de3942f8b148990d784acdeb-ao-12" stroke="#2D2D2D" width="52" x="752" y="409"/>
  <rect fill="#FFEBA2" height="28" id="7ec8f4b7de3942f8b148990d784acdeb-ao-13" stroke="#2D2D2D" width="170" x="204" y="435"/>
  
  <rect fill="#FFEBA2" height="24" id="7ec8f4b7de3942f8b148990d784acdeb-ao-15" stroke="#2D2D2D" width="142" x="242" y="475"/>
  <rect fill="#FFEBA2" height="24" id="7ec8f4b7de3942f8b148990d784acdeb-ao-16" stroke="#2D2D2D" width="236" x="172" y="513"/>
  <rect fill="#FFEBA2" height="22" id="7ec8f4b7de3942f8b148990d784acdeb-ao-17" stroke="#2D2D2D" width="36" x="754" y="497"/>
  <rect fill="#FFEBA2" height="24" id="7ec8f4b7de3942f8b148990d784acdeb-ao-18" stroke="#2D2D2D" width="132" x="282" y="547"/>
  <rect fill="#FFEBA2" height="28" id="7ec8f4b7de3942f8b148990d784acdeb-ao-19" stroke="#2D2D2D" width="174" x="754" y="537"/>
  <rect fill="#FFEBA2" height="26" id="7ec8f4b7de3942f8b148990d784acdeb-ao-20" stroke="#2D2D2D" stroke-dasharray="null" stroke-linecap="null" stroke-linejoin="null" width="374" x="62" y="583"/>
  <rect fill="#FFEBA2" height="24" id="7ec8f4b7de3942f8b148990d784acdeb-ao-21" stroke="#2D2D2D" stroke-dasharray="null" stroke-linecap="null" stroke-linejoin="null" width="246" x="204" y="621"/>
  <rect fill="#FFEBA2" height="22" id="7ec8f4b7de3942f8b148990d784acdeb-ao-22" stroke="#2D2D2D" stroke-dasharray="null" stroke-linecap="null" stroke-linejoin="null" width="140" x="330" y="661"/>
 </g>
</svg>