<svg height="689" width="1188" xmlns="http://www.w3.org/2000/svg">
 <!-- Created with Image Occlusion Enhanced -->
 <g>
  <title>Labels</title>
 </g>
 <g>
  <title>Masks</title>
  <rect fill="#FFEBA2" height="27.5" id="7f1b55c673b54478a4b0b6e41644b257-ao-1" stroke="#2D2D2D" width="127.5" x="851.99995" y="50.99998"/>
  <rect fill="#FFEBA2" height="25" id="7f1b55c673b54478a4b0b6e41644b257-ao-2" stroke="#2D2D2D" width="217.5" x="84.49997" y="55.99998"/>
  <rect fill="#FFEBA2" height="25" id="7f1b55c673b54478a4b0b6e41644b257-ao-3" stroke="#2D2D2D" width="207.5" x="64.49997" y="95.99998"/>
  <rect fill="#FFEBA2" height="32.5" id="7f1b55c673b54478a4b0b6e41644b257-ao-4" stroke="#2D2D2D" width="287.49999" x="884.49995" y="103.49998"/>
  <rect fill="#FFEBA2" height="45" id="7f1b55c673b54478a4b0b6e41644b257-ao-5" stroke="#2D2D2D" width="182.5" x="66.99997" y="138.49998"/>
  <rect fill="#FFEBA2" height="25" id="7f1b55c673b54478a4b0b6e41644b257-ao-6" stroke="#2D2D2D" width="182.5" x="901.99995" y="155.99998"/>
  <rect fill="#FFEBA2" height="42.5" id="7f1b55c673b54478a4b0b6e41644b257-ao-7" stroke="#2D2D2D" width="155" x="101.99997" y="188.49998"/>
  <rect fill="#FFEBA2" height="47.5" id="7f1b55c673b54478a4b0b6e41644b257-ao-8" stroke="#2D2D2D" width="150" x="919.49995" y="208.49998"/>
  <rect fill="#FFEBA2" height="22.5" id="7f1b55c673b54478a4b0b6e41644b257-ao-9" stroke="#2D2D2D" width="107.5" x="124.49996" y="253.49998"/>
  <rect fill="#FFEBA2" height="27.5" id="7f1b55c673b54478a4b0b6e41644b257-ao-10" stroke="#2D2D2D" width="125" x="944.49995" y="280.99998"/>
  <rect fill="#FFEBA2" height="47.5" id="7f1b55c673b54478a4b0b6e41644b257-ao-11" stroke="#2D2D2D" width="152.5" x="71.99997" y="295.99998"/>
  <rect fill="#FFEBA2" height="27.5" id="7f1b55c673b54478a4b0b6e41644b257-ao-12" stroke="#2D2D2D" width="167.5" x="946.99995" y="333.49998"/>
  <rect fill="#FFEBA2" height="25" id="7f1b55c673b54478a4b0b6e41644b257-ao-13" stroke="#2D2D2D" width="200" x="26.99997" y="360.99998"/>
  <rect fill="#FFEBA2" height="67.5" id="7f1b55c673b54478a4b0b6e41644b257-ao-14" stroke="#2D2D2D" width="140" x="56.99997" y="405.99998"/>
  <rect fill="#FFEBA2" height="52.5" id="7f1b55c673b54478a4b0b6e41644b257-ao-15" stroke="#2D2D2D" width="150" x="936.99995" y="405.99998"/>
  <rect fill="#FFEBA2" height="25" id="7f1b55c673b54478a4b0b6e41644b257-ao-16" stroke="#2D2D2D" width="147.5" x="76.99997" y="493.49997"/>
  
  <rect fill="#FFEBA2" height="25" id="7f1b55c673b54478a4b0b6e41644b257-ao-18" stroke="#2D2D2D" width="122.5" x="109.49996" y="538.49997"/>
  <rect fill="#FFEBA2" height="27.5" id="7f1b55c673b54478a4b0b6e41644b257-ao-19" stroke="#2D2D2D" width="137.5" x="901.99995" y="533.49997"/>
 </g>
</svg>