<svg height="1560.9999999999998" width="1535.9999999999998" xmlns="http://www.w3.org/2000/svg">
 <!-- Created with Image Occlusion Enhanced -->
 <g>
  <title>Labels</title>
 </g>
 <g>
  <title>Masks</title>
  <rect fill="#FFEBA2" height="28.57143" id="8017ca7581ef4bcdb15a13f2e7dedb11-ao-1" stroke="#2D2D2D" width="131.42858" x="1121.14298" y="63.28579"/>
  <rect fill="#FFEBA2" height="22.85714" id="8017ca7581ef4bcdb15a13f2e7dedb11-ao-2" stroke="#2D2D2D" width="171.42858" x="1118.28583" y="111.85722"/>
  <rect fill="#FFEBA2" height="28.57143" id="8017ca7581ef4bcdb15a13f2e7dedb11-ao-3" stroke="#2D2D2D" width="162.85715" x="1121.14298" y="154.71436"/>
  <rect fill="#FFEBA2" height="25.71429" id="8017ca7581ef4bcdb15a13f2e7dedb11-ao-4" stroke="#2D2D2D" width="165.71429" x="1121.14298" y="206.14294"/>
  <rect fill="#FFEBA2" height="25.71429" id="8017ca7581ef4bcdb15a13f2e7dedb11-ao-5" stroke="#2D2D2D" width="74.28572" x="1118.28583" y="251.85722"/>
  <rect fill="#FFEBA2" height="51.42857" id="8017ca7581ef4bcdb15a13f2e7dedb11-ao-6" stroke="#2D2D2D" width="171.42858" x="1169.71441" y="300.42865"/>
  <rect fill="#FFEBA2" height="25.71429" id="8017ca7581ef4bcdb15a13f2e7dedb11-ao-7" stroke="#2D2D2D" width="211.42858" x="1166.85727" y="374.71437"/>
  <rect fill="#FFEBA2" height="28.57143" id="8017ca7581ef4bcdb15a13f2e7dedb11-ao-8" stroke="#2D2D2D" width="197.14287" x="1166.85727" y="420.42866"/>
  <rect fill="#FFEBA2" height="28.57143" id="8017ca7581ef4bcdb15a13f2e7dedb11-ao-9" stroke="#2D2D2D" width="191.42858" x="1169.71441" y="469.00009"/>
  <rect fill="#FFEBA2" height="48.57143" id="8017ca7581ef4bcdb15a13f2e7dedb11-ao-10" stroke="#2D2D2D" width="157.14286" x="1164.00012" y="517.57152"/>
  <rect fill="#FFEBA2" height="48.57143" id="8017ca7581ef4bcdb15a13f2e7dedb11-ao-11" stroke="#2D2D2D" width="177.14287" x="1169.71441" y="589.0001"/>
  <rect fill="#FFEBA2" height="45.71429" id="8017ca7581ef4bcdb15a13f2e7dedb11-ao-12" stroke="#2D2D2D" width="162.85715" x="1172.57155" y="663.28581"/>
  <rect class="qshape" fill="#FF7E7E" height="45.71429" id="8017ca7581ef4bcdb15a13f2e7dedb11-ao-13" stroke="#2D2D2D" width="140.00001" x="1166.85727" y="731.85725"/>
  <rect fill="#FFEBA2" height="51.42857" id="8017ca7581ef4bcdb15a13f2e7dedb11-ao-14" stroke="#2D2D2D" width="180.00001" x="1169.71441" y="803.28582"/>
  <rect fill="#FFEBA2" height="48.57143" id="8017ca7581ef4bcdb15a13f2e7dedb11-ao-15" stroke="#2D2D2D" width="102.85715" x="1224.00013" y="871.85725"/>
  <rect fill="#FFEBA2" height="137.14286" id="8017ca7581ef4bcdb15a13f2e7dedb11-ao-16" stroke="#2D2D2D" width="188.57144" x="1221.14298" y="946.14297"/>
  <rect fill="#FFEBA2" height="65.71429" id="8017ca7581ef4bcdb15a13f2e7dedb11-ao-17" stroke="#2D2D2D" width="140.00001" x="1224.00013" y="1109.00012"/>
  <rect fill="#FFEBA2" height="51.42857" id="8017ca7581ef4bcdb15a13f2e7dedb11-ao-18" stroke="#2D2D2D" width="145.71429" x="1221.14298" y="1197.57155"/>
  <rect fill="#FFEBA2" height="145.71429" id="8017ca7581ef4bcdb15a13f2e7dedb11-ao-19" stroke="#2D2D2D" width="174.28572" x="1221.14298" y="1269.00013"/>
 </g>
</svg>