<svg height="1539" width="1535.9999999999998" xmlns="http://www.w3.org/2000/svg">
 <!-- Created with Image Occlusion Enhanced -->
 <g>
  <title>Labels</title>
 </g>
 <g>
  <title>Masks</title>
  <rect fill="#FFEBA2" height="25.71429" id="801a97d018ab4d72b141cf6d62edfcc1-ao-1" stroke="#2D2D2D" width="340.00002" x="429.71437" y="16.71415"/>
  <rect fill="#FFEBA2" height="28.57143" id="801a97d018ab4d72b141cf6d62edfcc1-ao-2" stroke="#2D2D2D" width="345.7143" x="852.57154" y="10.99986"/>
  <rect fill="#FFEBA2" height="25.71429" id="801a97d018ab4d72b141cf6d62edfcc1-ao-3" stroke="#2D2D2D" width="354.28573" x="358.2858" y="56.71415"/>
  <rect fill="#FFEBA2" height="28.57143" id="801a97d018ab4d72b141cf6d62edfcc1-ao-4" stroke="#2D2D2D" width="388.57145" x="884.00011" y="56.71415"/>
  <rect fill="#FFEBA2" height="25.71429" id="801a97d018ab4d72b141cf6d62edfcc1-ao-5" stroke="#2D2D2D" width="265.7143" x="395.42866" y="96.71415"/>
  <rect fill="#FFEBA2" height="25.71429" id="801a97d018ab4d72b141cf6d62edfcc1-ao-6" stroke="#2D2D2D" width="182.85715" x="912.57154" y="110.99987"/>
  <rect fill="#FFEBA2" height="22.85714" id="801a97d018ab4d72b141cf6d62edfcc1-ao-7" stroke="#2D2D2D" width="222.85715" x="404.00009" y="142.42844"/>
  
  <rect fill="#FFEBA2" height="25.71429" id="801a97d018ab4d72b141cf6d62edfcc1-ao-9" stroke="#2D2D2D" width="325.7143" x="266.85722" y="182.42844"/>
  <rect fill="#FFEBA2" height="28.57143" id="801a97d018ab4d72b141cf6d62edfcc1-ao-10" stroke="#2D2D2D" width="322.85716" x="241.14294" y="225.28558"/>
  <rect fill="#FFEBA2" height="31.42857" id="801a97d018ab4d72b141cf6d62edfcc1-ao-11" stroke="#2D2D2D" width="262.85715" x="949.7144" y="233.85701"/>
  <rect fill="#FFEBA2" height="28.57143" id="801a97d018ab4d72b141cf6d62edfcc1-ao-12" stroke="#2D2D2D" width="305.7143" x="221.14294" y="268.14273"/>
  <rect fill="#FFEBA2" height="31.42857" id="801a97d018ab4d72b141cf6d62edfcc1-ao-13" stroke="#2D2D2D" width="302.85716" x="978.28583" y="285.28559"/>
  <rect fill="#FFEBA2" height="25.71429" id="801a97d018ab4d72b141cf6d62edfcc1-ao-14" stroke="#2D2D2D" width="165.71429" x="258.2858" y="322.42845"/>
  <rect fill="#FFEBA2" height="48.57143" id="801a97d018ab4d72b141cf6d62edfcc1-ao-15" stroke="#2D2D2D" width="171.42858" x="1086.85726" y="336.71416"/>
  <rect fill="#FFEBA2" height="48.57143" id="801a97d018ab4d72b141cf6d62edfcc1-ao-16" stroke="#2D2D2D" width="165.71429" x="204.00008" y="368.14273"/>
  <rect fill="#FFEBA2" height="28.57143" id="801a97d018ab4d72b141cf6d62edfcc1-ao-17" stroke="#2D2D2D" width="188.57144" x="1166.85727" y="399.57131"/>
  <rect fill="#FFEBA2" height="77.14286" id="801a97d018ab4d72b141cf6d62edfcc1-ao-18" stroke="#2D2D2D" width="142.85715" x="149.71436" y="439.57131"/>
  <rect fill="#FFEBA2" height="74.28572" id="801a97d018ab4d72b141cf6d62edfcc1-ao-19" stroke="#2D2D2D" width="120.00001" x="1229.71441" y="453.85702"/>
  <rect fill="#FFEBA2" height="28.57143" id="801a97d018ab4d72b141cf6d62edfcc1-ao-20" stroke="#2D2D2D" width="205.7143" x="1144.00012" y="1188.14277"/>
  <rect fill="#FFEBA2" height="31.42857" id="801a97d018ab4d72b141cf6d62edfcc1-ao-21" stroke="#2D2D2D" width="82.85715" x="1101.14298" y="1230.99992"/>
  <rect fill="#FFEBA2" height="22.85714" id="801a97d018ab4d72b141cf6d62edfcc1-ao-22" stroke="#2D2D2D" width="240.00001" x="1058.28583" y="1282.42849"/>
  <rect fill="#FFEBA2" height="25.71429" id="801a97d018ab4d72b141cf6d62edfcc1-ao-23" stroke="#2D2D2D" width="360.00002" x="1029.7144" y="1319.57135"/>
  <rect fill="#FFEBA2" height="28.57143" id="801a97d018ab4d72b141cf6d62edfcc1-ao-24" stroke="#2D2D2D" width="228.57144" x="992.57154" y="1353.85706"/>
  <rect fill="#FFEBA2" height="48.57143" id="801a97d018ab4d72b141cf6d62edfcc1-ao-25" stroke="#2D2D2D" width="174.28572" x="152.57151" y="1348.14278"/>
  <rect fill="#FFEBA2" height="28.57143" id="801a97d018ab4d72b141cf6d62edfcc1-ao-26" stroke="#2D2D2D" width="322.85716" x="938.28583" y="1393.85707"/>
  <rect fill="#FFEBA2" height="22.85714" id="801a97d018ab4d72b141cf6d62edfcc1-ao-27" stroke="#2D2D2D" width="185.71429" x="229.71437" y="1422.4285"/>
  <rect fill="#FFEBA2" height="22.85714" id="801a97d018ab4d72b141cf6d62edfcc1-ao-28" stroke="#2D2D2D" width="120.00001" x="686.85724" y="1456.71421"/>
  <rect fill="#FFEBA2" height="25.71429" id="801a97d018ab4d72b141cf6d62edfcc1-ao-29" stroke="#2D2D2D" width="242.85715" x="918.28583" y="1462.4285"/>
  <rect fill="#FFEBA2" height="28.57143" id="801a97d018ab4d72b141cf6d62edfcc1-ao-30" stroke="#2D2D2D" width="177.14287" x="318.2858" y="1459.57136"/>
  <rect fill="#FFEBA2" height="25.71429" id="801a97d018ab4d72b141cf6d62edfcc1-ao-31" stroke="#2D2D2D" width="120.00001" x="464.00009" y="1488.14279"/>
  <rect fill="#FFEBA2" height="25.71429" id="801a97d018ab4d72b141cf6d62edfcc1-ao-32" stroke="#2D2D2D" width="180.00001" x="858.28582" y="1488.14279"/>
  <rect fill="#FFEBA2" height="22.85714" id="801a97d018ab4d72b141cf6d62edfcc1-ao-33" stroke="#2D2D2D" width="28.57143" x="761.14296" y="1010.99991"/>
  <rect fill="#FFEBA2" height="25.71429" id="801a97d018ab4d72b141cf6d62edfcc1-ao-34" stroke="#2D2D2D" width="28.57143" x="758.28582" y="1059.57134"/>
  <rect fill="#FFEBA2" height="28.57143" id="801a97d018ab4d72b141cf6d62edfcc1-ao-35" stroke="#2D2D2D" width="28.57143" x="758.28582" y="1110.99991"/>
  <rect fill="#FFEBA2" height="28.57143" id="801a97d018ab4d72b141cf6d62edfcc1-ao-36" stroke="#2D2D2D" width="31.42857" x="758.28582" y="1173.85706"/>
 </g>
</svg>