<svg height="580" width="1271" xmlns="http://www.w3.org/2000/svg">
 <!-- Created with Image Occlusion Enhanced -->
 <g>
  <title>Labels</title>
 </g>
 <g>
  <title>Masks</title>
  <rect fill="#FFEBA2" height="25.71429" id="8053d59e61b64c479a8106d5ba858ef0-ao-1" stroke="#2D2D2D" width="225.71429" x="258.99997" y="81.42857"/>
  <rect fill="#FFEBA2" height="28.57143" id="8053d59e61b64c479a8106d5ba858ef0-ao-2" stroke="#2D2D2D" width="305.71429" x="864.71426" y="72.85714"/>
  <rect fill="#FFEBA2" height="31.42857" id="8053d59e61b64c479a8106d5ba858ef0-ao-3" stroke="#2D2D2D" width="131.42857" x="884.71426" y="115.71429"/>
  <rect class="qshape" fill="#FF7E7E" height="28.57143" id="8053d59e61b64c479a8106d5ba858ef0-ao-4" stroke="#2D2D2D" width="197.14286" x="244.71426" y="135.71429"/>
  <rect fill="#FFEBA2" height="28.57143" id="8053d59e61b64c479a8106d5ba858ef0-ao-5" stroke="#2D2D2D" width="160" x="904.71426" y="167.14286"/>
  <rect fill="#FFEBA2" height="28.57143" id="8053d59e61b64c479a8106d5ba858ef0-ao-6" stroke="#2D2D2D" width="208.57143" x="178.99997" y="187.14286"/>
  <rect fill="#FFEBA2" height="48.57143" id="8053d59e61b64c479a8106d5ba858ef0-ao-7" stroke="#2D2D2D" width="242.85714" x="916.14283" y="212.85714"/>
  <rect fill="#FFEBA2" height="48.57143" id="8053d59e61b64c479a8106d5ba858ef0-ao-8" stroke="#2D2D2D" width="317.14286" x="938.99997" y="278.57143"/>
  <rect fill="#FFEBA2" height="28.57143" id="8053d59e61b64c479a8106d5ba858ef0-ao-9" stroke="#2D2D2D" width="214.28571" x="104.71426" y="301.42857"/>
  <rect fill="#FFEBA2" height="45.71429" id="8053d59e61b64c479a8106d5ba858ef0-ao-10" stroke="#2D2D2D" width="314.28571" x="913.28569" y="350"/>
  <rect fill="#FFEBA2" height="28.57143" id="8053d59e61b64c479a8106d5ba858ef0-ao-11" stroke="#2D2D2D" width="260" x="67.5714" y="355.71429"/>
  <rect fill="#FFEBA2" height="28.57143" id="8053d59e61b64c479a8106d5ba858ef0-ao-12" stroke="#2D2D2D" width="305.71429" x="76.14283" y="410"/>
  <rect fill="#FFEBA2" height="48.57143" id="8053d59e61b64c479a8106d5ba858ef0-ao-13" stroke="#2D2D2D" width="214.28571" x="887.5714" y="418.57143"/>
  <rect fill="#FFEBA2" height="25.71429" id="8053d59e61b64c479a8106d5ba858ef0-ao-14" stroke="#2D2D2D" width="257.14286" x="144.71426" y="467.14286"/>
  <rect fill="#FFEBA2" height="28.57143" id="8053d59e61b64c479a8106d5ba858ef0-ao-15" stroke="#2D2D2D" width="248.57143" x="844.71426" y="487.14286"/>
  <rect fill="#FFEBA2" height="28.57143" id="8053d59e61b64c479a8106d5ba858ef0-ao-16" stroke="#2D2D2D" width="128.57143" x="818.99997" y="532.85714"/>
  <rect fill="#FFEBA2" height="28.57143" id="8053d59e61b64c479a8106d5ba858ef0-ao-17" stroke="#2D2D2D" width="231.42857" x="198.99997" y="521.42857"/>
 </g>
</svg>