<svg height="1381" width="1535" xmlns="http://www.w3.org/2000/svg">
 <!-- Created with Image Occlusion Enhanced -->
 <g>
  <title>Labels</title>
 </g>
 <g>
  <title>Masks</title>
  <rect fill="#FFEBA2" height="94.28571" id="80dd770dd3094a8e8ba339816a2dd0c7-ao-1" stroke="#2D2D2D" width="274.28571" x="206.42857" y="20.42855"/>
  <rect fill="#FFEBA2" height="28.57143" id="80dd770dd3094a8e8ba339816a2dd0c7-ao-2" stroke="#2D2D2D" width="80" x="595" y="23.28569"/>
  <rect fill="#FFEBA2" height="28.57143" id="80dd770dd3094a8e8ba339816a2dd0c7-ao-3" stroke="#2D2D2D" width="294.28571" x="797.85714" y="20.42855"/>
  <rect fill="#FFEBA2" height="31.42857" id="80dd770dd3094a8e8ba339816a2dd0c7-ao-4" stroke="#2D2D2D" width="240" x="1092.14286" y="77.5714"/>
  <rect fill="#FFEBA2" height="31.42857" id="80dd770dd3094a8e8ba339816a2dd0c7-ao-5" stroke="#2D2D2D" width="162.85714" x="1152.14286" y="140.42855"/>
  <rect fill="#FFEBA2" height="54.28571" id="80dd770dd3094a8e8ba339816a2dd0c7-ao-6" stroke="#2D2D2D" width="248.57143" x="146.42857" y="157.5714"/>
  <rect fill="#FFEBA2" height="34.28571" id="80dd770dd3094a8e8ba339816a2dd0c7-ao-7" stroke="#2D2D2D" width="191.42857" x="1169.28571" y="200.42855"/>
  <rect fill="#FFEBA2" height="122.85714" id="80dd770dd3094a8e8ba339816a2dd0c7-ao-8" stroke="#2D2D2D" width="188.57143" x="149.28571" y="246.14283"/>
  <rect fill="#FFEBA2" height="54.28571" id="80dd770dd3094a8e8ba339816a2dd0c7-ao-9" stroke="#2D2D2D" width="182.85714" x="1209.28571" y="260.42855"/>
  <rect fill="#FFEBA2" height="77.14286" id="80dd770dd3094a8e8ba339816a2dd0c7-ao-10" stroke="#2D2D2D" width="194.28571" x="1226.42857" y="340.42855"/>
  <rect fill="#FFEBA2" height="48.57143" id="80dd770dd3094a8e8ba339816a2dd0c7-ao-11" stroke="#2D2D2D" width="111.42857" x="149.28571" y="403.28569"/>
  <rect fill="#FFEBA2" height="97.14286" id="80dd770dd3094a8e8ba339816a2dd0c7-ao-12" stroke="#2D2D2D" width="120" x="1277.85714" y="448.99997"/>
  <rect fill="#FFEBA2" height="51.42857" id="80dd770dd3094a8e8ba339816a2dd0c7-ao-13" stroke="#2D2D2D" width="105.71429" x="146.42857" y="491.85712"/>
  <rect fill="#FFEBA2" height="74.28571" id="80dd770dd3094a8e8ba339816a2dd0c7-ao-14" stroke="#2D2D2D" width="94.28571" x="146.42857" y="580.42855"/>
  <rect fill="#FFEBA2" height="54.28571" id="80dd770dd3094a8e8ba339816a2dd0c7-ao-15" stroke="#2D2D2D" width="85.71429" x="1300.71429" y="594.71426"/>
  <rect fill="#FFEBA2" height="74.28571" id="80dd770dd3094a8e8ba339816a2dd0c7-ao-16" stroke="#2D2D2D" width="94.28571" x="146.42857" y="691.85712"/>
  <rect fill="#FFEBA2" height="31.42857" id="80dd770dd3094a8e8ba339816a2dd0c7-ao-17" stroke="#2D2D2D" width="160" x="149.28571" y="968.99997"/>
  <rect fill="#FFEBA2" height="31.42857" id="80dd770dd3094a8e8ba339816a2dd0c7-ao-18" stroke="#2D2D2D" width="85.71429" x="712.14286" y="986.14283"/>
  <rect fill="#FFEBA2" height="54.28571" id="80dd770dd3094a8e8ba339816a2dd0c7-ao-19" stroke="#2D2D2D" width="120" x="1220.71429" y="988.99997"/>
  <rect fill="#FFEBA2" height="51.42857" id="80dd770dd3094a8e8ba339816a2dd0c7-ao-20" stroke="#2D2D2D" width="188.57143" x="1172.14286" y="1063.28569"/>
  
  <rect fill="#FFEBA2" height="28.57143" id="80dd770dd3094a8e8ba339816a2dd0c7-ao-22" stroke="#2D2D2D" width="188.57143" x="1115" y="1208.99997"/>
  <rect fill="#FFEBA2" height="31.42857" id="80dd770dd3094a8e8ba339816a2dd0c7-ao-23" stroke="#2D2D2D" width="285.71429" x="1083.57143" y="1257.5714"/>
  <rect fill="#FFEBA2" height="28.57143" id="80dd770dd3094a8e8ba339816a2dd0c7-ao-24" stroke="#2D2D2D" width="288.57143" x="1046.42857" y="1311.85712"/>
 </g>
</svg>