<svg height="1529" width="1525" xmlns="http://www.w3.org/2000/svg">
 <!-- Created with Image Occlusion Enhanced -->
 <g>
  <title>Labels</title>
 </g>
 <g>
  <title>Masks</title>
  <rect fill="#FFEBA2" height="28.57143" id="8122002af5f24c30b69610a5390cbfb7-ao-1" stroke="#2D2D2D" width="177.14286" x="710.71429" y="23.85704"/>
  <rect fill="#FFEBA2" height="25.71429" id="8122002af5f24c30b69610a5390cbfb7-ao-2" stroke="#2D2D2D" width="351.42857" x="290.71429" y="52.42847"/>
  <rect fill="#FFEBA2" height="28.57143" id="8122002af5f24c30b69610a5390cbfb7-ao-3" stroke="#2D2D2D" width="102.85714" x="767.85714" y="86.71418"/>
  <rect fill="#FFEBA2" height="25.71429" id="8122002af5f24c30b69610a5390cbfb7-ao-4" stroke="#2D2D2D" width="80" x="510.71429" y="95.28561"/>
  
  <rect fill="#FFEBA2" height="31.42857" id="8122002af5f24c30b69610a5390cbfb7-ao-6" stroke="#2D2D2D" width="391.42857" x="147.85714" y="140.9999"/>
  <rect fill="#FFEBA2" height="22.85714" id="8122002af5f24c30b69610a5390cbfb7-ao-7" stroke="#2D2D2D" width="117.14286" x="382.14286" y="186.71418"/>
  <rect fill="#FFEBA2" height="25.71429" id="8122002af5f24c30b69610a5390cbfb7-ao-8" stroke="#2D2D2D" width="291.42857" x="870.71429" y="212.42847"/>
  <rect fill="#FFEBA2" height="25.71429" id="8122002af5f24c30b69610a5390cbfb7-ao-9" stroke="#2D2D2D" width="125.71429" x="322.14286" y="238.14275"/>
  <rect fill="#FFEBA2" height="22.85714" id="8122002af5f24c30b69610a5390cbfb7-ao-10" stroke="#2D2D2D" width="111.42857" x="285" y="278.14275"/>
  <rect fill="#FFEBA2" height="25.71429" id="8122002af5f24c30b69610a5390cbfb7-ao-11" stroke="#2D2D2D" width="340" x="942.14286" y="275.28561"/>
  <rect fill="#FFEBA2" height="28.57143" id="8122002af5f24c30b69610a5390cbfb7-ao-12" stroke="#2D2D2D" width="108.57143" x="1036.42857" y="329.57132"/>
  <rect fill="#FFEBA2" height="71.42857" id="8122002af5f24c30b69610a5390cbfb7-ao-13" stroke="#2D2D2D" width="168.57143" x="156.42857" y="323.85704"/>
  <rect fill="#FFEBA2" height="28.57143" id="8122002af5f24c30b69610a5390cbfb7-ao-14" stroke="#2D2D2D" width="165.71429" x="1110.71429" y="392.42847"/>
  <rect fill="#FFEBA2" height="45.71429" id="8122002af5f24c30b69610a5390cbfb7-ao-15" stroke="#2D2D2D" width="128.57143" x="130.71429" y="420.9999"/>
  <rect fill="#FFEBA2" height="51.42857" id="8122002af5f24c30b69610a5390cbfb7-ao-16" stroke="#2D2D2D" width="165.71429" x="1250.71429" y="458.14275"/>
  <rect fill="#FFEBA2" height="48.57143" id="8122002af5f24c30b69610a5390cbfb7-ao-17" stroke="#2D2D2D" width="128.57143" x="1256.42857" y="540.9999"/>
  <rect fill="#FFEBA2" height="71.42857" id="8122002af5f24c30b69610a5390cbfb7-ao-18" stroke="#2D2D2D" width="122.85714" x="1259.28571" y="620.9999"/>
  <rect fill="#FFEBA2" height="51.42857" id="8122002af5f24c30b69610a5390cbfb7-ao-19" stroke="#2D2D2D" width="114.28571" x="1256.42857" y="729.57132"/>
  <rect fill="#FFEBA2" height="54.28571" id="8122002af5f24c30b69610a5390cbfb7-ao-20" stroke="#2D2D2D" width="105.71429" x="1256.42857" y="809.57132"/>
  <rect fill="#FFEBA2" height="85.71429" id="8122002af5f24c30b69610a5390cbfb7-ao-21" stroke="#2D2D2D" width="105.71429" x="133.57143" y="860.9999"/>
  <rect fill="#FFEBA2" height="51.42857" id="8122002af5f24c30b69610a5390cbfb7-ao-22" stroke="#2D2D2D" width="117.14286" x="1259.28571" y="892.42847"/>
  <rect fill="#FFEBA2" height="48.57143" id="8122002af5f24c30b69610a5390cbfb7-ao-23" stroke="#2D2D2D" width="185.71429" x="125" y="983.85704"/>
  <rect fill="#FFEBA2" height="51.42857" id="8122002af5f24c30b69610a5390cbfb7-ao-24" stroke="#2D2D2D" width="80" x="1253.57143" y="975.28561"/>
  <rect fill="#FFEBA2" height="45.71429" id="8122002af5f24c30b69610a5390cbfb7-ao-25" stroke="#2D2D2D" width="211.42857" x="122.14286" y="1080.9999"/>
  <rect fill="#FFEBA2" height="45.71429" id="8122002af5f24c30b69610a5390cbfb7-ao-26" stroke="#2D2D2D" width="180" x="1073.57143" y="1143.85704"/>
  <rect fill="#FFEBA2" height="88.57143" id="8122002af5f24c30b69610a5390cbfb7-ao-27" stroke="#2D2D2D" width="257.14286" x="142.14286" y="1166.71418"/>
  <rect fill="#FFEBA2" height="31.42857" id="8122002af5f24c30b69610a5390cbfb7-ao-28" stroke="#2D2D2D" width="220" x="1002.14286" y="1220.9999"/>
  <rect fill="#FFEBA2" height="28.57143" id="8122002af5f24c30b69610a5390cbfb7-ao-29" stroke="#2D2D2D" width="342.85714" x="959.28571" y="1283.85704"/>
  <rect fill="#FFEBA2" height="28.57143" id="8122002af5f24c30b69610a5390cbfb7-ao-30" stroke="#2D2D2D" width="317.14286" x="116.42857" y="1269.57132"/>
  <rect fill="#FFEBA2" height="31.42857" id="8122002af5f24c30b69610a5390cbfb7-ao-31" stroke="#2D2D2D" width="351.42857" x="839.28571" y="1340.9999"/>
  <rect fill="#FFEBA2" height="25.71429" id="8122002af5f24c30b69610a5390cbfb7-ao-32" stroke="#2D2D2D" stroke-dasharray="null" stroke-linecap="null" stroke-linejoin="null" width="222.85714" x="262.14286" y="1335.28561"/>
  <rect fill="#FFEBA2" height="31.42857" id="8122002af5f24c30b69610a5390cbfb7-ao-33" stroke="#2D2D2D" stroke-dasharray="null" stroke-linecap="null" stroke-linejoin="null" width="340" x="785" y="1398.14275"/>
  <rect fill="#FFEBA2" height="28.57143" id="8122002af5f24c30b69610a5390cbfb7-ao-34" stroke="#2D2D2D" stroke-dasharray="null" stroke-linecap="null" stroke-linejoin="null" width="282.85714" x="270.71429" y="1389.57132"/>
  <rect fill="#FFEBA2" height="57.14286" id="8122002af5f24c30b69610a5390cbfb7-ao-35" stroke="#2D2D2D" stroke-dasharray="null" stroke-linecap="null" stroke-linejoin="null" width="377.14286" x="687.85714" y="1455.28561"/>
 </g>
</svg>