<svg height="547" width="1288" xmlns="http://www.w3.org/2000/svg">
 <!-- Created with Image Occlusion Enhanced -->
 <g>
  <title>Labels</title>
 </g>
 <g>
  <title>Masks</title>
  <rect fill="#FFEBA2" height="27.5" id="81d8876872e94efbb81a4542043006e8-ao-1" stroke="#2D2D2D" width="157.5" x="26.99996" y="16.74999"/>
  <rect fill="#FFEBA2" height="22.5" id="81d8876872e94efbb81a4542043006e8-ao-2" stroke="#2D2D2D" width="182.5" x="1066.99995" y="14.24999"/>
  
  <rect fill="#FFEBA2" height="50" id="81d8876872e94efbb81a4542043006e8-ao-4" stroke="#2D2D2D" width="200" x="29.49996" y="69.24999"/>
  <rect fill="#FFEBA2" height="22.5" id="81d8876872e94efbb81a4542043006e8-ao-5" stroke="#2D2D2D" width="217.5" x="1066.99995" y="104.24999"/>
  <rect fill="#FFEBA2" height="42.5" id="81d8876872e94efbb81a4542043006e8-ao-6" stroke="#2D2D2D" width="190" x="31.99996" y="171.74999"/>
  <rect fill="#FFEBA2" height="47.5" id="81d8876872e94efbb81a4542043006e8-ao-7" stroke="#2D2D2D" width="282.5" x="981.99995" y="146.74999"/>
  <rect fill="#FFEBA2" height="25" id="81d8876872e94efbb81a4542043006e8-ao-8" stroke="#2D2D2D" width="337.5" x="909.49995" y="214.24999"/>
  <rect fill="#FFEBA2" height="27.5" id="81d8876872e94efbb81a4542043006e8-ao-9" stroke="#2D2D2D" width="250" x="29.49996" y="246.74999"/>
  <rect fill="#FFEBA2" height="25" id="81d8876872e94efbb81a4542043006e8-ao-10" stroke="#2D2D2D" width="242.5" x="909.49995" y="254.24999"/>
  <rect fill="#FFEBA2" height="27.5" id="81d8876872e94efbb81a4542043006e8-ao-11" stroke="#2D2D2D" width="152.5" x="31.99996" y="301.74999"/>
  <rect fill="#FFEBA2" height="25" id="81d8876872e94efbb81a4542043006e8-ao-12" stroke="#2D2D2D" width="145" x="911.99995" y="291.74999"/>
  <rect fill="#FFEBA2" height="22.5" id="81d8876872e94efbb81a4542043006e8-ao-13" stroke="#2D2D2D" width="307.5" x="29.49996" y="366.74999"/>
  <rect fill="#FFEBA2" height="22.5" id="81d8876872e94efbb81a4542043006e8-ao-14" stroke="#2D2D2D" width="167.5" x="909.49995" y="329.24999"/>
  <rect fill="#FFEBA2" height="25" id="81d8876872e94efbb81a4542043006e8-ao-15" stroke="#2D2D2D" width="260" x="914.49995" y="366.74999"/>
  <rect fill="#FFEBA2" height="25" id="81d8876872e94efbb81a4542043006e8-ao-16" stroke="#2D2D2D" width="265" x="29.49996" y="426.74999"/>
  <rect fill="#FFEBA2" height="45" id="81d8876872e94efbb81a4542043006e8-ao-17" stroke="#2D2D2D" width="272.5" x="909.49995" y="406.74999"/>
  <rect fill="#FFEBA2" height="22.5" id="81d8876872e94efbb81a4542043006e8-ao-18" stroke="#2D2D2D" width="187.5" x="29.49996" y="481.74999"/>
  <rect fill="#FFEBA2" height="25" id="81d8876872e94efbb81a4542043006e8-ao-19" stroke="#2D2D2D" width="280" x="911.99995" y="466.74999"/>
  <rect fill="#FFEBA2" height="27.5" id="81d8876872e94efbb81a4542043006e8-ao-20" stroke="#2D2D2D" stroke-dasharray="null" stroke-linecap="null" stroke-linejoin="null" width="295" x="909.49995" y="504.24999"/>
 </g>
</svg>