<svg height="1501.0000000000002" width="1535.9999999999998" xmlns="http://www.w3.org/2000/svg">
 <!-- Created with Image Occlusion Enhanced -->
 <g>
  <title>Labels</title>
 </g>
 <g>
  <title>Masks</title>
  <rect fill="#FFEBA2" height="25.71429" id="82933c0784594b208a6698bffd29f272-ao-1" stroke="#2D2D2D" width="54.28572" x="701.14296" y="223.28579"/>
  <rect fill="#FFEBA2" height="31.42857" id="82933c0784594b208a6698bffd29f272-ao-2" stroke="#2D2D2D" width="182.85715" x="472.57152" y="231.85722"/>
  <rect fill="#FFEBA2" height="25.71429" id="82933c0784594b208a6698bffd29f272-ao-3" stroke="#2D2D2D" width="102.85715" x="769.71439" y="229.00008"/>
  <rect class="qshape" fill="#FF7E7E" height="28.57143" id="82933c0784594b208a6698bffd29f272-ao-4" stroke="#2D2D2D" width="251.42858" x="352.57151" y="271.85723"/>
  <rect fill="#FFEBA2" height="25.71429" id="82933c0784594b208a6698bffd29f272-ao-5" stroke="#2D2D2D" width="245.7143" x="869.7144" y="257.57151"/>
  <rect fill="#FFEBA2" height="25.71429" id="82933c0784594b208a6698bffd29f272-ao-6" stroke="#2D2D2D" width="188.57144" x="349.71437" y="311.85723"/>
  <rect fill="#FFEBA2" height="25.71429" id="82933c0784594b208a6698bffd29f272-ao-7" stroke="#2D2D2D" width="162.85715" x="989.7144" y="297.57151"/>
  <rect fill="#FFEBA2" height="31.42857" id="82933c0784594b208a6698bffd29f272-ao-8" stroke="#2D2D2D" width="194.28572" x="278.2858" y="346.14294"/>
  <rect fill="#FFEBA2" height="28.57143" id="82933c0784594b208a6698bffd29f272-ao-9" stroke="#2D2D2D" width="254.28573" x="1038.28583" y="334.71437"/>
  <rect fill="#FFEBA2" height="28.57143" id="82933c0784594b208a6698bffd29f272-ao-10" stroke="#2D2D2D" width="262.85716" x="175.42865" y="383.2858"/>
  <rect fill="#FFEBA2" height="31.42857" id="82933c0784594b208a6698bffd29f272-ao-11" stroke="#2D2D2D" width="185.71429" x="1101.14298" y="377.57152"/>
  <rect fill="#FFEBA2" height="48.57143" id="82933c0784594b208a6698bffd29f272-ao-12" stroke="#2D2D2D" width="208.57144" x="221.14294" y="417.57152"/>
  <rect fill="#FFEBA2" height="51.42857" id="82933c0784594b208a6698bffd29f272-ao-13" stroke="#2D2D2D" width="194.28572" x="1169.71441" y="429.00009"/>
  <rect fill="#FFEBA2" height="25.71429" id="82933c0784594b208a6698bffd29f272-ao-14" stroke="#2D2D2D" width="191.42858" x="129.71436" y="477.57152"/>
  <rect fill="#FFEBA2" height="45.71429" id="82933c0784594b208a6698bffd29f272-ao-15" stroke="#2D2D2D" width="117.14286" x="1226.85727" y="486.14295"/>
  <rect fill="#FFEBA2" height="68.57143" id="82933c0784594b208a6698bffd29f272-ao-16" stroke="#2D2D2D" width="191.42858" x="135.42865" y="511.85724"/>
  <rect fill="#FFEBA2" height="31.42857" id="82933c0784594b208a6698bffd29f272-ao-17" stroke="#2D2D2D" width="91.42858" x="1258.28584" y="534.71438"/>
  <rect fill="#FFEBA2" height="48.57143" id="82933c0784594b208a6698bffd29f272-ao-18" stroke="#2D2D2D" width="128.57143" x="129.71436" y="597.57153"/>
  <rect fill="#FFEBA2" height="94.28572" id="82933c0784594b208a6698bffd29f272-ao-19" stroke="#2D2D2D" width="154.28572" x="1269.71441" y="586.14295"/>
  <rect fill="#FFEBA2" height="28.57143" id="82933c0784594b208a6698bffd29f272-ao-20" stroke="#2D2D2D" width="117.14286" x="129.71436" y="671.85724"/>
  <rect fill="#FFEBA2" height="100" id="82933c0784594b208a6698bffd29f272-ao-21" stroke="#2D2D2D" width="102.85715" x="129.71436" y="720.42867"/>
  <rect fill="#FFEBA2" height="31.42857" id="82933c0784594b208a6698bffd29f272-ao-22" stroke="#2D2D2D" width="74.28572" x="1326.85727" y="774.71439"/>
  <rect fill="#FFEBA2" height="74.28572" id="82933c0784594b208a6698bffd29f272-ao-23" stroke="#2D2D2D" width="88.57143" x="126.85722" y="829.00011"/>
  <rect fill="#FFEBA2" height="28.57143" id="82933c0784594b208a6698bffd29f272-ao-24" stroke="#2D2D2D" width="71.42857" x="1329.71442" y="846.14297"/>
  <rect fill="#FFEBA2" height="94.28572" id="82933c0784594b208a6698bffd29f272-ao-25" stroke="#2D2D2D" width="94.28572" x="132.5715" y="923.28583"/>
  <rect fill="#FFEBA2" height="91.42858" id="82933c0784594b208a6698bffd29f272-ao-26" stroke="#2D2D2D" width="148.57144" x="1289.71441" y="1037.57155"/>
  <rect fill="#FFEBA2" height="94.28572" id="82933c0784594b208a6698bffd29f272-ao-27" stroke="#2D2D2D" width="131.42858" x="129.71436" y="1051.85726"/>
  <rect fill="#FFEBA2" height="48.57143" id="82933c0784594b208a6698bffd29f272-ao-28" stroke="#2D2D2D" width="114.28572" x="1264.00013" y="1134.71441"/>
  <rect fill="#FFEBA2" height="54.28572" id="82933c0784594b208a6698bffd29f272-ao-29" stroke="#2D2D2D" width="182.85715" x="129.71436" y="1160.4287"/>
  <rect fill="#FFEBA2" height="71.42857" id="82933c0784594b208a6698bffd29f272-ao-30" stroke="#2D2D2D" width="202.85715" x="1215.4287" y="1189.00013"/>
  <rect fill="#FFEBA2" height="28.57143" id="82933c0784594b208a6698bffd29f272-ao-31" stroke="#2D2D2D" width="171.42858" x="184.00008" y="1217.57155"/>
  <rect fill="#FFEBA2" height="31.42857" id="82933c0784594b208a6698bffd29f272-ao-32" stroke="#2D2D2D" width="248.57144" x="152.5715" y="1249.00013"/>
  <rect fill="#FFEBA2" height="34.28572" id="82933c0784594b208a6698bffd29f272-ao-33" stroke="#2D2D2D" width="200.00001" x="1161.14298" y="1269.00013"/>
  <rect fill="#FFEBA2" height="31.42857" id="82933c0784594b208a6698bffd29f272-ao-34" stroke="#2D2D2D" width="328.57144" x="155.42865" y="1286.14299"/>
  <rect fill="#FFEBA2" height="31.42857" id="82933c0784594b208a6698bffd29f272-ao-35" stroke="#2D2D2D" width="117.14286" x="1109.71441" y="1311.85727"/>
  <rect fill="#FFEBA2" height="25.71429" id="82933c0784594b208a6698bffd29f272-ao-36" stroke="#2D2D2D" width="225.7143" x="312.57151" y="1317.57156"/>
  <rect fill="#FFEBA2" height="28.57143" id="82933c0784594b208a6698bffd29f272-ao-37" stroke="#2D2D2D" width="228.57144" x="1041.14297" y="1351.85728"/>
  <rect fill="#FFEBA2" height="25.71429" id="82933c0784594b208a6698bffd29f272-ao-38" stroke="#2D2D2D" width="117.14286" x="444.00009" y="1346.14299"/>
  <g id="82933c0784594b208a6698bffd29f272-ao-39">
   <rect fill="#FFEBA2" height="51.42857" stroke="#2D2D2D" width="137.14286" x="1109.71441" y="1397.57156"/>
   <rect fill="#FFEBA2" height="22.85714" stroke="#2D2D2D" width="105.71429" x="975.42869" y="1394.71442"/>
   <rect fill="#FFEBA2" height="22.85714" stroke="#2D2D2D" width="114.28573" x="975.42868" y="1417.57156"/>
   <rect fill="#FFEBA2" height="22.85714" stroke="#2D2D2D" stroke-dasharray="null" stroke-linecap="null" stroke-linejoin="null" width="77.14286" x="975.42869" y="1440.42871"/>
  </g>
  <rect fill="#FFEBA2" height="28.57143" id="82933c0784594b208a6698bffd29f272-ao-40" stroke="#2D2D2D" stroke-dasharray="null" stroke-linecap="null" stroke-linejoin="null" width="134.28572" x="449.71438" y="1374.71442"/>
  <rect fill="#FFEBA2" height="28.57143" id="82933c0784594b208a6698bffd29f272-ao-41" stroke="#2D2D2D" stroke-dasharray="null" stroke-linecap="null" stroke-linejoin="null" width="288.57144" x="364.00009" y="1406.14299"/>
  <rect fill="#FFEBA2" height="25.71429" id="82933c0784594b208a6698bffd29f272-ao-42" stroke="#2D2D2D" stroke-dasharray="null" stroke-linecap="null" stroke-linejoin="null" width="134.28572" x="564.0001" y="1434.71442"/>
  <rect fill="#FFEBA2" height="28.57143" id="82933c0784594b208a6698bffd29f272-ao-43" stroke="#2D2D2D" stroke-dasharray="null" stroke-linecap="null" stroke-linejoin="null" width="162.85715" x="604.0001" y="1471.85728"/>
  <rect fill="#FFEBA2" height="28.57143" id="82933c0784594b208a6698bffd29f272-ao-44" stroke="#2D2D2D" stroke-dasharray="null" stroke-linecap="null" stroke-linejoin="null" width="202.85715" x="806.85725" y="1469.00014"/>
 </g>
</svg>