<svg height="1609" width="1535.9999999999998" xmlns="http://www.w3.org/2000/svg">
 <!-- Created with Image Occlusion Enhanced -->
 <g>
  <title>Labels</title>
 </g>
 <g>
  <title>Masks</title>
  <rect class="qshape" fill="#FF7E7E" height="22.85714" id="856d5da38bde42da9c1399f9b5be9a12-ao-1" stroke="#2D2D2D" width="257.14287" x="526.85724" y="6.71414"/>
  <rect fill="#FFEBA2" height="22.85714" id="856d5da38bde42da9c1399f9b5be9a12-ao-2" stroke="#2D2D2D" width="277.14287" x="864.00011" y="6.71414"/>
  <rect fill="#FFEBA2" height="22.85714" id="856d5da38bde42da9c1399f9b5be9a12-ao-3" stroke="#2D2D2D" width="297.14287" x="426.85723" y="52.42843"/>
  <rect fill="#FFEBA2" height="25.71429" id="856d5da38bde42da9c1399f9b5be9a12-ao-4" stroke="#2D2D2D" width="228.57144" x="901.14297" y="43.857"/>
  <rect fill="#FFEBA2" height="25.71429" id="856d5da38bde42da9c1399f9b5be9a12-ao-5" stroke="#2D2D2D" width="351.42859" x="289.71437" y="103.85701"/>
  <rect fill="#FFEBA2" height="22.85714" id="856d5da38bde42da9c1399f9b5be9a12-ao-6" stroke="#2D2D2D" width="128.57143" x="935.42868" y="86.71415"/>
  <rect fill="#FFEBA2" height="28.57143" id="856d5da38bde42da9c1399f9b5be9a12-ao-7" stroke="#2D2D2D" width="374.28573" x="984.00011" y="123.85701"/>
  <rect fill="#FFEBA2" height="28.57143" id="856d5da38bde42da9c1399f9b5be9a12-ao-8" stroke="#2D2D2D" width="231.42858" x="372.57152" y="152.42844"/>
  <rect fill="#FFEBA2" height="28.57143" id="856d5da38bde42da9c1399f9b5be9a12-ao-9" stroke="#2D2D2D" width="288.57144" x="1052.57155" y="163.85701"/>
  <rect fill="#FFEBA2" height="40" id="856d5da38bde42da9c1399f9b5be9a12-ao-10" stroke="#2D2D2D" width="228.57144" x="332.57151" y="195.28558"/>
  <rect fill="#FFEBA2" height="51.42857" id="856d5da38bde42da9c1399f9b5be9a12-ao-11" stroke="#2D2D2D" width="257.14287" x="1081.14298" y="218.14273"/>
  <rect fill="#FFEBA2" height="45.71429" id="856d5da38bde42da9c1399f9b5be9a12-ao-12" stroke="#2D2D2D" width="208.57144" x="135.42865" y="246.71416"/>
  <rect fill="#FFEBA2" height="48.57143" id="856d5da38bde42da9c1399f9b5be9a12-ao-13" stroke="#2D2D2D" width="274.28573" x="1104.00012" y="292.42844"/>
  <rect fill="#FFEBA2" height="48.57143" id="856d5da38bde42da9c1399f9b5be9a12-ao-14" stroke="#2D2D2D" width="188.57144" x="1218.28584" y="386.71416"/>
  <rect fill="#FFEBA2" height="45.71429" id="856d5da38bde42da9c1399f9b5be9a12-ao-15" stroke="#2D2D2D" width="117.14286" x="1289.71441" y="566.71417"/>
  <rect fill="#FFEBA2" height="120.00001" id="856d5da38bde42da9c1399f9b5be9a12-ao-16" stroke="#2D2D2D" width="91.42858" x="132.5715" y="552.42846"/>
  <rect fill="#FFEBA2" height="85.71429" id="856d5da38bde42da9c1399f9b5be9a12-ao-17" stroke="#2D2D2D" width="71.42857" x="1332.57156" y="686.71418"/>
  <rect fill="#FFEBA2" height="111.42858" id="856d5da38bde42da9c1399f9b5be9a12-ao-18" stroke="#2D2D2D" width="122.85715" x="129.71436" y="726.71418"/>
  <rect fill="#FFEBA2" height="45.71429" id="856d5da38bde42da9c1399f9b5be9a12-ao-19" stroke="#2D2D2D" width="111.42858" x="1292.57156" y="898.14276"/>
  <rect fill="#FFEBA2" height="65.71429" id="856d5da38bde42da9c1399f9b5be9a12-ao-20" stroke="#2D2D2D" width="120.00001" x="135.42865" y="938.14276"/>
  <rect fill="#FFEBA2" height="71.42857" id="856d5da38bde42da9c1399f9b5be9a12-ao-21" stroke="#2D2D2D" width="108.57143" x="1278.28584" y="958.14276"/>
  <rect fill="#FFEBA2" height="48.57143" id="856d5da38bde42da9c1399f9b5be9a12-ao-22" stroke="#2D2D2D" width="165.71429" x="135.42865" y="1020.99991"/>
  <rect fill="#FFEBA2" height="45.71429" id="856d5da38bde42da9c1399f9b5be9a12-ao-23" stroke="#2D2D2D" width="180.00001" x="132.5715" y="1109.57134"/>
  <rect fill="#FFEBA2" height="28.57143" id="856d5da38bde42da9c1399f9b5be9a12-ao-24" stroke="#2D2D2D" width="177.14287" x="1218.28584" y="1218.14277"/>
  <rect fill="#FFEBA2" height="28.57143" id="856d5da38bde42da9c1399f9b5be9a12-ao-25" stroke="#2D2D2D" width="234.28572" x="129.71436" y="1243.85706"/>
  <rect fill="#FFEBA2" height="25.71429" id="856d5da38bde42da9c1399f9b5be9a12-ao-26" stroke="#2D2D2D" width="340.00002" x="138.28579" y="1300.99992"/>
  <rect fill="#FFEBA2" height="74.28572" id="856d5da38bde42da9c1399f9b5be9a12-ao-27" stroke="#2D2D2D" width="300.00001" x="1075.42869" y="1335.28563"/>
  <rect fill="#FFEBA2" height="31.42857" id="856d5da38bde42da9c1399f9b5be9a12-ao-28" stroke="#2D2D2D" width="351.42859" x="175.42865" y="1383.85706"/>
  <rect fill="#FFEBA2" height="25.71429" id="856d5da38bde42da9c1399f9b5be9a12-ao-29" stroke="#2D2D2D" width="231.42858" x="361.14294" y="1446.71421"/>
  <rect fill="#FFEBA2" height="28.57143" id="856d5da38bde42da9c1399f9b5be9a12-ao-30" stroke="#2D2D2D" width="234.28572" x="972.57154" y="1443.85707"/>
  <rect fill="#FFEBA2" height="22.85714" id="856d5da38bde42da9c1399f9b5be9a12-ao-31" stroke="#2D2D2D" width="271.42858" x="412.57152" y="1506.71421"/>
  <rect fill="#FFEBA2" height="25.71429" id="856d5da38bde42da9c1399f9b5be9a12-ao-32" stroke="#2D2D2D" width="380.00002" x="872.57154" y="1506.71421"/>
  <rect fill="#FFEBA2" height="45.71429" id="856d5da38bde42da9c1399f9b5be9a12-ao-33" stroke="#2D2D2D" width="248.57144" x="481.14295" y="1552.4285"/>
  <rect fill="#FFEBA2" height="25.71429" id="856d5da38bde42da9c1399f9b5be9a12-ao-34" stroke="#2D2D2D" width="268.57144" x="786.85725" y="1578.14279"/>
 </g>
</svg>