<svg height="1063" width="920.0000000000001" xmlns="http://www.w3.org/2000/svg">
 <!-- Created with Image Occlusion Enhanced -->
 <g>
  <title>Labels</title>
 </g>
 <g>
  <title>Masks</title>
  <rect fill="#FFEBA2" height="27.5" id="859a0532a48f40368488d889bdc4f75c-ao-1" stroke="#2D2D2D" width="242.5" x="538.75" y="14.49995"/>
  <rect fill="#FFEBA2" height="22.5" id="859a0532a48f40368488d889bdc4f75c-ao-2" stroke="#2D2D2D" width="85" x="396.25" y="69.49995"/>
  <rect fill="#FFEBA2" height="27.5" id="859a0532a48f40368488d889bdc4f75c-ao-3" stroke="#2D2D2D" width="195" x="598.75" y="59.49995"/>
  <rect fill="#FFEBA2" height="27.5" id="859a0532a48f40368488d889bdc4f75c-ao-4" stroke="#2D2D2D" width="185" x="616.25" y="109.49995"/>
  <rect fill="#FFEBA2" height="30" id="859a0532a48f40368488d889bdc4f75c-ao-5" stroke="#2D2D2D" width="160" x="671.25" y="161.99995"/>
  <rect fill="#FFEBA2" height="27.5" id="859a0532a48f40368488d889bdc4f75c-ao-6" stroke="#2D2D2D" width="150" x="66.25" y="229.49995"/>
  <rect fill="#FFEBA2" height="72.5" id="859a0532a48f40368488d889bdc4f75c-ao-7" stroke="#2D2D2D" width="92.5" x="706.25" y="241.99995"/>
  
  <rect fill="#FFEBA2" height="45" id="859a0532a48f40368488d889bdc4f75c-ao-9" stroke="#2D2D2D" width="150" x="691.25" y="334.49995"/>
  <rect fill="#FFEBA2" height="52.5" id="859a0532a48f40368488d889bdc4f75c-ao-10" stroke="#2D2D2D" width="172.5" x="701.25" y="399.49995"/>
  <rect fill="#FFEBA2" height="70" id="859a0532a48f40368488d889bdc4f75c-ao-11" stroke="#2D2D2D" width="107.5" x="698.75" y="469.49995"/>
  <rect fill="#FFEBA2" height="27.5" id="859a0532a48f40368488d889bdc4f75c-ao-12" stroke="#2D2D2D" width="87.5" x="698.75" y="601.99995"/>
  <rect fill="#FFEBA2" height="52.5" id="859a0532a48f40368488d889bdc4f75c-ao-13" stroke="#2D2D2D" width="152.5" x="683.75" y="864.49995"/>
  <rect fill="#FFEBA2" height="35" id="859a0532a48f40368488d889bdc4f75c-ao-14" stroke="#2D2D2D" width="47.5" x="336.25" y="208.24995"/>
  <rect fill="#FFEBA2" height="30" id="859a0532a48f40368488d889bdc4f75c-ao-15" stroke="#2D2D2D" width="45" x="328.75" y="368.24995"/>
  <rect fill="#FFEBA2" height="32.5" id="859a0532a48f40368488d889bdc4f75c-ao-16" stroke="#2D2D2D" width="37.5" x="338.75" y="526.99995"/>
  <rect fill="#FFEBA2" height="27.5" id="859a0532a48f40368488d889bdc4f75c-ao-17" stroke="#2D2D2D" width="37.5" x="353.75" y="689.49995"/>
  <rect fill="#FFEBA2" height="32.5" id="859a0532a48f40368488d889bdc4f75c-ao-18" stroke="#2D2D2D" width="42.5" x="391.25" y="845.74995"/>
 </g>
</svg>