<svg height="803.0000000000001" width="1256" xmlns="http://www.w3.org/2000/svg">
 <!-- Created with Image Occlusion Enhanced -->
 <g>
  <title>Labels</title>
 </g>
 <g>
  <title>Masks</title>
  <rect fill="#FFEBA2" height="22.5" id="859a8e29738e448f9289daa9f4ac93c0-ao-1" stroke="#2D2D2D" width="130" x="935.25003" y="24.49995"/>
  <rect fill="#FFEBA2" height="47.5" id="859a8e29738e448f9289daa9f4ac93c0-ao-2" stroke="#2D2D2D" width="262.5" x="30.25002" y="101.99995"/>
  <rect fill="#FFEBA2" height="27.5" id="859a8e29738e448f9289daa9f4ac93c0-ao-3" stroke="#2D2D2D" width="155" x="937.75003" y="76.99995"/>
  <rect fill="#FFEBA2" height="52.5" id="859a8e29738e448f9289daa9f4ac93c0-ao-4" stroke="#2D2D2D" width="237.5" x="947.75003" y="129.49995"/>
  <rect fill="#FFEBA2" height="27.5" id="859a8e29738e448f9289daa9f4ac93c0-ao-5" stroke="#2D2D2D" width="185" x="97.75002" y="184.49995"/>
  <rect fill="#FFEBA2" height="47.5" id="859a8e29738e448f9289daa9f4ac93c0-ao-6" stroke="#2D2D2D" width="270" x="947.75003" y="204.49995"/>
  <rect fill="#FFEBA2" height="27.5" id="859a8e29738e448f9289daa9f4ac93c0-ao-7" stroke="#2D2D2D" width="257.5" x="40.25002" y="244.49995"/>
  <rect fill="#FFEBA2" height="30" id="859a8e29738e448f9289daa9f4ac93c0-ao-8" stroke="#2D2D2D" width="280" x="952.75003" y="279.49995"/>
  <rect fill="#FFEBA2" height="27.5" id="859a8e29738e448f9289daa9f4ac93c0-ao-9" stroke="#2D2D2D" width="180" x="107.75002" y="306.99995"/>
  <rect fill="#FFEBA2" height="30" id="859a8e29738e448f9289daa9f4ac93c0-ao-10" stroke="#2D2D2D" width="90" x="955.25003" y="329.49995"/>
  <rect fill="#FFEBA2" height="30" id="859a8e29738e448f9289daa9f4ac93c0-ao-11" stroke="#2D2D2D" width="210" x="70.25002" y="359.49995"/>
  <rect fill="#FFEBA2" height="25" id="859a8e29738e448f9289daa9f4ac93c0-ao-12" stroke="#2D2D2D" width="205" x="965.25003" y="381.99995"/>
  <rect fill="#FFEBA2" height="52.5" id="859a8e29738e448f9289daa9f4ac93c0-ao-13" stroke="#2D2D2D" width="235" x="32.75002" y="426.99995"/>
  <rect fill="#FFEBA2" height="27.5" id="859a8e29738e448f9289daa9f4ac93c0-ao-14" stroke="#2D2D2D" width="215" x="975.25003" y="431.99995"/>
  <rect fill="#FFEBA2" height="32.5" id="859a8e29738e448f9289daa9f4ac93c0-ao-15" stroke="#2D2D2D" width="237.5" x="985.25003" y="481.99996"/>
  <rect fill="#FFEBA2" height="30" id="859a8e29738e448f9289daa9f4ac93c0-ao-16" stroke="#2D2D2D" width="215" x="62.75002" y="499.49996"/>
  <rect fill="#FFEBA2" height="30" id="859a8e29738e448f9289daa9f4ac93c0-ao-17" stroke="#2D2D2D" width="227.5" x="990.25003" y="534.49996"/>
  <rect fill="#FFEBA2" height="30" id="859a8e29738e448f9289daa9f4ac93c0-ao-18" stroke="#2D2D2D" width="172.5" x="85.25002" y="556.99996"/>
  <rect class="qshape" fill="#FF7E7E" height="72.5" id="859a8e29738e448f9289daa9f4ac93c0-ao-19" stroke="#2D2D2D" width="212.5" x="1022.75003" y="589.49996"/>
  <rect fill="#FFEBA2" height="72.5" id="859a8e29738e448f9289daa9f4ac93c0-ao-20" stroke="#2D2D2D" width="232.5" x="50.25002" y="606.99996"/>
 </g>
</svg>