<svg height="1523" width="1535.9999999999998" xmlns="http://www.w3.org/2000/svg">
 <!-- Created with Image Occlusion Enhanced -->
 <g>
  <title>Labels</title>
 </g>
 <g>
  <title>Masks</title>
  <rect fill="#FFEBA2" height="28.57143" id="87acb89578be4864b10abb05a3b34bad-ao-1" stroke="#2D2D2D" width="151.42858" x="638.28581" y="331.28575"/>
  <rect fill="#FFEBA2" height="28.57143" id="87acb89578be4864b10abb05a3b34bad-ao-2" stroke="#2D2D2D" width="85.71429" x="846.85725" y="368.42861"/>
  <rect fill="#FFEBA2" height="22.85714" id="87acb89578be4864b10abb05a3b34bad-ao-3" stroke="#2D2D2D" width="114.28572" x="609.71438" y="377.00003"/>
  <rect class="qshape" fill="#FF7E7E" height="31.42857" id="87acb89578be4864b10abb05a3b34bad-ao-4" stroke="#2D2D2D" width="80" x="898.28582" y="425.57147"/>
  <rect fill="#FFEBA2" height="31.42857" id="87acb89578be4864b10abb05a3b34bad-ao-5" stroke="#2D2D2D" width="174.28572" x="475.42866" y="422.71432"/>
  <rect fill="#FFEBA2" height="28.57143" id="87acb89578be4864b10abb05a3b34bad-ao-6" stroke="#2D2D2D" width="222.85715" x="958.28583" y="488.42861"/>
  <rect fill="#FFEBA2" height="25.71429" id="87acb89578be4864b10abb05a3b34bad-ao-7" stroke="#2D2D2D" width="268.57144" x="301.14294" y="468.42861"/>
  <rect fill="#FFEBA2" height="28.57143" id="87acb89578be4864b10abb05a3b34bad-ao-8" stroke="#2D2D2D" width="162.85715" x="332.57151" y="522.71433"/>
  <rect fill="#FFEBA2" height="28.57143" id="87acb89578be4864b10abb05a3b34bad-ao-9" stroke="#2D2D2D" width="125.71429" x="1015.42869" y="548.42861"/>
  <rect fill="#FFEBA2" height="25.71429" id="87acb89578be4864b10abb05a3b34bad-ao-10" stroke="#2D2D2D" width="160.00001" x="269.71437" y="579.85719"/>
  <rect fill="#FFEBA2" height="31.42857" id="87acb89578be4864b10abb05a3b34bad-ao-11" stroke="#2D2D2D" width="354.28573" x="1069.7144" y="597.00004"/>
  <rect fill="#FFEBA2" height="45.71429" id="87acb89578be4864b10abb05a3b34bad-ao-12" stroke="#2D2D2D" width="151.42858" x="161.14293" y="634.1429"/>
  <rect fill="#FFEBA2" height="25.71429" id="87acb89578be4864b10abb05a3b34bad-ao-13" stroke="#2D2D2D" width="145.71429" x="1298.28584" y="662.71433"/>
  <rect fill="#FFEBA2" height="97.14286" id="87acb89578be4864b10abb05a3b34bad-ao-14" stroke="#2D2D2D" width="80" x="126.85722" y="722.71434"/>
  <rect fill="#FFEBA2" height="51.42857" id="87acb89578be4864b10abb05a3b34bad-ao-15" stroke="#2D2D2D" width="91.42858" x="1358.28585" y="759.8572"/>
  <rect fill="#FFEBA2" height="74.28572" id="87acb89578be4864b10abb05a3b34bad-ao-16" stroke="#2D2D2D" width="74.28572" x="129.71436" y="859.8572"/>
  <rect fill="#FFEBA2" height="74.28572" id="87acb89578be4864b10abb05a3b34bad-ao-17" stroke="#2D2D2D" width="85.71429" x="1366.85727" y="891.28577"/>
  <rect fill="#FFEBA2" height="51.42857" id="87acb89578be4864b10abb05a3b34bad-ao-18" stroke="#2D2D2D" width="77.14286" x="129.71436" y="985.57149"/>
  <rect fill="#FFEBA2" height="74.28572" id="87acb89578be4864b10abb05a3b34bad-ao-19" stroke="#2D2D2D" width="82.85715" x="1329.71442" y="1008.42863"/>
  <rect fill="#FFEBA2" height="68.57143" id="87acb89578be4864b10abb05a3b34bad-ao-20" stroke="#2D2D2D" width="102.85715" x="129.71436" y="1074.14292"/>
  <rect fill="#FFEBA2" height="31.42857" id="87acb89578be4864b10abb05a3b34bad-ao-21" stroke="#2D2D2D" width="137.14286" x="1238.28584" y="1182.71436"/>
  <rect fill="#FFEBA2" height="31.42857" id="87acb89578be4864b10abb05a3b34bad-ao-22" stroke="#2D2D2D" width="94.28572" x="224.00008" y="1185.5715"/>
  <rect fill="#FFEBA2" height="31.42857" id="87acb89578be4864b10abb05a3b34bad-ao-23" stroke="#2D2D2D" width="237.14287" x="126.85722" y="1248.42865"/>
  <rect fill="#FFEBA2" height="25.71429" id="87acb89578be4864b10abb05a3b34bad-ao-24" stroke="#2D2D2D" width="82.85715" x="1104.00012" y="1317.00008"/>
  <rect fill="#FFEBA2" height="25.71429" id="87acb89578be4864b10abb05a3b34bad-ao-25" stroke="#2D2D2D" width="237.14287" x="181.14294" y="1322.71436"/>
  <rect fill="#FFEBA2" height="31.42857" id="87acb89578be4864b10abb05a3b34bad-ao-26" stroke="#2D2D2D" width="251.42858" x="321.14294" y="1385.57151"/>
  <rect fill="#FFEBA2" height="51.42857" id="87acb89578be4864b10abb05a3b34bad-ao-27" stroke="#2D2D2D" width="242.85715" x="955.42868" y="1388.42865"/>
  <rect fill="#FFEBA2" height="28.57143" id="87acb89578be4864b10abb05a3b34bad-ao-28" stroke="#2D2D2D" width="417.14288" x="292.57151" y="1468.42866"/>
  <rect fill="#FFEBA2" height="28.57143" id="87acb89578be4864b10abb05a3b34bad-ao-29" stroke="#2D2D2D" width="85.71429" x="844.00011" y="1465.57151"/>
 </g>
</svg>