<svg height="1100" width="1303" xmlns="http://www.w3.org/2000/svg">
 <!-- Created with Image Occlusion Enhanced -->
 <g>
  <title>Labels</title>
 </g>
 <g>
  <title>Masks</title>
  <rect fill="#FFEBA2" height="28.57143" id="8a873dc8ba484b868bcca76742019e55-ao-1" stroke="#2D2D2D" width="331.42858" x="179.85718" y="465.71428"/>
  
  <rect fill="#FFEBA2" height="25.71429" id="8a873dc8ba484b868bcca76742019e55-ao-3" stroke="#2D2D2D" width="182.85715" x="331.28576" y="540"/>
  <rect fill="#FFEBA2" height="28.57143" id="8a873dc8ba484b868bcca76742019e55-ao-4" stroke="#2D2D2D" width="122.85715" x="391.28576" y="571.42857"/>
  <rect fill="#FFEBA2" height="25.71429" id="8a873dc8ba484b868bcca76742019e55-ao-5" stroke="#2D2D2D" width="288.57144" x="225.57147" y="611.42857"/>
  <rect fill="#FFEBA2" height="28.57143" id="8a873dc8ba484b868bcca76742019e55-ao-6" stroke="#2D2D2D" width="245.71429" x="265.57147" y="642.85715"/>
  <rect fill="#FFEBA2" height="28.57143" id="8a873dc8ba484b868bcca76742019e55-ao-7" stroke="#2D2D2D" width="285.71429" x="222.71433" y="680"/>
  <rect fill="#FFEBA2" height="28.57143" id="8a873dc8ba484b868bcca76742019e55-ao-8" stroke="#2D2D2D" width="411.42858" x="97.00004" y="714.28572"/>
  <rect fill="#FFEBA2" height="31.42857" id="8a873dc8ba484b868bcca76742019e55-ao-9" stroke="#2D2D2D" width="271.42858" x="239.85718" y="748.57143"/>
  <rect fill="#FFEBA2" height="28.57143" id="8a873dc8ba484b868bcca76742019e55-ao-10" stroke="#2D2D2D" width="291.42858" x="219.85718" y="785.71429"/>
  <rect fill="#FFEBA2" height="25.71429" id="8a873dc8ba484b868bcca76742019e55-ao-11" stroke="#2D2D2D" width="460.00001" x="48.42861" y="822.85715"/>
  <rect fill="#FFEBA2" height="25.71429" id="8a873dc8ba484b868bcca76742019e55-ao-12" stroke="#2D2D2D" width="282.85715" x="228.42861" y="860.00001"/>
  <rect fill="#FFEBA2" height="28.57143" id="8a873dc8ba484b868bcca76742019e55-ao-13" stroke="#2D2D2D" width="314.28572" x="197.00004" y="894.28572"/>
  <rect fill="#FFEBA2" height="25.71429" id="8a873dc8ba484b868bcca76742019e55-ao-14" stroke="#2D2D2D" width="425.7143" x="88.42861" y="928.57144"/>
  <rect fill="#FFEBA2" height="31.42857" id="8a873dc8ba484b868bcca76742019e55-ao-15" stroke="#2D2D2D" width="491.42858" x="17.00004" y="962.85715"/>
  <rect fill="#FFEBA2" height="25.71429" id="8a873dc8ba484b868bcca76742019e55-ao-16" stroke="#2D2D2D" width="260.00001" x="351.28576" y="1002.85715"/>
  <rect fill="#FFEBA2" height="28.57143" id="8a873dc8ba484b868bcca76742019e55-ao-17" stroke="#2D2D2D" width="265.71429" x="631.28577" y="1034.28573"/>
  <rect fill="#FFEBA2" height="91.42857" id="8a873dc8ba484b868bcca76742019e55-ao-18" stroke="#2D2D2D" width="160" x="1079.85721" y="991.42858"/>
 </g>
</svg>