<svg height="906.0000000000001" width="1317" xmlns="http://www.w3.org/2000/svg">
 <!-- Created with Image Occlusion Enhanced -->
 <g>
  <title>Labels</title>
 </g>
 <g>
  <title>Masks</title>
  <rect fill="#FFEBA2" height="22.85714" id="8c2bba5d45484290aacf62ae88c19f18-ao-1" stroke="#2D2D2D" width="217.14285" x="595.85709" y="6.85713"/>
  <rect fill="#FFEBA2" height="25.71429" id="8c2bba5d45484290aacf62ae88c19f18-ao-2" stroke="#2D2D2D" width="174.28571" x="607.28566" y="41.14284"/>
  <rect fill="#FFEBA2" height="25.71429" id="8c2bba5d45484290aacf62ae88c19f18-ao-3" stroke="#2D2D2D" width="220" x="524.42852" y="72.57141"/>
  <rect fill="#FFEBA2" height="25.71429" id="8c2bba5d45484290aacf62ae88c19f18-ao-4" stroke="#2D2D2D" width="200" x="544.42852" y="109.71427"/>
  <rect fill="#FFEBA2" height="28.57143" id="8c2bba5d45484290aacf62ae88c19f18-ao-5" stroke="#2D2D2D" width="391.42856" x="338.71424" y="143.99998"/>
  <rect fill="#FFEBA2" height="22.85714" id="8c2bba5d45484290aacf62ae88c19f18-ao-6" stroke="#2D2D2D" width="134.28571" x="570.14281" y="181.14284"/>
  <rect fill="#FFEBA2" height="22.85714" id="8c2bba5d45484290aacf62ae88c19f18-ao-7" stroke="#2D2D2D" width="242.85714" x="447.28567" y="212.57141"/>
  <rect fill="#FFEBA2" height="25.71429" id="8c2bba5d45484290aacf62ae88c19f18-ao-8" stroke="#2D2D2D" width="539.99999" x="124.42853" y="243.99998"/>
  <rect fill="#FFEBA2" height="22.85714" id="8c2bba5d45484290aacf62ae88c19f18-ao-9" stroke="#2D2D2D" width="254.28571" x="370.14281" y="278.28569"/>
  <rect fill="#FFEBA2" height="22.85714" id="8c2bba5d45484290aacf62ae88c19f18-ao-10" stroke="#2D2D2D" width="162.85714" x="435.85709" y="312.57141"/>
  <rect fill="#FFEBA2" height="25.71429" id="8c2bba5d45484290aacf62ae88c19f18-ao-11" stroke="#2D2D2D" width="479.99999" x="121.57139" y="338.28569"/>
  <rect fill="#FFEBA2" height="25.71429" id="8c2bba5d45484290aacf62ae88c19f18-ao-12" stroke="#2D2D2D" width="188.57142" x="407.28567" y="369.71426"/>
  <rect fill="#FFEBA2" height="25.71429" id="8c2bba5d45484290aacf62ae88c19f18-ao-13" stroke="#2D2D2D" width="562.85713" x="21.57139" y="398.28569"/>
  <rect fill="#FFEBA2" height="31.42857" id="8c2bba5d45484290aacf62ae88c19f18-ao-14" stroke="#2D2D2D" width="234.28571" x="338.71424" y="432.5714"/>
  <rect fill="#FFEBA2" height="28.57143" id="8c2bba5d45484290aacf62ae88c19f18-ao-15" stroke="#2D2D2D" width="194.28571" x="370.14281" y="466.85712"/>
  <rect fill="#FFEBA2" height="25.71429" id="8c2bba5d45484290aacf62ae88c19f18-ao-16" stroke="#2D2D2D" width="194.28571" x="367.28567" y="503.99997"/>
  
  <rect fill="#FFEBA2" height="22.85714" id="8c2bba5d45484290aacf62ae88c19f18-ao-18" stroke="#2D2D2D" width="208.57142" x="352.99995" y="569.71426"/>
  <rect fill="#FFEBA2" height="28.57143" id="8c2bba5d45484290aacf62ae88c19f18-ao-19" stroke="#2D2D2D" width="128.57143" x="427.28567" y="603.99997"/>
  <rect fill="#FFEBA2" height="25.71429" id="8c2bba5d45484290aacf62ae88c19f18-ao-20" stroke="#2D2D2D" width="237.14285" x="324.42853" y="641.14283"/>
  <rect fill="#FFEBA2" height="25.71429" id="8c2bba5d45484290aacf62ae88c19f18-ao-21" stroke="#2D2D2D" width="174.28571" x="381.57138" y="669.71426"/>
  <rect fill="#FFEBA2" height="25.71429" id="8c2bba5d45484290aacf62ae88c19f18-ao-22" stroke="#2D2D2D" width="268.57142" x="287.28567" y="703.99997"/>
  <rect fill="#FFEBA2" height="28.57143" id="8c2bba5d45484290aacf62ae88c19f18-ao-23" stroke="#2D2D2D" width="311.42857" x="244.42853" y="739.71425"/>
  <rect fill="#FFEBA2" height="48.57143" id="8c2bba5d45484290aacf62ae88c19f18-ao-24" stroke="#2D2D2D" width="508.57142" x="130.14281" y="782.5714"/>
  <rect fill="#FFEBA2" height="28.57143" id="8c2bba5d45484290aacf62ae88c19f18-ao-25" stroke="#2D2D2D" width="365.71428" x="455.85709" y="845.42854"/>
  <rect fill="#FFEBA2" height="28.57143" id="8c2bba5d45484290aacf62ae88c19f18-ao-26" stroke="#2D2D2D" width="219.99999" x="987.28566" y="782.5714"/>
  <rect fill="#FFEBA2" height="25.71429" id="8c2bba5d45484290aacf62ae88c19f18-ao-27" stroke="#2D2D2D" stroke-dasharray="null" stroke-linecap="null" stroke-linejoin="null" width="188.57142" x="941.57137" y="816.85711"/>
  <rect fill="#FFEBA2" height="45.71428" id="8c2bba5d45484290aacf62ae88c19f18-ao-28" stroke="#2D2D2D" stroke-dasharray="null" stroke-linecap="null" stroke-linejoin="null" width="262.85713" x="858.71424" y="853.99997"/>
 </g>
</svg>