<svg height="1539" width="1535.9999999999998" xmlns="http://www.w3.org/2000/svg">
 <!-- Created with Image Occlusion Enhanced -->
 <g>
  <title>Labels</title>
 </g>
 <g>
  <title>Masks</title>
  <rect fill="#FFEBA2" height="25.71429" id="8c31d770632c42e987914fc6311e50bc-ao-1" stroke="#2D2D2D" width="157.14286" x="575.42867" y="13.857"/>
  <rect fill="#FFEBA2" height="28.57143" id="8c31d770632c42e987914fc6311e50bc-ao-2" stroke="#2D2D2D" width="165.71429" x="855.42868" y="16.71415"/>
  <rect fill="#FFEBA2" height="22.85714" id="8c31d770632c42e987914fc6311e50bc-ao-3" stroke="#2D2D2D" width="140.00001" x="555.42867" y="56.71415"/>
  <rect fill="#FFEBA2" height="25.71429" id="8c31d770632c42e987914fc6311e50bc-ao-4" stroke="#2D2D2D" width="85.71429" x="898.28582" y="59.57129"/>
  <rect fill="#FFEBA2" height="31.42857" id="8c31d770632c42e987914fc6311e50bc-ao-5" stroke="#2D2D2D" width="274.28573" x="372.57152" y="96.71415"/>
  <rect fill="#FFEBA2" height="31.42857" id="8c31d770632c42e987914fc6311e50bc-ao-6" stroke="#2D2D2D" width="265.7143" x="941.14297" y="102.42844"/>
  <rect fill="#FFEBA2" height="28.57143" id="8c31d770632c42e987914fc6311e50bc-ao-7" stroke="#2D2D2D" width="237.14287" x="378.2858" y="139.5713"/>
  <rect fill="#FFEBA2" height="28.57143" id="8c31d770632c42e987914fc6311e50bc-ao-8" stroke="#2D2D2D" width="225.7143" x="961.14297" y="153.85701"/>
  <rect fill="#FFEBA2" height="28.57143" id="8c31d770632c42e987914fc6311e50bc-ao-9" stroke="#2D2D2D" width="225.7143" x="366.85723" y="188.14273"/>
  <rect fill="#FFEBA2" height="28.57143" id="8c31d770632c42e987914fc6311e50bc-ao-10" stroke="#2D2D2D" width="231.42858" x="992.57154" y="202.42844"/>
  <rect fill="#FFEBA2" height="25.71429" id="8c31d770632c42e987914fc6311e50bc-ao-11" stroke="#2D2D2D" width="128.57143" x="435.42866" y="228.14273"/>
  <rect fill="#FFEBA2" height="28.57143" id="8c31d770632c42e987914fc6311e50bc-ao-12" stroke="#2D2D2D" width="177.14287" x="1009.7144" y="248.14273"/>
  <rect fill="#FFEBA2" height="31.42857" id="8c31d770632c42e987914fc6311e50bc-ao-13" stroke="#2D2D2D" width="240.00001" x="304.00008" y="268.14273"/>
  <rect fill="#FFEBA2" height="25.71429" id="8c31d770632c42e987914fc6311e50bc-ao-14" stroke="#2D2D2D" width="145.71429" x="1029.7144" y="290.99987"/>
  <rect fill="#FFEBA2" height="28.57143" id="8c31d770632c42e987914fc6311e50bc-ao-15" stroke="#2D2D2D" width="194.28572" x="338.2858" y="313.85702"/>
  <rect fill="#FFEBA2" height="25.71429" id="8c31d770632c42e987914fc6311e50bc-ao-16" stroke="#2D2D2D" width="145.71429" x="1064.00012" y="339.5713"/>
  <rect fill="#FFEBA2" height="25.71429" id="8c31d770632c42e987914fc6311e50bc-ao-17" stroke="#2D2D2D" width="148.57144" x="346.85723" y="356.71416"/>
  <rect fill="#FFEBA2" height="28.57143" id="8c31d770632c42e987914fc6311e50bc-ao-18" stroke="#2D2D2D" width="288.57144" x="1078.28583" y="385.28559"/>
  <rect fill="#FFEBA2" height="28.57143" id="8c31d770632c42e987914fc6311e50bc-ao-19" stroke="#2D2D2D" width="300.00001" x="181.14294" y="399.57131"/>
  <rect fill="#FFEBA2" height="28.57143" id="8c31d770632c42e987914fc6311e50bc-ao-20" stroke="#2D2D2D" width="245.7143" x="1109.71441" y="433.85702"/>
  <rect fill="#FFEBA2" height="28.57143" id="8c31d770632c42e987914fc6311e50bc-ao-21" stroke="#2D2D2D" width="211.42858" x="181.14294" y="445.28559"/>
  <rect fill="#FFEBA2" height="28.57143" id="8c31d770632c42e987914fc6311e50bc-ao-22" stroke="#2D2D2D" width="211.42858" x="1141.14298" y="479.57131"/>
  <rect fill="#FFEBA2" height="28.57143" id="8c31d770632c42e987914fc6311e50bc-ao-23" stroke="#2D2D2D" width="245.7143" x="181.14294" y="485.2856"/>
  <rect fill="#FFEBA2" height="31.42857" id="8c31d770632c42e987914fc6311e50bc-ao-24" stroke="#2D2D2D" width="128.57143" x="1152.57155" y="525.2856"/>
  <rect fill="#FFEBA2" height="74.28572" id="8c31d770632c42e987914fc6311e50bc-ao-25" stroke="#2D2D2D" width="202.85715" x="166.85722" y="528.14274"/>
  <rect fill="#FFEBA2" height="28.57143" id="8c31d770632c42e987914fc6311e50bc-ao-26" stroke="#2D2D2D" width="185.71429" x="1166.85727" y="573.85703"/>
  <rect fill="#FFEBA2" height="25.71429" id="8c31d770632c42e987914fc6311e50bc-ao-27" stroke="#2D2D2D" width="185.71429" x="172.57151" y="619.57132"/>
  <rect fill="#FFEBA2" height="54.28572" id="8c31d770632c42e987914fc6311e50bc-ao-28" stroke="#2D2D2D" width="154.28572" x="1189.71441" y="616.71417"/>
  <rect fill="#FFEBA2" height="74.28572" id="8c31d770632c42e987914fc6311e50bc-ao-29" stroke="#2D2D2D" width="208.57144" x="149.71436" y="659.57132"/>
  <rect fill="#FFEBA2" height="45.71429" id="8c31d770632c42e987914fc6311e50bc-ao-30" stroke="#2D2D2D" width="140.00001" x="1209.71441" y="688.14275"/>
  <rect fill="#FFEBA2" height="54.28572" id="8c31d770632c42e987914fc6311e50bc-ao-31" stroke="#2D2D2D" width="165.71429" x="155.42865" y="753.85704"/>
  <rect fill="#FFEBA2" height="71.42857" id="8c31d770632c42e987914fc6311e50bc-ao-32" stroke="#2D2D2D" width="117.14286" x="1235.4287" y="759.57132"/>
  <rect fill="#FFEBA2" height="34.28572" id="8c31d770632c42e987914fc6311e50bc-ao-33" stroke="#2D2D2D" width="162.85715" x="146.85722" y="828.14276"/>
  <rect fill="#FFEBA2" height="71.42857" id="8c31d770632c42e987914fc6311e50bc-ao-34" stroke="#2D2D2D" width="125.71429" x="1238.28584" y="845.28561"/>
  <rect fill="#FFEBA2" height="74.28572" id="8c31d770632c42e987914fc6311e50bc-ao-35" stroke="#2D2D2D" width="114.28572" x="146.85722" y="879.57133"/>
  <rect fill="#FFEBA2" height="94.28572" id="8c31d770632c42e987914fc6311e50bc-ao-36" stroke="#2D2D2D" width="151.42858" x="1241.14298" y="942.42847"/>
  <rect fill="#FFEBA2" height="97.14286" id="8c31d770632c42e987914fc6311e50bc-ao-37" stroke="#2D2D2D" width="148.57144" x="149.71436" y="976.71419"/>
  <rect fill="#FFEBA2" height="74.28572" id="8c31d770632c42e987914fc6311e50bc-ao-38" stroke="#2D2D2D" width="154.28572" x="1241.14298" y="1059.57134"/>
  <rect fill="#FFEBA2" height="71.42857" id="8c31d770632c42e987914fc6311e50bc-ao-39" stroke="#2D2D2D" width="142.85715" x="152.57151" y="1096.7142"/>
  <rect fill="#FFEBA2" height="48.57143" id="8c31d770632c42e987914fc6311e50bc-ao-40" stroke="#2D2D2D" width="145.71429" x="1238.28584" y="1145.28563"/>
  <rect fill="#FFEBA2" height="77.14286" id="8c31d770632c42e987914fc6311e50bc-ao-41" stroke="#2D2D2D" width="151.42858" x="152.57151" y="1190.99991"/>
  <rect fill="#FFEBA2" height="94.28572" id="8c31d770632c42e987914fc6311e50bc-ao-42" stroke="#2D2D2D" width="157.14286" x="1241.14298" y="1219.57134"/>
  <rect fill="#FFEBA2" height="28.57143" id="8c31d770632c42e987914fc6311e50bc-ao-43" stroke="#2D2D2D" width="188.57144" x="986.85726" y="1359.57135"/>
  <rect fill="#FFEBA2" height="28.57143" id="8c31d770632c42e987914fc6311e50bc-ao-44" stroke="#2D2D2D" width="188.57144" x="398.2858" y="1365.28564"/>
  <rect fill="#FFEBA2" height="28.57143" id="8c31d770632c42e987914fc6311e50bc-ao-45" stroke="#2D2D2D" width="211.42858" x="938.28583" y="1408.14278"/>
  <rect fill="#FFEBA2" height="28.57143" id="8c31d770632c42e987914fc6311e50bc-ao-46" stroke="#2D2D2D" width="125.71429" x="478.28581" y="1408.14278"/>
  <rect fill="#FFEBA2" height="28.57143" id="8c31d770632c42e987914fc6311e50bc-ao-47" stroke="#2D2D2D" width="140.00001" x="506.85724" y="1459.57136"/>
  <rect fill="#FFEBA2" height="28.57143" id="8c31d770632c42e987914fc6311e50bc-ao-48" stroke="#2D2D2D" width="217.14287" x="869.71439" y="1456.71421"/>
  <rect fill="#FFEBA2" height="25.71429" id="8c31d770632c42e987914fc6311e50bc-ao-49" stroke="#2D2D2D" width="174.28572" x="518.28581" y="1505.28564"/>
  
 </g>
</svg>