<svg height="1590" width="1535.9999999999998" xmlns="http://www.w3.org/2000/svg">
 <!-- Created with Image Occlusion Enhanced -->
 <g>
  <title>Labels</title>
 </g>
 <g>
  <title>Masks</title>
  <rect fill="#FFEBA2" height="34.28572" id="8ead7ff7f9ed422eb223f3c889655050-ao-1" stroke="#2D2D2D" width="491.42859" x="144.00008" y="7.14282"/>
  <rect fill="#FFEBA2" height="31.42857" id="8ead7ff7f9ed422eb223f3c889655050-ao-2" stroke="#2D2D2D" width="491.42859" x="906.85725" y="1.42854"/>
  <rect fill="#FFEBA2" height="31.42857" id="8ead7ff7f9ed422eb223f3c889655050-ao-3" stroke="#2D2D2D" width="305.7143" x="201.14294" y="101.42854"/>
  <rect fill="#FFEBA2" height="34.28572" id="8ead7ff7f9ed422eb223f3c889655050-ao-4" stroke="#2D2D2D" width="425.71431" x="981.14297" y="95.71425"/>
  <rect fill="#FFEBA2" height="57.14286" id="8ead7ff7f9ed422eb223f3c889655050-ao-5" stroke="#2D2D2D" width="137.14286" x="138.28579" y="288.57141"/>
  <rect fill="#FFEBA2" height="54.28572" id="8ead7ff7f9ed422eb223f3c889655050-ao-6" stroke="#2D2D2D" width="100" x="1292.57156" y="265.71426"/>
  <rect fill="#FFEBA2" height="48.57143" id="8ead7ff7f9ed422eb223f3c889655050-ao-7" stroke="#2D2D2D" width="131.42858" x="144.00008" y="371.42855"/>
  <rect fill="#FFEBA2" height="51.42857" id="8ead7ff7f9ed422eb223f3c889655050-ao-8" stroke="#2D2D2D" width="94.28572" x="1289.71441" y="354.28569"/>
  <rect fill="#FFEBA2" height="51.42857" id="8ead7ff7f9ed422eb223f3c889655050-ao-9" stroke="#2D2D2D" width="162.85715" x="141.14293" y="445.71427"/>
  <rect fill="#FFEBA2" height="51.42857" id="8ead7ff7f9ed422eb223f3c889655050-ao-10" stroke="#2D2D2D" width="220.00001" x="1192.57155" y="462.85713"/>
  <rect fill="#FFEBA2" height="54.28572" id="8ead7ff7f9ed422eb223f3c889655050-ao-11" stroke="#2D2D2D" width="182.85715" x="144.00008" y="528.57142"/>
  <rect fill="#FFEBA2" height="51.42857" id="8ead7ff7f9ed422eb223f3c889655050-ao-12" stroke="#2D2D2D" width="194.28572" x="1189.71441" y="542.85713"/>
  <rect fill="#FFEBA2" height="31.42857" id="8ead7ff7f9ed422eb223f3c889655050-ao-13" stroke="#2D2D2D" width="240.00001" x="126.85722" y="599.99999"/>
  <rect fill="#FFEBA2" height="34.28572" id="8ead7ff7f9ed422eb223f3c889655050-ao-14" stroke="#2D2D2D" width="202.85715" x="1192.57155" y="619.99999"/>
  <rect fill="#FFEBA2" height="34.28572" id="8ead7ff7f9ed422eb223f3c889655050-ao-15" stroke="#2D2D2D" width="248.57144" x="141.14293" y="659.99999"/>
  <rect fill="#FFEBA2" height="28.57143" id="8ead7ff7f9ed422eb223f3c889655050-ao-16" stroke="#2D2D2D" width="217.14287" x="1189.71441" y="674.28571"/>
  <rect fill="#FFEBA2" height="34.28572" id="8ead7ff7f9ed422eb223f3c889655050-ao-17" stroke="#2D2D2D" width="237.14287" x="138.28579" y="740"/>
  <rect fill="#FFEBA2" height="25.71429" id="8ead7ff7f9ed422eb223f3c889655050-ao-18" stroke="#2D2D2D" width="117.14286" x="1192.57155" y="725.71428"/>
  <rect fill="#FFEBA2" height="51.42857" id="8ead7ff7f9ed422eb223f3c889655050-ao-19" stroke="#2D2D2D" width="168.57144" x="1189.71441" y="780"/>
  <rect fill="#FFEBA2" height="28.57143" id="8ead7ff7f9ed422eb223f3c889655050-ao-20" stroke="#2D2D2D" width="202.85715" x="144.00008" y="817.14286"/>
  <rect fill="#FFEBA2" height="54.28572" id="8ead7ff7f9ed422eb223f3c889655050-ao-21" stroke="#2D2D2D" width="142.85715" x="1192.57155" y="854.28572"/>
  <rect fill="#FFEBA2" height="57.14286" id="8ead7ff7f9ed422eb223f3c889655050-ao-22" stroke="#2D2D2D" width="202.85715" x="146.85722" y="871.42857"/>
  <rect fill="#FFEBA2" height="31.42857" id="8ead7ff7f9ed422eb223f3c889655050-ao-23" stroke="#2D2D2D" width="194.28572" x="1164.00012" y="940.00001"/>
  <rect fill="#FFEBA2" height="31.42857" id="8ead7ff7f9ed422eb223f3c889655050-ao-24" stroke="#2D2D2D" width="214.28572" x="138.28579" y="948.57144"/>
  <rect fill="#FFEBA2" height="28.57143" id="8ead7ff7f9ed422eb223f3c889655050-ao-25" stroke="#2D2D2D" width="225.7143" x="1161.14298" y="994.28572"/>
  <rect fill="#FFEBA2" height="28.57143" id="8ead7ff7f9ed422eb223f3c889655050-ao-26" stroke="#2D2D2D" width="248.57144" x="144.00008" y="1002.85715"/>
  <rect fill="#FFEBA2" height="34.28572" id="8ead7ff7f9ed422eb223f3c889655050-ao-27" stroke="#2D2D2D" width="205.7143" x="1161.14298" y="1045.7143"/>
  <rect fill="#FFEBA2" height="28.57143" id="8ead7ff7f9ed422eb223f3c889655050-ao-28" stroke="#2D2D2D" width="294.28573" x="141.14293" y="1048.57144"/>
  <rect fill="#FFEBA2" height="28.57143" id="8ead7ff7f9ed422eb223f3c889655050-ao-29" stroke="#2D2D2D" width="182.85715" x="1161.14298" y="1097.14287"/>
  <rect fill="#FFEBA2" height="25.71429" id="8ead7ff7f9ed422eb223f3c889655050-ao-30" stroke="#2D2D2D" width="168.57144" x="258.2858" y="1094.28573"/>
  <rect fill="#FFEBA2" height="28.57143" id="8ead7ff7f9ed422eb223f3c889655050-ao-31" stroke="#2D2D2D" width="300.00001" x="135.42865" y="1140.00002"/>
  <rect fill="#FFEBA2" height="28.57143" id="8ead7ff7f9ed422eb223f3c889655050-ao-32" stroke="#2D2D2D" width="157.14286" x="1161.14298" y="1151.42859"/>
  <rect fill="#FFEBA2" height="31.42857" id="8ead7ff7f9ed422eb223f3c889655050-ao-33" stroke="#2D2D2D" width="225.7143" x="235.42865" y="1188.57145"/>
  <rect fill="#FFEBA2" height="28.57143" id="8ead7ff7f9ed422eb223f3c889655050-ao-34" stroke="#2D2D2D" width="168.57144" x="1161.14298" y="1202.85716"/>
  <rect fill="#FFEBA2" height="28.57143" id="8ead7ff7f9ed422eb223f3c889655050-ao-35" stroke="#2D2D2D" width="225.7143" x="261.14294" y="1245.71431"/>
  
  <rect fill="#FFEBA2" height="28.57143" id="8ead7ff7f9ed422eb223f3c889655050-ao-37" stroke="#2D2D2D" width="105.71429" x="401.14295" y="1302.85717"/>
 </g>
</svg>