<svg height="766" width="1535.9999999999998" xmlns="http://www.w3.org/2000/svg">
 <!-- Created with Image Occlusion Enhanced -->
 <g>
  <title>Labels</title>
 </g>
 <g>
  <title>Masks</title>
  <rect fill="#FFEBA2" height="25.71429" id="900ee50064a44f54b16b7f5c0207dc8e-ao-1" stroke="#2D2D2D" width="240.00001" x="472.57152" y="-1.71433"/>
  <rect fill="#FFEBA2" height="25.71429" id="900ee50064a44f54b16b7f5c0207dc8e-ao-2" stroke="#2D2D2D" width="208.57144" x="444.00009" y="32.57139"/>
  
  <rect fill="#FFEBA2" height="25.71429" id="900ee50064a44f54b16b7f5c0207dc8e-ao-4" stroke="#2D2D2D" width="160.00001" x="1166.85727" y="189.71425"/>
  <rect fill="#FFEBA2" height="45.71429" id="900ee50064a44f54b16b7f5c0207dc8e-ao-5" stroke="#2D2D2D" width="245.7143" x="1084.00012" y="221.14282"/>
  <rect fill="#FFEBA2" height="28.57143" id="900ee50064a44f54b16b7f5c0207dc8e-ao-6" stroke="#2D2D2D" width="151.42858" x="1004.00012" y="278.28568"/>
  <rect fill="#FFEBA2" height="28.57143" id="900ee50064a44f54b16b7f5c0207dc8e-ao-7" stroke="#2D2D2D" width="208.57144" x="986.85726" y="306.85711"/>
  <rect fill="#FFEBA2" height="25.71429" id="900ee50064a44f54b16b7f5c0207dc8e-ao-8" stroke="#2D2D2D" width="365.7143" x="984.00011" y="338.28569"/>
  <rect fill="#FFEBA2" height="25.71429" id="900ee50064a44f54b16b7f5c0207dc8e-ao-9" stroke="#2D2D2D" width="194.28572" x="984.00011" y="366.85712"/>
  <rect fill="#FFEBA2" height="25.71429" id="900ee50064a44f54b16b7f5c0207dc8e-ao-10" stroke="#2D2D2D" width="188.57144" x="984.00011" y="401.14283"/>
  <rect fill="#FFEBA2" height="45.71429" id="900ee50064a44f54b16b7f5c0207dc8e-ao-11" stroke="#2D2D2D" width="317.14287" x="984.00011" y="435.42855"/>
  <rect fill="#FFEBA2" height="31.42857" id="900ee50064a44f54b16b7f5c0207dc8e-ao-12" stroke="#2D2D2D" width="231.42858" x="981.14297" y="486.85712"/>
  <rect fill="#FFEBA2" height="22.85714" id="900ee50064a44f54b16b7f5c0207dc8e-ao-13" stroke="#2D2D2D" width="177.14287" x="981.14297" y="521.14284"/>
  <rect fill="#FFEBA2" height="31.42857" id="900ee50064a44f54b16b7f5c0207dc8e-ao-14" stroke="#2D2D2D" width="348.57144" x="981.14297" y="546.85712"/>
  <rect fill="#FFEBA2" height="28.57143" id="900ee50064a44f54b16b7f5c0207dc8e-ao-15" stroke="#2D2D2D" width="351.42859" x="981.14297" y="581.14284"/>
  <rect fill="#FFEBA2" height="25.71429" id="900ee50064a44f54b16b7f5c0207dc8e-ao-16" stroke="#2D2D2D" width="188.57144" x="941.14297" y="612.57141"/>
  <rect fill="#FFEBA2" height="25.71429" id="900ee50064a44f54b16b7f5c0207dc8e-ao-17" stroke="#2D2D2D" width="420.00002" x="889.7144" y="641.14284"/>
  <rect fill="#FFEBA2" height="25.71429" id="900ee50064a44f54b16b7f5c0207dc8e-ao-18" stroke="#2D2D2D" width="425.71431" x="832.57154" y="679.71427"/>
  <rect fill="#FFEBA2" height="25.71429" id="900ee50064a44f54b16b7f5c0207dc8e-ao-19" stroke="#2D2D2D" width="120.00001" x="772.57153" y="708.2857"/>
  <rect fill="#FFEBA2" height="25.71429" id="900ee50064a44f54b16b7f5c0207dc8e-ao-20" stroke="#2D2D2D" width="194.28572" x="186.85722" y="633.99999"/>
  <rect fill="#FFEBA2" height="25.71429" id="900ee50064a44f54b16b7f5c0207dc8e-ao-21" stroke="#2D2D2D" width="222.85715" x="249.71437" y="685.42856"/>
  <rect fill="#FFEBA2" height="28.57143" id="900ee50064a44f54b16b7f5c0207dc8e-ao-22" stroke="#2D2D2D" width="185.71429" x="332.57151" y="728.2857"/>
 </g>
</svg>