<svg height="1575.9999999999998" width="1535.9999999999998" xmlns="http://www.w3.org/2000/svg">
 <!-- Created with Image Occlusion Enhanced -->
 <g>
  <title>Labels</title>
 </g>
 <g>
  <title>Masks</title>
  <rect fill="#FFEBA2" height="51.42857" id="914e1f04903a44f8b1bf3eaf66d78cde-ao-1" stroke="#2D2D2D" width="242.85715" x="244.00008" y="75.42864"/>
  
  <rect fill="#FFEBA2" height="31.42857" id="914e1f04903a44f8b1bf3eaf66d78cde-ao-3" stroke="#2D2D2D" width="268.57144" x="221.14294" y="144.00008"/>
  <rect fill="#FFEBA2" height="77.14286" id="914e1f04903a44f8b1bf3eaf66d78cde-ao-4" stroke="#2D2D2D" width="331.42859" x="972.57154" y="158.28579"/>
  <rect fill="#FFEBA2" height="31.42857" id="914e1f04903a44f8b1bf3eaf66d78cde-ao-5" stroke="#2D2D2D" width="300.00001" x="192.57151" y="204.00008"/>
  <rect fill="#FFEBA2" height="31.42857" id="914e1f04903a44f8b1bf3eaf66d78cde-ao-6" stroke="#2D2D2D" width="360.00002" x="972.57154" y="238.28579"/>
  <rect fill="#FFEBA2" height="28.57143" id="914e1f04903a44f8b1bf3eaf66d78cde-ao-7" stroke="#2D2D2D" width="285.7143" x="198.28579" y="266.85722"/>
  <rect fill="#FFEBA2" height="34.28572" id="914e1f04903a44f8b1bf3eaf66d78cde-ao-8" stroke="#2D2D2D" width="131.42858" x="961.14297" y="292.57151"/>
  <rect fill="#FFEBA2" height="51.42857" id="914e1f04903a44f8b1bf3eaf66d78cde-ao-9" stroke="#2D2D2D" width="214.28572" x="284.00008" y="321.14294"/>
  <rect fill="#FFEBA2" height="34.28572" id="914e1f04903a44f8b1bf3eaf66d78cde-ao-10" stroke="#2D2D2D" width="317.14287" x="949.7144" y="346.85723"/>
  <rect fill="#FFEBA2" height="31.42857" id="914e1f04903a44f8b1bf3eaf66d78cde-ao-11" stroke="#2D2D2D" width="188.57144" x="315.42866" y="384.00009"/>
  <rect fill="#FFEBA2" height="31.42857" id="914e1f04903a44f8b1bf3eaf66d78cde-ao-12" stroke="#2D2D2D" width="254.28573" x="932.57154" y="401.14294"/>
  <rect fill="#FFEBA2" height="28.57143" id="914e1f04903a44f8b1bf3eaf66d78cde-ao-13" stroke="#2D2D2D" width="100" x="389.71437" y="435.42866"/>
  <rect fill="#FFEBA2" height="34.28572" id="914e1f04903a44f8b1bf3eaf66d78cde-ao-14" stroke="#2D2D2D" width="217.14287" x="918.28583" y="458.2858"/>
  <rect fill="#FFEBA2" height="54.28572" id="914e1f04903a44f8b1bf3eaf66d78cde-ao-15" stroke="#2D2D2D" width="188.57144" x="332.57151" y="486.85723"/>
  <rect fill="#FFEBA2" height="31.42857" id="914e1f04903a44f8b1bf3eaf66d78cde-ao-16" stroke="#2D2D2D" width="374.28573" x="912.57154" y="566.85724"/>
  <rect fill="#FFEBA2" height="34.28572" id="914e1f04903a44f8b1bf3eaf66d78cde-ao-17" stroke="#2D2D2D" width="374.28573" x="892.57154" y="752.57153"/>
  <rect fill="#FFEBA2" height="34.28572" id="914e1f04903a44f8b1bf3eaf66d78cde-ao-18" stroke="#2D2D2D" width="357.14287" x="892.57154" y="864.00011"/>
  <rect fill="#FFEBA2" height="48.57143" id="914e1f04903a44f8b1bf3eaf66d78cde-ao-19" stroke="#2D2D2D" width="382.85716" x="178.28579" y="909.7144"/>
  <rect fill="#FFEBA2" height="31.42857" id="914e1f04903a44f8b1bf3eaf66d78cde-ao-20" stroke="#2D2D2D" width="217.14287" x="884.00011" y="961.14297"/>
  <rect fill="#FFEBA2" height="31.42857" id="914e1f04903a44f8b1bf3eaf66d78cde-ao-21" stroke="#2D2D2D" width="122.85715" x="349.71437" y="1009.7144"/>
  <rect fill="#FFEBA2" height="31.42857" id="914e1f04903a44f8b1bf3eaf66d78cde-ao-22" stroke="#2D2D2D" width="222.85715" x="321.14294" y="1052.57155"/>
  <rect fill="#FFEBA2" height="48.57143" id="914e1f04903a44f8b1bf3eaf66d78cde-ao-23" stroke="#2D2D2D" width="177.14287" x="238.28579" y="1101.14298"/>
  <rect fill="#FFEBA2" height="48.57143" id="914e1f04903a44f8b1bf3eaf66d78cde-ao-24" stroke="#2D2D2D" width="185.71429" x="238.28579" y="1169.71441"/>
  <rect fill="#FFEBA2" height="31.42857" id="914e1f04903a44f8b1bf3eaf66d78cde-ao-25" stroke="#2D2D2D" width="260.00001" x="861.14297" y="1258.28584"/>
  <rect fill="#FFEBA2" height="51.42857" id="914e1f04903a44f8b1bf3eaf66d78cde-ao-26" stroke="#2D2D2D" width="385.7143" x="164.00008" y="1266.85727"/>
  <rect fill="#FFEBA2" height="31.42857" id="914e1f04903a44f8b1bf3eaf66d78cde-ao-27" stroke="#2D2D2D" width="185.71429" x="858.28582" y="1332.57156"/>
  <rect fill="#FFEBA2" height="57.14286" id="914e1f04903a44f8b1bf3eaf66d78cde-ao-28" stroke="#2D2D2D" width="260.00001" x="289.71437" y="1346.85727"/>
  <rect fill="#FFEBA2" height="37.14286" id="914e1f04903a44f8b1bf3eaf66d78cde-ao-29" stroke="#2D2D2D" width="517.14288" x="858.28582" y="1406.85728"/>
  <rect fill="#FFEBA2" height="31.42857" id="914e1f04903a44f8b1bf3eaf66d78cde-ao-30" stroke="#2D2D2D" width="220.00001" x="306.85723" y="1446.85728"/>
  <rect fill="#FFEBA2" height="34.28572" id="914e1f04903a44f8b1bf3eaf66d78cde-ao-31" stroke="#2D2D2D" width="440.00002" x="855.42868" y="1484.00014"/>
  <rect fill="#FFEBA2" height="31.42857" id="914e1f04903a44f8b1bf3eaf66d78cde-ao-32" stroke="#2D2D2D" width="291.42858" x="232.57151" y="1512.57157"/>
 </g>
</svg>