<svg height="729" width="1248" xmlns="http://www.w3.org/2000/svg">
 <!-- Created with Image Occlusion Enhanced -->
 <g>
  <title>Labels</title>
 </g>
 <g>
  <title>Masks</title>
  <rect fill="#FFEBA2" height="25" id="9202ea7ea228474cb0e5030c496d4a1f-ao-1" stroke="#2D2D2D" width="177.5" x="241.99996" y="12.24998"/>
  <rect fill="#FFEBA2" height="25" id="9202ea7ea228474cb0e5030c496d4a1f-ao-2" stroke="#2D2D2D" width="125" x="919.49995" y="27.24998"/>
  <rect fill="#FFEBA2" height="30" id="9202ea7ea228474cb0e5030c496d4a1f-ao-3" stroke="#2D2D2D" width="210" x="179.49996" y="62.24998"/>
  <rect fill="#FFEBA2" height="27.5" id="9202ea7ea228474cb0e5030c496d4a1f-ao-4" stroke="#2D2D2D" width="160" x="926.99995" y="104.74998"/>
  <rect fill="#FFEBA2" height="25" id="9202ea7ea228474cb0e5030c496d4a1f-ao-5" stroke="#2D2D2D" width="160" x="191.99996" y="122.24998"/>
  <rect fill="#FFEBA2" height="27.5" id="9202ea7ea228474cb0e5030c496d4a1f-ao-6" stroke="#2D2D2D" width="279.99999" x="31.99997" y="174.74998"/>
  <rect fill="#FFEBA2" height="30" id="9202ea7ea228474cb0e5030c496d4a1f-ao-7" stroke="#2D2D2D" width="267.49999" x="949.49995" y="192.24998"/>
  <rect fill="#FFEBA2" height="27.5" id="9202ea7ea228474cb0e5030c496d4a1f-ao-8" stroke="#2D2D2D" width="127.5" x="169.49996" y="229.74998"/>
  <rect fill="#FFEBA2" height="25" id="9202ea7ea228474cb0e5030c496d4a1f-ao-9" stroke="#2D2D2D" width="205" x="956.99995" y="247.24998"/>
  <rect fill="#FFEBA2" height="27.5" id="9202ea7ea228474cb0e5030c496d4a1f-ao-10" stroke="#2D2D2D" width="142.5" x="121.99996" y="284.74998"/>
  <rect fill="#FFEBA2" height="50" id="9202ea7ea228474cb0e5030c496d4a1f-ao-11" stroke="#2D2D2D" width="249.99999" x="966.99995" y="302.24998"/>
  <rect fill="#FFEBA2" height="47.5" id="9202ea7ea228474cb0e5030c496d4a1f-ao-12" stroke="#2D2D2D" width="215" x="24.49997" y="342.24998"/>
  <rect fill="#FFEBA2" height="30" id="9202ea7ea228474cb0e5030c496d4a1f-ao-13" stroke="#2D2D2D" width="235" x="969.49995" y="377.24998"/>
  <rect fill="#FFEBA2" height="27.5" id="9202ea7ea228474cb0e5030c496d4a1f-ao-14" stroke="#2D2D2D" width="142.5" x="86.99997" y="419.74998"/>
  <rect fill="#FFEBA2" height="25" id="9202ea7ea228474cb0e5030c496d4a1f-ao-15" stroke="#2D2D2D" width="107.5" x="976.99995" y="434.74998"/>
  <rect fill="#FFEBA2" height="27.5" id="9202ea7ea228474cb0e5030c496d4a1f-ao-16" stroke="#2D2D2D" width="205" x="984.49995" y="484.74997"/>
  <rect fill="#FFEBA2" height="52.5" id="9202ea7ea228474cb0e5030c496d4a1f-ao-17" stroke="#2D2D2D" width="195" x="41.99997" y="469.74997"/>
  <rect fill="#FFEBA2" height="27.5" id="9202ea7ea228474cb0e5030c496d4a1f-ao-18" stroke="#2D2D2D" width="230" x="981.99995" y="539.74997"/>
  
  <rect fill="#FFEBA2" height="27.5" id="9202ea7ea228474cb0e5030c496d4a1f-ao-20" stroke="#2D2D2D" width="122.5" x="994.49995" y="594.74997"/>
  <rect fill="#FFEBA2" height="30" id="9202ea7ea228474cb0e5030c496d4a1f-ao-21" stroke="#2D2D2D" width="177.5" x="979.49995" y="647.24997"/>
 </g>
</svg>