<svg height="901" width="1053" xmlns="http://www.w3.org/2000/svg">
 <!-- Created with Image Occlusion Enhanced -->
 <g>
  <title>Labels</title>
 </g>
 <g>
  <title>Masks</title>
  <rect fill="#FFEBA2" height="28.57143" id="9486e69e2888432ba9c9cc80adc3355e-ao-1" stroke="#2D2D2D" width="257.14287" x="327.00005" y="11.8571"/>
  <rect fill="#FFEBA2" height="25.71429" id="9486e69e2888432ba9c9cc80adc3355e-ao-2" stroke="#2D2D2D" width="385.7143" x="98.42861" y="68.99996"/>
  <rect fill="#FFEBA2" height="28.57143" id="9486e69e2888432ba9c9cc80adc3355e-ao-3" stroke="#2D2D2D" width="282.85715" x="184.1429" y="108.99996"/>
  <rect fill="#FFEBA2" height="28.57143" id="9486e69e2888432ba9c9cc80adc3355e-ao-4" stroke="#2D2D2D" width="314.28572" x="149.85718" y="151.85711"/>
  <rect fill="#FFEBA2" height="28.57143" id="9486e69e2888432ba9c9cc80adc3355e-ao-5" stroke="#2D2D2D" width="157.14286" x="284.1429" y="194.71425"/>
  <rect fill="#FFEBA2" height="29.12338" id="9486e69e2888432ba9c9cc80adc3355e-ao-6" stroke="#2D2D2D" width="277.14287" x="161.28575" y="240.42854"/>
  <rect fill="#FFEBA2" height="28.57143" id="9486e69e2888432ba9c9cc80adc3355e-ao-7" stroke="#2D2D2D" width="200.00001" x="215.57147" y="277.5714"/>
  <rect fill="#FFEBA2" height="25.71429" id="9486e69e2888432ba9c9cc80adc3355e-ao-8" stroke="#2D2D2D" width="194.28572" x="189.85718" y="326.14283"/>
  <rect fill="#FFEBA2" height="28.57143" id="9486e69e2888432ba9c9cc80adc3355e-ao-9" stroke="#2D2D2D" width="145.71429" x="218.42861" y="371.85711"/>
  <rect fill="#FFEBA2" height="25.71429" id="9486e69e2888432ba9c9cc80adc3355e-ao-10" stroke="#2D2D2D" width="302.85715" x="72.71432" y="414.71426"/>
  <rect fill="#FFEBA2" height="25.71429" id="9486e69e2888432ba9c9cc80adc3355e-ao-11" stroke="#2D2D2D" width="303.4091" x="55.01952" y="454.71426"/>
  <rect fill="#FFEBA2" height="25.71429" id="9486e69e2888432ba9c9cc80adc3355e-ao-12" stroke="#2D2D2D" width="271.42858" x="89.85718" y="503.28569"/>
  <rect fill="#FFEBA2" height="28.57143" id="9486e69e2888432ba9c9cc80adc3355e-ao-13" stroke="#2D2D2D" width="185.71429" x="147.00004" y="543.28569"/>
  <rect fill="#FFEBA2" height="31.42857" id="9486e69e2888432ba9c9cc80adc3355e-ao-14" stroke="#2D2D2D" width="225.71429" x="118.42861" y="586.14284"/>
  <rect fill="#FFEBA2" height="22.85714" id="9486e69e2888432ba9c9cc80adc3355e-ao-15" stroke="#2D2D2D" width="245.71429" x="101.28575" y="634.71427"/>
  <rect fill="#FFEBA2" height="25.71429" id="9486e69e2888432ba9c9cc80adc3355e-ao-16" stroke="#2D2D2D" width="268.57144" x="84.14289" y="674.71427"/>
  <rect fill="#FFEBA2" height="28.57143" id="9486e69e2888432ba9c9cc80adc3355e-ao-17" stroke="#2D2D2D" width="222.85715" x="155.57147" y="720.42855"/>
  <rect fill="#FFEBA2" height="31.42857" id="9486e69e2888432ba9c9cc80adc3355e-ao-18" stroke="#2D2D2D" width="122.85715" x="244.1429" y="766.14284"/>
  <rect class="qshape" fill="#FF7E7E" height="27.98702" id="9486e69e2888432ba9c9cc80adc3355e-ao-19" stroke="#2D2D2D" width="322.85715" x="64.14289" y="808.99999"/>
 </g>
</svg>