<svg height="1005.0000000000001" width="1536" xmlns="http://www.w3.org/2000/svg">
 <!-- Created with Image Occlusion Enhanced -->
 <g>
  <title>Labels</title>
 </g>
 <g>
  <title>Masks</title>
  <rect fill="#FFEBA2" height="54.28572" id="965e172111d440bab1879f2fb9e6fbd2-ao-1" stroke="#2D2D2D" width="180.00001" x="192.57151" y="33.57141"/>
  <rect fill="#FFEBA2" height="31.42857" id="965e172111d440bab1879f2fb9e6fbd2-ao-2" stroke="#2D2D2D" width="342.85716" x="192.57151" y="127.85713"/>
  <rect fill="#FFEBA2" height="74.28572" id="965e172111d440bab1879f2fb9e6fbd2-ao-3" stroke="#2D2D2D" width="302.85716" x="1089.7144" y="153.57141"/>
  <rect fill="#FFEBA2" height="60" id="965e172111d440bab1879f2fb9e6fbd2-ao-4" stroke="#2D2D2D" width="288.57144" x="189.71436" y="187.85713"/>
  <rect fill="#FFEBA2" height="54.28572" id="965e172111d440bab1879f2fb9e6fbd2-ao-5" stroke="#2D2D2D" width="277.14287" x="1086.85726" y="262.14285"/>
  <rect fill="#FFEBA2" height="80" id="965e172111d440bab1879f2fb9e6fbd2-ao-6" stroke="#2D2D2D" width="234.28572" x="189.71436" y="273.57142"/>
  <rect fill="#FFEBA2" height="54.28572" id="965e172111d440bab1879f2fb9e6fbd2-ao-7" stroke="#2D2D2D" width="174.28572" x="1149.71441" y="356.42856"/>
  <rect class="qshape" fill="#FF7E7E" height="48.57143" id="965e172111d440bab1879f2fb9e6fbd2-ao-8" stroke="#2D2D2D" width="214.28572" x="192.57151" y="379.28571"/>
  <rect fill="#FFEBA2" height="71.42857" id="965e172111d440bab1879f2fb9e6fbd2-ao-9" stroke="#2D2D2D" width="245.7143" x="1146.85726" y="433.57143"/>
  <rect fill="#FFEBA2" height="51.42857" id="965e172111d440bab1879f2fb9e6fbd2-ao-10" stroke="#2D2D2D" width="228.57144" x="189.71436" y="467.85714"/>
  <rect fill="#FFEBA2" height="34.28572" id="965e172111d440bab1879f2fb9e6fbd2-ao-11" stroke="#2D2D2D" width="320.00001" x="1086.85726" y="576.42857"/>
  <rect fill="#FFEBA2" height="102.85715" id="965e172111d440bab1879f2fb9e6fbd2-ao-12" stroke="#2D2D2D" width="274.28573" x="198.28579" y="550.71429"/>
  <rect fill="#FFEBA2" height="51.42857" id="965e172111d440bab1879f2fb9e6fbd2-ao-13" stroke="#2D2D2D" width="331.42859" x="1006.85726" y="670.71429"/>
  <rect fill="#FFEBA2" height="40" id="965e172111d440bab1879f2fb9e6fbd2-ao-14" stroke="#2D2D2D" width="440.00002" x="904.00011" y="736.42858"/>
  <rect fill="#FFEBA2" height="37.14286" id="965e172111d440bab1879f2fb9e6fbd2-ao-15" stroke="#2D2D2D" width="537.14288" x="841.14297" y="787.85716"/>
  <rect fill="#FFEBA2" height="37.14286" id="965e172111d440bab1879f2fb9e6fbd2-ao-16" stroke="#2D2D2D" width="460.00002" x="761.14296" y="850.7143"/>
  <rect fill="#FFEBA2" height="51.42857" id="965e172111d440bab1879f2fb9e6fbd2-ao-17" stroke="#2D2D2D" width="131.42858" x="209.71436" y="813.57144"/>
  <rect fill="#FFEBA2" height="28.57143" id="965e172111d440bab1879f2fb9e6fbd2-ao-18" stroke="#2D2D2D" width="260.00001" x="764.0001" y="893.57145"/>
  <rect fill="#FFEBA2" height="34.28572" id="965e172111d440bab1879f2fb9e6fbd2-ao-19" stroke="#2D2D2D" width="254.28573" x="766.85725" y="939.28573"/>
 </g>
</svg>