<svg height="1684" width="1527" xmlns="http://www.w3.org/2000/svg">
 <!-- Created with Image Occlusion Enhanced -->
 <g>
  <title>Labels</title>
 </g>
 <g>
  <title>Masks</title>
  <rect fill="#FFEBA2" height="28.57143" id="96e86526d390409583773912567a6efe-ao-1" stroke="#2D2D2D" width="262.85714" x="397.28567" y="70.28563"/>
  <rect fill="#FFEBA2" height="31.42857" id="96e86526d390409583773912567a6efe-ao-2" stroke="#2D2D2D" width="151.42857" x="997.28566" y="55.99991"/>
  <rect fill="#FFEBA2" height="28.57143" id="96e86526d390409583773912567a6efe-ao-3" stroke="#2D2D2D" width="200" x="454.42853" y="104.57134"/>
  <rect fill="#FFEBA2" height="22.85714" id="96e86526d390409583773912567a6efe-ao-4" stroke="#2D2D2D" width="165.71428" x="1014.42851" y="115.99991"/>
  <rect fill="#FFEBA2" height="28.57143" id="96e86526d390409583773912567a6efe-ao-5" stroke="#2D2D2D" width="245.71428" x="1017.28566" y="164.57134"/>
  <rect fill="#FFEBA2" height="31.42857" id="96e86526d390409583773912567a6efe-ao-6" stroke="#2D2D2D" width="311.42856" x="308.71424" y="184.57134"/>
  <rect fill="#FFEBA2" height="25.71429" id="96e86526d390409583773912567a6efe-ao-7" stroke="#2D2D2D" width="137.14285" x="1014.42851" y="204.57134"/>
  <rect fill="#FFEBA2" height="28.57143" id="96e86526d390409583773912567a6efe-ao-8" stroke="#2D2D2D" width="188.57142" x="388.71424" y="230.28562"/>
  <rect fill="#FFEBA2" height="28.57143" id="96e86526d390409583773912567a6efe-ao-9" stroke="#2D2D2D" width="242.85714" x="1017.28566" y="253.14277"/>
  
  <rect fill="#FFEBA2" height="28.57143" id="96e86526d390409583773912567a6efe-ao-11" stroke="#2D2D2D" width="237.14285" x="1014.42851" y="347.42848"/>
  <rect fill="#FFEBA2" height="31.42857" id="96e86526d390409583773912567a6efe-ao-12" stroke="#2D2D2D" width="148.57143" x="1117.28565" y="478.85705"/>
  <rect fill="#FFEBA2" height="25.71429" id="96e86526d390409583773912567a6efe-ao-13" stroke="#2D2D2D" width="174.28571" x="305.8571" y="510.28562"/>
  <rect fill="#FFEBA2" height="31.42857" id="96e86526d390409583773912567a6efe-ao-14" stroke="#2D2D2D" width="177.14285" x="300.14282" y="590.28562"/>
  <rect fill="#FFEBA2" height="48.57143" id="96e86526d390409583773912567a6efe-ao-15" stroke="#2D2D2D" width="271.42857" x="1120.1428" y="721.71418"/>
  <rect fill="#FFEBA2" height="34.28571" id="96e86526d390409583773912567a6efe-ao-16" stroke="#2D2D2D" width="140" x="1114.42851" y="950.28561"/>
  <rect fill="#FFEBA2" height="34.28571" id="96e86526d390409583773912567a6efe-ao-17" stroke="#2D2D2D" width="262.85714" x="1117.28565" y="1058.85703"/>
  <rect fill="#FFEBA2" height="28.57143" id="96e86526d390409583773912567a6efe-ao-18" stroke="#2D2D2D" width="345.71428" x="140.14282" y="1355.99988"/>
  <rect fill="#FFEBA2" height="28.57143" id="96e86526d390409583773912567a6efe-ao-19" stroke="#2D2D2D" width="259.99999" x="222.99996" y="1427.42845"/>
  <rect fill="#FFEBA2" height="34.28571" id="96e86526d390409583773912567a6efe-ao-20" stroke="#2D2D2D" width="180" x="1020.1428" y="1435.99988"/>
 </g>
</svg>