<svg height="789" width="1319" xmlns="http://www.w3.org/2000/svg">
 <!-- Created with Image Occlusion Enhanced -->
 <g>
  <title>Labels</title>
 </g>
 <g>
  <title>Masks</title>
  <rect fill="#FFEBA2" height="28.57143" id="99f54a6b11934151b0645f039f7f4860-ao-1" stroke="#2D2D2D" width="222.85715" x="929.57146" y="39.57145"/>
  <rect fill="#FFEBA2" height="28.57143" id="99f54a6b11934151b0645f039f7f4860-ao-2" stroke="#2D2D2D" width="217.14286" x="975.28575" y="82.42859"/>
  <rect fill="#FFEBA2" height="31.42857" id="99f54a6b11934151b0645f039f7f4860-ao-3" stroke="#2D2D2D" width="214.28572" x="1032.42861" y="125.28573"/>
  <rect fill="#FFEBA2" height="31.42857" id="99f54a6b11934151b0645f039f7f4860-ao-4" stroke="#2D2D2D" width="248.57143" x="129.57144" y="159.57145"/>
  <rect fill="#FFEBA2" height="51.42857" id="99f54a6b11934151b0645f039f7f4860-ao-5" stroke="#2D2D2D" width="157.14286" x="1126.71432" y="159.57145"/>
  <rect fill="#FFEBA2" height="31.42857" id="99f54a6b11934151b0645f039f7f4860-ao-6" stroke="#2D2D2D" width="220" x="29.57144" y="251.00002"/>
  <rect fill="#FFEBA2" height="45.71429" id="99f54a6b11934151b0645f039f7f4860-ao-7" stroke="#2D2D2D" width="142.85715" x="1115.28575" y="259.57145"/>
  <rect class="qshape" fill="#FF7E7E" height="45.71429" id="99f54a6b11934151b0645f039f7f4860-ao-8" stroke="#2D2D2D" width="182.85715" x="29.57144" y="319.57145"/>
  <rect fill="#FFEBA2" height="54.28572" id="99f54a6b11934151b0645f039f7f4860-ao-9" stroke="#2D2D2D" width="188.57143" x="1106.71432" y="351.00003"/>
  <rect fill="#FFEBA2" height="48.57143" id="99f54a6b11934151b0645f039f7f4860-ao-10" stroke="#2D2D2D" width="217.14286" x="29.57144" y="411.00003"/>
  <rect fill="#FFEBA2" height="28.57143" id="99f54a6b11934151b0645f039f7f4860-ao-11" stroke="#2D2D2D" width="137.14286" x="29.57144" y="502.4286"/>
  <rect fill="#FFEBA2" height="68.57143" id="99f54a6b11934151b0645f039f7f4860-ao-12" stroke="#2D2D2D" width="182.85715" x="472.42859" y="699.57146"/>
  <rect fill="#FFEBA2" height="77.14286" id="99f54a6b11934151b0645f039f7f4860-ao-13" stroke="#2D2D2D" width="148.57143" x="703.85717" y="679.57146"/>
  <rect fill="#FFEBA2" height="54.28572" id="99f54a6b11934151b0645f039f7f4860-ao-14" stroke="#2D2D2D" width="157.14286" x="898.14289" y="699.57146"/>
  <rect fill="#FFEBA2" height="80" id="99f54a6b11934151b0645f039f7f4860-ao-15" stroke="#2D2D2D" width="211.42858" x="1081.00004" y="642.4286"/>
 </g>
</svg>