<svg height="1435" width="1535.9999999999998" xmlns="http://www.w3.org/2000/svg">
 <!-- Created with Image Occlusion Enhanced -->
 <g>
  <title>Labels</title>
 </g>
 <g>
  <title>Masks</title>
  <rect fill="#FFEBA2" height="28.57143" id="9f4a0bb4e05647079ad371f90f1fea4c-ao-1" stroke="#2D2D2D" width="214.28572" x="645.42867" y="194.99998"/>
  <rect fill="#FFEBA2" height="28.57143" id="9f4a0bb4e05647079ad371f90f1fea4c-ao-2" stroke="#2D2D2D" width="177.14287" x="1222.57155" y="409.2857"/>
  <rect fill="#FFEBA2" height="51.42857" id="9f4a0bb4e05647079ad371f90f1fea4c-ao-3" stroke="#2D2D2D" width="268.57144" x="1105.42869" y="489.2857"/>
  <rect fill="#FFEBA2" height="28.57143" id="9f4a0bb4e05647079ad371f90f1fea4c-ao-4" stroke="#2D2D2D" width="131.42858" x="139.71436" y="512.14285"/>
  <rect fill="#FFEBA2" height="71.42857" id="9f4a0bb4e05647079ad371f90f1fea4c-ao-5" stroke="#2D2D2D" width="211.42858" x="145.42865" y="572.14285"/>
  <rect fill="#FFEBA2" height="25.71429" id="9f4a0bb4e05647079ad371f90f1fea4c-ao-6" stroke="#2D2D2D" width="248.57144" x="1051.14297" y="603.57142"/>
  <rect fill="#FFEBA2" height="22.85714" id="9f4a0bb4e05647079ad371f90f1fea4c-ao-7" stroke="#2D2D2D" width="182.85715" x="279.71437" y="672.14286"/>
  <rect fill="#FFEBA2" height="25.71429" id="9f4a0bb4e05647079ad371f90f1fea4c-ao-8" stroke="#2D2D2D" width="242.85715" x="199.71436" y="732.14286"/>
  <rect fill="#FFEBA2" height="45.71429" id="9f4a0bb4e05647079ad371f90f1fea4c-ao-9" stroke="#2D2D2D" width="265.7143" x="145.42865" y="792.14286"/>
  <rect fill="#FFEBA2" height="45.71429" id="9f4a0bb4e05647079ad371f90f1fea4c-ao-10" stroke="#2D2D2D" width="251.42858" x="1094.00012" y="786.42857"/>
  <rect fill="#FFEBA2" height="74.28572" id="9f4a0bb4e05647079ad371f90f1fea4c-ao-11" stroke="#2D2D2D" width="182.85715" x="1176.85727" y="895.00001"/>
  <rect fill="#FFEBA2" height="71.42857" id="9f4a0bb4e05647079ad371f90f1fea4c-ao-12" stroke="#2D2D2D" width="194.28572" x="145.42865" y="895.00001"/>
  <rect fill="#FFEBA2" height="48.57143" id="9f4a0bb4e05647079ad371f90f1fea4c-ao-13" stroke="#2D2D2D" width="200.00001" x="1188.28584" y="1035.00001"/>
  <rect fill="#FFEBA2" height="71.42857" id="9f4a0bb4e05647079ad371f90f1fea4c-ao-14" stroke="#2D2D2D" width="194.28572" x="148.28579" y="1072.14287"/>
  <rect fill="#FFEBA2" height="45.71429" id="9f4a0bb4e05647079ad371f90f1fea4c-ao-15" stroke="#2D2D2D" width="254.28573" x="1136.85726" y="1272.14288"/>
  <rect fill="#FFEBA2" height="45.71429" id="9f4a0bb4e05647079ad371f90f1fea4c-ao-16" stroke="#2D2D2D" width="268.57144" x="1025.42869" y="1372.14289"/>
  <rect class="qshape" fill="#FF7E7E" height="51.42857" id="9f4a0bb4e05647079ad371f90f1fea4c-ao-17" stroke="#2D2D2D" width="240.00001" x="145.42865" y="1386.4286"/>
 </g>
</svg>