<svg height="572" width="858.0000000000001" xmlns="http://www.w3.org/2000/svg">
 <!-- Created with Image Occlusion Enhanced -->
 <g>
  <title>Labels</title>
 </g>
 <g>
  <title>Masks</title>
  <rect fill="#FFEBA2" height="30" id="a0334a34993647a2830b1e1467bff7b6-ao-1" stroke="#2D2D2D" width="242.5" x="475.74995" y="47.99999"/>
  <rect fill="#FFEBA2" height="27.5" id="a0334a34993647a2830b1e1467bff7b6-ao-2" stroke="#2D2D2D" width="102.5" x="160.74996" y="72.99999"/>
  <rect fill="#FFEBA2" height="30" id="a0334a34993647a2830b1e1467bff7b6-ao-3" stroke="#2D2D2D" width="170" x="590.74995" y="90.49999"/>
  <rect fill="#FFEBA2" height="50" id="a0334a34993647a2830b1e1467bff7b6-ao-4" stroke="#2D2D2D" width="205" x="38.24996" y="117.99999"/>
  <rect fill="#FFEBA2" height="30" id="a0334a34993647a2830b1e1467bff7b6-ao-5" stroke="#2D2D2D" width="235" x="608.24995" y="140.49999"/>
  <rect fill="#FFEBA2" height="30" id="a0334a34993647a2830b1e1467bff7b6-ao-6" stroke="#2D2D2D" width="160" x="40.74996" y="182.99999"/>
  <rect fill="#FFEBA2" height="52.5" id="a0334a34993647a2830b1e1467bff7b6-ao-7" stroke="#2D2D2D" width="215" x="600.74995" y="182.99999"/>
  <rect fill="#FFEBA2" height="50" id="a0334a34993647a2830b1e1467bff7b6-ao-8" stroke="#2D2D2D" width="205" x="38.24996" y="227.99999"/>
  <rect fill="#FFEBA2" height="52.5" id="a0334a34993647a2830b1e1467bff7b6-ao-9" stroke="#2D2D2D" width="227.5" x="598.24995" y="250.49999"/>
  <rect fill="#FFEBA2" height="47.5" id="a0334a34993647a2830b1e1467bff7b6-ao-10" stroke="#2D2D2D" width="207.5" x="40.74996" y="290.49999"/>
  <rect fill="#FFEBA2" height="52.5" id="a0334a34993647a2830b1e1467bff7b6-ao-11" stroke="#2D2D2D" width="215" x="595.74995" y="317.99999"/>
  
  <rect fill="#FFEBA2" height="50" id="a0334a34993647a2830b1e1467bff7b6-ao-13" stroke="#2D2D2D" width="215" x="555.74995" y="387.99999"/>
  <rect fill="#FFEBA2" height="32.5" id="a0334a34993647a2830b1e1467bff7b6-ao-14" stroke="#2D2D2D" width="285" x="40.74996" y="412.99999"/>
  <rect fill="#FFEBA2" height="52.5" id="a0334a34993647a2830b1e1467bff7b6-ao-15" stroke="#2D2D2D" width="220" x="543.24995" y="455.49999"/>
  <rect fill="#FFEBA2" height="50" id="a0334a34993647a2830b1e1467bff7b6-ao-16" stroke="#2D2D2D" width="285" x="58.24996" y="460.49999"/>
 </g>
</svg>