<svg height="957" width="1293" xmlns="http://www.w3.org/2000/svg">
 <!-- Created with Image Occlusion Enhanced -->
 <g>
  <title>Labels</title>
 </g>
 <g>
  <title>Masks</title>
  <rect fill="#FFEBA2" height="27.5" id="a4678b78377a424684451701f4594fee-ao-1" stroke="#2D2D2D" width="165.00001" x="238.24994" y="19.25003"/>
  <rect fill="#FFEBA2" height="30" id="a4678b78377a424684451701f4594fee-ao-2" stroke="#2D2D2D" width="185.00001" x="900.74996" y="9.25003"/>
  <rect fill="#FFEBA2" height="47.5" id="a4678b78377a424684451701f4594fee-ao-3" stroke="#2D2D2D" width="242.50001" x="88.24994" y="69.25003"/>
  <rect fill="#FFEBA2" height="27.5" id="a4678b78377a424684451701f4594fee-ao-4" stroke="#2D2D2D" width="230.00001" x="960.74996" y="56.75003"/>
  <rect fill="#FFEBA2" height="22.5" id="a4678b78377a424684451701f4594fee-ao-5" stroke="#2D2D2D" width="167.50001" x="993.24997" y="99.25003"/>
  <rect fill="#FFEBA2" height="47.5" id="a4678b78377a424684451701f4594fee-ao-6" stroke="#2D2D2D" width="197.50001" x="73.24994" y="139.25003"/>
  <rect fill="#FFEBA2" height="27.5" id="a4678b78377a424684451701f4594fee-ao-7" stroke="#2D2D2D" width="225.00001" x="1028.24997" y="139.25003"/>
  <rect fill="#FFEBA2" height="25" id="a4678b78377a424684451701f4594fee-ao-8" stroke="#2D2D2D" width="177.50001" x="1043.24997" y="186.75004"/>
  <rect fill="#FFEBA2" height="25" id="a4678b78377a424684451701f4594fee-ao-9" stroke="#2D2D2D" width="155" x="100.74994" y="206.75004"/>
  <rect fill="#FFEBA2" height="50" id="a4678b78377a424684451701f4594fee-ao-10" stroke="#2D2D2D" width="177.50001" x="1063.24997" y="229.25004"/>
  <rect fill="#FFEBA2" height="45" id="a4678b78377a424684451701f4594fee-ao-11" stroke="#2D2D2D" width="212.50001" x="20.74993" y="276.75004"/>
  <rect fill="#FFEBA2" height="47.5" id="a4678b78377a424684451701f4594fee-ao-12" stroke="#2D2D2D" width="197.50001" x="1065.74997" y="296.75004"/>
  <rect fill="#FFEBA2" height="70" id="a4678b78377a424684451701f4594fee-ao-13" stroke="#2D2D2D" width="225.00001" x="40.74993" y="344.25004"/>
  <rect fill="#FFEBA2" height="72.5" id="a4678b78377a424684451701f4594fee-ao-14" stroke="#2D2D2D" width="187.50001" x="1070.74997" y="359.25004"/>
  <rect fill="#FFEBA2" height="50" id="a4678b78377a424684451701f4594fee-ao-15" stroke="#2D2D2D" width="167.50001" x="45.74994" y="439.25004"/>
  <rect fill="#FFEBA2" height="47.5" id="a4678b78377a424684451701f4594fee-ao-16" stroke="#2D2D2D" width="155" x="1073.24997" y="449.25004"/>
  <rect fill="#FFEBA2" height="50" id="a4678b78377a424684451701f4594fee-ao-17" stroke="#2D2D2D" width="135" x="90.74994" y="509.25005"/>
  <rect fill="#FFEBA2" height="45" id="a4678b78377a424684451701f4594fee-ao-18" stroke="#2D2D2D" width="182.50001" x="1065.74997" y="516.75005"/>
  <rect fill="#FFEBA2" height="75" id="a4678b78377a424684451701f4594fee-ao-19" stroke="#2D2D2D" width="185.00001" x="38.24993" y="576.75005"/>
  <rect fill="#FFEBA2" height="47.5" id="a4678b78377a424684451701f4594fee-ao-20" stroke="#2D2D2D" width="190.00001" x="1048.24997" y="584.25005"/>
  <rect fill="#FFEBA2" height="27.5" id="a4678b78377a424684451701f4594fee-ao-21" stroke="#2D2D2D" width="252.50001" x="1003.24997" y="646.75005"/>
  <rect fill="#FFEBA2" height="25" id="a4678b78377a424684451701f4594fee-ao-22" stroke="#2D2D2D" width="267.50001" x="990.74997" y="689.25005"/>
  <rect fill="#FFEBA2" height="100" id="a4678b78377a424684451701f4594fee-ao-23" stroke="#2D2D2D" width="235.00001" x="33.24993" y="666.75005"/>
  <rect fill="#FFEBA2" height="27.5" id="a4678b78377a424684451701f4594fee-ao-24" stroke="#2D2D2D" width="190.00001" x="978.24996" y="734.25005"/>
  <rect fill="#FFEBA2" height="27.5" id="a4678b78377a424684451701f4594fee-ao-25" stroke="#2D2D2D" width="297.50001" x="35.74993" y="784.25006"/>
  <rect fill="#FFEBA2" height="22.5" id="a4678b78377a424684451701f4594fee-ao-26" stroke="#2D2D2D" width="160.00001" x="933.24996" y="801.75006"/>
  <rect fill="#FFEBA2" height="27.5" id="a4678b78377a424684451701f4594fee-ao-27" stroke="#2D2D2D" width="305.00001" x="75.74994" y="831.75006"/>
  <rect fill="#FFEBA2" height="30" id="a4678b78377a424684451701f4594fee-ao-28" stroke="#2D2D2D" width="325.00001" x="870.74996" y="841.75006"/>
  
  <rect fill="#FFEBA2" height="25" id="a4678b78377a424684451701f4594fee-ao-30" stroke="#2D2D2D" width="205.00001" x="793.24996" y="886.75006"/>
  <rect fill="#FFEBA2" height="25" id="a4678b78377a424684451701f4594fee-ao-31" stroke="#2D2D2D" width="215.00001" x="305.74994" y="924.25006"/>
 </g>
</svg>