<svg height="1362" width="1535.9999999999998" xmlns="http://www.w3.org/2000/svg">
 <!-- Created with Image Occlusion Enhanced -->
 <g>
  <title>Labels</title>
 </g>
 <g>
  <title>Masks</title>
  <rect fill="#FFEBA2" height="25.71429" id="a4976a22fcfd4e83896e2f31aedd187d-ao-1" stroke="#2D2D2D" width="108.57143" x="618.28581" y="9.42849"/>
  <rect fill="#FFEBA2" height="31.42857" id="a4976a22fcfd4e83896e2f31aedd187d-ao-2" stroke="#2D2D2D" width="137.14286" x="789.71439" y="12.28563"/>
  <rect fill="#FFEBA2" height="25.71429" id="a4976a22fcfd4e83896e2f31aedd187d-ao-3" stroke="#2D2D2D" width="85.71429" x="589.71438" y="55.14278"/>
  <rect fill="#FFEBA2" height="28.57143" id="a4976a22fcfd4e83896e2f31aedd187d-ao-4" stroke="#2D2D2D" width="268.57144" x="861.14297" y="75.14278"/>
  <rect fill="#FFEBA2" height="25.71429" id="a4976a22fcfd4e83896e2f31aedd187d-ao-5" stroke="#2D2D2D" width="234.28572" x="398.2858" y="89.42849"/>
  <rect fill="#FFEBA2" height="31.42857" id="a4976a22fcfd4e83896e2f31aedd187d-ao-6" stroke="#2D2D2D" width="228.57144" x="904.00011" y="120.85707"/>
  <rect fill="#FFEBA2" height="25.71429" id="a4976a22fcfd4e83896e2f31aedd187d-ao-7" stroke="#2D2D2D" width="211.42858" x="335.42866" y="132.28564"/>
  <rect fill="#FFEBA2" height="25.71429" id="a4976a22fcfd4e83896e2f31aedd187d-ao-8" stroke="#2D2D2D" width="237.14287" x="941.14297" y="175.14278"/>
  <rect fill="#FFEBA2" height="25.71429" id="a4976a22fcfd4e83896e2f31aedd187d-ao-9" stroke="#2D2D2D" width="291.42858" x="221.14294" y="175.14278"/>
  <rect fill="#FFEBA2" height="28.57143" id="a4976a22fcfd4e83896e2f31aedd187d-ao-10" stroke="#2D2D2D" width="234.28572" x="969.7144" y="217.99993"/>
  <rect fill="#FFEBA2" height="22.85714" id="a4976a22fcfd4e83896e2f31aedd187d-ao-11" stroke="#2D2D2D" width="82.85715" x="358.2858" y="215.14278"/>
  <rect fill="#FFEBA2" height="25.71429" id="a4976a22fcfd4e83896e2f31aedd187d-ao-12" stroke="#2D2D2D" width="174.28572" x="189.71436" y="249.4285"/>
  <rect fill="#FFEBA2" height="28.57143" id="a4976a22fcfd4e83896e2f31aedd187d-ao-13" stroke="#2D2D2D" width="174.28572" x="1001.14297" y="260.85707"/>
  
  <rect fill="#FFEBA2" height="48.57143" id="a4976a22fcfd4e83896e2f31aedd187d-ao-15" stroke="#2D2D2D" width="85.71429" x="1266.85727" y="340.85708"/>
  <rect fill="#FFEBA2" height="42.85714" id="a4976a22fcfd4e83896e2f31aedd187d-ao-16" stroke="#2D2D2D" width="82.85715" x="184.00008" y="377.99993"/>
  <rect fill="#FFEBA2" height="45.71429" id="a4976a22fcfd4e83896e2f31aedd187d-ao-17" stroke="#2D2D2D" width="97.14286" x="1264.00013" y="423.71422"/>
  <rect fill="#FFEBA2" height="51.42857" id="a4976a22fcfd4e83896e2f31aedd187d-ao-18" stroke="#2D2D2D" width="134.28572" x="129.71436" y="449.42851"/>
  <rect fill="#FFEBA2" height="97.14286" id="a4976a22fcfd4e83896e2f31aedd187d-ao-19" stroke="#2D2D2D" width="137.14286" x="1266.85727" y="497.99994"/>
  <rect fill="#FFEBA2" height="51.42857" id="a4976a22fcfd4e83896e2f31aedd187d-ao-20" stroke="#2D2D2D" width="137.14286" x="132.5715" y="523.71423"/>
  <rect fill="#FFEBA2" height="94.28572" id="a4976a22fcfd4e83896e2f31aedd187d-ao-21" stroke="#2D2D2D" width="134.28572" x="1266.85727" y="629.42852"/>
  <rect fill="#FFEBA2" height="68.57143" id="a4976a22fcfd4e83896e2f31aedd187d-ao-22" stroke="#2D2D2D" width="85.71429" x="181.14294" y="617.99994"/>
  <rect fill="#FFEBA2" height="48.57143" id="a4976a22fcfd4e83896e2f31aedd187d-ao-23" stroke="#2D2D2D" width="117.14286" x="1261.14298" y="749.42852"/>
  <rect fill="#FFEBA2" height="51.42857" id="a4976a22fcfd4e83896e2f31aedd187d-ao-24" stroke="#2D2D2D" width="105.71429" x="161.14293" y="712.28566"/>
  <rect fill="#FFEBA2" height="31.42857" id="a4976a22fcfd4e83896e2f31aedd187d-ao-25" stroke="#2D2D2D" width="97.14286" x="1261.14298" y="823.71424"/>
  <rect fill="#FFEBA2" height="31.42857" id="a4976a22fcfd4e83896e2f31aedd187d-ao-26" stroke="#2D2D2D" width="102.85715" x="164.00008" y="786.57138"/>
  <rect fill="#FFEBA2" height="74.28572" id="a4976a22fcfd4e83896e2f31aedd187d-ao-27" stroke="#2D2D2D" width="125.71429" x="1264.00013" y="875.14281"/>
  <rect fill="#FFEBA2" height="48.57143" id="a4976a22fcfd4e83896e2f31aedd187d-ao-28" stroke="#2D2D2D" width="114.28572" x="158.28579" y="846.57138"/>
  <rect fill="#FFEBA2" height="28.57143" id="a4976a22fcfd4e83896e2f31aedd187d-ao-29" stroke="#2D2D2D" width="120.00001" x="144.00008" y="932.28567"/>
  <rect fill="#FFEBA2" height="28.57143" id="a4976a22fcfd4e83896e2f31aedd187d-ao-30" stroke="#2D2D2D" width="122.85715" x="1261.14298" y="980.8571"/>
  <rect fill="#FFEBA2" height="54.28572" id="a4976a22fcfd4e83896e2f31aedd187d-ao-31" stroke="#2D2D2D" width="114.28572" x="149.71436" y="977.99996"/>
  <rect fill="#FFEBA2" height="77.14286" id="a4976a22fcfd4e83896e2f31aedd187d-ao-32" stroke="#2D2D2D" width="151.42858" x="1261.14298" y="1023.71425"/>
  <rect fill="#FFEBA2" height="65.71429" id="a4976a22fcfd4e83896e2f31aedd187d-ao-33" stroke="#2D2D2D" width="120.00001" x="149.71436" y="1060.85711"/>
  <rect fill="#FFEBA2" height="31.42857" id="a4976a22fcfd4e83896e2f31aedd187d-ao-34" stroke="#2D2D2D" width="140.00001" x="1261.14298" y="1112.28568"/>
  <rect fill="#FFEBA2" height="71.42857" id="a4976a22fcfd4e83896e2f31aedd187d-ao-35" stroke="#2D2D2D" width="120.00001" x="1261.14298" y="1180.85711"/>
  <rect fill="#FFEBA2" height="25.71429" id="a4976a22fcfd4e83896e2f31aedd187d-ao-36" stroke="#2D2D2D" width="54.28572" x="421.14295" y="1215.14283"/>
  <rect fill="#FFEBA2" height="28.57143" id="a4976a22fcfd4e83896e2f31aedd187d-ao-37" stroke="#2D2D2D" width="91.42858" x="1052.57155" y="1209.42854"/>
  <rect fill="#FFEBA2" height="28.57143" id="a4976a22fcfd4e83896e2f31aedd187d-ao-38" stroke="#2D2D2D" width="180.00001" x="444.00009" y="1252.28569"/>
  <rect fill="#FFEBA2" height="28.57143" id="a4976a22fcfd4e83896e2f31aedd187d-ao-39" stroke="#2D2D2D" width="145.71429" x="904.00011" y="1246.5714"/>
  <rect fill="#FFEBA2" height="25.71429" id="a4976a22fcfd4e83896e2f31aedd187d-ao-40" stroke="#2D2D2D" width="182.85715" x="512.57152" y="1292.28569"/>
  <rect fill="#FFEBA2" height="25.71429" id="a4976a22fcfd4e83896e2f31aedd187d-ao-41" stroke="#2D2D2D" width="345.7143" x="846.85725" y="1292.28569"/>
  <rect fill="#FFEBA2" height="25.71429" id="a4976a22fcfd4e83896e2f31aedd187d-ao-42" stroke="#2D2D2D" width="120.00001" x="618.28581" y="1323.71426"/>
  <rect fill="#FFEBA2" height="25.71429" id="a4976a22fcfd4e83896e2f31aedd187d-ao-43" stroke="#2D2D2D" width="262.85715" x="789.71439" y="1326.57141"/>
 </g>
</svg>