<svg height="473" width="1141" xmlns="http://www.w3.org/2000/svg">
 <!-- Created with Image Occlusion Enhanced -->
 <g>
  <title>Labels</title>
 </g>
 <g>
  <title>Masks</title>
  <rect fill="#FFEBA2" height="25" id="a55b29a2930141d2a23d045a61f7ebc0-ao-1" stroke="#2D2D2D" width="211.11111" x="161.77773" y="54.77778"/>
  <rect fill="#FFEBA2" height="47.22222" id="a55b29a2930141d2a23d045a61f7ebc0-ao-2" stroke="#2D2D2D" width="233.33334" x="875.66663" y="18.66667"/>
  <rect fill="#FFEBA2" height="22.22222" id="a55b29a2930141d2a23d045a61f7ebc0-ao-3" stroke="#2D2D2D" width="194.44445" x="172.88885" y="93.66667"/>
  <rect fill="#FFEBA2" height="47.22222" id="a55b29a2930141d2a23d045a61f7ebc0-ao-4" stroke="#2D2D2D" width="225" x="875.66663" y="85.33334"/>
  <rect fill="#FFEBA2" height="25" id="a55b29a2930141d2a23d045a61f7ebc0-ao-5" stroke="#2D2D2D" width="230.55556" x="136.77773" y="129.77778"/>
  <rect fill="#FFEBA2" height="25" id="a55b29a2930141d2a23d045a61f7ebc0-ao-6" stroke="#2D2D2D" width="263.88889" x="103.4444" y="165.88889"/>
  <rect fill="#FFEBA2" height="27.77778" id="a55b29a2930141d2a23d045a61f7ebc0-ao-7" stroke="#2D2D2D" width="261.11111" x="836.77774" y="152"/>
  <rect fill="#FFEBA2" height="27.77778" id="a55b29a2930141d2a23d045a61f7ebc0-ao-8" stroke="#2D2D2D" width="358.33334" x="8.99996" y="204.77778"/>
  <rect fill="#FFEBA2" height="44.44444" id="a55b29a2930141d2a23d045a61f7ebc0-ao-9" stroke="#2D2D2D" width="230.55556" x="856.22218" y="202"/>
  <rect fill="#FFEBA2" height="25" id="a55b29a2930141d2a23d045a61f7ebc0-ao-10" stroke="#2D2D2D" width="222.22222" x="142.33329" y="240.88889"/>
  <rect fill="#FFEBA2" height="25" id="a55b29a2930141d2a23d045a61f7ebc0-ao-11" stroke="#2D2D2D" width="186.11111" x="175.66662" y="277.00001"/>
  <rect fill="#FFEBA2" height="27.77778" id="a55b29a2930141d2a23d045a61f7ebc0-ao-12" stroke="#2D2D2D" width="188.88889" x="175.66662" y="313.11112"/>
  <rect fill="#FFEBA2" height="25" id="a55b29a2930141d2a23d045a61f7ebc0-ao-13" stroke="#2D2D2D" width="197.22222" x="128.4444" y="354.77778"/>
  <rect fill="#FFEBA2" height="22.22222" id="a55b29a2930141d2a23d045a61f7ebc0-ao-14" stroke="#2D2D2D" width="236.1111" x="900.66663" y="343.66667"/>
  <rect fill="#FFEBA2" height="25" id="a55b29a2930141d2a23d045a61f7ebc0-ao-15" stroke="#2D2D2D" width="288.88889" x="33.99996" y="399.22223"/>
  <rect class="qshape" fill="#FF7E7E" height="30.55556" id="a55b29a2930141d2a23d045a61f7ebc0-ao-16" stroke="#2D2D2D" width="100" x="217.33329" y="432.55556"/>
  <rect fill="#FFEBA2" height="25" id="a55b29a2930141d2a23d045a61f7ebc0-ao-17" stroke="#2D2D2D" width="186.11111" x="700.66663" y="440.8889"/>
 </g>
</svg>