<svg height="874" width="1385" xmlns="http://www.w3.org/2000/svg">
 <!-- Created with Image Occlusion Enhanced -->
 <g>
  <title>Labels</title>
 </g>
 <g>
  <title>Masks</title>
  <rect fill="#FFEBA2" height="28.57143" id="a7bb1d5bb13848d1b192208b3d478926-ao-1" stroke="#2D2D2D" width="162.85715" x="280.71428" y="24.57145"/>
  <rect class="qshape" fill="#FF7E7E" height="48.57143" id="a7bb1d5bb13848d1b192208b3d478926-ao-2" stroke="#2D2D2D" width="148.57143" x="723.57143" y="27.42859"/>
  <rect fill="#FFEBA2" height="28.57143" id="a7bb1d5bb13848d1b192208b3d478926-ao-3" stroke="#2D2D2D" width="228.57143" x="926.42858" y="30.28573"/>
  <rect fill="#FFEBA2" height="28.57143" id="a7bb1d5bb13848d1b192208b3d478926-ao-4" stroke="#2D2D2D" width="280.00001" x="63.57142" y="81.7143"/>
  <rect fill="#FFEBA2" height="31.42857" id="a7bb1d5bb13848d1b192208b3d478926-ao-5" stroke="#2D2D2D" width="442.85715" x="903.57143" y="104.57145"/>
  <rect fill="#FFEBA2" height="28.57143" id="a7bb1d5bb13848d1b192208b3d478926-ao-6" stroke="#2D2D2D" width="242.85715" x="60.71427" y="170.28574"/>
  <rect fill="#FFEBA2" height="31.42857" id="a7bb1d5bb13848d1b192208b3d478926-ao-7" stroke="#2D2D2D" width="254.28572" x="1029.28572" y="178.85716"/>
  <rect fill="#FFEBA2" height="28.57143" id="a7bb1d5bb13848d1b192208b3d478926-ao-8" stroke="#2D2D2D" width="228.57143" x="63.57142" y="253.14288"/>
  <rect fill="#FFEBA2" height="51.42857" id="a7bb1d5bb13848d1b192208b3d478926-ao-9" stroke="#2D2D2D" width="240" x="1043.57144" y="256.00002"/>
  <rect fill="#FFEBA2" height="45.71429" id="a7bb1d5bb13848d1b192208b3d478926-ao-10" stroke="#2D2D2D" width="225.71429" x="1049.28572" y="338.85717"/>
  <rect fill="#FFEBA2" height="54.28572" id="a7bb1d5bb13848d1b192208b3d478926-ao-11" stroke="#2D2D2D" width="191.42858" x="63.57142" y="330.28574"/>
  <rect fill="#FFEBA2" height="51.42857" id="a7bb1d5bb13848d1b192208b3d478926-ao-12" stroke="#2D2D2D" width="260.00001" x="1035.00001" y="418.85717"/>
  <rect fill="#FFEBA2" height="45.71429" id="a7bb1d5bb13848d1b192208b3d478926-ao-13" stroke="#2D2D2D" width="285.71429" x="60.71427" y="416.00003"/>
  <rect fill="#FFEBA2" height="51.42857" id="a7bb1d5bb13848d1b192208b3d478926-ao-14" stroke="#2D2D2D" width="245.71429" x="1035.00001" y="498.85717"/>
  <rect fill="#FFEBA2" height="48.57143" id="a7bb1d5bb13848d1b192208b3d478926-ao-15" stroke="#2D2D2D" width="262.85715" x="60.71427" y="518.85717"/>
  <rect fill="#FFEBA2" height="74.28572" id="a7bb1d5bb13848d1b192208b3d478926-ao-16" stroke="#2D2D2D" width="317.14286" x="989.28572" y="581.71431"/>
  <rect fill="#FFEBA2" height="68.57143" id="a7bb1d5bb13848d1b192208b3d478926-ao-17" stroke="#2D2D2D" width="380.00001" x="57.85713" y="607.4286"/>
  <rect fill="#FFEBA2" height="51.42857" id="a7bb1d5bb13848d1b192208b3d478926-ao-18" stroke="#2D2D2D" width="325.71429" x="983.57143" y="707.4286"/>
  <rect fill="#FFEBA2" height="31.42857" id="a7bb1d5bb13848d1b192208b3d478926-ao-19" stroke="#2D2D2D" width="254.28572" x="57.85713" y="741.71432"/>
  <rect fill="#FFEBA2" height="25.71429" id="a7bb1d5bb13848d1b192208b3d478926-ao-20" stroke="#2D2D2D" width="131.42857" x="989.28572" y="781.71432"/>
  <rect fill="#FFEBA2" height="31.42857" id="a7bb1d5bb13848d1b192208b3d478926-ao-21" stroke="#2D2D2D" width="240" x="63.57142" y="824.57146"/>
  <rect fill="#FFEBA2" height="31.42857" id="a7bb1d5bb13848d1b192208b3d478926-ao-22" stroke="#2D2D2D" width="222.85715" x="340.71428" y="824.57146"/>
  <rect fill="#FFEBA2" height="25.71429" id="a7bb1d5bb13848d1b192208b3d478926-ao-23" stroke="#2D2D2D" width="128.57143" x="646.42857" y="827.42861"/>
  <rect fill="#FFEBA2" height="31.42857" id="a7bb1d5bb13848d1b192208b3d478926-ao-24" stroke="#2D2D2D" width="248.57143" x="820.71429" y="821.71432"/>
 </g>
</svg>