<svg height="1534" width="1535.9999999999998" xmlns="http://www.w3.org/2000/svg">
 <!-- Created with Image Occlusion Enhanced -->
 <g>
  <title>Labels</title>
 </g>
 <g>
  <title>Masks</title>
  <rect fill="#FFEBA2" height="28.57143" id="a7f2daeb15c149c3a24e43f199ae19c5-ao-1" stroke="#2D2D2D" width="205.7143" x="532.57152" y="15.99986"/>
  <rect fill="#FFEBA2" height="48.57143" id="a7f2daeb15c149c3a24e43f199ae19c5-ao-2" stroke="#2D2D2D" width="211.42858" x="452.57152" y="55.99986"/>
  <rect fill="#FFEBA2" height="28.57143" id="a7f2daeb15c149c3a24e43f199ae19c5-ao-3" stroke="#2D2D2D" width="280.00001" x="246.85722" y="121.71415"/>
  <rect fill="#FFEBA2" height="45.71429" id="a7f2daeb15c149c3a24e43f199ae19c5-ao-4" stroke="#2D2D2D" width="282.85716" x="186.85722" y="164.5713"/>
  <rect fill="#FFEBA2" height="28.57143" id="a7f2daeb15c149c3a24e43f199ae19c5-ao-5" stroke="#2D2D2D" width="117.14286" x="249.71437" y="230.28559"/>
  <rect fill="#FFEBA2" height="42.85714" id="a7f2daeb15c149c3a24e43f199ae19c5-ao-6" stroke="#2D2D2D" width="100" x="229.71437" y="284.5713"/>
  <rect fill="#FFEBA2" height="51.42857" id="a7f2daeb15c149c3a24e43f199ae19c5-ao-7" stroke="#2D2D2D" width="222.85715" x="1121.14298" y="315.99987"/>
  <rect fill="#FFEBA2" height="51.42857" id="a7f2daeb15c149c3a24e43f199ae19c5-ao-8" stroke="#2D2D2D" width="151.42858" x="149.71436" y="347.42845"/>
  <rect fill="#FFEBA2" height="28.57143" id="a7f2daeb15c149c3a24e43f199ae19c5-ao-9" stroke="#2D2D2D" width="205.7143" x="1138.28584" y="381.71416"/>
  <rect fill="#FFEBA2" height="31.42857" id="a7f2daeb15c149c3a24e43f199ae19c5-ao-10" stroke="#2D2D2D" width="148.57144" x="1149.71441" y="427.42845"/>
  <rect fill="#FFEBA2" height="48.57143" id="a7f2daeb15c149c3a24e43f199ae19c5-ao-11" stroke="#2D2D2D" width="117.14286" x="201.14294" y="427.42845"/>
  <rect fill="#FFEBA2" height="42.85714" id="a7f2daeb15c149c3a24e43f199ae19c5-ao-12" stroke="#2D2D2D" width="177.14287" x="1166.85727" y="467.42845"/>
  <rect fill="#FFEBA2" height="45.71429" id="a7f2daeb15c149c3a24e43f199ae19c5-ao-13" stroke="#2D2D2D" width="162.85715" x="135.42865" y="484.57131"/>
  <rect fill="#FFEBA2" height="31.42857" id="a7f2daeb15c149c3a24e43f199ae19c5-ao-14" stroke="#2D2D2D" width="177.14287" x="1166.85727" y="518.85703"/>
  <rect fill="#FFEBA2" height="51.42857" id="a7f2daeb15c149c3a24e43f199ae19c5-ao-15" stroke="#2D2D2D" width="171.42858" x="1195.4287" y="567.42846"/>
  <rect fill="#FFEBA2" height="94.28572" id="a7f2daeb15c149c3a24e43f199ae19c5-ao-16" stroke="#2D2D2D" width="160.00001" x="132.5715" y="550.2856"/>
  <rect fill="#FFEBA2" height="25.71429" id="a7f2daeb15c149c3a24e43f199ae19c5-ao-17" stroke="#2D2D2D" width="131.42858" x="1198.28584" y="627.42846"/>
  <rect fill="#FFEBA2" height="48.57143" id="a7f2daeb15c149c3a24e43f199ae19c5-ao-18" stroke="#2D2D2D" width="157.14286" x="1224.00013" y="678.85703"/>
  <rect fill="#FFEBA2" height="48.57143" id="a7f2daeb15c149c3a24e43f199ae19c5-ao-19" stroke="#2D2D2D" width="194.28572" x="1195.4287" y="755.99989"/>
  <rect fill="#FFEBA2" height="45.71429" id="a7f2daeb15c149c3a24e43f199ae19c5-ao-20" stroke="#2D2D2D" width="162.85715" x="1206.85727" y="858.85704"/>
  <rect class="qshape" fill="#FF7E7E" height="48.57143" id="a7f2daeb15c149c3a24e43f199ae19c5-ao-21" stroke="#2D2D2D" width="88.57143" x="132.5715" y="887.42847"/>
  <rect fill="#FFEBA2" height="54.28572" id="a7f2daeb15c149c3a24e43f199ae19c5-ao-22" stroke="#2D2D2D" width="157.14286" x="1198.28584" y="930.28562"/>
  <rect fill="#FFEBA2" height="48.57143" id="a7f2daeb15c149c3a24e43f199ae19c5-ao-23" stroke="#2D2D2D" width="120.00001" x="132.5715" y="955.9999"/>
  <rect fill="#FFEBA2" height="28.57143" id="a7f2daeb15c149c3a24e43f199ae19c5-ao-24" stroke="#2D2D2D" width="154.28572" x="1209.71441" y="1001.71419"/>
  <rect fill="#FFEBA2" height="77.14286" id="a7f2daeb15c149c3a24e43f199ae19c5-ao-25" stroke="#2D2D2D" width="177.14287" x="129.71436" y="1015.99991"/>
  <rect fill="#FFEBA2" height="74.28572" id="a7f2daeb15c149c3a24e43f199ae19c5-ao-26" stroke="#2D2D2D" width="85.71429" x="1266.85727" y="1070.28562"/>
  <rect fill="#FFEBA2" height="48.57143" id="a7f2daeb15c149c3a24e43f199ae19c5-ao-27" stroke="#2D2D2D" width="171.42858" x="129.71436" y="1104.57134"/>
  <rect fill="#FFEBA2" height="28.57143" id="a7f2daeb15c149c3a24e43f199ae19c5-ao-28" stroke="#2D2D2D" width="88.57143" x="1252.57156" y="1175.99991"/>
  <rect fill="#FFEBA2" height="28.57143" id="a7f2daeb15c149c3a24e43f199ae19c5-ao-29" stroke="#2D2D2D" width="151.42858" x="272.57151" y="1190.28563"/>
  <rect fill="#FFEBA2" height="28.57143" id="a7f2daeb15c149c3a24e43f199ae19c5-ao-30" stroke="#2D2D2D" width="165.71429" x="295.42865" y="1261.7142"/>
  <rect fill="#FFEBA2" height="48.57143" id="a7f2daeb15c149c3a24e43f199ae19c5-ao-31" stroke="#2D2D2D" width="97.14286" x="1215.4287" y="1235.99992"/>
  <rect fill="#FFEBA2" height="31.42857" id="a7f2daeb15c149c3a24e43f199ae19c5-ao-32" stroke="#2D2D2D" width="171.42858" x="344.00009" y="1321.71421"/>
  <rect fill="#FFEBA2" height="48.57143" id="a7f2daeb15c149c3a24e43f199ae19c5-ao-33" stroke="#2D2D2D" width="114.28572" x="1164.00012" y="1304.57135"/>
  <rect fill="#FFEBA2" height="25.71429" id="a7f2daeb15c149c3a24e43f199ae19c5-ao-34" stroke="#2D2D2D" width="191.42858" x="378.2858" y="1375.99992"/>
  <rect fill="#FFEBA2" height="31.42857" id="a7f2daeb15c149c3a24e43f199ae19c5-ao-35" stroke="#2D2D2D" width="82.85715" x="1144.00012" y="1367.42849"/>
  <rect fill="#FFEBA2" height="28.57143" id="a7f2daeb15c149c3a24e43f199ae19c5-ao-36" stroke="#2D2D2D" width="134.28572" x="458.2858" y="1418.85707"/>
  <rect fill="#FFEBA2" height="25.71429" id="a7f2daeb15c149c3a24e43f199ae19c5-ao-37" stroke="#2D2D2D" width="85.71429" x="824.00011" y="1464.57136"/>
  <rect fill="#FFEBA2" height="28.57143" id="a7f2daeb15c149c3a24e43f199ae19c5-ao-38" stroke="#2D2D2D" width="237.14287" x="504.00009" y="1484.57136"/>
 </g>
</svg>