<svg height="822.9999999999998" width="1535.9999999999998" xmlns="http://www.w3.org/2000/svg">
 <!-- Created with Image Occlusion Enhanced -->
 <g>
  <title>Labels</title>
 </g>
 <g>
  <title>Masks</title>
  <rect fill="#FFEBA2" height="37.14286" id="a8f13ef6767c4421bd54631058d010e2-ao-1" stroke="#2D2D2D" width="211.42858" x="1012.57154" y="68.42861"/>
  <rect fill="#FFEBA2" height="31.42857" id="a8f13ef6767c4421bd54631058d010e2-ao-2" stroke="#2D2D2D" width="157.14286" x="269.71437" y="88.42861"/>
  <rect fill="#FFEBA2" height="25.71429" id="a8f13ef6767c4421bd54631058d010e2-ao-3" stroke="#2D2D2D" width="154.28572" x="1104.00012" y="119.85718"/>
  <rect fill="#FFEBA2" height="45.71429" id="a8f13ef6767c4421bd54631058d010e2-ao-4" stroke="#2D2D2D" width="228.57144" x="1172.57155" y="159.85718"/>
  <rect fill="#FFEBA2" height="31.42857" id="a8f13ef6767c4421bd54631058d010e2-ao-5" stroke="#2D2D2D" width="288.57144" x="141.14293" y="174.1429"/>
  <rect fill="#FFEBA2" height="28.57143" id="a8f13ef6767c4421bd54631058d010e2-ao-6" stroke="#2D2D2D" width="165.71429" x="1235.4287" y="265.57147"/>
  <rect fill="#FFEBA2" height="28.57143" id="a8f13ef6767c4421bd54631058d010e2-ao-7" stroke="#2D2D2D" width="82.85715" x="349.71437" y="242.71433"/>
  <rect fill="#FFEBA2" height="45.71429" id="a8f13ef6767c4421bd54631058d010e2-ao-8" stroke="#2D2D2D" width="185.71429" x="1198.28584" y="317.00005"/>
  <rect fill="#FFEBA2" height="25.71429" id="a8f13ef6767c4421bd54631058d010e2-ao-9" stroke="#2D2D2D" width="237.14287" x="146.85722" y="285.57148"/>
  <rect fill="#FFEBA2" height="65.71429" id="a8f13ef6767c4421bd54631058d010e2-ao-10" stroke="#2D2D2D" width="208.57144" x="1198.28584" y="371.28576"/>
  <rect fill="#FFEBA2" height="54.28572" id="a8f13ef6767c4421bd54631058d010e2-ao-11" stroke="#2D2D2D" width="171.42858" x="138.28579" y="371.28576"/>
  <rect fill="#FFEBA2" height="51.42857" id="a8f13ef6767c4421bd54631058d010e2-ao-12" stroke="#2D2D2D" width="80" x="1289.71441" y="471.28577"/>
  <rect fill="#FFEBA2" height="31.42857" id="a8f13ef6767c4421bd54631058d010e2-ao-13" stroke="#2D2D2D" width="185.71429" x="138.28579" y="459.8572"/>
  <rect fill="#FFEBA2" height="51.42857" id="a8f13ef6767c4421bd54631058d010e2-ao-14" stroke="#2D2D2D" width="168.57144" x="138.28579" y="522.71434"/>
  <rect fill="#FFEBA2" height="51.42857" id="a8f13ef6767c4421bd54631058d010e2-ao-15" stroke="#2D2D2D" width="111.42858" x="1286.85727" y="577.00006"/>
  <rect fill="#FFEBA2" height="28.57143" id="a8f13ef6767c4421bd54631058d010e2-ao-16" stroke="#2D2D2D" width="145.71429" x="1238.28584" y="639.85721"/>
  <rect fill="#FFEBA2" height="28.57143" id="a8f13ef6767c4421bd54631058d010e2-ao-17" stroke="#2D2D2D" width="154.28572" x="1241.14298" y="694.14292"/>
  <rect fill="#FFEBA2" height="54.28572" id="a8f13ef6767c4421bd54631058d010e2-ao-18" stroke="#2D2D2D" width="182.85715" x="1224.00013" y="731.28578"/>
  <rect fill="#FFEBA2" height="51.42857" id="a8f13ef6767c4421bd54631058d010e2-ao-19" stroke="#2D2D2D" width="205.7143" x="969.7144" y="731.28578"/>
  <rect fill="#FFEBA2" height="51.42857" id="a8f13ef6767c4421bd54631058d010e2-ao-20" stroke="#2D2D2D" width="174.28572" x="764.0001" y="728.42864"/>
  <rect fill="#FFEBA2" height="28.57143" id="a8f13ef6767c4421bd54631058d010e2-ao-21" stroke="#2D2D2D" width="140.00001" x="512.57152" y="745.5715"/>
  <rect fill="#FFEBA2" height="54.28572" id="a8f13ef6767c4421bd54631058d010e2-ao-22" stroke="#2D2D2D" width="217.14287" x="146.85722" y="757.00007"/>
 </g>
</svg>