<svg height="1525" width="1535.9999999999998" xmlns="http://www.w3.org/2000/svg">
 <!-- Created with Image Occlusion Enhanced -->
 <g>
  <title>Labels</title>
 </g>
 <g>
  <title>Masks</title>
  <rect fill="#FFEBA2" height="25.71429" id="a9c992398af440bb9e92b12b5e5351e5-ao-1" stroke="#2D2D2D" width="102.85715" x="135.42865" y="150.71426"/>
  <rect fill="#FFEBA2" height="57.14286" id="a9c992398af440bb9e92b12b5e5351e5-ao-2" stroke="#2D2D2D" width="228.57144" x="135.42865" y="319.28569"/>
  <rect fill="#FFEBA2" height="57.14286" id="a9c992398af440bb9e92b12b5e5351e5-ao-3" stroke="#2D2D2D" width="265.7143" x="135.42865" y="387.85713"/>
  <rect fill="#FFEBA2" height="28.57143" id="a9c992398af440bb9e92b12b5e5351e5-ao-4" stroke="#2D2D2D" width="105.71429" x="138.28579" y="524.99999"/>
  <rect fill="#FFEBA2" height="28.57143" id="a9c992398af440bb9e92b12b5e5351e5-ao-5" stroke="#2D2D2D" width="160.00001" x="138.28579" y="596.42856"/>
  <rect fill="#FFEBA2" height="31.42857" id="a9c992398af440bb9e92b12b5e5351e5-ao-6" stroke="#2D2D2D" width="285.7143" x="138.28579" y="636.42857"/>
  <rect fill="#FFEBA2" height="31.42857" id="a9c992398af440bb9e92b12b5e5351e5-ao-7" stroke="#2D2D2D" width="262.85715" x="135.42865" y="702.14285"/>
  <rect fill="#FFEBA2" height="31.42857" id="a9c992398af440bb9e92b12b5e5351e5-ao-8" stroke="#2D2D2D" width="125.71429" x="135.42865" y="773.57143"/>
  <rect fill="#FFEBA2" height="54.28572" id="a9c992398af440bb9e92b12b5e5351e5-ao-9" stroke="#2D2D2D" width="220.00001" x="138.28579" y="845"/>
  <rect fill="#FFEBA2" height="25.71429" id="a9c992398af440bb9e92b12b5e5351e5-ao-10" stroke="#2D2D2D" width="65.71429" x="135.42865" y="982.14287"/>
  <rect fill="#FFEBA2" height="34.28572" id="a9c992398af440bb9e92b12b5e5351e5-ao-11" stroke="#2D2D2D" width="251.42858" x="135.42865" y="1019.28573"/>
  <rect fill="#FFEBA2" height="28.57143" id="a9c992398af440bb9e92b12b5e5351e5-ao-12" stroke="#2D2D2D" width="194.28572" x="135.42865" y="1090.7143"/>
  
  <rect fill="#FFEBA2" height="25.71429" id="a9c992398af440bb9e92b12b5e5351e5-ao-14" stroke="#2D2D2D" width="62.85715" x="135.42865" y="1170.7143"/>
  <rect fill="#FFEBA2" height="31.42857" id="a9c992398af440bb9e92b12b5e5351e5-ao-15" stroke="#2D2D2D" width="122.85715" x="135.42865" y="1205.00002"/>
  <rect fill="#FFEBA2" height="31.42857" id="a9c992398af440bb9e92b12b5e5351e5-ao-16" stroke="#2D2D2D" width="74.28572" x="138.28579" y="1347.85717"/>
  <rect fill="#FFEBA2" height="28.57143" id="a9c992398af440bb9e92b12b5e5351e5-ao-17" stroke="#2D2D2D" width="97.14286" x="135.42865" y="1459.28575"/>
 </g>
</svg>