<svg height="787.9999999999999" width="1535.9999999999998" xmlns="http://www.w3.org/2000/svg">
 <!-- Created with Image Occlusion Enhanced -->
 <g>
  <title>Labels</title>
 </g>
 <g>
  <title>Masks</title>
  <rect fill="#FFEBA2" height="22.85714" id="aa47eefdd0434ea1bd4ad52ec1673565-ao-1" stroke="#2D2D2D" width="111.42858" x="406.85723" y="9.14289"/>
  <rect fill="#FFEBA2" height="25.71429" id="aa47eefdd0434ea1bd4ad52ec1673565-ao-2" stroke="#2D2D2D" width="220.00001" x="689.71439" y="9.14289"/>
  <rect class="qshape" fill="#FF7E7E" height="22.85714" id="aa47eefdd0434ea1bd4ad52ec1673565-ao-3" stroke="#2D2D2D" width="234.28572" x="1018.28583" y="14.85718"/>
  <rect fill="#FFEBA2" height="25.71429" id="aa47eefdd0434ea1bd4ad52ec1673565-ao-4" stroke="#2D2D2D" width="117.14286" x="378.2858" y="43.42861"/>
  <g id="aa47eefdd0434ea1bd4ad52ec1673565-ao-5">
   <rect fill="#FFEBA2" height="25.71429" stroke="#2D2D2D" width="197.14287" x="615.42867" y="40.57146"/>
   <rect fill="#FFEBA2" height="22.85714" stroke="#2D2D2D" width="145.71429" x="615.42867" y="66.28575"/>
  </g>
  <rect fill="#FFEBA2" height="25.71429" id="aa47eefdd0434ea1bd4ad52ec1673565-ao-6" stroke="#2D2D2D" width="111.42858" x="1078.28583" y="46.28575"/>
  <rect fill="#FFEBA2" height="42.85714" id="aa47eefdd0434ea1bd4ad52ec1673565-ao-7" stroke="#2D2D2D" width="105.71429" x="789.71439" y="72.00004"/>
  <rect fill="#FFEBA2" height="25.71429" id="aa47eefdd0434ea1bd4ad52ec1673565-ao-8" stroke="#2D2D2D" width="260.00001" x="195.42865" y="80.57147"/>
  <rect fill="#FFEBA2" height="31.42857" id="aa47eefdd0434ea1bd4ad52ec1673565-ao-9" stroke="#2D2D2D" width="120.00001" x="1226.85727" y="83.42861"/>
  <rect fill="#FFEBA2" height="22.85714" id="aa47eefdd0434ea1bd4ad52ec1673565-ao-10" stroke="#2D2D2D" width="57.14286" x="335.42866" y="114.85718"/>
  <rect fill="#FFEBA2" height="48.57143" id="aa47eefdd0434ea1bd4ad52ec1673565-ao-11" stroke="#2D2D2D" width="100" x="629.71438" y="103.42861"/>
  <rect fill="#FFEBA2" height="48.57143" id="aa47eefdd0434ea1bd4ad52ec1673565-ao-12" stroke="#2D2D2D" width="122.85715" x="1264.00013" y="129.1429"/>
  <rect fill="#FFEBA2" height="51.42857" id="aa47eefdd0434ea1bd4ad52ec1673565-ao-13" stroke="#2D2D2D" width="142.85715" x="1258.28584" y="494.8572"/>
  <rect fill="#FFEBA2" height="57.14286" id="aa47eefdd0434ea1bd4ad52ec1673565-ao-14" stroke="#2D2D2D" width="168.57144" x="1218.28584" y="566.28577"/>
  <rect fill="#FFEBA2" height="31.42857" id="aa47eefdd0434ea1bd4ad52ec1673565-ao-15" stroke="#2D2D2D" width="131.42858" x="1132.57155" y="649.14292"/>
  <rect fill="#FFEBA2" height="31.42857" id="aa47eefdd0434ea1bd4ad52ec1673565-ao-16" stroke="#2D2D2D" width="282.85716" x="172.57151" y="646.28578"/>
  <rect fill="#FFEBA2" height="28.57143" id="aa47eefdd0434ea1bd4ad52ec1673565-ao-17" stroke="#2D2D2D" width="291.42858" x="501.14295" y="666.28578"/>
  <rect fill="#FFEBA2" height="31.42857" id="aa47eefdd0434ea1bd4ad52ec1673565-ao-18" stroke="#2D2D2D" width="257.14287" x="1046.85726" y="694.85721"/>
  <rect fill="#FFEBA2" height="28.57143" id="aa47eefdd0434ea1bd4ad52ec1673565-ao-19" stroke="#2D2D2D" width="291.42858" x="584.0001" y="706.28578"/>
  <rect fill="#FFEBA2" height="45.71429" id="aa47eefdd0434ea1bd4ad52ec1673565-ao-20" stroke="#2D2D2D" width="300.00001" x="1032.57155" y="743.42864"/>
 </g>
</svg>