<svg height="1530" width="1535.9999999999998" xmlns="http://www.w3.org/2000/svg">
 <!-- Created with Image Occlusion Enhanced -->
 <g>
  <title>Labels</title>
 </g>
 <g>
  <title>Masks</title>
  <rect fill="#FFEBA2" height="25.71429" id="aa5b946ca1924171a36551239aca1cd1-ao-1" stroke="#2D2D2D" width="248.57144" x="781.14296" y="332.85712"/>
  <rect fill="#FFEBA2" height="31.42857" id="aa5b946ca1924171a36551239aca1cd1-ao-2" stroke="#2D2D2D" width="337.14287" x="409.71437" y="335.71427"/>
  <rect fill="#FFEBA2" height="31.42857" id="aa5b946ca1924171a36551239aca1cd1-ao-3" stroke="#2D2D2D" width="234.28572" x="844.00011" y="367.14284"/>
  <rect fill="#FFEBA2" height="28.57143" id="aa5b946ca1924171a36551239aca1cd1-ao-4" stroke="#2D2D2D" width="200.00001" x="498.28581" y="389.99998"/>
  <rect fill="#FFEBA2" height="31.42857" id="aa5b946ca1924171a36551239aca1cd1-ao-5" stroke="#2D2D2D" width="137.14286" x="906.85725" y="418.57141"/>
  <rect fill="#FFEBA2" height="28.57143" id="aa5b946ca1924171a36551239aca1cd1-ao-6" stroke="#2D2D2D" width="154.28572" x="492.57152" y="435.71427"/>
  <rect fill="#FFEBA2" height="28.57143" id="aa5b946ca1924171a36551239aca1cd1-ao-7" stroke="#2D2D2D" width="174.28572" x="964.00011" y="469.99999"/>
  <rect class="qshape" fill="#FF7E7E" height="28.57143" id="aa5b946ca1924171a36551239aca1cd1-ao-8" stroke="#2D2D2D" width="140.00001" x="415.42866" y="489.99999"/>
  <rect fill="#FFEBA2" height="28.57143" id="aa5b946ca1924171a36551239aca1cd1-ao-9" stroke="#2D2D2D" width="128.57143" x="1006.85726" y="515.71427"/>
  <rect fill="#FFEBA2" height="28.57143" id="aa5b946ca1924171a36551239aca1cd1-ao-10" stroke="#2D2D2D" width="240.00001" x="255.42865" y="538.57142"/>
  <rect fill="#FFEBA2" height="28.57143" id="aa5b946ca1924171a36551239aca1cd1-ao-11" stroke="#2D2D2D" width="145.71429" x="1078.28583" y="552.85713"/>
  <rect fill="#FFEBA2" height="31.42857" id="aa5b946ca1924171a36551239aca1cd1-ao-12" stroke="#2D2D2D" width="140.00001" x="229.71437" y="587.14285"/>
  <rect fill="#FFEBA2" height="31.42857" id="aa5b946ca1924171a36551239aca1cd1-ao-13" stroke="#2D2D2D" width="140.00001" x="1149.71441" y="595.71428"/>
  <rect fill="#FFEBA2" height="28.57143" id="aa5b946ca1924171a36551239aca1cd1-ao-14" stroke="#2D2D2D" width="145.71429" x="155.42865" y="638.57142"/>
  <rect fill="#FFEBA2" height="28.57143" id="aa5b946ca1924171a36551239aca1cd1-ao-15" stroke="#2D2D2D" width="168.57144" x="1246.85727" y="635.71428"/>
  <rect fill="#FFEBA2" height="28.57143" id="aa5b946ca1924171a36551239aca1cd1-ao-16" stroke="#2D2D2D" width="131.42858" x="135.42865" y="681.42857"/>
  <rect fill="#FFEBA2" height="28.57143" id="aa5b946ca1924171a36551239aca1cd1-ao-17" stroke="#2D2D2D" width="160.00001" x="1261.14298" y="678.57142"/>
  <rect fill="#FFEBA2" height="48.57143" id="aa5b946ca1924171a36551239aca1cd1-ao-18" stroke="#2D2D2D" width="140.00001" x="1284.00013" y="721.42857"/>
  <rect fill="#FFEBA2" height="71.42857" id="aa5b946ca1924171a36551239aca1cd1-ao-19" stroke="#2D2D2D" width="74.28572" x="126.85722" y="738.57143"/>
  <rect fill="#FFEBA2" height="68.57143" id="aa5b946ca1924171a36551239aca1cd1-ao-20" stroke="#2D2D2D" width="140.00001" x="1301.14299" y="787.14286"/>
  <rect fill="#FFEBA2" height="71.42857" id="aa5b946ca1924171a36551239aca1cd1-ao-21" stroke="#2D2D2D" width="94.28572" x="112.5715" y="835.71429"/>
  <rect fill="#FFEBA2" height="74.28572" id="aa5b946ca1924171a36551239aca1cd1-ao-22" stroke="#2D2D2D" width="120.00001" x="1304.00013" y="872.85715"/>
  <rect fill="#FFEBA2" height="51.42857" id="aa5b946ca1924171a36551239aca1cd1-ao-23" stroke="#2D2D2D" width="108.57143" x="109.71436" y="932.85715"/>
  <rect fill="#FFEBA2" height="45.71429" id="aa5b946ca1924171a36551239aca1cd1-ao-24" stroke="#2D2D2D" width="117.14286" x="1312.57156" y="955.71429"/>
  <rect fill="#FFEBA2" height="71.42857" id="aa5b946ca1924171a36551239aca1cd1-ao-25" stroke="#2D2D2D" width="88.57143" x="115.42865" y="1024.28573"/>
  <rect fill="#FFEBA2" height="91.42858" id="aa5b946ca1924171a36551239aca1cd1-ao-26" stroke="#2D2D2D" width="117.14286" x="1304.00013" y="1024.28573"/>
  <rect fill="#FFEBA2" height="54.28572" id="aa5b946ca1924171a36551239aca1cd1-ao-27" stroke="#2D2D2D" width="122.85715" x="126.85722" y="1112.85716"/>
  <rect fill="#FFEBA2" height="31.42857" id="aa5b946ca1924171a36551239aca1cd1-ao-28" stroke="#2D2D2D" width="174.28572" x="1244.00013" y="1150.00002"/>
  <rect fill="#FFEBA2" height="28.57143" id="aa5b946ca1924171a36551239aca1cd1-ao-29" stroke="#2D2D2D" width="242.85715" x="112.5715" y="1184.28573"/>
  <rect fill="#FFEBA2" height="31.42857" id="aa5b946ca1924171a36551239aca1cd1-ao-30" stroke="#2D2D2D" width="314.28573" x="1098.28583" y="1238.57145"/>
  <rect fill="#FFEBA2" height="28.57143" id="aa5b946ca1924171a36551239aca1cd1-ao-31" stroke="#2D2D2D" width="251.42858" x="118.28579" y="1230.00002"/>
  <rect fill="#FFEBA2" height="31.42857" id="aa5b946ca1924171a36551239aca1cd1-ao-32" stroke="#2D2D2D" width="154.28572" x="1046.85726" y="1295.71431"/>
  <rect fill="#FFEBA2" height="28.57143" id="aa5b946ca1924171a36551239aca1cd1-ao-33" stroke="#2D2D2D" width="222.85715" x="215.42865" y="1290.00002"/>
  <rect fill="#FFEBA2" height="31.42857" id="aa5b946ca1924171a36551239aca1cd1-ao-34" stroke="#2D2D2D" width="265.7143" x="955.42868" y="1358.57146"/>
  <rect fill="#FFEBA2" height="48.57143" id="aa5b946ca1924171a36551239aca1cd1-ao-35" stroke="#2D2D2D" width="248.57143" x="321.14295" y="1361.4286"/>
  <rect fill="#FFEBA2" height="34.28572" id="aa5b946ca1924171a36551239aca1cd1-ao-36" stroke="#2D2D2D" width="420.00002" x="872.57154" y="1418.57146"/>
  <rect fill="#FFEBA2" height="54.28572" id="aa5b946ca1924171a36551239aca1cd1-ao-37" stroke="#2D2D2D" stroke-dasharray="null" stroke-linecap="null" stroke-linejoin="null" width="305.7143" x="375.42866" y="1447.14289"/>
  <rect fill="#FFEBA2" height="31.42857" id="aa5b946ca1924171a36551239aca1cd1-ao-38" stroke="#2D2D2D" stroke-dasharray="null" stroke-linecap="null" stroke-linejoin="null" width="137.14286" x="789.71439" y="1475.71432"/>
 </g>
</svg>