<svg height="1669" width="1535.9999999999998" xmlns="http://www.w3.org/2000/svg">
 <!-- Created with Image Occlusion Enhanced -->
 <g>
  <title>Labels</title>
 </g>
 <g>
  <title>Masks</title>
  <rect fill="#FFEBA2" height="51.42857" id="ab70d1626d2b44e594056b4ad4fbf691-ao-1" stroke="#2D2D2D" width="102.85715" x="532.57152" y="185.28558"/>
  <rect fill="#FFEBA2" height="28.57143" id="ab70d1626d2b44e594056b4ad4fbf691-ao-2" stroke="#2D2D2D" width="65.71429" x="886.85725" y="262.42844"/>
  <rect fill="#FFEBA2" height="48.57143" id="ab70d1626d2b44e594056b4ad4fbf691-ao-3" stroke="#2D2D2D" width="85.71429" x="658.28581" y="253.85701"/>
  <rect fill="#FFEBA2" height="45.71429" id="ab70d1626d2b44e594056b4ad4fbf691-ao-4" stroke="#2D2D2D" width="125.71429" x="412.57152" y="299.5713"/>
  
  <rect fill="#FFEBA2" height="22.85714" id="ab70d1626d2b44e594056b4ad4fbf691-ao-6" stroke="#2D2D2D" width="177.14287" x="272.57151" y="1345.28563"/>
  <rect fill="#FFEBA2" height="22.85714" id="ab70d1626d2b44e594056b4ad4fbf691-ao-7" stroke="#2D2D2D" width="117.14286" x="295.42865" y="1433.85707"/>
  <g id="ab70d1626d2b44e594056b4ad4fbf691-ao-8">
   <rect fill="#FFEBA2" height="17.14286" stroke="#2D2D2D" width="134.28572" x="412.57152" y="1482.4285"/>
   <rect fill="#FFEBA2" height="22.85714" stroke="#2D2D2D" width="174.28572" x="321.14294" y="1505.28564"/>
  </g>
  <rect fill="#FFEBA2" height="22.85714" id="ab70d1626d2b44e594056b4ad4fbf691-ao-9" stroke="#2D2D2D" width="57.14286" x="332.57151" y="1548.14278"/>
  <rect fill="#FFEBA2" height="22.85714" id="ab70d1626d2b44e594056b4ad4fbf691-ao-10" stroke="#2D2D2D" width="120.00001" x="341.14294" y="1590.99993"/>
  <rect fill="#FFEBA2" height="28.57143" id="ab70d1626d2b44e594056b4ad4fbf691-ao-11" stroke="#2D2D2D" width="194.28572" x="435.42866" y="1636.71422"/>
  <rect fill="#FFEBA2" height="28.57143" id="ab70d1626d2b44e594056b4ad4fbf691-ao-12" stroke="#2D2D2D" width="142.85715" x="1029.7144" y="1405.28564"/>
  <rect fill="#FFEBA2" height="20" id="ab70d1626d2b44e594056b4ad4fbf691-ao-13" stroke="#2D2D2D" width="54.28572" x="998.28583" y="1479.57135"/>
  <rect fill="#FFEBA2" height="22.85714" id="ab70d1626d2b44e594056b4ad4fbf691-ao-14" stroke="#2D2D2D" width="185.71429" x="1178.28584" y="1548.14278"/>
  <rect fill="#FFEBA2" height="25.71429" id="ab70d1626d2b44e594056b4ad4fbf691-ao-15" stroke="#2D2D2D" width="111.42858" x="1126.85726" y="1633.85707"/>
 </g>
</svg>