<svg height="999" width="1536" xmlns="http://www.w3.org/2000/svg">
 <!-- Created with Image Occlusion Enhanced -->
 <g>
  <title>Labels</title>
 </g>
 <g>
  <title>Masks</title>
  
  <rect fill="#FFEBA2" height="25.71429" id="ad35426b461d4a0dacddfc512f8db4f4-ao-2" stroke="#2D2D2D" width="254.28573" x="169.71436" y="81.00001"/>
  <rect fill="#FFEBA2" height="28.57143" id="ad35426b461d4a0dacddfc512f8db4f4-ao-3" stroke="#2D2D2D" width="185.71429" x="952.57154" y="69.57144"/>
  <rect fill="#FFEBA2" height="25.71429" id="ad35426b461d4a0dacddfc512f8db4f4-ao-4" stroke="#2D2D2D" width="157.14286" x="244.00008" y="112.42858"/>
  <rect fill="#FFEBA2" height="31.42857" id="ad35426b461d4a0dacddfc512f8db4f4-ao-5" stroke="#2D2D2D" width="408.57145" x="981.14297" y="109.57144"/>
  <rect fill="#FFEBA2" height="22.85714" id="ad35426b461d4a0dacddfc512f8db4f4-ao-6" stroke="#2D2D2D" width="245.7143" x="144.00008" y="149.57144"/>
  <rect fill="#FFEBA2" height="25.71429" id="ad35426b461d4a0dacddfc512f8db4f4-ao-7" stroke="#2D2D2D" width="254.28573" x="1006.85726" y="149.57144"/>
  <rect fill="#FFEBA2" height="68.57143" id="ad35426b461d4a0dacddfc512f8db4f4-ao-8" stroke="#2D2D2D" width="208.57144" x="164.00008" y="186.7143"/>
  <rect fill="#FFEBA2" height="25.71429" id="ad35426b461d4a0dacddfc512f8db4f4-ao-9" stroke="#2D2D2D" width="200.00001" x="1021.14297" y="189.57144"/>
  <rect fill="#FFEBA2" height="25.71429" id="ad35426b461d4a0dacddfc512f8db4f4-ao-10" stroke="#2D2D2D" width="231.42858" x="1052.57155" y="232.42859"/>
  <rect fill="#FFEBA2" height="45.71429" id="ad35426b461d4a0dacddfc512f8db4f4-ao-11" stroke="#2D2D2D" width="171.42858" x="155.42865" y="272.42859"/>
  <rect fill="#FFEBA2" height="25.71429" id="ad35426b461d4a0dacddfc512f8db4f4-ao-12" stroke="#2D2D2D" width="251.42858" x="1069.7144" y="266.7143"/>
  <rect fill="#FFEBA2" height="25.71429" id="ad35426b461d4a0dacddfc512f8db4f4-ao-13" stroke="#2D2D2D" width="160.00001" x="164.00008" y="323.85716"/>
  <rect fill="#FFEBA2" height="31.42857" id="ad35426b461d4a0dacddfc512f8db4f4-ao-14" stroke="#2D2D2D" width="225.7143" x="1081.14298" y="306.7143"/>
  <rect fill="#FFEBA2" height="48.57143" id="ad35426b461d4a0dacddfc512f8db4f4-ao-15" stroke="#2D2D2D" width="140.00001" x="158.28579" y="363.85716"/>
  <rect fill="#FFEBA2" height="48.57143" id="ad35426b461d4a0dacddfc512f8db4f4-ao-16" stroke="#2D2D2D" width="208.57144" x="1095.42869" y="341.00002"/>
  <rect fill="#FFEBA2" height="51.42857" id="ad35426b461d4a0dacddfc512f8db4f4-ao-17" stroke="#2D2D2D" width="140.00001" x="158.28579" y="423.85717"/>
  <rect fill="#FFEBA2" height="25.71429" id="ad35426b461d4a0dacddfc512f8db4f4-ao-18" stroke="#2D2D2D" width="251.42858" x="1101.14298" y="398.14288"/>
  <rect fill="#FFEBA2" height="25.71429" id="ad35426b461d4a0dacddfc512f8db4f4-ao-19" stroke="#2D2D2D" width="237.14287" x="1112.57155" y="435.28574"/>
  <rect fill="#FFEBA2" height="28.57143" id="ad35426b461d4a0dacddfc512f8db4f4-ao-20" stroke="#2D2D2D" width="234.28572" x="1124.00012" y="472.4286"/>
  <rect fill="#FFEBA2" height="48.57143" id="ad35426b461d4a0dacddfc512f8db4f4-ao-21" stroke="#2D2D2D" width="134.28572" x="155.42865" y="483.85717"/>
  <rect fill="#FFEBA2" height="22.85714" id="ad35426b461d4a0dacddfc512f8db4f4-ao-22" stroke="#2D2D2D" width="120.00001" x="1121.14298" y="512.4286"/>
  <rect fill="#FFEBA2" height="48.57143" id="ad35426b461d4a0dacddfc512f8db4f4-ao-23" stroke="#2D2D2D" width="100" x="175.42865" y="538.14289"/>
  <rect fill="#FFEBA2" height="114.28572" id="ad35426b461d4a0dacddfc512f8db4f4-ao-24" stroke="#2D2D2D" width="240.00001" x="1106.85726" y="549.57146"/>
  <rect fill="#FFEBA2" height="51.42857" id="ad35426b461d4a0dacddfc512f8db4f4-ao-25" stroke="#2D2D2D" width="114.28572" x="166.85722" y="598.14289"/>
  <rect fill="#FFEBA2" height="48.57143" id="ad35426b461d4a0dacddfc512f8db4f4-ao-26" stroke="#2D2D2D" width="257.14287" x="1118.28583" y="669.57146"/>
  <rect fill="#FFEBA2" height="71.42857" id="ad35426b461d4a0dacddfc512f8db4f4-ao-27" stroke="#2D2D2D" width="131.42858" x="161.14293" y="661.00003"/>
  <rect fill="#FFEBA2" height="25.71429" id="ad35426b461d4a0dacddfc512f8db4f4-ao-28" stroke="#2D2D2D" width="174.28572" x="1106.85726" y="723.85718"/>
  <rect fill="#FFEBA2" height="25.71429" id="ad35426b461d4a0dacddfc512f8db4f4-ao-29" stroke="#2D2D2D" width="160.00001" x="141.14293" y="738.14289"/>
  <rect fill="#FFEBA2" height="51.42857" id="ad35426b461d4a0dacddfc512f8db4f4-ao-30" stroke="#2D2D2D" width="262.85715" x="1098.28583" y="758.1429"/>
  <rect fill="#FFEBA2" height="45.71429" id="ad35426b461d4a0dacddfc512f8db4f4-ao-31" stroke="#2D2D2D" width="160.00001" x="158.28579" y="778.1429"/>
  <rect fill="#FFEBA2" height="28.57143" id="ad35426b461d4a0dacddfc512f8db4f4-ao-32" stroke="#2D2D2D" width="162.85715" x="1066.85726" y="821.00004"/>
  <rect fill="#FFEBA2" height="25.71429" id="ad35426b461d4a0dacddfc512f8db4f4-ao-33" stroke="#2D2D2D" width="128.57143" x="206.85722" y="838.1429"/>
  <rect fill="#FFEBA2" height="28.57143" id="ad35426b461d4a0dacddfc512f8db4f4-ao-34" stroke="#2D2D2D" width="245.7143" x="1041.14297" y="861.00004"/>
  <rect fill="#FFEBA2" height="25.71429" id="ad35426b461d4a0dacddfc512f8db4f4-ao-35" stroke="#2D2D2D" width="160.00001" x="195.42865" y="875.28576"/>
  <rect fill="#FFEBA2" height="28.57143" id="ad35426b461d4a0dacddfc512f8db4f4-ao-36" stroke="#2D2D2D" width="257.14287" x="1015.42869" y="906.71433"/>
  <rect fill="#FFEBA2" height="31.42857" id="ad35426b461d4a0dacddfc512f8db4f4-ao-37" stroke="#2D2D2D" width="217.14287" x="181.14294" y="912.42862"/>
  <rect fill="#FFEBA2" height="28.57143" id="ad35426b461d4a0dacddfc512f8db4f4-ao-38" stroke="#2D2D2D" width="285.7143" x="978.28583" y="946.71433"/>
  <rect fill="#FFEBA2" height="25.71429" id="ad35426b461d4a0dacddfc512f8db4f4-ao-39" stroke="#2D2D2D" width="262.85715" x="186.85722" y="961.00005"/>
 </g>
</svg>