<svg height="1604" width="1535.9999999999998" xmlns="http://www.w3.org/2000/svg">
 <!-- Created with Image Occlusion Enhanced -->
 <g>
  <title>Labels</title>
 </g>
 <g>
  <title>Masks</title>
  <rect fill="#FFEBA2" height="37.14286" id="ad458f6cc8324cafb74b5086675bfec5-ao-1" stroke="#2D2D2D" width="140.00001" x="1009.7144" y="74.57129"/>
  <rect fill="#FFEBA2" height="34.28572" id="ad458f6cc8324cafb74b5086675bfec5-ao-2" stroke="#2D2D2D" width="225.7143" x="281.14294" y="83.14272"/>
  <rect fill="#FFEBA2" height="31.42857" id="ad458f6cc8324cafb74b5086675bfec5-ao-3" stroke="#2D2D2D" width="217.14287" x="1012.57154" y="125.99986"/>
  
  <rect fill="#FFEBA2" height="28.57143" id="ad458f6cc8324cafb74b5086675bfec5-ao-5" stroke="#2D2D2D" width="122.85715" x="1012.57154" y="174.5713"/>
  <rect fill="#FFEBA2" height="28.57143" id="ad458f6cc8324cafb74b5086675bfec5-ao-6" stroke="#2D2D2D" width="142.85715" x="366.85723" y="217.42844"/>
  <rect fill="#FFEBA2" height="28.57143" id="ad458f6cc8324cafb74b5086675bfec5-ao-7" stroke="#2D2D2D" width="222.85715" x="1009.7144" y="225.99987"/>
  <rect fill="#FFEBA2" height="60" id="ad458f6cc8324cafb74b5086675bfec5-ao-8" stroke="#2D2D2D" width="254.28573" x="252.57151" y="263.14273"/>
  <rect fill="#FFEBA2" height="31.42857" id="ad458f6cc8324cafb74b5086675bfec5-ao-9" stroke="#2D2D2D" width="308.57144" x="1009.7144" y="274.5713"/>
  <rect fill="#FFEBA2" height="28.57143" id="ad458f6cc8324cafb74b5086675bfec5-ao-10" stroke="#2D2D2D" width="168.57144" x="1009.7144" y="325.99987"/>
  <rect fill="#FFEBA2" height="31.42857" id="ad458f6cc8324cafb74b5086675bfec5-ao-11" stroke="#2D2D2D" width="157.14286" x="352.57151" y="345.99987"/>
  <rect fill="#FFEBA2" height="31.42857" id="ad458f6cc8324cafb74b5086675bfec5-ao-12" stroke="#2D2D2D" width="348.57144" x="1015.42869" y="374.5713"/>
  <rect fill="#FFEBA2" height="31.42857" id="ad458f6cc8324cafb74b5086675bfec5-ao-13" stroke="#2D2D2D" width="314.28573" x="201.14294" y="408.85702"/>
  <rect fill="#FFEBA2" height="31.42857" id="ad458f6cc8324cafb74b5086675bfec5-ao-14" stroke="#2D2D2D" width="334.28573" x="1012.57154" y="423.14274"/>
  <rect fill="#FFEBA2" height="31.42857" id="ad458f6cc8324cafb74b5086675bfec5-ao-15" stroke="#2D2D2D" width="357.14287" x="155.42865" y="477.42845"/>
  <rect fill="#FFEBA2" height="31.42857" id="ad458f6cc8324cafb74b5086675bfec5-ao-16" stroke="#2D2D2D" width="337.14287" x="1009.7144" y="471.71417"/>
  <rect fill="#FFEBA2" height="28.57143" id="ad458f6cc8324cafb74b5086675bfec5-ao-17" stroke="#2D2D2D" width="225.7143" x="284.00008" y="540.2856"/>
  <rect fill="#FFEBA2" height="31.42857" id="ad458f6cc8324cafb74b5086675bfec5-ao-18" stroke="#2D2D2D" width="214.28572" x="298.2858" y="600.2856"/>
  <rect fill="#FFEBA2" height="57.14286" id="ad458f6cc8324cafb74b5086675bfec5-ao-19" stroke="#2D2D2D" width="248.57144" x="261.14294" y="657.42846"/>
  <rect fill="#FFEBA2" height="31.42857" id="ad458f6cc8324cafb74b5086675bfec5-ao-20" stroke="#2D2D2D" width="148.57144" x="389.71437" y="865.9999"/>
  <rect fill="#FFEBA2" height="34.28572" id="ad458f6cc8324cafb74b5086675bfec5-ao-21" stroke="#2D2D2D" width="145.71429" x="966.85726" y="865.9999"/>
  <rect fill="#FFEBA2" height="31.42857" id="ad458f6cc8324cafb74b5086675bfec5-ao-22" stroke="#2D2D2D" width="157.14286" x="366.85723" y="960.28562"/>
  <rect fill="#FFEBA2" height="28.57143" id="ad458f6cc8324cafb74b5086675bfec5-ao-23" stroke="#2D2D2D" width="305.7143" x="226.85722" y="1117.42848"/>
  <rect fill="#FFEBA2" height="34.28572" id="ad458f6cc8324cafb74b5086675bfec5-ao-24" stroke="#2D2D2D" width="234.28572" x="935.42868" y="1157.42848"/>
  <rect fill="#FFEBA2" height="31.42857" id="ad458f6cc8324cafb74b5086675bfec5-ao-25" stroke="#2D2D2D" width="231.42858" x="289.71437" y="1171.7142"/>
  <rect fill="#FFEBA2" height="31.42857" id="ad458f6cc8324cafb74b5086675bfec5-ao-26" stroke="#2D2D2D" width="222.85715" x="935.42868" y="1211.7142"/>
  <rect fill="#FFEBA2" height="31.42857" id="ad458f6cc8324cafb74b5086675bfec5-ao-27" stroke="#2D2D2D" width="291.42858" x="235.42865" y="1225.99991"/>
  <rect fill="#FFEBA2" height="31.42857" id="ad458f6cc8324cafb74b5086675bfec5-ao-28" stroke="#2D2D2D" width="260.00001" x="938.28583" y="1265.99992"/>
  <rect fill="#FFEBA2" height="31.42857" id="ad458f6cc8324cafb74b5086675bfec5-ao-29" stroke="#2D2D2D" width="120.00001" x="404.00009" y="1277.42849"/>
  <rect fill="#FFEBA2" height="31.42857" id="ad458f6cc8324cafb74b5086675bfec5-ao-30" stroke="#2D2D2D" width="168.57144" x="935.42868" y="1317.42849"/>
  <rect fill="#FFEBA2" height="34.28572" id="ad458f6cc8324cafb74b5086675bfec5-ao-31" stroke="#2D2D2D" width="162.85715" x="361.14294" y="1325.99992"/>
  <rect fill="#FFEBA2" height="34.28572" id="ad458f6cc8324cafb74b5086675bfec5-ao-32" stroke="#2D2D2D" width="268.57144" x="938.28583" y="1374.57135"/>
  <rect fill="#FFEBA2" height="34.28572" id="ad458f6cc8324cafb74b5086675bfec5-ao-33" stroke="#2D2D2D" width="288.57144" x="244.00008" y="1380.28564"/>
  <rect fill="#FFEBA2" height="31.42857" id="ad458f6cc8324cafb74b5086675bfec5-ao-34" stroke="#2D2D2D" width="145.71429" x="935.42868" y="1425.99992"/>
  <rect fill="#FFEBA2" height="28.57143" id="ad458f6cc8324cafb74b5086675bfec5-ao-35" stroke="#2D2D2D" width="182.85715" x="338.2858" y="1434.57135"/>
  <rect fill="#FFEBA2" height="31.42857" id="ad458f6cc8324cafb74b5086675bfec5-ao-36" stroke="#2D2D2D" width="454.28573" x="935.42868" y="1480.28564"/>
  <rect fill="#FFEBA2" height="54.28572" id="ad458f6cc8324cafb74b5086675bfec5-ao-37" stroke="#2D2D2D" width="208.57144" x="321.14294" y="1485.99993"/>
  <rect fill="#FFEBA2" height="31.42857" id="ad458f6cc8324cafb74b5086675bfec5-ao-38" stroke="#2D2D2D" width="205.7143" x="938.28583" y="1534.57136"/>
 </g>
</svg>