<svg height="954" width="1536.0000000000002" xmlns="http://www.w3.org/2000/svg">
 <!-- Created with Image Occlusion Enhanced -->
 <g>
  <title>Labels</title>
 </g>
 <g>
  <title>Masks</title>
  <rect fill="#FFEBA2" height="30" id="aebcd2a369ba421d90ab1a90b33244ba-ao-1" stroke="#2D2D2D" width="140" x="245.24992" y="27.24998"/>
  <rect fill="#FFEBA2" height="25" id="aebcd2a369ba421d90ab1a90b33244ba-ao-2" stroke="#2D2D2D" width="142.5" x="1045.2499" y="52.24998"/>
  <rect fill="#FFEBA2" height="47.5" id="aebcd2a369ba421d90ab1a90b33244ba-ao-3" stroke="#2D2D2D" width="190" x="182.74992" y="84.74998"/>
  <rect fill="#FFEBA2" height="25" id="aebcd2a369ba421d90ab1a90b33244ba-ao-4" stroke="#2D2D2D" width="319.99999" x="1047.7499" y="104.74998"/>
  <rect fill="#FFEBA2" height="27.5" id="aebcd2a369ba421d90ab1a90b33244ba-ao-5" stroke="#2D2D2D" width="140" x="162.74992" y="167.24998"/>
  <rect fill="#FFEBA2" height="27.5" id="aebcd2a369ba421d90ab1a90b33244ba-ao-6" stroke="#2D2D2D" width="242.5" x="1062.7499" y="157.24998"/>
  <rect fill="#FFEBA2" height="50" id="aebcd2a369ba421d90ab1a90b33244ba-ao-7" stroke="#2D2D2D" width="167.5" x="190.24992" y="224.74998"/>
  <rect fill="#FFEBA2" height="25" id="aebcd2a369ba421d90ab1a90b33244ba-ao-8" stroke="#2D2D2D" width="232.5" x="1070.2499" y="214.74998"/>
  <rect fill="#FFEBA2" height="30" id="aebcd2a369ba421d90ab1a90b33244ba-ao-9" stroke="#2D2D2D" width="145" x="165.24992" y="302.24998"/>
  
  <rect fill="#FFEBA2" height="52.5" id="aebcd2a369ba421d90ab1a90b33244ba-ao-11" stroke="#2D2D2D" width="205" x="1107.7499" y="323.49998"/>
  <rect fill="#FFEBA2" height="50" id="aebcd2a369ba421d90ab1a90b33244ba-ao-12" stroke="#2D2D2D" width="172.5" x="152.74992" y="360.99998"/>
  <rect fill="#FFEBA2" height="27.5" id="aebcd2a369ba421d90ab1a90b33244ba-ao-13" stroke="#2D2D2D" width="187.5" x="1117.7499" y="398.49998"/>
  <rect fill="#FFEBA2" height="115" id="aebcd2a369ba421d90ab1a90b33244ba-ao-14" stroke="#2D2D2D" width="122.5" x="182.74992" y="440.99998"/>
  <rect fill="#FFEBA2" height="47.5" id="aebcd2a369ba421d90ab1a90b33244ba-ao-15" stroke="#2D2D2D" width="255" x="1127.7499" y="455.99998"/>
  <rect fill="#FFEBA2" height="32.5" id="aebcd2a369ba421d90ab1a90b33244ba-ao-16" stroke="#2D2D2D" width="162.5" x="155.24992" y="583.49998"/>
  <rect fill="#FFEBA2" height="25" id="aebcd2a369ba421d90ab1a90b33244ba-ao-17" stroke="#2D2D2D" width="177.5" x="1092.7499" y="533.49998"/>
  <rect fill="#FFEBA2" height="30" id="aebcd2a369ba421d90ab1a90b33244ba-ao-18" stroke="#2D2D2D" width="252.5" x="1072.7499" y="588.49998"/>
  <rect fill="#FFEBA2" height="47.5" id="aebcd2a369ba421d90ab1a90b33244ba-ao-19" stroke="#2D2D2D" width="137.5" x="197.74992" y="645.99997"/>
  <rect fill="#FFEBA2" height="45" id="aebcd2a369ba421d90ab1a90b33244ba-ao-20" stroke="#2D2D2D" width="202.5" x="1075.2499" y="645.99997"/>
  <rect fill="#FFEBA2" height="45" id="aebcd2a369ba421d90ab1a90b33244ba-ao-21" stroke="#2D2D2D" width="170" x="200.24992" y="723.49997"/>
  <rect fill="#FFEBA2" height="27.5" id="aebcd2a369ba421d90ab1a90b33244ba-ao-22" stroke="#2D2D2D" width="200" x="1052.7499" y="720.99997"/>
  <rect fill="#FFEBA2" height="32.5" id="aebcd2a369ba421d90ab1a90b33244ba-ao-23" stroke="#2D2D2D" width="137.5" x="247.74992" y="805.99997"/>
 </g>
</svg>