<svg height="1626.0000000000002" width="1536.0000000000002" xmlns="http://www.w3.org/2000/svg">
 <!-- Created with Image Occlusion Enhanced -->
 <g>
  <title>Labels</title>
 </g>
 <g>
  <title>Masks</title>
  <rect fill="#FFEBA2" height="50" id="b3478a1e56704989a105f3a0886319aa-ao-1" stroke="#2D2D2D" width="137.49999" x="1256.49989" y="21.49994"/>
  <rect fill="#FFEBA2" height="30" id="b3478a1e56704989a105f3a0886319aa-ao-2" stroke="#2D2D2D" width="70" x="1106.4999" y="143.99993"/>
  <rect fill="#FFEBA2" height="47.5" id="b3478a1e56704989a105f3a0886319aa-ao-3" stroke="#2D2D2D" width="127.5" x="1101.4999" y="213.99993"/>
  <rect fill="#FFEBA2" height="27.5" id="b3478a1e56704989a105f3a0886319aa-ao-4" stroke="#2D2D2D" width="122.5" x="666.49991" y="218.99993"/>
  <rect fill="#FFEBA2" height="27.5" id="b3478a1e56704989a105f3a0886319aa-ao-5" stroke="#2D2D2D" width="189.99999" x="566.49992" y="276.49993"/>
  <rect fill="#FFEBA2" height="30" id="b3478a1e56704989a105f3a0886319aa-ao-6" stroke="#2D2D2D" width="130" x="598.99991" y="328.99993"/>
  <rect fill="#FFEBA2" height="22.5" id="b3478a1e56704989a105f3a0886319aa-ao-7" stroke="#2D2D2D" width="229.99999" x="456.49992" y="393.99992"/>
  <rect fill="#FFEBA2" height="47.5" id="b3478a1e56704989a105f3a0886319aa-ao-8" stroke="#2D2D2D" width="134.99999" x="1176.49989" y="403.99992"/>
  <rect fill="#FFEBA2" height="25" id="b3478a1e56704989a105f3a0886319aa-ao-9" stroke="#2D2D2D" width="130" x="578.99992" y="438.99992"/>
  <rect fill="#FFEBA2" height="50" id="b3478a1e56704989a105f3a0886319aa-ao-10" stroke="#2D2D2D" width="159.99999" x="1168.99989" y="486.49992"/>
  <rect fill="#FFEBA2" height="47.5" id="b3478a1e56704989a105f3a0886319aa-ao-11" stroke="#2D2D2D" width="80" x="616.49991" y="546.49992"/>
  <rect fill="#FFEBA2" height="30" id="b3478a1e56704989a105f3a0886319aa-ao-12" stroke="#2D2D2D" width="67.5" x="1161.49989" y="561.49992"/>
  <rect fill="#FFEBA2" height="47.5" id="b3478a1e56704989a105f3a0886319aa-ao-13" stroke="#2D2D2D" width="142.49999" x="1163.99989" y="628.99992"/>
  <rect fill="#FFEBA2" height="72.5" id="b3478a1e56704989a105f3a0886319aa-ao-14" stroke="#2D2D2D" width="100" x="546.49992" y="646.49991"/>
  <rect fill="#FFEBA2" height="50" id="b3478a1e56704989a105f3a0886319aa-ao-15" stroke="#2D2D2D" width="105" x="1168.99989" y="721.49991"/>
  <rect fill="#FFEBA2" height="25" id="b3478a1e56704989a105f3a0886319aa-ao-16" stroke="#2D2D2D" width="199.99999" x="1178.99989" y="823.99991"/>
  <rect fill="#FFEBA2" height="30" id="b3478a1e56704989a105f3a0886319aa-ao-17" stroke="#2D2D2D" width="127.5" x="1168.99989" y="966.4999"/>
  <rect fill="#FFEBA2" height="45" id="b3478a1e56704989a105f3a0886319aa-ao-18" stroke="#2D2D2D" width="120" x="678.99991" y="1198.99989"/>
  <rect fill="#FFEBA2" height="102.5" id="b3478a1e56704989a105f3a0886319aa-ao-19" stroke="#2D2D2D" width="87.5" x="240.24993" y="1046.4999"/>
  <rect fill="#FFEBA2" height="85" id="b3478a1e56704989a105f3a0886319aa-ao-20" stroke="#2D2D2D" width="110" x="487.74992" y="1046.4999"/>
 </g>
</svg>