<svg height="1205" width="1535.9999999999998" xmlns="http://www.w3.org/2000/svg">
 <!-- Created with Image Occlusion Enhanced -->
 <g>
  <title>Labels</title>
 </g>
 <g>
  <title>Masks</title>
  <rect fill="#FFEBA2" height="31.42857" id="b39628c60c414a37b3f234c7fe0fd43f-ao-1" stroke="#2D2D2D" width="111.42858" x="728.28582" y="24.99997"/>
  <rect fill="#FFEBA2" height="28.57143" id="b39628c60c414a37b3f234c7fe0fd43f-ao-2" stroke="#2D2D2D" width="160.00001" x="696.85724" y="67.85712"/>
  <rect fill="#FFEBA2" height="25.71429" id="b39628c60c414a37b3f234c7fe0fd43f-ao-3" stroke="#2D2D2D" width="177.14287" x="682.57153" y="113.57141"/>
  <rect fill="#FFEBA2" height="28.57143" id="b39628c60c414a37b3f234c7fe0fd43f-ao-4" stroke="#2D2D2D" width="65.71429" x="274.00008" y="142.14284"/>
  <rect fill="#FFEBA2" height="31.42857" id="b39628c60c414a37b3f234c7fe0fd43f-ao-5" stroke="#2D2D2D" width="191.42858" x="642.57153" y="153.57141"/>
  <rect fill="#FFEBA2" height="25.71429" id="b39628c60c414a37b3f234c7fe0fd43f-ao-6" stroke="#2D2D2D" width="54.28572" x="274.00008" y="216.42855"/>
  <rect fill="#FFEBA2" height="34.28572" id="b39628c60c414a37b3f234c7fe0fd43f-ao-7" stroke="#2D2D2D" width="157.14286" x="631.14296" y="196.42855"/>
  <rect fill="#FFEBA2" height="31.42857" id="b39628c60c414a37b3f234c7fe0fd43f-ao-8" stroke="#2D2D2D" width="134.28572" x="1122.57155" y="207.85712"/>
  <rect fill="#FFEBA2" height="31.42857" id="b39628c60c414a37b3f234c7fe0fd43f-ao-9" stroke="#2D2D2D" width="137.14286" x="611.14295" y="282.14284"/>
  <rect fill="#FFEBA2" height="31.42857" id="b39628c60c414a37b3f234c7fe0fd43f-ao-10" stroke="#2D2D2D" width="157.14286" x="1108.28583" y="273.57141"/>
  <rect fill="#FFEBA2" height="31.42857" id="b39628c60c414a37b3f234c7fe0fd43f-ao-11" stroke="#2D2D2D" width="162.85715" x="168.28579" y="296.42856"/>
  <rect fill="#FFEBA2" height="31.42857" id="b39628c60c414a37b3f234c7fe0fd43f-ao-12" stroke="#2D2D2D" width="71.42857" x="259.71437" y="373.57142"/>
  <rect fill="#FFEBA2" height="37.14286" id="b39628c60c414a37b3f234c7fe0fd43f-ao-13" stroke="#2D2D2D" width="62.85715" x="605.42867" y="373.57142"/>
  <rect fill="#FFEBA2" height="34.28572" id="b39628c60c414a37b3f234c7fe0fd43f-ao-14" stroke="#2D2D2D" width="68.57143" x="828.28582" y="384.99999"/>
  <rect fill="#FFEBA2" height="28.57143" id="b39628c60c414a37b3f234c7fe0fd43f-ao-15" stroke="#2D2D2D" width="60" x="1088.28583" y="387.85713"/>
  <rect fill="#FFEBA2" height="28.57143" id="b39628c60c414a37b3f234c7fe0fd43f-ao-16" stroke="#2D2D2D" width="157.14286" x="168.28579" y="479.28571"/>
  <rect fill="#FFEBA2" height="28.57143" id="b39628c60c414a37b3f234c7fe0fd43f-ao-17" stroke="#2D2D2D" width="154.28572" x="608.28581" y="467.85714"/>
  <rect fill="#FFEBA2" height="31.42857" id="b39628c60c414a37b3f234c7fe0fd43f-ao-18" stroke="#2D2D2D" width="151.42858" x="1088.28583" y="473.57142"/>
  <rect fill="#FFEBA2" height="31.42857" id="b39628c60c414a37b3f234c7fe0fd43f-ao-19" stroke="#2D2D2D" width="160.00001" x="608.28581" y="547.85714"/>
  <rect fill="#FFEBA2" height="34.28572" id="b39628c60c414a37b3f234c7fe0fd43f-ao-20" stroke="#2D2D2D" width="160.00001" x="1099.71441" y="539.28571"/>
  <rect fill="#FFEBA2" height="31.42857" id="b39628c60c414a37b3f234c7fe0fd43f-ao-21" stroke="#2D2D2D" width="154.28572" x="159.71436" y="596.42857"/>
  <rect fill="#FFEBA2" height="31.42857" id="b39628c60c414a37b3f234c7fe0fd43f-ao-22" stroke="#2D2D2D" width="165.71429" x="1105.42869" y="602.14286"/>
  <rect fill="#FFEBA2" height="48.57143" id="b39628c60c414a37b3f234c7fe0fd43f-ao-23" stroke="#2D2D2D" width="142.85715" x="779.71439" y="630.71429"/>
  <rect fill="#FFEBA2" height="31.42857" id="b39628c60c414a37b3f234c7fe0fd43f-ao-24" stroke="#2D2D2D" width="191.42858" x="145.42865" y="673.57143"/>
  <rect fill="#FFEBA2" height="51.42857" id="b39628c60c414a37b3f234c7fe0fd43f-ao-25" stroke="#2D2D2D" width="142.85715" x="614.0001" y="710.71429"/>
  <rect fill="#FFEBA2" height="54.28572" id="b39628c60c414a37b3f234c7fe0fd43f-ao-26" stroke="#2D2D2D" width="128.57143" x="176.85722" y="750.71429"/>
  <rect fill="#FFEBA2" height="31.42857" id="b39628c60c414a37b3f234c7fe0fd43f-ao-27" stroke="#2D2D2D" width="231.42858" x="1102.57155" y="825.00001"/>
  <rect fill="#FFEBA2" height="48.57143" id="b39628c60c414a37b3f234c7fe0fd43f-ao-28" stroke="#2D2D2D" width="211.42858" x="679.71439" y="859.28573"/>
  <rect fill="#FFEBA2" height="71.42857" id="b39628c60c414a37b3f234c7fe0fd43f-ao-29" stroke="#2D2D2D" width="202.85715" x="1174.00012" y="890.7143"/>
  <rect class="qshape" fill="#FF7E7E" height="74.28572" id="b39628c60c414a37b3f234c7fe0fd43f-ao-30" stroke="#2D2D2D" width="222.85715" x="682.57153" y="936.42859"/>
  <rect fill="#FFEBA2" height="100" id="b39628c60c414a37b3f234c7fe0fd43f-ao-31" stroke="#2D2D2D" width="174.28572" x="1185.4287" y="993.57145"/>
  <rect fill="#FFEBA2" height="42.85714" id="b39628c60c414a37b3f234c7fe0fd43f-ao-32" stroke="#2D2D2D" width="151.42858" x="671.14296" y="1036.42859"/>
  <rect fill="#FFEBA2" height="40" id="b39628c60c414a37b3f234c7fe0fd43f-ao-33" stroke="#2D2D2D" width="148.57144" x="142.5715" y="1085.00002"/>
  <rect fill="#FFEBA2" height="48.57143" id="b39628c60c414a37b3f234c7fe0fd43f-ao-34" stroke="#2D2D2D" width="160.00001" x="1148.28584" y="1125.00002"/>
 </g>
</svg>