<svg height="812" width="1222" xmlns="http://www.w3.org/2000/svg">
 <!-- Created with Image Occlusion Enhanced -->
 <g>
  <title>Labels</title>
 </g>
 <g>
  <title>Masks</title>
  <rect fill="#FFEBA2" height="22.5" id="b3ae9d8bee3f4d9588d6a6ebba400faf-ao-1" stroke="#2D2D2D" width="87.5" x="979.25006" y="19.25003"/>
  
  <rect fill="#FFEBA2" height="27.5" id="b3ae9d8bee3f4d9588d6a6ebba400faf-ao-3" stroke="#2D2D2D" width="57.5" x="289.25003" y="36.75003"/>
  <rect fill="#FFEBA2" height="22.5" id="b3ae9d8bee3f4d9588d6a6ebba400faf-ao-4" stroke="#2D2D2D" width="55" x="271.75003" y="96.75003"/>
  <rect fill="#FFEBA2" height="27.5" id="b3ae9d8bee3f4d9588d6a6ebba400faf-ao-5" stroke="#2D2D2D" width="85" x="256.75003" y="151.75004"/>
  <rect fill="#FFEBA2" height="22.5" id="b3ae9d8bee3f4d9588d6a6ebba400faf-ao-6" stroke="#2D2D2D" width="65" x="231.75003" y="214.25004"/>
  <rect fill="#FFEBA2" height="22.5" id="b3ae9d8bee3f4d9588d6a6ebba400faf-ao-7" stroke="#2D2D2D" width="57.5" x="216.75003" y="271.75004"/>
  <rect fill="#FFEBA2" height="25" id="b3ae9d8bee3f4d9588d6a6ebba400faf-ao-8" stroke="#2D2D2D" width="80" x="1126.75007" y="254.25004"/>
  <rect fill="#FFEBA2" height="27.5" id="b3ae9d8bee3f4d9588d6a6ebba400faf-ao-9" stroke="#2D2D2D" width="102.5" x="981.75006" y="154.25004"/>
  <rect fill="#FFEBA2" height="45" id="b3ae9d8bee3f4d9588d6a6ebba400faf-ao-10" stroke="#2D2D2D" width="127.5" x="966.75006" y="206.75004"/>
  <rect fill="#FFEBA2" height="22.5" id="b3ae9d8bee3f4d9588d6a6ebba400faf-ao-11" stroke="#2D2D2D" width="67.5" x="961.75006" y="274.25004"/>
  <rect fill="#FFEBA2" height="42.5" id="b3ae9d8bee3f4d9588d6a6ebba400faf-ao-12" stroke="#2D2D2D" width="122.5" x="964.25006" y="321.75004"/>
  <rect fill="#FFEBA2" height="27.5" id="b3ae9d8bee3f4d9588d6a6ebba400faf-ao-13" stroke="#2D2D2D" width="140.00001" x="1006.75006" y="456.75005"/>
  <rect fill="#FFEBA2" height="30" id="b3ae9d8bee3f4d9588d6a6ebba400faf-ao-14" stroke="#2D2D2D" width="167.50001" x="999.25006" y="656.75006"/>
  <rect fill="#FFEBA2" height="55" id="b3ae9d8bee3f4d9588d6a6ebba400faf-ao-15" stroke="#2D2D2D" width="130" x="186.75003" y="711.75006"/>
  <rect fill="#FFEBA2" height="25" id="b3ae9d8bee3f4d9588d6a6ebba400faf-ao-16" stroke="#2D2D2D" width="20" x="461.75004" y="75.50003"/>
  <rect fill="#FFEBA2" height="20" id="b3ae9d8bee3f4d9588d6a6ebba400faf-ao-17" stroke="#2D2D2D" width="25" x="451.75004" y="100.50003"/>
  <rect fill="#FFEBA2" height="25" id="b3ae9d8bee3f4d9588d6a6ebba400faf-ao-18" stroke="#2D2D2D" width="25" x="449.25004" y="145.50004"/>
  <rect fill="#FFEBA2" height="22.5" id="b3ae9d8bee3f4d9588d6a6ebba400faf-ao-19" stroke="#2D2D2D" width="20" x="446.75004" y="208.00004"/>
  <rect fill="#FFEBA2" height="22.5" id="b3ae9d8bee3f4d9588d6a6ebba400faf-ao-20" stroke="#2D2D2D" width="20" x="421.75004" y="278.00004"/>
  <rect fill="#FFEBA2" height="25" id="b3ae9d8bee3f4d9588d6a6ebba400faf-ao-21" stroke="#2D2D2D" width="22.5" x="426.75004" y="330.50004"/>
  <rect fill="#FFEBA2" height="22.5" id="b3ae9d8bee3f4d9588d6a6ebba400faf-ao-22" stroke="#2D2D2D" width="25" x="409.25004" y="410.50005"/>
  <rect fill="#FFEBA2" height="20" id="b3ae9d8bee3f4d9588d6a6ebba400faf-ao-23" stroke="#2D2D2D" width="25" x="394.25004" y="478.00005"/>
  <rect fill="#FFEBA2" height="25" id="b3ae9d8bee3f4d9588d6a6ebba400faf-ao-24" stroke="#2D2D2D" width="20" x="409.25004" y="530.50005"/>
  <rect fill="#FFEBA2" height="17.5" id="b3ae9d8bee3f4d9588d6a6ebba400faf-ao-25" stroke="#2D2D2D" width="30" x="404.25004" y="608.00005"/>
  <rect fill="#FFEBA2" height="20" id="b3ae9d8bee3f4d9588d6a6ebba400faf-ao-26" stroke="#2D2D2D" width="25" x="414.25004" y="685.50006"/>
  <rect fill="#FFEBA2" height="25" id="b3ae9d8bee3f4d9588d6a6ebba400faf-ao-27" stroke="#2D2D2D" width="32.5" x="444.25004" y="740.50006"/>
 </g>
</svg>