<svg height="558" width="1272" xmlns="http://www.w3.org/2000/svg">
 <!-- Created with Image Occlusion Enhanced -->
 <g>
  <title>Labels</title>
 </g>
 <g>
  <title>Masks</title>
  <rect fill="#FFEBA2" height="27.5" id="b50353edb8bb4e88810331b3dfa391dd-ao-1" stroke="#2D2D2D" width="202.5" x="1005.50005" y="9.5"/>
  <rect fill="#FFEBA2" height="27.5" id="b50353edb8bb4e88810331b3dfa391dd-ao-2" stroke="#2D2D2D" width="87.5" x="1005.50005" y="44.50001"/>
  <rect fill="#FFEBA2" height="32.5" id="b50353edb8bb4e88810331b3dfa391dd-ao-3" stroke="#2D2D2D" width="165" x="68.00003" y="97.00001"/>
  <rect fill="#FFEBA2" height="32.5" id="b50353edb8bb4e88810331b3dfa391dd-ao-4" stroke="#2D2D2D" width="257.50001" x="1008.00005" y="82.00001"/>
  <rect fill="#FFEBA2" height="25" id="b50353edb8bb4e88810331b3dfa391dd-ao-5" stroke="#2D2D2D" width="175" x="1005.50005" y="132.00001"/>
  <rect fill="#FFEBA2" height="30" id="b50353edb8bb4e88810331b3dfa391dd-ao-6" stroke="#2D2D2D" width="207.5" x="68.00003" y="154.50001"/>
  <rect fill="#FFEBA2" height="27.5" id="b50353edb8bb4e88810331b3dfa391dd-ao-7" stroke="#2D2D2D" width="112.5" x="1005.50005" y="179.50001"/>
  
  <rect fill="#FFEBA2" height="25" id="b50353edb8bb4e88810331b3dfa391dd-ao-9" stroke="#2D2D2D" width="200" x="1008.00005" y="237.00001"/>
  <rect fill="#FFEBA2" height="30" id="b50353edb8bb4e88810331b3dfa391dd-ao-10" stroke="#2D2D2D" width="182.5" x="68.00003" y="247.00001"/>
  <rect fill="#FFEBA2" height="25" id="b50353edb8bb4e88810331b3dfa391dd-ao-11" stroke="#2D2D2D" width="157.5" x="1010.50005" y="284.50001"/>
  <rect fill="#FFEBA2" height="25" id="b50353edb8bb4e88810331b3dfa391dd-ao-12" stroke="#2D2D2D" width="150" x="68.00003" y="294.50001"/>
  <rect fill="#FFEBA2" height="27.5" id="b50353edb8bb4e88810331b3dfa391dd-ao-13" stroke="#2D2D2D" width="105" x="1010.50005" y="334.50001"/>
  <rect fill="#FFEBA2" height="25" id="b50353edb8bb4e88810331b3dfa391dd-ao-14" stroke="#2D2D2D" width="170" x="68.00003" y="374.50001"/>
  <rect fill="#FFEBA2" height="27.5" id="b50353edb8bb4e88810331b3dfa391dd-ao-15" stroke="#2D2D2D" width="160" x="68.00003" y="432.00002"/>
  <rect fill="#FFEBA2" height="22.5" id="b50353edb8bb4e88810331b3dfa391dd-ao-16" stroke="#2D2D2D" width="55" x="70.50003" y="482.00002"/>
  <rect fill="#FFEBA2" height="27.5" id="b50353edb8bb4e88810331b3dfa391dd-ao-17" stroke="#2D2D2D" width="77.5" x="1008.00005" y="482.00002"/>
  <rect fill="#FFEBA2" height="27.5" id="b50353edb8bb4e88810331b3dfa391dd-ao-18" stroke="#2D2D2D" width="130" x="1008.00005" y="519.50002"/>
 </g>
</svg>