<svg height="1580" width="1535.9999999999998" xmlns="http://www.w3.org/2000/svg">
 <!-- Created with Image Occlusion Enhanced -->
 <g>
  <title>Labels</title>
 </g>
 <g>
  <title>Masks</title>
  <rect fill="#FFEBA2" height="48.57143" id="b8251bf462424e9485871e746d851292-ao-1" stroke="#2D2D2D" width="225.7143" x="141.14293" y="22.85711"/>
  <rect fill="#FFEBA2" height="71.42857" id="b8251bf462424e9485871e746d851292-ao-2" stroke="#2D2D2D" width="200.00001" x="1115.42869" y="8.57139"/>
  <rect fill="#FFEBA2" height="31.42857" id="b8251bf462424e9485871e746d851292-ao-3" stroke="#2D2D2D" width="191.42858" x="141.14293" y="99.99997"/>
  <rect fill="#FFEBA2" height="28.57143" id="b8251bf462424e9485871e746d851292-ao-4" stroke="#2D2D2D" width="117.14286" x="1124.00012" y="99.99997"/>
  <rect fill="#FFEBA2" height="28.57143" id="b8251bf462424e9485871e746d851292-ao-5" stroke="#2D2D2D" width="62.85715" x="141.14293" y="154.28569"/>
  <rect fill="#FFEBA2" height="48.57143" id="b8251bf462424e9485871e746d851292-ao-6" stroke="#2D2D2D" width="271.42858" x="1124.00012" y="145.71426"/>
  <rect fill="#FFEBA2" height="28.57143" id="b8251bf462424e9485871e746d851292-ao-7" stroke="#2D2D2D" width="160.00001" x="144.00008" y="214.28569"/>
  <rect fill="#FFEBA2" height="48.57143" id="b8251bf462424e9485871e746d851292-ao-8" stroke="#2D2D2D" width="182.85715" x="1126.85726" y="294.28569"/>
  <rect fill="#FFEBA2" height="97.14286" id="b8251bf462424e9485871e746d851292-ao-9" stroke="#2D2D2D" width="222.85715" x="144.00008" y="262.85712"/>
  <rect fill="#FFEBA2" height="28.57143" id="b8251bf462424e9485871e746d851292-ao-10" stroke="#2D2D2D" width="122.85715" x="1124.00012" y="357.14284"/>
  <rect fill="#FFEBA2" height="54.28572" id="b8251bf462424e9485871e746d851292-ao-11" stroke="#2D2D2D" width="157.14286" x="146.85722" y="377.14284"/>
  <rect fill="#FFEBA2" height="28.57143" id="b8251bf462424e9485871e746d851292-ao-12" stroke="#2D2D2D" width="140.00001" x="1124.00012" y="399.99998"/>
  <rect fill="#FFEBA2" height="25.71429" id="b8251bf462424e9485871e746d851292-ao-13" stroke="#2D2D2D" width="94.28572" x="144.00008" y="451.42856"/>
  <rect fill="#FFEBA2" height="28.57143" id="b8251bf462424e9485871e746d851292-ao-14" stroke="#2D2D2D" width="134.28572" x="1115.42869" y="442.85713"/>
  <rect fill="#FFEBA2" height="28.57143" id="b8251bf462424e9485871e746d851292-ao-15" stroke="#2D2D2D" width="182.85715" x="146.85722" y="499.99999"/>
  <rect fill="#FFEBA2" height="31.42857" id="b8251bf462424e9485871e746d851292-ao-16" stroke="#2D2D2D" width="100" x="1101.14298" y="482.85713"/>
  <rect fill="#FFEBA2" height="34.28572" id="b8251bf462424e9485871e746d851292-ao-17" stroke="#2D2D2D" width="208.57144" x="146.85722" y="542.85713"/>
  <rect fill="#FFEBA2" height="34.28572" id="b8251bf462424e9485871e746d851292-ao-18" stroke="#2D2D2D" width="262.85715" x="1078.28583" y="525.71427"/>
  <rect fill="#FFEBA2" height="54.28572" id="b8251bf462424e9485871e746d851292-ao-19" stroke="#2D2D2D" width="228.57144" x="144.00008" y="591.42856"/>
  <rect fill="#FFEBA2" height="57.14286" id="b8251bf462424e9485871e746d851292-ao-20" stroke="#2D2D2D" width="305.7143" x="1058.28583" y="568.57142"/>
  <rect fill="#FFEBA2" height="34.28572" id="b8251bf462424e9485871e746d851292-ao-21" stroke="#2D2D2D" width="168.57144" x="144.00008" y="659.99999"/>
  <rect fill="#FFEBA2" height="34.28572" id="b8251bf462424e9485871e746d851292-ao-22" stroke="#2D2D2D" width="168.57144" x="1061.14298" y="674.28571"/>
  <rect fill="#FFEBA2" height="28.57143" id="b8251bf462424e9485871e746d851292-ao-23" stroke="#2D2D2D" width="171.42858" x="146.85722" y="711.42857"/>
  <rect fill="#FFEBA2" height="54.28572" id="b8251bf462424e9485871e746d851292-ao-24" stroke="#2D2D2D" width="254.28573" x="1069.7144" y="720"/>
  <rect fill="#FFEBA2" height="31.42857" id="b8251bf462424e9485871e746d851292-ao-25" stroke="#2D2D2D" width="134.28572" x="146.85722" y="760"/>
  <rect fill="#FFEBA2" height="28.57143" id="b8251bf462424e9485871e746d851292-ao-26" stroke="#2D2D2D" width="274.28573" x="1081.14298" y="788.57143"/>
  <rect fill="#FFEBA2" height="48.57143" id="b8251bf462424e9485871e746d851292-ao-27" stroke="#2D2D2D" width="171.42858" x="146.85722" y="808.57143"/>
  <rect fill="#FFEBA2" height="25.71429" id="b8251bf462424e9485871e746d851292-ao-28" stroke="#2D2D2D" width="191.42858" x="141.14293" y="877.14286"/>
  <rect fill="#FFEBA2" height="57.14286" id="b8251bf462424e9485871e746d851292-ao-29" stroke="#2D2D2D" width="188.57144" x="135.42865" y="920.00001"/>
  <rect fill="#FFEBA2" height="31.42857" id="b8251bf462424e9485871e746d851292-ao-30" stroke="#2D2D2D" width="197.14287" x="1155.42869" y="997.14287"/>
  <rect fill="#FFEBA2" height="74.28572" id="b8251bf462424e9485871e746d851292-ao-31" stroke="#2D2D2D" width="168.57144" x="141.14293" y="994.28572"/>
  <rect fill="#FFEBA2" height="28.57143" id="b8251bf462424e9485871e746d851292-ao-32" stroke="#2D2D2D" width="94.28572" x="1161.14298" y="1037.14287"/>
  <rect fill="#FFEBA2" height="48.57143" id="b8251bf462424e9485871e746d851292-ao-33" stroke="#2D2D2D" width="211.42858" x="1155.42869" y="1085.7143"/>
  <rect fill="#FFEBA2" height="74.28572" id="b8251bf462424e9485871e746d851292-ao-34" stroke="#2D2D2D" width="200.00001" x="144.00008" y="1085.7143"/>
  <rect fill="#FFEBA2" height="28.57143" id="b8251bf462424e9485871e746d851292-ao-35" stroke="#2D2D2D" width="182.85715" x="1155.42869" y="1142.85716"/>
  <rect fill="#FFEBA2" height="34.28572" id="b8251bf462424e9485871e746d851292-ao-36" stroke="#2D2D2D" width="154.28572" x="144.00008" y="1177.14287"/>
  <rect fill="#FFEBA2" height="28.57143" id="b8251bf462424e9485871e746d851292-ao-37" stroke="#2D2D2D" width="151.42858" x="1138.28584" y="1188.57145"/>
  <rect fill="#FFEBA2" height="28.57143" id="b8251bf462424e9485871e746d851292-ao-38" stroke="#2D2D2D" width="108.57143" x="146.85722" y="1228.57145"/>
  <g id="b8251bf462424e9485871e746d851292-ao-39">
   <rect fill="#FFEBA2" height="94.28572" stroke="#2D2D2D" width="100" x="1304.00013" y="1222.85716"/>
   <g>
    <rect fill="#FFEBA2" height="31.42857" stroke="#2D2D2D" width="68.57143" x="1126.85726" y="1228.57145"/>
    <rect fill="#FFEBA2" height="22.85714" stroke="#2D2D2D" width="120.00001" x="1126.85726" y="1260.00002"/>
    <rect fill="#FFEBA2" height="25.71429" stroke="#2D2D2D" width="145.71429" x="1126.85726" y="1282.85717"/>
   </g>
  </g>
  <rect fill="#FFEBA2" height="57.14286" id="b8251bf462424e9485871e746d851292-ao-40" stroke="#2D2D2D" width="222.85715" x="141.14293" y="1274.28574"/>
  <rect fill="#FFEBA2" height="51.42857" id="b8251bf462424e9485871e746d851292-ao-41" stroke="#2D2D2D" width="302.85716" x="1075.42869" y="1320.00002"/>
  <rect fill="#FFEBA2" height="54.28572" id="b8251bf462424e9485871e746d851292-ao-42" stroke="#2D2D2D" width="197.14287" x="144.00008" y="1345.71431"/>
  <rect fill="#FFEBA2" height="31.42857" id="b8251bf462424e9485871e746d851292-ao-43" stroke="#2D2D2D" width="242.85715" x="1072.57155" y="1385.71431"/>
  <rect fill="#FFEBA2" height="34.28572" id="b8251bf462424e9485871e746d851292-ao-44" stroke="#2D2D2D" width="522.85717" x="715.42867" y="1468.57146"/>
  <rect fill="#FFEBA2" height="34.28572" id="b8251bf462424e9485871e746d851292-ao-45" stroke="#2D2D2D" width="205.7143" x="266.85722" y="1502.85718"/>
  <rect fill="#FFEBA2" height="28.57143" id="b8251bf462424e9485871e746d851292-ao-46" stroke="#2D2D2D" width="68.57143" x="558.28581" y="1511.4286"/>
  <rect fill="#FFEBA2" height="42.85714" id="b8251bf462424e9485871e746d851292-ao-47" stroke="#2D2D2D" width="480.00002" x="684.0001" y="1517.14289"/>
  <rect fill="#FFEBA2" height="31.42857" id="b8251bf462424e9485871e746d851292-ao-48" stroke="#2D2D2D" width="40" x="915.42868" y="87.14283"/>
  <rect fill="#FFEBA2" height="28.57143" id="b8251bf462424e9485871e746d851292-ao-49" stroke="#2D2D2D" width="45.71429" x="895.42868" y="184.28569"/>
  <rect fill="#FFEBA2" height="25.71429" id="b8251bf462424e9485871e746d851292-ao-50" stroke="#2D2D2D" width="57.14286" x="866.85725" y="261.42855"/>
  <rect fill="#FFEBA2" height="25.71429" id="b8251bf462424e9485871e746d851292-ao-51" stroke="#2D2D2D" width="34.28572" x="852.57154" y="378.57141"/>
  
  <rect fill="#FFEBA2" height="28.57143" id="b8251bf462424e9485871e746d851292-ao-53" stroke="#2D2D2D" width="42.85714" x="818.28582" y="515.71427"/>
  <rect fill="#FFEBA2" height="34.28572" id="b8251bf462424e9485871e746d851292-ao-54" stroke="#2D2D2D" width="40" x="784.00011" y="632.85714"/>
  <rect fill="#FFEBA2" height="31.42857" id="b8251bf462424e9485871e746d851292-ao-55" stroke="#2D2D2D" width="37.14286" x="786.85725" y="741.42857"/>
  <rect fill="#FFEBA2" height="31.42857" id="b8251bf462424e9485871e746d851292-ao-56" stroke="#2D2D2D" width="37.14286" x="841.14297" y="821.42857"/>
  <rect fill="#FFEBA2" height="25.71429" id="b8251bf462424e9485871e746d851292-ao-57" stroke="#2D2D2D" width="34.28572" x="909.7144" y="870"/>
 </g>
</svg>