<svg height="693" width="1264" xmlns="http://www.w3.org/2000/svg">
 <!-- Created with Image Occlusion Enhanced -->
 <g>
  <title>Labels</title>
 </g>
 <g>
  <title>Masks</title>
  <rect fill="#FFEBA2" height="25.71429" id="b8fee43f58c64833b41f0afe54291ba3-ao-1" stroke="#2D2D2D" width="154.28572" x="651.71431" y="11.2857"/>
  <rect fill="#FFEBA2" height="25.71429" id="b8fee43f58c64833b41f0afe54291ba3-ao-2" stroke="#2D2D2D" width="254.28572" x="57.42859" y="79.85713"/>
  <rect fill="#FFEBA2" height="25.71429" id="b8fee43f58c64833b41f0afe54291ba3-ao-3" stroke="#2D2D2D" width="202.85715" x="717.4286" y="56.99998"/>
  <rect fill="#FFEBA2" height="25.71429" id="b8fee43f58c64833b41f0afe54291ba3-ao-4" stroke="#2D2D2D" width="177.14286" x="766.00003" y="99.85713"/>
  <rect fill="#FFEBA2" height="28.57143" id="b8fee43f58c64833b41f0afe54291ba3-ao-5" stroke="#2D2D2D" width="111.42857" x="186.00002" y="122.71427"/>
  <rect fill="#FFEBA2" height="22.85714" id="b8fee43f58c64833b41f0afe54291ba3-ao-6" stroke="#2D2D2D" width="54.28572" x="826.00003" y="134.14284"/>
  <rect fill="#FFEBA2" height="48.57143" id="b8fee43f58c64833b41f0afe54291ba3-ao-7" stroke="#2D2D2D" width="205.71429" x="86.00002" y="171.2857"/>
  <rect fill="#FFEBA2" height="25.71429" id="b8fee43f58c64833b41f0afe54291ba3-ao-8" stroke="#2D2D2D" width="80" x="891.71432" y="151.2857"/>
  <rect fill="#FFEBA2" height="25.71429" id="b8fee43f58c64833b41f0afe54291ba3-ao-9" stroke="#2D2D2D" width="242.85715" x="940.28574" y="182.71427"/>
  <rect fill="#FFEBA2" height="22.85714" id="b8fee43f58c64833b41f0afe54291ba3-ao-10" stroke="#2D2D2D" width="151.42857" x="143.14288" y="248.42856"/>
  
  <rect fill="#FFEBA2" height="22.85714" id="b8fee43f58c64833b41f0afe54291ba3-ao-12" stroke="#2D2D2D" width="97.14286" x="188.85716" y="294.14284"/>
  <rect fill="#FFEBA2" height="25.71429" id="b8fee43f58c64833b41f0afe54291ba3-ao-13" stroke="#2D2D2D" width="102.85714" x="1017.4286" y="285.57141"/>
  <rect fill="#FFEBA2" height="42.85714" id="b8fee43f58c64833b41f0afe54291ba3-ao-14" stroke="#2D2D2D" width="202.85715" x="91.7143" y="342.71427"/>
  <rect fill="#FFEBA2" height="25.71429" id="b8fee43f58c64833b41f0afe54291ba3-ao-15" stroke="#2D2D2D" width="68.57143" x="1017.4286" y="325.57142"/>
  <rect fill="#FFEBA2" height="48.57143" id="b8fee43f58c64833b41f0afe54291ba3-ao-16" stroke="#2D2D2D" width="165.71429" x="1020.28575" y="368.42856"/>
  <rect fill="#FFEBA2" height="48.57143" id="b8fee43f58c64833b41f0afe54291ba3-ao-17" stroke="#2D2D2D" width="180" x="60.28573" y="416.99999"/>
  <rect fill="#FFEBA2" height="25.71429" id="b8fee43f58c64833b41f0afe54291ba3-ao-18" stroke="#2D2D2D" width="154.28572" x="1017.4286" y="434.14285"/>
  <rect fill="#FFEBA2" height="45.71429" id="b8fee43f58c64833b41f0afe54291ba3-ao-19" stroke="#2D2D2D" width="214.28572" x="1014.57146" y="471.2857"/>
  <rect fill="#FFEBA2" height="25.71429" id="b8fee43f58c64833b41f0afe54291ba3-ao-20" stroke="#2D2D2D" width="65.71429" x="223.14288" y="482.71427"/>
  <rect fill="#FFEBA2" height="31.42857" id="b8fee43f58c64833b41f0afe54291ba3-ao-21" stroke="#2D2D2D" width="151.42857" x="140.28573" y="531.2857"/>
  <rect fill="#FFEBA2" height="48.57143" id="b8fee43f58c64833b41f0afe54291ba3-ao-22" stroke="#2D2D2D" width="162.85715" x="1017.4286" y="536.99999"/>
  <rect fill="#FFEBA2" height="48.57143" id="b8fee43f58c64833b41f0afe54291ba3-ao-23" stroke="#2D2D2D" width="220" x="97.42859" y="582.71428"/>
  <rect fill="#FFEBA2" height="45.71429" id="b8fee43f58c64833b41f0afe54291ba3-ao-24" stroke="#2D2D2D" width="237.14286" x="1011.71432" y="596.99999"/>
  <rect fill="#FFEBA2" height="28.57143" id="b8fee43f58c64833b41f0afe54291ba3-ao-25" stroke="#2D2D2D" width="162.85715" x="134.57145" y="654.14285"/>
 </g>
</svg>