<svg height="1600.9999999999998" width="1526.0000000000002" xmlns="http://www.w3.org/2000/svg">
 <!-- Created with Image Occlusion Enhanced -->
 <g>
  <title>Labels</title>
 </g>
 <g>
  <title>Masks</title>
  <rect fill="#FFEBA2" height="25.71429" id="b92444d8628e496bb27897afc5c869ba-ao-1" stroke="#2D2D2D" width="142.85715" x="418.2858" y="47.5715"/>
  <rect fill="#FFEBA2" height="28.57143" id="b92444d8628e496bb27897afc5c869ba-ao-2" stroke="#2D2D2D" width="177.14287" x="941.14297" y="53.28578"/>
  <rect fill="#FFEBA2" height="28.57143" id="b92444d8628e496bb27897afc5c869ba-ao-3" stroke="#2D2D2D" width="148.57144" x="415.42866" y="113.28579"/>
  <rect fill="#FFEBA2" height="25.71429" id="b92444d8628e496bb27897afc5c869ba-ao-4" stroke="#2D2D2D" width="140.00001" x="966.85726" y="110.42864"/>
  <rect fill="#FFEBA2" height="28.57143" id="b92444d8628e496bb27897afc5c869ba-ao-5" stroke="#2D2D2D" width="177.14287" x="389.71437" y="173.28579"/>
  <rect fill="#FFEBA2" height="31.42857" id="b92444d8628e496bb27897afc5c869ba-ao-6" stroke="#2D2D2D" width="117.14286" x="966.85726" y="167.5715"/>
  <rect fill="#FFEBA2" height="34.28572" id="b92444d8628e496bb27897afc5c869ba-ao-7" stroke="#2D2D2D" width="154.28572" x="415.42866" y="230.42865"/>
  <rect fill="#FFEBA2" height="28.57143" id="b92444d8628e496bb27897afc5c869ba-ao-8" stroke="#2D2D2D" width="114.28572" x="958.28583" y="221.85722"/>
  <rect fill="#FFEBA2" height="28.57143" id="b92444d8628e496bb27897afc5c869ba-ao-9" stroke="#2D2D2D" width="142.85715" x="995.42869" y="276.14294"/>
  <rect fill="#FFEBA2" height="28.57143" id="b92444d8628e496bb27897afc5c869ba-ao-10" stroke="#2D2D2D" width="148.57144" x="392.57152" y="290.42865"/>
  <rect fill="#FFEBA2" height="28.57143" id="b92444d8628e496bb27897afc5c869ba-ao-11" stroke="#2D2D2D" width="65.71429" x="281.14294" y="353.2858"/>
  <rect fill="#FFEBA2" height="74.28572" id="b92444d8628e496bb27897afc5c869ba-ao-12" stroke="#2D2D2D" width="177.14287" x="1206.85727" y="433.2858"/>
  <rect fill="#FFEBA2" height="51.42857" id="b92444d8628e496bb27897afc5c869ba-ao-13" stroke="#2D2D2D" width="117.14286" x="189.71436" y="504.71438"/>
  <rect fill="#FFEBA2" height="54.28572" id="b92444d8628e496bb27897afc5c869ba-ao-14" stroke="#2D2D2D" width="94.28572" x="1215.4287" y="564.71438"/>
  <rect fill="#FFEBA2" height="54.28572" id="b92444d8628e496bb27897afc5c869ba-ao-15" stroke="#2D2D2D" width="117.14286" x="172.57151" y="607.57152"/>
  <rect fill="#FFEBA2" height="54.28572" id="b92444d8628e496bb27897afc5c869ba-ao-16" stroke="#2D2D2D" width="91.42858" x="1226.85727" y="661.85724"/>
  <rect fill="#FFEBA2" height="31.42857" id="b92444d8628e496bb27897afc5c869ba-ao-17" stroke="#2D2D2D" width="82.85715" x="201.14294" y="716.14296"/>
  <rect fill="#FFEBA2" height="51.42857" id="b92444d8628e496bb27897afc5c869ba-ao-18" stroke="#2D2D2D" width="151.42858" x="1229.71441" y="764.71439"/>
  <rect fill="#FFEBA2" height="54.28572" id="b92444d8628e496bb27897afc5c869ba-ao-19" stroke="#2D2D2D" width="108.57143" x="152.57151" y="836.14296"/>
  <rect fill="#FFEBA2" height="28.57143" id="b92444d8628e496bb27897afc5c869ba-ao-20" stroke="#2D2D2D" width="157.14286" x="224.00008" y="927.57154"/>
  <rect fill="#FFEBA2" height="51.42857" id="b92444d8628e496bb27897afc5c869ba-ao-21" stroke="#2D2D2D" width="111.42858" x="1146.85727" y="936.14297"/>
  <rect fill="#FFEBA2" height="31.42857" id="b92444d8628e496bb27897afc5c869ba-ao-22" stroke="#2D2D2D" width="174.28572" x="246.85722" y="993.28583"/>
  <rect fill="#FFEBA2" height="25.71429" id="b92444d8628e496bb27897afc5c869ba-ao-23" stroke="#2D2D2D" width="148.57144" x="1069.7144" y="1016.14297"/>
  
  <rect fill="#FFEBA2" height="31.42857" id="b92444d8628e496bb27897afc5c869ba-ao-25" stroke="#2D2D2D" width="120.00001" x="1098.28583" y="1067.57155"/>
  <rect fill="#FFEBA2" height="31.42857" id="b92444d8628e496bb27897afc5c869ba-ao-26" stroke="#2D2D2D" width="142.85715" x="278.2858" y="1101.85726"/>
  <rect fill="#FFEBA2" height="28.57143" id="b92444d8628e496bb27897afc5c869ba-ao-27" stroke="#2D2D2D" width="142.85715" x="1101.14298" y="1124.71441"/>
  <rect fill="#FFEBA2" height="25.71429" id="b92444d8628e496bb27897afc5c869ba-ao-28" stroke="#2D2D2D" width="148.57144" x="275.42865" y="1153.28584"/>
  <rect fill="#FFEBA2" height="34.28572" id="b92444d8628e496bb27897afc5c869ba-ao-29" stroke="#2D2D2D" width="134.28572" x="1095.42869" y="1181.85726"/>
  <rect fill="#FFEBA2" height="28.57143" id="b92444d8628e496bb27897afc5c869ba-ao-30" stroke="#2D2D2D" width="177.14287" x="244.00008" y="1204.71441"/>
  <rect fill="#FFEBA2" height="45.71429" id="b92444d8628e496bb27897afc5c869ba-ao-31" stroke="#2D2D2D" width="194.28572" x="1112.57155" y="1239.00012"/>
  <rect fill="#FFEBA2" height="25.71429" id="b92444d8628e496bb27897afc5c869ba-ao-32" stroke="#2D2D2D" width="237.14287" x="189.71436" y="1253.28584"/>
  <rect fill="#FFEBA2" height="51.42857" id="b92444d8628e496bb27897afc5c869ba-ao-33" stroke="#2D2D2D" width="174.28572" x="252.57151" y="1293.28584"/>
  <rect fill="#FFEBA2" height="25.71429" id="b92444d8628e496bb27897afc5c869ba-ao-34" stroke="#2D2D2D" width="125.71429" x="1121.14298" y="1316.14299"/>
  <rect fill="#FFEBA2" height="28.57143" id="b92444d8628e496bb27897afc5c869ba-ao-35" stroke="#2D2D2D" width="242.85715" x="184.00008" y="1370.4287"/>
  <rect fill="#FFEBA2" height="51.42857" id="b92444d8628e496bb27897afc5c869ba-ao-36" stroke="#2D2D2D" width="168.57144" x="1118.28584" y="1367.57156"/>
  <rect fill="#FFEBA2" height="25.71429" id="b92444d8628e496bb27897afc5c869ba-ao-37" stroke="#2D2D2D" width="148.57144" x="286.85723" y="1413.28585"/>
  <rect fill="#FFEBA2" height="28.57143" id="b92444d8628e496bb27897afc5c869ba-ao-38" stroke="#2D2D2D" width="154.28572" x="1101.14298" y="1447.57156"/>
  <rect fill="#FFEBA2" height="25.71429" id="b92444d8628e496bb27897afc5c869ba-ao-39" stroke="#2D2D2D" width="165.71429" x="272.57151" y="1470.42871"/>
  <rect fill="#FFEBA2" height="25.71429" id="b92444d8628e496bb27897afc5c869ba-ao-40" stroke="#2D2D2D" width="85.71429" x="1098.28583" y="1507.57157"/>
 </g>
</svg>