<svg height="1539" width="1535.9999999999998" xmlns="http://www.w3.org/2000/svg">
 <!-- Created with Image Occlusion Enhanced -->
 <g>
  <title>Labels</title>
 </g>
 <g>
  <title>Masks</title>
  
  <rect fill="#FFEBA2" height="31.42857" id="ba210963f70f49caacda35ae72dbc492-ao-2" stroke="#2D2D2D" width="168.57144" x="258.2858" y="79.57129"/>
  <rect fill="#FFEBA2" height="28.57143" id="ba210963f70f49caacda35ae72dbc492-ao-3" stroke="#2D2D2D" width="140.00001" x="924.00011" y="119.57129"/>
  <rect fill="#FFEBA2" height="25.71429" id="ba210963f70f49caacda35ae72dbc492-ao-4" stroke="#2D2D2D" width="191.42858" x="184.00008" y="156.71415"/>
  <rect fill="#FFEBA2" height="28.57143" id="ba210963f70f49caacda35ae72dbc492-ao-5" stroke="#2D2D2D" width="185.71429" x="146.85722" y="228.14273"/>
  <rect fill="#FFEBA2" height="28.57143" id="ba210963f70f49caacda35ae72dbc492-ao-6" stroke="#2D2D2D" width="308.57144" x="1009.7144" y="270.99987"/>
  <rect fill="#FFEBA2" height="25.71429" id="ba210963f70f49caacda35ae72dbc492-ao-7" stroke="#2D2D2D" width="168.57144" x="1069.7144" y="348.14273"/>
  <rect fill="#FFEBA2" height="25.71429" id="ba210963f70f49caacda35ae72dbc492-ao-8" stroke="#2D2D2D" width="171.42858" x="1069.7144" y="425.28559"/>
  <rect fill="#FFEBA2" height="28.57143" id="ba210963f70f49caacda35ae72dbc492-ao-9" stroke="#2D2D2D" width="154.28572" x="1066.85726" y="499.57131"/>
  <rect fill="#FFEBA2" height="80" id="ba210963f70f49caacda35ae72dbc492-ao-10" stroke="#2D2D2D" width="220.00001" x="1069.7144" y="573.85703"/>
  <rect fill="#FFEBA2" height="28.57143" id="ba210963f70f49caacda35ae72dbc492-ao-11" stroke="#2D2D2D" width="177.14287" x="1072.57155" y="702.42846"/>
  <rect fill="#FFEBA2" height="28.57143" id="ba210963f70f49caacda35ae72dbc492-ao-12" stroke="#2D2D2D" width="220.00001" x="1066.85726" y="773.85704"/>
  <rect fill="#FFEBA2" height="51.42857" id="ba210963f70f49caacda35ae72dbc492-ao-13" stroke="#2D2D2D" width="325.7143" x="1072.57155" y="850.9999"/>
  <rect fill="#FFEBA2" height="45.71429" id="ba210963f70f49caacda35ae72dbc492-ao-14" stroke="#2D2D2D" width="260.00001" x="1069.7144" y="950.9999"/>
  <rect fill="#FFEBA2" height="28.57143" id="ba210963f70f49caacda35ae72dbc492-ao-15" stroke="#2D2D2D" width="191.42858" x="1069.7144" y="1048.14277"/>
  <rect fill="#FFEBA2" height="48.57143" id="ba210963f70f49caacda35ae72dbc492-ao-16" stroke="#2D2D2D" width="251.42858" x="1069.7144" y="1125.28563"/>
  <rect fill="#FFEBA2" height="31.42857" id="ba210963f70f49caacda35ae72dbc492-ao-17" stroke="#2D2D2D" width="180.00001" x="1069.7144" y="1222.42849"/>
  <rect fill="#FFEBA2" height="54.28572" id="ba210963f70f49caacda35ae72dbc492-ao-18" stroke="#2D2D2D" width="325.7143" x="1072.57155" y="1296.71421"/>
  <rect fill="#FFEBA2" height="34.28572" id="ba210963f70f49caacda35ae72dbc492-ao-19" stroke="#2D2D2D" width="200.00001" x="598.28581" y="1408.14278"/>
  <rect fill="#FFEBA2" height="48.57143" id="ba210963f70f49caacda35ae72dbc492-ao-20" stroke="#2D2D2D" width="194.28572" x="184.00008" y="1430.99993"/>
  <rect fill="#FFEBA2" height="31.42857" id="ba210963f70f49caacda35ae72dbc492-ao-21" stroke="#2D2D2D" width="208.57144" x="532.57152" y="1479.57136"/>
 </g>
</svg>