<svg height="725" width="1535.9999999999998" xmlns="http://www.w3.org/2000/svg">
 <!-- Created with Image Occlusion Enhanced -->
 <g>
  <title>Labels</title>
 </g>
 <g>
  <title>Masks</title>
  <rect fill="#FFEBA2" height="48.57143" id="bb6e649f26a945c2acc4f4aef588bffa-ao-1" stroke="#2D2D2D" width="97.14286" x="146.85722" y="17.85713"/>
  <rect fill="#FFEBA2" height="25.71429" id="bb6e649f26a945c2acc4f4aef588bffa-ao-2" stroke="#2D2D2D" width="222.85715" x="661.14296" y="17.85713"/>
  <rect fill="#FFEBA2" height="45.71429" id="bb6e649f26a945c2acc4f4aef588bffa-ao-3" stroke="#2D2D2D" width="102.85715" x="1192.57155" y="23.57141"/>
  <rect fill="#FFEBA2" height="65.71429" id="bb6e649f26a945c2acc4f4aef588bffa-ao-4" stroke="#2D2D2D" width="71.42857" x="146.85722" y="89.2857"/>
  <rect fill="#FFEBA2" height="28.57143" id="bb6e649f26a945c2acc4f4aef588bffa-ao-5" stroke="#2D2D2D" width="154.28572" x="738.28582" y="69.2857"/>
  <rect fill="#FFEBA2" height="48.57143" id="bb6e649f26a945c2acc4f4aef588bffa-ao-6" stroke="#2D2D2D" width="114.28572" x="769.71439" y="123.57142"/>
  <rect fill="#FFEBA2" height="45.71429" id="bb6e649f26a945c2acc4f4aef588bffa-ao-7" stroke="#2D2D2D" width="108.57143" x="144.00008" y="169.28571"/>
  <rect fill="#FFEBA2" height="28.57143" id="bb6e649f26a945c2acc4f4aef588bffa-ao-8" stroke="#2D2D2D" width="62.85715" x="784.00011" y="192.14285"/>
  <rect fill="#FFEBA2" height="54.28572" id="bb6e649f26a945c2acc4f4aef588bffa-ao-9" stroke="#2D2D2D" width="74.28572" x="144.00008" y="234.99999"/>
  <rect fill="#FFEBA2" height="25.71429" id="bb6e649f26a945c2acc4f4aef588bffa-ao-10" stroke="#2D2D2D" width="131.42858" x="781.14296" y="234.99999"/>
  <rect fill="#FFEBA2" height="48.57143" id="bb6e649f26a945c2acc4f4aef588bffa-ao-11" stroke="#2D2D2D" width="114.28572" x="152.57151" y="306.42857"/>
  <rect fill="#FFEBA2" height="28.57143" id="bb6e649f26a945c2acc4f4aef588bffa-ao-12" stroke="#2D2D2D" width="137.14286" x="141.14293" y="380.71429"/>
  <rect fill="#FFEBA2" height="68.57143" id="bb6e649f26a945c2acc4f4aef588bffa-ao-13" stroke="#2D2D2D" width="180.00001" x="144.00008" y="429.28572"/>
  <rect fill="#FFEBA2" height="28.57143" id="bb6e649f26a945c2acc4f4aef588bffa-ao-14" stroke="#2D2D2D" width="117.14286" x="195.42865" y="517.85715"/>
  <rect class="qshape" fill="#FF7E7E" height="48.57143" id="bb6e649f26a945c2acc4f4aef588bffa-ao-15" stroke="#2D2D2D" width="82.85715" x="1289.71441" y="535.00001"/>
  <rect fill="#FFEBA2" height="25.71429" id="bb6e649f26a945c2acc4f4aef588bffa-ao-16" stroke="#2D2D2D" width="165.71429" x="221.14294" y="577.85715"/>
  <rect fill="#FFEBA2" height="28.57143" id="bb6e649f26a945c2acc4f4aef588bffa-ao-17" stroke="#2D2D2D" width="174.28572" x="249.71437" y="629.28573"/>
  <rect fill="#FFEBA2" height="25.71429" id="bb6e649f26a945c2acc4f4aef588bffa-ao-18" stroke="#2D2D2D" width="180.00001" x="1172.57155" y="700.7143"/>
 </g>
</svg>