<svg height="1546.9999999999998" width="1535.9999999999998" xmlns="http://www.w3.org/2000/svg">
 <!-- Created with Image Occlusion Enhanced -->
 <g>
  <title>Labels</title>
 </g>
 <g>
  <title>Masks</title>
  <rect fill="#FFEBA2" height="28.57143" id="bce0f078bb45470daf26f87d729de5aa-ao-1" stroke="#2D2D2D" width="294.28573" x="384.00009" y="15.85706"/>
  <rect fill="#FFEBA2" height="22.85714" id="bce0f078bb45470daf26f87d729de5aa-ao-2" stroke="#2D2D2D" width="217.14287" x="864.00011" y="12.99991"/>
  <rect fill="#FFEBA2" height="34.28572" id="bce0f078bb45470daf26f87d729de5aa-ao-3" stroke="#2D2D2D" width="162.85715" x="469.71438" y="64.42849"/>
  <rect fill="#FFEBA2" height="25.71429" id="bce0f078bb45470daf26f87d729de5aa-ao-4" stroke="#2D2D2D" width="262.85715" x="961.14297" y="84.42849"/>
  
  <rect fill="#FFEBA2" height="25.71429" id="bce0f078bb45470daf26f87d729de5aa-ao-6" stroke="#2D2D2D" width="82.85715" x="1029.7144" y="155.85706"/>
  <rect fill="#FFEBA2" height="28.57143" id="bce0f078bb45470daf26f87d729de5aa-ao-7" stroke="#2D2D2D" width="248.57144" x="246.85722" y="167.28563"/>
  <rect fill="#FFEBA2" height="71.42857" id="bce0f078bb45470daf26f87d729de5aa-ao-8" stroke="#2D2D2D" width="194.28572" x="1072.57155" y="192.99992"/>
  <rect fill="#FFEBA2" height="25.71429" id="bce0f078bb45470daf26f87d729de5aa-ao-9" stroke="#2D2D2D" width="160.00001" x="255.42865" y="218.71421"/>
  <rect fill="#FFEBA2" height="68.57143" id="bce0f078bb45470daf26f87d729de5aa-ao-10" stroke="#2D2D2D" width="142.85715" x="1189.71441" y="275.85707"/>
  <rect fill="#FFEBA2" height="48.57143" id="bce0f078bb45470daf26f87d729de5aa-ao-11" stroke="#2D2D2D" width="214.28572" x="175.42865" y="270.14278"/>
  <rect fill="#FFEBA2" height="82.85715" id="bce0f078bb45470daf26f87d729de5aa-ao-12" stroke="#2D2D2D" width="211.42858" x="152.57151" y="998.71424"/>
  <rect fill="#FFEBA2" height="71.42857" id="bce0f078bb45470daf26f87d729de5aa-ao-13" stroke="#2D2D2D" width="194.28572" x="1184.00012" y="1007.28567"/>
  <rect fill="#FFEBA2" height="25.71429" id="bce0f078bb45470daf26f87d729de5aa-ao-14" stroke="#2D2D2D" width="85.71429" x="281.14294" y="1161.57139"/>
  <rect fill="#FFEBA2" height="31.42857" id="bce0f078bb45470daf26f87d729de5aa-ao-15" stroke="#2D2D2D" width="60" x="1164.00012" y="1170.14282"/>
  <rect fill="#FFEBA2" height="22.85714" id="bce0f078bb45470daf26f87d729de5aa-ao-16" stroke="#2D2D2D" width="168.57144" x="1121.14298" y="1238.71425"/>
  <rect fill="#FFEBA2" height="28.57143" id="bce0f078bb45470daf26f87d729de5aa-ao-17" stroke="#2D2D2D" width="162.85715" x="246.85722" y="1230.14283"/>
  <rect fill="#FFEBA2" height="31.42857" id="bce0f078bb45470daf26f87d729de5aa-ao-18" stroke="#2D2D2D" width="245.7143" x="249.71437" y="1301.5714"/>
  <rect fill="#FFEBA2" height="25.71429" id="bce0f078bb45470daf26f87d729de5aa-ao-19" stroke="#2D2D2D" width="274.28573" x="1035.42869" y="1304.42854"/>
  <rect fill="#FFEBA2" height="25.71429" id="bce0f078bb45470daf26f87d729de5aa-ao-20" stroke="#2D2D2D" width="108.57143" x="464.00009" y="1370.14283"/>
  <rect fill="#FFEBA2" height="22.85714" id="bce0f078bb45470daf26f87d729de5aa-ao-21" stroke="#2D2D2D" width="122.85715" x="984.00011" y="1375.85712"/>
  <rect fill="#FFEBA2" height="28.57143" id="bce0f078bb45470daf26f87d729de5aa-ao-22" stroke="#2D2D2D" width="331.42859" x="304.00008" y="1441.57141"/>
  <rect fill="#FFEBA2" height="31.42857" id="bce0f078bb45470daf26f87d729de5aa-ao-23" stroke="#2D2D2D" width="348.57144" x="915.42868" y="1438.71426"/>
  <rect fill="#FFEBA2" height="25.71429" id="bce0f078bb45470daf26f87d729de5aa-ao-24" stroke="#2D2D2D" width="202.85715" x="475.42866" y="1512.99998"/>
  <rect fill="#FFEBA2" height="28.57143" id="bce0f078bb45470daf26f87d729de5aa-ao-25" stroke="#2D2D2D" width="205.7143" x="846.85725" y="1507.2857"/>
 </g>
</svg>