<svg height="1038" width="1535.9999999999998" xmlns="http://www.w3.org/2000/svg">
 <!-- Created with Image Occlusion Enhanced -->
 <g>
  <title>Labels</title>
 </g>
 <g>
  <title>Masks</title>
  <rect fill="#FFEBA2" height="31.42857" id="bd80b79a01c54528a1efcdaae283fd4e-ao-1" stroke="#2D2D2D" width="71.42857" x="144.00008" y="42.00003"/>
  <rect fill="#FFEBA2" height="74.28572" id="bd80b79a01c54528a1efcdaae283fd4e-ao-2" stroke="#2D2D2D" width="97.14286" x="1244.00013" y="42.00003"/>
  <rect fill="#FFEBA2" height="51.42857" id="bd80b79a01c54528a1efcdaae283fd4e-ao-3" stroke="#2D2D2D" width="108.57143" x="141.14293" y="104.85718"/>
  <rect class="qshape" fill="#FF7E7E" height="54.28572" id="bd80b79a01c54528a1efcdaae283fd4e-ao-4" stroke="#2D2D2D" width="122.85715" x="1275.4287" y="250.57147"/>
  <rect fill="#FFEBA2" height="100" id="bd80b79a01c54528a1efcdaae283fd4e-ao-5" stroke="#2D2D2D" width="125.71429" x="1269.71441" y="327.71433"/>
  <rect fill="#FFEBA2" height="74.28572" id="bd80b79a01c54528a1efcdaae283fd4e-ao-6" stroke="#2D2D2D" width="102.85715" x="146.85722" y="404.85719"/>
  <rect fill="#FFEBA2" height="28.57143" id="bd80b79a01c54528a1efcdaae283fd4e-ao-7" stroke="#2D2D2D" width="108.57143" x="1198.28584" y="439.14291"/>
  <rect fill="#FFEBA2" height="25.71429" id="bd80b79a01c54528a1efcdaae283fd4e-ao-8" stroke="#2D2D2D" width="108.57143" x="1201.14298" y="502.00005"/>
  <rect fill="#FFEBA2" height="28.57143" id="bd80b79a01c54528a1efcdaae283fd4e-ao-9" stroke="#2D2D2D" width="108.57143" x="1201.14298" y="544.8572"/>
  <rect fill="#FFEBA2" height="51.42857" id="bd80b79a01c54528a1efcdaae283fd4e-ao-10" stroke="#2D2D2D" width="191.42858" x="144.00008" y="567.71434"/>
  <rect fill="#FFEBA2" height="54.28572" id="bd80b79a01c54528a1efcdaae283fd4e-ao-11" stroke="#2D2D2D" width="177.14287" x="1201.14298" y="602.00006"/>
  <rect fill="#FFEBA2" height="57.14286" id="bd80b79a01c54528a1efcdaae283fd4e-ao-12" stroke="#2D2D2D" width="148.57144" x="144.00008" y="633.42863"/>
  <rect fill="#FFEBA2" height="51.42857" id="bd80b79a01c54528a1efcdaae283fd4e-ao-13" stroke="#2D2D2D" width="94.28572" x="1204.00012" y="673.42863"/>
  <rect fill="#FFEBA2" height="31.42857" id="bd80b79a01c54528a1efcdaae283fd4e-ao-14" stroke="#2D2D2D" width="160.00001" x="144.00008" y="702.00006"/>
  <rect fill="#FFEBA2" height="28.57143" id="bd80b79a01c54528a1efcdaae283fd4e-ao-15" stroke="#2D2D2D" width="145.71429" x="1204.00012" y="736.28578"/>
  <rect fill="#FFEBA2" height="51.42857" id="bd80b79a01c54528a1efcdaae283fd4e-ao-16" stroke="#2D2D2D" width="180.00001" x="141.14293" y="759.14292"/>
  <rect fill="#FFEBA2" height="57.14286" id="bd80b79a01c54528a1efcdaae283fd4e-ao-17" stroke="#2D2D2D" width="142.85715" x="1204.00012" y="816.28578"/>
  <rect fill="#FFEBA2" height="31.42857" id="bd80b79a01c54528a1efcdaae283fd4e-ao-18" stroke="#2D2D2D" width="122.85715" x="141.14293" y="833.42864"/>
  <rect fill="#FFEBA2" height="34.28572" id="bd80b79a01c54528a1efcdaae283fd4e-ao-19" stroke="#2D2D2D" width="91.42858" x="1204.00012" y="896.28578"/>
  <rect fill="#FFEBA2" height="51.42857" id="bd80b79a01c54528a1efcdaae283fd4e-ao-20" stroke="#2D2D2D" width="162.85715" x="141.14293" y="882.00007"/>
 </g>
</svg>