<svg height="1547" width="1535.9999999999998" xmlns="http://www.w3.org/2000/svg">
 <!-- Created with Image Occlusion Enhanced -->
 <g>
  <title>Labels</title>
 </g>
 <g>
  <title>Masks</title>
  <rect fill="#FFEBA2" height="22.85714" id="be0702761bc441068146d3d29dadc984-ao-1" stroke="#2D2D2D" width="100" x="806.85725" y="17.28563"/>
  <rect fill="#FFEBA2" height="25.71429" id="be0702761bc441068146d3d29dadc984-ao-2" stroke="#2D2D2D" width="282.85716" x="384.00009" y="40.14277"/>
  <rect fill="#FFEBA2" height="25.71429" id="be0702761bc441068146d3d29dadc984-ao-3" stroke="#2D2D2D" width="274.28573" x="892.57154" y="82.99992"/>
  <rect fill="#FFEBA2" height="31.42857" id="be0702761bc441068146d3d29dadc984-ao-4" stroke="#2D2D2D" width="211.42858" x="349.71437" y="105.85706"/>
  <rect fill="#FFEBA2" height="31.42857" id="be0702761bc441068146d3d29dadc984-ao-5" stroke="#2D2D2D" width="237.14287" x="995.42869" y="145.85706"/>
  <rect fill="#FFEBA2" height="28.57143" id="be0702761bc441068146d3d29dadc984-ao-6" stroke="#2D2D2D" width="174.28572" x="332.57151" y="165.85706"/>
  <rect fill="#FFEBA2" height="28.57143" id="be0702761bc441068146d3d29dadc984-ao-7" stroke="#2D2D2D" width="171.42858" x="1086.85726" y="217.28564"/>
  <rect fill="#FFEBA2" height="28.57143" id="be0702761bc441068146d3d29dadc984-ao-8" stroke="#2D2D2D" width="194.28572" x="261.14294" y="237.28564"/>
  <rect fill="#FFEBA2" height="31.42857" id="be0702761bc441068146d3d29dadc984-ao-9" stroke="#2D2D2D" width="251.42858" x="1124.00012" y="282.99993"/>
  <rect fill="#FFEBA2" height="54.28572" id="be0702761bc441068146d3d29dadc984-ao-10" stroke="#2D2D2D" width="205.7143" x="241.14294" y="302.99993"/>
  <rect fill="#FFEBA2" height="45.71429" id="be0702761bc441068146d3d29dadc984-ao-11" stroke="#2D2D2D" width="197.14287" x="1164.00012" y="351.57136"/>
  <rect fill="#FFEBA2" height="51.42857" id="be0702761bc441068146d3d29dadc984-ao-12" stroke="#2D2D2D" width="305.7143" x="144.00008" y="391.57136"/>
  <rect fill="#FFEBA2" height="51.42857" id="be0702761bc441068146d3d29dadc984-ao-13" stroke="#2D2D2D" width="171.42858" x="1189.71441" y="437.28565"/>
  <rect fill="#FFEBA2" height="28.57143" id="be0702761bc441068146d3d29dadc984-ao-14" stroke="#2D2D2D" width="154.28572" x="249.71437" y="480.14279"/>
  <rect fill="#FFEBA2" height="48.57143" id="be0702761bc441068146d3d29dadc984-ao-15" stroke="#2D2D2D" width="157.14286" x="1215.4287" y="528.71422"/>
  <rect fill="#FFEBA2" height="28.57143" id="be0702761bc441068146d3d29dadc984-ao-16" stroke="#2D2D2D" width="117.14286" x="264.00008" y="542.99994"/>
  <rect fill="#FFEBA2" height="140.00001" id="be0702761bc441068146d3d29dadc984-ao-17" stroke="#2D2D2D" width="194.28572" x="1215.4287" y="617.28565"/>
  <rect fill="#FFEBA2" height="48.57143" id="be0702761bc441068146d3d29dadc984-ao-18" stroke="#2D2D2D" width="131.42858" x="181.14294" y="608.71423"/>
  <rect fill="#FFEBA2" height="48.57143" id="be0702761bc441068146d3d29dadc984-ao-19" stroke="#2D2D2D" width="165.71429" x="138.28579" y="697.28566"/>
  <rect fill="#FFEBA2" height="54.28572" id="be0702761bc441068146d3d29dadc984-ao-20" stroke="#2D2D2D" width="148.57144" x="166.85722" y="780.14281"/>
  <rect fill="#FFEBA2" height="48.57143" id="be0702761bc441068146d3d29dadc984-ao-21" stroke="#2D2D2D" width="194.28572" x="1195.4287" y="851.57138"/>
  <rect fill="#FFEBA2" height="48.57143" id="be0702761bc441068146d3d29dadc984-ao-22" stroke="#2D2D2D" width="131.42858" x="138.28579" y="871.57138"/>
  <rect fill="#FFEBA2" height="48.57143" id="be0702761bc441068146d3d29dadc984-ao-23" stroke="#2D2D2D" width="171.42858" x="1201.14298" y="937.28567"/>
  <rect fill="#FFEBA2" height="48.57143" id="be0702761bc441068146d3d29dadc984-ao-24" stroke="#2D2D2D" width="122.85715" x="158.28579" y="960.14281"/>
  <rect fill="#FFEBA2" height="51.42857" id="be0702761bc441068146d3d29dadc984-ao-25" stroke="#2D2D2D" width="177.14287" x="1195.4287" y="1028.71424"/>
  <rect fill="#FFEBA2" height="42.85714" id="be0702761bc441068146d3d29dadc984-ao-26" stroke="#2D2D2D" width="85.71429" x="172.57151" y="1048.71425"/>
  <rect fill="#FFEBA2" height="45.71429" id="be0702761bc441068146d3d29dadc984-ao-27" stroke="#2D2D2D" width="185.71429" x="1181.14298" y="1114.42853"/>
  <rect fill="#FFEBA2" height="45.71429" id="be0702761bc441068146d3d29dadc984-ao-28" stroke="#2D2D2D" width="122.85715" x="135.42865" y="1134.42854"/>
  <rect fill="#FFEBA2" height="54.28572" id="be0702761bc441068146d3d29dadc984-ao-29" stroke="#2D2D2D" width="177.14287" x="1161.14298" y="1200.14282"/>
  
  <rect fill="#FFEBA2" height="37.14286" id="be0702761bc441068146d3d29dadc984-ao-31" stroke="#2D2D2D" width="180.00001" x="1141.14298" y="1285.85711"/>
  <rect fill="#FFEBA2" height="28.57143" id="be0702761bc441068146d3d29dadc984-ao-32" stroke="#2D2D2D" width="165.71429" x="361.14294" y="1354.42855"/>
  <rect fill="#FFEBA2" height="31.42857" id="be0702761bc441068146d3d29dadc984-ao-33" stroke="#2D2D2D" width="380.00002" x="1006.85726" y="1357.28569"/>
  <rect fill="#FFEBA2" height="28.57143" id="be0702761bc441068146d3d29dadc984-ao-34" stroke="#2D2D2D" width="225.7143" x="375.42866" y="1422.99998"/>
  <rect fill="#FFEBA2" height="31.42857" id="be0702761bc441068146d3d29dadc984-ao-35" stroke="#2D2D2D" width="265.7143" x="864.00011" y="1425.85712"/>
  <rect fill="#FFEBA2" height="48.57143" id="be0702761bc441068146d3d29dadc984-ao-36" stroke="#2D2D2D" width="334.28573" x="375.42866" y="1485.85712"/>
 </g>
</svg>