<svg height="1236" width="1339" xmlns="http://www.w3.org/2000/svg">
 <!-- Created with Image Occlusion Enhanced -->
 <g>
  <title>Labels</title>
 </g>
 <g>
  <title>Masks</title>
  <rect fill="#FFEBA2" height="51.42857" id="be9743f2f52a4afaa259f67f73636fc0-ao-1" stroke="#2D2D2D" width="205.71429" x="991.00003" y="32.57139"/>
  <rect fill="#FFEBA2" height="31.42857" id="be9743f2f52a4afaa259f67f73636fc0-ao-2" stroke="#2D2D2D" width="245.71429" x="1031.00003" y="89.71425"/>
  <rect fill="#FFEBA2" height="51.42857" id="be9743f2f52a4afaa259f67f73636fc0-ao-3" stroke="#2D2D2D" width="188.57143" x="1079.57146" y="126.85711"/>
  <rect fill="#FFEBA2" height="31.42857" id="be9743f2f52a4afaa259f67f73636fc0-ao-4" stroke="#2D2D2D" width="165.71429" x="1116.71432" y="183.99997"/>
  <rect fill="#FFEBA2" height="45.71429" id="be9743f2f52a4afaa259f67f73636fc0-ao-5" stroke="#2D2D2D" width="154.28572" x="1151.00003" y="221.14283"/>
  <rect fill="#FFEBA2" height="48.57143" id="be9743f2f52a4afaa259f67f73636fc0-ao-6" stroke="#2D2D2D" width="82.85714" x="1205.28575" y="275.42854"/>
  <rect fill="#FFEBA2" height="45.71429" id="be9743f2f52a4afaa259f67f73636fc0-ao-7" stroke="#2D2D2D" width="82.85714" x="651.00003" y="369.71426"/>
  <rect fill="#FFEBA2" height="25.71429" id="be9743f2f52a4afaa259f67f73636fc0-ao-8" stroke="#2D2D2D" width="57.14286" x="651.00003" y="432.5714"/>
  <rect fill="#FFEBA2" height="28.57143" id="be9743f2f52a4afaa259f67f73636fc0-ao-9" stroke="#2D2D2D" width="88.57143" x="302.42859" y="906.85712"/>
  <rect fill="#FFEBA2" height="28.57143" id="be9743f2f52a4afaa259f67f73636fc0-ao-10" stroke="#2D2D2D" width="74.28572" x="302.42859" y="938.28569"/>
  <rect fill="#FFEBA2" height="25.71429" id="be9743f2f52a4afaa259f67f73636fc0-ao-11" stroke="#2D2D2D" width="82.85714" x="302.42859" y="966.85712"/>
  <rect class="qshape" fill="#FF7E7E" height="54.28571" id="be9743f2f52a4afaa259f67f73636fc0-ao-12" stroke="#2D2D2D" width="137.14286" x="465.28574" y="941.14284"/>
  <rect fill="#FFEBA2" height="48.57143" id="be9743f2f52a4afaa259f67f73636fc0-ao-13" stroke="#2D2D2D" width="234.28572" x="445.28574" y="1006.85712"/>
  <rect fill="#FFEBA2" height="25.71429" id="be9743f2f52a4afaa259f67f73636fc0-ao-14" stroke="#2D2D2D" width="237.14286" x="508.14288" y="1066.85712"/>
  <rect fill="#FFEBA2" height="25.71429" id="be9743f2f52a4afaa259f67f73636fc0-ao-15" stroke="#2D2D2D" width="151.42857" x="639.57145" y="1103.99998"/>
  <rect fill="#FFEBA2" height="28.57143" id="be9743f2f52a4afaa259f67f73636fc0-ao-16" stroke="#2D2D2D" width="234.28572" x="582.4286" y="1143.99998"/>
  <rect fill="#FFEBA2" height="42.85714" id="be9743f2f52a4afaa259f67f73636fc0-ao-17" stroke="#2D2D2D" width="154.28572" x="911.00003" y="1101.14284"/>
  <rect fill="#FFEBA2" height="48.57143" id="be9743f2f52a4afaa259f67f73636fc0-ao-18" stroke="#2D2D2D" width="128.57143" x="1125.28575" y="1112.57141"/>
 </g>
</svg>