<svg height="1346" width="1399" xmlns="http://www.w3.org/2000/svg">
 <!-- Created with Image Occlusion Enhanced -->
 <g>
  <title>Labels</title>
 </g>
 <g>
  <title>Masks</title>
  <rect fill="#FFEBA2" height="31.42857" id="c0ab75869de94e4da38928ea35dd280c-ao-1" stroke="#2D2D2D" width="225.71429" x="666.71431" y="12.57139"/>
  <rect fill="#FFEBA2" height="31.42857" id="c0ab75869de94e4da38928ea35dd280c-ao-2" stroke="#2D2D2D" width="120" x="703.85717" y="63.99997"/>
  <rect fill="#FFEBA2" height="25.71429" id="c0ab75869de94e4da38928ea35dd280c-ao-3" stroke="#2D2D2D" width="165.71429" x="732.4286" y="109.71425"/>
  <rect fill="#FFEBA2" height="28.57143" id="c0ab75869de94e4da38928ea35dd280c-ao-4" stroke="#2D2D2D" width="131.42857" x="778.14288" y="158.28568"/>
  <rect fill="#FFEBA2" height="31.42857" id="c0ab75869de94e4da38928ea35dd280c-ao-5" stroke="#2D2D2D" width="97.14286" x="212.42859" y="152.5714"/>
  <rect fill="#FFEBA2" height="28.57143" id="c0ab75869de94e4da38928ea35dd280c-ao-6" stroke="#2D2D2D" width="351.42858" x="798.14288" y="203.99997"/>
  <rect fill="#FFEBA2" height="25.71429" id="c0ab75869de94e4da38928ea35dd280c-ao-7" stroke="#2D2D2D" width="51.42857" x="243.85716" y="206.85711"/>
  <rect fill="#FFEBA2" height="25.71429" id="c0ab75869de94e4da38928ea35dd280c-ao-8" stroke="#2D2D2D" width="208.57143" x="832.4286" y="249.71425"/>
  <rect fill="#FFEBA2" height="28.57143" id="c0ab75869de94e4da38928ea35dd280c-ao-9" stroke="#2D2D2D" width="280" x="843.85717" y="298.28568"/>
  <rect fill="#FFEBA2" height="28.57143" id="c0ab75869de94e4da38928ea35dd280c-ao-10" stroke="#2D2D2D" width="514.28572" x="841.00003" y="346.85711"/>
  <rect fill="#FFEBA2" height="51.42857" id="c0ab75869de94e4da38928ea35dd280c-ao-11" stroke="#2D2D2D" width="491.42858" x="843.85717" y="392.5714"/>
  <rect fill="#FFEBA2" height="48.57143" id="c0ab75869de94e4da38928ea35dd280c-ao-12" stroke="#2D2D2D" width="117.14286" x="146.7143" y="449.71426"/>
  <rect fill="#FFEBA2" height="54.28571" id="c0ab75869de94e4da38928ea35dd280c-ao-13" stroke="#2D2D2D" width="491.42858" x="843.85717" y="463.99997"/>
  <rect fill="#FFEBA2" height="28.57143" id="c0ab75869de94e4da38928ea35dd280c-ao-14" stroke="#2D2D2D" width="340" x="838.14289" y="535.42854"/>
  <rect fill="#FFEBA2" height="28.57143" id="c0ab75869de94e4da38928ea35dd280c-ao-15" stroke="#2D2D2D" width="357.14286" x="841.00003" y="581.14283"/>
  <rect fill="#FFEBA2" height="28.57143" id="c0ab75869de94e4da38928ea35dd280c-ao-16" stroke="#2D2D2D" width="62.85714" x="141.00002" y="621.14283"/>
  <rect fill="#FFEBA2" height="48.57143" id="c0ab75869de94e4da38928ea35dd280c-ao-17" stroke="#2D2D2D" width="100" x="146.7143" y="1052.57141"/>
  <rect fill="#FFEBA2" height="51.42857" id="c0ab75869de94e4da38928ea35dd280c-ao-18" stroke="#2D2D2D" width="114.28572" x="623.85717" y="1063.99998"/>
  <rect fill="#FFEBA2" height="28.57143" id="c0ab75869de94e4da38928ea35dd280c-ao-19" stroke="#2D2D2D" width="240" x="152.42859" y="1112.57141"/>
  <rect fill="#FFEBA2" height="48.57143" id="c0ab75869de94e4da38928ea35dd280c-ao-20" stroke="#2D2D2D" width="97.14286" x="583.85717" y="1146.85712"/>
  <rect fill="#FFEBA2" height="91.42857" id="c0ab75869de94e4da38928ea35dd280c-ao-21" stroke="#2D2D2D" width="222.85715" x="201.00002" y="1161.14284"/>
  <rect fill="#FFEBA2" height="31.42857" id="c0ab75869de94e4da38928ea35dd280c-ao-22" stroke="#2D2D2D" width="140" x="543.85717" y="1215.42855"/>
  <rect fill="#FFEBA2" height="48.57143" id="c0ab75869de94e4da38928ea35dd280c-ao-23" stroke="#2D2D2D" width="154.28572" x="321.00002" y="1272.57141"/>
  <rect fill="#FFEBA2" height="48.57143" id="c0ab75869de94e4da38928ea35dd280c-ao-24" stroke="#2D2D2D" width="151.42857" x="495.28574" y="1269.71427"/>
 </g>
</svg>