<svg height="1429" width="1536" xmlns="http://www.w3.org/2000/svg">
 <!-- Created with Image Occlusion Enhanced -->
 <g>
  <title>Labels</title>
 </g>
 <g>
  <title>Masks</title>
  <rect fill="#FFEBA2" height="30.30303" id="c14264bf1b70424eae15a894d9e062c3-ao-1" stroke="#2D2D2D" width="251.51515" x="454.90907" y="10.39391"/>
  <rect fill="#FFEBA2" height="21.21212" id="c14264bf1b70424eae15a894d9e062c3-ao-2" stroke="#2D2D2D" width="269.69697" x="797.33331" y="16.45452"/>
  <rect class="qshape" fill="#FF7E7E" height="27.27273" id="c14264bf1b70424eae15a894d9e062c3-ao-3" stroke="#2D2D2D" width="136.36364" x="551.87877" y="64.93937"/>
  <rect fill="#FFEBA2" height="33.33333" id="c14264bf1b70424eae15a894d9e062c3-ao-4" stroke="#2D2D2D" width="251.51515" x="836.72725" y="58.87876"/>
  <rect fill="#FFEBA2" height="30.30303" id="c14264bf1b70424eae15a894d9e062c3-ao-5" stroke="#2D2D2D" width="163.63636" x="479.1515" y="116.45452"/>
  <rect fill="#FFEBA2" height="27.27273" id="c14264bf1b70424eae15a894d9e062c3-ao-6" stroke="#2D2D2D" width="178.78788" x="915.51513" y="110.39391"/>
  <rect fill="#FFEBA2" height="27.27273" id="c14264bf1b70424eae15a894d9e062c3-ao-7" stroke="#2D2D2D" width="124.24242" x="406.42422" y="167.96967"/>
  <rect fill="#FFEBA2" height="24.24242" id="c14264bf1b70424eae15a894d9e062c3-ao-8" stroke="#2D2D2D" width="157.57576" x="960.96967" y="161.90906"/>
  <rect fill="#FFEBA2" height="30.30303" id="c14264bf1b70424eae15a894d9e062c3-ao-9" stroke="#2D2D2D" width="124.24242" x="342.78786" y="219.48482"/>
  <rect fill="#FFEBA2" height="30.30303" id="c14264bf1b70424eae15a894d9e062c3-ao-10" stroke="#2D2D2D" width="148.48485" x="1018.54543" y="210.39391"/>
  <rect fill="#FFEBA2" height="36.36364" id="c14264bf1b70424eae15a894d9e062c3-ao-11" stroke="#2D2D2D" width="275.75757" x="148.84847" y="264.93936"/>
  <rect fill="#FFEBA2" height="27.27273" id="c14264bf1b70424eae15a894d9e062c3-ao-12" stroke="#2D2D2D" width="142.42424" x="1079.15149" y="258.87876"/>
  <rect fill="#FFEBA2" height="27.27273" id="c14264bf1b70424eae15a894d9e062c3-ao-13" stroke="#2D2D2D" width="248.48485" x="160.96968" y="319.48482"/>
  <rect fill="#FFEBA2" height="30.30303" id="c14264bf1b70424eae15a894d9e062c3-ao-14" stroke="#2D2D2D" width="236.36363" x="1112.48482" y="310.39391"/>
  <rect fill="#FFEBA2" height="51.51515" id="c14264bf1b70424eae15a894d9e062c3-ao-15" stroke="#2D2D2D" width="166.66667" x="1127.63634" y="355.84846"/>
  <rect fill="#FFEBA2" height="30.30303" id="c14264bf1b70424eae15a894d9e062c3-ao-16" stroke="#2D2D2D" width="233.33333" x="154.90907" y="374.03027"/>
  <rect fill="#FFEBA2" height="27.27273" id="c14264bf1b70424eae15a894d9e062c3-ao-17" stroke="#2D2D2D" width="221.21212" x="148.84847" y="422.51512"/>
  <rect fill="#FFEBA2" height="51.51515" id="c14264bf1b70424eae15a894d9e062c3-ao-18" stroke="#2D2D2D" width="215.15151" x="1148.84846" y="425.54542"/>
  <rect fill="#FFEBA2" height="27.27273" id="c14264bf1b70424eae15a894d9e062c3-ao-19" stroke="#2D2D2D" width="124.24242" x="1157.93937" y="495.24239"/>
  <rect fill="#FFEBA2" height="30.30303" id="c14264bf1b70424eae15a894d9e062c3-ao-20" stroke="#2D2D2D" width="166.66667" x="1167.03028" y="546.75754"/>
  <rect fill="#FFEBA2" height="30.30303" id="c14264bf1b70424eae15a894d9e062c3-ao-21" stroke="#2D2D2D" width="181.81818" x="1179.15149" y="592.21209"/>
  <rect fill="#FFEBA2" height="66.66667" id="c14264bf1b70424eae15a894d9e062c3-ao-22" stroke="#2D2D2D" width="157.57576" x="145.81817" y="598.2727"/>
  <rect fill="#FFEBA2" height="90.90909" id="c14264bf1b70424eae15a894d9e062c3-ao-23" stroke="#2D2D2D" width="221.21212" x="1185.21209" y="643.72724"/>
  <rect fill="#FFEBA2" height="36.36364" id="c14264bf1b70424eae15a894d9e062c3-ao-24" stroke="#2D2D2D" width="136.36364" x="170.06059" y="719.48482"/>
  <rect fill="#FFEBA2" height="27.27273" id="c14264bf1b70424eae15a894d9e062c3-ao-25" stroke="#2D2D2D" width="148.48485" x="1182.18179" y="755.84845"/>
  <rect fill="#FFEBA2" height="30.30303" id="c14264bf1b70424eae15a894d9e062c3-ao-26" stroke="#2D2D2D" width="69.69697" x="230.66665" y="789.18178"/>
  <rect fill="#FFEBA2" height="48.48485" id="c14264bf1b70424eae15a894d9e062c3-ao-27" stroke="#2D2D2D" width="184.84848" x="1188.2424" y="810.39391"/>
  <rect fill="#FFEBA2" height="54.54545" id="c14264bf1b70424eae15a894d9e062c3-ao-28" stroke="#2D2D2D" width="151.51515" x="170.06059" y="852.81815"/>
  <rect fill="#FFEBA2" height="30.30303" id="c14264bf1b70424eae15a894d9e062c3-ao-29" stroke="#2D2D2D" width="163.63636" x="1191.2727" y="880.09087"/>
  <rect fill="#FFEBA2" height="45.45455" id="c14264bf1b70424eae15a894d9e062c3-ao-30" stroke="#2D2D2D" width="181.81818" x="1179.15149" y="928.57572"/>
  <rect fill="#FFEBA2" height="51.51515" id="c14264bf1b70424eae15a894d9e062c3-ao-31" stroke="#2D2D2D" width="178.78788" x="154.90907" y="943.72724"/>
  <rect fill="#FFEBA2" height="27.27273" id="c14264bf1b70424eae15a894d9e062c3-ao-32" stroke="#2D2D2D" width="130.30303" x="1157.93937" y="1001.30299"/>
  <rect fill="#FFEBA2" height="51.51515" id="c14264bf1b70424eae15a894d9e062c3-ao-33" stroke="#2D2D2D" width="157.57576" x="179.1515" y="1034.63633"/>
  <rect fill="#FFEBA2" height="27.27273" id="c14264bf1b70424eae15a894d9e062c3-ao-34" stroke="#2D2D2D" width="96.9697" x="1127.63634" y="1049.78784"/>
  <rect fill="#FFEBA2" height="30.30303" id="c14264bf1b70424eae15a894d9e062c3-ao-35" stroke="#2D2D2D" width="193.93939" x="1088.2424" y="1098.27269"/>
  <rect fill="#FFEBA2" height="30.30303" id="c14264bf1b70424eae15a894d9e062c3-ao-36" stroke="#2D2D2D" width="163.63636" x="282.1818" y="1137.66663"/>
  <rect fill="#FFEBA2" height="30.30303" id="c14264bf1b70424eae15a894d9e062c3-ao-37" stroke="#2D2D2D" width="190.90909" x="997.33331" y="1164.93936"/>
  <rect fill="#FFEBA2" height="27.27273" id="c14264bf1b70424eae15a894d9e062c3-ao-38" stroke="#2D2D2D" width="230.30303" x="282.1818" y="1192.21208"/>
  <rect fill="#FFEBA2" height="27.27273" id="c14264bf1b70424eae15a894d9e062c3-ao-39" stroke="#2D2D2D" width="284.84848" x="930.66664" y="1216.45451"/>
  <rect fill="#FFEBA2" height="30.30303" id="c14264bf1b70424eae15a894d9e062c3-ao-40" stroke="#2D2D2D" width="309.09091" x="263.99998" y="1261.90905"/>
  <rect fill="#FFEBA2" height="27.27273" id="c14264bf1b70424eae15a894d9e062c3-ao-41" stroke="#2D2D2D" width="93.93939" x="879.15149" y="1267.96966"/>
  <rect fill="#FFEBA2" height="30.30303" id="c14264bf1b70424eae15a894d9e062c3-ao-42" stroke="#2D2D2D" width="166.66667" x="463.99998" y="1328.57572"/>
  <rect fill="#FFEBA2" height="33.33333" id="c14264bf1b70424eae15a894d9e062c3-ao-43" stroke="#2D2D2D" width="284.84848" x="827.63634" y="1319.48481"/>
  <rect fill="#FFEBA2" height="33.33333" id="c14264bf1b70424eae15a894d9e062c3-ao-44" stroke="#2D2D2D" width="272.72727" x="773.09089" y="1361.90905"/>
  <rect fill="#FFEBA2" height="27.27273" id="c14264bf1b70424eae15a894d9e062c3-ao-45" stroke="#2D2D2D" width="254.54545" x="454.90907" y="1398.27269"/>
 </g>
</svg>