<svg height="807.9999999999999" width="1535.9999999999998" xmlns="http://www.w3.org/2000/svg">
 <!-- Created with Image Occlusion Enhanced -->
 <g>
  <title>Labels</title>
 </g>
 <g>
  <title>Masks</title>
  <rect fill="#FFEBA2" height="28.57143" id="c2641b89b6c348f3bd2350bfa7bba003-ao-1" stroke="#2D2D2D" width="268.57144" x="224.00008" y="67.71432"/>
  <rect fill="#FFEBA2" height="28.57143" id="c2641b89b6c348f3bd2350bfa7bba003-ao-2" stroke="#2D2D2D" width="145.71429" x="606.85724" y="53.42861"/>
  <rect fill="#FFEBA2" height="28.57143" id="c2641b89b6c348f3bd2350bfa7bba003-ao-3" stroke="#2D2D2D" width="85.71429" x="898.28582" y="30.57146"/>
  
  <rect fill="#FFEBA2" height="26.70329" id="c2641b89b6c348f3bd2350bfa7bba003-ao-5" stroke="#2D2D2D" width="448.57145" x="938.28583" y="76.28575"/>
  <rect fill="#FFEBA2" height="28.57143" id="c2641b89b6c348f3bd2350bfa7bba003-ao-6" stroke="#2D2D2D" width="165.71429" x="189.71436" y="122.00004"/>
  <rect fill="#FFEBA2" height="22.85714" id="c2641b89b6c348f3bd2350bfa7bba003-ao-7" stroke="#2D2D2D" width="162.85715" x="1172.57155" y="119.1429"/>
  <rect fill="#FFEBA2" height="25.71429" id="c2641b89b6c348f3bd2350bfa7bba003-ao-8" stroke="#2D2D2D" width="237.14287" x="132.5715" y="176.28576"/>
  <rect fill="#FFEBA2" height="25.71429" id="c2641b89b6c348f3bd2350bfa7bba003-ao-9" stroke="#2D2D2D" width="208.57144" x="1175.42869" y="156.28576"/>
  <rect fill="#FFEBA2" height="31.48352" id="c2641b89b6c348f3bd2350bfa7bba003-ao-10" stroke="#2D2D2D" width="228.57144" x="129.71436" y="230.51653"/>
  <rect fill="#FFEBA2" height="25.71429" id="c2641b89b6c348f3bd2350bfa7bba003-ao-11" stroke="#2D2D2D" width="245.7143" x="1141.14298" y="222.00004"/>
  <rect fill="#FFEBA2" height="31.42857" id="c2641b89b6c348f3bd2350bfa7bba003-ao-12" stroke="#2D2D2D" width="171.42858" x="198.28579" y="296.28576"/>
  <rect fill="#FFEBA2" height="54.28572" id="c2641b89b6c348f3bd2350bfa7bba003-ao-13" stroke="#2D2D2D" width="268.57144" x="1146.85726" y="290.57148"/>
  <rect fill="#FFEBA2" height="25.71429" id="c2641b89b6c348f3bd2350bfa7bba003-ao-14" stroke="#2D2D2D" width="225.7143" x="152.57151" y="359.14291"/>
  <rect fill="#FFEBA2" height="31.42857" id="c2641b89b6c348f3bd2350bfa7bba003-ao-15" stroke="#2D2D2D" width="237.14287" x="1152.57155" y="372.00005"/>
  <rect fill="#FFEBA2" height="25.71429" id="c2641b89b6c348f3bd2350bfa7bba003-ao-16" stroke="#2D2D2D" width="145.71429" x="235.42865" y="403.42862"/>
  <rect fill="#FFEBA2" height="25.71429" id="c2641b89b6c348f3bd2350bfa7bba003-ao-17" stroke="#2D2D2D" width="208.62638" x="178.28579" y="452.00005"/>
  <rect fill="#FFEBA2" height="25.71429" id="c2641b89b6c348f3bd2350bfa7bba003-ao-18" stroke="#2D2D2D" width="134.28572" x="261.14294" y="503.42863"/>
  <rect fill="#FFEBA2" height="28.57143" id="c2641b89b6c348f3bd2350bfa7bba003-ao-19" stroke="#2D2D2D" width="237.14287" x="169.71436" y="552.00006"/>
  <rect fill="#FFEBA2" height="31.48352" id="c2641b89b6c348f3bd2350bfa7bba003-ao-20" stroke="#2D2D2D" width="217.14287" x="201.14294" y="603.42863"/>
  <rect fill="#FFEBA2" height="25.71429" id="c2641b89b6c348f3bd2350bfa7bba003-ao-21" stroke="#2D2D2D" width="305.7143" x="1084.00012" y="600.57149"/>
  <rect fill="#FFEBA2" height="22.85714" id="c2641b89b6c348f3bd2350bfa7bba003-ao-22" stroke="#2D2D2D" width="171.42858" x="275.42865" y="666.28578"/>
  <rect fill="#FFEBA2" height="25.71429" id="c2641b89b6c348f3bd2350bfa7bba003-ao-23" stroke="#2D2D2D" width="308.57144" x="1086.85726" y="660.57149"/>
  <rect fill="#FFEBA2" height="28.57143" id="c2641b89b6c348f3bd2350bfa7bba003-ao-24" stroke="#2D2D2D" width="262.85715" x="295.42865" y="706.28578"/>
  <rect fill="#FFEBA2" height="28.57142" id="c2641b89b6c348f3bd2350bfa7bba003-ao-25" stroke="#2D2D2D" width="182.85715" x="1069.7144" y="720.57149"/>
 </g>
</svg>