<svg height="873.0000000000001" width="1194" xmlns="http://www.w3.org/2000/svg">
 <!-- Created with Image Occlusion Enhanced -->
 <g>
  <title>Labels</title>
 </g>
 <g>
  <title>Masks</title>
  <rect fill="#FFEBA2" height="25" id="c37be3bcc9b44534be53ef8ed362daf5-ao-1" stroke="#2D2D2D" width="55" x="40.99998" y="253.24996"/>
  <rect fill="#FFEBA2" height="30" id="c37be3bcc9b44534be53ef8ed362daf5-ao-2" stroke="#2D2D2D" width="60" x="35.99998" y="601.99995"/>
  <rect fill="#FFEBA2" height="27.5" id="c37be3bcc9b44534be53ef8ed362daf5-ao-3" stroke="#2D2D2D" width="55" x="43.49998" y="841.99995"/>
  <rect fill="#FFEBA2" height="25" id="c37be3bcc9b44534be53ef8ed362daf5-ao-4" stroke="#2D2D2D" width="90" x="760.99998" y="15.74996"/>
  <rect fill="#FFEBA2" height="25" id="c37be3bcc9b44534be53ef8ed362daf5-ao-5" stroke="#2D2D2D" width="267.5" x="770.99997" y="53.24996"/>
  <rect fill="#FFEBA2" height="27.5" id="c37be3bcc9b44534be53ef8ed362daf5-ao-6" stroke="#2D2D2D" width="257.5" x="783.49997" y="88.24996"/>
  
  <rect fill="#FFEBA2" height="27.5" id="c37be3bcc9b44534be53ef8ed362daf5-ao-8" stroke="#2D2D2D" width="367.5" x="815.99997" y="163.24996"/>
  <rect fill="#FFEBA2" height="27.5" id="c37be3bcc9b44534be53ef8ed362daf5-ao-9" stroke="#2D2D2D" width="180" x="833.49997" y="200.74996"/>
  <rect fill="#FFEBA2" height="25" id="c37be3bcc9b44534be53ef8ed362daf5-ao-10" stroke="#2D2D2D" width="125" x="845.99997" y="238.24996"/>
  <rect fill="#FFEBA2" height="25" id="c37be3bcc9b44534be53ef8ed362daf5-ao-11" stroke="#2D2D2D" width="322.5" x="828.49997" y="275.74996"/>
  <rect fill="#FFEBA2" height="25" id="c37be3bcc9b44534be53ef8ed362daf5-ao-12" stroke="#2D2D2D" width="162.5" x="808.49997" y="310.74996"/>
  <rect fill="#FFEBA2" height="22.5" id="c37be3bcc9b44534be53ef8ed362daf5-ao-13" stroke="#2D2D2D" width="150" x="790.99997" y="348.24996"/>
  <rect fill="#FFEBA2" height="27.5" id="c37be3bcc9b44534be53ef8ed362daf5-ao-14" stroke="#2D2D2D" width="150" x="773.49997" y="385.74995"/>
  <rect fill="#FFEBA2" height="25" id="c37be3bcc9b44534be53ef8ed362daf5-ao-15" stroke="#2D2D2D" width="147.5" x="765.99997" y="448.24995"/>
  <rect fill="#FFEBA2" height="27.5" id="c37be3bcc9b44534be53ef8ed362daf5-ao-16" stroke="#2D2D2D" width="155" x="758.49998" y="543.24995"/>
  <rect fill="#FFEBA2" height="27.5" id="c37be3bcc9b44534be53ef8ed362daf5-ao-17" stroke="#2D2D2D" width="167.5" x="760.99998" y="658.24995"/>
  <rect fill="#FFEBA2" height="27.5" id="c37be3bcc9b44534be53ef8ed362daf5-ao-18" stroke="#2D2D2D" width="145" x="760.99998" y="693.24995"/>
 </g>
</svg>