<svg height="1560" width="1535.9999999999998" xmlns="http://www.w3.org/2000/svg">
 <!-- Created with Image Occlusion Enhanced -->
 <g>
  <title>Labels</title>
 </g>
 <g>
  <title>Masks</title>
  <rect fill="#FFEBA2" height="25.71429" id="c3b8906a526145c6b1046d3a44f9385f-ao-1" stroke="#2D2D2D" width="151.42858" x="418.2858" y="25.71425"/>
  <rect fill="#FFEBA2" height="28.57143" id="c3b8906a526145c6b1046d3a44f9385f-ao-2" stroke="#2D2D2D" width="242.85715" x="661.14296" y="25.71425"/>
  <rect fill="#FFEBA2" height="22.85714" id="c3b8906a526145c6b1046d3a44f9385f-ao-3" stroke="#2D2D2D" width="177.14287" x="361.14294" y="62.85711"/>
  <rect fill="#FFEBA2" height="25.71429" id="c3b8906a526145c6b1046d3a44f9385f-ao-4" stroke="#2D2D2D" width="165.71429" x="712.57153" y="57.14282"/>
  <rect fill="#FFEBA2" height="25.71429" id="c3b8906a526145c6b1046d3a44f9385f-ao-5" stroke="#2D2D2D" width="182.85715" x="324.00008" y="97.14283"/>
  <rect fill="#FFEBA2" height="25.71429" id="c3b8906a526145c6b1046d3a44f9385f-ao-6" stroke="#2D2D2D" width="171.42858" x="806.85725" y="94.28568"/>
  <rect fill="#FFEBA2" height="28.57143" id="c3b8906a526145c6b1046d3a44f9385f-ao-7" stroke="#2D2D2D" width="154.28572" x="306.85723" y="131.42854"/>
  <rect fill="#FFEBA2" height="25.71429" id="c3b8906a526145c6b1046d3a44f9385f-ao-8" stroke="#2D2D2D" width="202.85715" x="892.57154" y="128.5714"/>
  <rect class="qshape" fill="#FF7E7E" height="25.71429" id="c3b8906a526145c6b1046d3a44f9385f-ao-9" stroke="#2D2D2D" width="157.14286" x="264.00008" y="168.5714"/>
  <rect fill="#FFEBA2" height="28.57143" id="c3b8906a526145c6b1046d3a44f9385f-ao-10" stroke="#2D2D2D" width="200.00001" x="958.28583" y="171.42854"/>
  <rect fill="#FFEBA2" height="28.57143" id="c3b8906a526145c6b1046d3a44f9385f-ao-11" stroke="#2D2D2D" width="211.42858" x="155.42865" y="202.85712"/>
  <rect fill="#FFEBA2" height="25.71429" id="c3b8906a526145c6b1046d3a44f9385f-ao-12" stroke="#2D2D2D" width="182.85715" x="1012.57154" y="214.28569"/>
  <rect fill="#FFEBA2" height="97.14286" id="c3b8906a526145c6b1046d3a44f9385f-ao-13" stroke="#2D2D2D" width="122.85715" x="132.5715" y="239.99998"/>
  <rect fill="#FFEBA2" height="28.57143" id="c3b8906a526145c6b1046d3a44f9385f-ao-14" stroke="#2D2D2D" width="188.57144" x="1069.7144" y="254.28569"/>
  <rect fill="#FFEBA2" height="48.57143" id="c3b8906a526145c6b1046d3a44f9385f-ao-15" stroke="#2D2D2D" width="151.42858" x="1175.42869" y="299.99998"/>
  <rect fill="#FFEBA2" height="74.28572" id="c3b8906a526145c6b1046d3a44f9385f-ao-16" stroke="#2D2D2D" width="120.00001" x="1301.14299" y="694.28571"/>
  <rect fill="#FFEBA2" height="80" id="c3b8906a526145c6b1046d3a44f9385f-ao-17" stroke="#2D2D2D" width="91.42858" x="852.57154" y="677.14285"/>
  <rect fill="#FFEBA2" height="74.28572" id="c3b8906a526145c6b1046d3a44f9385f-ao-18" stroke="#2D2D2D" width="82.85715" x="135.42865" y="742.85714"/>
  <rect fill="#FFEBA2" height="68.57143" id="c3b8906a526145c6b1046d3a44f9385f-ao-19" stroke="#2D2D2D" width="85.71429" x="1301.14299" y="777.14286"/>
  <rect fill="#FFEBA2" height="28.57143" id="c3b8906a526145c6b1046d3a44f9385f-ao-20" stroke="#2D2D2D" width="125.71429" x="161.14293" y="1125.7143"/>
  <rect fill="#FFEBA2" height="28.57143" id="c3b8906a526145c6b1046d3a44f9385f-ao-21" stroke="#2D2D2D" width="160.00001" x="1184.00012" y="1128.57144"/>
  <rect fill="#FFEBA2" height="48.57143" id="c3b8906a526145c6b1046d3a44f9385f-ao-22" stroke="#2D2D2D" width="162.85715" x="166.85722" y="1180.00002"/>
  <rect fill="#FFEBA2" height="51.42857" id="c3b8906a526145c6b1046d3a44f9385f-ao-23" stroke="#2D2D2D" width="168.57144" x="1186.85727" y="1171.42859"/>
  <rect fill="#FFEBA2" height="31.42857" id="c3b8906a526145c6b1046d3a44f9385f-ao-24" stroke="#2D2D2D" width="168.57144" x="1138.28584" y="1237.14288"/>
  <rect fill="#FFEBA2" height="31.42857" id="c3b8906a526145c6b1046d3a44f9385f-ao-25" stroke="#2D2D2D" width="202.85715" x="1112.57155" y="1280.00002"/>
  <rect fill="#FFEBA2" height="54.28572" id="c3b8906a526145c6b1046d3a44f9385f-ao-26" stroke="#2D2D2D" width="157.14286" x="189.71436" y="1271.42859"/>
  <rect fill="#FFEBA2" height="28.57143" id="c3b8906a526145c6b1046d3a44f9385f-ao-27" stroke="#2D2D2D" width="291.42858" x="1086.85726" y="1325.71431"/>
  <rect fill="#FFEBA2" height="31.42857" id="c3b8906a526145c6b1046d3a44f9385f-ao-28" stroke="#2D2D2D" width="242.85715" x="181.14294" y="1377.14288"/>
  <rect fill="#FFEBA2" height="28.57143" id="c3b8906a526145c6b1046d3a44f9385f-ao-29" stroke="#2D2D2D" width="214.28572" x="1044.00012" y="1368.57146"/>
  <rect fill="#FFEBA2" height="34.28572" id="c3b8906a526145c6b1046d3a44f9385f-ao-30" stroke="#2D2D2D" width="188.57144" x="1006.85726" y="1411.4286"/>
  <rect fill="#FFEBA2" height="51.42857" id="c3b8906a526145c6b1046d3a44f9385f-ao-31" stroke="#2D2D2D" width="168.57144" x="698.28582" y="1397.14289"/>
  <rect fill="#FFEBA2" height="31.42857" id="c3b8906a526145c6b1046d3a44f9385f-ao-32" stroke="#2D2D2D" width="197.14287" x="338.2858" y="1454.28574"/>
  <rect fill="#FFEBA2" height="28.57143" id="c3b8906a526145c6b1046d3a44f9385f-ao-33" stroke="#2D2D2D" width="188.57144" x="946.85726" y="1460.00003"/>
  <rect fill="#FFEBA2" height="31.42857" id="c3b8906a526145c6b1046d3a44f9385f-ao-34" stroke="#2D2D2D" width="177.14287" x="432.57152" y="1508.57146"/>
 </g>
</svg>