<svg height="859" width="1151" xmlns="http://www.w3.org/2000/svg">
 <!-- Created with Image Occlusion Enhanced -->
 <g>
  <title>Labels</title>
 </g>
 <g>
  <title>Masks</title>
  <rect fill="#FFEBA2" height="32.5" id="c5338e4732cc45e2aef2c04863aed480-ao-1" stroke="#2D2D2D" width="95" x="209.00002" y="65.99997"/>
  <rect fill="#FFEBA2" height="30" id="c5338e4732cc45e2aef2c04863aed480-ao-2" stroke="#2D2D2D" width="207.5" x="89.00002" y="183.49997"/>
  <rect fill="#FFEBA2" height="32.5" id="c5338e4732cc45e2aef2c04863aed480-ao-3" stroke="#2D2D2D" width="120" x="926.50003" y="190.99997"/>
  <rect fill="#FFEBA2" height="25" id="c5338e4732cc45e2aef2c04863aed480-ao-4" stroke="#2D2D2D" width="222.5" x="79.00002" y="235.99997"/>
  <rect fill="#FFEBA2" height="27.5" id="c5338e4732cc45e2aef2c04863aed480-ao-5" stroke="#2D2D2D" width="240" x="61.50002" y="265.99997"/>
  <rect fill="#FFEBA2" height="27.5" id="c5338e4732cc45e2aef2c04863aed480-ao-6" stroke="#2D2D2D" width="97.5" x="924.00003" y="270.99998"/>
  <rect fill="#FFEBA2" height="27.5" id="c5338e4732cc45e2aef2c04863aed480-ao-7" stroke="#2D2D2D" width="182.5" x="116.50002" y="320.99998"/>
  <rect fill="#FFEBA2" height="47.5" id="c5338e4732cc45e2aef2c04863aed480-ao-8" stroke="#2D2D2D" width="270" x="31.50002" y="353.49998"/>
  <rect fill="#FFEBA2" height="30" id="c5338e4732cc45e2aef2c04863aed480-ao-9" stroke="#2D2D2D" width="142.5" x="926.50003" y="385.99998"/>
  
  <rect fill="#FFEBA2" height="22.5" id="c5338e4732cc45e2aef2c04863aed480-ao-11" stroke="#2D2D2D" width="277.5" x="21.50002" y="463.49998"/>
  <rect fill="#FFEBA2" height="22.5" id="c5338e4732cc45e2aef2c04863aed480-ao-12" stroke="#2D2D2D" width="190" x="106.50002" y="493.49998"/>
  <rect fill="#FFEBA2" height="32.5" id="c5338e4732cc45e2aef2c04863aed480-ao-13" stroke="#2D2D2D" width="110" x="926.50003" y="443.49998"/>
  <rect fill="#FFEBA2" height="45" id="c5338e4732cc45e2aef2c04863aed480-ao-14" stroke="#2D2D2D" width="180" x="116.50002" y="520.99998"/>
  <rect fill="#FFEBA2" height="32.5" id="c5338e4732cc45e2aef2c04863aed480-ao-15" stroke="#2D2D2D" width="142.5" x="929.00003" y="503.49998"/>
  <rect fill="#FFEBA2" height="22.5" id="c5338e4732cc45e2aef2c04863aed480-ao-16" stroke="#2D2D2D" width="207.5" x="94.00002" y="570.99998"/>
  <rect fill="#FFEBA2" height="30" id="c5338e4732cc45e2aef2c04863aed480-ao-17" stroke="#2D2D2D" width="202.5" x="929.00003" y="565.99998"/>
  <rect fill="#FFEBA2" height="27.5" id="c5338e4732cc45e2aef2c04863aed480-ao-18" stroke="#2D2D2D" width="155" x="141.50002" y="598.49998"/>
  <rect fill="#FFEBA2" height="27.5" id="c5338e4732cc45e2aef2c04863aed480-ao-19" stroke="#2D2D2D" width="150" x="921.50003" y="627.24998"/>
  <rect fill="#FFEBA2" height="30" id="c5338e4732cc45e2aef2c04863aed480-ao-20" stroke="#2D2D2D" width="135" x="164.00002" y="682.24998"/>
  <rect fill="#FFEBA2" height="27.5" id="c5338e4732cc45e2aef2c04863aed480-ao-21" stroke="#2D2D2D" width="167.5" x="924.00003" y="687.24998"/>
  <rect fill="#FFEBA2" height="25" id="c5338e4732cc45e2aef2c04863aed480-ao-22" stroke="#2D2D2D" width="242.5" x="56.50002" y="767.24998"/>
  <rect fill="#FFEBA2" height="30" id="c5338e4732cc45e2aef2c04863aed480-ao-23" stroke="#2D2D2D" width="215" x="86.50002" y="807.24998"/>
 </g>
</svg>