<svg height="1560" width="1535.9999999999998" xmlns="http://www.w3.org/2000/svg">
 <!-- Created with Image Occlusion Enhanced -->
 <g>
  <title>Labels</title>
 </g>
 <g>
  <title>Masks</title>
  <rect fill="#FFEBA2" height="77.14286" id="c5521a0a73614f1f851594bcb0f35cdf-ao-1" stroke="#2D2D2D" width="120.00001" x="194.00008" y="197.14283"/>
  <rect fill="#FFEBA2" height="71.42857" id="c5521a0a73614f1f851594bcb0f35cdf-ao-2" stroke="#2D2D2D" width="102.85715" x="356.85723" y="199.99997"/>
  <rect fill="#FFEBA2" height="74.28572" id="c5521a0a73614f1f851594bcb0f35cdf-ao-3" stroke="#2D2D2D" width="111.42858" x="196.85722" y="299.99998"/>
  <rect fill="#FFEBA2" height="74.28572" id="c5521a0a73614f1f851594bcb0f35cdf-ao-4" stroke="#2D2D2D" width="100" x="356.85723" y="297.14284"/>
  <rect fill="#FFEBA2" height="80" id="c5521a0a73614f1f851594bcb0f35cdf-ao-5" stroke="#2D2D2D" width="182.85715" x="714.0001" y="85.71425"/>
  
  <rect fill="#FFEBA2" height="68.57143" id="c5521a0a73614f1f851594bcb0f35cdf-ao-7" stroke="#2D2D2D" width="137.14286" x="608.28581" y="225.71426"/>
  <rect fill="#FFEBA2" height="71.42857" id="c5521a0a73614f1f851594bcb0f35cdf-ao-8" stroke="#2D2D2D" width="142.85715" x="1099.71441" y="219.99997"/>
  <rect fill="#FFEBA2" height="37.14286" id="c5521a0a73614f1f851594bcb0f35cdf-ao-9" stroke="#2D2D2D" width="157.14286" x="302.57151" y="682.85714"/>
  <rect fill="#FFEBA2" height="74.28572" id="c5521a0a73614f1f851594bcb0f35cdf-ao-10" stroke="#2D2D2D" width="157.14286" x="1242.57155" y="782.85714"/>
  <rect fill="#FFEBA2" height="31.42857" id="c5521a0a73614f1f851594bcb0f35cdf-ao-11" stroke="#2D2D2D" width="262.85715" x="311.14294" y="811.42857"/>
  <rect fill="#FFEBA2" height="22.85714" id="c5521a0a73614f1f851594bcb0f35cdf-ao-12" stroke="#2D2D2D" width="182.85715" x="239.71437" y="854.28572"/>
  <rect fill="#FFEBA2" height="31.42857" id="c5521a0a73614f1f851594bcb0f35cdf-ao-13" stroke="#2D2D2D" width="160.00001" x="239.71437" y="914.28572"/>
  <rect fill="#FFEBA2" height="28.57143" id="c5521a0a73614f1f851594bcb0f35cdf-ao-14" stroke="#2D2D2D" width="162.85715" x="305.42866" y="982.85715"/>
  <rect fill="#FFEBA2" height="54.28572" id="c5521a0a73614f1f851594bcb0f35cdf-ao-15" stroke="#2D2D2D" width="148.57144" x="1214.00012" y="988.57144"/>
  <rect fill="#FFEBA2" height="34.28572" id="c5521a0a73614f1f851594bcb0f35cdf-ao-16" stroke="#2D2D2D" width="180.00001" x="311.14294" y="1034.28573"/>
  <rect fill="#FFEBA2" height="28.57143" id="c5521a0a73614f1f851594bcb0f35cdf-ao-17" stroke="#2D2D2D" width="205.7143" x="242.57151" y="1111.42859"/>
  <rect fill="#FFEBA2" height="28.57143" id="c5521a0a73614f1f851594bcb0f35cdf-ao-18" stroke="#2D2D2D" width="180.00001" x="245.42865" y="1157.14287"/>
  <rect fill="#FFEBA2" height="31.42857" id="c5521a0a73614f1f851594bcb0f35cdf-ao-19" stroke="#2D2D2D" width="202.85715" x="302.57151" y="1217.14288"/>
  <rect fill="#FFEBA2" height="48.57143" id="c5521a0a73614f1f851594bcb0f35cdf-ao-20" stroke="#2D2D2D" width="122.85715" x="1236.85727" y="1208.57145"/>
  <rect fill="#FFEBA2" height="34.28572" id="c5521a0a73614f1f851594bcb0f35cdf-ao-21" stroke="#2D2D2D" width="248.57144" x="308.2858" y="1271.42859"/>
 </g>
</svg>