<svg height="1678" width="1535.9999999999998" xmlns="http://www.w3.org/2000/svg">
 <!-- Created with Image Occlusion Enhanced -->
 <g>
  <title>Labels</title>
 </g>
 <g>
  <title>Masks</title>
  
  <rect fill="#FFEBA2" height="22.85714" id="c5f4ffc8714b4a6083bbc750b769200f-ao-2" stroke="#2D2D2D" width="402.85716" x="858.28582" y="52.00002"/>
  <rect fill="#FFEBA2" height="25.71429" id="c5f4ffc8714b4a6083bbc750b769200f-ao-3" stroke="#2D2D2D" width="102.85715" x="895.42868" y="86.28573"/>
  <rect fill="#FFEBA2" height="25.71429" id="c5f4ffc8714b4a6083bbc750b769200f-ao-4" stroke="#2D2D2D" width="471.42859" x="932.57154" y="126.28573"/>
  <rect fill="#FFEBA2" height="22.85714" id="c5f4ffc8714b4a6083bbc750b769200f-ao-5" stroke="#2D2D2D" width="151.42858" x="561.14295" y="109.14288"/>
  <rect fill="#FFEBA2" height="25.71429" id="c5f4ffc8714b4a6083bbc750b769200f-ao-6" stroke="#2D2D2D" width="391.42859" x="261.14294" y="140.57145"/>
  <rect fill="#FFEBA2" height="25.71429" id="c5f4ffc8714b4a6083bbc750b769200f-ao-7" stroke="#2D2D2D" width="168.57144" x="158.28579" y="189.14288"/>
  <rect fill="#FFEBA2" height="25.71429" id="c5f4ffc8714b4a6083bbc750b769200f-ao-8" stroke="#2D2D2D" width="60" x="569.71438" y="189.14288"/>
  <rect fill="#FFEBA2" height="37.14286" id="c5f4ffc8714b4a6083bbc750b769200f-ao-9" stroke="#2D2D2D" width="97.14286" x="952.57154" y="172.00002"/>
  <rect fill="#FFEBA2" height="25.71429" id="c5f4ffc8714b4a6083bbc750b769200f-ao-10" stroke="#2D2D2D" width="257.14287" x="1072.57155" y="157.71431"/>
  <rect fill="#FFEBA2" height="28.57143" id="c5f4ffc8714b4a6083bbc750b769200f-ao-11" stroke="#2D2D2D" width="165.71429" x="1149.71441" y="189.14288"/>
  <rect fill="#FFEBA2" height="28.57143" id="c5f4ffc8714b4a6083bbc750b769200f-ao-12" stroke="#2D2D2D" width="145.71429" x="166.85722" y="226.28574"/>
  <rect fill="#FFEBA2" height="28.57143" id="c5f4ffc8714b4a6083bbc750b769200f-ao-13" stroke="#2D2D2D" width="154.28572" x="1192.57155" y="234.85717"/>
  <rect fill="#FFEBA2" height="25.71429" id="c5f4ffc8714b4a6083bbc750b769200f-ao-14" stroke="#2D2D2D" width="185.71429" x="118.28579" y="280.57146"/>
  <rect fill="#FFEBA2" height="48.57143" id="c5f4ffc8714b4a6083bbc750b769200f-ao-15" stroke="#2D2D2D" width="171.42858" x="1212.57155" y="280.57146"/>
  <rect fill="#FFEBA2" height="54.28572" id="c5f4ffc8714b4a6083bbc750b769200f-ao-16" stroke="#2D2D2D" width="180.00001" x="1244.00013" y="346.28574"/>
  <rect fill="#FFEBA2" height="28.57143" id="c5f4ffc8714b4a6083bbc750b769200f-ao-17" stroke="#2D2D2D" width="85.71429" x="115.42865" y="380.57146"/>
  <rect fill="#FFEBA2" height="31.42857" id="c5f4ffc8714b4a6083bbc750b769200f-ao-18" stroke="#2D2D2D" width="145.71429" x="1289.71441" y="1017.71435"/>
  <rect fill="#FFEBA2" height="45.71429" id="c5f4ffc8714b4a6083bbc750b769200f-ao-19" stroke="#2D2D2D" width="171.42858" x="112.5715" y="1023.42863"/>
  <rect fill="#FFEBA2" height="25.71429" id="c5f4ffc8714b4a6083bbc750b769200f-ao-20" stroke="#2D2D2D" width="208.57144" x="112.5715" y="1089.14292"/>
  <rect fill="#FFEBA2" height="22.85714" id="c5f4ffc8714b4a6083bbc750b769200f-ao-21" stroke="#2D2D2D" width="120.00001" x="224.00008" y="1132.00007"/>
  <rect fill="#FFEBA2" height="22.85714" id="c5f4ffc8714b4a6083bbc750b769200f-ao-22" stroke="#2D2D2D" width="157.14286" x="209.71436" y="1166.28578"/>
  <rect fill="#FFEBA2" height="25.71429" id="c5f4ffc8714b4a6083bbc750b769200f-ao-23" stroke="#2D2D2D" width="125.71429" x="272.57151" y="1203.42864"/>
  <rect fill="#FFEBA2" height="20" id="c5f4ffc8714b4a6083bbc750b769200f-ao-24" stroke="#2D2D2D" width="245.7143" x="195.42865" y="1237.71436"/>
  <rect fill="#FFEBA2" height="25.71429" id="c5f4ffc8714b4a6083bbc750b769200f-ao-25" stroke="#2D2D2D" width="197.14287" x="281.14294" y="1272.00007"/>
  <rect fill="#FFEBA2" height="28.57143" id="c5f4ffc8714b4a6083bbc750b769200f-ao-26" stroke="#2D2D2D" width="265.7143" x="626.85724" y="1206.28578"/>
  <g id="c5f4ffc8714b4a6083bbc750b769200f-ao-27">
   <rect fill="#FFEBA2" height="28.57143" stroke="#2D2D2D" width="85.71429" x="1344.00013" y="1214.85721"/>
   <rect fill="#FFEBA2" height="28.57143" stroke="#2D2D2D" width="125.71429" x="1175.42869" y="1123.42864"/>
   <rect fill="#FFEBA2" height="31.42857" stroke="#2D2D2D" width="142.85715" x="1152.57155" y="1163.42864"/>
   <rect fill="#FFEBA2" height="88.57143" stroke="#2D2D2D" width="151.42858" x="1121.14298" y="1209.14293"/>
   <rect fill="#FFEBA2" height="25.71429" stroke="#2D2D2D" width="148.57144" x="1095.42869" y="1317.71436"/>
  </g>
 </g>
</svg>