<svg height="810" width="1311" xmlns="http://www.w3.org/2000/svg">
 <!-- Created with Image Occlusion Enhanced -->
 <g>
  <title>Labels</title>
 </g>
 <g>
  <title>Masks</title>
  <rect fill="#FFEBA2" height="25.71429" id="c7a1000f206f478da4a56015fd0ba6aa-ao-1" stroke="#2D2D2D" width="277.14286" x="757.5714" y="127.14286"/>
  <rect fill="#FFEBA2" height="25.71429" id="c7a1000f206f478da4a56015fd0ba6aa-ao-2" stroke="#2D2D2D" width="60" x="308.99997" y="130"/>
  <rect fill="#FFEBA2" height="31.42857" id="c7a1000f206f478da4a56015fd0ba6aa-ao-3" stroke="#2D2D2D" width="482.85714" x="811.85712" y="170"/>
  <rect fill="#FFEBA2" height="31.42857" id="c7a1000f206f478da4a56015fd0ba6aa-ao-4" stroke="#2D2D2D" width="228.57143" x="146.14283" y="181.42857"/>
  <rect fill="#FFEBA2" height="28.57143" id="c7a1000f206f478da4a56015fd0ba6aa-ao-5" stroke="#2D2D2D" width="285.71429" x="63.28569" y="235.71429"/>
  <rect fill="#FFEBA2" height="31.42857" id="c7a1000f206f478da4a56015fd0ba6aa-ao-6" stroke="#2D2D2D" width="237.14286" x="811.85712" y="244.28571"/>
  <rect fill="#FFEBA2" height="28.57143" id="c7a1000f206f478da4a56015fd0ba6aa-ao-7" stroke="#2D2D2D" width="228.57143" x="100.42855" y="292.85714"/>
  
  <rect fill="#FFEBA2" height="48.57143" id="c7a1000f206f478da4a56015fd0ba6aa-ao-9" stroke="#2D2D2D" width="305.71429" x="46.14283" y="347.14286"/>
  <rect fill="#FFEBA2" height="28.57143" id="c7a1000f206f478da4a56015fd0ba6aa-ao-10" stroke="#2D2D2D" width="168.57143" x="811.85712" y="384.28571"/>
  <rect fill="#FFEBA2" height="31.42857" id="c7a1000f206f478da4a56015fd0ba6aa-ao-11" stroke="#2D2D2D" width="185.71429" x="143.28569" y="421.42857"/>
  <rect fill="#FFEBA2" height="28.57143" id="c7a1000f206f478da4a56015fd0ba6aa-ao-12" stroke="#2D2D2D" width="142.85714" x="811.85712" y="458.57143"/>
  <rect fill="#FFEBA2" height="28.57143" id="c7a1000f206f478da4a56015fd0ba6aa-ao-13" stroke="#2D2D2D" width="160" x="171.85712" y="475.71429"/>
  <rect fill="#FFEBA2" height="31.42857" id="c7a1000f206f478da4a56015fd0ba6aa-ao-14" stroke="#2D2D2D" width="474.28571" x="808.99997" y="530"/>
  <rect fill="#FFEBA2" height="28.57143" id="c7a1000f206f478da4a56015fd0ba6aa-ao-15" stroke="#2D2D2D" width="237.14286" x="88.99997" y="532.85714"/>
  <rect fill="#FFEBA2" height="28.57143" id="c7a1000f206f478da4a56015fd0ba6aa-ao-16" stroke="#2D2D2D" width="137.14286" x="197.5714" y="587.14286"/>
  <rect fill="#FFEBA2" height="28.57143" id="c7a1000f206f478da4a56015fd0ba6aa-ao-17" stroke="#2D2D2D" width="417.14286" x="811.85712" y="604.28571"/>
  <rect fill="#FFEBA2" height="54.28571" id="c7a1000f206f478da4a56015fd0ba6aa-ao-18" stroke="#2D2D2D" width="228.57143" x="108.99997" y="641.42857"/>
  <rect fill="#FFEBA2" height="28.57143" id="c7a1000f206f478da4a56015fd0ba6aa-ao-19" stroke="#2D2D2D" width="405.71429" x="811.85712" y="672.85714"/>
  <rect fill="#FFEBA2" height="51.42857" id="c7a1000f206f478da4a56015fd0ba6aa-ao-20" stroke="#2D2D2D" width="220" x="137.5714" y="718.57143"/>
 </g>
</svg>