<svg height="929" width="1535.9999999999998" xmlns="http://www.w3.org/2000/svg">
 <!-- Created with Image Occlusion Enhanced -->
 <g>
  <title>Labels</title>
 </g>
 <g>
  <title>Masks</title>
  <rect fill="#FFEBA2" height="54.28572" id="c91f8a114687462eab769acd2fc7fc80-ao-1" stroke="#2D2D2D" width="334.28573" x="932.57154" y="98.14287"/>
  <rect fill="#FFEBA2" height="31.42857" id="c91f8a114687462eab769acd2fc7fc80-ao-2" stroke="#2D2D2D" width="222.85715" x="441.14295" y="98.14287"/>
  <rect fill="#FFEBA2" height="31.42857" id="c91f8a114687462eab769acd2fc7fc80-ao-3" stroke="#2D2D2D" width="300.00001" x="295.42865" y="149.57144"/>
  <rect fill="#FFEBA2" height="28.57143" id="c91f8a114687462eab769acd2fc7fc80-ao-4" stroke="#2D2D2D" width="60" x="981.14297" y="169.57144"/>
  <rect fill="#FFEBA2" height="31.42857" id="c91f8a114687462eab769acd2fc7fc80-ao-5" stroke="#2D2D2D" width="325.7143" x="201.14294" y="206.7143"/>
  <rect fill="#FFEBA2" height="28.57143" id="c91f8a114687462eab769acd2fc7fc80-ao-6" stroke="#2D2D2D" width="245.7143" x="1026.85726" y="218.14287"/>
  <rect fill="#FFEBA2" height="31.42857" id="c91f8a114687462eab769acd2fc7fc80-ao-7" stroke="#2D2D2D" width="222.85715" x="255.42865" y="255.28573"/>
  <rect fill="#FFEBA2" height="48.57143" id="c91f8a114687462eab769acd2fc7fc80-ao-8" stroke="#2D2D2D" width="231.42858" x="1089.7144" y="269.57145"/>
  <rect fill="#FFEBA2" height="28.57143" id="c91f8a114687462eab769acd2fc7fc80-ao-9" stroke="#2D2D2D" width="302.85716" x="164.00008" y="301.00002"/>
  <rect fill="#FFEBA2" height="31.42857" id="c91f8a114687462eab769acd2fc7fc80-ao-10" stroke="#2D2D2D" width="231.42858" x="1124.00012" y="332.42859"/>
  <rect fill="#FFEBA2" height="25.71429" id="c91f8a114687462eab769acd2fc7fc80-ao-11" stroke="#2D2D2D" width="128.57143" x="269.71437" y="369.57145"/>
  <rect fill="#FFEBA2" height="48.57143" id="c91f8a114687462eab769acd2fc7fc80-ao-12" stroke="#2D2D2D" width="245.7143" x="1138.28584" y="383.85717"/>
  <rect fill="#FFEBA2" height="54.28572" id="c91f8a114687462eab769acd2fc7fc80-ao-13" stroke="#2D2D2D" width="137.14286" x="269.71437" y="409.57145"/>
  <rect fill="#FFEBA2" height="54.28572" id="c91f8a114687462eab769acd2fc7fc80-ao-14" stroke="#2D2D2D" width="137.14286" x="1158.28584" y="452.4286"/>
  <rect fill="#FFEBA2" height="48.57143" id="c91f8a114687462eab769acd2fc7fc80-ao-15" stroke="#2D2D2D" width="140.00001" x="264.00008" y="472.4286"/>
  <rect fill="#FFEBA2" height="57.14286" id="c91f8a114687462eab769acd2fc7fc80-ao-16" stroke="#2D2D2D" width="254.28573" x="1144.00012" y="521.00003"/>
  <rect fill="#FFEBA2" height="31.42857" id="c91f8a114687462eab769acd2fc7fc80-ao-17" stroke="#2D2D2D" width="291.42858" x="146.85722" y="535.28574"/>
  <rect fill="#FFEBA2" height="45.71429" id="c91f8a114687462eab769acd2fc7fc80-ao-18" stroke="#2D2D2D" width="211.42858" x="1141.14298" y="598.14289"/>
  <rect fill="#FFEBA2" height="28.57143" id="c91f8a114687462eab769acd2fc7fc80-ao-19" stroke="#2D2D2D" width="62.85715" x="384.00009" y="586.71432"/>
  <rect fill="#FFEBA2" height="31.42857" id="c91f8a114687462eab769acd2fc7fc80-ao-20" stroke="#2D2D2D" width="277.14287" x="169.71436" y="632.42861"/>
  <rect fill="#FFEBA2" height="31.42857" id="c91f8a114687462eab769acd2fc7fc80-ao-21" stroke="#2D2D2D" width="131.42858" x="1124.00012" y="661.00004"/>
  <rect fill="#FFEBA2" height="31.42857" id="c91f8a114687462eab769acd2fc7fc80-ao-22" stroke="#2D2D2D" width="311.42859" x="169.71436" y="683.85718"/>
  <rect fill="#FFEBA2" height="31.42857" id="c91f8a114687462eab769acd2fc7fc80-ao-23" stroke="#2D2D2D" width="160.00001" x="1098.28583" y="706.71432"/>
  <rect fill="#FFEBA2" height="28.57143" id="c91f8a114687462eab769acd2fc7fc80-ao-24" stroke="#2D2D2D" width="142.85715" x="366.85723" y="732.42861"/>
  <rect fill="#FFEBA2" height="31.42857" id="c91f8a114687462eab769acd2fc7fc80-ao-25" stroke="#2D2D2D" width="357.14287" x="1026.85726" y="761.00004"/>
  <rect class="qshape" fill="#FF7E7E" height="28.57143" id="c91f8a114687462eab769acd2fc7fc80-ao-26" stroke="#2D2D2D" width="354.28573" x="246.85722" y="781.00004"/>
  <rect fill="#FFEBA2" height="28.57143" id="c91f8a114687462eab769acd2fc7fc80-ao-27" stroke="#2D2D2D" width="285.7143" x="964.00011" y="812.42861"/>
  <rect fill="#FFEBA2" height="45.71429" id="c91f8a114687462eab769acd2fc7fc80-ao-28" stroke="#2D2D2D" width="305.7143" x="338.2858" y="826.71433"/>
  <rect fill="#FFEBA2" height="28.57143" id="c91f8a114687462eab769acd2fc7fc80-ao-29" stroke="#2D2D2D" width="211.42858" x="869.71439" y="861.00004"/>
 </g>
</svg>