<svg height="1092" width="1535.9999999999998" xmlns="http://www.w3.org/2000/svg">
 <!-- Created with Image Occlusion Enhanced -->
 <g>
  <title>Labels</title>
 </g>
 <g>
  <title>Masks</title>
  <rect fill="#FFEBA2" height="28.57143" id="c9bdc4bcc8444a6cbedb958b43df0ecf-ao-1" stroke="#2D2D2D" width="388.57145" x="142.5715" y="47.99993"/>
  <rect fill="#FFEBA2" height="28.57143" id="c9bdc4bcc8444a6cbedb958b43df0ecf-ao-2" stroke="#2D2D2D" width="157.14286" x="602.57153" y="45.14278"/>
  <rect fill="#FFEBA2" height="22.85714" id="c9bdc4bcc8444a6cbedb958b43df0ecf-ao-3" stroke="#2D2D2D" width="251.42858" x="799.71439" y="65.14278"/>
  <rect fill="#FFEBA2" height="22.85714" id="c9bdc4bcc8444a6cbedb958b43df0ecf-ao-4" stroke="#2D2D2D" width="168.57144" x="285.42865" y="82.28564"/>
  <rect fill="#FFEBA2" height="22.85714" id="c9bdc4bcc8444a6cbedb958b43df0ecf-ao-5" stroke="#2D2D2D" width="337.14287" x="868.28582" y="90.85707"/>
  <rect fill="#FFEBA2" height="22.85714" id="c9bdc4bcc8444a6cbedb958b43df0ecf-ao-6" stroke="#2D2D2D" width="145.71429" x="262.57151" y="119.4285"/>
  <rect fill="#FFEBA2" height="22.85714" id="c9bdc4bcc8444a6cbedb958b43df0ecf-ao-7" stroke="#2D2D2D" width="97.14286" x="894.00011" y="122.28564"/>
  <rect fill="#FFEBA2" height="22.85714" id="c9bdc4bcc8444a6cbedb958b43df0ecf-ao-8" stroke="#2D2D2D" width="188.57144" x="196.85722" y="147.99993"/>
  <rect fill="#FFEBA2" height="22.85714" id="c9bdc4bcc8444a6cbedb958b43df0ecf-ao-9" stroke="#2D2D2D" width="465.71431" x="928.28583" y="150.85707"/>
  <rect fill="#FFEBA2" height="22.85714" id="c9bdc4bcc8444a6cbedb958b43df0ecf-ao-10" stroke="#2D2D2D" width="248.57144" x="1011.14297" y="179.4285"/>
  <rect class="qshape" fill="#FF7E7E" height="25.71429" id="c9bdc4bcc8444a6cbedb958b43df0ecf-ao-11" stroke="#2D2D2D" width="160.00001" x="1056.85726" y="205.14279"/>
  <rect fill="#FFEBA2" height="25.71429" id="c9bdc4bcc8444a6cbedb958b43df0ecf-ao-12" stroke="#2D2D2D" width="151.42858" x="1088.28583" y="239.42851"/>
  <rect fill="#FFEBA2" height="28.57143" id="c9bdc4bcc8444a6cbedb958b43df0ecf-ao-13" stroke="#2D2D2D" width="65.71429" x="125.42865" y="242.28565"/>
  <rect fill="#FFEBA2" height="25.71429" id="c9bdc4bcc8444a6cbedb958b43df0ecf-ao-14" stroke="#2D2D2D" width="234.28572" x="1125.42869" y="265.14279"/>
  <rect fill="#FFEBA2" height="45.71429" id="c9bdc4bcc8444a6cbedb958b43df0ecf-ao-15" stroke="#2D2D2D" width="182.85715" x="1176.85727" y="307.99994"/>
  <rect fill="#FFEBA2" height="25.71429" id="c9bdc4bcc8444a6cbedb958b43df0ecf-ao-16" stroke="#2D2D2D" width="77.14286" x="131.14293" y="342.28565"/>
  <rect fill="#FFEBA2" height="45.71429" id="c9bdc4bcc8444a6cbedb958b43df0ecf-ao-17" stroke="#2D2D2D" width="114.28572" x="128.28579" y="390.85708"/>
  <g id="c9bdc4bcc8444a6cbedb958b43df0ecf-ao-18">
   <rect fill="#FFEBA2" height="25.71429" stroke="#2D2D2D" width="94.28572" x="1325.4287" y="505.1428"/>
   <rect fill="#FFEBA2" height="25.71429" stroke="#2D2D2D" width="122.85715" x="1165.42869" y="416.57137"/>
   <rect fill="#FFEBA2" height="22.85714" stroke="#2D2D2D" width="137.14286" x="1165.42869" y="459.42852"/>
   <rect fill="#FFEBA2" height="120.00001" stroke="#2D2D2D" width="134.28572" x="1168.28584" y="499.42852"/>
  </g>
  <rect fill="#FFEBA2" height="71.42857" id="c9bdc4bcc8444a6cbedb958b43df0ecf-ao-19" stroke="#2D2D2D" width="94.28572" x="128.28579" y="459.42852"/>
  <rect fill="#FFEBA2" height="28.57143" id="c9bdc4bcc8444a6cbedb958b43df0ecf-ao-20" stroke="#2D2D2D" width="120.00001" x="131.14293" y="553.71423"/>
  <rect fill="#FFEBA2" height="31.42857" id="c9bdc4bcc8444a6cbedb958b43df0ecf-ao-21" stroke="#2D2D2D" width="162.85715" x="125.42865" y="610.85709"/>
  <rect fill="#FFEBA2" height="28.57143" id="c9bdc4bcc8444a6cbedb958b43df0ecf-ao-22" stroke="#2D2D2D" width="140.00001" x="1099.71441" y="699.42853"/>
  <rect fill="#FFEBA2" height="25.71429" id="c9bdc4bcc8444a6cbedb958b43df0ecf-ao-23" stroke="#2D2D2D" width="257.14287" x="751.14296" y="727.99996"/>
  <rect fill="#FFEBA2" height="25.71429" id="c9bdc4bcc8444a6cbedb958b43df0ecf-ao-24" stroke="#2D2D2D" width="242.85715" x="274.00008" y="745.14281"/>
 </g>
</svg>