<svg height="757" width="1265" xmlns="http://www.w3.org/2000/svg">
 <!-- Created with Image Occlusion Enhanced -->
 <g>
  <title>Labels</title>
 </g>
 <g>
  <title>Masks</title>
  <g id="cadea87a91c94b279860c3799c6f034c-ao-1">
   <rect fill="#FFEBA2" height="48.57143" stroke="#2D2D2D" width="191.42857" x="179.28571" y="37.28566"/>
   <rect fill="#FFEBA2" height="22.85714" stroke="#2D2D2D" width="122.85714" x="179.28571" y="85.85709"/>
  </g>
  <rect fill="#FFEBA2" height="25.71429" id="cadea87a91c94b279860c3799c6f034c-ao-2" stroke="#2D2D2D" width="102.85714" x="1093.57143" y="37.28566"/>
  <rect fill="#FFEBA2" height="48.57143" id="cadea87a91c94b279860c3799c6f034c-ao-3" stroke="#2D2D2D" width="142.85714" x="1093.57143" y="80.1428"/>
  <rect fill="#FFEBA2" height="25.71429" id="cadea87a91c94b279860c3799c6f034c-ao-4" stroke="#2D2D2D" width="260" x="99.28571" y="120.1428"/>
  <rect fill="#FFEBA2" height="65.71429" id="cadea87a91c94b279860c3799c6f034c-ao-5" stroke="#2D2D2D" width="191.42857" x="165" y="157.28566"/>
  <rect fill="#FFEBA2" height="120" id="cadea87a91c94b279860c3799c6f034c-ao-6" stroke="#2D2D2D" width="162.85714" x="1090.71429" y="140.1428"/>
  <rect fill="#FFEBA2" height="25.71429" id="cadea87a91c94b279860c3799c6f034c-ao-7" stroke="#2D2D2D" width="285.71429" x="62.14286" y="234.42852"/>
  <rect fill="#FFEBA2" height="45.71429" id="cadea87a91c94b279860c3799c6f034c-ao-8" stroke="#2D2D2D" width="214.28571" x="130.71429" y="271.57138"/>
  <rect fill="#FFEBA2" height="71.42857" id="cadea87a91c94b279860c3799c6f034c-ao-9" stroke="#2D2D2D" width="120" x="1087.85714" y="268.71423"/>
  <rect fill="#FFEBA2" height="45.71429" id="cadea87a91c94b279860c3799c6f034c-ao-10" stroke="#2D2D2D" width="177.14286" x="130.71429" y="331.57138"/>
  <rect fill="#FFEBA2" height="71.42857" id="cadea87a91c94b279860c3799c6f034c-ao-11" stroke="#2D2D2D" width="105.71429" x="1110.71429" y="354.42852"/>
  <rect fill="#FFEBA2" height="48.57143" id="cadea87a91c94b279860c3799c6f034c-ao-12" stroke="#2D2D2D" width="265.71429" x="76.42857" y="391.57138"/>
  
  <rect fill="#FFEBA2" height="28.57143" id="cadea87a91c94b279860c3799c6f034c-ao-14" stroke="#2D2D2D" width="268.57143" x="62.14286" y="454.42852"/>
  <rect fill="#FFEBA2" height="25.71429" id="cadea87a91c94b279860c3799c6f034c-ao-15" stroke="#2D2D2D" width="302.85714" x="39.28571" y="494.42852"/>
  <rect fill="#FFEBA2" height="94.28571" id="cadea87a91c94b279860c3799c6f034c-ao-16" stroke="#2D2D2D" width="162.85714" x="1082.14286" y="502.99995"/>
  <rect fill="#FFEBA2" height="45.71429" id="cadea87a91c94b279860c3799c6f034c-ao-17" stroke="#2D2D2D" width="165.71429" x="170.71429" y="537.28566"/>
  <g id="cadea87a91c94b279860c3799c6f034c-ao-18">
   <rect fill="#FFEBA2" height="22.85714" stroke="#2D2D2D" width="214.28571" x="125" y="600.1428"/>
   <rect fill="#FFEBA2" height="22.85714" stroke="#2D2D2D" width="108.57143" x="225" y="622.99995"/>
   <rect fill="#FFEBA2" height="20" stroke="#2D2D2D" stroke-dasharray="null" stroke-linecap="null" stroke-linejoin="null" width="111.42857" x="225" y="645.85709"/>
  </g>
  <rect fill="#FFEBA2" height="45.71429" id="cadea87a91c94b279860c3799c6f034c-ao-19" stroke="#2D2D2D" stroke-dasharray="null" stroke-linecap="null" stroke-linejoin="null" width="117.14286" x="1082.14286" y="602.99995"/>
  <rect fill="#FFEBA2" height="25.71429" id="cadea87a91c94b279860c3799c6f034c-ao-20" stroke="#2D2D2D" stroke-dasharray="null" stroke-linecap="null" stroke-linejoin="null" width="108.57143" x="227.85714" y="680.1428"/>
  <rect fill="#FFEBA2" height="51.42857" id="cadea87a91c94b279860c3799c6f034c-ao-21" stroke="#2D2D2D" stroke-dasharray="null" stroke-linecap="null" stroke-linejoin="null" width="168.57143" x="1059.28571" y="651.57138"/>
 </g>
</svg>