<svg height="1221" width="1276" xmlns="http://www.w3.org/2000/svg">
 <!-- Created with Image Occlusion Enhanced -->
 <g>
  <title>Labels</title>
 </g>
 <g>
  <title>Masks</title>
  <rect fill="#FFEBA2" height="25" id="cd31f951eaf047e798b839304ab4d2fb-ao-1" stroke="#2D2D2D" width="80" x="242.75002" y="2.75002"/>
  <rect fill="#FFEBA2" height="25" id="cd31f951eaf047e798b839304ab4d2fb-ao-2" stroke="#2D2D2D" width="245" x="617.75002" y="7.75002"/>
  <rect fill="#FFEBA2" height="25" id="cd31f951eaf047e798b839304ab4d2fb-ao-3" stroke="#2D2D2D" width="175" x="40.25002" y="47.75002"/>
  <rect fill="#FFEBA2" height="27.5" id="cd31f951eaf047e798b839304ab4d2fb-ao-4" stroke="#2D2D2D" width="245" x="710.25002" y="60.25002"/>
  <rect fill="#FFEBA2" height="42.5" id="cd31f951eaf047e798b839304ab4d2fb-ao-5" stroke="#2D2D2D" width="192.5" x="20.25002" y="90.25002"/>
  <rect fill="#FFEBA2" height="27.5" id="cd31f951eaf047e798b839304ab4d2fb-ao-6" stroke="#2D2D2D" width="272.5" x="790.25002" y="120.25002"/>
  <rect fill="#FFEBA2" height="45" id="cd31f951eaf047e798b839304ab4d2fb-ao-7" stroke="#2D2D2D" width="220" x="852.75003" y="167.75002"/>
  <rect fill="#FFEBA2" height="27.5" id="cd31f951eaf047e798b839304ab4d2fb-ao-8" stroke="#2D2D2D" width="292.5" x="905.25003" y="232.75002"/>
  <rect fill="#FFEBA2" height="50" id="cd31f951eaf047e798b839304ab4d2fb-ao-9" stroke="#2D2D2D" width="117.5" x="25.25002" y="332.75002"/>
  <rect fill="#FFEBA2" height="22.5" id="cd31f951eaf047e798b839304ab4d2fb-ao-10" stroke="#2D2D2D" width="180" x="22.75002" y="400.25002"/>
  <rect fill="#FFEBA2" height="30" id="cd31f951eaf047e798b839304ab4d2fb-ao-11" stroke="#2D2D2D" width="140" x="130.25002" y="435.25002"/>
  <rect fill="#FFEBA2" height="30" id="cd31f951eaf047e798b839304ab4d2fb-ao-12" stroke="#2D2D2D" width="40" x="342.75002" y="340.25002"/>
  <rect fill="#FFEBA2" height="25" id="cd31f951eaf047e798b839304ab4d2fb-ao-13" stroke="#2D2D2D" width="60" x="447.75002" y="345.25002"/>
  <rect fill="#FFEBA2" height="55" id="cd31f951eaf047e798b839304ab4d2fb-ao-14" stroke="#2D2D2D" width="75" x="655.25002" y="290.25002"/>
  <rect fill="#FFEBA2" height="27.5" id="cd31f951eaf047e798b839304ab4d2fb-ao-15" stroke="#2D2D2D" width="115" x="630.25002" y="372.75002"/>
  <rect class="qshape" fill="#FF7E7E" height="27.5" id="cd31f951eaf047e798b839304ab4d2fb-ao-16" stroke="#2D2D2D" width="72.5" x="662.75002" y="472.75002"/>
  <rect fill="#FFEBA2" height="25" id="cd31f951eaf047e798b839304ab4d2fb-ao-17" stroke="#2D2D2D" width="87.5" x="620.25002" y="594.00002"/>
  <rect fill="#FFEBA2" height="27.5" id="cd31f951eaf047e798b839304ab4d2fb-ao-18" stroke="#2D2D2D" width="67.5" x="595.25002" y="679.00002"/>
  <rect fill="#FFEBA2" height="30" id="cd31f951eaf047e798b839304ab4d2fb-ao-19" stroke="#2D2D2D" width="175" x="305.25002" y="496.50002"/>
  <rect fill="#FFEBA2" height="27.5" id="cd31f951eaf047e798b839304ab4d2fb-ao-20" stroke="#2D2D2D" width="240" x="1017.75003" y="406.50002"/>
  <rect fill="#FFEBA2" height="25" id="cd31f951eaf047e798b839304ab4d2fb-ao-21" stroke="#2D2D2D" width="187.5" x="1040.25003" y="451.50002"/>
  <rect fill="#FFEBA2" height="27.5" id="cd31f951eaf047e798b839304ab4d2fb-ao-22" stroke="#2D2D2D" width="257.5" x="995.25003" y="539.00002"/>
  <rect fill="#FFEBA2" height="27.5" id="cd31f951eaf047e798b839304ab4d2fb-ao-23" stroke="#2D2D2D" width="237.5" x="935.25003" y="711.50002"/>
  <rect fill="#FFEBA2" height="27.5" id="cd31f951eaf047e798b839304ab4d2fb-ao-24" stroke="#2D2D2D" width="235" x="902.75003" y="786.50003"/>
  <rect fill="#FFEBA2" height="27.5" id="cd31f951eaf047e798b839304ab4d2fb-ao-25" stroke="#2D2D2D" width="215" x="825.25003" y="851.50003"/>
  <rect fill="#FFEBA2" height="27.5" id="cd31f951eaf047e798b839304ab4d2fb-ao-26" stroke="#2D2D2D" width="260" x="530.25002" y="956.50003"/>
  <rect fill="#FFEBA2" height="27.5" id="cd31f951eaf047e798b839304ab4d2fb-ao-27" stroke="#2D2D2D" width="280" x="505.25002" y="1004.00003"/>
  <rect fill="#FFEBA2" height="25" id="cd31f951eaf047e798b839304ab4d2fb-ao-28" stroke="#2D2D2D" width="282.5" x="360.25002" y="1051.50003"/>
  <rect fill="#FFEBA2" height="27.5" id="cd31f951eaf047e798b839304ab4d2fb-ao-29" stroke="#2D2D2D" width="182.5" x="100.25002" y="1174.00003"/>
 </g>
</svg>