<svg height="1560.9999999999998" width="1535" xmlns="http://www.w3.org/2000/svg">
 <!-- Created with Image Occlusion Enhanced -->
 <g>
  <title>Labels</title>
 </g>
 <g>
  <title>Masks</title>
  <rect fill="#FFEBA2" height="28.57143" id="cdf3d40bcb5744369fa50c201941f933-ao-1" stroke="#2D2D2D" width="162.85715" x="254.99998" y="31.85721"/>
  <rect class="qshape" fill="#FF7E7E" height="48.57143" id="cdf3d40bcb5744369fa50c201941f933-ao-2" stroke="#2D2D2D" width="200.00001" x="237.85712" y="69.00007"/>
  <rect fill="#FFEBA2" height="31.42857" id="cdf3d40bcb5744369fa50c201941f933-ao-3" stroke="#2D2D2D" width="171.42858" x="294.99998" y="131.85722"/>
  <rect fill="#FFEBA2" height="100" id="cdf3d40bcb5744369fa50c201941f933-ao-4" stroke="#2D2D2D" width="225.7143" x="249.28569" y="203.28579"/>
  <rect fill="#FFEBA2" height="48.57143" id="cdf3d40bcb5744369fa50c201941f933-ao-5" stroke="#2D2D2D" width="257.14287" x="197.85712" y="349.00009"/>
  <rect fill="#FFEBA2" height="28.57143" id="cdf3d40bcb5744369fa50c201941f933-ao-6" stroke="#2D2D2D" width="185.71429" x="280.71426" y="437.57152"/>
  <rect fill="#FFEBA2" height="94.28572" id="cdf3d40bcb5744369fa50c201941f933-ao-7" stroke="#2D2D2D" width="282.85716" x="186.42855" y="554.71438"/>
  <rect fill="#FFEBA2" height="71.42857" id="cdf3d40bcb5744369fa50c201941f933-ao-8" stroke="#2D2D2D" width="160.00001" x="332.14284" y="734.71439"/>
  <g id="cdf3d40bcb5744369fa50c201941f933-ao-9">
   <rect fill="#FFEBA2" height="68.57143" stroke="#2D2D2D" width="97.14286" x="157.85712" y="911.85725"/>
   <rect fill="#FFEBA2" height="31.42857" stroke="#2D2D2D" width="25.71429" x="363.57141" y="851.85725"/>
   <rect fill="#FFEBA2" height="31.42857" stroke="#2D2D2D" width="28.57143" x="274.99998" y="943.28583"/>
   <rect fill="#FFEBA2" height="25.71429" stroke="#2D2D2D" width="31.42857" x="277.85712" y="1014.7144"/>
  </g>
  <rect fill="#FFEBA2" height="51.42857" id="cdf3d40bcb5744369fa50c201941f933-ao-10" stroke="#2D2D2D" width="148.57144" x="189.28569" y="1077.57155"/>
  <g id="cdf3d40bcb5744369fa50c201941f933-ao-11">
   <rect fill="#FFEBA2" height="68.57143" stroke="#2D2D2D" width="71.42857" x="160.71426" y="1171.85726"/>
   <rect fill="#FFEBA2" height="31.42857" stroke="#2D2D2D" width="28.57143" x="260.71426" y="1171.85726"/>
   <rect fill="#FFEBA2" height="28.57143" stroke="#2D2D2D" width="31.42857" x="263.57141" y="1220.4287"/>
  </g>
  <g id="cdf3d40bcb5744369fa50c201941f933-ao-12">
   <rect fill="#FFEBA2" height="74.28572" stroke="#2D2D2D" width="74.28572" x="160.71426" y="1314.71441"/>
   <rect fill="#FFEBA2" height="28.57143" stroke="#2D2D2D" width="31.42857" x="269.28569" y="1280.4287"/>
   <rect fill="#FFEBA2" height="28.57143" stroke="#2D2D2D" width="31.42857" x="274.99998" y="1311.85727"/>
   <rect fill="#FFEBA2" height="25.71429" stroke="#2D2D2D" width="28.57143" x="277.85712" y="1366.14299"/>
   <rect fill="#FFEBA2" height="25.71429" stroke="#2D2D2D" width="34.28572" x="383.57141" y="1397.57156"/>
   <rect fill="#FFEBA2" height="28.57143" stroke="#2D2D2D" width="34.28572" x="429.2857" y="1357.57156"/>
  </g>
  <rect fill="#FFEBA2" height="28.57143" id="cdf3d40bcb5744369fa50c201941f933-ao-13" stroke="#2D2D2D" width="148.57144" x="234.99998" y="1506.14299"/>
  <rect fill="#FFEBA2" height="45.71429" id="cdf3d40bcb5744369fa50c201941f933-ao-14" stroke="#2D2D2D" width="131.42858" x="569.28571" y="1109.00012"/>
  <rect fill="#FFEBA2" height="48.57143" id="cdf3d40bcb5744369fa50c201941f933-ao-15" stroke="#2D2D2D" width="128.57143" x="500.71427" y="1197.57155"/>
  <rect fill="#FFEBA2" height="48.57143" id="cdf3d40bcb5744369fa50c201941f933-ao-16" stroke="#2D2D2D" width="125.71429" x="660.71428" y="1200.42869"/>
  <rect fill="#FFEBA2" height="28.57143" id="cdf3d40bcb5744369fa50c201941f933-ao-17" stroke="#2D2D2D" width="160.00001" x="557.85713" y="1509.00014"/>
  <rect fill="#FFEBA2" height="42.85714" id="cdf3d40bcb5744369fa50c201941f933-ao-18" stroke="#2D2D2D" width="148.57144" x="720.71428" y="871.85725"/>
  <rect fill="#FFEBA2" height="65.71429" id="cdf3d40bcb5744369fa50c201941f933-ao-19" stroke="#2D2D2D" width="91.42858" x="1277.85717" y="1014.7144"/>
  <rect fill="#FFEBA2" height="31.42857" id="cdf3d40bcb5744369fa50c201941f933-ao-20" stroke="#2D2D2D" width="54.28572" x="935.00001" y="923.28583"/>
  <rect fill="#FFEBA2" height="28.57143" id="cdf3d40bcb5744369fa50c201941f933-ao-21" stroke="#2D2D2D" width="37.14286" x="1026.42858" y="960.42868"/>
  <rect fill="#FFEBA2" height="25.71429" id="cdf3d40bcb5744369fa50c201941f933-ao-22" stroke="#2D2D2D" width="248.57144" x="983.57144" y="1000.42869"/>
  <rect fill="#FFEBA2" height="25.71429" id="cdf3d40bcb5744369fa50c201941f933-ao-23" stroke="#2D2D2D" width="171.42858" x="1003.57144" y="1037.57154"/>
  <g id="cdf3d40bcb5744369fa50c201941f933-ao-24">
   <rect fill="#FFEBA2" height="45.71429" stroke="#2D2D2D" width="77.14286" x="1143.57145" y="1126.14298"/>
   <rect fill="#FFEBA2" height="28.57143" stroke="#2D2D2D" width="34.28572" x="1089.28573" y="1106.14298"/>
   <rect fill="#FFEBA2" height="28.57143" stroke="#2D2D2D" width="34.28572" x="1080.7143" y="1169.00012"/>
  </g>
  <g id="cdf3d40bcb5744369fa50c201941f933-ao-25">
   <rect fill="#FFEBA2" height="71.42857" stroke="#2D2D2D" stroke-dasharray="null" stroke-linecap="null" stroke-linejoin="null" width="80" x="1149.28573" y="1289.00013"/>
   <rect fill="#FFEBA2" height="28.57143" stroke="#2D2D2D" stroke-dasharray="null" stroke-linecap="null" stroke-linejoin="null" width="34.28572" x="1049.28573" y="1217.57155"/>
   <rect fill="#FFEBA2" height="28.57143" stroke="#2D2D2D" stroke-dasharray="null" stroke-linecap="null" stroke-linejoin="null" width="51.42857" x="1046.42858" y="1254.71441"/>
   <rect fill="#FFEBA2" height="28.57143" stroke="#2D2D2D" stroke-dasharray="null" stroke-linecap="null" stroke-linejoin="null" width="31.42857" x="1057.85716" y="1366.14299"/>
   <rect fill="#FFEBA2" height="28.57143" stroke="#2D2D2D" stroke-dasharray="null" stroke-linecap="null" stroke-linejoin="null" width="42.85714" x="943.57144" y="1394.71442"/>
  </g>
  <rect fill="#FFEBA2" height="28.57143" id="cdf3d40bcb5744369fa50c201941f933-ao-26" stroke="#2D2D2D" stroke-dasharray="null" stroke-linecap="null" stroke-linejoin="null" width="168.57144" x="980.7143" y="1506.14299"/>
 </g>
</svg>