<svg height="799" width="1289" xmlns="http://www.w3.org/2000/svg">
 <!-- Created with Image Occlusion Enhanced -->
 <g>
  <title>Labels</title>
 </g>
 <g>
  <title>Masks</title>
  <rect fill="#FFEBA2" height="28.57143" id="ce8a68726226410fa1989ba442e8b4f4-ao-1" stroke="#2D2D2D" width="385.71429" x="638.14288" y="46.7143"/>
  <rect fill="#FFEBA2" height="28.57143" id="ce8a68726226410fa1989ba442e8b4f4-ao-2" stroke="#2D2D2D" width="254.28572" x="678.14288" y="95.28573"/>
  <rect fill="#FFEBA2" height="28.57143" id="ce8a68726226410fa1989ba442e8b4f4-ao-3" stroke="#2D2D2D" width="162.85715" x="241.00002" y="112.42859"/>
  <rect fill="#FFEBA2" height="25.71429" id="ce8a68726226410fa1989ba442e8b4f4-ao-4" stroke="#2D2D2D" width="328.57144" x="769.57146" y="152.42859"/>
  <rect fill="#FFEBA2" height="74.28572" id="ce8a68726226410fa1989ba442e8b4f4-ao-5" stroke="#2D2D2D" width="180" x="26.7143" y="172.42859"/>
  <rect fill="#FFEBA2" height="28.57143" id="ce8a68726226410fa1989ba442e8b4f4-ao-6" stroke="#2D2D2D" width="217.14286" x="863.85717" y="195.28574"/>
  <rect fill="#FFEBA2" height="42.85714" id="ce8a68726226410fa1989ba442e8b4f4-ao-7" stroke="#2D2D2D" width="225.71429" x="1032.42861" y="258.14288"/>
  <rect fill="#FFEBA2" height="31.42857" id="ce8a68726226410fa1989ba442e8b4f4-ao-8" stroke="#2D2D2D" width="148.57143" x="98.14287" y="289.57145"/>
  <rect fill="#FFEBA2" height="25.71429" id="ce8a68726226410fa1989ba442e8b4f4-ao-9" stroke="#2D2D2D" width="197.14286" x="41.00001" y="352.4286"/>
  <rect fill="#FFEBA2" height="45.71429" id="ce8a68726226410fa1989ba442e8b4f4-ao-10" stroke="#2D2D2D" width="134.28572" x="1038.14289" y="355.28574"/>
  <rect fill="#FFEBA2" height="28.57143" id="ce8a68726226410fa1989ba442e8b4f4-ao-11" stroke="#2D2D2D" width="205.71429" x="35.28573" y="418.14288"/>
  <rect fill="#FFEBA2" height="48.57143" id="ce8a68726226410fa1989ba442e8b4f4-ao-12" stroke="#2D2D2D" width="197.14286" x="1035.28575" y="438.14288"/>
  <rect fill="#FFEBA2" height="31.42857" id="ce8a68726226410fa1989ba442e8b4f4-ao-13" stroke="#2D2D2D" width="137.14286" x="138.14287" y="489.57146"/>
  <rect fill="#FFEBA2" height="28.57143" id="ce8a68726226410fa1989ba442e8b4f4-ao-14" stroke="#2D2D2D" width="262.85715" x="26.7143" y="558.14289"/>
  <rect fill="#FFEBA2" height="68.57143" id="ce8a68726226410fa1989ba442e8b4f4-ao-15" stroke="#2D2D2D" width="300.00001" x="835.28574" y="578.14289"/>
  <rect fill="#FFEBA2" height="48.57143" id="ce8a68726226410fa1989ba442e8b4f4-ao-16" stroke="#2D2D2D" width="177.14286" x="81.00001" y="623.85717"/>
  <rect fill="#FFEBA2" height="25.71429" id="ce8a68726226410fa1989ba442e8b4f4-ao-17" stroke="#2D2D2D" width="122.85715" x="495.28574" y="649.57146"/>
  <rect class="qshape" fill="#FF7E7E" height="31.42857" id="ce8a68726226410fa1989ba442e8b4f4-ao-18" stroke="#2D2D2D" width="211.42858" x="781.00003" y="675.28575"/>
  <rect fill="#FFEBA2" height="25.71429" id="ce8a68726226410fa1989ba442e8b4f4-ao-19" stroke="#2D2D2D" width="142.85715" x="515.28574" y="706.71432"/>
  <rect fill="#FFEBA2" height="45.71429" id="ce8a68726226410fa1989ba442e8b4f4-ao-20" stroke="#2D2D2D" width="237.14286" x="146.7143" y="715.28575"/>
 </g>
</svg>