<svg height="1248" width="910" xmlns="http://www.w3.org/2000/svg">
 <!-- Created with Image Occlusion Enhanced -->
 <g>
  <title>Labels</title>
 </g>
 <g>
  <title>Masks</title>
  
  <rect fill="#FFEBA2" height="75" id="d128c47be9a64f048586e50ac4d014b2-ao-2" stroke="#2D2D2D" width="135" x="31.25" y="48.24995"/>
  <rect fill="#FFEBA2" height="22.5" id="d128c47be9a64f048586e50ac4d014b2-ao-3" stroke="#2D2D2D" width="187.5" x="641.25" y="83.24995"/>
  <rect fill="#FFEBA2" height="27.5" id="d128c47be9a64f048586e50ac4d014b2-ao-4" stroke="#2D2D2D" width="90" x="638.75" y="123.24995"/>
  <rect fill="#FFEBA2" height="20" id="d128c47be9a64f048586e50ac4d014b2-ao-5" stroke="#2D2D2D" width="230" x="638.75" y="168.24995"/>
  <rect fill="#FFEBA2" height="45" id="d128c47be9a64f048586e50ac4d014b2-ao-6" stroke="#2D2D2D" width="117.5" x="31.25" y="170.74995"/>
  <rect fill="#FFEBA2" height="22.5" id="d128c47be9a64f048586e50ac4d014b2-ao-7" stroke="#2D2D2D" width="80" x="633.75" y="205.74995"/>
  <rect fill="#FFEBA2" height="27.5" id="d128c47be9a64f048586e50ac4d014b2-ao-8" stroke="#2D2D2D" width="217.5" x="616.25" y="248.24995"/>
  <rect fill="#FFEBA2" height="47.5" id="d128c47be9a64f048586e50ac4d014b2-ao-9" stroke="#2D2D2D" width="142.5" x="23.75" y="268.24995"/>
  <rect fill="#FFEBA2" height="27.5" id="d128c47be9a64f048586e50ac4d014b2-ao-10" stroke="#2D2D2D" width="157.5" x="608.75" y="290.74995"/>
  <rect fill="#FFEBA2" height="67.5" id="d128c47be9a64f048586e50ac4d014b2-ao-11" stroke="#2D2D2D" width="140" x="36.25" y="345.74995"/>
  <rect fill="#FFEBA2" height="27.5" id="d128c47be9a64f048586e50ac4d014b2-ao-12" stroke="#2D2D2D" width="210" x="601.25" y="328.24995"/>
  <rect fill="#FFEBA2" height="25" id="d128c47be9a64f048586e50ac4d014b2-ao-13" stroke="#2D2D2D" width="220" x="586.25" y="373.24995"/>
  <rect fill="#FFEBA2" height="50" id="d128c47be9a64f048586e50ac4d014b2-ao-14" stroke="#2D2D2D" width="100" x="31.25" y="543.24995"/>
  <rect fill="#FFEBA2" height="45" id="d128c47be9a64f048586e50ac4d014b2-ao-15" stroke="#2D2D2D" width="107.5" x="38.75" y="669.49995"/>
  <rect fill="#FFEBA2" height="50" id="d128c47be9a64f048586e50ac4d014b2-ao-16" stroke="#2D2D2D" width="177.5" x="36.25" y="756.99995"/>
  <rect fill="#FFEBA2" height="52.5" id="d128c47be9a64f048586e50ac4d014b2-ao-17" stroke="#2D2D2D" width="265" x="36.25" y="929.49995"/>
  <rect fill="#FFEBA2" height="27.5" id="d128c47be9a64f048586e50ac4d014b2-ao-18" stroke="#2D2D2D" width="75" x="351.25" y="1059.49995"/>
  <rect fill="#FFEBA2" height="30" id="d128c47be9a64f048586e50ac4d014b2-ao-19" stroke="#2D2D2D" width="75" x="353.75" y="1131.99995"/>
 </g>
</svg>