<svg height="1514" width="1535.9999999999998" xmlns="http://www.w3.org/2000/svg">
 <!-- Created with Image Occlusion Enhanced -->
 <g>
  <title>Labels</title>
 </g>
 <g>
  <title>Masks</title>
  <rect fill="#FFEBA2" height="31.42857" id="d24657370d4f41eab2de41d397c9363c-ao-1" stroke="#2D2D2D" width="134.28572" x="1022.57154" y="34.57129"/>
  <rect class="qshape" fill="#FF7E7E" height="28.57143" id="d24657370d4f41eab2de41d397c9363c-ao-2" stroke="#2D2D2D" width="211.42858" x="234.00008" y="65.99986"/>
  <rect fill="#FFEBA2" height="28.57143" id="d24657370d4f41eab2de41d397c9363c-ao-3" stroke="#2D2D2D" width="231.42858" x="168.28579" y="208.85701"/>
  <rect fill="#FFEBA2" height="28.57143" id="d24657370d4f41eab2de41d397c9363c-ao-4" stroke="#2D2D2D" width="148.57144" x="1156.85727" y="280.28559"/>
  <rect fill="#FFEBA2" height="25.71429" id="d24657370d4f41eab2de41d397c9363c-ao-5" stroke="#2D2D2D" width="217.14287" x="1154.00012" y="448.85702"/>
  <rect fill="#FFEBA2" height="28.57143" id="d24657370d4f41eab2de41d397c9363c-ao-6" stroke="#2D2D2D" width="134.28572" x="214.00008" y="500.2856"/>
  <g id="d24657370d4f41eab2de41d397c9363c-ao-7">
   <rect fill="#FFEBA2" height="97.14286" stroke="#2D2D2D" width="114.28572" x="1274.00013" y="588.85703"/>
   <rect fill="#FFEBA2" height="51.42857" stroke="#2D2D2D" width="74.28572" x="1142.57155" y="508.85703"/>
   <rect fill="#FFEBA2" height="74.28572" stroke="#2D2D2D" width="108.57143" x="1142.57155" y="585.99989"/>
   <rect fill="#FFEBA2" height="71.42857" stroke="#2D2D2D" width="108.57143" x="1142.57155" y="685.99989"/>
  </g>
  <rect fill="#FFEBA2" height="28.57143" id="d24657370d4f41eab2de41d397c9363c-ao-8" stroke="#2D2D2D" width="131.42858" x="216.85722" y="574.57132"/>
  <rect fill="#FFEBA2" height="31.42857" id="d24657370d4f41eab2de41d397c9363c-ao-9" stroke="#2D2D2D" width="182.85715" x="171.14293" y="648.85703"/>
  <rect fill="#FFEBA2" height="28.57143" id="d24657370d4f41eab2de41d397c9363c-ao-10" stroke="#2D2D2D" width="148.57144" x="202.57151" y="723.14275"/>
  <rect fill="#FFEBA2" height="28.57143" id="d24657370d4f41eab2de41d397c9363c-ao-11" stroke="#2D2D2D" width="165.71429" x="174.00008" y="797.42847"/>
  <rect fill="#FFEBA2" height="51.42857" id="d24657370d4f41eab2de41d397c9363c-ao-12" stroke="#2D2D2D" width="200.00001" x="1168.28584" y="797.42847"/>
  <rect fill="#FFEBA2" height="31.42857" id="d24657370d4f41eab2de41d397c9363c-ao-13" stroke="#2D2D2D" width="194.28572" x="1174.00012" y="874.57133"/>
  <rect fill="#FFEBA2" height="28.57143" id="d24657370d4f41eab2de41d397c9363c-ao-14" stroke="#2D2D2D" width="200.00001" x="151.14293" y="888.85704"/>
  <rect fill="#FFEBA2" height="31.42857" id="d24657370d4f41eab2de41d397c9363c-ao-15" stroke="#2D2D2D" width="180.00001" x="1188.28584" y="937.42847"/>
  <rect fill="#FFEBA2" height="31.42857" id="d24657370d4f41eab2de41d397c9363c-ao-16" stroke="#2D2D2D" width="191.42858" x="148.28579" y="957.42848"/>
  <rect fill="#FFEBA2" height="28.57143" id="d24657370d4f41eab2de41d397c9363c-ao-17" stroke="#2D2D2D" width="191.42858" x="1185.4287" y="1000.28562"/>
  <rect fill="#FFEBA2" height="31.42857" id="d24657370d4f41eab2de41d397c9363c-ao-18" stroke="#2D2D2D" width="191.42858" x="151.14293" y="1034.57134"/>
  <rect fill="#FFEBA2" height="74.28572" id="d24657370d4f41eab2de41d397c9363c-ao-19" stroke="#2D2D2D" width="94.28572" x="214.00008" y="1100.28563"/>
  <rect fill="#FFEBA2" height="122.85715" id="d24657370d4f41eab2de41d397c9363c-ao-20" stroke="#2D2D2D" width="194.28572" x="1202.57155" y="1100.28563"/>
  <rect fill="#FFEBA2" height="100" id="d24657370d4f41eab2de41d397c9363c-ao-21" stroke="#2D2D2D" width="168.57144" x="145.42865" y="1211.7142"/>
  <rect fill="#FFEBA2" height="77.14286" id="d24657370d4f41eab2de41d397c9363c-ao-22" stroke="#2D2D2D" width="88.57143" x="191.14294" y="1377.42849"/>
 </g>
</svg>