<svg height="800" width="1244" xmlns="http://www.w3.org/2000/svg">
 <!-- Created with Image Occlusion Enhanced -->
 <g>
  <title>Labels</title>
 </g>
 <g>
  <title>Masks</title>
  <rect fill="#FFEBA2" height="28.57143" id="d35d0f71f897469f9036cd8e7b468b46-ao-1" stroke="#2D2D2D" width="208.57143" x="550.28574" y="2.85714"/>
  <rect fill="#FFEBA2" height="25.71429" id="d35d0f71f897469f9036cd8e7b468b46-ao-2" stroke="#2D2D2D" width="185.71429" x="247.42859" y="-0.00001"/>
  <rect fill="#FFEBA2" height="28.57143" id="d35d0f71f897469f9036cd8e7b468b46-ao-3" stroke="#2D2D2D" width="220" x="570.28574" y="37.14285"/>
  <rect fill="#FFEBA2" height="25.71429" id="d35d0f71f897469f9036cd8e7b468b46-ao-4" stroke="#2D2D2D" width="202.85715" x="221.71431" y="48.57142"/>
  <rect class="qshape" fill="#FF7E7E" height="22.85714" id="d35d0f71f897469f9036cd8e7b468b46-ao-5" stroke="#2D2D2D" width="185.71429" x="593.14288" y="77.14285"/>
  <rect fill="#FFEBA2" height="54.28572" id="d35d0f71f897469f9036cd8e7b468b46-ao-6" stroke="#2D2D2D" width="360.00001" x="50.28573" y="88.57142"/>
  <rect fill="#FFEBA2" height="25.71429" id="d35d0f71f897469f9036cd8e7b468b46-ao-7" stroke="#2D2D2D" width="225.71429" x="644.57146" y="111.42857"/>
  <rect fill="#FFEBA2" height="25.71429" id="d35d0f71f897469f9036cd8e7b468b46-ao-8" stroke="#2D2D2D" width="137.14286" x="913.14289" y="122.85714"/>
  <rect fill="#FFEBA2" height="25.71429" id="d35d0f71f897469f9036cd8e7b468b46-ao-9" stroke="#2D2D2D" width="191.42857" x="1004.57146" y="177.14285"/>
  <rect fill="#FFEBA2" height="85.71429" id="d35d0f71f897469f9036cd8e7b468b46-ao-10" stroke="#2D2D2D" width="177.14286" x="53.14288" y="160"/>
  <rect fill="#FFEBA2" height="48.57143" id="d35d0f71f897469f9036cd8e7b468b46-ao-11" stroke="#2D2D2D" width="200" x="1007.4286" y="222.85714"/>
  <rect fill="#FFEBA2" height="51.42857" id="d35d0f71f897469f9036cd8e7b468b46-ao-12" stroke="#2D2D2D" width="162.85715" x="50.28573" y="257.14286"/>
  <rect fill="#FFEBA2" height="54.28572" id="d35d0f71f897469f9036cd8e7b468b46-ao-13" stroke="#2D2D2D" width="182.85715" x="1010.28575" y="288.57143"/>
  <rect fill="#FFEBA2" height="51.42857" id="d35d0f71f897469f9036cd8e7b468b46-ao-14" stroke="#2D2D2D" width="125.71429" x="50.28573" y="320"/>
  <rect fill="#FFEBA2" height="28.57143" id="d35d0f71f897469f9036cd8e7b468b46-ao-15" stroke="#2D2D2D" width="228.57143" x="958.85717" y="405.71429"/>
  <rect fill="#FFEBA2" height="54.28572" id="d35d0f71f897469f9036cd8e7b468b46-ao-16" stroke="#2D2D2D" width="185.71429" x="50.28573" y="385.71429"/>
  <rect fill="#FFEBA2" height="28.57143" id="d35d0f71f897469f9036cd8e7b468b46-ao-17" stroke="#2D2D2D" width="91.42857" x="976.00003" y="468.57143"/>
  <rect fill="#FFEBA2" height="74.28572" id="d35d0f71f897469f9036cd8e7b468b46-ao-18" stroke="#2D2D2D" width="131.42857" x="50.28573" y="454.28572"/>
  <rect fill="#FFEBA2" height="48.57143" id="d35d0f71f897469f9036cd8e7b468b46-ao-19" stroke="#2D2D2D" width="162.85715" x="47.42859" y="548.57143"/>
  <rect fill="#FFEBA2" height="22.85714" id="d35d0f71f897469f9036cd8e7b468b46-ao-20" stroke="#2D2D2D" width="197.14286" x="841.71431" y="631.42857"/>
  <rect fill="#FFEBA2" height="31.42857" id="d35d0f71f897469f9036cd8e7b468b46-ao-21" stroke="#2D2D2D" width="168.57143" x="50.28573" y="665.71429"/>
  <rect fill="#FFEBA2" height="28.57143" id="d35d0f71f897469f9036cd8e7b468b46-ao-22" stroke="#2D2D2D" width="340" x="810.28574" y="680"/>
  <rect fill="#FFEBA2" height="25.71429" id="d35d0f71f897469f9036cd8e7b468b46-ao-23" stroke="#2D2D2D" width="237.14286" x="50.28573" y="711.42858"/>
  <rect fill="#FFEBA2" height="28.57143" id="d35d0f71f897469f9036cd8e7b468b46-ao-24" stroke="#2D2D2D" width="300" x="44.57145" y="757.14286"/>
 </g>
</svg>