<svg height="1083" width="1182" xmlns="http://www.w3.org/2000/svg">
 <!-- Created with Image Occlusion Enhanced -->
 <g>
  <title>Labels</title>
 </g>
 <g>
  <title>Masks</title>
  <rect fill="#FFEBA2" height="31.42857" id="d41ca50497c9481c83a6c905ddf9f9f9-ao-1" stroke="#2D2D2D" width="202.85715" x="83.71422" y="32.71432"/>
  <rect fill="#FFEBA2" height="48.57143" id="d41ca50497c9481c83a6c905ddf9f9f9-ao-2" stroke="#2D2D2D" width="102.85715" x="397.99994" y="35.57146"/>
  <rect fill="#FFEBA2" height="77.14286" id="d41ca50497c9481c83a6c905ddf9f9f9-ao-3" stroke="#2D2D2D" width="91.42857" x="80.85707" y="118.42861"/>
  <rect fill="#FFEBA2" height="28.57143" id="d41ca50497c9481c83a6c905ddf9f9f9-ao-4" stroke="#2D2D2D" width="148.57143" x="675.14281" y="178.42861"/>
  <rect fill="#FFEBA2" height="31.42857" id="d41ca50497c9481c83a6c905ddf9f9f9-ao-5" stroke="#2D2D2D" width="214.28572" x="686.57138" y="221.28576"/>
  <rect fill="#FFEBA2" height="82.85715" id="d41ca50497c9481c83a6c905ddf9f9f9-ao-6" stroke="#2D2D2D" width="111.42858" x="75.14279" y="249.85719"/>
  <rect fill="#FFEBA2" height="31.42857" id="d41ca50497c9481c83a6c905ddf9f9f9-ao-7" stroke="#2D2D2D" width="197.14286" x="689.42852" y="261.28576"/>
  <rect fill="#FFEBA2" height="25.71429" id="d41ca50497c9481c83a6c905ddf9f9f9-ao-8" stroke="#2D2D2D" width="191.42858" x="683.71424" y="309.85719"/>
  <rect fill="#FFEBA2" height="48.57143" id="d41ca50497c9481c83a6c905ddf9f9f9-ao-9" stroke="#2D2D2D" width="217.14286" x="663.71424" y="381.28576"/>
  <rect fill="#FFEBA2" height="71.42857" id="d41ca50497c9481c83a6c905ddf9f9f9-ao-10" stroke="#2D2D2D" width="105.71429" x="75.14279" y="384.1429"/>
  <rect fill="#FFEBA2" height="94.28572" id="d41ca50497c9481c83a6c905ddf9f9f9-ao-11" stroke="#2D2D2D" width="108.57143" x="437.99994" y="424.14291"/>
  <rect fill="#FFEBA2" height="54.28572" id="d41ca50497c9481c83a6c905ddf9f9f9-ao-12" stroke="#2D2D2D" width="125.71429" x="77.99993" y="509.85719"/>
  <rect fill="#FFEBA2" height="51.42857" id="d41ca50497c9481c83a6c905ddf9f9f9-ao-13" stroke="#2D2D2D" width="122.85715" x="397.99994" y="535.57148"/>
  <rect fill="#FFEBA2" height="34.28572" id="d41ca50497c9481c83a6c905ddf9f9f9-ao-14" stroke="#2D2D2D" width="157.14286" x="663.71424" y="527.00005"/>
  <rect fill="#FFEBA2" height="31.42857" id="d41ca50497c9481c83a6c905ddf9f9f9-ao-15" stroke="#2D2D2D" width="168.57143" x="666.57138" y="595.57148"/>
  <rect fill="#FFEBA2" height="48.57143" id="d41ca50497c9481c83a6c905ddf9f9f9-ao-16" stroke="#2D2D2D" width="122.85715" x="337.99994" y="604.14291"/>
  <rect fill="#FFEBA2" height="77.14286" id="d41ca50497c9481c83a6c905ddf9f9f9-ao-17" stroke="#2D2D2D" width="151.42858" x="80.85707" y="618.42863"/>
  <rect fill="#FFEBA2" height="45.71429" id="d41ca50497c9481c83a6c905ddf9f9f9-ao-18" stroke="#2D2D2D" width="217.14286" x="663.71424" y="669.8572"/>
  <rect fill="#FFEBA2" height="31.42857" id="d41ca50497c9481c83a6c905ddf9f9f9-ao-19" stroke="#2D2D2D" width="214.28572" x="257.99994" y="849.85721"/>
  <rect fill="#FFEBA2" height="31.42857" id="d41ca50497c9481c83a6c905ddf9f9f9-ao-20" stroke="#2D2D2D" width="254.28572" x="735.14281" y="907.00006"/>
  <rect fill="#FFEBA2" height="31.42857" id="d41ca50497c9481c83a6c905ddf9f9f9-ao-21" stroke="#2D2D2D" width="231.42858" x="200.85708" y="929.85721"/>
  <rect class="qshape" fill="#FF7E7E" height="31.42857" id="d41ca50497c9481c83a6c905ddf9f9f9-ao-22" stroke="#2D2D2D" width="174.28572" x="755.14281" y="989.85721"/>
 </g>
</svg>