<svg height="487" width="1202" xmlns="http://www.w3.org/2000/svg">
 <!-- Created with Image Occlusion Enhanced -->
 <g>
  <title>Labels</title>
 </g>
 <g>
  <title>Masks</title>
  <rect fill="#FFEBA2" height="25" id="d43554df1741426586187b329fcb663a-ao-1" stroke="#2D2D2D" width="502.50001" x="683.00005" y="1.74998"/>
  <rect fill="#FFEBA2" height="27.5" id="d43554df1741426586187b329fcb663a-ao-2" stroke="#2D2D2D" width="102.5" x="703.00005" y="29.24998"/>
  <rect fill="#FFEBA2" height="22.5" id="d43554df1741426586187b329fcb663a-ao-3" stroke="#2D2D2D" width="400.00001" x="728.00005" y="61.74998"/>
  <rect fill="#FFEBA2" height="47.5" id="d43554df1741426586187b329fcb663a-ao-4" stroke="#2D2D2D" width="217.50001" x="78.00003" y="96.74998"/>
  <rect fill="#FFEBA2" height="27.5" id="d43554df1741426586187b329fcb663a-ao-5" stroke="#2D2D2D" width="370.00001" x="790.50005" y="91.74998"/>
  
  <rect fill="#FFEBA2" height="25" id="d43554df1741426586187b329fcb663a-ao-7" stroke="#2D2D2D" width="140" x="150.50003" y="156.74999"/>
  <rect fill="#FFEBA2" height="25" id="d43554df1741426586187b329fcb663a-ao-8" stroke="#2D2D2D" width="132.5" x="860.50005" y="164.24999"/>
  <rect fill="#FFEBA2" height="45" id="d43554df1741426586187b329fcb663a-ao-9" stroke="#2D2D2D" width="242.50001" x="43.00003" y="194.24999"/>
  <rect fill="#FFEBA2" height="22.5" id="d43554df1741426586187b329fcb663a-ao-10" stroke="#2D2D2D" width="65" x="865.50005" y="211.74999"/>
  <rect fill="#FFEBA2" height="27.5" id="d43554df1741426586187b329fcb663a-ao-11" stroke="#2D2D2D" width="100" x="180.50004" y="251.74999"/>
  <rect fill="#FFEBA2" height="42.5" id="d43554df1741426586187b329fcb663a-ao-12" stroke="#2D2D2D" width="167.5" x="855.50005" y="246.74999"/>
  <rect fill="#FFEBA2" height="25" id="d43554df1741426586187b329fcb663a-ao-13" stroke="#2D2D2D" width="62.5" x="215.50004" y="291.74999"/>
  <rect fill="#FFEBA2" height="42.5" id="d43554df1741426586187b329fcb663a-ao-14" stroke="#2D2D2D" width="217.50001" x="845.50005" y="304.24999"/>
  <rect fill="#FFEBA2" height="47.5" id="d43554df1741426586187b329fcb663a-ao-15" stroke="#2D2D2D" width="177.5" x="70.50003" y="326.74999"/>
  <rect fill="#FFEBA2" height="47.5" id="d43554df1741426586187b329fcb663a-ao-16" stroke="#2D2D2D" width="225.00001" x="838.00005" y="361.74999"/>
  <rect fill="#FFEBA2" height="22.5" id="d43554df1741426586187b329fcb663a-ao-17" stroke="#2D2D2D" width="150" x="135.50003" y="386.74999"/>
  <rect fill="#FFEBA2" height="35" id="d43554df1741426586187b329fcb663a-ao-18" stroke="#2D2D2D" width="242.50001" x="838.00005" y="424.24999"/>
 </g>
</svg>