<svg height="873" width="1301" xmlns="http://www.w3.org/2000/svg">
 <!-- Created with Image Occlusion Enhanced -->
 <g>
  <title>Labels</title>
 </g>
 <g>
  <title>Masks</title>
  <rect fill="#FFEBA2" height="25.64103" id="d58677c445784556add24ab3644477ab-ao-1" stroke="#2D2D2D" width="138.46154" x="41.30764" y="109.05128"/>
  <rect fill="#FFEBA2" height="46.15385" id="d58677c445784556add24ab3644477ab-ao-2" stroke="#2D2D2D" width="102.5641" x="41.30764" y="152.64102"/>
  <rect fill="#FFEBA2" height="28.20513" id="d58677c445784556add24ab3644477ab-ao-3" stroke="#2D2D2D" width="148.71795" x="41.30764" y="242.38461"/>
  <rect fill="#FFEBA2" height="28.20513" id="d58677c445784556add24ab3644477ab-ao-4" stroke="#2D2D2D" width="138.46154" x="1131.05122" y="247.51282"/>
  <rect fill="#FFEBA2" height="25.64103" id="d58677c445784556add24ab3644477ab-ao-5" stroke="#2D2D2D" width="133.33333" x="36.17943" y="296.23077"/>
  <rect fill="#FFEBA2" height="28.20513" id="d58677c445784556add24ab3644477ab-ao-6" stroke="#2D2D2D" width="143.58974" x="1136.17943" y="334.6923"/>
  <rect class="qshape" fill="#FF7E7E" height="46.15385" id="d58677c445784556add24ab3644477ab-ao-7" stroke="#2D2D2D" width="130.76923" x="1133.61533" y="485.97435"/>
  <rect fill="#FFEBA2" height="25.64103" id="d58677c445784556add24ab3644477ab-ao-8" stroke="#2D2D2D" width="82.05128" x="41.30764" y="509.05128"/>
  <rect fill="#FFEBA2" height="51.28205" id="d58677c445784556add24ab3644477ab-ao-9" stroke="#2D2D2D" width="156.41026" x="1133.61533" y="552.64102"/>
  <rect fill="#FFEBA2" height="25.64103" id="d58677c445784556add24ab3644477ab-ao-10" stroke="#2D2D2D" width="120.51282" x="41.30764" y="562.89743"/>
  <rect fill="#FFEBA2" height="53.84615" id="d58677c445784556add24ab3644477ab-ao-11" stroke="#2D2D2D" width="176.92308" x="41.30764" y="609.05128"/>
  <rect fill="#FFEBA2" height="48.71795" id="d58677c445784556add24ab3644477ab-ao-12" stroke="#2D2D2D" width="151.28205" x="1136.17943" y="619.30769"/>
  <rect fill="#FFEBA2" height="48.71795" id="d58677c445784556add24ab3644477ab-ao-13" stroke="#2D2D2D" width="125.64103" x="38.74354" y="673.15384"/>
  <rect fill="#FFEBA2" height="48.71795" id="d58677c445784556add24ab3644477ab-ao-14" stroke="#2D2D2D" width="143.58974" x="1133.61533" y="688.53846"/>
  <rect fill="#FFEBA2" height="25.64103" id="d58677c445784556add24ab3644477ab-ao-15" stroke="#2D2D2D" width="164.10256" x="38.74354" y="737.2564"/>
  <rect fill="#FFEBA2" height="25.64103" id="d58677c445784556add24ab3644477ab-ao-16" stroke="#2D2D2D" width="82.05128" x="41.30764" y="783.41025"/>
 </g>
</svg>