<svg height="1375" width="1535.9999999999998" xmlns="http://www.w3.org/2000/svg">
 <!-- Created with Image Occlusion Enhanced -->
 <g>
  <title>Labels</title>
 </g>
 <g>
  <title>Masks</title>
  <rect fill="#FFEBA2" height="54.28572" id="d6b462cfd7d5401dac8dfe674f4ceb02-ao-1" stroke="#2D2D2D" width="162.85715" x="1178.28584" y="70.71426"/>
  <rect fill="#FFEBA2" height="34.28572" id="d6b462cfd7d5401dac8dfe674f4ceb02-ao-2" stroke="#2D2D2D" width="142.85715" x="541.14295" y="96.42854"/>
  <rect fill="#FFEBA2" height="48.57143" id="d6b462cfd7d5401dac8dfe674f4ceb02-ao-3" stroke="#2D2D2D" width="160.00001" x="1144.00012" y="142.14283"/>
  <rect fill="#FFEBA2" height="28.57143" id="d6b462cfd7d5401dac8dfe674f4ceb02-ao-4" stroke="#2D2D2D" width="217.14287" x="469.71438" y="184.99998"/>
  <rect fill="#FFEBA2" height="31.42857" id="d6b462cfd7d5401dac8dfe674f4ceb02-ao-5" stroke="#2D2D2D" width="280.00001" x="381.14294" y="290.71427"/>
  <rect fill="#FFEBA2" height="31.42857" id="d6b462cfd7d5401dac8dfe674f4ceb02-ao-6" stroke="#2D2D2D" width="294.28573" x="1089.7144" y="347.85713"/>
  <rect fill="#FFEBA2" height="54.28572" id="d6b462cfd7d5401dac8dfe674f4ceb02-ao-7" stroke="#2D2D2D" width="185.71429" x="444.00009" y="364.99999"/>
  <rect fill="#FFEBA2" height="28.57143" id="d6b462cfd7d5401dac8dfe674f4ceb02-ao-8" stroke="#2D2D2D" width="300.00001" x="1075.42869" y="413.57142"/>
  <rect fill="#FFEBA2" height="28.57143" id="d6b462cfd7d5401dac8dfe674f4ceb02-ao-9" stroke="#2D2D2D" width="285.7143" x="1052.57155" y="476.42856"/>
  <rect fill="#FFEBA2" height="31.42857" id="d6b462cfd7d5401dac8dfe674f4ceb02-ao-10" stroke="#2D2D2D" width="274.28573" x="1029.7144" y="536.42856"/>
  <rect fill="#FFEBA2" height="28.57143" id="d6b462cfd7d5401dac8dfe674f4ceb02-ao-11" stroke="#2D2D2D" width="128.57143" x="449.71438" y="579.28571"/>
  <rect fill="#FFEBA2" height="28.57143" id="d6b462cfd7d5401dac8dfe674f4ceb02-ao-12" stroke="#2D2D2D" width="122.85715" x="981.14297" y="696.42857"/>
  <rect fill="#FFEBA2" height="54.28572" id="d6b462cfd7d5401dac8dfe674f4ceb02-ao-13" stroke="#2D2D2D" width="214.28572" x="266.85722" y="753.57143"/>
  <rect fill="#FFEBA2" height="28.57143" id="d6b462cfd7d5401dac8dfe674f4ceb02-ao-14" stroke="#2D2D2D" width="171.42858" x="218.28579" y="839.28572"/>
  <rect fill="#FFEBA2" height="31.42857" id="d6b462cfd7d5401dac8dfe674f4ceb02-ao-15" stroke="#2D2D2D" width="297.14287" x="806.85725" y="879.28572"/>
  <rect fill="#FFEBA2" height="45.71429" id="d6b462cfd7d5401dac8dfe674f4ceb02-ao-16" stroke="#2D2D2D" width="171.42858" x="146.85722" y="902.14287"/>
  <rect fill="#FFEBA2" height="51.42857" id="d6b462cfd7d5401dac8dfe674f4ceb02-ao-17" stroke="#2D2D2D" width="225.7143" x="804.00011" y="945.00001"/>
  <rect fill="#FFEBA2" height="54.28572" id="d6b462cfd7d5401dac8dfe674f4ceb02-ao-18" stroke="#2D2D2D" width="145.71429" x="112.5715" y="985.00001"/>
  <rect fill="#FFEBA2" height="31.42857" id="d6b462cfd7d5401dac8dfe674f4ceb02-ao-19" stroke="#2D2D2D" width="260.00001" x="772.57153" y="1059.28573"/>
  <rect fill="#FFEBA2" height="28.57143" id="d6b462cfd7d5401dac8dfe674f4ceb02-ao-20" stroke="#2D2D2D" width="205.7143" x="721.14296" y="1113.57145"/>
  <rect fill="#FFEBA2" height="51.42857" id="d6b462cfd7d5401dac8dfe674f4ceb02-ao-21" stroke="#2D2D2D" width="120.00001" x="158.28579" y="1102.14288"/>
  
  <rect fill="#FFEBA2" height="37.14286" id="d6b462cfd7d5401dac8dfe674f4ceb02-ao-23" stroke="#2D2D2D" width="288.57144" x="678.28581" y="1296.4286"/>
 </g>
</svg>