<svg height="849" width="1253" xmlns="http://www.w3.org/2000/svg">
 <!-- Created with Image Occlusion Enhanced -->
 <g>
  <title>Labels</title>
 </g>
 <g>
  <title>Masks</title>
  <rect fill="#FFEBA2" height="51.42857" id="d72e5df30e9f46f080e83b18ca43df5b-ao-1" stroke="#2D2D2D" width="140" x="31.28575" y="303.85717"/>
  <rect fill="#FFEBA2" height="51.42857" id="d72e5df30e9f46f080e83b18ca43df5b-ao-2" stroke="#2D2D2D" width="317.14287" x="59.85718" y="212.42859"/>
  <rect fill="#FFEBA2" height="28.57143" id="d72e5df30e9f46f080e83b18ca43df5b-ao-3" stroke="#2D2D2D" width="171.42858" x="188.42861" y="146.7143"/>
  <rect fill="#FFEBA2" height="71.42857" id="d72e5df30e9f46f080e83b18ca43df5b-ao-4" stroke="#2D2D2D" width="108.57143" x="402.71433" y="95.28573"/>
  <rect fill="#FFEBA2" height="34.28572" id="d72e5df30e9f46f080e83b18ca43df5b-ao-5" stroke="#2D2D2D" width="148.57143" x="568.42862" y="43.85716"/>
  <rect fill="#FFEBA2" height="31.42857" id="d72e5df30e9f46f080e83b18ca43df5b-ao-6" stroke="#2D2D2D" width="202.85715" x="868.42863" y="143.85716"/>
  <rect fill="#FFEBA2" height="71.42857" id="d72e5df30e9f46f080e83b18ca43df5b-ao-7" stroke="#2D2D2D" width="108.57143" x="1011.28578" y="318.14288"/>
  <rect fill="#FFEBA2" height="51.42857" id="d72e5df30e9f46f080e83b18ca43df5b-ao-8" stroke="#2D2D2D" width="248.57144" x="962.71435" y="495.28574"/>
  <rect fill="#FFEBA2" height="48.57143" id="d72e5df30e9f46f080e83b18ca43df5b-ao-9" stroke="#2D2D2D" width="122.85715" x="851.28577" y="615.28575"/>
  <rect class="qshape" fill="#FF7E7E" height="28.57143" id="d72e5df30e9f46f080e83b18ca43df5b-ao-10" stroke="#2D2D2D" width="197.14286" x="579.85719" y="746.71432"/>
  <rect fill="#FFEBA2" height="48.57143" id="d72e5df30e9f46f080e83b18ca43df5b-ao-11" stroke="#2D2D2D" width="80" x="714.14291" y="661.00003"/>
  <rect fill="#FFEBA2" height="22.85714" id="d72e5df30e9f46f080e83b18ca43df5b-ao-12" stroke="#2D2D2D" width="54.28572" x="534.14291" y="658.14289"/>
  <rect fill="#FFEBA2" height="28.57143" id="d72e5df30e9f46f080e83b18ca43df5b-ao-13" stroke="#2D2D2D" width="105.71429" x="511.28576" y="689.57146"/>
  <rect fill="#FFEBA2" height="57.14286" id="d72e5df30e9f46f080e83b18ca43df5b-ao-14" stroke="#2D2D2D" width="157.14286" x="248.42861" y="641.00003"/>
  <rect fill="#FFEBA2" height="51.42857" id="d72e5df30e9f46f080e83b18ca43df5b-ao-15" stroke="#2D2D2D" width="77.14286" x="265.57147" y="478.14288"/>
 </g>
</svg>