<svg height="889" width="1222" xmlns="http://www.w3.org/2000/svg">
 <!-- Created with Image Occlusion Enhanced -->
 <g>
  <title>Labels</title>
 </g>
 <g>
  <title>Masks</title>
  <rect fill="#FFEBA2" height="30" id="d7bf59b51c3444fb951116977c29f52c-ao-1" stroke="#2D2D2D" width="362.50001" x="74.25003" y="104.74997"/>
  <rect fill="#FFEBA2" height="27.5" id="d7bf59b51c3444fb951116977c29f52c-ao-2" stroke="#2D2D2D" width="35" x="921.75005" y="102.24997"/>
  <rect fill="#FFEBA2" height="30" id="d7bf59b51c3444fb951116977c29f52c-ao-3" stroke="#2D2D2D" width="282.50001" x="79.25003" y="152.24997"/>
  <rect fill="#FFEBA2" height="27.5" id="d7bf59b51c3444fb951116977c29f52c-ao-4" stroke="#2D2D2D" width="32.5" x="921.75005" y="147.24997"/>
  <rect fill="#FFEBA2" height="30" id="d7bf59b51c3444fb951116977c29f52c-ao-5" stroke="#2D2D2D" width="212.50001" x="76.75003" y="187.24997"/>
  <rect fill="#FFEBA2" height="30" id="d7bf59b51c3444fb951116977c29f52c-ao-6" stroke="#2D2D2D" width="30" x="919.25005" y="189.74997"/>
  <rect fill="#FFEBA2" height="30" id="d7bf59b51c3444fb951116977c29f52c-ao-7" stroke="#2D2D2D" width="115" x="79.25003" y="229.74997"/>
  <rect fill="#FFEBA2" height="27.5" id="d7bf59b51c3444fb951116977c29f52c-ao-8" stroke="#2D2D2D" width="30" x="921.75005" y="239.74997"/>
  <rect fill="#FFEBA2" height="32.5" id="d7bf59b51c3444fb951116977c29f52c-ao-9" stroke="#2D2D2D" width="255.00001" x="76.75003" y="282.24997"/>
  <rect fill="#FFEBA2" height="27.5" id="d7bf59b51c3444fb951116977c29f52c-ao-10" stroke="#2D2D2D" width="32.5" x="921.75005" y="282.24997"/>
  <rect fill="#FFEBA2" height="30" id="d7bf59b51c3444fb951116977c29f52c-ao-11" stroke="#2D2D2D" width="150" x="79.25003" y="327.24997"/>
  <rect fill="#FFEBA2" height="25" id="d7bf59b51c3444fb951116977c29f52c-ao-12" stroke="#2D2D2D" width="30" x="921.75005" y="327.24997"/>
  <rect fill="#FFEBA2" height="27.5" id="d7bf59b51c3444fb951116977c29f52c-ao-13" stroke="#2D2D2D" width="242.50001" x="81.75003" y="374.74998"/>
  <rect fill="#FFEBA2" height="30" id="d7bf59b51c3444fb951116977c29f52c-ao-14" stroke="#2D2D2D" width="220.00001" x="891.75005" y="379.74998"/>
  <rect fill="#FFEBA2" height="27.5" id="d7bf59b51c3444fb951116977c29f52c-ao-15" stroke="#2D2D2D" width="227.50001" x="79.25003" y="417.24998"/>
  <rect fill="#FFEBA2" height="50" id="d7bf59b51c3444fb951116977c29f52c-ao-16" stroke="#2D2D2D" width="255.00001" x="894.25005" y="424.74998"/>
  <rect fill="#FFEBA2" height="45" id="d7bf59b51c3444fb951116977c29f52c-ao-17" stroke="#2D2D2D" width="242.50001" x="81.75003" y="459.74998"/>
  <rect class="qshape" fill="#FF7E7E" height="50" id="d7bf59b51c3444fb951116977c29f52c-ao-18" stroke="#2D2D2D" width="212.50001" x="894.25005" y="504.74998"/>
  <rect fill="#FFEBA2" height="27.5" id="d7bf59b51c3444fb951116977c29f52c-ao-19" stroke="#2D2D2D" width="247.50001" x="79.25003" y="527.24998"/>
  <rect fill="#FFEBA2" height="27.5" id="d7bf59b51c3444fb951116977c29f52c-ao-20" stroke="#2D2D2D" width="142.5" x="891.75005" y="557.24998"/>
  <rect fill="#FFEBA2" height="52.5" id="d7bf59b51c3444fb951116977c29f52c-ao-21" stroke="#2D2D2D" width="162.5" x="81.75003" y="569.74998"/>
  <rect fill="#FFEBA2" height="30" id="d7bf59b51c3444fb951116977c29f52c-ao-22" stroke="#2D2D2D" width="245.00001" x="791.75005" y="604.74998"/>
  <rect fill="#FFEBA2" height="25" id="d7bf59b51c3444fb951116977c29f52c-ao-23" stroke="#2D2D2D" width="127.5" x="81.75003" y="639.74998"/>
  <rect fill="#FFEBA2" height="30" id="d7bf59b51c3444fb951116977c29f52c-ao-24" stroke="#2D2D2D" width="245.00001" x="789.25005" y="647.24998"/>
  <rect fill="#FFEBA2" height="25" id="d7bf59b51c3444fb951116977c29f52c-ao-25" stroke="#2D2D2D" width="242.50001" x="81.75003" y="674.74998"/>
  <rect fill="#FFEBA2" height="30" id="d7bf59b51c3444fb951116977c29f52c-ao-26" stroke="#2D2D2D" width="260.00001" x="789.25005" y="692.24998"/>
  <rect fill="#FFEBA2" height="30" id="d7bf59b51c3444fb951116977c29f52c-ao-27" stroke="#2D2D2D" width="127.5" x="81.75003" y="709.74998"/>
  <rect fill="#FFEBA2" height="27.5" id="d7bf59b51c3444fb951116977c29f52c-ao-28" stroke="#2D2D2D" width="147.5" x="789.25005" y="729.74998"/>
  <rect fill="#FFEBA2" height="45" id="d7bf59b51c3444fb951116977c29f52c-ao-29" stroke="#2D2D2D" width="192.5" x="81.75003" y="754.74998"/>
  <rect fill="#FFEBA2" height="30" id="d7bf59b51c3444fb951116977c29f52c-ao-30" stroke="#2D2D2D" width="242.50001" x="791.75005" y="774.74999"/>
  <rect fill="#FFEBA2" height="47.5" id="d7bf59b51c3444fb951116977c29f52c-ao-31" stroke="#2D2D2D" width="195" x="79.25003" y="812.24999"/>
  <rect fill="#FFEBA2" height="25" id="d7bf59b51c3444fb951116977c29f52c-ao-32" stroke="#2D2D2D" width="250.00001" x="791.75005" y="812.24999"/>
  <rect fill="#FFEBA2" height="25" id="d7bf59b51c3444fb951116977c29f52c-ao-33" stroke="#2D2D2D" stroke-dasharray="null" stroke-linecap="null" stroke-linejoin="null" width="222.50001" x="794.25005" y="844.74999"/>
 </g>
</svg>