<svg height="545" width="1273" xmlns="http://www.w3.org/2000/svg">
 <!-- Created with Image Occlusion Enhanced -->
 <g>
  <title>Labels</title>
 </g>
 <g>
  <title>Masks</title>
  <rect fill="#FFEBA2" height="25.71429" id="da900ead082b408b81c44164b95a9b21-ao-1" stroke="#2D2D2D" width="260.00001" x="941.28577" y="52.14285"/>
  <rect fill="#FFEBA2" height="28.57143" id="da900ead082b408b81c44164b95a9b21-ao-2" stroke="#2D2D2D" width="337.14287" x="81.28575" y="60.71428"/>
  <rect fill="#FFEBA2" height="28.57143" id="da900ead082b408b81c44164b95a9b21-ao-3" stroke="#2D2D2D" width="260.00001" x="964.14292" y="92.14285"/>
  <rect fill="#FFEBA2" height="28.57143" id="da900ead082b408b81c44164b95a9b21-ao-4" stroke="#2D2D2D" width="251.42858" x="64.14289" y="103.57142"/>
  <rect fill="#FFEBA2" height="28.57143" id="da900ead082b408b81c44164b95a9b21-ao-5" stroke="#2D2D2D" width="257.14286" x="992.71435" y="132.14285"/>
  <rect fill="#FFEBA2" height="28.57143" id="da900ead082b408b81c44164b95a9b21-ao-6" stroke="#2D2D2D" width="248.57144" x="35.57146" y="146.42857"/>
  <rect fill="#FFEBA2" height="77.14286" id="da900ead082b408b81c44164b95a9b21-ao-7" stroke="#2D2D2D" width="237.14286" x="989.8572" y="172.14285"/>
  <rect fill="#FFEBA2" height="28.57143" id="da900ead082b408b81c44164b95a9b21-ao-8" stroke="#2D2D2D" width="60" x="227.00004" y="183.57143"/>
  <rect fill="#FFEBA2" height="28.57143" id="da900ead082b408b81c44164b95a9b21-ao-9" stroke="#2D2D2D" width="165.71429" x="121.28575" y="229.28571"/>
  <rect fill="#FFEBA2" height="28.57143" id="da900ead082b408b81c44164b95a9b21-ao-10" stroke="#2D2D2D" width="171.42858" x="995.57149" y="260.71429"/>
  <rect fill="#FFEBA2" height="28.57143" id="da900ead082b408b81c44164b95a9b21-ao-11" stroke="#2D2D2D" width="191.42858" x="98.42861" y="269.28571"/>
  <rect fill="#FFEBA2" height="28.57143" id="da900ead082b408b81c44164b95a9b21-ao-12" stroke="#2D2D2D" width="194.28572" x="992.71435" y="297.85714"/>
  <rect fill="#FFEBA2" height="28.57143" id="da900ead082b408b81c44164b95a9b21-ao-13" stroke="#2D2D2D" width="157.14286" x="129.85718" y="309.28572"/>
  <rect fill="#FFEBA2" height="45.71429" id="da900ead082b408b81c44164b95a9b21-ao-14" stroke="#2D2D2D" width="251.42858" x="975.57149" y="340.71429"/>
  <rect fill="#FFEBA2" height="48.57143" id="da900ead082b408b81c44164b95a9b21-ao-15" stroke="#2D2D2D" width="237.14286" x="87.00004" y="352.14286"/>
  <rect fill="#FFEBA2" height="31.42857" id="da900ead082b408b81c44164b95a9b21-ao-16" stroke="#2D2D2D" width="131.42858" x="958.42863" y="403.57143"/>
  <rect fill="#FFEBA2" height="51.42857" id="da900ead082b408b81c44164b95a9b21-ao-17" stroke="#2D2D2D" width="202.85715" x="124.1429" y="415"/>
  <rect fill="#FFEBA2" height="31.42857" id="da900ead082b408b81c44164b95a9b21-ao-18" stroke="#2D2D2D" width="251.42858" x="924.14292" y="440.71429"/>
  <rect fill="#FFEBA2" height="28.57143" id="da900ead082b408b81c44164b95a9b21-ao-19" stroke="#2D2D2D" width="188.57143" x="189.85718" y="477.85715"/>
  
 </g>
</svg>