<svg height="1498" width="1535.9999999999998" xmlns="http://www.w3.org/2000/svg">
 <!-- Created with Image Occlusion Enhanced -->
 <g>
  <title>Labels</title>
 </g>
 <g>
  <title>Masks</title>
  <rect fill="#FFEBA2" height="25.71429" id="dc831d5861fc423bb137527081e42a8c-ao-1" stroke="#2D2D2D" width="460.00002" x="866.85725" y="6.28573"/>
  <rect fill="#FFEBA2" height="22.85714" id="dc831d5861fc423bb137527081e42a8c-ao-2" stroke="#2D2D2D" width="205.7143" x="1064.00012" y="40.57145"/>
  <rect fill="#FFEBA2" height="28.57143" id="dc831d5861fc423bb137527081e42a8c-ao-3" stroke="#2D2D2D" width="282.85716" x="564.0001" y="66.28574"/>
  <rect fill="#FFEBA2" height="25.71429" id="dc831d5861fc423bb137527081e42a8c-ao-4" stroke="#2D2D2D" width="180.00001" x="1055.42869" y="74.85716"/>
  <rect fill="#FFEBA2" height="22.85714" id="dc831d5861fc423bb137527081e42a8c-ao-5" stroke="#2D2D2D" width="262.85715" x="549.71438" y="109.14288"/>
  <rect fill="#FFEBA2" height="22.85714" id="dc831d5861fc423bb137527081e42a8c-ao-6" stroke="#2D2D2D" width="240.00001" x="938.28583" y="109.14288"/>
  <rect fill="#FFEBA2" height="20" id="dc831d5861fc423bb137527081e42a8c-ao-7" stroke="#2D2D2D" width="208.57144" x="578.28581" y="149.14288"/>
  <rect fill="#FFEBA2" height="45.71429" id="dc831d5861fc423bb137527081e42a8c-ao-8" stroke="#2D2D2D" width="111.42858" x="898.28582" y="137.71431"/>
  <rect fill="#FFEBA2" height="25.71429" id="dc831d5861fc423bb137527081e42a8c-ao-9" stroke="#2D2D2D" width="508.57145" x="244.00008" y="180.57146"/>
  <rect fill="#FFEBA2" height="28.57143" id="dc831d5861fc423bb137527081e42a8c-ao-10" stroke="#2D2D2D" width="220.00001" x="466.85723" y="220.57146"/>
  <rect fill="#FFEBA2" height="22.85714" id="dc831d5861fc423bb137527081e42a8c-ao-11" stroke="#2D2D2D" width="194.28572" x="424.00009" y="260.57146"/>
  <rect fill="#FFEBA2" height="25.71429" id="dc831d5861fc423bb137527081e42a8c-ao-12" stroke="#2D2D2D" width="314.28573" x="278.2858" y="300.57146"/>
  <rect fill="#FFEBA2" height="22.85714" id="dc831d5861fc423bb137527081e42a8c-ao-13" stroke="#2D2D2D" width="197.14287" x="344.00009" y="332.00003"/>
  <rect fill="#FFEBA2" height="20" id="dc831d5861fc423bb137527081e42a8c-ao-14" stroke="#2D2D2D" width="237.14287" x="289.71437" y="372.00004"/>
  <rect fill="#FFEBA2" height="25.71429" id="dc831d5861fc423bb137527081e42a8c-ao-15" stroke="#2D2D2D" width="251.42858" x="261.14294" y="412.00004"/>
  <rect fill="#FFEBA2" height="25.71429" id="dc831d5861fc423bb137527081e42a8c-ao-16" stroke="#2D2D2D" width="134.28572" x="358.2858" y="449.1429"/>
  <rect fill="#FFEBA2" height="22.85714" id="dc831d5861fc423bb137527081e42a8c-ao-17" stroke="#2D2D2D" width="225.7143" x="264.00008" y="492.00004"/>
  <rect fill="#FFEBA2" height="22.85714" id="dc831d5861fc423bb137527081e42a8c-ao-18" stroke="#2D2D2D" width="122.85715" x="344.00009" y="526.28576"/>
  <rect fill="#FFEBA2" height="25.71429" id="dc831d5861fc423bb137527081e42a8c-ao-19" stroke="#2D2D2D" width="300.00001" x="169.71436" y="563.42862"/>
  <rect fill="#FFEBA2" height="45.71429" id="dc831d5861fc423bb137527081e42a8c-ao-20" stroke="#2D2D2D" width="257.14287" x="135.42865" y="606.28576"/>
  <rect fill="#FFEBA2" height="48.57143" id="dc831d5861fc423bb137527081e42a8c-ao-21" stroke="#2D2D2D" width="257.14287" x="132.5715" y="663.42862"/>
  <rect fill="#FFEBA2" height="42.85714" id="dc831d5861fc423bb137527081e42a8c-ao-22" stroke="#2D2D2D" width="182.85715" x="1201.14298" y="654.85719"/>
  <rect fill="#FFEBA2" height="25.71429" id="dc831d5861fc423bb137527081e42a8c-ao-23" stroke="#2D2D2D" width="162.85715" x="1149.71441" y="717.71434"/>
  <rect fill="#FFEBA2" height="42.85714" id="dc831d5861fc423bb137527081e42a8c-ao-24" stroke="#2D2D2D" width="297.14287" x="1112.57155" y="783.42863"/>
  <rect fill="#FFEBA2" height="45.71429" id="dc831d5861fc423bb137527081e42a8c-ao-25" stroke="#2D2D2D" width="148.57144" x="1078.28583" y="852.00006"/>
  
  <rect fill="#FFEBA2" height="22.85714" id="dc831d5861fc423bb137527081e42a8c-ao-27" stroke="#2D2D2D" width="188.57144" x="1055.42869" y="1009.14292"/>
  <rect fill="#FFEBA2" height="45.71429" id="dc831d5861fc423bb137527081e42a8c-ao-28" stroke="#2D2D2D" width="171.42858" x="1049.7144" y="1060.5715"/>
  <rect fill="#FFEBA2" height="25.71429" id="dc831d5861fc423bb137527081e42a8c-ao-29" stroke="#2D2D2D" width="168.57144" x="1038.28583" y="1132.00007"/>
  <rect fill="#FFEBA2" height="45.71429" id="dc831d5861fc423bb137527081e42a8c-ao-30" stroke="#2D2D2D" width="180.00001" x="1029.7144" y="1183.42864"/>
  <rect fill="#FFEBA2" height="25.71429" id="dc831d5861fc423bb137527081e42a8c-ao-31" stroke="#2D2D2D" width="205.7143" x="1018.28583" y="1257.71436"/>
  <rect fill="#FFEBA2" height="22.85714" id="dc831d5861fc423bb137527081e42a8c-ao-32" stroke="#2D2D2D" width="128.57143" x="1015.42869" y="1306.28579"/>
  <rect fill="#FFEBA2" height="22.85714" id="dc831d5861fc423bb137527081e42a8c-ao-33" stroke="#2D2D2D" width="125.71429" x="995.42869" y="1360.57151"/>
  <rect fill="#FFEBA2" height="25.71429" id="dc831d5861fc423bb137527081e42a8c-ao-34" stroke="#2D2D2D" width="220.00001" x="981.14297" y="1409.14294"/>
  <rect fill="#FFEBA2" height="22.85714" id="dc831d5861fc423bb137527081e42a8c-ao-35" stroke="#2D2D2D" width="180.00001" x="375.42866" y="1257.71436"/>
  <rect fill="#FFEBA2" height="25.71429" id="dc831d5861fc423bb137527081e42a8c-ao-36" stroke="#2D2D2D" width="388.57145" x="275.42865" y="1332.00008"/>
  <rect fill="#FFEBA2" height="22.85715" id="dc831d5861fc423bb137527081e42a8c-ao-37" stroke="#2D2D2D" width="320.00001" x="421.14295" y="1406.28579"/>
  <rect fill="#FFEBA2" height="25.71429" id="dc831d5861fc423bb137527081e42a8c-ao-38" stroke="#2D2D2D" width="202.85715" x="775.42868" y="1466.2858"/>
  <rect fill="#FFEBA2" height="114.28572" id="dc831d5861fc423bb137527081e42a8c-ao-39" stroke="#2D2D2D" stroke-dasharray="null" stroke-linecap="null" stroke-linejoin="null" width="134.28572" x="472.57152" y="983.42863"/>
 </g>
</svg>