<svg height="707.9999999999999" width="1266" xmlns="http://www.w3.org/2000/svg">
 <!-- Created with Image Occlusion Enhanced -->
 <g>
  <title>Labels</title>
 </g>
 <g>
  <title>Masks</title>
  <rect fill="#FFEBA2" height="25" id="dd876e8ee4634ad8a1e9506ee8c6f64a-ao-1" stroke="#2D2D2D" width="160" x="872.75003" y="10.74995"/>
  <rect fill="#FFEBA2" height="27.5" id="dd876e8ee4634ad8a1e9506ee8c6f64a-ao-2" stroke="#2D2D2D" width="155" x="102.75002" y="18.24995"/>
  <rect fill="#FFEBA2" height="27.5" id="dd876e8ee4634ad8a1e9506ee8c6f64a-ao-3" stroke="#2D2D2D" width="292.5" x="927.75003" y="58.24995"/>
  <rect fill="#FFEBA2" height="27.5" id="dd876e8ee4634ad8a1e9506ee8c6f64a-ao-4" stroke="#2D2D2D" width="180" x="65.25002" y="68.24995"/>
  <rect fill="#FFEBA2" height="22.5" id="dd876e8ee4634ad8a1e9506ee8c6f64a-ao-5" stroke="#2D2D2D" width="165" x="967.75003" y="100.74995"/>
  <rect fill="#FFEBA2" height="25" id="dd876e8ee4634ad8a1e9506ee8c6f64a-ao-6" stroke="#2D2D2D" width="215" x="30.25002" y="118.24995"/>
  <rect fill="#FFEBA2" height="27.5" id="dd876e8ee4634ad8a1e9506ee8c6f64a-ao-7" stroke="#2D2D2D" width="155" x="992.75003" y="145.74995"/>
  <rect fill="#FFEBA2" height="27.5" id="dd876e8ee4634ad8a1e9506ee8c6f64a-ao-8" stroke="#2D2D2D" width="195" x="42.75002" y="168.24995"/>
  <rect fill="#FFEBA2" height="70" id="dd876e8ee4634ad8a1e9506ee8c6f64a-ao-9" stroke="#2D2D2D" width="200" x="1022.75003" y="193.24995"/>
  <rect fill="#FFEBA2" height="50" id="dd876e8ee4634ad8a1e9506ee8c6f64a-ao-10" stroke="#2D2D2D" width="150" x="77.75002" y="220.74995"/>
  <rect fill="#FFEBA2" height="72.5" id="dd876e8ee4634ad8a1e9506ee8c6f64a-ao-11" stroke="#2D2D2D" width="217.5" x="1040.25003" y="270.74995"/>
  <rect fill="#FFEBA2" height="30" id="dd876e8ee4634ad8a1e9506ee8c6f64a-ao-12" stroke="#2D2D2D" width="105" x="127.75002" y="288.24995"/>
  <rect fill="#FFEBA2" height="27.5" id="dd876e8ee4634ad8a1e9506ee8c6f64a-ao-13" stroke="#2D2D2D" width="172.5" x="1060.25003" y="353.24995"/>
  <rect fill="#FFEBA2" height="50" id="dd876e8ee4634ad8a1e9506ee8c6f64a-ao-14" stroke="#2D2D2D" width="150" x="90.25002" y="340.74995"/>
  <rect fill="#FFEBA2" height="50" id="dd876e8ee4634ad8a1e9506ee8c6f64a-ao-15" stroke="#2D2D2D" width="140" x="1087.75003" y="395.74995"/>
  <rect fill="#FFEBA2" height="30" id="dd876e8ee4634ad8a1e9506ee8c6f64a-ao-16" stroke="#2D2D2D" width="165" x="70.25002" y="413.24995"/>
  <rect class="qshape" fill="#FF7E7E" height="27.5" id="dd876e8ee4634ad8a1e9506ee8c6f64a-ao-17" stroke="#2D2D2D" width="205" x="25.25002" y="465.74996"/>
  <rect fill="#FFEBA2" height="92.5" id="dd876e8ee4634ad8a1e9506ee8c6f64a-ao-18" stroke="#2D2D2D" width="122.5" x="1100.25003" y="465.74996"/>
  <rect fill="#FFEBA2" height="25" id="dd876e8ee4634ad8a1e9506ee8c6f64a-ao-19" stroke="#2D2D2D" width="112.5" x="127.75002" y="513.24996"/>
  <rect fill="#FFEBA2" height="45" id="dd876e8ee4634ad8a1e9506ee8c6f64a-ao-20" stroke="#2D2D2D" width="200" x="105.25002" y="565.74996"/>
  <rect fill="#FFEBA2" height="25" id="dd876e8ee4634ad8a1e9506ee8c6f64a-ao-21" stroke="#2D2D2D" width="172.5" x="142.75002" y="638.24996"/>
 </g>
</svg>