<svg height="780" width="1171.9999999999998" xmlns="http://www.w3.org/2000/svg">
 <!-- Created with Image Occlusion Enhanced -->
 <g>
  <title>Labels</title>
 </g>
 <g>
  <title>Masks</title>
  <rect fill="#FFEBA2" height="22.85714" id="dedc04a7d920464ca92f92280b54c484-ao-1" stroke="#2D2D2D" width="177.14286" x="525.1428" y="31.42857"/>
  <rect fill="#FFEBA2" height="31.42857" id="dedc04a7d920464ca92f92280b54c484-ao-2" stroke="#2D2D2D" width="137.14286" x="165.1428" y="242.85714"/>
  <rect fill="#FFEBA2" height="37.14286" id="dedc04a7d920464ca92f92280b54c484-ao-3" stroke="#2D2D2D" width="154.28571" x="882.28566" y="288.57143"/>
  <rect fill="#FFEBA2" height="31.42857" id="dedc04a7d920464ca92f92280b54c484-ao-4" stroke="#2D2D2D" width="211.42857" x="90.85709" y="294.28571"/>
  <rect class="qshape" fill="#FF7E7E" height="34.28571" id="dedc04a7d920464ca92f92280b54c484-ao-5" stroke="#2D2D2D" width="262.85714" x="859.42852" y="337.14286"/>
  <rect fill="#FFEBA2" height="31.42857" id="dedc04a7d920464ca92f92280b54c484-ao-6" stroke="#2D2D2D" width="131.42857" x="167.99995" y="340"/>
  <rect fill="#FFEBA2" height="28.57143" id="dedc04a7d920464ca92f92280b54c484-ao-7" stroke="#2D2D2D" width="165.71429" x="850.85709" y="391.42857"/>
  <rect fill="#FFEBA2" height="28.57143" id="dedc04a7d920464ca92f92280b54c484-ao-8" stroke="#2D2D2D" width="128.57143" x="173.71423" y="394.28571"/>
  <rect fill="#FFEBA2" height="28.57143" id="dedc04a7d920464ca92f92280b54c484-ao-9" stroke="#2D2D2D" width="257.14286" x="842.28566" y="445.71429"/>
  <rect fill="#FFEBA2" height="25.71429" id="dedc04a7d920464ca92f92280b54c484-ao-10" stroke="#2D2D2D" width="162.85714" x="139.42852" y="445.71429"/>
  <rect fill="#FFEBA2" height="31.42857" id="dedc04a7d920464ca92f92280b54c484-ao-11" stroke="#2D2D2D" width="154.28571" x="827.99995" y="497.14286"/>
  <rect fill="#FFEBA2" height="31.42857" id="dedc04a7d920464ca92f92280b54c484-ao-12" stroke="#2D2D2D" width="122.85714" x="179.42852" y="500"/>
  <rect fill="#FFEBA2" height="31.42857" id="dedc04a7d920464ca92f92280b54c484-ao-13" stroke="#2D2D2D" width="208.57143" x="816.57138" y="551.42857"/>
  <rect fill="#FFEBA2" height="28.57143" id="dedc04a7d920464ca92f92280b54c484-ao-14" stroke="#2D2D2D" width="197.14286" x="107.99995" y="548.57143"/>
  <rect fill="#FFEBA2" height="28.57143" id="dedc04a7d920464ca92f92280b54c484-ao-15" stroke="#2D2D2D" width="71.42857" x="793.71423" y="594.28571"/>
  <rect fill="#FFEBA2" height="25.71429" id="dedc04a7d920464ca92f92280b54c484-ao-16" stroke="#2D2D2D" width="51.42857" x="253.71423" y="602.85714"/>
 </g>
</svg>