<svg height="1685" width="1535.9999999999998" xmlns="http://www.w3.org/2000/svg">
 <!-- Created with Image Occlusion Enhanced -->
 <g>
  <title>Labels</title>
 </g>
 <g>
  <title>Masks</title>
  
  <rect fill="#FFEBA2" height="25.71429" id="dfa911c6982345bcb695845b8a023e45-ao-2" stroke="#2D2D2D" width="151.42858" x="1098.28583" y="30.71425"/>
  <rect fill="#FFEBA2" height="25.71429" id="dfa911c6982345bcb695845b8a023e45-ao-3" stroke="#2D2D2D" width="157.14286" x="675.42867" y="79.28568"/>
  <rect fill="#FFEBA2" height="31.42857" id="dfa911c6982345bcb695845b8a023e45-ao-4" stroke="#2D2D2D" width="142.85715" x="506.85724" y="133.5714"/>
  <rect fill="#FFEBA2" height="28.57143" id="dfa911c6982345bcb695845b8a023e45-ao-5" stroke="#2D2D2D" width="222.85715" x="346.85723" y="196.42854"/>
  <rect fill="#FFEBA2" height="25.71429" id="dfa911c6982345bcb695845b8a023e45-ao-6" stroke="#2D2D2D" width="225.7143" x="1181.14298" y="284.99997"/>
  <rect fill="#FFEBA2" height="28.57143" id="dfa911c6982345bcb695845b8a023e45-ao-7" stroke="#2D2D2D" width="140.00001" x="406.85723" y="299.28569"/>
  <rect fill="#FFEBA2" height="31.42857" id="dfa911c6982345bcb695845b8a023e45-ao-8" stroke="#2D2D2D" width="208.57144" x="1178.28584" y="362.14284"/>
  <rect fill="#FFEBA2" height="28.57143" id="dfa911c6982345bcb695845b8a023e45-ao-9" stroke="#2D2D2D" width="320.00001" x="226.85722" y="362.14284"/>
  <rect fill="#FFEBA2" height="31.42857" id="dfa911c6982345bcb695845b8a023e45-ao-10" stroke="#2D2D2D" width="182.85715" x="1172.57155" y="430.71427"/>
  <rect fill="#FFEBA2" height="28.57143" id="dfa911c6982345bcb695845b8a023e45-ao-11" stroke="#2D2D2D" width="331.42859" x="212.57151" y="416.42855"/>
  <rect fill="#FFEBA2" height="51.42857" id="dfa911c6982345bcb695845b8a023e45-ao-12" stroke="#2D2D2D" width="205.7143" x="1172.57155" y="504.99998"/>
  <rect fill="#FFEBA2" height="31.42857" id="dfa911c6982345bcb695845b8a023e45-ao-13" stroke="#2D2D2D" width="151.42858" x="372.57152" y="544.99999"/>
  <rect fill="#FFEBA2" height="31.42857" id="dfa911c6982345bcb695845b8a023e45-ao-14" stroke="#2D2D2D" width="205.7143" x="1172.57155" y="599.2857"/>
  <rect fill="#FFEBA2" height="31.42857" id="dfa911c6982345bcb695845b8a023e45-ao-15" stroke="#2D2D2D" width="357.14287" x="158.28579" y="639.28571"/>
  <rect fill="#FFEBA2" height="122.85715" id="dfa911c6982345bcb695845b8a023e45-ao-16" stroke="#2D2D2D" width="242.85715" x="1129.71441" y="719.28571"/>
  <rect fill="#FFEBA2" height="31.42857" id="dfa911c6982345bcb695845b8a023e45-ao-17" stroke="#2D2D2D" width="214.28572" x="272.57151" y="842.14286"/>
  <rect fill="#FFEBA2" height="28.57143" id="dfa911c6982345bcb695845b8a023e45-ao-18" stroke="#2D2D2D" width="222.85715" x="261.14294" y="939.28572"/>
  <rect fill="#FFEBA2" height="34.28572" id="dfa911c6982345bcb695845b8a023e45-ao-19" stroke="#2D2D2D" width="282.85716" x="941.14297" y="1019.28572"/>
  <rect fill="#FFEBA2" height="31.42857" id="dfa911c6982345bcb695845b8a023e45-ao-20" stroke="#2D2D2D" width="277.14287" x="938.28583" y="1102.14287"/>
  <rect fill="#FFEBA2" height="31.42857" id="dfa911c6982345bcb695845b8a023e45-ao-21" stroke="#2D2D2D" width="214.28572" x="204.00008" y="1179.28573"/>
  <rect fill="#FFEBA2" height="31.42857" id="dfa911c6982345bcb695845b8a023e45-ao-22" stroke="#2D2D2D" width="274.28573" x="132.5715" y="1273.57145"/>
  <rect fill="#FFEBA2" height="28.57143" id="dfa911c6982345bcb695845b8a023e45-ao-23" stroke="#2D2D2D" width="291.42858" x="878.28582" y="1342.14288"/>
  <rect fill="#FFEBA2" height="54.28572" id="dfa911c6982345bcb695845b8a023e45-ao-24" stroke="#2D2D2D" width="174.28572" x="161.14293" y="1365.00002"/>
  <rect fill="#FFEBA2" height="28.57143" id="dfa911c6982345bcb695845b8a023e45-ao-25" stroke="#2D2D2D" width="294.28573" x="838.28582" y="1416.4286"/>
  <rect fill="#FFEBA2" height="28.57143" id="dfa911c6982345bcb695845b8a023e45-ao-26" stroke="#2D2D2D" width="277.14287" x="815.42868" y="1493.57146"/>
  <rect fill="#FFEBA2" height="28.57143" id="dfa911c6982345bcb695845b8a023e45-ao-27" stroke="#2D2D2D" width="125.71429" x="184.00008" y="1473.57146"/>
  <rect fill="#FFEBA2" height="28.57143" id="dfa911c6982345bcb695845b8a023e45-ao-28" stroke="#2D2D2D" width="265.7143" x="795.42868" y="1565.00003"/>
  <rect fill="#FFEBA2" height="28.57143" id="dfa911c6982345bcb695845b8a023e45-ao-29" stroke="#2D2D2D" width="128.57143" x="766.85725" y="1642.14289"/>
 </g>
</svg>