<svg height="1081" width="1535.9999999999998" xmlns="http://www.w3.org/2000/svg">
 <!-- Created with Image Occlusion Enhanced -->
 <g>
  <title>Labels</title>
 </g>
 <g>
  <title>Masks</title>
  <rect fill="#FFEBA2" height="28.57143" id="e085e6d36bad491e83a665bf187db8e4-ao-1" stroke="#2D2D2D" width="288.57144" x="815.42868" y="7.57138"/>
  <rect fill="#FFEBA2" height="28.57143" id="e085e6d36bad491e83a665bf187db8e4-ao-2" stroke="#2D2D2D" width="188.57144" x="578.28581" y="33.28567"/>
  <rect fill="#FFEBA2" height="28.57143" id="e085e6d36bad491e83a665bf187db8e4-ao-3" stroke="#2D2D2D" width="225.7143" x="1124.00012" y="44.71424"/>
  <rect fill="#FFEBA2" height="25.71429" id="e085e6d36bad491e83a665bf187db8e4-ao-4" stroke="#2D2D2D" width="205.7143" x="246.85722" y="90.42852"/>
  <rect fill="#FFEBA2" height="25.71429" id="e085e6d36bad491e83a665bf187db8e4-ao-5" stroke="#2D2D2D" width="205.7143" x="1201.14298" y="170.42853"/>
  <rect fill="#FFEBA2" height="28.57143" id="e085e6d36bad491e83a665bf187db8e4-ao-6" stroke="#2D2D2D" width="111.42858" x="269.71437" y="176.14281"/>
  <rect fill="#FFEBA2" height="28.57143" id="e085e6d36bad491e83a665bf187db8e4-ao-7" stroke="#2D2D2D" width="197.14287" x="175.42865" y="253.28568"/>
  <rect fill="#FFEBA2" height="25.71429" id="e085e6d36bad491e83a665bf187db8e4-ao-8" stroke="#2D2D2D" width="194.28572" x="138.28579" y="330.42854"/>
  <rect fill="#FFEBA2" height="28.57143" id="e085e6d36bad491e83a665bf187db8e4-ao-9" stroke="#2D2D2D" width="134.28572" x="1238.28584" y="416.14283"/>
  <rect fill="#FFEBA2" height="42.85714" id="e085e6d36bad491e83a665bf187db8e4-ao-10" stroke="#2D2D2D" width="211.42858" x="149.71436" y="456.14283"/>
  <rect fill="#FFEBA2" height="45.71429" id="e085e6d36bad491e83a665bf187db8e4-ao-11" stroke="#2D2D2D" width="140.00001" x="144.00008" y="527.5714"/>
  <rect fill="#FFEBA2" height="51.42857" id="e085e6d36bad491e83a665bf187db8e4-ao-12" stroke="#2D2D2D" width="140.00001" x="141.14293" y="607.57141"/>
  <rect fill="#FFEBA2" height="31.42857" id="e085e6d36bad491e83a665bf187db8e4-ao-13" stroke="#2D2D2D" width="217.14287" x="1161.14298" y="710.42855"/>
  <rect fill="#FFEBA2" height="48.57143" id="e085e6d36bad491e83a665bf187db8e4-ao-14" stroke="#2D2D2D" width="128.57143" x="129.71436" y="718.99998"/>
  <rect fill="#FFEBA2" height="31.42857" id="e085e6d36bad491e83a665bf187db8e4-ao-15" stroke="#2D2D2D" width="134.28572" x="1135.42869" y="801.85713"/>
  <rect fill="#FFEBA2" height="51.42857" id="e085e6d36bad491e83a665bf187db8e4-ao-16" stroke="#2D2D2D" width="108.57143" x="192.57151" y="804.71427"/>
  <rect fill="#FFEBA2" height="28.57143" id="e085e6d36bad491e83a665bf187db8e4-ao-17" stroke="#2D2D2D" width="148.57144" x="1089.7144" y="893.2857"/>
  <rect class="qshape" fill="#FF7E7E" height="28.57143" id="e085e6d36bad491e83a665bf187db8e4-ao-18" stroke="#2D2D2D" width="337.14287" x="349.71437" y="970.42856"/>
  <rect fill="#FFEBA2" height="28.57143" id="e085e6d36bad491e83a665bf187db8e4-ao-19" stroke="#2D2D2D" width="165.71429" x="904.00011" y="976.14285"/>
  <rect fill="#FFEBA2" height="25.7143" id="e085e6d36bad491e83a665bf187db8e4-ao-20" stroke="#2D2D2D" width="131.42858" x="644.0001" y="1016.14285"/>
 </g>
</svg>