<svg height="972" width="1536.0000000000002" xmlns="http://www.w3.org/2000/svg">
 <!-- Created with Image Occlusion Enhanced -->
 <g>
  <title>Labels</title>
 </g>
 <g>
  <title>Masks</title>
  <rect fill="#FFEBA2" height="25.71429" id="e1936ce93f2040a9b811faee116245ac-ao-1" stroke="#2D2D2D" width="160.00001" x="495.42866" y="7.99993"/>
  <rect fill="#FFEBA2" height="50.35714" id="e1936ce93f2040a9b811faee116245ac-ao-2" stroke="#2D2D2D" width="222.85715" x="709.71439" y="7.99993"/>
  <rect fill="#FFEBA2" height="25.71429" id="e1936ce93f2040a9b811faee116245ac-ao-3" stroke="#2D2D2D" width="177.14287" x="449.71438" y="53.71421"/>
  <rect class="qshape" fill="#FF7E7E" height="28.57143" id="e1936ce93f2040a9b811faee116245ac-ao-7" stroke="#2D2D2D" width="142.85715" x="406.85723" y="99.4285"/>
  <rect fill="#FFEBA2" height="25.71429" id="e1936ce93f2040a9b811faee116245ac-ao-8" stroke="#2D2D2D" width="165.71429" x="1209.71441" y="119.4285"/>
  <rect fill="#FFEBA2" height="28.57143" id="e1936ce93f2040a9b811faee116245ac-ao-9" stroke="#2D2D2D" width="180.00001" x="255.42865" y="147.99993"/>
  <rect fill="#FFEBA2" height="22.85714" id="e1936ce93f2040a9b811faee116245ac-ao-10" stroke="#2D2D2D" width="191.42858" x="146.85722" y="196.57136"/>
  <rect fill="#FFEBA2" height="91.42858" id="e1936ce93f2040a9b811faee116245ac-ao-11" stroke="#2D2D2D" width="182.85715" x="1204.00012" y="179.42851"/>
  <rect fill="#FFEBA2" height="48.57143" id="e1936ce93f2040a9b811faee116245ac-ao-12" stroke="#2D2D2D" width="162.85715" x="149.71436" y="239.42851"/>
  <rect fill="#FFEBA2" height="42.85714" id="e1936ce93f2040a9b811faee116245ac-ao-13" stroke="#2D2D2D" width="168.57144" x="149.71436" y="307.99994"/>
  <rect fill="#FFEBA2" height="51.42857" id="e1936ce93f2040a9b811faee116245ac-ao-14" stroke="#2D2D2D" width="145.71429" x="146.85722" y="373.71423"/>
  <rect fill="#FFEBA2" height="25.71429" id="e1936ce93f2040a9b811faee116245ac-ao-15" stroke="#2D2D2D" width="200.00001" x="146.85722" y="479.42852"/>
  <rect fill="#FFEBA2" height="68.57143" id="e1936ce93f2040a9b811faee116245ac-ao-16" stroke="#2D2D2D" width="148.57144" x="1232.57155" y="502.28566"/>
  <rect fill="#FFEBA2" height="22.85714" id="e1936ce93f2040a9b811faee116245ac-ao-17" stroke="#2D2D2D" width="168.57144" x="144.00008" y="522.28566"/>
  <rect fill="#FFEBA2" height="28.57143" id="e1936ce93f2040a9b811faee116245ac-ao-18" stroke="#2D2D2D" width="128.57143" x="206.85722" y="556.57138"/>
  <rect fill="#FFEBA2" height="25.71429" id="e1936ce93f2040a9b811faee116245ac-ao-19" stroke="#2D2D2D" width="262.85715" x="146.85722" y="605.14281"/>
  <rect fill="#FFEBA2" height="51.42857" id="e1936ce93f2040a9b811faee116245ac-ao-20" stroke="#2D2D2D" width="154.28572" x="1226.85727" y="599.42852"/>
  <rect fill="#FFEBA2" height="28.57143" id="e1936ce93f2040a9b811faee116245ac-ao-21" stroke="#2D2D2D" width="265.7143" x="155.42865" y="653.71424"/>
  <rect fill="#FFEBA2" height="51.42857" id="e1936ce93f2040a9b811faee116245ac-ao-22" stroke="#2D2D2D" width="105.71429" x="1229.71441" y="673.71424"/>
  <rect fill="#FFEBA2" height="25.71429" id="e1936ce93f2040a9b811faee116245ac-ao-23" stroke="#2D2D2D" width="288.57144" x="181.14294" y="696.57139"/>
  <rect fill="#FFEBA2" height="25.71429" id="e1936ce93f2040a9b811faee116245ac-ao-24" stroke="#2D2D2D" width="317.14287" x="181.14294" y="742.28567"/>
  <rect fill="#FFEBA2" height="28.57143" id="e1936ce93f2040a9b811faee116245ac-ao-25" stroke="#2D2D2D" width="180.00001" x="335.42866" y="787.99996"/>
  <rect fill="#FFEBA2" height="51.42857" id="e1936ce93f2040a9b811faee116245ac-ao-26" stroke="#2D2D2D" width="120.00001" x="1232.57155" y="753.71425"/>
  <rect fill="#FFEBA2" height="28.57143" id="e1936ce93f2040a9b811faee116245ac-ao-27" stroke="#2D2D2D" width="262.85715" x="278.2858" y="836.57139"/>
  <rect fill="#FFEBA2" height="28.57143" id="e1936ce93f2040a9b811faee116245ac-ao-28" stroke="#2D2D2D" width="125.71429" x="1232.57155" y="825.14282"/>
  <rect fill="#FFEBA2" height="31.42857" id="e1936ce93f2040a9b811faee116245ac-ao-29" stroke="#2D2D2D" width="208.57144" x="346.85723" y="879.42854"/>
  <rect fill="#FFEBA2" height="22.85714" id="e1936ce93f2040a9b811faee116245ac-ao-30" stroke="#2D2D2D" width="265.7143" x="1069.7144" y="899.42854"/>
  <rect fill="#FFEBA2" height="31.42857" id="e1936ce93f2040a9b811faee116245ac-ao-31" stroke="#2D2D2D" width="305.7143" x="1001.14297" y="933.71425"/>
  <g id="e1936ce93f2040a9b811faee116245ac-ao-4">
   <rect fill="#FFEBA2" height="25.71429" stroke="#2D2D2D" width="214.28572" x="1101.14298" y="47.99993"/>
   <rect fill="#FFEBA2" height="25.71429" stroke="#2D2D2D" width="85.71429" x="975.42869" y="33.71421"/>
   <rect fill="#FFEBA2" height="25.71429" stroke="#2D2D2D" width="82.85715" x="975.42869" y="62.28564"/>
  </g>
 </g>
</svg>