<svg height="845" width="1258" xmlns="http://www.w3.org/2000/svg">
 <!-- Created with Image Occlusion Enhanced -->
 <g>
  <title>Labels</title>
 </g>
 <g>
  <title>Masks</title>
  <rect fill="#FFEBA2" height="27.5" id="e25f0e24749e4daaa39ec69cd016ea7f-ao-1" stroke="#2D2D2D" width="200" x="173.24995" y="36.25"/>
  <rect fill="#FFEBA2" height="25" id="e25f0e24749e4daaa39ec69cd016ea7f-ao-2" stroke="#2D2D2D" width="215" x="850.74995" y="41.25"/>
  <rect fill="#FFEBA2" height="30" id="e25f0e24749e4daaa39ec69cd016ea7f-ao-3" stroke="#2D2D2D" width="265" x="93.24995" y="88.75"/>
  <rect fill="#FFEBA2" height="25" id="e25f0e24749e4daaa39ec69cd016ea7f-ao-4" stroke="#2D2D2D" width="185" x="878.24995" y="88.75"/>
  <rect fill="#FFEBA2" height="27.5" id="e25f0e24749e4daaa39ec69cd016ea7f-ao-5" stroke="#2D2D2D" width="135" x="900.74995" y="131.25"/>
  <rect fill="#FFEBA2" height="30" id="e25f0e24749e4daaa39ec69cd016ea7f-ao-6" stroke="#2D2D2D" width="202.5" x="125.74995" y="151.25"/>
  <rect fill="#FFEBA2" height="30" id="e25f0e24749e4daaa39ec69cd016ea7f-ao-7" stroke="#2D2D2D" width="220" x="920.74995" y="181.25"/>
  <rect fill="#FFEBA2" height="32.5" id="e25f0e24749e4daaa39ec69cd016ea7f-ao-8" stroke="#2D2D2D" width="270" x="43.24995" y="213.75"/>
  <rect fill="#FFEBA2" height="32.5" id="e25f0e24749e4daaa39ec69cd016ea7f-ao-9" stroke="#2D2D2D" width="290" x="933.24995" y="226.25"/>
  <rect fill="#FFEBA2" height="30" id="e25f0e24749e4daaa39ec69cd016ea7f-ao-10" stroke="#2D2D2D" width="270" x="950.74995" y="276.25"/>
  <rect class="qshape" fill="#FF7E7E" height="22.5" id="e25f0e24749e4daaa39ec69cd016ea7f-ao-11" stroke="#2D2D2D" width="282.5" x="20.74995" y="281.25"/>
  <rect fill="#FFEBA2" height="25" id="e25f0e24749e4daaa39ec69cd016ea7f-ao-12" stroke="#2D2D2D" width="162.5" x="953.24995" y="326.25"/>
  <rect fill="#FFEBA2" height="25" id="e25f0e24749e4daaa39ec69cd016ea7f-ao-13" stroke="#2D2D2D" width="260" x="33.24995" y="338.75"/>
  <rect fill="#FFEBA2" height="32.5" id="e25f0e24749e4daaa39ec69cd016ea7f-ao-14" stroke="#2D2D2D" width="120" x="963.24995" y="391.25"/>
  <rect fill="#FFEBA2" height="47.5" id="e25f0e24749e4daaa39ec69cd016ea7f-ao-15" stroke="#2D2D2D" width="250" x="25.74995" y="403.75"/>
  <rect fill="#FFEBA2" height="30" id="e25f0e24749e4daaa39ec69cd016ea7f-ao-16" stroke="#2D2D2D" width="172.5" x="973.24995" y="446.25"/>
  <rect fill="#FFEBA2" height="30" id="e25f0e24749e4daaa39ec69cd016ea7f-ao-17" stroke="#2D2D2D" width="105" x="145.74995" y="483.75"/>
  <rect fill="#FFEBA2" height="50" id="e25f0e24749e4daaa39ec69cd016ea7f-ao-18" stroke="#2D2D2D" width="192.5" x="963.24995" y="491.25"/>
  <rect fill="#FFEBA2" height="27.5" id="e25f0e24749e4daaa39ec69cd016ea7f-ao-19" stroke="#2D2D2D" width="195" x="45.74995" y="543.75"/>
  <rect fill="#FFEBA2" height="147.5" id="e25f0e24749e4daaa39ec69cd016ea7f-ao-20" stroke="#2D2D2D" width="320" x="923.24995" y="561.25"/>
  <rect fill="#FFEBA2" height="30" id="e25f0e24749e4daaa39ec69cd016ea7f-ao-21" stroke="#2D2D2D" width="145" x="75.74995" y="608.75"/>
  <rect fill="#FFEBA2" height="25" id="e25f0e24749e4daaa39ec69cd016ea7f-ao-22" stroke="#2D2D2D" width="127.5" x="93.24995" y="668.75"/>
  <rect fill="#FFEBA2" height="25" id="e25f0e24749e4daaa39ec69cd016ea7f-ao-23" stroke="#2D2D2D" width="137.5" x="868.24995" y="716.25"/>
  <rect fill="#FFEBA2" height="25" id="e25f0e24749e4daaa39ec69cd016ea7f-ao-24" stroke="#2D2D2D" width="60" x="180.74995" y="731.25"/>
 </g>
</svg>