<svg height="1577" width="1523" xmlns="http://www.w3.org/2000/svg">
 <!-- Created with Image Occlusion Enhanced -->
 <g>
  <title>Labels</title>
 </g>
 <g>
  <title>Masks</title>
  <g id="e2804a7d5cee4aa4ac0c1ba74d0371f3-ao-1">
   <rect fill="#FFEBA2" height="31.42857" stroke="#2D2D2D" width="97.14286" x="197.00004" y="70.14279"/>
   <rect fill="#FFEBA2" height="25.71429" stroke="#2D2D2D" width="97.14286" x="511.28576" y="67.28565"/>
   <rect fill="#FFEBA2" height="28.57143" stroke="#2D2D2D" width="97.14286" x="1165.57149" y="81.57136"/>
  </g>
  <g id="e2804a7d5cee4aa4ac0c1ba74d0371f3-ao-2">
   <rect fill="#FFEBA2" height="28.57143" stroke="#2D2D2D" width="100" x="208.42861" y="121.57136"/>
   <rect fill="#FFEBA2" height="28.57143" stroke="#2D2D2D" width="85.71429" x="514.1429" y="107.28565"/>
   <rect fill="#FFEBA2" height="25.71429" stroke="#2D2D2D" width="97.14286" x="1165.57149" y="132.99993"/>
  </g>
  <rect fill="#FFEBA2" height="48.57143" id="e2804a7d5cee4aa4ac0c1ba74d0371f3-ao-3" stroke="#2D2D2D" width="97.14286" x="768.42862" y="158.71422"/>
  <g id="e2804a7d5cee4aa4ac0c1ba74d0371f3-ao-4">
   <rect fill="#FFEBA2" height="28.57143" stroke="#2D2D2D" width="40" x="259.85718" y="278.71422"/>
   <rect fill="#FFEBA2" height="31.42857" stroke="#2D2D2D" width="40" x="574.14291" y="287.28565"/>
   <rect fill="#FFEBA2" height="28.57143" stroke="#2D2D2D" width="45.71429" x="1165.57149" y="261.57136"/>
  </g>
  <rect fill="#FFEBA2" height="45.71429" id="e2804a7d5cee4aa4ac0c1ba74d0371f3-ao-5" stroke="#2D2D2D" width="105.71429" x="1294.14292" y="161.57136"/>
  <g id="e2804a7d5cee4aa4ac0c1ba74d0371f3-ao-6">
   <rect fill="#FFEBA2" height="25.71429" stroke="#2D2D2D" width="40" x="262.71433" y="327.28565"/>
   <rect fill="#FFEBA2" height="28.57143" stroke="#2D2D2D" width="40" x="577.00005" y="330.14279"/>
   <rect fill="#FFEBA2" height="28.57143" stroke="#2D2D2D" width="42.85714" x="1162.71435" y="310.14279"/>
  </g>
  <g id="e2804a7d5cee4aa4ac0c1ba74d0371f3-ao-7">
   <rect fill="#FFEBA2" height="28.57143" stroke="#2D2D2D" width="48.57143" x="268.42861" y="842.99995"/>
   <rect fill="#FFEBA2" height="28.57143" stroke="#2D2D2D" width="57.14286" x="585.57148" y="834.42852"/>
   <rect fill="#FFEBA2" height="31.42857" stroke="#2D2D2D" width="51.42857" x="1139.8572" y="817.28566"/>
  </g>
  <rect fill="#FFEBA2" height="54.28572" id="e2804a7d5cee4aa4ac0c1ba74d0371f3-ao-8" stroke="#2D2D2D" width="102.85715" x="565.57148" y="578.71423"/>
  <rect fill="#FFEBA2" height="57.14286" id="e2804a7d5cee4aa4ac0c1ba74d0371f3-ao-9" stroke="#2D2D2D" width="111.42857" x="1257.00006" y="547.28566"/>
  <g id="e2804a7d5cee4aa4ac0c1ba74d0371f3-ao-10">
   <rect fill="#FFEBA2" height="28.57143" stroke="#2D2D2D" width="51.42857" x="254.1429" y="911.57138"/>
   <rect fill="#FFEBA2" height="34.28572" stroke="#2D2D2D" width="45.71429" x="588.42862" y="897.28566"/>
   <rect fill="#FFEBA2" height="34.28572" stroke="#2D2D2D" width="40" x="1159.8572" y="908.71424"/>
  </g>
  <g id="e2804a7d5cee4aa4ac0c1ba74d0371f3-ao-11">
   <rect fill="#FFEBA2" height="28.57143" stroke="#2D2D2D" width="42.85714" x="228.42861" y="1211.57139"/>
   <rect fill="#FFEBA2" height="28.57143" stroke="#2D2D2D" width="45.71429" x="568.42862" y="1220.14281"/>
   <rect fill="#FFEBA2" height="31.42857" stroke="#2D2D2D" width="42.85714" x="1188.42863" y="1168.71424"/>
  </g>
  <rect fill="#FFEBA2" height="54.28572" id="e2804a7d5cee4aa4ac0c1ba74d0371f3-ao-12" stroke="#2D2D2D" width="91.42857" x="834.14291" y="1091.57138"/>
  <rect fill="#FFEBA2" height="54.28572" id="e2804a7d5cee4aa4ac0c1ba74d0371f3-ao-13" stroke="#2D2D2D" width="102.85715" x="1265.57149" y="1020.14281"/>
  <g id="e2804a7d5cee4aa4ac0c1ba74d0371f3-ao-14">
   <rect fill="#FFEBA2" height="31.42857" stroke="#2D2D2D" width="142.85715" x="128.42861" y="1382.99996"/>
   <rect fill="#FFEBA2" height="48.57143" stroke="#2D2D2D" width="80" x="871.28577" y="1360.14282"/>
   <rect fill="#FFEBA2" height="31.42857" stroke="#2D2D2D" width="142.85715" x="1228.42863" y="1325.8571"/>
  </g>
  
  <g id="e2804a7d5cee4aa4ac0c1ba74d0371f3-ao-16">
   <rect fill="#FFEBA2" height="25.71429" stroke="#2D2D2D" stroke-dasharray="null" stroke-linecap="null" stroke-linejoin="null" width="74.28572" x="245.57147" y="1497.28568"/>
   <rect fill="#FFEBA2" height="28.57143" stroke="#2D2D2D" stroke-dasharray="null" stroke-linecap="null" stroke-linejoin="null" width="74.28572" x="877.00005" y="1494.42854"/>
   <rect fill="#FFEBA2" height="31.42857" stroke="#2D2D2D" stroke-dasharray="null" stroke-linecap="null" stroke-linejoin="null" width="88.57143" x="1151.28578" y="1502.99996"/>
  </g>
 </g>
</svg>