<svg height="817.9999999999999" width="1243" xmlns="http://www.w3.org/2000/svg">
 <!-- Created with Image Occlusion Enhanced -->
 <g>
  <title>Labels</title>
 </g>
 <g>
  <title>Masks</title>
  <rect class="qshape" fill="#FF7E7E" height="25.71429" id="e4921e8989f7497d9b89a8b6569e9090-ao-1" stroke="#2D2D2D" width="68.57143" x="769.8572" y="50.57147"/>
  <rect fill="#FFEBA2" height="25.71429" id="e4921e8989f7497d9b89a8b6569e9090-ao-2" stroke="#2D2D2D" width="168.57144" x="807.00006" y="93.42861"/>
  <rect fill="#FFEBA2" height="28.57143" id="e4921e8989f7497d9b89a8b6569e9090-ao-3" stroke="#2D2D2D" width="280.00001" x="161.28575" y="113.42861"/>
  <rect fill="#FFEBA2" height="25.71429" id="e4921e8989f7497d9b89a8b6569e9090-ao-4" stroke="#2D2D2D" width="191.42858" x="852.71435" y="130.57147"/>
  <rect fill="#FFEBA2" height="28.57143" id="e4921e8989f7497d9b89a8b6569e9090-ao-5" stroke="#2D2D2D" width="314.28573" x="95.57146" y="159.1429"/>
  <rect fill="#FFEBA2" height="25.71429" id="e4921e8989f7497d9b89a8b6569e9090-ao-6" stroke="#2D2D2D" width="225.7143" x="869.85721" y="167.71433"/>
  <rect fill="#FFEBA2" height="25.71429" id="e4921e8989f7497d9b89a8b6569e9090-ao-7" stroke="#2D2D2D" width="177.14286" x="187.00003" y="202.00004"/>
  <rect fill="#FFEBA2" height="25.71429" id="e4921e8989f7497d9b89a8b6569e9090-ao-8" stroke="#2D2D2D" width="160.00001" x="884.14292" y="204.85719"/>
  <rect fill="#FFEBA2" height="25.71429" id="e4921e8989f7497d9b89a8b6569e9090-ao-9" stroke="#2D2D2D" width="294.28573" x="41.28574" y="242.00005"/>
  <rect fill="#FFEBA2" height="28.57143" id="e4921e8989f7497d9b89a8b6569e9090-ao-10" stroke="#2D2D2D" width="168.57144" x="912.71435" y="244.85719"/>
  <rect fill="#FFEBA2" height="28.57143" id="e4921e8989f7497d9b89a8b6569e9090-ao-11" stroke="#2D2D2D" width="142.85715" x="175.57146" y="282.00005"/>
  <rect fill="#FFEBA2" height="45.71429" id="e4921e8989f7497d9b89a8b6569e9090-ao-12" stroke="#2D2D2D" width="220.00001" x="907.00006" y="284.85719"/>
  <rect fill="#FFEBA2" height="48.57143" id="e4921e8989f7497d9b89a8b6569e9090-ao-13" stroke="#2D2D2D" width="294.28573" x="27.00003" y="330.57148"/>
  <rect fill="#FFEBA2" height="28.57143" id="e4921e8989f7497d9b89a8b6569e9090-ao-14" stroke="#2D2D2D" width="242.85715" x="907.00006" y="344.85719"/>
  <rect fill="#FFEBA2" height="25.71429" id="e4921e8989f7497d9b89a8b6569e9090-ao-15" stroke="#2D2D2D" width="160.00001" x="138.4286" y="396.28577"/>
  <rect fill="#FFEBA2" height="25.71429" id="e4921e8989f7497d9b89a8b6569e9090-ao-16" stroke="#2D2D2D" width="208.57144" x="909.85721" y="382.00005"/>
  <rect fill="#FFEBA2" height="25.71429" id="e4921e8989f7497d9b89a8b6569e9090-ao-17" stroke="#2D2D2D" width="65.71429" x="232.71432" y="439.14291"/>
  <rect fill="#FFEBA2" height="25.71429" id="e4921e8989f7497d9b89a8b6569e9090-ao-18" stroke="#2D2D2D" width="280.00001" x="909.85721" y="422.00005"/>
  <rect fill="#FFEBA2" height="28.57143" id="e4921e8989f7497d9b89a8b6569e9090-ao-19" stroke="#2D2D2D" width="174.28572" x="121.28575" y="479.14291"/>
  <rect fill="#FFEBA2" height="28.57143" id="e4921e8989f7497d9b89a8b6569e9090-ao-20" stroke="#2D2D2D" width="300.00001" x="912.71435" y="462.00005"/>
  <rect fill="#FFEBA2" height="28.57143" id="e4921e8989f7497d9b89a8b6569e9090-ao-21" stroke="#2D2D2D" width="188.57144" x="98.4286" y="522.00006"/>
  <rect fill="#FFEBA2" height="51.42857" id="e4921e8989f7497d9b89a8b6569e9090-ao-22" stroke="#2D2D2D" width="280.00001" x="912.71435" y="499.14291"/>
  <rect fill="#FFEBA2" height="25.71429" id="e4921e8989f7497d9b89a8b6569e9090-ao-23" stroke="#2D2D2D" width="151.42858" x="129.85717" y="564.8572"/>
  <rect fill="#FFEBA2" height="25.71429" id="e4921e8989f7497d9b89a8b6569e9090-ao-24" stroke="#2D2D2D" width="288.57144" x="912.71435" y="559.14292"/>
  <rect fill="#FFEBA2" height="28.57143" id="e4921e8989f7497d9b89a8b6569e9090-ao-25" stroke="#2D2D2D" width="125.71429" x="155.57146" y="599.14292"/>
  <rect fill="#FFEBA2" height="25.71429" id="e4921e8989f7497d9b89a8b6569e9090-ao-26" stroke="#2D2D2D" width="140.00001" x="932.71435" y="593.42863"/>
  <rect fill="#FFEBA2" height="28.57143" id="e4921e8989f7497d9b89a8b6569e9090-ao-27" stroke="#2D2D2D" width="225.7143" x="909.85721" y="636.28578"/>
  <rect fill="#FFEBA2" height="31.42857" id="e4921e8989f7497d9b89a8b6569e9090-ao-28" stroke="#2D2D2D" width="288.57144" x="15.57146" y="650.57149"/>
  <rect fill="#FFEBA2" height="25.71429" id="e4921e8989f7497d9b89a8b6569e9090-ao-29" stroke="#2D2D2D" width="208.57144" x="909.85721" y="673.42864"/>
  <rect fill="#FFEBA2" height="28.57143" id="e4921e8989f7497d9b89a8b6569e9090-ao-30" stroke="#2D2D2D" width="220.00001" x="75.57146" y="696.28578"/>
  <rect fill="#FFEBA2" height="28.57143" id="e4921e8989f7497d9b89a8b6569e9090-ao-31" stroke="#2D2D2D" width="145.71429" x="912.71435" y="713.42864"/>
 </g>
</svg>