<svg height="1520" width="1535.9999999999998" xmlns="http://www.w3.org/2000/svg">
 <!-- Created with Image Occlusion Enhanced -->
 <g>
  <title>Labels</title>
 </g>
 <g>
  <title>Masks</title>
  <rect fill="#FFEBA2" height="22.85714" id="e4c7fe78a8234af2b520518246198ef0-ao-1" stroke="#2D2D2D" width="311.42859" x="395.42866" y="2.85711"/>
  <rect fill="#FFEBA2" height="22.85714" id="e4c7fe78a8234af2b520518246198ef0-ao-2" stroke="#2D2D2D" width="200.00001" x="912.57154" y="8.57139"/>
  <rect fill="#FFEBA2" height="25.71429" id="e4c7fe78a8234af2b520518246198ef0-ao-3" stroke="#2D2D2D" width="228.57144" x="375.42866" y="51.42854"/>
  <rect fill="#FFEBA2" height="22.85714" id="e4c7fe78a8234af2b520518246198ef0-ao-4" stroke="#2D2D2D" width="211.42858" x="1061.14298" y="65.71425"/>
  <rect fill="#FFEBA2" height="28.57143" id="e4c7fe78a8234af2b520518246198ef0-ao-5" stroke="#2D2D2D" width="254.28573" x="292.57151" y="99.99997"/>
  <rect fill="#FFEBA2" height="48.57143" id="e4c7fe78a8234af2b520518246198ef0-ao-6" stroke="#2D2D2D" width="265.7143" x="1118.28583" y="125.71426"/>
  <rect fill="#FFEBA2" height="25.71429" id="e4c7fe78a8234af2b520518246198ef0-ao-7" stroke="#2D2D2D" width="188.57144" x="161.14293" y="154.28569"/>
  <rect fill="#FFEBA2" height="68.57143" id="e4c7fe78a8234af2b520518246198ef0-ao-8" stroke="#2D2D2D" width="288.57145" x="1092.57154" y="479.99999"/>
  <rect fill="#FFEBA2" height="48.57143" id="e4c7fe78a8234af2b520518246198ef0-ao-9" stroke="#2D2D2D" width="174.28572" x="169.71436" y="577.14285"/>
  <rect fill="#FFEBA2" height="51.42857" id="e4c7fe78a8234af2b520518246198ef0-ao-10" stroke="#2D2D2D" width="317.14287" x="1072.57155" y="568.57142"/>
  <rect fill="#FFEBA2" height="28.57143" id="e4c7fe78a8234af2b520518246198ef0-ao-11" stroke="#2D2D2D" width="180.00001" x="155.42865" y="639.99999"/>
  <rect fill="#FFEBA2" height="25.71429" id="e4c7fe78a8234af2b520518246198ef0-ao-12" stroke="#2D2D2D" width="177.14287" x="1072.57155" y="637.14285"/>
  <rect fill="#FFEBA2" height="45.71429" id="e4c7fe78a8234af2b520518246198ef0-ao-13" stroke="#2D2D2D" width="165.71429" x="184.00008" y="677.14285"/>
  <rect fill="#FFEBA2" height="65.71429" id="e4c7fe78a8234af2b520518246198ef0-ao-14" stroke="#2D2D2D" width="271.42858" x="1104.00012" y="680"/>
  <rect fill="#FFEBA2" height="48.57143" id="e4c7fe78a8234af2b520518246198ef0-ao-15" stroke="#2D2D2D" width="168.57144" x="189.71436" y="751.42857"/>
  <rect fill="#FFEBA2" height="71.42857" id="e4c7fe78a8234af2b520518246198ef0-ao-16" stroke="#2D2D2D" width="202.85715" x="1141.14298" y="768.57143"/>
  <rect fill="#FFEBA2" height="28.57143" id="e4c7fe78a8234af2b520518246198ef0-ao-17" stroke="#2D2D2D" width="240.00001" x="141.14293" y="822.85715"/>
  <rect fill="#FFEBA2" height="25.71429" id="e4c7fe78a8234af2b520518246198ef0-ao-18" stroke="#2D2D2D" width="137.14286" x="1172.57155" y="851.42858"/>
  <rect fill="#FFEBA2" height="48.57143" id="e4c7fe78a8234af2b520518246198ef0-ao-19" stroke="#2D2D2D" width="180.00001" x="201.14294" y="874.28572"/>
  <rect fill="#FFEBA2" height="28.57143" id="e4c7fe78a8234af2b520518246198ef0-ao-20" stroke="#2D2D2D" width="194.28572" x="152.57151" y="945.71429"/>
  <rect fill="#FFEBA2" height="28.57143" id="e4c7fe78a8234af2b520518246198ef0-ao-21" stroke="#2D2D2D" width="197.14287" x="172.57151" y="1285.71431"/>
  <rect fill="#FFEBA2" height="48.57143" id="e4c7fe78a8234af2b520518246198ef0-ao-22" stroke="#2D2D2D" width="300.00001" x="898.28582" y="1285.71431"/>
  <rect fill="#FFEBA2" height="22.85714" id="e4c7fe78a8234af2b520518246198ef0-ao-23" stroke="#2D2D2D" width="137.14286" x="272.57151" y="1340.00003"/>
  <rect class="qshape" fill="#FF7E7E" height="25.71429" id="e4c7fe78a8234af2b520518246198ef0-ao-24" stroke="#2D2D2D" width="314.28573" x="186.85722" y="1391.4286"/>
  <rect fill="#FFEBA2" height="25.71429" id="e4c7fe78a8234af2b520518246198ef0-ao-25" stroke="#2D2D2D" width="311.42859" x="598.28581" y="1402.85717"/>
 </g>
</svg>