<svg height="1685" width="1527" xmlns="http://www.w3.org/2000/svg">
 <!-- Created with Image Occlusion Enhanced -->
 <g>
  <title>Labels</title>
 </g>
 <g>
  <title>Masks</title>
  <rect fill="#FFEBA2" height="25.71429" id="e5fc5761c4584cc69ce47d7014f560ed-ao-1" stroke="#2D2D2D" width="222.85714" x="485.85709" y="22.14286"/>
  <rect fill="#FFEBA2" height="25.71429" id="e5fc5761c4584cc69ce47d7014f560ed-ao-2" stroke="#2D2D2D" width="214.28571" x="491.57138" y="56.42857"/>
  <rect fill="#FFEBA2" height="28.57143" id="e5fc5761c4584cc69ce47d7014f560ed-ao-3" stroke="#2D2D2D" width="257.14286" x="451.57138" y="93.57143"/>
  <rect fill="#FFEBA2" height="31.42857" id="e5fc5761c4584cc69ce47d7014f560ed-ao-4" stroke="#2D2D2D" width="217.14286" x="1048.71423" y="173.57143"/>
  <rect fill="#FFEBA2" height="28.57143" id="e5fc5761c4584cc69ce47d7014f560ed-ao-5" stroke="#2D2D2D" width="262.85714" x="365.85709" y="185"/>
  <rect fill="#FFEBA2" height="28.57143" id="e5fc5761c4584cc69ce47d7014f560ed-ao-6" stroke="#2D2D2D" width="268.57143" x="360.1428" y="256.42857"/>
  <rect fill="#FFEBA2" height="25.71429" id="e5fc5761c4584cc69ce47d7014f560ed-ao-7" stroke="#2D2D2D" width="240" x="385.85709" y="313.57143"/>
  <rect fill="#FFEBA2" height="28.57143" id="e5fc5761c4584cc69ce47d7014f560ed-ao-8" stroke="#2D2D2D" width="231.42857" x="1042.99995" y="325"/>
  <rect fill="#FFEBA2" height="28.57143" id="e5fc5761c4584cc69ce47d7014f560ed-ao-9" stroke="#2D2D2D" width="334.28571" x="285.85709" y="373.57143"/>
  <rect fill="#FFEBA2" height="28.57143" id="e5fc5761c4584cc69ce47d7014f560ed-ao-10" stroke="#2D2D2D" width="237.14286" x="320.1428" y="439.28571"/>
  <rect fill="#FFEBA2" height="28.57143" id="e5fc5761c4584cc69ce47d7014f560ed-ao-11" stroke="#2D2D2D" width="148.57143" x="1045.85709" y="522.14286"/>
  <rect fill="#FFEBA2" height="25.71429" id="e5fc5761c4584cc69ce47d7014f560ed-ao-12" stroke="#2D2D2D" width="177.14286" x="334.42852" y="516.42857"/>
  <rect fill="#FFEBA2" height="28.57143" id="e5fc5761c4584cc69ce47d7014f560ed-ao-13" stroke="#2D2D2D" width="362.85714" x="151.57138" y="602.14286"/>
  <rect fill="#FFEBA2" height="25.71429" id="e5fc5761c4584cc69ce47d7014f560ed-ao-14" stroke="#2D2D2D" width="182.85714" x="325.85709" y="665"/>
  <rect fill="#FFEBA2" height="28.57143" id="e5fc5761c4584cc69ce47d7014f560ed-ao-15" stroke="#2D2D2D" width="337.14286" x="188.71423" y="733.57143"/>
  <rect fill="#FFEBA2" height="28.57143" id="e5fc5761c4584cc69ce47d7014f560ed-ao-16" stroke="#2D2D2D" width="317.14286" x="200.1428" y="842.14286"/>
  <rect fill="#FFEBA2" height="28.57143" id="e5fc5761c4584cc69ce47d7014f560ed-ao-17" stroke="#2D2D2D" width="131.42857" x="1088.71423" y="850.71429"/>
  <rect fill="#FFEBA2" height="31.42857" id="e5fc5761c4584cc69ce47d7014f560ed-ao-18" stroke="#2D2D2D" width="168.57143" x="1085.85709" y="907.85714"/>
  <rect fill="#FFEBA2" height="28.57143" id="e5fc5761c4584cc69ce47d7014f560ed-ao-19" stroke="#2D2D2D" width="214.28571" x="311.57138" y="919.28571"/>
  <rect fill="#FFEBA2" height="34.28571" id="e5fc5761c4584cc69ce47d7014f560ed-ao-20" stroke="#2D2D2D" width="248.57143" x="280.1428" y="993.57143"/>
  <rect fill="#FFEBA2" height="28.57143" id="e5fc5761c4584cc69ce47d7014f560ed-ao-21" stroke="#2D2D2D" width="288.57143" x="1088.71423" y="996.42857"/>
  <rect fill="#FFEBA2" height="31.42857" id="e5fc5761c4584cc69ce47d7014f560ed-ao-22" stroke="#2D2D2D" width="265.71429" x="1088.71423" y="1042.14286"/>
  <rect fill="#FFEBA2" height="25.71429" id="e5fc5761c4584cc69ce47d7014f560ed-ao-23" stroke="#2D2D2D" width="274.28571" x="1085.85709" y="1122.14286"/>
  <rect fill="#FFEBA2" height="25.71429" id="e5fc5761c4584cc69ce47d7014f560ed-ao-24" stroke="#2D2D2D" width="257.14286" x="1085.85709" y="1156.42857"/>
  
  <rect fill="#FFEBA2" height="31.42857" id="e5fc5761c4584cc69ce47d7014f560ed-ao-26" stroke="#2D2D2D" width="200" x="1082.99995" y="1302.14286"/>
  <rect fill="#FFEBA2" height="28.57143" id="e5fc5761c4584cc69ce47d7014f560ed-ao-27" stroke="#2D2D2D" width="240" x="285.85709" y="1347.85714"/>
  <rect fill="#FFEBA2" height="28.57143" id="e5fc5761c4584cc69ce47d7014f560ed-ao-28" stroke="#2D2D2D" width="248.57143" x="1082.99995" y="1442.14286"/>
 </g>
</svg>