<svg height="806" width="1230" xmlns="http://www.w3.org/2000/svg">
 <!-- Created with Image Occlusion Enhanced -->
 <g>
  <title>Labels</title>
 </g>
 <g>
  <title>Masks</title>
  <rect fill="#FFEBA2" height="27.5" id="e7a31ad760ca4042977107667081dbed-ao-1" stroke="#2D2D2D" width="57.5" x="815" y="71.50002"/>
  <rect fill="#FFEBA2" height="27.5" id="e7a31ad760ca4042977107667081dbed-ao-2" stroke="#2D2D2D" width="280.00001" x="827.5" y="116.50002"/>
  <rect fill="#FFEBA2" height="30" id="e7a31ad760ca4042977107667081dbed-ao-3" stroke="#2D2D2D" width="305.00001" x="87.49999" y="149.00002"/>
  <rect fill="#FFEBA2" height="47.5" id="e7a31ad760ca4042977107667081dbed-ao-4" stroke="#2D2D2D" width="212.5" x="880.00001" y="159.00002"/>
  <rect fill="#FFEBA2" height="27.5" id="e7a31ad760ca4042977107667081dbed-ao-5" stroke="#2D2D2D" width="155" x="189.99999" y="196.50002"/>
  <rect fill="#FFEBA2" height="27.5" id="e7a31ad760ca4042977107667081dbed-ao-6" stroke="#2D2D2D" width="177.5" x="917.50001" y="224.00002"/>
  <rect fill="#FFEBA2" height="25" id="e7a31ad760ca4042977107667081dbed-ao-7" stroke="#2D2D2D" width="237.5" x="94.99999" y="244.00002"/>
  <rect fill="#FFEBA2" height="22.5" id="e7a31ad760ca4042977107667081dbed-ao-8" stroke="#2D2D2D" width="155" x="932.50001" y="266.50002"/>
  <rect fill="#FFEBA2" height="30" id="e7a31ad760ca4042977107667081dbed-ao-9" stroke="#2D2D2D" width="165" x="152.49999" y="289.00002"/>
  <rect fill="#FFEBA2" height="55" id="e7a31ad760ca4042977107667081dbed-ao-10" stroke="#2D2D2D" width="305.00001" x="915.00001" y="304.00002"/>
  <rect fill="#FFEBA2" height="32.5" id="e7a31ad760ca4042977107667081dbed-ao-11" stroke="#2D2D2D" width="212.5" x="82.49999" y="331.50002"/>
  <rect fill="#FFEBA2" height="27.5" id="e7a31ad760ca4042977107667081dbed-ao-12" stroke="#2D2D2D" width="137.5" x="942.50001" y="369.00002"/>
  <rect fill="#FFEBA2" height="32.5" id="e7a31ad760ca4042977107667081dbed-ao-13" stroke="#2D2D2D" width="212.5" x="82.49999" y="376.50002"/>
  <rect fill="#FFEBA2" height="27.5" id="e7a31ad760ca4042977107667081dbed-ao-14" stroke="#2D2D2D" width="70" x="947.50001" y="411.50002"/>
  <rect fill="#FFEBA2" height="25" id="e7a31ad760ca4042977107667081dbed-ao-15" stroke="#2D2D2D" width="187.5" x="97.49999" y="426.50002"/>
  <rect fill="#FFEBA2" height="30" id="e7a31ad760ca4042977107667081dbed-ao-16" stroke="#2D2D2D" width="190" x="937.50001" y="454.00002"/>
  <rect fill="#FFEBA2" height="30" id="e7a31ad760ca4042977107667081dbed-ao-17" stroke="#2D2D2D" width="290.00001" x="14.99999" y="471.50002"/>
  <rect fill="#FFEBA2" height="27.5" id="e7a31ad760ca4042977107667081dbed-ao-18" stroke="#2D2D2D" width="200" x="922.50001" y="496.50002"/>
  <rect fill="#FFEBA2" height="50" id="e7a31ad760ca4042977107667081dbed-ao-19" stroke="#2D2D2D" width="257.5" x="32.49999" y="516.50003"/>
  <rect fill="#FFEBA2" height="27.5" id="e7a31ad760ca4042977107667081dbed-ao-20" stroke="#2D2D2D" width="142.5" x="910.00001" y="539.00003"/>
  <rect class="qshape" fill="#FF7E7E" height="27.5" id="e7a31ad760ca4042977107667081dbed-ao-21" stroke="#2D2D2D" width="150" x="905.00001" y="584.00003"/>
  <rect fill="#FFEBA2" height="25" id="e7a31ad760ca4042977107667081dbed-ao-22" stroke="#2D2D2D" width="132.5" x="154.99999" y="586.50003"/>
  <rect fill="#FFEBA2" height="27.5" id="e7a31ad760ca4042977107667081dbed-ao-23" stroke="#2D2D2D" width="222.5" x="887.50001" y="626.50003"/>
  <rect fill="#FFEBA2" height="27.5" id="e7a31ad760ca4042977107667081dbed-ao-24" stroke="#2D2D2D" width="267.50001" x="7.49999" y="631.50003"/>
  <rect fill="#FFEBA2" height="30" id="e7a31ad760ca4042977107667081dbed-ao-25" stroke="#2D2D2D" width="220" x="895.00001" y="664.00003"/>
  <rect fill="#FFEBA2" height="27.5" id="e7a31ad760ca4042977107667081dbed-ao-26" stroke="#2D2D2D" width="280.00001" x="9.99999" y="676.50003"/>
  <rect fill="#FFEBA2" height="30" id="e7a31ad760ca4042977107667081dbed-ao-27" stroke="#2D2D2D" width="80" x="905.00001" y="709.00003"/>
  <rect fill="#FFEBA2" height="30" id="e7a31ad760ca4042977107667081dbed-ao-28" stroke="#2D2D2D" width="155" x="134.99999" y="719.00003"/>
 </g>
</svg>