<svg height="1053" width="1237" xmlns="http://www.w3.org/2000/svg">
 <!-- Created with Image Occlusion Enhanced -->
 <g>
  <title>Labels</title>
 </g>
 <g>
  <title>Masks</title>
  <rect fill="#FFEBA2" height="25.71429" id="e7abda8430c6490885ecba8b1afbc523-ao-1" stroke="#2D2D2D" width="134.28572" x="532.99994" y="-0.14282"/>
  <rect fill="#FFEBA2" height="22.85714" id="e7abda8430c6490885ecba8b1afbc523-ao-2" stroke="#2D2D2D" width="177.14286" x="298.71422" y="2.71432"/>
  <rect fill="#FFEBA2" height="22.85714" id="e7abda8430c6490885ecba8b1afbc523-ao-3" stroke="#2D2D2D" width="125.71429" x="652.99995" y="28.42861"/>
  <rect fill="#FFEBA2" height="25.71429" id="e7abda8430c6490885ecba8b1afbc523-ao-4" stroke="#2D2D2D" width="277.14287" x="115.85707" y="34.14289"/>
  <rect fill="#FFEBA2" height="28.57143" id="e7abda8430c6490885ecba8b1afbc523-ao-5" stroke="#2D2D2D" width="391.42858" x="730.14281" y="65.57147"/>
  <rect fill="#FFEBA2" height="25.71429" id="e7abda8430c6490885ecba8b1afbc523-ao-6" stroke="#2D2D2D" width="157.14286" x="192.99993" y="71.28575"/>
  <rect fill="#FFEBA2" height="25.71429" id="e7abda8430c6490885ecba8b1afbc523-ao-7" stroke="#2D2D2D" width="122.85715" x="172.99993" y="111.28575"/>
  <rect fill="#FFEBA2" height="25.71429" id="e7abda8430c6490885ecba8b1afbc523-ao-8" stroke="#2D2D2D" width="205.71429" x="792.99995" y="117.00004"/>
  <rect fill="#FFEBA2" height="25.71429" id="e7abda8430c6490885ecba8b1afbc523-ao-9" stroke="#2D2D2D" width="97.14286" x="872.99996" y="171.28575"/>
  <rect fill="#FFEBA2" height="25.71429" id="e7abda8430c6490885ecba8b1afbc523-ao-10" stroke="#2D2D2D" width="117.14286" x="1007.28567" y="202.71433"/>
  <rect fill="#FFEBA2" height="28.57143" id="e7abda8430c6490885ecba8b1afbc523-ao-11" stroke="#2D2D2D" width="211.42858" x="92.99993" y="357.00005"/>
  <rect fill="#FFEBA2" height="25.71429" id="e7abda8430c6490885ecba8b1afbc523-ao-12" stroke="#2D2D2D" width="200.00001" x="75.85707" y="411.28576"/>
  <rect class="qshape" fill="#FF7E7E" height="28.57143" id="e7abda8430c6490885ecba8b1afbc523-ao-13" stroke="#2D2D2D" width="91.42857" x="161.57136" y="477.00005"/>
  <rect fill="#FFEBA2" height="28.57143" id="e7abda8430c6490885ecba8b1afbc523-ao-14" stroke="#2D2D2D" width="225.71429" x="38.71421" y="862.71435"/>
  <rect fill="#FFEBA2" height="20" id="e7abda8430c6490885ecba8b1afbc523-ao-15" stroke="#2D2D2D" width="140" x="164.4285" y="908.42864"/>
  <rect fill="#FFEBA2" height="28.57143" id="e7abda8430c6490885ecba8b1afbc523-ao-16" stroke="#2D2D2D" width="185.71429" x="181.57136" y="939.8572"/>
  <rect fill="#FFEBA2" height="22.85714" id="e7abda8430c6490885ecba8b1afbc523-ao-17" stroke="#2D2D2D" width="231.42858" x="647.28566" y="962.71435"/>
  <rect fill="#FFEBA2" height="25.71429" id="e7abda8430c6490885ecba8b1afbc523-ao-18" stroke="#2D2D2D" width="202.85715" x="227.28565" y="979.85721"/>
  <rect fill="#FFEBA2" height="25.71429" id="e7abda8430c6490885ecba8b1afbc523-ao-19" stroke="#2D2D2D" width="205.71429" x="604.42852" y="994.14292"/>
  <rect fill="#FFEBA2" height="25.71429" id="e7abda8430c6490885ecba8b1afbc523-ao-20" stroke="#2D2D2D" width="157.14286" x="341.57137" y="1011.28578"/>
  <rect fill="#FFEBA2" height="25.71429" id="e7abda8430c6490885ecba8b1afbc523-ao-21" stroke="#2D2D2D" width="117.14286" x="527.28566" y="1019.85721"/>
  <rect fill="#FFEBA2" height="25.71429" id="e7abda8430c6490885ecba8b1afbc523-ao-22" stroke="#2D2D2D" width="117.14286" x="1064.42853" y="1017.00007"/>
 </g>
</svg>