<svg height="744.9999999999999" width="1535.9999999999998" xmlns="http://www.w3.org/2000/svg">
 <!-- Created with Image Occlusion Enhanced -->
 <g>
  <title>Labels</title>
 </g>
 <g>
  <title>Masks</title>
  
  <rect fill="#FFEBA2" height="25.71429" id="e892f066dd344021a5af5fc62250d4e9-ao-2" stroke="#2D2D2D" width="234.28572" x="286.85723" y="124.99999"/>
  <rect fill="#FFEBA2" height="42.85714" id="e892f066dd344021a5af5fc62250d4e9-ao-3" stroke="#2D2D2D" width="182.85715" x="289.71437" y="170.71428"/>
  <rect fill="#FFEBA2" height="42.85714" id="e892f066dd344021a5af5fc62250d4e9-ao-4" stroke="#2D2D2D" width="202.85715" x="1001.14297" y="64.99999"/>
  <rect fill="#FFEBA2" height="25.71429" id="e892f066dd344021a5af5fc62250d4e9-ao-5" stroke="#2D2D2D" width="191.42858" x="1035.42869" y="116.42856"/>
  <rect fill="#FFEBA2" height="28.57143" id="e892f066dd344021a5af5fc62250d4e9-ao-6" stroke="#2D2D2D" width="240.00001" x="1069.7144" y="159.2857"/>
  <rect fill="#FFEBA2" height="22.85714" id="e892f066dd344021a5af5fc62250d4e9-ao-7" stroke="#2D2D2D" width="185.71429" x="1078.28583" y="199.28571"/>
  <rect fill="#FFEBA2" height="25.71429" id="e892f066dd344021a5af5fc62250d4e9-ao-8" stroke="#2D2D2D" width="225.7143" x="1078.28583" y="234.99999"/>
  <rect fill="#FFEBA2" height="25.71429" id="e892f066dd344021a5af5fc62250d4e9-ao-9" stroke="#2D2D2D" width="228.57144" x="1072.57155" y="275"/>
  <rect fill="#FFEBA2" height="25.71429" id="e892f066dd344021a5af5fc62250d4e9-ao-10" stroke="#2D2D2D" width="134.28572" x="1072.57155" y="309.28571"/>
  <rect fill="#FFEBA2" height="25.71429" id="e892f066dd344021a5af5fc62250d4e9-ao-11" stroke="#2D2D2D" width="202.85715" x="1072.57155" y="352.14286"/>
  <rect fill="#FFEBA2" height="22.85714" id="e892f066dd344021a5af5fc62250d4e9-ao-12" stroke="#2D2D2D" width="188.57144" x="1095.42869" y="389.28572"/>
  <rect fill="#FFEBA2" height="25.71429" id="e892f066dd344021a5af5fc62250d4e9-ao-13" stroke="#2D2D2D" width="197.14287" x="1109.71441" y="423.57143"/>
  <rect fill="#FFEBA2" height="22.85714" id="e892f066dd344021a5af5fc62250d4e9-ao-14" stroke="#2D2D2D" width="108.57143" x="1118.28583" y="463.57143"/>
  <rect fill="#FFEBA2" height="91.42858" id="e892f066dd344021a5af5fc62250d4e9-ao-15" stroke="#2D2D2D" width="251.42858" x="1109.71441" y="492.14286"/>
  <rect fill="#FFEBA2" height="28.57143" id="e892f066dd344021a5af5fc62250d4e9-ao-16" stroke="#2D2D2D" width="114.28572" x="1109.71441" y="589.28572"/>
  <rect fill="#FFEBA2" height="54.28572" id="e892f066dd344021a5af5fc62250d4e9-ao-17" stroke="#2D2D2D" width="194.28572" x="178.28579" y="423.57143"/>
  <rect fill="#FFEBA2" height="28.57143" id="e892f066dd344021a5af5fc62250d4e9-ao-18" stroke="#2D2D2D" width="200.00001" x="266.85722" y="580.7143"/>
  <rect fill="#FFEBA2" height="25.71429" id="e892f066dd344021a5af5fc62250d4e9-ao-19" stroke="#2D2D2D" width="245.7143" x="232.57151" y="612.14287"/>
  <rect fill="#FFEBA2" height="22.85714" id="e892f066dd344021a5af5fc62250d4e9-ao-20" stroke="#2D2D2D" width="188.57144" x="324.00008" y="643.57144"/>
  <rect fill="#FFEBA2" height="25.71429" id="e892f066dd344021a5af5fc62250d4e9-ao-21" stroke="#2D2D2D" width="111.42858" x="572.57152" y="649.28573"/>
  <rect fill="#FFEBA2" height="25.71429" id="e892f066dd344021a5af5fc62250d4e9-ao-22" stroke="#2D2D2D" width="254.28573" x="464.00009" y="695.00001"/>
  <rect fill="#FFEBA2" height="22.85714" id="e892f066dd344021a5af5fc62250d4e9-ao-23" stroke="#2D2D2D" width="165.71429" x="918.28583" y="606.42858"/>
  <rect fill="#FFEBA2" height="22.85714" id="e892f066dd344021a5af5fc62250d4e9-ao-24" stroke="#2D2D2D" width="262.85715" x="835.42868" y="646.42858"/>
  <rect fill="#FFEBA2" height="25.71429" id="e892f066dd344021a5af5fc62250d4e9-ao-25" stroke="#2D2D2D" width="334.28573" x="792.57153" y="692.14287"/>
 </g>
</svg>