<svg height="537" width="1328" xmlns="http://www.w3.org/2000/svg">
 <!-- Created with Image Occlusion Enhanced -->
 <g>
  <title>Labels</title>
 </g>
 <g>
  <title>Masks</title>
  <rect fill="#FFEBA2" height="51.42857" id="eb9d98b3ff5142d38223bc9d1aefa40e-ao-1" stroke="#2D2D2D" width="171.42858" x="46.28575" y="18.71429"/>
  <g id="eb9d98b3ff5142d38223bc9d1aefa40e-ao-2">
   <rect fill="#FFEBA2" height="48.57143" stroke="#2D2D2D" width="140" x="1137.71435" y="50.14286"/>
   <rect fill="#FFEBA2" height="51.42857" stroke="#2D2D2D" width="145.71429" x="937.71435" y="18.71429"/>
   <rect fill="#FFEBA2" height="51.42857" stroke="#2D2D2D" width="171.42858" x="937.71435" y="78.71429"/>
  </g>
  <rect fill="#FFEBA2" height="31.42857" id="eb9d98b3ff5142d38223bc9d1aefa40e-ao-3" stroke="#2D2D2D" width="120" x="89.14289" y="93.00001"/>
  <rect fill="#FFEBA2" height="48.57143" id="eb9d98b3ff5142d38223bc9d1aefa40e-ao-4" stroke="#2D2D2D" width="140" x="66.28575" y="150.14287"/>
  <g class="qshape" id="eb9d98b3ff5142d38223bc9d1aefa40e-ao-5">
   <rect class="qshape" fill="#FF7E7E" height="94.28572" stroke="#2D2D2D" width="105.71429" x="1214.85721" y="167.28572"/>
   <rect class="qshape" fill="#FF7E7E" height="54.28572" stroke="#2D2D2D" width="151.42858" x="992.00006" y="144.42858"/>
   <rect class="qshape" fill="#FF7E7E" height="48.57143" stroke="#2D2D2D" width="197.14286" x="992.00006" y="201.57144"/>
   <rect class="qshape" fill="#FF7E7E" height="31.42857" stroke="#2D2D2D" width="182.85715" x="992.00006" y="255.85716"/>
  </g>
  <rect fill="#FFEBA2" height="28.57143" id="eb9d98b3ff5142d38223bc9d1aefa40e-ao-6" stroke="#2D2D2D" width="182.85715" x="32.00004" y="224.42858"/>
  <rect fill="#FFEBA2" height="51.42857" id="eb9d98b3ff5142d38223bc9d1aefa40e-ao-7" stroke="#2D2D2D" width="260.00001" x="1054.85721" y="295.85716"/>
  <rect fill="#FFEBA2" height="48.57143" id="eb9d98b3ff5142d38223bc9d1aefa40e-ao-8" stroke="#2D2D2D" width="157.14286" x="43.42861" y="278.7143"/>
  <rect fill="#FFEBA2" height="74.28572" id="eb9d98b3ff5142d38223bc9d1aefa40e-ao-9" stroke="#2D2D2D" width="180" x="29.14289" y="353.00002"/>
  <rect fill="#FFEBA2" height="68.57143" id="eb9d98b3ff5142d38223bc9d1aefa40e-ao-10" stroke="#2D2D2D" width="185.71429" x="1072.00006" y="381.57144"/>
 </g>
</svg>