<svg height="1528" width="1535.9999999999998" xmlns="http://www.w3.org/2000/svg">
 <!-- Created with Image Occlusion Enhanced -->
 <g>
  <title>Labels</title>
 </g>
 <g>
  <title>Masks</title>
  <rect fill="#FFEBA2" height="54.28572" id="ed1f777178214df39b3dc6935f9e465a-ao-1" stroke="#2D2D2D" width="131.42858" x="138.28579" y="19.14288"/>
  <rect fill="#FFEBA2" height="51.42857" id="ed1f777178214df39b3dc6935f9e465a-ao-2" stroke="#2D2D2D" width="194.28572" x="135.42865" y="96.28574"/>
  <rect fill="#FFEBA2" height="25.71429" id="ed1f777178214df39b3dc6935f9e465a-ao-3" stroke="#2D2D2D" width="137.14286" x="135.42865" y="164.85717"/>
  <rect fill="#FFEBA2" height="45.71429" id="ed1f777178214df39b3dc6935f9e465a-ao-4" stroke="#2D2D2D" width="220.00001" x="135.42865" y="222.00003"/>
  <rect fill="#FFEBA2" height="48.57143" id="ed1f777178214df39b3dc6935f9e465a-ao-5" stroke="#2D2D2D" width="128.57143" x="138.28579" y="290.57146"/>
  <rect fill="#FFEBA2" height="54.28572" id="ed1f777178214df39b3dc6935f9e465a-ao-6" stroke="#2D2D2D" width="171.42858" x="138.28579" y="359.14289"/>
  <rect fill="#FFEBA2" height="51.42857" id="ed1f777178214df39b3dc6935f9e465a-ao-7" stroke="#2D2D2D" width="120.00001" x="1269.71441" y="646.28576"/>
  <rect fill="#FFEBA2" height="45.71429" id="ed1f777178214df39b3dc6935f9e465a-ao-8" stroke="#2D2D2D" width="194.28572" x="1161.14298" y="703.42862"/>
  <rect fill="#FFEBA2" height="48.57143" id="ed1f777178214df39b3dc6935f9e465a-ao-9" stroke="#2D2D2D" width="154.28572" x="141.14293" y="783.42862"/>
  <rect fill="#FFEBA2" height="48.57143" id="ed1f777178214df39b3dc6935f9e465a-ao-10" stroke="#2D2D2D" width="337.14287" x="1044.00012" y="752.00005"/>
  <rect fill="#FFEBA2" height="22.85714" id="ed1f777178214df39b3dc6935f9e465a-ao-11" stroke="#2D2D2D" width="234.28572" x="1009.7144" y="803.42863"/>
  <rect fill="#FFEBA2" height="48.57143" id="ed1f777178214df39b3dc6935f9e465a-ao-12" stroke="#2D2D2D" width="328.57144" x="1012.57154" y="832.00006"/>
  <rect fill="#FFEBA2" height="25.71429" id="ed1f777178214df39b3dc6935f9e465a-ao-13" stroke="#2D2D2D" width="128.57143" x="1021.14297" y="883.42863"/>
  <rect fill="#FFEBA2" height="25.71429" id="ed1f777178214df39b3dc6935f9e465a-ao-14" stroke="#2D2D2D" width="134.28572" x="1012.57154" y="914.8572"/>
  <rect class="qshape" fill="#FF7E7E" height="45.71429" id="ed1f777178214df39b3dc6935f9e465a-ao-15" stroke="#2D2D2D" width="317.14287" x="998.28583" y="949.14292"/>
  <rect fill="#FFEBA2" height="42.85714" id="ed1f777178214df39b3dc6935f9e465a-ao-16" stroke="#2D2D2D" width="171.42858" x="986.85726" y="1000.57149"/>
  <rect fill="#FFEBA2" height="22.85714" id="ed1f777178214df39b3dc6935f9e465a-ao-17" stroke="#2D2D2D" width="188.57144" x="975.42869" y="1054.85721"/>
  <rect fill="#FFEBA2" height="22.85714" id="ed1f777178214df39b3dc6935f9e465a-ao-18" stroke="#2D2D2D" width="234.28572" x="975.42869" y="1086.28578"/>
  <rect fill="#FFEBA2" height="25.71429" id="ed1f777178214df39b3dc6935f9e465a-ao-19" stroke="#2D2D2D" width="331.42859" x="969.7144" y="1114.85721"/>
  <rect fill="#FFEBA2" height="22.85714" id="ed1f777178214df39b3dc6935f9e465a-ao-20" stroke="#2D2D2D" width="282.85716" x="969.7144" y="1149.14293"/>
  <rect fill="#FFEBA2" height="28.57143" id="ed1f777178214df39b3dc6935f9e465a-ao-21" stroke="#2D2D2D" width="177.14287" x="964.00011" y="1180.5715"/>
  <rect fill="#FFEBA2" height="25.71429" id="ed1f777178214df39b3dc6935f9e465a-ao-22" stroke="#2D2D2D" width="342.85716" x="978.28583" y="1212.00007"/>
  <rect fill="#FFEBA2" height="25.71429" id="ed1f777178214df39b3dc6935f9e465a-ao-23" stroke="#2D2D2D" width="251.42858" x="1004.00012" y="1246.28579"/>
  <rect fill="#FFEBA2" height="28.57143" id="ed1f777178214df39b3dc6935f9e465a-ao-24" stroke="#2D2D2D" width="322.85716" x="1026.85726" y="1280.5715"/>
  <rect fill="#FFEBA2" height="22.85714" id="ed1f777178214df39b3dc6935f9e465a-ao-25" stroke="#2D2D2D" width="145.71429" x="1049.7144" y="1312.00008"/>
  <rect fill="#FFEBA2" height="31.42857" id="ed1f777178214df39b3dc6935f9e465a-ao-26" stroke="#2D2D2D" width="237.14287" x="1064.00012" y="1340.57151"/>
  <rect fill="#FFEBA2" height="45.71429" id="ed1f777178214df39b3dc6935f9e465a-ao-27" stroke="#2D2D2D" width="165.71429" x="1072.57155" y="1377.71437"/>
  <rect fill="#FFEBA2" height="45.71429" id="ed1f777178214df39b3dc6935f9e465a-ao-28" stroke="#2D2D2D" width="302.85716" x="1095.42869" y="1432.00008"/>
  <rect fill="#FFEBA2" height="25.71429" id="ed1f777178214df39b3dc6935f9e465a-ao-29" stroke="#2D2D2D" width="354.28573" x="432.57152" y="1492.00009"/>
  <rect fill="#FFEBA2" height="25.71429" id="ed1f777178214df39b3dc6935f9e465a-ao-30" stroke="#2D2D2D" width="165.71429" x="161.14293" y="1494.85723"/>
 </g>
</svg>