<svg height="1120" width="1535.9999999999998" xmlns="http://www.w3.org/2000/svg">
 <!-- Created with Image Occlusion Enhanced -->
 <g>
  <title>Labels</title>
 </g>
 <g>
  <title>Masks</title>
  <rect fill="#FFEBA2" height="54.28572" id="ed26ccbab7f547bf8ebe42ef28de83b2-ao-1" stroke="#2D2D2D" width="211.42858" x="174.00008" y="109.99998"/>
  <g id="ed26ccbab7f547bf8ebe42ef28de83b2-ao-2">
   <rect fill="#FFEBA2" height="28.57143" stroke="#2D2D2D" width="165.71429" x="179.71436" y="207.14284"/>
   <rect fill="#FFEBA2" height="22.85714" stroke="#2D2D2D" width="82.85715" x="202.57151" y="235.71427"/>
   <rect fill="#FFEBA2" height="22.85714" stroke="#2D2D2D" width="77.14286" x="202.57151" y="258.57141"/>
   <rect fill="#FFEBA2" height="22.85714" stroke="#2D2D2D" width="91.42858" x="202.57151" y="278.57142"/>
   <rect fill="#FFEBA2" height="45.71429" stroke="#2D2D2D" width="154.28572" x="179.71436" y="301.42856"/>
  </g>
  <rect fill="#FFEBA2" height="74.28572" id="ed26ccbab7f547bf8ebe42ef28de83b2-ao-3" stroke="#2D2D2D" width="220.00001" x="1125.42869" y="115.71427"/>
  <rect fill="#FFEBA2" height="154.28572" id="ed26ccbab7f547bf8ebe42ef28de83b2-ao-4" stroke="#2D2D2D" width="225.7143" x="174.00008" y="498.57143"/>
  <rect fill="#FFEBA2" height="171.42858" id="ed26ccbab7f547bf8ebe42ef28de83b2-ao-5" stroke="#2D2D2D" width="248.57144" x="168.28579" y="678.57143"/>
  <rect fill="#FFEBA2" height="157.14286" id="ed26ccbab7f547bf8ebe42ef28de83b2-ao-6" stroke="#2D2D2D" width="228.57144" x="171.14293" y="898.57144"/>
  <rect fill="#FFEBA2" height="108.57143" id="ed26ccbab7f547bf8ebe42ef28de83b2-ao-7" stroke="#2D2D2D" width="217.14287" x="1139.71441" y="490"/>
  <rect fill="#FFEBA2" height="151.42858" id="ed26ccbab7f547bf8ebe42ef28de83b2-ao-8" stroke="#2D2D2D" width="234.28572" x="1136.85726" y="618.57143"/>
  <rect fill="#FFEBA2" height="25.71429" id="ed26ccbab7f547bf8ebe42ef28de83b2-ao-9" stroke="#2D2D2D" width="171.42858" x="1162.57155" y="772.85715"/>
  
  <rect fill="#FFEBA2" height="48.57143" id="ed26ccbab7f547bf8ebe42ef28de83b2-ao-11" stroke="#2D2D2D" stroke-dasharray="null" stroke-linecap="null" stroke-linejoin="null" width="182.85715" x="1162.57155" y="858.57144"/>
  <rect fill="#FFEBA2" height="51.42857" id="ed26ccbab7f547bf8ebe42ef28de83b2-ao-12" stroke="#2D2D2D" stroke-dasharray="null" stroke-linecap="null" stroke-linejoin="null" width="174.28572" x="1165.42869" y="912.85716"/>
 </g>
</svg>