<svg height="1473" width="1535.9999999999998" xmlns="http://www.w3.org/2000/svg">
 <!-- Created with Image Occlusion Enhanced -->
 <g>
  <title>Labels</title>
 </g>
 <g>
  <title>Masks</title>
  <rect fill="#FFEBA2" height="25.71429" id="ef22cd8cdf35439a9b31b5bda062bcbb-ao-1" stroke="#2D2D2D" width="251.42858" x="752.57153" y="287.00003"/>
  <rect fill="#FFEBA2" height="28.57143" id="ef22cd8cdf35439a9b31b5bda062bcbb-ao-2" stroke="#2D2D2D" width="182.85715" x="509.71438" y="301.28575"/>
  <rect fill="#FFEBA2" height="28.57143" id="ef22cd8cdf35439a9b31b5bda062bcbb-ao-3" stroke="#2D2D2D" width="251.42858" x="875.42868" y="338.42861"/>
  <rect fill="#FFEBA2" height="31.42857" id="ef22cd8cdf35439a9b31b5bda062bcbb-ao-4" stroke="#2D2D2D" width="305.7143" x="266.85722" y="364.14289"/>
  <rect fill="#FFEBA2" height="25.71429" id="ef22cd8cdf35439a9b31b5bda062bcbb-ao-5" stroke="#2D2D2D" width="174.28572" x="995.42869" y="407.00004"/>
  <rect fill="#FFEBA2" height="28.57143" id="ef22cd8cdf35439a9b31b5bda062bcbb-ao-6" stroke="#2D2D2D" width="71.42857" x="1112.57155" y="461.28575"/>
  <rect fill="#FFEBA2" height="31.42857" id="ef22cd8cdf35439a9b31b5bda062bcbb-ao-7" stroke="#2D2D2D" width="174.28572" x="275.42865" y="464.1429"/>
  <rect fill="#FFEBA2" height="28.57143" id="ef22cd8cdf35439a9b31b5bda062bcbb-ao-8" stroke="#2D2D2D" width="97.14286" x="1181.14298" y="512.71433"/>
  <rect fill="#FFEBA2" height="57.14286" id="ef22cd8cdf35439a9b31b5bda062bcbb-ao-9" stroke="#2D2D2D" width="234.28572" x="135.42865" y="567.00004"/>
  <rect fill="#FFEBA2" height="34.28572" id="ef22cd8cdf35439a9b31b5bda062bcbb-ao-10" stroke="#2D2D2D" width="125.71429" x="1235.4287" y="604.1429"/>
  <rect fill="#FFEBA2" height="31.42857" id="ef22cd8cdf35439a9b31b5bda062bcbb-ao-11" stroke="#2D2D2D" width="168.57144" x="126.85722" y="692.71434"/>
  <rect fill="#FFEBA2" height="57.14286" id="ef22cd8cdf35439a9b31b5bda062bcbb-ao-12" stroke="#2D2D2D" width="140.00001" x="1252.57156" y="689.85719"/>
  <rect fill="#FFEBA2" height="54.28572" id="ef22cd8cdf35439a9b31b5bda062bcbb-ao-13" stroke="#2D2D2D" width="125.71429" x="1286.85727" y="798.42863"/>
  <rect fill="#FFEBA2" height="25.71429" id="ef22cd8cdf35439a9b31b5bda062bcbb-ao-14" stroke="#2D2D2D" width="65.71429" x="126.85722" y="829.8572"/>
  <rect fill="#FFEBA2" height="31.42857" id="ef22cd8cdf35439a9b31b5bda062bcbb-ao-15" stroke="#2D2D2D" width="120.00001" x="1286.85727" y="898.42863"/>
  <rect fill="#FFEBA2" height="68.57143" id="ef22cd8cdf35439a9b31b5bda062bcbb-ao-16" stroke="#2D2D2D" width="162.85715" x="126.85722" y="967.00006"/>
  <rect fill="#FFEBA2" height="31.42857" id="ef22cd8cdf35439a9b31b5bda062bcbb-ao-17" stroke="#2D2D2D" width="117.14286" x="1292.57156" y="967.00006"/>
  <rect fill="#FFEBA2" height="74.28572" id="ef22cd8cdf35439a9b31b5bda062bcbb-ao-18" stroke="#2D2D2D" width="134.28572" x="1286.85727" y="1064.14292"/>
  <rect fill="#FFEBA2" height="31.42857" id="ef22cd8cdf35439a9b31b5bda062bcbb-ao-19" stroke="#2D2D2D" width="125.71429" x="126.85722" y="1095.5715"/>
  <rect fill="#FFEBA2" height="31.42857" id="ef22cd8cdf35439a9b31b5bda062bcbb-ao-20" stroke="#2D2D2D" width="134.28572" x="1206.85727" y="1164.14293"/>
  <rect fill="#FFEBA2" height="28.57143" id="ef22cd8cdf35439a9b31b5bda062bcbb-ao-21" stroke="#2D2D2D" width="182.85715" x="132.5715" y="1184.14293"/>
  <rect fill="#FFEBA2" height="31.42857" id="ef22cd8cdf35439a9b31b5bda062bcbb-ao-22" stroke="#2D2D2D" width="165.71429" x="1124.00012" y="1244.14293"/>
  <rect fill="#FFEBA2" height="54.28572" id="ef22cd8cdf35439a9b31b5bda062bcbb-ao-23" stroke="#2D2D2D" width="214.28572" x="132.5715" y="1232.71436"/>
  <rect fill="#FFEBA2" height="48.57143" id="ef22cd8cdf35439a9b31b5bda062bcbb-ao-24" stroke="#2D2D2D" width="237.14287" x="1041.14297" y="1318.42865"/>
  <rect fill="#FFEBA2" height="34.28572" id="ef22cd8cdf35439a9b31b5bda062bcbb-ao-25" stroke="#2D2D2D" width="197.14287" x="201.14294" y="1307.00008"/>
  <rect fill="#FFEBA2" height="31.42857" id="ef22cd8cdf35439a9b31b5bda062bcbb-ao-26" stroke="#2D2D2D" width="222.85715" x="261.14294" y="1378.42865"/>
  <rect class="qshape" fill="#FF7E7E" height="31.42857" id="ef22cd8cdf35439a9b31b5bda062bcbb-ao-27" stroke="#2D2D2D" width="325.7143" x="958.28583" y="1389.85722"/>
  <rect fill="#FFEBA2" height="28.57143" id="ef22cd8cdf35439a9b31b5bda062bcbb-ao-28" stroke="#2D2D2D" width="342.85716" x="375.42866" y="1441.2858"/>
  <rect fill="#FFEBA2" height="31.42857" id="ef22cd8cdf35439a9b31b5bda062bcbb-ao-29" stroke="#2D2D2D" width="165.71429" x="812.57154" y="1438.42866"/>
 </g>
</svg>