<svg height="1584" width="1058" xmlns="http://www.w3.org/2000/svg">
 <!-- Created with Image Occlusion Enhanced -->
 <g>
  <title>Labels</title>
 </g>
 <g>
  <title>Masks</title>
  <rect fill="#FFEBA2" height="77.14286" id="f11985d5a77d40599d08772144a6ce29-ao-1" stroke="#2D2D2D" width="185.71429" x="107.71432" y="67.42844"/>
  <rect fill="#FFEBA2" height="31.42857" id="f11985d5a77d40599d08772144a6ce29-ao-2" stroke="#2D2D2D" width="234.28572" x="747.71435" y="153.14273"/>
  <rect fill="#FFEBA2" height="31.42857" id="f11985d5a77d40599d08772144a6ce29-ao-3" stroke="#2D2D2D" width="211.42858" x="70.57147" y="190.28559"/>
  <rect fill="#FFEBA2" height="34.28572" id="f11985d5a77d40599d08772144a6ce29-ao-4" stroke="#2D2D2D" width="277.14287" x="750.57149" y="241.71416"/>
  <rect fill="#FFEBA2" height="28.57143" id="f11985d5a77d40599d08772144a6ce29-ao-5" stroke="#2D2D2D" width="177.14286" x="107.71432" y="270.28559"/>
  <rect fill="#FFEBA2" height="71.42857" id="f11985d5a77d40599d08772144a6ce29-ao-6" stroke="#2D2D2D" width="160.00001" x="127.71432" y="318.85702"/>
  <rect fill="#FFEBA2" height="51.42857" id="f11985d5a77d40599d08772144a6ce29-ao-7" stroke="#2D2D2D" width="274.28572" x="750.57149" y="330.28559"/>
  <rect fill="#FFEBA2" height="51.42857" id="f11985d5a77d40599d08772144a6ce29-ao-8" stroke="#2D2D2D" width="211.42858" x="87.71432" y="433.14274"/>
  <rect fill="#FFEBA2" height="48.57143" id="f11985d5a77d40599d08772144a6ce29-ao-9" stroke="#2D2D2D" width="217.14286" x="733.42863" y="447.42846"/>
  <rect fill="#FFEBA2" height="71.42857" id="f11985d5a77d40599d08772144a6ce29-ao-10" stroke="#2D2D2D" width="260.00001" x="56.28575" y="527.42846"/>
  <rect fill="#FFEBA2" height="74.28572" id="f11985d5a77d40599d08772144a6ce29-ao-11" stroke="#2D2D2D" width="168.57143" x="716.28577" y="553.14274"/>
  <rect fill="#FFEBA2" height="28.57143" id="f11985d5a77d40599d08772144a6ce29-ao-12" stroke="#2D2D2D" width="222.85715" x="79.14289" y="644.57132"/>
  <rect fill="#FFEBA2" height="34.28572" id="f11985d5a77d40599d08772144a6ce29-ao-13" stroke="#2D2D2D" width="228.57144" x="673.42863" y="704.57132"/>
  <rect fill="#FFEBA2" height="31.42857" id="f11985d5a77d40599d08772144a6ce29-ao-14" stroke="#2D2D2D" width="257.14287" x="44.85718" y="715.99989"/>
  <rect fill="#FFEBA2" height="31.42857" id="f11985d5a77d40599d08772144a6ce29-ao-15" stroke="#2D2D2D" width="120" x="182.00004" y="787.42847"/>
  <rect fill="#FFEBA2" height="51.42857" id="f11985d5a77d40599d08772144a6ce29-ao-16" stroke="#2D2D2D" width="91.42857" x="624.8572" y="798.85704"/>
  <rect fill="#FFEBA2" height="34.28572" id="f11985d5a77d40599d08772144a6ce29-ao-17" stroke="#2D2D2D" width="151.42858" x="150.57147" y="861.71418"/>
  <rect fill="#FFEBA2" height="51.42857" id="f11985d5a77d40599d08772144a6ce29-ao-18" stroke="#2D2D2D" width="168.57143" x="630.57148" y="913.14276"/>
  
  <rect fill="#FFEBA2" height="54.28572" id="f11985d5a77d40599d08772144a6ce29-ao-20" stroke="#2D2D2D" width="165.71429" x="136.28575" y="1001.71419"/>
  <rect fill="#FFEBA2" height="74.28572" id="f11985d5a77d40599d08772144a6ce29-ao-21" stroke="#2D2D2D" width="180.00001" x="624.8572" y="1021.71419"/>
  <rect fill="#FFEBA2" height="31.42857" id="f11985d5a77d40599d08772144a6ce29-ao-22" stroke="#2D2D2D" width="217.14286" x="82.00004" y="1095.99991"/>
  <rect fill="#FFEBA2" height="28.57143" id="f11985d5a77d40599d08772144a6ce29-ao-23" stroke="#2D2D2D" width="108.57143" x="190.57147" y="1170.28562"/>
  <rect fill="#FFEBA2" height="31.42857" id="f11985d5a77d40599d08772144a6ce29-ao-24" stroke="#2D2D2D" width="140" x="162.00004" y="1244.57134"/>
  <rect fill="#FFEBA2" height="31.42857" id="f11985d5a77d40599d08772144a6ce29-ao-25" stroke="#2D2D2D" width="111.42858" x="184.85718" y="1315.99991"/>
  <rect fill="#FFEBA2" height="51.42857" id="f11985d5a77d40599d08772144a6ce29-ao-26" stroke="#2D2D2D" width="168.57143" x="564.8572" y="1367.42849"/>
  <rect fill="#FFEBA2" height="48.57143" id="f11985d5a77d40599d08772144a6ce29-ao-27" stroke="#2D2D2D" width="182.85715" x="116.28575" y="1393.14277"/>
  <rect fill="#FFEBA2" height="48.57143" id="f11985d5a77d40599d08772144a6ce29-ao-28" stroke="#2D2D2D" width="162.85715" x="599.14291" y="1470.28563"/>
  <rect fill="#FFEBA2" height="45.71429" id="f11985d5a77d40599d08772144a6ce29-ao-29" stroke="#2D2D2D" width="177.14286" x="127.71432" y="1490.28563"/>
 </g>
</svg>