<svg height="623" width="1535.9999999999998" xmlns="http://www.w3.org/2000/svg">
 <!-- Created with Image Occlusion Enhanced -->
 <g>
  <title>Labels</title>
 </g>
 <g>
  <title>Masks</title>
  <rect fill="#FFEBA2" height="25.71429" id="f198b40008fd4f5bb709a1016784f79f-ao-1" stroke="#2D2D2D" width="94.28572" x="302.57151" y="56.99998"/>
  <rect fill="#FFEBA2" height="25.71429" id="f198b40008fd4f5bb709a1016784f79f-ao-2" stroke="#2D2D2D" width="94.28572" x="1145.42869" y="36.99997"/>
  <rect fill="#FFEBA2" height="25.71429" id="f198b40008fd4f5bb709a1016784f79f-ao-3" stroke="#2D2D2D" width="177.14287" x="319.71437" y="91.28569"/>
  <rect fill="#FFEBA2" height="28.57143" id="f198b40008fd4f5bb709a1016784f79f-ao-4" stroke="#2D2D2D" width="177.14287" x="1056.85726" y="76.99998"/>
  <rect fill="#FFEBA2" height="28.57143" id="f198b40008fd4f5bb709a1016784f79f-ao-5" stroke="#2D2D2D" width="102.85715" x="354.00009" y="125.57141"/>
  <rect fill="#FFEBA2" height="25.71429" id="f198b40008fd4f5bb709a1016784f79f-ao-6" stroke="#2D2D2D" width="100" x="1114.00012" y="111.28569"/>
  <rect fill="#FFEBA2" height="25.71429" id="f198b40008fd4f5bb709a1016784f79f-ao-7" stroke="#2D2D2D" width="54.28572" x="388.2858" y="162.71427"/>
  <rect fill="#FFEBA2" height="25.71429" id="f198b40008fd4f5bb709a1016784f79f-ao-8" stroke="#2D2D2D" width="197.14287" x="985.42869" y="139.85712"/>
  <rect fill="#FFEBA2" height="25.71429" id="f198b40008fd4f5bb709a1016784f79f-ao-9" stroke="#2D2D2D" width="57.14286" x="419.71437" y="196.99998"/>
  <rect fill="#FFEBA2" height="25.71429" id="f198b40008fd4f5bb709a1016784f79f-ao-10" stroke="#2D2D2D" width="57.14286" x="1062.57155" y="165.57141"/>
  <rect fill="#FFEBA2" height="28.57143" id="f198b40008fd4f5bb709a1016784f79f-ao-11" stroke="#2D2D2D" width="51.42857" x="1025.42869" y="191.2857"/>
  <rect fill="#FFEBA2" height="28.57143" id="f198b40008fd4f5bb709a1016784f79f-ao-12" stroke="#2D2D2D" width="165.71429" x="448.2858" y="234.14284"/>
  <rect class="qshape" fill="#FF7E7E" height="31.42857" id="f198b40008fd4f5bb709a1016784f79f-ao-13" stroke="#2D2D2D" width="157.14286" x="891.14297" y="222.71427"/>
  <rect fill="#FFEBA2" height="25.71429" id="f198b40008fd4f5bb709a1016784f79f-ao-14" stroke="#2D2D2D" width="71.42857" x="739.71439" y="291.2857"/>
  <rect fill="#FFEBA2" height="28.57143" id="f198b40008fd4f5bb709a1016784f79f-ao-15" stroke="#2D2D2D" width="57.14286" x="739.71439" y="434.14285"/>
  <g id="f198b40008fd4f5bb709a1016784f79f-ao-16">
   <rect fill="#FFEBA2" height="22.85714" stroke="#2D2D2D" width="117.14286" x="362.57151" y="445.57142"/>
   <rect fill="#FFEBA2" height="28.57143" stroke="#2D2D2D" width="168.57144" x="322.57151" y="471.28571"/>
   <rect fill="#FFEBA2" height="22.85714" stroke="#2D2D2D" width="154.28572" x="259.71437" y="502.71428"/>
   <rect fill="#FFEBA2" height="22.85714" stroke="#2D2D2D" width="105.71429" x="214.00008" y="531.28571"/>
   <rect fill="#FFEBA2" height="25.71429" stroke="#2D2D2D" width="74.28572" x="522.57152" y="488.42857"/>
  </g>
  <rect fill="#FFEBA2" height="28.57143" id="f198b40008fd4f5bb709a1016784f79f-ao-17" stroke="#2D2D2D" stroke-dasharray="null" stroke-linecap="null" stroke-linejoin="null" width="102.85715" x="965.42869" y="431.28571"/>
  <rect fill="#FFEBA2" height="28.57143" id="f198b40008fd4f5bb709a1016784f79f-ao-18" stroke="#2D2D2D" stroke-dasharray="null" stroke-linecap="null" stroke-linejoin="null" width="168.57144" x="1019.7144" y="459.85714"/>
  <rect fill="#FFEBA2" height="25.71429" id="f198b40008fd4f5bb709a1016784f79f-ao-19" stroke="#2D2D2D" stroke-dasharray="null" stroke-linecap="null" stroke-linejoin="null" width="154.28572" x="1105.42869" y="491.28571"/>
  <rect fill="#FFEBA2" height="22.85714" id="f198b40008fd4f5bb709a1016784f79f-ao-20" stroke="#2D2D2D" stroke-dasharray="null" stroke-linecap="null" stroke-linejoin="null" width="102.85715" x="1216.85727" y="525.57143"/>
 </g>
</svg>