<svg height="1154" width="1535.9999999999998" xmlns="http://www.w3.org/2000/svg">
 <!-- Created with Image Occlusion Enhanced -->
 <g>
  <title>Labels</title>
 </g>
 <g>
  <title>Masks</title>
  <rect fill="#FFEBA2" height="31.42857" id="f7914fa7a6d8484c8d3e0f40cdbc81d0-ao-1" stroke="#2D2D2D" width="217.14287" x="505.42866" y="258.85715"/>
  <rect fill="#FFEBA2" height="28.57143" id="f7914fa7a6d8484c8d3e0f40cdbc81d0-ao-2" stroke="#2D2D2D" width="211.42858" x="791.14296" y="290.28573"/>
  <rect fill="#FFEBA2" height="25.71429" id="f7914fa7a6d8484c8d3e0f40cdbc81d0-ao-3" stroke="#2D2D2D" width="65.71429" x="508.28581" y="321.7143"/>
  <rect fill="#FFEBA2" height="28.57143" id="f7914fa7a6d8484c8d3e0f40cdbc81d0-ao-4" stroke="#2D2D2D" width="77.14286" x="994.00011" y="364.57145"/>
  <rect fill="#FFEBA2" height="34.28572" id="f7914fa7a6d8484c8d3e0f40cdbc81d0-ao-5" stroke="#2D2D2D" width="251.42858" x="199.71436" y="390.28573"/>
  <rect fill="#FFEBA2" height="31.42857" id="f7914fa7a6d8484c8d3e0f40cdbc81d0-ao-6" stroke="#2D2D2D" width="74.28572" x="1076.85726" y="427.42859"/>
  <rect fill="#FFEBA2" height="31.42857" id="f7914fa7a6d8484c8d3e0f40cdbc81d0-ao-7" stroke="#2D2D2D" width="182.85715" x="199.71436" y="473.14288"/>
  <rect fill="#FFEBA2" height="31.42857" id="f7914fa7a6d8484c8d3e0f40cdbc81d0-ao-8" stroke="#2D2D2D" width="182.85715" x="1142.57155" y="484.57145"/>
  <rect fill="#FFEBA2" height="28.57143" id="f7914fa7a6d8484c8d3e0f40cdbc81d0-ao-9" stroke="#2D2D2D" width="77.14286" x="268.2858" y="541.71431"/>
  <rect fill="#FFEBA2" height="48.57143" id="f7914fa7a6d8484c8d3e0f40cdbc81d0-ao-10" stroke="#2D2D2D" width="185.71429" x="1174.00012" y="564.57145"/>
  <rect fill="#FFEBA2" height="51.42857" id="f7914fa7a6d8484c8d3e0f40cdbc81d0-ao-11" stroke="#2D2D2D" width="191.42858" x="162.57151" y="584.57146"/>
  <rect class="qshape" fill="#FF7E7E" height="54.28572" id="f7914fa7a6d8484c8d3e0f40cdbc81d0-ao-12" stroke="#2D2D2D" width="191.42858" x="134.00008" y="667.4286"/>
  <rect fill="#FFEBA2" height="168.57144" id="f7914fa7a6d8484c8d3e0f40cdbc81d0-ao-13" stroke="#2D2D2D" width="191.42858" x="1216.85727" y="681.71432"/>
  <rect fill="#FFEBA2" height="51.42857" id="f7914fa7a6d8484c8d3e0f40cdbc81d0-ao-14" stroke="#2D2D2D" width="137.14286" x="156.85722" y="796.00004"/>
  <rect fill="#FFEBA2" height="34.28572" id="f7914fa7a6d8484c8d3e0f40cdbc81d0-ao-15" stroke="#2D2D2D" width="145.71429" x="162.57151" y="904.57147"/>
  <rect fill="#FFEBA2" height="31.42857" id="f7914fa7a6d8484c8d3e0f40cdbc81d0-ao-16" stroke="#2D2D2D" width="97.14286" x="1228.28584" y="936.00004"/>
  <rect fill="#FFEBA2" height="37.14286" id="f7914fa7a6d8484c8d3e0f40cdbc81d0-ao-17" stroke="#2D2D2D" width="191.42858" x="176.85722" y="1004.57147"/>
  <rect fill="#FFEBA2" height="28.57143" id="f7914fa7a6d8484c8d3e0f40cdbc81d0-ao-18" stroke="#2D2D2D" width="217.14287" x="1165.42869" y="1036.00005"/>
  <rect fill="#FFEBA2" height="54.28572" id="f7914fa7a6d8484c8d3e0f40cdbc81d0-ao-19" stroke="#2D2D2D" width="200.00001" x="176.85722" y="1084.57148"/>
 </g>
</svg>