<svg height="706" width="1284" xmlns="http://www.w3.org/2000/svg">
 <!-- Created with Image Occlusion Enhanced -->
 <g>
  <title>Labels</title>
 </g>
 <g>
  <title>Masks</title>
  <rect fill="#FFEBA2" height="28.57143" id="f7b5664b4d56468b99a47f15c0c9c469-ao-1" stroke="#2D2D2D" width="280" x="730.28574" y="56.85711"/>
  <rect fill="#FFEBA2" height="25.71429" id="f7b5664b4d56468b99a47f15c0c9c469-ao-2" stroke="#2D2D2D" width="162.85715" x="438.85717" y="73.99997"/>
  <rect fill="#FFEBA2" height="25.71429" id="f7b5664b4d56468b99a47f15c0c9c469-ao-3" stroke="#2D2D2D" width="257.14286" x="796.00003" y="113.99997"/>
  <rect fill="#FFEBA2" height="28.57143" id="f7b5664b4d56468b99a47f15c0c9c469-ao-4" stroke="#2D2D2D" width="188.57143" x="347.42859" y="125.42854"/>
  <rect fill="#FFEBA2" height="25.71429" id="f7b5664b4d56468b99a47f15c0c9c469-ao-5" stroke="#2D2D2D" width="182.85715" x="913.14289" y="168.28569"/>
  <rect fill="#FFEBA2" height="28.57143" id="f7b5664b4d56468b99a47f15c0c9c469-ao-6" stroke="#2D2D2D" width="271.42858" x="218.85716" y="182.5714"/>
  
  <rect fill="#FFEBA2" height="25.71429" id="f7b5664b4d56468b99a47f15c0c9c469-ao-8" stroke="#2D2D2D" width="165.71429" x="298.85716" y="242.5714"/>
  <rect fill="#FFEBA2" height="25.71429" id="f7b5664b4d56468b99a47f15c0c9c469-ao-9" stroke="#2D2D2D" width="257.14286" x="1016.00003" y="282.5714"/>
  <rect fill="#FFEBA2" height="25.71429" id="f7b5664b4d56468b99a47f15c0c9c469-ao-10" stroke="#2D2D2D" width="202.85715" x="184.57145" y="299.71426"/>
  <rect fill="#FFEBA2" height="28.57143" id="f7b5664b4d56468b99a47f15c0c9c469-ao-11" stroke="#2D2D2D" width="177.14286" x="1016.00003" y="333.99997"/>
  <rect fill="#FFEBA2" height="25.71429" id="f7b5664b4d56468b99a47f15c0c9c469-ao-12" stroke="#2D2D2D" width="231.42857" x="121.7143" y="353.99997"/>
  <rect fill="#FFEBA2" height="28.57143" id="f7b5664b4d56468b99a47f15c0c9c469-ao-13" stroke="#2D2D2D" width="160" x="1013.14289" y="388.28569"/>
  <rect fill="#FFEBA2" height="25.71429" id="f7b5664b4d56468b99a47f15c0c9c469-ao-14" stroke="#2D2D2D" width="177.14286" x="76.00002" y="411.14283"/>
  <rect fill="#FFEBA2" height="25.71429" id="f7b5664b4d56468b99a47f15c0c9c469-ao-15" stroke="#2D2D2D" width="254.28572" x="1016.00003" y="445.42855"/>
  <rect fill="#FFEBA2" height="51.42857" id="f7b5664b4d56468b99a47f15c0c9c469-ao-16" stroke="#2D2D2D" width="208.57143" x="30.28573" y="462.5714"/>
  <rect fill="#FFEBA2" height="28.57143" id="f7b5664b4d56468b99a47f15c0c9c469-ao-17" stroke="#2D2D2D" width="208.57143" x="1013.14289" y="499.71426"/>
  <rect fill="#FFEBA2" height="48.57143" id="f7b5664b4d56468b99a47f15c0c9c469-ao-18" stroke="#2D2D2D" width="140" x="33.14288" y="553.99998"/>
  <rect fill="#FFEBA2" height="31.42857" id="f7b5664b4d56468b99a47f15c0c9c469-ao-19" stroke="#2D2D2D" width="211.42857" x="36.00002" y="625.42855"/>
 </g>
</svg>