<svg height="759" width="1344" xmlns="http://www.w3.org/2000/svg">
 <!-- Created with Image Occlusion Enhanced -->
 <g>
  <title>Labels</title>
 </g>
 <g>
  <title>Masks</title>
  
  <rect fill="#FFEBA2" height="25.71429" id="f8efff43c2084d088a96356b6fae7284-ao-2" stroke="#2D2D2D" width="202.85715" x="800.28574" y="15.28573"/>
  <rect fill="#FFEBA2" height="31.42857" id="f8efff43c2084d088a96356b6fae7284-ao-3" stroke="#2D2D2D" width="137.14286" x="283.14287" y="58.14288"/>
  <rect fill="#FFEBA2" height="31.42857" id="f8efff43c2084d088a96356b6fae7284-ao-4" stroke="#2D2D2D" width="237.14286" x="817.4286" y="55.28573"/>
  <rect fill="#FFEBA2" height="28.57143" id="f8efff43c2084d088a96356b6fae7284-ao-5" stroke="#2D2D2D" width="205.71429" x="851.71432" y="95.28573"/>
  <rect fill="#FFEBA2" height="48.57143" id="f8efff43c2084d088a96356b6fae7284-ao-6" stroke="#2D2D2D" width="225.71429" x="940.28575" y="138.14288"/>
  <rect fill="#FFEBA2" height="45.71429" id="f8efff43c2084d088a96356b6fae7284-ao-7" stroke="#2D2D2D" width="265.71429" x="986.00003" y="203.85716"/>
  <rect fill="#FFEBA2" height="22.85714" id="f8efff43c2084d088a96356b6fae7284-ao-8" stroke="#2D2D2D" width="194.28572" x="1017.42861" y="263.85717"/>
  <rect fill="#FFEBA2" height="68.57143" id="f8efff43c2084d088a96356b6fae7284-ao-9" stroke="#2D2D2D" width="214.28572" x="1026.00003" y="309.57145"/>
  <rect fill="#FFEBA2" height="28.57143" id="f8efff43c2084d088a96356b6fae7284-ao-10" stroke="#2D2D2D" width="220.00001" x="51.7143" y="392.4286"/>
  <rect fill="#FFEBA2" height="71.42857" id="f8efff43c2084d088a96356b6fae7284-ao-11" stroke="#2D2D2D" width="265.71429" x="1031.71432" y="401.00003"/>
  <rect fill="#FFEBA2" height="51.42857" id="f8efff43c2084d088a96356b6fae7284-ao-12" stroke="#2D2D2D" width="171.42858" x="51.7143" y="441.00003"/>
  <rect fill="#FFEBA2" height="28.57143" id="f8efff43c2084d088a96356b6fae7284-ao-13" stroke="#2D2D2D" width="194.28572" x="1028.85718" y="492.4286"/>
  <rect fill="#FFEBA2" height="54.28572" id="f8efff43c2084d088a96356b6fae7284-ao-14" stroke="#2D2D2D" width="160" x="71.7143" y="515.28574"/>
  <rect fill="#FFEBA2" height="48.57143" id="f8efff43c2084d088a96356b6fae7284-ao-15" stroke="#2D2D2D" width="260.00001" x="1020.28575" y="535.28574"/>
  <rect fill="#FFEBA2" height="51.42857" id="f8efff43c2084d088a96356b6fae7284-ao-16" stroke="#2D2D2D" width="162.85715" x="60.28573" y="589.57146"/>
  <rect fill="#FFEBA2" height="57.14286" id="f8efff43c2084d088a96356b6fae7284-ao-17" stroke="#2D2D2D" width="282.85715" x="988.85718" y="618.14289"/>
  <rect fill="#FFEBA2" height="48.57143" id="f8efff43c2084d088a96356b6fae7284-ao-18" stroke="#2D2D2D" width="265.71429" x="100.28573" y="663.85718"/>
 </g>
</svg>