<svg height="1550" width="1535.9999999999998" xmlns="http://www.w3.org/2000/svg">
 <!-- Created with Image Occlusion Enhanced -->
 <g>
  <title>Labels</title>
 </g>
 <g>
  <title>Masks</title>
  <rect fill="#FFEBA2" height="54.28572" id="fa92786c3cb14dbb9a535744688ead1a-ao-1" stroke="#2D2D2D" width="168.57144" x="244.00008" y="11.42854"/>
  <rect fill="#FFEBA2" height="31.42857" id="fa92786c3cb14dbb9a535744688ead1a-ao-2" stroke="#2D2D2D" width="288.57144" x="1098.28583" y="11.42854"/>
  <rect fill="#FFEBA2" height="31.42857" id="fa92786c3cb14dbb9a535744688ead1a-ao-3" stroke="#2D2D2D" width="148.57144" x="215.42865" y="97.14283"/>
  <rect fill="#FFEBA2" height="51.42857" id="fa92786c3cb14dbb9a535744688ead1a-ao-4" stroke="#2D2D2D" width="234.28572" x="1106.85726" y="77.14283"/>
  <rect fill="#FFEBA2" height="54.28572" id="fa92786c3cb14dbb9a535744688ead1a-ao-5" stroke="#2D2D2D" width="222.85715" x="155.42865" y="162.85712"/>
  <rect fill="#FFEBA2" height="31.42857" id="fa92786c3cb14dbb9a535744688ead1a-ao-6" stroke="#2D2D2D" width="240.00001" x="1118.28583" y="159.99997"/>
  <rect fill="#FFEBA2" height="57.14286" id="fa92786c3cb14dbb9a535744688ead1a-ao-7" stroke="#2D2D2D" width="220.00001" x="155.42865" y="245.71426"/>
  <rect fill="#FFEBA2" height="48.57143" id="fa92786c3cb14dbb9a535744688ead1a-ao-8" stroke="#2D2D2D" width="225.7143" x="1132.57155" y="222.85712"/>
  <rect fill="#FFEBA2" height="57.14286" id="fa92786c3cb14dbb9a535744688ead1a-ao-9" stroke="#2D2D2D" width="151.42858" x="1138.28584" y="305.71426"/>
  <rect fill="#FFEBA2" height="28.57143" id="fa92786c3cb14dbb9a535744688ead1a-ao-10" stroke="#2D2D2D" width="174.28572" x="204.00008" y="331.42855"/>
  <rect fill="#FFEBA2" height="51.42857" id="fa92786c3cb14dbb9a535744688ead1a-ao-11" stroke="#2D2D2D" width="237.14287" x="1149.71441" y="371.42855"/>
  <rect fill="#FFEBA2" height="74.28572" id="fa92786c3cb14dbb9a535744688ead1a-ao-12" stroke="#2D2D2D" width="245.7143" x="158.28579" y="397.14284"/>
  <rect fill="#FFEBA2" height="31.42857" id="fa92786c3cb14dbb9a535744688ead1a-ao-13" stroke="#2D2D2D" width="145.71429" x="1146.85726" y="454.2857"/>
  <rect fill="#FFEBA2" height="45.71429" id="fa92786c3cb14dbb9a535744688ead1a-ao-14" stroke="#2D2D2D" width="222.85715" x="164.00008" y="502.85713"/>
  <rect fill="#FFEBA2" height="22.85714" id="fa92786c3cb14dbb9a535744688ead1a-ao-15" stroke="#2D2D2D" width="254.28573" x="1132.57155" y="519.99999"/>
  <rect fill="#FFEBA2" height="31.42857" id="fa92786c3cb14dbb9a535744688ead1a-ao-16" stroke="#2D2D2D" width="251.42858" x="161.14293" y="585.71428"/>
  <rect fill="#FFEBA2" height="77.14286" id="fa92786c3cb14dbb9a535744688ead1a-ao-17" stroke="#2D2D2D" width="268.57144" x="1129.71441" y="579.99999"/>
  <rect fill="#FFEBA2" height="71.42857" id="fa92786c3cb14dbb9a535744688ead1a-ao-18" stroke="#2D2D2D" width="262.85715" x="161.14293" y="648.57142"/>
  <rect fill="#FFEBA2" height="28.57143" id="fa92786c3cb14dbb9a535744688ead1a-ao-19" stroke="#2D2D2D" width="177.14287" x="1144.00012" y="685.71428"/>
  <rect fill="#FFEBA2" height="31.42857" id="fa92786c3cb14dbb9a535744688ead1a-ao-20" stroke="#2D2D2D" width="211.42858" x="1132.57155" y="751.42857"/>
  <rect fill="#FFEBA2" height="28.57143" id="fa92786c3cb14dbb9a535744688ead1a-ao-21" stroke="#2D2D2D" width="202.85715" x="198.28579" y="751.42857"/>
  <rect fill="#FFEBA2" height="31.42857" id="fa92786c3cb14dbb9a535744688ead1a-ao-22" stroke="#2D2D2D" width="182.85715" x="1124.00012" y="808.57143"/>
  <rect fill="#FFEBA2" height="45.71429" id="fa92786c3cb14dbb9a535744688ead1a-ao-23" stroke="#2D2D2D" width="197.14287" x="209.71436" y="831.42857"/>
  <rect fill="#FFEBA2" height="28.57143" id="fa92786c3cb14dbb9a535744688ead1a-ao-24" stroke="#2D2D2D" width="200.00001" x="1112.57155" y="874.28572"/>
  <rect fill="#FFEBA2" height="28.57143" id="fa92786c3cb14dbb9a535744688ead1a-ao-25" stroke="#2D2D2D" width="211.42858" x="181.14294" y="928.57144"/>
  <rect fill="#FFEBA2" height="45.71429" id="fa92786c3cb14dbb9a535744688ead1a-ao-26" stroke="#2D2D2D" width="200.00001" x="1124.00012" y="954.28572"/>
  <rect fill="#FFEBA2" height="48.57143" id="fa92786c3cb14dbb9a535744688ead1a-ao-27" stroke="#2D2D2D" width="165.71429" x="266.85722" y="988.57144"/>
  <rect fill="#FFEBA2" height="45.71429" id="fa92786c3cb14dbb9a535744688ead1a-ao-28" stroke="#2D2D2D" width="174.28572" x="1112.57155" y="1022.85715"/>
  <rect fill="#FFEBA2" height="54.28572" id="fa92786c3cb14dbb9a535744688ead1a-ao-29" stroke="#2D2D2D" width="208.57144" x="189.71436" y="1074.28573"/>
  <rect class="qshape" fill="#FF7E7E" height="51.42857" id="fa92786c3cb14dbb9a535744688ead1a-ao-30" stroke="#2D2D2D" width="171.42858" x="1124.00012" y="1105.7143"/>
  <rect fill="#FFEBA2" height="31.42857" id="fa92786c3cb14dbb9a535744688ead1a-ao-31" stroke="#2D2D2D" width="140.00001" x="255.42865" y="1151.42859"/>
  <rect fill="#FFEBA2" height="28.57143" id="fa92786c3cb14dbb9a535744688ead1a-ao-32" stroke="#2D2D2D" width="200.00001" x="1135.42869" y="1191.42859"/>
  <rect fill="#FFEBA2" height="51.42857" id="fa92786c3cb14dbb9a535744688ead1a-ao-33" stroke="#2D2D2D" width="162.85715" x="258.2858" y="1217.14288"/>
  <rect fill="#FFEBA2" height="60" id="fa92786c3cb14dbb9a535744688ead1a-ao-34" stroke="#2D2D2D" width="228.57144" x="1166.85727" y="1254.28574"/>
  <rect fill="#FFEBA2" height="48.57143" id="fa92786c3cb14dbb9a535744688ead1a-ao-35" stroke="#2D2D2D" width="171.42858" x="218.28579" y="1311.4286"/>
  <rect fill="#FFEBA2" height="31.42857" id="fa92786c3cb14dbb9a535744688ead1a-ao-36" stroke="#2D2D2D" width="177.14287" x="158.28579" y="1388.57146"/>
  <rect fill="#FFEBA2" height="28.57143" id="fa92786c3cb14dbb9a535744688ead1a-ao-37" stroke="#2D2D2D" width="220.00001" x="144.00008" y="1454.28575"/>
 </g>
</svg>