<svg height="502" width="628" xmlns="http://www.w3.org/2000/svg">
 <!-- Created with Image Occlusion Enhanced -->
 <g>
  <title>Labels</title>
 </g>
 <g>
  <title>Masks</title>
  <rect fill="#FFEBA2" height="26.66667" id="fb9e05b37a03493d985fe7cedeb3177b-ao-1" stroke="#2D2D2D" width="191.11112" x="95.33331" y="86.8889"/>
  <rect fill="#FFEBA2" height="24.44445" id="fb9e05b37a03493d985fe7cedeb3177b-ao-2" stroke="#2D2D2D" width="144.44445" x="335.33331" y="93.55557"/>
  <rect fill="#FFEBA2" height="26.66667" id="fb9e05b37a03493d985fe7cedeb3177b-ao-3" stroke="#2D2D2D" width="151.11112" x="379.77776" y="135.7778"/>
  <rect fill="#FFEBA2" height="26.66667" id="fb9e05b37a03493d985fe7cedeb3177b-ao-4" stroke="#2D2D2D" width="228.8889" x="35.33331" y="146.88891"/>
  <rect fill="#FFEBA2" height="26.66667" id="fb9e05b37a03493d985fe7cedeb3177b-ao-5" stroke="#2D2D2D" width="142.22223" x="433.11109" y="182.44446"/>
  <rect fill="#FFEBA2" height="28.88889" id="fb9e05b37a03493d985fe7cedeb3177b-ao-6" stroke="#2D2D2D" width="193.33334" x="30.88886" y="198.00002"/>
  <rect fill="#FFEBA2" height="26.66667" id="fb9e05b37a03493d985fe7cedeb3177b-ao-7" stroke="#2D2D2D" width="55.55556" x="479.77776" y="224.66669"/>
  
  <rect fill="#FFEBA2" height="26.66667" id="fb9e05b37a03493d985fe7cedeb3177b-ao-9" stroke="#2D2D2D" width="142.22223" x="475.33332" y="266.88891"/>
  <rect fill="#FFEBA2" height="26.66667" id="fb9e05b37a03493d985fe7cedeb3177b-ao-10" stroke="#2D2D2D" width="135.55556" x="50.88886" y="304.66669"/>
  <rect fill="#FFEBA2" height="24.44445" id="fb9e05b37a03493d985fe7cedeb3177b-ao-11" stroke="#2D2D2D" width="166.66667" x="444.22221" y="313.55558"/>
  <rect fill="#FFEBA2" height="28.88889" id="fb9e05b37a03493d985fe7cedeb3177b-ao-12" stroke="#2D2D2D" width="64.44445" x="115.33331" y="355.7778"/>
  <rect fill="#FFEBA2" height="26.66667" id="fb9e05b37a03493d985fe7cedeb3177b-ao-13" stroke="#2D2D2D" width="144.44445" x="341.99998" y="360.22225"/>
  <rect fill="#FFEBA2" height="26.66667" id="fb9e05b37a03493d985fe7cedeb3177b-ao-14" stroke="#2D2D2D" width="124.44445" x="326.44442" y="402.44447"/>
  <rect fill="#FFEBA2" height="24.44445" id="fb9e05b37a03493d985fe7cedeb3177b-ao-15" stroke="#2D2D2D" width="157.77778" x="41.99997" y="409.11114"/>
  <rect fill="#FFEBA2" height="24.44445" id="fb9e05b37a03493d985fe7cedeb3177b-ao-16" stroke="#2D2D2D" width="162.22223" x="264.2222" y="446.88891"/>
 </g>
</svg>