<svg height="1533" width="1535.9999999999998" xmlns="http://www.w3.org/2000/svg">
 <!-- Created with Image Occlusion Enhanced -->
 <g>
  <title>Labels</title>
 </g>
 <g>
  <title>Masks</title>
  <rect fill="#FFEBA2" height="25.71429" id="fbacaca143514515a34927b29bb7c239-ao-1" stroke="#2D2D2D" width="168.57144" x="381.14294" y="5.57145"/>
  <rect fill="#FFEBA2" height="25.71429" id="fbacaca143514515a34927b29bb7c239-ao-2" stroke="#2D2D2D" width="151.42858" x="584.0001" y="2.7143"/>
  <rect fill="#FFEBA2" height="31.42857" id="fbacaca143514515a34927b29bb7c239-ao-3" stroke="#2D2D2D" width="194.28572" x="304.00008" y="45.57145"/>
  <rect fill="#FFEBA2" height="28.57143" id="fbacaca143514515a34927b29bb7c239-ao-4" stroke="#2D2D2D" width="245.7143" x="624.0001" y="54.14288"/>
  <rect fill="#FFEBA2" height="25.71429" id="fbacaca143514515a34927b29bb7c239-ao-5" stroke="#2D2D2D" width="177.14287" x="1229.71441" y="65.57145"/>
  <rect fill="#FFEBA2" height="25.71429" id="fbacaca143514515a34927b29bb7c239-ao-6" stroke="#2D2D2D" width="245.7143" x="192.57151" y="94.14288"/>
  <rect fill="#FFEBA2" height="25.71429" id="fbacaca143514515a34927b29bb7c239-ao-7" stroke="#2D2D2D" width="242.85715" x="655.42867" y="105.57145"/>
  <rect fill="#FFEBA2" height="25.71429" id="fbacaca143514515a34927b29bb7c239-ao-8" stroke="#2D2D2D" width="171.42858" x="1204.00012" y="128.42859"/>
  <rect fill="#FFEBA2" height="22.85714" id="fbacaca143514515a34927b29bb7c239-ao-9" stroke="#2D2D2D" width="234.28572" x="172.57151" y="145.57145"/>
  <rect fill="#FFEBA2" height="31.42857" id="fbacaca143514515a34927b29bb7c239-ao-10" stroke="#2D2D2D" width="340.00002" x="689.71439" y="159.85717"/>
  <rect fill="#FFEBA2" height="25.71429" id="fbacaca143514515a34927b29bb7c239-ao-11" stroke="#2D2D2D" width="200.00001" x="1149.71441" y="194.14288"/>
  <rect fill="#FFEBA2" height="45.71429" id="fbacaca143514515a34927b29bb7c239-ao-12" stroke="#2D2D2D" width="177.14287" x="181.14294" y="188.4286"/>
  <rect fill="#FFEBA2" height="48.57143" id="fbacaca143514515a34927b29bb7c239-ao-13" stroke="#2D2D2D" width="194.28572" x="724.00011" y="214.14288"/>
  <rect fill="#FFEBA2" height="51.42857" id="fbacaca143514515a34927b29bb7c239-ao-14" stroke="#2D2D2D" width="140.00001" x="178.28579" y="254.14289"/>
  <rect fill="#FFEBA2" height="22.85714" id="fbacaca143514515a34927b29bb7c239-ao-15" stroke="#2D2D2D" width="180.00001" x="764.0001" y="288.4286"/>
  <rect fill="#FFEBA2" height="68.57143" id="fbacaca143514515a34927b29bb7c239-ao-16" stroke="#2D2D2D" width="251.42858" x="1064.00012" y="262.71432"/>
  <rect fill="#FFEBA2" height="22.85714" id="fbacaca143514515a34927b29bb7c239-ao-17" stroke="#2D2D2D" width="191.42858" x="801.14296" y="337.00003"/>
  <rect fill="#FFEBA2" height="25.71429" id="fbacaca143514515a34927b29bb7c239-ao-18" stroke="#2D2D2D" width="234.28572" x="1015.42869" y="377.00003"/>
  <rect fill="#FFEBA2" height="25.71429" id="fbacaca143514515a34927b29bb7c239-ao-19" stroke="#2D2D2D" width="171.42858" x="832.57154" y="391.28575"/>
  <rect fill="#FFEBA2" height="28.57143" id="fbacaca143514515a34927b29bb7c239-ao-20" stroke="#2D2D2D" width="260.00001" x="929.7144" y="445.57147"/>
  <rect fill="#FFEBA2" height="48.57143" id="fbacaca143514515a34927b29bb7c239-ao-21" stroke="#2D2D2D" width="180.00001" x="915.42868" y="491.28575"/>
  <rect fill="#FFEBA2" height="22.85714" id="fbacaca143514515a34927b29bb7c239-ao-22" stroke="#2D2D2D" width="168.57144" x="344.00009" y="1131.28578"/>
  <rect fill="#FFEBA2" height="48.57143" id="fbacaca143514515a34927b29bb7c239-ao-23" stroke="#2D2D2D" width="137.14286" x="789.71439" y="1142.71436"/>
  <rect fill="#FFEBA2" height="48.57143" id="fbacaca143514515a34927b29bb7c239-ao-24" stroke="#2D2D2D" width="145.71429" x="1261.14298" y="1119.85721"/>
  <rect fill="#FFEBA2" height="25.71429" id="fbacaca143514515a34927b29bb7c239-ao-25" stroke="#2D2D2D" width="214.28572" x="332.57151" y="1171.28578"/>
  <rect fill="#FFEBA2" height="34.28572" id="fbacaca143514515a34927b29bb7c239-ao-26" stroke="#2D2D2D" width="254.28573" x="1189.71441" y="1188.42864"/>
  <rect fill="#FFEBA2" height="28.57143" id="fbacaca143514515a34927b29bb7c239-ao-27" stroke="#2D2D2D" width="225.7143" x="309.71437" y="1214.14293"/>
  <rect fill="#FFEBA2" height="48.57143" id="fbacaca143514515a34927b29bb7c239-ao-28" stroke="#2D2D2D" width="162.85715" x="744.0001" y="1199.85721"/>
  <rect fill="#FFEBA2" height="45.71429" id="fbacaca143514515a34927b29bb7c239-ao-29" stroke="#2D2D2D" width="260.00001" x="1172.57155" y="1239.85722"/>
  <rect fill="#FFEBA2" height="25.71429" id="fbacaca143514515a34927b29bb7c239-ao-30" stroke="#2D2D2D" width="142.85715" x="278.2858" y="1254.14293"/>
  <rect fill="#FFEBA2" height="42.85714" id="fbacaca143514515a34927b29bb7c239-ao-31" stroke="#2D2D2D" width="177.14287" x="698.28582" y="1259.85722"/>
  <rect fill="#FFEBA2" height="28.57143" id="fbacaca143514515a34927b29bb7c239-ao-32" stroke="#2D2D2D" width="234.28573" x="1112.57155" y="1305.57151"/>
  <rect fill="#FFEBA2" height="28.57143" id="fbacaca143514515a34927b29bb7c239-ao-33" stroke="#2D2D2D" width="220.00001" x="229.71437" y="1294.14293"/>
  <rect fill="#FFEBA2" height="25.71429" id="fbacaca143514515a34927b29bb7c239-ao-34" stroke="#2D2D2D" width="202.85715" x="655.42867" y="1331.28579"/>
  <rect fill="#FFEBA2" height="25.71429" id="fbacaca143514515a34927b29bb7c239-ao-35" stroke="#2D2D2D" width="257.14287" x="166.85722" y="1339.85722"/>
  <rect fill="#FFEBA2" height="45.71429" id="fbacaca143514515a34927b29bb7c239-ao-36" stroke="#2D2D2D" width="291.42858" x="1081.14298" y="1357.00008"/>
  <rect fill="#FFEBA2" height="31.42857" id="fbacaca143514515a34927b29bb7c239-ao-37" stroke="#2D2D2D" width="222.85715" x="621.14296" y="1382.71437"/>
  
  <rect fill="#FFEBA2" height="48.57143" id="fbacaca143514515a34927b29bb7c239-ao-39" stroke="#2D2D2D" width="205.7143" x="578.28581" y="1437.00008"/>
  <rect fill="#FFEBA2" height="25.71429" id="fbacaca143514515a34927b29bb7c239-ao-40" stroke="#2D2D2D" width="317.14287" x="972.57154" y="1474.14294"/>
 </g>
</svg>