<svg height="825" width="1535.9999999999998" xmlns="http://www.w3.org/2000/svg">
 <!-- Created with Image Occlusion Enhanced -->
 <g>
  <title>Labels</title>
 </g>
 <g>
  <title>Masks</title>
  <rect fill="#FFEBA2" height="57.14286" id="fbc46006e6014bbd839dbb13c253513e-ao-1" stroke="#2D2D2D" width="108.57143" x="129.71436" y="124.99999"/>
  <rect fill="#FFEBA2" height="31.42857" id="fbc46006e6014bbd839dbb13c253513e-ao-2" stroke="#2D2D2D" width="62.85715" x="1261.14298" y="116.42856"/>
  <rect class="qshape" fill="#FF7E7E" height="31.42857" id="fbc46006e6014bbd839dbb13c253513e-ao-3" stroke="#2D2D2D" width="131.42858" x="129.71436" y="199.2857"/>
  <rect fill="#FFEBA2" height="57.14286" id="fbc46006e6014bbd839dbb13c253513e-ao-4" stroke="#2D2D2D" width="114.28572" x="1264.00013" y="190.71428"/>
  <rect fill="#FFEBA2" height="54.28572" id="fbc46006e6014bbd839dbb13c253513e-ao-5" stroke="#2D2D2D" width="142.85715" x="129.71436" y="239.28571"/>
  <rect fill="#FFEBA2" height="48.57143" id="fbc46006e6014bbd839dbb13c253513e-ao-6" stroke="#2D2D2D" width="77.14286" x="1264.00013" y="270.71428"/>
  <rect fill="#FFEBA2" height="54.28572" id="fbc46006e6014bbd839dbb13c253513e-ao-7" stroke="#2D2D2D" width="102.85715" x="132.5715" y="385"/>
  <rect fill="#FFEBA2" height="31.42857" id="fbc46006e6014bbd839dbb13c253513e-ao-8" stroke="#2D2D2D" width="131.42858" x="1264.00013" y="385"/>
  <rect fill="#FFEBA2" height="31.42857" id="fbc46006e6014bbd839dbb13c253513e-ao-9" stroke="#2D2D2D" width="60" x="132.5715" y="453.57143"/>
  <rect fill="#FFEBA2" height="48.57143" id="fbc46006e6014bbd839dbb13c253513e-ao-10" stroke="#2D2D2D" width="114.28572" x="1264.00013" y="473.57143"/>
  <rect fill="#FFEBA2" height="51.42857" id="fbc46006e6014bbd839dbb13c253513e-ao-11" stroke="#2D2D2D" width="105.71429" x="129.71436" y="530.71429"/>
  <rect fill="#FFEBA2" height="45.71429" id="fbc46006e6014bbd839dbb13c253513e-ao-12" stroke="#2D2D2D" width="97.14286" x="1261.14298" y="527.85715"/>
  <rect fill="#FFEBA2" height="25.71429" id="fbc46006e6014bbd839dbb13c253513e-ao-13" stroke="#2D2D2D" width="77.14286" x="129.71436" y="596.42858"/>
  <rect fill="#FFEBA2" height="45.71429" id="fbc46006e6014bbd839dbb13c253513e-ao-14" stroke="#2D2D2D" width="91.42858" x="1264.00013" y="587.85715"/>
  <rect fill="#FFEBA2" height="48.57143" id="fbc46006e6014bbd839dbb13c253513e-ao-15" stroke="#2D2D2D" width="114.28572" x="1261.14298" y="656.42858"/>
  <rect fill="#FFEBA2" height="28.57143" id="fbc46006e6014bbd839dbb13c253513e-ao-16" stroke="#2D2D2D" width="71.42857" x="132.5715" y="756.42859"/>
  <rect fill="#FFEBA2" height="48.57143" id="fbc46006e6014bbd839dbb13c253513e-ao-17" stroke="#2D2D2D" width="102.85715" x="1264.00013" y="716.42859"/>
 </g>
</svg>