<svg height="1455" width="1083" xmlns="http://www.w3.org/2000/svg">
 <!-- Created with Image Occlusion Enhanced -->
 <g>
  <title>Labels</title>
 </g>
 <g>
  <title>Masks</title>
  <rect fill="#FFEBA2" height="30" id="fd5c63e0ec194f0d8cfeda9cbbf3addf-ao-1" stroke="#2D2D2D" width="122.5" x="650.74995" y="26.25"/>
  <rect fill="#FFEBA2" height="77.5" id="fd5c63e0ec194f0d8cfeda9cbbf3addf-ao-2" stroke="#2D2D2D" width="127.5" x="810.74995" y="31.25"/>
  <rect fill="#FFEBA2" height="67.5" id="fd5c63e0ec194f0d8cfeda9cbbf3addf-ao-3" stroke="#2D2D2D" width="270" x="320.74995" y="336.25"/>
  <rect fill="#FFEBA2" height="30" id="fd5c63e0ec194f0d8cfeda9cbbf3addf-ao-4" stroke="#2D2D2D" width="157.5" x="368.24995" y="421.25"/>
  <rect fill="#FFEBA2" height="27.5" id="fd5c63e0ec194f0d8cfeda9cbbf3addf-ao-5" stroke="#2D2D2D" width="75" x="443.24995" y="468.75"/>
  <rect fill="#FFEBA2" height="25" id="fd5c63e0ec194f0d8cfeda9cbbf3addf-ao-6" stroke="#2D2D2D" width="185" x="320.74995" y="513.75"/>
  <rect fill="#FFEBA2" height="25" id="fd5c63e0ec194f0d8cfeda9cbbf3addf-ao-7" stroke="#2D2D2D" width="232.5" x="270.74995" y="556.25"/>
  <rect fill="#FFEBA2" height="27.5" id="fd5c63e0ec194f0d8cfeda9cbbf3addf-ao-8" stroke="#2D2D2D" width="190" x="320.74995" y="598.75"/>
  <rect fill="#FFEBA2" height="27.5" id="fd5c63e0ec194f0d8cfeda9cbbf3addf-ao-9" stroke="#2D2D2D" width="185" x="295.74995" y="638.75"/>
  <rect fill="#FFEBA2" height="22.5" id="fd5c63e0ec194f0d8cfeda9cbbf3addf-ao-10" stroke="#2D2D2D" width="95" x="295.74995" y="686.25"/>
  <rect class="qshape" fill="#FF7E7E" height="75" id="fd5c63e0ec194f0d8cfeda9cbbf3addf-ao-11" stroke="#2D2D2D" width="102.5" x="320.74995" y="817.5"/>
  <rect fill="#FFEBA2" height="67.5" id="fd5c63e0ec194f0d8cfeda9cbbf3addf-ao-12" stroke="#2D2D2D" width="100" x="283.24995" y="982.5"/>
  <rect fill="#FFEBA2" height="27.5" id="fd5c63e0ec194f0d8cfeda9cbbf3addf-ao-13" stroke="#2D2D2D" width="277.5" x="20.74995" y="1170"/>
  <rect fill="#FFEBA2" height="25" id="fd5c63e0ec194f0d8cfeda9cbbf3addf-ao-14" stroke="#2D2D2D" width="225" x="83.24995" y="1212.5"/>
  <rect fill="#FFEBA2" height="25" id="fd5c63e0ec194f0d8cfeda9cbbf3addf-ao-15" stroke="#2D2D2D" width="122.5" x="193.24995" y="1255"/>
  <rect fill="#FFEBA2" height="25" id="fd5c63e0ec194f0d8cfeda9cbbf3addf-ao-16" stroke="#2D2D2D" width="217.5" x="103.24995" y="1297.5"/>
  <rect fill="#FFEBA2" height="25" id="fd5c63e0ec194f0d8cfeda9cbbf3addf-ao-17" stroke="#2D2D2D" width="207.5" x="115.74995" y="1337.5"/>
  <rect fill="#FFEBA2" height="25" id="fd5c63e0ec194f0d8cfeda9cbbf3addf-ao-18" stroke="#2D2D2D" width="227.5" x="105.74995" y="1380"/>
  <rect fill="#FFEBA2" height="52.5" id="fd5c63e0ec194f0d8cfeda9cbbf3addf-ao-19" stroke="#2D2D2D" width="100" x="583.24995" y="1337.5"/>
  <g id="fd5c63e0ec194f0d8cfeda9cbbf3addf-ao-20">
   <rect fill="#FFEBA2" height="22.5" stroke="#2D2D2D" stroke-dasharray="null" stroke-linecap="null" stroke-linejoin="null" width="75" x="850.74995" y="1270"/>
   <rect fill="#FFEBA2" height="95" stroke="#2D2D2D" stroke-dasharray="null" stroke-linecap="null" stroke-linejoin="null" width="100" x="850.74995" y="1295"/>
  </g>
 </g>
</svg>