<svg height="697" width="1265" xmlns="http://www.w3.org/2000/svg">
 <!-- Created with Image Occlusion Enhanced -->
 <g>
  <title>Labels</title>
 </g>
 <g>
  <title>Masks</title>
  <rect fill="#FFEBA2" height="51.42857" id="fdb3cb1b25a8478dbeb3495bba3f6970-ao-1" stroke="#2D2D2D" width="202.85715" x="53.57142" y="5.85715"/>
  <rect fill="#FFEBA2" height="31.42857" id="fdb3cb1b25a8478dbeb3495bba3f6970-ao-2" stroke="#2D2D2D" width="422.85715" x="776.42857" y="37.28572"/>
  <rect fill="#FFEBA2" height="68.57143" id="fdb3cb1b25a8478dbeb3495bba3f6970-ao-3" stroke="#2D2D2D" width="231.42857" x="53.57142" y="63.00001"/>
  <rect fill="#FFEBA2" height="34.28571" id="fdb3cb1b25a8478dbeb3495bba3f6970-ao-4" stroke="#2D2D2D" width="211.42857" x="773.57143" y="94.42858"/>
  <rect fill="#FFEBA2" height="157.14286" id="fdb3cb1b25a8478dbeb3495bba3f6970-ao-5" stroke="#2D2D2D" width="222.85715" x="50.71428" y="140.14287"/>
  <rect fill="#FFEBA2" height="31.42857" id="fdb3cb1b25a8478dbeb3495bba3f6970-ao-6" stroke="#2D2D2D" width="300" x="773.57143" y="145.85715"/>
  <rect fill="#FFEBA2" height="34.28571" id="fdb3cb1b25a8478dbeb3495bba3f6970-ao-7" stroke="#2D2D2D" width="262.85715" x="773.57143" y="197.28573"/>
  <rect fill="#FFEBA2" height="31.42857" id="fdb3cb1b25a8478dbeb3495bba3f6970-ao-8" stroke="#2D2D2D" width="202.85715" x="776.42857" y="248.7143"/>
  <rect fill="#FFEBA2" height="31.42857" id="fdb3cb1b25a8478dbeb3495bba3f6970-ao-9" stroke="#2D2D2D" width="211.42857" x="47.85714" y="314.42858"/>
  <rect fill="#FFEBA2" height="57.14286" id="fdb3cb1b25a8478dbeb3495bba3f6970-ao-10" stroke="#2D2D2D" width="208.57143" x="1033.57143" y="328.7143"/>
  <rect fill="#FFEBA2" height="51.42857" id="fdb3cb1b25a8478dbeb3495bba3f6970-ao-11" stroke="#2D2D2D" width="205.71429" x="47.85714" y="354.42858"/>
  <rect fill="#FFEBA2" height="31.42857" id="fdb3cb1b25a8478dbeb3495bba3f6970-ao-12" stroke="#2D2D2D" width="222.85715" x="882.14286" y="405.85716"/>
  <rect fill="#FFEBA2" height="48.57143" id="fdb3cb1b25a8478dbeb3495bba3f6970-ao-13" stroke="#2D2D2D" width="211.42857" x="56.42856" y="411.57144"/>
  
  <rect fill="#FFEBA2" height="68.57143" id="fdb3cb1b25a8478dbeb3495bba3f6970-ao-15" stroke="#2D2D2D" width="220" x="56.42856" y="468.7143"/>
  <rect fill="#FFEBA2" height="34.28571" id="fdb3cb1b25a8478dbeb3495bba3f6970-ao-16" stroke="#2D2D2D" width="382.85715" x="713.57143" y="503.00002"/>
  <rect fill="#FFEBA2" height="31.42857" id="fdb3cb1b25a8478dbeb3495bba3f6970-ao-17" stroke="#2D2D2D" width="134.28572" x="147.85714" y="548.7143"/>
  <rect fill="#FFEBA2" height="31.42857" id="fdb3cb1b25a8478dbeb3495bba3f6970-ao-18" stroke="#2D2D2D" width="145.71429" x="699.28572" y="551.57144"/>
  <rect fill="#FFEBA2" height="48.57143" id="fdb3cb1b25a8478dbeb3495bba3f6970-ao-19" stroke="#2D2D2D" width="248.57143" x="56.42856" y="583.00002"/>
  <rect fill="#FFEBA2" height="31.42857" id="fdb3cb1b25a8478dbeb3495bba3f6970-ao-20" stroke="#2D2D2D" width="128.57143" x="707.85714" y="600.14287"/>
  <rect fill="#FFEBA2" height="31.42857" id="fdb3cb1b25a8478dbeb3495bba3f6970-ao-21" stroke="#2D2D2D" width="217.14286" x="53.57142" y="645.85716"/>
 </g>
</svg>