<svg height="1014.0000000000001" width="1156" xmlns="http://www.w3.org/2000/svg">
 <!-- Created with Image Occlusion Enhanced -->
 <g>
  <title>Labels</title>
 </g>
 <g>
  <title>Masks</title>
  <rect fill="#FFEBA2" height="28.57143" id="ff06dc46fef5454a84aff981aa28b2cd-ao-1" stroke="#2D2D2D" width="77.14286" x="445.42854" y="157.42859"/>
  <rect fill="#FFEBA2" height="51.42857" id="ff06dc46fef5454a84aff981aa28b2cd-ao-2" stroke="#2D2D2D" width="131.42857" x="468.28569" y="203.14288"/>
  <rect fill="#FFEBA2" height="51.42857" id="ff06dc46fef5454a84aff981aa28b2cd-ao-3" stroke="#2D2D2D" width="157.14286" x="491.14283" y="274.57145"/>
  
  <rect fill="#FFEBA2" height="34.28571" id="ff06dc46fef5454a84aff981aa28b2cd-ao-5" stroke="#2D2D2D" width="285.71429" x="585.42855" y="386.00002"/>
  <rect fill="#FFEBA2" height="122.85714" id="ff06dc46fef5454a84aff981aa28b2cd-ao-6" stroke="#2D2D2D" width="145.71429" x="62.57139" y="374.57145"/>
  <rect fill="#FFEBA2" height="28.57143" id="ff06dc46fef5454a84aff981aa28b2cd-ao-7" stroke="#2D2D2D" width="82.85714" x="656.85712" y="434.57145"/>
  <rect fill="#FFEBA2" height="28.57143" id="ff06dc46fef5454a84aff981aa28b2cd-ao-8" stroke="#2D2D2D" width="297.14286" x="673.99998" y="483.14288"/>
  <rect fill="#FFEBA2" height="31.42857" id="ff06dc46fef5454a84aff981aa28b2cd-ao-9" stroke="#2D2D2D" width="145.71429" x="673.99998" y="528.85717"/>
  <rect fill="#FFEBA2" height="25.71429" id="ff06dc46fef5454a84aff981aa28b2cd-ao-10" stroke="#2D2D2D" width="191.42857" x="651.14283" y="577.4286"/>
  <rect fill="#FFEBA2" height="28.57143" id="ff06dc46fef5454a84aff981aa28b2cd-ao-11" stroke="#2D2D2D" width="165.71429" x="639.71426" y="623.14289"/>
  <rect fill="#FFEBA2" height="31.42857" id="ff06dc46fef5454a84aff981aa28b2cd-ao-12" stroke="#2D2D2D" width="188.57143" x="636.85712" y="671.71431"/>
  <rect fill="#FFEBA2" height="57.14286" id="ff06dc46fef5454a84aff981aa28b2cd-ao-13" stroke="#2D2D2D" width="105.71429" x="62.57139" y="660.28574"/>
  <rect fill="#FFEBA2" height="31.42857" id="ff06dc46fef5454a84aff981aa28b2cd-ao-14" stroke="#2D2D2D" width="311.42858" x="636.85712" y="714.57146"/>
  <rect fill="#FFEBA2" height="31.42857" id="ff06dc46fef5454a84aff981aa28b2cd-ao-15" stroke="#2D2D2D" width="371.42858" x="633.99997" y="766.00003"/>
  <rect fill="#FFEBA2" height="25.71429" id="ff06dc46fef5454a84aff981aa28b2cd-ao-16" stroke="#2D2D2D" width="160" x="628.28569" y="814.57146"/>
  <rect fill="#FFEBA2" height="31.42857" id="ff06dc46fef5454a84aff981aa28b2cd-ao-17" stroke="#2D2D2D" width="185.71429" x="79.71425" y="840.28575"/>
  <rect fill="#FFEBA2" height="28.57143" id="ff06dc46fef5454a84aff981aa28b2cd-ao-18" stroke="#2D2D2D" width="148.57143" x="619.71426" y="857.4286"/>
  <rect fill="#FFEBA2" height="28.57143" id="ff06dc46fef5454a84aff981aa28b2cd-ao-19" stroke="#2D2D2D" width="51.42857" x="251.14283" y="923.14289"/>
 </g>
</svg>