<svg height="900" width="1252" xmlns="http://www.w3.org/2000/svg">
 <!-- Created with Image Occlusion Enhanced -->
 <g>
  <title>Labels</title>
 </g>
 <g>
  <title>Masks</title>
  <rect fill="#FFEBA2" height="33.33333" id="ffe1c52ccc744247b40ffea1d6a5f41a-ao-1" stroke="#2D2D2D" width="74.35897" x="824.92308" y="11.53846"/>
  <rect fill="#FFEBA2" height="25.64103" id="ffe1c52ccc744247b40ffea1d6a5f41a-ao-2" stroke="#2D2D2D" width="207.69231" x="848.00001" y="52.5641"/>
  <rect fill="#FFEBA2" height="28.20513" id="ffe1c52ccc744247b40ffea1d6a5f41a-ao-3" stroke="#2D2D2D" width="307.69231" x="327.48718" y="378.20513"/>
  <rect fill="#FFEBA2" height="28.20513" id="ffe1c52ccc744247b40ffea1d6a5f41a-ao-4" stroke="#2D2D2D" width="100" x="532.61539" y="408.97436"/>
  <rect fill="#FFEBA2" height="28.20513" id="ffe1c52ccc744247b40ffea1d6a5f41a-ao-5" stroke="#2D2D2D" width="361.53846" x="276.20513" y="439.74359"/>
  <rect fill="#FFEBA2" height="25.64103" id="ffe1c52ccc744247b40ffea1d6a5f41a-ao-6" stroke="#2D2D2D" width="366.66667" x="268.51282" y="470.51282"/>
  <rect fill="#FFEBA2" height="25.64103" id="ffe1c52ccc744247b40ffea1d6a5f41a-ao-7" stroke="#2D2D2D" width="161.53846" x="468.51282" y="501.28205"/>
  <rect fill="#FFEBA2" height="25.64103" id="ffe1c52ccc744247b40ffea1d6a5f41a-ao-8" stroke="#2D2D2D" width="189.74359" x="445.4359" y="532.05128"/>
  <rect fill="#FFEBA2" height="25.64103" id="ffe1c52ccc744247b40ffea1d6a5f41a-ao-9" stroke="#2D2D2D" width="241.02564" x="394.15385" y="560.25641"/>
  <rect fill="#FFEBA2" height="25.64103" id="ffe1c52ccc744247b40ffea1d6a5f41a-ao-10" stroke="#2D2D2D" width="364.10257" x="265.94872" y="588.46154"/>
  <rect fill="#FFEBA2" height="28.20513" id="ffe1c52ccc744247b40ffea1d6a5f41a-ao-11" stroke="#2D2D2D" width="279.48718" x="227.48718" y="619.23077"/>
  <rect class="qshape" fill="#FF7E7E" height="25.64103" id="ffe1c52ccc744247b40ffea1d6a5f41a-ao-12" stroke="#2D2D2D" width="125.64103" x="273.64103" y="655.12821"/>
  <rect fill="#FFEBA2" height="51.28205" id="ffe1c52ccc744247b40ffea1d6a5f41a-ao-13" stroke="#2D2D2D" width="292.30769" x="106.97436" y="680.76923"/>
  <rect fill="#FFEBA2" height="25.64103" id="ffe1c52ccc744247b40ffea1d6a5f41a-ao-14" stroke="#2D2D2D" width="294.8718" x="86.46154" y="742.30769"/>
  <rect fill="#FFEBA2" height="30.76923" id="ffe1c52ccc744247b40ffea1d6a5f41a-ao-15" stroke="#2D2D2D" width="269.23077" x="112.10257" y="778.20513"/>
  <rect fill="#FFEBA2" height="30.76923" id="ffe1c52ccc744247b40ffea1d6a5f41a-ao-16" stroke="#2D2D2D" width="384.61539" x="12.10257" y="814.10257"/>
  <rect fill="#FFEBA2" height="28.20513" id="ffe1c52ccc744247b40ffea1d6a5f41a-ao-17" stroke="#2D2D2D" width="246.15385" x="150.56411" y="852.5641"/>
 </g>
</svg>